<svg width="56" height="56" viewBox="0 0 56 56" fill="none" xmlns="http://www.w3.org/2000/svg">
<g clip-path="url(#clip0_11560_29440)">
<path d="M29.0209 35.901H30.5291C30.7382 35.9011 30.944 35.9531 31.1281 36.0523C31.3121 36.1516 31.4687 36.2949 31.5838 36.4694C31.6989 36.644 31.769 36.8444 31.7876 37.0527C31.8063 37.261 31.773 37.4706 31.6907 37.6629L28.3524 45.4549C28.2718 45.6414 28.1294 45.7946 27.9492 45.8885C27.7689 45.9824 27.5618 46.0113 27.3628 45.9705C27.1637 45.9296 26.9847 45.8214 26.8561 45.6641C26.7274 45.5068 26.6568 45.3099 26.6563 45.1067V39.273L25.4314 39.2351C25.1033 39.2242 24.7924 39.0861 24.5643 38.8502C24.3362 38.6142 24.2088 38.2988 24.209 37.9706V32.9774C24.209 32.642 24.3422 32.3204 24.5794 32.0833C24.8165 31.8461 25.1381 31.7129 25.4735 31.7129H27.7564C28.0918 31.7129 28.4134 31.8461 28.6505 32.0833C28.8877 32.3204 29.0209 32.642 29.0209 32.9774V35.901Z" fill="#F3AEBD"/>
<g clip-path="url(#clip1_11560_29440)">
<path d="M52.1484 5.24961H53.8984L51.4484 0.349609V3.14961H49.6984L52.1484 8.04961V5.24961Z" fill="black"/>
</g>
<path d="M14.3238 19.4447C14.7299 19.4447 15.1242 19.4949 15.5016 19.588C15.4153 19.2136 15.3716 18.8306 15.3714 18.4464C15.3714 15.6365 17.6493 13.3586 20.4592 13.3586C21.4849 13.3572 22.4868 13.6673 23.3324 14.2479C24.2868 10.5706 27.6283 7.85547 31.6041 7.85547C36.3235 7.85547 40.1494 11.6814 40.1494 16.4008C43.6977 16.4008 46.5742 19.2773 46.5742 22.8256C46.5742 26.3739 43.6978 29.2504 40.1494 29.2504H14.3238C11.616 29.2504 9.42091 27.0553 9.42091 24.3475C9.42091 21.6398 11.616 19.4447 14.3238 19.4447Z" fill="#737373"/>
</g>
<defs>
<clipPath id="clip0_11560_29440">
<rect width="56" height="56" rx="28" transform="matrix(-1 0 0 1 55.998 0)" fill="white"/>
</clipPath>
<clipPath id="clip1_11560_29440">
<rect width="8.4" height="8.4" fill="white" transform="matrix(-1 0 0 1 55.998 0)"/>
</clipPath>
</defs>
</svg>
