<svg width="56" height="56" viewBox="0 0 56 56" fill="none" xmlns="http://www.w3.org/2000/svg">
<g clip-path="url(#clip0_11560_29414)">
<g clip-path="url(#clip1_11560_29414)">
<rect width="56" height="56" rx="28" transform="matrix(-1 0 0 1 56 0)" fill="white"/>
<path d="M44.8076 25.2503C44.8076 25.2503 40.9007 23.6852 35.5578 29.1145C25.299 37.4238 12.1265 58.5631 10.8881 60.0468C8.40827 63.0181 10.325 67.1534 20.4656 67.0551C26.3944 66.9975 30.0232 64.2754 31.6489 61.8284C32.0819 61.1759 33.6729 58.2026 35.6223 54.2212C35.5637 58.2204 35.5399 61.1193 35.5399 61.1193C35.235 63.9536 41.6028 63.179 41.6028 63.179C52.4018 27.0558 44.8066 25.2523 44.8066 25.2523L44.8076 25.2503Z" fill="#595959"/>
<path d="M39.5588 12.095C38.9629 10.9023 37.8487 10.0691 37.0095 9.57549C37.3611 9.50001 37.8219 9.69565 37.8219 9.69565C37.371 9.2855 35.9211 9.03325 35.9211 9.03325C30.7569 1.68427 22.7922 11.2022 21.3423 13.682C19.8913 16.1608 18.072 18.9137 13.165 18.721C3.51007 18.3406 2.89633 28.0512 4.87162 33.0237C4.89943 33.0932 9.63256 41.475 9.63256 41.475C10.7468 39.4322 20.7693 30.7654 27.4409 30.8289C29.6814 29.9242 32.0479 27.2597 32.2327 27.0492C30.4798 29.2439 29.2077 30.2827 28.3596 30.7783C34.7025 29.7971 41.1388 15.2541 39.5588 12.093V12.095Z" fill="#2D2D2D"/>
<path d="M27.8386 30.8284C27.8565 30.8533 26.9667 34.1464 24.2922 32.7024C22.5364 31.754 19.719 27.7091 20.8044 26.3386C21.3208 25.6871 23.5941 24.4497 25.9606 20.2578L26.2447 20.5031L31.0225 24.6354C31.0225 24.6354 29.935 26.2601 29.0224 27.8541C28.2557 29.1928 27.6132 30.5106 27.8386 30.8284Z" fill="#F5AF8A"/>
<path d="M26.0664 19.4686C26.0664 19.4686 26.1558 16.0722 27.1598 13.7891C27.8768 12.1594 32.2356 7.25941 37.1385 11.6718C37.1385 11.6718 38.6093 12.8824 39.4207 14.8755C40.0652 16.4605 40.6144 19.3157 35.5575 22.7528L33.9973 24.0131L26.0664 19.4696V19.4686Z" fill="#2D2D2D"/>
<path d="M19.6484 24.5438C19.6484 24.5438 21.4042 24.8785 22.1461 23.8834C22.8879 22.8893 24.5037 20.7849 24.8811 21.9925C25.2585 23.2001 28.8227 26.7098 29.647 26.8021C30.4713 26.8945 31.0493 27.1249 30.5825 27.5519C30.1158 27.979 30.3104 29.6891 29.8446 29.845C29.3779 30.0009 20.723 24.4495 19.6494 24.5438H19.6484Z" fill="#F8A9A9"/>
<path d="M30.6837 26.9426C30.6837 26.9426 23.7936 22.4875 26.6339 18.239C29.4741 13.9905 30.498 10.5544 35.0176 13.2189C39.5373 15.8834 39.2999 18.0702 38.6961 19.7187C38.0933 21.3673 32.5498 27.9913 30.6837 26.9416V26.9426Z" fill="#FFBF9D"/>
<path d="M31.0231 30.3898C31.0231 30.3898 19.3541 21.7914 15.2704 25.03C9.24726 29.8068 10.4519 45.9338 9.05261 48.0323C7.65333 50.1307 -0.229942 65.1782 12.592 66.7096C25.414 68.24 28.3665 60.1571 28.9495 54.0952C29.5324 48.0333 31.0231 30.3898 31.0231 30.3898Z" fill="#F8A9A9"/>
<path d="M15.6698 30.2818C15.6698 30.2818 12.3101 48.8568 18.9689 53.9316C25.6277 59.0063 28.9794 29.7078 15.6698 30.2818Z" fill="#F99A9A"/>
<path d="M22.373 27.3128C22.373 27.3128 22.5012 25.1428 24.4159 25.9721C26.3306 26.8023 29.873 28.0467 31.2454 27.5362C32.6179 27.0258 29.0378 33.8871 25.7695 31.5891C22.5012 29.291 22.373 27.3128 22.373 27.3128Z" fill="#F99A9A"/>
<path d="M38.1921 15.1958C38.1921 15.1958 32.9882 18.9259 29.6305 17.7431C26.2729 16.5603 25.5449 14.9604 25.5449 14.9604C25.5449 14.9604 28.9105 14.6873 31.4082 11.9474C31.4082 11.9474 38.3719 11.8818 38.1911 15.1958H38.1921Z" fill="#2D2D2D"/>
<path d="M47.0625 39.4102C47.0625 39.4102 49.7012 40.5592 49.1768 43.5872C48.6525 46.6151 47.6028 45.6002 47.6028 45.6002L47.0625 39.4102Z" fill="#FFBF9D"/>
<path d="M37.4557 15.2916C37.4557 15.2916 38.1042 17.3374 37.7189 18.6463C37.3345 19.9552 35.9958 22.283 36.695 22.6416C36.695 22.6416 40.3695 20.1985 40.0735 17.2242C39.7587 14.0711 37.4557 15.2906 37.4557 15.2906V15.2916Z" fill="#2D2D2D"/>
<path d="M7.61377 60.0475C9.17195 58.1804 29.7332 22.2399 38.2868 22.7236C51.1595 23.4515 28.6626 59.3344 27.0846 61.7109C25.4589 64.1589 23.1211 66.9972 17.1923 67.0548C7.05067 67.1541 5.13498 63.0178 7.61476 60.0465L7.61377 60.0475Z" fill="#636363"/>
<path d="M41.9022 25.25C41.9022 25.25 42.4136 25.7267 54.0578 61.5272C54.0578 61.5272 49.1995 65.0477 48.117 62.41C48.117 62.41 32.426 38.8595 36.1223 34.7123C39.8187 30.5651 41.9022 25.25 41.9022 25.25Z" fill="#636363"/>
<path d="M14.7052 26.3419C14.7052 26.3419 11.6316 31.0899 21.1902 35.4457C30.7489 39.8014 31.8741 40.8651 33.7381 41.2544C36.642 41.8601 47.7975 41.7747 47.7975 41.7747C47.7975 41.7747 48.0905 40.006 47.0626 39.4082C45.417 38.4518 35.915 36.8976 34.6339 36.3852C33.3528 35.8727 19.7006 21.1976 14.7033 26.3419H14.7052Z" fill="#FFBF9D"/>
<path d="M16.8334 24.3066C16.8334 24.3066 21.7155 24.5043 31.9008 33.8871C31.9008 33.8871 33.4589 35.78 34.2346 35.9061C35.0102 36.0322 37.1106 36.5844 37.1563 37.1187C37.202 37.653 34.5692 44.3555 31.2185 44.5471C27.8678 44.7388 12.1648 33.2009 13.2661 29.3238C14.3675 25.4457 16.8334 24.3076 16.8334 24.3076V24.3066Z" fill="#F8A9A9"/>
</g>
</g>
<defs>
<clipPath id="clip0_11560_29414">
<rect width="56" height="56" rx="28" fill="white"/>
</clipPath>
<clipPath id="clip1_11560_29414">
<rect width="56" height="56" rx="28" transform="matrix(-1 0 0 1 56 0)" fill="white"/>
</clipPath>
</defs>
</svg>
