<svg width="56" height="56" viewBox="0 0 56 56" fill="none" xmlns="http://www.w3.org/2000/svg">
<path d="M36.492 35.5454C36.611 35.018 35.8838 34.749 35.6309 35.2269L33.8591 38.575C33.6092 39.0473 33.7894 39.6328 34.2618 39.8828C34.8252 40.1809 35.5179 39.8623 35.6582 39.2405L36.492 35.5454Z" fill="#CDCDCD"/>
<path d="M38.72 38.7305C38.838 38.2077 38.1172 37.9411 37.8665 38.4148L36.1102 41.7337C35.8624 42.2019 36.0411 42.7823 36.5093 43.03C37.0678 43.3256 37.7545 43.0098 37.8936 42.3934L38.72 38.7305Z" fill="#CDCDCD"/>
<path d="M28.4705 35.5454C28.5895 35.018 27.8623 34.749 27.6094 35.2269L25.8376 38.575C25.5877 39.0473 25.768 39.6328 26.2403 39.8828C26.8037 40.1809 27.4964 39.8623 27.6367 39.2405L28.4705 35.5454Z" fill="#CDCDCD"/>
<path d="M30.7571 38.7305C30.8751 38.2077 30.1543 37.9411 29.9036 38.4148L28.1473 41.7337C27.8995 42.2019 28.0782 42.7823 28.5464 43.03C29.1049 43.3256 29.7916 43.0098 29.9307 42.3934L30.7571 38.7305Z" fill="#CDCDCD"/>
<path d="M20.2947 35.5454C20.4137 35.018 19.6865 34.749 19.4336 35.2269L17.6619 38.575C17.4119 39.0473 17.5922 39.6328 18.0645 39.8828C18.6279 40.1809 19.3206 39.8623 19.4609 39.2405L20.2947 35.5454Z" fill="#CDCDCD"/>
<path d="M22.6399 38.7305C22.7579 38.2077 22.0371 37.9411 21.7864 38.4148L20.0301 41.7337C19.7823 42.2019 19.961 42.7823 20.4292 43.03C20.9877 43.3256 21.6744 43.0098 21.8135 42.3934L22.6399 38.7305Z" fill="#CDCDCD"/>
<path d="M15.4405 22.6504C15.816 22.6504 16.1804 22.6972 16.5294 22.7838C16.4496 22.4352 16.4092 22.0786 16.409 21.7208C16.409 19.1045 18.5147 16.9835 21.1123 16.9835C22.0605 16.9822 22.9867 17.2709 23.7684 17.8115C24.6507 14.3875 27.7397 11.8594 31.415 11.8594C35.7778 11.8594 39.3146 15.4218 39.3146 19.8162C42.5948 19.8162 45.2539 22.4945 45.2539 25.7984C45.2539 29.1023 42.5948 31.7807 39.3146 31.7807H15.4405C12.9374 31.7807 10.9081 29.7368 10.9081 27.2155C10.9081 24.6943 12.9374 22.6504 15.4405 22.6504Z" fill="#737373"/>
</svg>
