<svg width="56" height="56" viewBox="0 0 56 56" fill="none" xmlns="http://www.w3.org/2000/svg">
<path d="M48.4575 27.9514C48.4575 39.1579 39.3728 48.2426 28.1662 48.2426C16.9597 48.2426 7.875 39.1579 7.875 27.9514C7.875 16.7449 16.9597 7.66016 28.1662 7.66016C39.3728 7.66016 48.4575 16.7449 48.4575 27.9514Z" fill="url(#paint0_radial_11560_29380)"/>
<path fill-rule="evenodd" clip-rule="evenodd" d="M40.3721 14.6296C40.0027 14.8089 39.5579 14.6548 39.3785 14.2854L37.9226 11.2859C37.8306 11.0963 37.8233 10.8765 37.9027 10.6812C37.982 10.486 38.1406 10.3336 38.3388 10.262L39.5906 9.80971L38.201 7.42512C37.9943 7.07037 38.1143 6.61516 38.4691 6.4084C38.8238 6.20171 39.279 6.32169 39.4858 6.67643L41.3243 9.83151C41.4354 10.0221 41.4561 10.2522 41.3809 10.4595C41.3055 10.6669 41.1421 10.8301 40.9346 10.9051L39.6211 11.3798L40.7163 13.6361C40.8956 14.0055 40.7415 14.4503 40.3721 14.6296Z" fill="#F38D8D"/>
<path fill-rule="evenodd" clip-rule="evenodd" d="M47.0599 10.9814C46.7954 10.6673 46.3263 10.6271 46.0122 10.8915L43.4617 13.0389C43.3005 13.1748 43.2044 13.3725 43.1975 13.5832C43.1905 13.7938 43.2733 13.9975 43.4252 14.1436L44.3846 15.0662L42.145 16.679C41.8117 16.9189 41.7361 17.3835 41.9761 17.7168C42.216 18.0499 42.6807 18.1255 43.0139 17.8857L45.9772 15.7518C46.1562 15.6229 46.2688 15.4211 46.2844 15.2011C46.3 14.981 46.2171 14.7654 46.0581 14.6125L45.0514 13.6444L46.97 12.029C47.2841 11.7645 47.3243 11.2955 47.0599 10.9814Z" fill="#F38D8D"/>
<path d="M36.6972 27.2092C35.9359 28.0488 34.8707 28.125 34.3178 27.6236C33.7649 27.1223 33.737 26.0547 34.4984 25.2152C35.2597 24.3756 36.3249 24.2994 36.8778 24.8007C37.4307 25.3021 37.4586 26.3697 36.6972 27.2092Z" fill="#334155" stroke="#334155" stroke-width="0.822709"/>
<path d="M21.6566 25.1316C22.4829 25.9074 22.5407 26.9737 22.0299 27.5179C21.519 28.062 20.4511 28.0714 19.6249 27.2957C18.7986 26.5199 18.7408 25.4535 19.2516 24.9094C19.7625 24.3653 20.8304 24.3559 21.6566 25.1316Z" fill="#334155" stroke="#334155" stroke-width="0.822709"/>
<path d="M40.1288 20.7949C35.1289 19.7949 34.1284 22.2958 32.8312 23.5756L31.1284 21.7958" stroke="#334155" stroke-width="0.811503" stroke-linecap="round" stroke-linejoin="round"/>
<path d="M16.0079 20.7949C21.0078 19.7949 22.0083 22.2958 23.3055 23.5756L25.0083 21.7958" stroke="#334155" stroke-width="0.811503" stroke-linecap="round" stroke-linejoin="round"/>
<path d="M23.9258 36.4523C25.6565 35.3354 29.7738 33.8556 32.3972 36.8711" stroke="#334155" stroke-width="0.811503" stroke-linecap="round" stroke-linejoin="round"/>
<defs>
<radialGradient id="paint0_radial_11560_29380" cx="0" cy="0" r="1" gradientUnits="userSpaceOnUse" gradientTransform="translate(28.1662 -1.03609) rotate(90) scale(66.8942)">
<stop stop-color="#FFE3A3" stop-opacity="0.78"/>
<stop offset="1" stop-color="#FFBB67"/>
</radialGradient>
</defs>
</svg>
