<svg width="56" height="56" viewBox="0 0 56 56" fill="none" xmlns="http://www.w3.org/2000/svg">
<path d="M47.3906 27.9473C47.3906 38.5323 38.8097 47.1133 28.2246 47.1133C17.6395 47.1133 9.05859 38.5323 9.05859 27.9473C9.05859 17.3622 17.6395 8.78125 28.2246 8.78125C38.8097 8.78125 47.3906 17.3622 47.3906 27.9473Z" fill="url(#paint0_radial_11560_29366)"/>
<path d="M37.0828 25.2113C37.0828 26.3447 36.345 27.1167 35.5987 27.1167C34.8523 27.1167 34.1145 26.3447 34.1145 25.2113C34.1145 24.0779 34.8523 23.3059 35.5987 23.3059C36.345 23.3059 37.0828 24.0779 37.0828 25.2113Z" fill="#334155" stroke="#334155" stroke-width="0.822709"/>
<path d="M22.1258 25.2133C22.1258 26.3466 21.388 27.1187 20.6416 27.1187C19.8953 27.1187 19.1574 26.3466 19.1574 25.2133C19.1574 24.0799 19.8953 23.3078 20.6416 23.3078C21.388 23.3078 22.1258 24.0799 22.1258 25.2133Z" fill="#334155" stroke="#334155" stroke-width="0.822709"/>
<path d="M16.8086 22.3705C18.4055 22.4344 21.7525 21.9489 22.3657 19.4961" stroke="#334155" stroke-width="0.822709" stroke-linecap="round" stroke-linejoin="round"/>
<path d="M38.4629 21.9877C36.866 22.0515 33.519 21.5661 32.9058 19.1133" stroke="#334155" stroke-width="0.822709" stroke-linecap="round" stroke-linejoin="round"/>
<path d="M24.2188 35.9735C25.8538 34.9183 29.7437 33.5202 32.2221 36.3691" stroke="#334155" stroke-width="0.822709" stroke-linecap="round" stroke-linejoin="round"/>
<path d="M37.4373 28.3848V28.3848C36.3468 29.4753 34.5788 29.4753 33.4883 28.3848V28.3848" stroke="#334155" stroke-width="0.822709" stroke-linecap="round" stroke-linejoin="round"/>
<path d="M22.5194 28.3848V28.3848C21.4289 29.4753 19.6608 29.4753 18.5703 28.3848V28.3848" stroke="#334155" stroke-width="0.822709" stroke-linecap="round" stroke-linejoin="round"/>
<path fill-rule="evenodd" clip-rule="evenodd" d="M17.7008 32.0465C17.7404 32.1027 17.739 32.1153 17.6568 32.444C17.4225 33.3814 17.5329 34.2031 18.0111 35.0815C18.092 35.2301 18.2222 35.4494 18.3005 35.569C19.0241 36.6733 19.2539 37.1329 19.3486 37.664C19.3924 37.91 19.3827 38.3462 19.3281 38.5782C19.1144 39.4875 18.4189 40.1922 17.4731 40.458C16.502 40.7308 15.5002 40.4904 14.7715 39.8096C14.3733 39.4376 14.1122 38.9444 14.0265 38.4024C13.8489 37.2789 14.5649 35.6439 16.0999 33.6675C16.6395 32.9727 17.466 32.032 17.5565 32.0096C17.6344 31.9904 17.667 31.9987 17.7008 32.0465ZM14.8389 36.1596C15.084 35.687 15.3038 35.4526 15.5533 35.3975C15.7431 35.3557 16.0101 35.4902 16.0803 35.6632C16.1114 35.7399 16.1076 35.8999 16.0709 36.0548C16.026 36.2442 16.0299 36.4091 16.081 36.4869C16.1382 36.5742 16.2813 36.6667 16.4122 36.7011C16.5499 36.7373 16.7086 36.7416 17.1644 36.7216C17.5546 36.7045 17.6805 36.7181 17.846 36.7954C17.992 36.8636 18.1256 37.0084 18.2295 37.211C18.3882 37.5206 18.42 37.6823 18.3934 38.0456L18.3838 38.1763L18.4846 38.2805C18.7388 38.5434 18.8236 38.9497 18.6836 39.2338C18.5073 39.5913 18.0505 39.9797 17.6164 40.1411C17.3213 40.2507 17.1665 40.2777 16.8204 40.28C16.4694 40.2823 16.2934 40.2566 15.9429 40.152C15.2596 39.9481 14.7065 39.4803 14.456 38.8946C14.1603 38.203 14.3012 37.1965 14.8389 36.1596Z" fill="#84CADC"/>
<path d="M15.5533 35.3975C15.3038 35.4526 15.084 35.687 14.8389 36.1596C14.3012 37.1965 14.1603 38.203 14.456 38.8946C14.7065 39.4803 15.2596 39.9481 15.9429 40.152C16.2934 40.2566 16.4694 40.2823 16.8204 40.28C17.1665 40.2777 17.3213 40.2507 17.6164 40.1411C18.0505 39.9797 18.5073 39.5913 18.6836 39.2338C18.8236 38.9497 18.7388 38.5434 18.4846 38.2805L18.3838 38.1763L18.3934 38.0456C18.42 37.6823 18.3882 37.5206 18.2295 37.211C18.1256 37.0084 17.992 36.8636 17.846 36.7954C17.6805 36.7181 17.5546 36.7045 17.1644 36.7216C16.7086 36.7416 16.5499 36.7373 16.4122 36.7011C16.2813 36.6667 16.1382 36.5742 16.081 36.4869C16.0299 36.4091 16.026 36.2442 16.0709 36.0548C16.1076 35.8999 16.1114 35.7399 16.0803 35.6632C16.0101 35.4902 15.7431 35.3557 15.5533 35.3975Z" fill="#84CADC"/>
<defs>
<radialGradient id="paint0_radial_11560_29366" cx="0" cy="0" r="1" gradientUnits="userSpaceOnUse" gradientTransform="translate(28.2246 0.56725) rotate(90) scale(63.1846)">
<stop stop-color="#FFE3A3" stop-opacity="0.78"/>
<stop offset="1" stop-color="#FFBB67"/>
</radialGradient>
</defs>
</svg>
