<svg width="56" height="56" viewBox="0 0 56 56" fill="none" xmlns="http://www.w3.org/2000/svg">
<g clip-path="url(#clip0_11560_29353)">
<rect width="56" height="56" rx="28" fill="white"/>
<path d="M47.3906 27.9473C47.3906 38.5323 38.8097 47.1133 28.2246 47.1133C17.6395 47.1133 9.05859 38.5323 9.05859 27.9473C9.05859 17.3622 17.6395 8.78125 28.2246 8.78125C38.8097 8.78125 47.3906 17.3622 47.3906 27.9473Z" fill="url(#paint0_radial_11560_29353)"/>
<path d="M39.2092 21.1327C37.5251 21.3599 33.9334 21.1806 33.0391 18.6453" stroke="#334155" stroke-opacity="0.8" stroke-width="0.895987" stroke-linecap="round" stroke-linejoin="round"/>
<path d="M16.9998 21.1327C18.6839 21.3599 22.2756 21.1806 23.1699 18.6453" stroke="#334155" stroke-opacity="0.8" stroke-width="0.895987" stroke-linecap="round" stroke-linejoin="round"/>
<path d="M32.332 24C32.2704 26.0852 33.3792 29.8563 38.3074 28.2587" stroke="#334155" stroke-width="1.30662" stroke-linecap="round" stroke-linejoin="round"/>
<path d="M18 27.9746C19.9142 28.8039 23.8278 29.1701 24.1684 24.0006" stroke="#334155" stroke-width="1.30662" stroke-linecap="round" stroke-linejoin="round"/>
<path d="M24.2188 35.9754C25.8538 34.9202 29.7437 33.5221 32.2221 36.3711" stroke="#334155" stroke-width="0.822709" stroke-linecap="round" stroke-linejoin="round"/>
<path fill-rule="evenodd" clip-rule="evenodd" d="M38.3721 13.6296C38.0027 13.8089 37.5579 13.6548 37.3785 13.2854L35.9226 10.2859C35.8306 10.0963 35.8233 9.87655 35.9027 9.68125C35.982 9.48604 36.1406 9.33364 36.3388 9.262L37.5906 8.80971L36.201 6.42512C35.9943 6.07037 36.1143 5.61516 36.4691 5.4084C36.8238 5.20171 37.279 5.32169 37.4858 5.67643L39.3243 8.83151C39.4354 9.02206 39.4561 9.25222 39.3809 9.45953C39.3055 9.66691 39.1421 9.83013 38.9346 9.90507L37.6211 10.3798L38.7163 12.6361C38.8956 13.0055 38.7415 13.4503 38.3721 13.6296Z" fill="#F38D8D"/>
<path fill-rule="evenodd" clip-rule="evenodd" d="M45.0579 9.98139C44.7935 9.66726 44.3244 9.62706 44.0102 9.89153L41.4597 12.0389C41.2985 12.1748 41.2025 12.3725 41.1955 12.5832C41.1886 12.7938 41.2713 12.9975 41.4233 13.1436L42.3827 14.0662L40.143 15.679C39.8098 15.9189 39.7342 16.3835 39.9741 16.7168C40.214 17.0499 40.6787 17.1255 41.0119 16.8857L43.9753 14.7518C44.1543 14.6229 44.2668 14.4211 44.2824 14.2011C44.298 13.981 44.2152 13.7654 44.0561 13.6125L43.0495 12.6444L44.968 11.029C45.2821 10.7645 45.3224 10.2955 45.0579 9.98139Z" fill="#F38D8D"/>
</g>
<defs>
<radialGradient id="paint0_radial_11560_29353" cx="0" cy="0" r="1" gradientUnits="userSpaceOnUse" gradientTransform="translate(28.2246 0.56725) rotate(90) scale(63.1846)">
<stop stop-color="#FFE3A3" stop-opacity="0.78"/>
<stop offset="1" stop-color="#FFBB67"/>
</radialGradient>
<clipPath id="clip0_11560_29353">
<rect width="56" height="56" rx="28" fill="white"/>
</clipPath>
</defs>
</svg>
