<svg width="56" height="56" viewBox="0 0 56 56" fill="none" xmlns="http://www.w3.org/2000/svg">
<path d="M47.3906 27.9473C47.3906 38.5323 38.8097 47.1133 28.2246 47.1133C17.6395 47.1133 9.05859 38.5323 9.05859 27.9473C9.05859 17.3622 17.6395 8.78125 28.2246 8.78125C38.8097 8.78125 47.3906 17.3622 47.3906 27.9473Z" fill="url(#paint0_radial_11560_29328)"/>
<path d="M23.4675 10.4004C21.5748 11.2401 20.8247 13.6061 21.5428 15.4771C22.3791 17.6515 24.5655 18.8488 26.7965 19.0404C29.1138 19.2416 31.9481 18.5998 33.445 16.6904C34.7568 15.0173 34.8015 12.4087 32.8067 11.2306C30.7894 10.0364 28.8042 11.8244 28.0637 13.6444C27.553 14.896 27.3998 16.2562 26.921 17.5142C26.5284 18.5455 25.8198 19.6343 24.7346 20.0238C23.6526 20.4134 22.4653 19.9376 21.7727 19.0596C21.0481 18.14 21.0322 16.8756 21.5269 15.8443C22.0599 14.7268 23.1004 13.9956 24.3005 13.7402C25.5932 13.4656 26.8476 13.7881 28.0222 14.3309C29.8926 15.1962 32.0055 16.4637 34.0674 15.3622C34.926 14.9056 35.4431 14.0116 35.3824 13.0346C35.3122 11.9266 34.6483 11.0007 33.7833 10.3493C31.9576 8.97636 29.0499 8.04403 26.9178 9.22541C26.0369 9.71392 25.2836 10.56 25.0698 11.5658C24.8272 12.7057 25.3411 13.7561 25.9635 14.6757C26.6561 15.6974 27.6743 16.8565 27.4796 18.1911C27.3168 19.3118 26.2475 19.845 25.2198 19.9312C24.109 20.0238 23.0111 19.6758 22.111 19.0245C21.2045 18.3667 20.4193 17.2907 20.5885 16.1157C20.9332 13.721 23.9846 13.5039 25.8518 13.4081C27.0199 13.3475 28.2456 13.1687 29.1233 12.3193C29.8734 11.5945 30.0968 10.56 29.6404 9.61175C28.8169 7.91312 26.4263 6.81476 24.607 7.35117C23.7228 7.61298 23.0238 8.32181 22.8355 9.23498C22.6344 10.212 22.9823 11.2337 23.5217 12.0447C24.1569 13.0026 25.1017 13.6508 26.0496 14.267C27.0295 14.9056 28.1339 15.5474 28.7818 16.5531C29.3148 17.3801 29.6372 18.5423 29.2127 19.4842C28.6893 20.6496 27.32 20.7263 26.2443 20.3974C25.2708 20.1005 23.3494 19.2192 24.4378 17.99C24.8112 17.5653 25.3251 17.2875 25.8294 17.0544C26.4997 16.7447 27.17 16.4382 27.8402 16.1285C29.2063 15.4995 30.5692 14.8737 31.9353 14.2447C32.8769 13.8104 34.1855 13.4209 34.7536 12.4726C35.2994 11.5626 34.6515 10.6814 33.7961 10.3174C32.7907 9.88953 31.581 9.87995 30.5277 10.1226C28.2871 10.6335 26.5284 12.4822 26.1103 14.7428C25.8613 16.0966 26.3273 17.4567 26.0816 18.7978C25.8932 19.8355 24.5304 21.2276 23.5792 20.0685C22.6536 18.9446 23.6015 17.3162 24.0803 16.2083C24.607 14.9886 25.1272 13.7498 25.3187 12.4247C25.6028 10.477 25.0091 8.08234 23.0877 7.16917C21.3194 6.32624 19.1139 7.12766 17.9776 8.63791C16.5764 10.5026 16.8126 13.1623 17.8595 15.1291C18.9926 17.262 21.0034 18.8584 23.027 20.1005C25.1113 21.3776 27.5881 22.3355 30.0649 21.8885C32.2385 21.4958 34.0514 19.9664 35.1335 18.0794C37.3007 14.2926 36.4772 8.92208 32.7747 6.39968C31.0352 5.21511 28.8105 4.73617 26.7423 5.14167C24.7506 5.5312 23.0685 6.80837 22.1078 8.58682C21.1662 10.327 20.9173 12.479 21.6897 14.3309C22.5355 16.352 24.441 17.8048 26.5061 18.421C28.6829 19.0692 31.3161 18.8073 32.9535 17.1023C34.31 15.6942 34.9228 13.3251 33.7131 11.6297C32.6854 10.1897 30.6203 9.48084 29.0276 10.4036C28.7627 10.5568 29.002 10.9719 29.2702 10.8187C30.965 9.83525 33.2663 11.023 33.7642 12.8398C34.3547 15.0014 32.8035 17.2013 30.8086 17.9229C28.6414 18.7052 26.1199 18.1304 24.291 16.8022C22.5706 15.5538 21.5556 13.5997 21.7312 11.4604C21.8876 9.52554 22.944 7.62895 24.5655 6.54016C26.2795 5.39072 28.4946 5.2183 30.4415 5.81218C32.4875 6.4348 34.1408 7.88438 35.0473 9.81929C35.9665 11.7765 36.0942 14.0978 35.4558 16.1572C34.8271 18.1911 33.3939 20.043 31.447 20.9562C29.1808 22.0162 26.6178 21.4447 24.4761 20.3655C22.3982 19.3182 20.3076 17.8271 18.9256 15.9305C17.5755 14.0786 16.902 11.4541 18.0893 9.34674C19.0405 7.65768 21.4407 6.67108 23.1802 7.76624C25.1559 9.01148 25.14 11.7382 24.5367 13.7114C24.1601 14.9503 23.5728 16.1061 23.0972 17.3067C22.711 18.2837 22.4876 19.4427 23.1834 20.3399C23.7547 21.0743 24.7346 21.1477 25.4719 20.6177C26.3561 19.9791 26.6401 18.951 26.621 17.9069C26.5986 16.6457 26.3465 15.4548 26.7359 14.2159C27.0774 13.1208 27.7732 12.1246 28.7084 11.4541C29.65 10.7772 30.8118 10.4291 31.9704 10.4515C32.762 10.4643 34.8494 10.774 34.4409 12.0256C34.2845 12.5013 33.7929 12.8174 33.378 13.0441C32.813 13.3538 32.2098 13.5997 31.6257 13.8679C30.3554 14.4522 29.0882 15.0365 27.8179 15.6176C27.1955 15.905 26.5731 16.1891 25.9507 16.4765C25.4432 16.7096 24.9421 16.9395 24.5016 17.2875C23.8154 17.8271 23.3079 18.7052 23.8728 19.5257C24.4154 20.3144 25.6475 20.7806 26.5444 20.9689C27.4828 21.1669 28.5169 21.052 29.2127 20.3304C30.483 19.0117 29.7808 16.7958 28.6573 15.6336C27.1157 14.0435 24.6868 13.373 23.6462 11.304C23.1866 10.3908 23.043 9.20625 23.7867 8.39844C24.4378 7.68961 25.4751 7.59702 26.3688 7.79179C27.3583 8.00571 28.3158 8.55809 28.9318 9.37228C29.2797 9.82887 29.5063 10.3972 29.3819 10.9751C29.2638 11.5403 28.8488 12 28.3765 12.3066C27.3008 13.0058 25.9475 12.8973 24.7251 12.9835C23.809 13.0473 22.8898 13.2389 22.0599 13.6412C21.3067 14.0052 20.6428 14.5799 20.314 15.3654C19.9374 16.2658 20.081 17.2588 20.5821 18.0794C21.5843 19.7205 23.659 20.6592 25.5485 20.3751C26.3561 20.2537 27.154 19.8897 27.6136 19.1905C28.2137 18.2773 27.9902 17.1502 27.5402 16.2275C27.0231 15.1738 26.1422 14.3309 25.7081 13.2357C25.2772 12.1437 25.5549 11.0326 26.388 10.2216C28.2488 8.40483 31.2554 9.26372 33.1865 10.5153C34.1632 11.1475 35.025 12.1661 34.91 13.4017C34.8143 14.4554 33.9174 15.0748 32.9503 15.2536C30.633 15.6815 28.7595 13.8264 26.6178 13.3187C24.6006 12.843 22.2738 13.5167 21.2269 15.4069C20.2757 17.1279 20.7066 19.3501 22.5195 20.2952C23.3398 20.7231 24.2878 20.7774 25.1336 20.391C26.0273 19.9823 26.6784 19.1649 27.1093 18.2997C28.1243 16.2562 27.9296 13.5263 29.8223 11.9713C30.6809 11.2689 31.8236 11.1188 32.7524 11.7765C33.678 12.4279 34.0866 13.5837 33.8791 14.6821C33.3971 17.2268 30.6937 18.3539 28.3796 18.5679C26.0592 18.7818 23.509 18.073 22.2801 15.9369C21.2684 14.1776 21.7503 11.6967 23.7069 10.8314C23.9909 10.6878 23.7484 10.2759 23.4675 10.4004Z" fill="#D98A2E"/>
<path d="M40.035 8.76052L37.273 11.9199L36.8456 10.1612L35.0526 11.6844L37.5533 7.81384L37.9084 9.94668L40.035 8.76052Z" fill="#FD6060"/>
<path d="M16.396 5.03926L20.0832 8.30224L18.1338 8.64161L19.936 10.7204L15.4649 7.69251L17.8375 7.45963L16.396 5.03926Z" fill="#FD6060"/>
<path d="M37.2743 31.098C37.2743 32.2314 36.5364 33.0034 35.7901 33.0034C35.0437 33.0034 34.3059 32.2314 34.3059 31.098C34.3059 29.9647 35.0437 29.1926 35.7901 29.1926C36.5364 29.1926 37.2743 29.9647 37.2743 31.098Z" fill="#334155" stroke="#334155" stroke-width="0.822709"/>
<path d="M22.3172 31.1C22.3172 32.2333 21.5794 33.0054 20.833 33.0054C20.0867 33.0054 19.3489 32.2333 19.3489 31.1C19.3489 29.9666 20.0867 29.1946 20.833 29.1946C21.5794 29.1946 22.3172 29.9666 22.3172 31.1Z" fill="#334155" stroke="#334155" stroke-width="0.822709"/>
<path d="M17 28.2572C18.5969 28.3211 21.9439 27.8356 22.5571 25.3828" stroke="#334155" stroke-width="0.822709" stroke-linecap="round" stroke-linejoin="round"/>
<path d="M38.6543 27.8744C37.0574 27.9383 33.7104 27.4528 33.0972 25" stroke="#334155" stroke-width="0.822709" stroke-linecap="round" stroke-linejoin="round"/>
<path d="M24.2188 40.9735C25.8538 39.9183 29.7437 38.5202 32.2221 41.3691" stroke="#334155" stroke-width="0.822709" stroke-linecap="round" stroke-linejoin="round"/>
<defs>
<radialGradient id="paint0_radial_11560_29328" cx="0" cy="0" r="1" gradientUnits="userSpaceOnUse" gradientTransform="translate(28.2246 0.56725) rotate(90) scale(63.1846)">
<stop stop-color="#FFE3A3" stop-opacity="0.78"/>
<stop offset="1" stop-color="#FFBB67"/>
</radialGradient>
</defs>
</svg>
