<svg width="56" height="56" viewBox="0 0 56 56" fill="none" xmlns="http://www.w3.org/2000/svg">
<g clip-path="url(#clip0_18814_39647)">
<path d="M55.6307 35.4507C55.7487 35.5987 55.8638 35.7482 55.976 35.9004C56.1734 36.1656 56.3616 36.4349 56.5412 36.7088C57.3842 37.9992 58.028 39.4044 58.3904 40.9347C58.5337 41.5448 58.6 42.1173 58.5962 42.6565C58.5934 43.0592 58.5543 43.4432 58.4817 43.8091C57.9801 46.3347 55.904 48.0408 53.7774 49.4409C52.938 49.9933 52.0913 50.4986 51.3306 50.9872C51.3154 50.9966 51.3008 51.0066 51.2851 51.0177C49.371 52.2821 43.1422 58.4485 39.992 58.1218C39.146 58.0348 38.0893 57.631 36.9295 56.9712C33.7895 55.1894 29.8965 51.5378 27.3988 47.2362C27.3567 47.1636 27.3145 47.091 27.2729 47.0179C25.6057 44.0782 23.8021 43.2932 22.0023 42.9931C20.1338 42.6811 18.2697 42.8912 16.5662 41.754C12.4867 39.0287 3.10167 22.3597 11.2056 13.6711C18.1741 6.20143 29.7869 11.2935 34.6891 15.4803C36.578 17.0937 37.4344 18.5127 37.8854 19.8014C38.6041 21.8552 38.2949 23.5738 39.5063 25.2099C39.7805 25.5799 40.5062 25.946 41.5296 26.383C44.8393 27.798 51.2687 29.9652 55.6307 35.4507Z" fill="#FDEAEF"/>
<path d="M16.518 36.2257C16.518 36.2257 30.4784 40.9717 36.3955 37.3835C42.3126 33.7964 35.7094 21.3973 34.0698 19.4621C32.4301 17.5268 28.9811 13.678 25.1881 13.9106C21.3944 14.1436 9.61618 26.1724 16.5186 36.2252L16.518 36.2257Z" fill="#804253"/>
<g style="mix-blend-mode:soft-light" opacity="0.2">
<path d="M20.2881 32.7796C20.2881 32.7796 24.282 36.9778 29.9353 36.5C35.588 36.0216 37.951 36.6748 37.951 36.6748C37.951 36.6748 34.8166 18.5733 28.3074 16.3977C21.7977 14.2226 15.5523 23.612 20.2892 32.7796L20.2881 32.7796Z" fill="#F1A9B8"/>
</g>
<path d="M44.5591 38.4002L46.5882 37.137C46.5882 37.137 43.2836 31.7996 41.2736 30.4477C39.2635 29.0957 35.9087 28.1435 34.0629 29.2115C31.8136 30.5131 32.0698 33.3606 32.0698 33.3606C32.0698 33.3606 38.3576 33.8458 39.4539 34.5127C40.5502 35.1796 44.5597 38.3997 44.5597 38.3997L44.5591 38.4002Z" fill="#FDDCAB"/>
<path d="M46.6923 36.9346C46.9744 37.4189 47.2355 37.9738 47.4634 38.6106C47.5035 38.7249 47.5407 38.8407 47.5727 38.9579C48.7698 43.333 43.9853 49.798 38.6056 48.8562C37.8259 48.7187 37.0889 48.4909 36.3968 48.1879C35.2048 47.667 34.1416 46.9239 33.2059 46.0426C32.6142 45.4861 32.1053 44.8621 31.6547 44.2014C30.2987 42.2123 29.4711 39.8915 28.5115 38.0905C26.0662 33.5026 30.5365 31.1091 30.5365 31.1091C33.2831 29.0285 35.4353 29.2274 37.2213 30.108C38.9753 30.9735 40.3757 32.4953 41.6374 33.1606C41.9426 33.3217 42.4282 33.4752 43.0012 33.7204C43.4522 33.9129 43.9568 34.1621 44.4716 34.5139C45.2386 35.0383 46.0271 35.7928 46.6939 36.9352L46.6923 36.9346Z" fill="#FDDCAB"/>
<path opacity="0.7" d="M38.4464 33.672C38.5638 33.5656 38.5357 33.3434 38.3838 33.1758C38.2318 33.0082 38.0135 32.9587 37.8961 33.0651C37.7788 33.1715 37.8068 33.3937 37.9587 33.5613C38.1107 33.7288 38.329 33.7784 38.4464 33.672Z" fill="#FCC36F"/>
<path opacity="0.7" d="M33.9353 37.5408C34.0873 37.7084 34.3055 37.758 34.423 37.6515C34.5405 37.545 34.5124 37.323 34.3604 37.1553C34.2083 36.9877 33.9902 36.9381 33.8727 37.0446C33.7552 37.1511 33.7833 37.3731 33.9353 37.5408Z" fill="#FCC36F"/>
<g style="mix-blend-mode:soft-light" opacity="0.3">
<path d="M40.4903 33.9977C40.5443 34.1962 38.0525 35.1282 36.9356 36.5647C36.0404 37.7164 35.3127 39.7445 35.1149 39.7981C34.9165 39.8521 35.5393 37.0143 36.7729 35.6354C37.5941 34.7176 40.4052 33.6844 40.4903 33.9977Z" fill="black"/>
</g>
<path d="M30.761 21.4C30.9526 21.4737 31.1496 21.5177 31.3486 21.5331C31.4014 21.5368 31.4538 21.5388 31.5063 21.5385C31.5316 21.5392 31.5571 21.5388 31.5825 21.5372C31.6006 21.5369 31.6187 21.5367 31.6362 21.5347C31.6543 21.5345 31.6719 21.5325 31.6895 21.5306C31.7115 21.53 31.7331 21.5276 31.7552 21.5248C31.7733 21.5234 31.7915 21.5209 31.8091 21.5178C31.8301 21.516 31.8517 21.5126 31.8717 21.5085C31.8807 21.5078 31.8898 21.506 31.8978 21.5041C31.9525 21.4943 32.0066 21.4829 32.0604 21.4686C32.07 21.4674 32.0797 21.465 32.0877 21.462C32.1215 21.453 32.1541 21.4438 32.1862 21.433C32.2102 21.4263 32.2338 21.4178 32.2578 21.41C32.2819 21.4033 32.3055 21.3937 32.3285 21.3847C32.3497 21.3772 32.3693 21.3692 32.3895 21.3606C32.4164 21.3512 32.4436 21.3384 32.4695 21.3267C32.4995 21.3135 32.5307 21.2992 32.5608 21.2838C32.5764 21.2761 32.5915 21.2678 32.6071 21.2601C32.6343 21.2462 32.6615 21.2311 32.6877 21.2161C32.7021 21.2083 32.7155 21.2005 32.7294 21.1922C32.7561 21.1765 32.7829 21.1598 32.8091 21.1436C32.8236 21.1347 32.8359 21.1257 32.8505 21.1168C32.8802 21.0974 32.91 21.0769 32.9392 21.0557C32.9731 21.0314 33.0054 21.0065 33.0383 20.9799C33.0741 20.9517 33.1082 20.9229 33.1435 20.8931C33.1788 20.8632 33.212 20.831 33.2462 20.7999C33.5647 20.4951 33.8298 20.1041 34.0055 19.6489C34.0294 19.5875 34.051 19.5259 34.0704 19.4642C34.1102 19.3421 34.1415 19.22 34.165 19.0976C34.1709 19.0708 34.175 19.0434 34.1803 19.016C34.1857 18.9864 34.19 18.9567 34.1948 18.9264C34.1991 18.8968 34.2029 18.8665 34.206 18.8367C34.2097 18.8064 34.2118 18.7766 34.2149 18.7469C34.2256 18.6199 34.2285 18.4925 34.2222 18.367C34.2218 18.3416 34.2207 18.3167 34.218 18.2912C34.2143 18.2278 34.2078 18.1649 34.1996 18.1035C34.1971 18.0842 34.1947 18.0649 34.1916 18.0462C34.1879 18.0183 34.1831 17.9893 34.1777 17.962C34.1682 17.9136 34.1583 17.8634 34.1465 17.816C34.1429 17.7978 34.1381 17.7795 34.1327 17.7629C34.1242 17.7286 34.1151 17.696 34.1049 17.6634C34.1001 17.6451 34.0942 17.6279 34.0883 17.6095C34.0144 17.3797 33.9109 17.1647 33.7798 16.9727C33.5373 16.6127 33.2002 16.3311 32.7861 16.1698C31.8774 15.819 30.8501 16.1535 30.1497 16.9317C29.8991 17.2094 29.6892 17.5439 29.5426 17.9243C29.425 18.2288 29.3562 18.5386 29.3335 18.8421C29.2464 19.9775 29.7908 21.0264 30.7637 21.4018L30.761 21.4Z" fill="#FDDCAB"/>
<g style="mix-blend-mode:soft-light" opacity="0.3">
<path d="M31.3495 21.532C31.4023 21.5357 31.4547 21.5377 31.5072 21.5375C31.5325 21.5381 31.5579 21.5377 31.5834 21.5361C31.6015 21.5359 31.6195 21.5356 31.6371 21.5337C31.6552 21.5334 31.6728 21.5315 31.6903 21.5295C31.7124 21.5289 31.7339 21.5266 31.7561 21.5237C31.7742 21.5223 31.7924 21.5198 31.81 21.5167C31.831 21.5149 31.8526 21.5115 31.8725 21.5074C31.8816 21.5067 31.8907 21.5049 31.8987 21.503C31.9533 21.4933 32.008 21.4824 32.0612 21.4675C32.0709 21.4663 32.0806 21.464 32.0886 21.461C32.1224 21.4519 32.155 21.4428 32.1871 21.4319C32.2111 21.4252 32.2347 21.4168 32.2587 21.4089C32.2828 21.4022 32.3064 21.3926 32.3294 21.3836C32.3506 21.3762 32.3702 21.3681 32.3903 21.3595C32.4173 21.3501 32.4445 21.3373 32.4704 21.3256C32.5004 21.3124 32.5316 21.2981 32.5617 21.2827C32.5773 21.275 32.5923 21.2667 32.608 21.259C32.6352 21.2451 32.6624 21.2301 32.6885 21.215C32.703 21.2072 32.7164 21.1994 32.7303 21.1911C32.757 21.1755 32.7838 21.1587 32.81 21.1425C32.8245 21.1336 32.8368 21.1246 32.8513 21.1158C32.8811 21.0963 32.9109 21.0758 32.9401 21.0547C32.974 21.0304 33.0063 21.0054 33.0392 20.9788C33.0749 20.9507 33.1091 20.9219 33.1444 20.892C33.1797 20.8621 33.2129 20.8299 33.2471 20.7989C33.5655 20.494 33.8307 20.103 34.0064 19.6478C34.0303 19.5864 34.0519 19.5248 34.0713 19.4631C34.1111 19.341 34.1424 19.219 34.1659 19.0965C34.1717 19.0698 34.1759 19.0423 34.1812 19.0149C34.1866 18.9853 34.1909 18.9556 34.1957 18.9254C34.2 18.8957 34.2037 18.8654 34.2069 18.8356C34.2106 18.8054 34.2126 18.7756 34.2158 18.7458C34.2265 18.6188 34.2294 18.4915 34.2231 18.3659C34.2226 18.3405 34.2216 18.3156 34.2189 18.2901C34.2152 18.2267 34.2087 18.1638 34.2004 18.1025C34.198 18.0832 34.1955 18.0639 34.1925 18.0451C34.1888 18.0173 34.184 17.9883 34.1786 17.9609C34.1691 17.9125 34.1591 17.8624 34.1474 17.8149C34.1437 17.7967 34.139 17.7784 34.1336 17.7618C34.1251 17.7275 34.116 17.6949 34.1057 17.6623C34.101 17.644 34.0951 17.6268 34.0892 17.6084C34.0152 17.3786 33.9118 17.1637 33.7807 16.9716C33.3398 17.1616 32.9725 17.3818 32.6674 17.6207C32.2538 17.9452 31.9552 18.3052 31.7415 18.6733C31.3587 19.3367 31.2521 20.0271 31.2517 20.5901C31.2518 20.6567 31.2537 20.7217 31.2557 20.7844C31.2693 21.0948 31.3124 21.3559 31.3505 21.5343L31.3495 21.532Z" fill="black"/>
</g>
<path d="M31.267 20.6361C31.2044 20.4863 31.1693 20.3385 31.1441 20.1838C31.12 20.0303 31.1113 19.8736 31.1162 19.7164C31.1287 19.4028 31.2018 19.0859 31.3411 18.7971C31.4091 18.6526 31.4948 18.5157 31.5935 18.3908C31.6894 18.2629 31.8032 18.1511 31.9228 18.0481C32.1651 17.8467 32.44 17.6931 32.7297 17.595C32.7767 17.5793 32.8274 17.6043 32.8437 17.6519C32.8575 17.6921 32.8413 17.7348 32.807 17.7562L32.8064 17.7568C32.5612 17.9134 32.334 18.084 32.1387 18.2815C31.9456 18.4802 31.7857 18.7049 31.6709 18.952C31.559 19.1998 31.4839 19.4658 31.4506 19.7424C31.4152 20.0165 31.4134 20.3064 31.4393 20.5853L31.4401 20.5921C31.445 20.6414 31.4084 20.6853 31.3586 20.6896C31.3189 20.6933 31.2828 20.6701 31.2676 20.6355L31.267 20.6361Z" fill="#D6B98F"/>
<g style="mix-blend-mode:soft-light" opacity="0.3">
<path d="M29.3306 18.8412L31.253 20.7846L31.5885 21.1237L32.1838 21.4338C32.2078 21.4271 32.2313 21.4187 32.2554 21.4108C32.2794 21.4041 32.303 21.3945 32.326 21.3855C32.3473 21.3781 32.3669 21.37 32.387 21.3614C32.414 21.352 32.4411 21.3392 32.4671 21.3275C32.4971 21.3143 32.5283 21.3 32.5583 21.2846C32.574 21.2769 32.589 21.2686 32.6046 21.2609C32.6318 21.247 32.6591 21.232 32.6852 21.2169C32.6997 21.2091 32.713 21.2013 32.727 21.193C32.7537 21.1774 32.7805 21.1606 32.8067 21.1444C32.8212 21.1355 32.8335 21.1265 32.848 21.1176C32.8777 21.0982 32.9075 21.0777 32.9368 21.0565C32.9707 21.0322 33.0029 21.0073 33.0358 20.9807C33.0716 20.9526 33.1058 20.9238 33.1411 20.8939C33.1764 20.864 33.2095 20.8318 33.2438 20.8008C33.5622 20.4959 33.8273 20.1049 34.003 19.6497C34.0269 19.5883 34.0486 19.5267 34.0679 19.465C33.2287 19.5633 32.4551 19.2203 31.798 18.721C31.7772 18.7064 31.7582 18.6914 31.7387 18.6758C31.6631 18.6174 31.5904 18.5574 31.5184 18.4958C30.9409 17.9964 30.4702 17.3991 30.1466 16.933C29.8961 17.2108 29.6862 17.5452 29.5395 17.9256C29.422 18.2302 29.3532 18.5399 29.3305 18.8435L29.3306 18.8412Z" fill="black"/>
</g>
<path d="M28.8729 34.1666L33.0038 30.7759L31.9563 29.7915L30.9961 28.8904L30.7296 28.6404L26.7508 30.3527L27.3612 31.4494L28.1853 32.9301L28.8729 34.1666Z" fill="#FDDCAB"/>
<g style="mix-blend-mode:soft-light" opacity="0.5">
<path d="M28.1828 32.9297C30.0907 31.9183 31.309 30.6211 31.9538 29.7911L30.9937 28.89L27.3588 31.449L28.1823 32.9291L28.1828 32.9297Z" fill="black"/>
</g>
<path d="M33.3246 20.7191C34.7005 22.4157 34.5543 24.6224 33.4748 26.7716C33.1835 27.3531 32.824 27.9307 32.4067 28.492C32.3681 28.5443 32.3294 28.5966 32.2891 28.6482C32.2475 28.702 32.206 28.7558 32.1638 28.8102C32.162 28.8118 32.1614 28.8134 32.1602 28.8145C32.073 28.9248 31.9842 29.0344 31.8925 29.1433C31.8014 29.2528 31.7081 29.3611 31.6126 29.4681C31.566 29.5211 31.5182 29.5752 31.4699 29.6276C31.4217 29.6799 31.3722 29.7334 31.3234 29.7863C31.2318 29.8834 31.1402 29.9793 31.0458 30.0745C30.9289 30.1935 30.8097 30.3112 30.6878 30.4271C30.6428 30.4701 30.5967 30.5129 30.5506 30.5558C30.4969 30.6057 30.4437 30.655 30.3893 30.7042L30.3882 30.7053C30.312 30.7743 30.2353 30.8428 30.157 30.9106C30.0933 30.9673 30.0279 31.0233 29.9626 31.0783C29.9585 31.082 29.9543 31.0858 29.9491 31.0895C29.9255 31.1097 29.9019 31.13 29.8779 31.1497C29.8225 31.1967 29.7667 31.243 29.7097 31.2882C29.6926 31.3037 29.675 31.3175 29.6574 31.3313C29.601 31.3771 29.5452 31.4223 29.4877 31.4669C29.4525 31.4956 29.4173 31.5221 29.3815 31.5503C29.3287 31.5917 29.2754 31.6325 29.221 31.6722C29.1799 31.704 29.1384 31.7353 29.0963 31.7648C29.0751 31.7818 29.0541 31.7977 29.0313 31.813C28.9927 31.8416 28.954 31.8701 28.9137 31.8981C28.8511 31.9441 28.788 31.9884 28.7244 32.0321C28.694 32.0543 28.6618 32.077 28.6298 32.0974C28.5684 32.1412 28.506 32.1828 28.4436 32.2243C28.4057 32.2501 28.3678 32.2747 28.3288 32.3005C28.3025 32.3189 28.2751 32.3362 28.2478 32.3524C28.207 32.3797 28.1657 32.4053 28.1243 32.4321C28.0718 32.4668 28.0172 32.5002 27.9625 32.5336C27.9026 32.5708 27.8409 32.6084 27.7805 32.6449C27.7612 32.658 27.7414 32.6706 27.7217 32.6809C27.6734 32.7107 27.6247 32.7388 27.5758 32.768C27.5004 32.8117 27.4249 32.8554 27.3483 32.8979C27.27 32.9421 27.1923 32.9857 27.1129 33.0275C27.0694 33.0519 27.0249 33.0751 26.9803 33.0983C26.9333 33.1236 26.8859 33.1484 26.839 33.1726C26.8106 33.1876 26.7812 33.2014 26.7522 33.2158C26.6874 33.2487 26.6221 33.2822 26.5557 33.3133C26.5383 33.3226 26.5215 33.3303 26.5037 33.3379C26.4164 33.3804 26.3286 33.4224 26.2403 33.4627C26.0233 33.5615 25.804 33.6506 25.5808 33.7272C25.5372 33.742 25.4936 33.7579 25.45 33.7715C25.4449 33.773 25.4403 33.775 25.434 33.7764C25.3818 33.7936 25.3313 33.8103 25.2787 33.8258C25.2283 33.8414 25.1779 33.8558 25.1276 33.8703C25.1121 33.8757 25.0972 33.8795 25.0818 33.8827C25.0401 33.8937 24.9983 33.9057 24.9566 33.9167C24.844 33.9456 24.7322 33.9717 24.6182 33.9954C24.507 34.0188 24.3949 34.0398 24.2833 34.0592C24.2356 34.067 24.1867 34.0748 24.1395 34.0821C24.1275 34.0843 24.1156 34.0865 24.1037 34.0876C24.0532 34.0936 24.002 34.1013 23.952 34.1079C23.9486 34.1088 23.9452 34.1087 23.9424 34.1091C23.8867 34.1165 23.8317 34.1223 23.7761 34.1286C23.7194 34.1349 23.6644 34.1406 23.6078 34.1446C23.4814 34.1571 23.3552 34.165 23.2285 34.1701C23.1833 34.1724 23.1375 34.1741 23.0906 34.1757C23.0364 34.1776 22.9816 34.1789 22.928 34.1791C22.8703 34.1808 22.8134 34.1797 22.757 34.1803C22.6227 34.1794 22.4875 34.1761 22.353 34.169C22.2933 34.1661 22.2325 34.1631 22.1724 34.1585C22.0093 34.1483 21.8458 34.134 21.6826 34.1153C21.6376 34.1109 21.5922 34.1059 21.5457 34.0996C21.4946 34.0932 21.442 34.0861 21.3893 34.079C21.3422 34.0733 21.2946 34.0659 21.2476 34.058C21.1098 34.0377 20.9727 34.0135 20.8357 33.9882C20.6837 33.9593 20.5318 33.927 20.38 33.8925C20.3326 33.8818 20.2841 33.8698 20.2362 33.8584C19.783 33.7466 19.3337 33.6106 18.8914 33.4491C18.7977 33.4157 18.7052 33.3802 18.6128 33.3446C18.5485 33.32 18.4849 33.2949 18.4207 33.2681C18.3516 33.2404 18.2824 33.2117 18.2139 33.1824C18.1841 33.1696 18.1542 33.1569 18.125 33.1436C18.0316 33.1035 17.9372 33.0611 17.8445 33.0182C17.7772 32.9878 17.7099 32.9563 17.6432 32.9243C17.4425 32.8287 17.2426 32.7281 17.0469 32.6226C16.9595 32.576 16.8721 32.5283 16.7865 32.4801L16.7854 32.4789C16.6992 32.4313 16.613 32.3814 16.528 32.3315C16.4589 32.2909 16.3904 32.2509 16.3225 32.208C16.2885 32.1872 16.2535 32.1663 16.2201 32.1449C16.1532 32.1044 16.0887 32.0629 16.023 32.0213C15.9082 31.9469 15.7956 31.8725 15.6831 31.796C15.6335 31.7614 15.5838 31.7279 15.5347 31.6928C15.5047 31.6716 15.4736 31.6503 15.4442 31.6286C15.2926 31.5218 15.1434 31.4119 14.9977 31.2998C14.9542 31.2661 14.9107 31.2324 14.8678 31.1981C14.7553 31.1097 14.6446 31.0208 14.5373 30.9298C14.4924 30.892 14.4468 30.8537 14.4024 30.8154C14.3575 30.7765 14.3125 30.7388 14.2687 30.7C14.2309 30.6665 14.1947 30.6337 14.1562 30.6008C14.1233 30.5704 14.0909 30.5406 14.0585 30.5108C14.0132 30.4691 13.9684 30.428 13.9241 30.3864C13.9209 30.3839 13.9182 30.381 13.9155 30.378C13.8675 30.3334 13.8201 30.2871 13.7733 30.2413C13.7571 30.2259 13.742 30.2105 13.7264 30.1956C13.664 30.1339 13.6021 30.0716 13.5414 30.0094C13.5317 29.9999 13.5215 29.9898 13.5124 29.9798C13.0763 29.5308 12.6856 29.062 12.3476 28.5801C12.3001 28.5123 12.2538 28.4446 12.2091 28.3775C12.1675 28.3162 12.1288 28.2545 12.0895 28.1934C12.0685 28.1608 12.0476 28.127 12.0278 28.0933C12.011 28.0677 11.9953 28.0421 11.9808 28.0154C11.9469 27.9602 11.9152 27.9039 11.8824 27.8476C11.8574 27.8057 11.8346 27.764 11.8113 27.7217C11.78 27.6682 11.7511 27.6138 11.7239 27.5589C11.7187 27.5496 11.713 27.5397 11.7084 27.5299C11.7023 27.5172 11.6944 27.5038 11.6883 27.4911C11.6883 27.49 11.6878 27.4894 11.6867 27.4882C11.6614 27.4401 11.6373 27.3921 11.6142 27.3442C11.583 27.2789 11.5513 27.213 11.5218 27.1473C11.4881 27.0734 11.4568 26.9997 11.426 26.9254C11.3951 26.8522 11.3677 26.7792 11.3396 26.7068C11.3321 26.6878 11.3263 26.6683 11.3183 26.6476C11.2715 26.519 11.2288 26.3888 11.1905 26.26C11.1033 25.968 11.0386 25.6748 11.0004 25.3835C10.9983 25.3693 10.9968 25.3535 10.9952 25.3387C10.9541 25.0264 10.9309 24.7161 10.924 24.4083C10.8972 23.26 11.0942 22.1509 11.4692 21.1052C11.5653 20.8362 11.6729 20.573 11.7917 20.3136C11.8643 20.1541 11.9404 19.9959 12.0219 19.8391C12.0754 19.7379 12.1294 19.6362 12.1851 19.5362C14.694 15.0496 20.422 12.1912 24.6304 13.3517C24.6455 13.3552 24.6611 13.3594 24.6755 13.3634C24.7084 13.3724 24.7406 13.3819 24.7723 13.3919C25.4714 13.5981 26.0714 13.8802 26.6044 14.2189C26.7286 14.2977 26.8499 14.3781 26.967 14.4634C26.9975 14.4852 27.0297 14.5076 27.0602 14.5306C27.2415 14.6653 27.4152 14.8046 27.583 14.9505C28.0197 15.3301 28.4186 15.7451 28.808 16.1805C29.1499 16.5612 29.4831 16.9571 29.8293 17.3543C30.2821 17.8775 30.7563 18.4039 31.2952 18.9081C31.3712 18.9801 31.4474 19.0487 31.5263 19.1191C31.5463 19.1376 31.5669 19.1555 31.5875 19.1735C31.8238 19.3819 32.0733 19.586 32.3385 19.7823C32.7294 20.0722 33.0577 20.3856 33.3275 20.7164L33.3246 20.7191Z" fill="#FDDCAB"/>
<path d="M28.807 22.0127C29.0835 22.301 29.3865 22.2995 29.5824 22.111C29.7789 21.9232 29.7938 21.6204 29.5173 21.3321C29.2409 21.0438 28.7778 20.8784 28.5819 21.0669C28.3859 21.2553 28.5306 21.7244 28.8075 22.0133L28.807 22.0127Z" fill="#521711"/>
<path d="M27.3686 23.4394L27.9426 23.7817L27.6936 23.774C27.7351 23.7439 27.7672 23.7224 27.8045 23.6982C27.8406 23.6752 27.8778 23.6533 27.9149 23.6325C27.9897 23.5905 28.0661 23.5514 28.1457 23.5169C28.3042 23.4485 28.4733 23.3941 28.6551 23.368C28.8358 23.3419 29.0346 23.3488 29.2236 23.4173C29.4133 23.4841 29.5771 23.6185 29.6887 23.7712C29.8053 23.9236 29.8773 24.1251 29.8831 24.3167C29.8895 24.5099 29.8451 24.6911 29.7774 24.8514C29.7097 25.0129 29.6214 25.1586 29.5228 25.2943C29.4727 25.3612 29.4199 25.4252 29.3649 25.488C29.3094 25.5501 29.2535 25.6083 29.1886 25.6672C29.1443 25.7074 29.0751 25.7045 29.035 25.6591C28.9986 25.619 28.9975 25.5597 29.03 25.5184L29.0341 25.5147C29.1245 25.3983 29.2143 25.2696 29.2872 25.1389C29.363 25.0089 29.4266 24.8738 29.4688 24.7376C29.5098 24.6014 29.5323 24.4648 29.5164 24.3405C29.5028 24.2151 29.4562 24.1068 29.3757 24.0109C29.2953 23.9116 29.1977 23.8431 29.0866 23.8072C28.9756 23.7702 28.8471 23.7673 28.7147 23.7862C28.5818 23.8056 28.4459 23.8492 28.3134 23.9059C28.2471 23.9337 28.1807 23.9649 28.1159 23.9989C28.084 24.016 28.0516 24.0336 28.0202 24.0524C27.9894 24.0695 27.9557 24.0904 27.9312 24.1061L27.6822 24.0985L27.2301 23.607C27.1894 23.5621 27.1923 23.4928 27.2366 23.4515C27.2732 23.4184 27.327 23.4137 27.3676 23.4382L27.3686 23.4394Z" fill="#D6B98F"/>
<g style="mix-blend-mode:soft-light" opacity="0.3">
<path d="M27.4487 20.6689C27.7608 20.7807 28.633 20.1469 29.5802 19.6979C30.2201 19.3952 29.785 19.098 29.0445 19.1391C28.0268 19.1959 26.5177 20.3362 27.4487 20.6689Z" fill="black"/>
</g>
<g style="mix-blend-mode:soft-light" opacity="0.3">
<path d="M24.1226 23.8551C24.2205 24.1719 23.5507 25.0159 23.0619 25.9432C22.7317 26.5696 22.454 26.1222 22.5262 25.3844C22.626 24.3698 23.8297 22.9105 24.1221 23.8545L24.1226 23.8551Z" fill="black"/>
</g>
<path d="M27.2787 20.4912C27.5909 20.603 28.4631 19.9692 29.4103 19.5201C30.0497 19.2169 29.6151 18.9203 28.8746 18.9614C27.8569 19.0182 26.3478 20.1585 27.2787 20.4912Z" fill="#A04432"/>
<path d="M25.4085 25.2692C25.6849 25.5575 25.6701 25.8603 25.4736 26.0481C25.2771 26.236 24.9746 26.2381 24.6982 25.9498C24.4217 25.6615 24.2766 25.1918 24.4725 25.0034C24.669 24.8155 25.1315 24.9803 25.4079 25.2686L25.4085 25.2692Z" fill="#521711"/>
<path d="M23.9546 23.6774C24.0525 23.9942 23.3828 24.8381 22.894 25.7654C22.5637 26.3919 22.286 25.9444 22.3582 25.2066C22.4581 24.1921 23.6618 22.7327 23.9541 23.6768L23.9546 23.6774Z" fill="#A04432"/>
<path d="M31.3697 25.5274C31.3718 25.6132 31.3665 25.6863 31.3576 25.7649C31.3488 25.8423 31.3339 25.9178 31.3172 25.9939C31.2822 26.1453 31.231 26.2932 31.1659 26.4366C31.0358 26.7222 30.8438 26.9868 30.6032 27.2019C30.3637 27.4171 30.0746 27.5772 29.7714 27.668C29.4676 27.7581 29.1529 27.7869 28.8505 27.7469C28.7815 27.7378 28.7334 27.6749 28.7424 27.6059C28.749 27.5555 28.7856 27.5152 28.8318 27.5019L28.833 27.5008C29.1081 27.4219 29.3659 27.3372 29.6051 27.2263C29.7231 27.1685 29.8389 27.1096 29.9456 27.0373C30.0534 26.9672 30.1574 26.892 30.2529 26.8062C30.4448 26.637 30.6137 26.4381 30.7577 26.2156C30.831 26.1047 30.8962 25.9873 30.9581 25.8663C30.9905 25.8062 31.0179 25.7441 31.0469 25.6816C31.0748 25.6201 31.1024 25.5525 31.1268 25.4954L31.1318 25.4832C31.1581 25.42 31.231 25.3897 31.2947 25.4166C31.3407 25.4359 31.3699 25.4806 31.3708 25.5274L31.3697 25.5274Z" fill="#D6B98F"/>
<g style="mix-blend-mode:soft-light" opacity="0.3">
<path d="M32.3002 27.0023C32.0096 26.9452 31.7302 27.0049 31.4694 27.1123C31.2096 27.2221 30.9774 27.3907 30.7831 27.5905L30.6452 27.7468C30.6008 27.7999 30.563 27.8579 30.5241 27.9146C30.442 28.0257 30.3851 28.1504 30.3239 28.2715C30.2676 28.3946 30.2274 28.5247 30.1879 28.6519C30.16 28.7837 30.1344 28.9156 30.1256 29.0494C30.1219 29.1012 30.1609 29.1454 30.2127 29.149C30.2425 29.1511 30.2696 29.1394 30.288 29.1195L30.2945 29.1136C30.3834 29.0147 30.4545 28.9115 30.527 28.8124C30.6073 28.717 30.6731 28.6164 30.7482 28.5236C30.8249 28.4326 30.8917 28.3354 30.9709 28.2507C31.0102 28.2086 31.0424 28.16 31.0833 28.1197C31.1237 28.0788 31.1619 28.0366 31.2006 27.9951C31.3607 27.8348 31.5261 27.6838 31.7093 27.5489C31.8908 27.4145 32.0938 27.2896 32.3077 27.1827L32.3233 27.175C32.3685 27.1524 32.3869 27.098 32.3649 27.0523C32.3521 27.0263 32.3275 27.0087 32.3001 27.0035L32.3002 27.0023Z" fill="black"/>
</g>
<path d="M12.2147 19.6396L12.088 19.9578L11.9619 20.2755C11.949 20.3087 11.9147 20.3302 11.8793 20.3268C11.8467 20.324 11.8159 20.3197 11.7845 20.3148C11.7202 20.3043 11.6571 20.2905 11.5971 20.2718C11.5188 20.2459 11.443 20.2146 11.371 20.1767C10.7478 19.8489 10.3952 19.0756 10.235 18.626C10.2057 18.5439 10.3075 18.4806 10.3706 18.5407C10.8467 19.0029 11.3683 19.2614 11.7407 19.4004C11.9218 19.4685 12.0672 19.5077 12.1559 19.5284C12.1637 19.5299 12.1714 19.5337 12.178 19.5374C12.212 19.5571 12.2291 19.5997 12.2137 19.6384L12.2147 19.6396Z" fill="#F4DB9D"/>
<path d="M12.0903 19.9266L12.0888 19.9581L12.0527 20.731C12.0528 20.7513 12.0439 20.7712 12.0291 20.7857C11.8523 20.9632 11.6601 21.0633 11.4633 21.1072C11.3372 21.1366 11.2089 21.1422 11.083 21.1315L11.0824 21.132C10.616 21.0934 10.176 20.8276 9.93667 20.6574C9.87289 20.6119 9.9048 20.5131 9.98226 20.5095C10.5393 20.4832 11.0153 20.3355 11.3734 20.1776C11.4616 20.1385 11.542 20.0989 11.6161 20.0608C11.7643 19.9823 11.8813 19.9096 11.9635 19.8544C11.981 19.8428 11.9987 19.8386 12.0172 19.8412C12.0582 19.8449 12.0937 19.8805 12.0915 19.9267L12.0903 19.9266Z" fill="#F4DB9D"/>
<g style="mix-blend-mode:soft-light" opacity="0.3">
<path d="M19.6105 30.7788L19.5567 30.8179L18.9047 31.2865L18.4311 31.6278L17.0464 32.623C16.959 32.5764 16.8716 32.5287 16.786 32.4805L16.7849 32.4793C16.6986 32.4316 16.6125 32.3817 16.5275 32.3319C16.4584 32.2912 16.3898 32.2512 16.322 32.2084C16.288 32.1876 16.2529 32.1667 16.2196 32.1453C16.1527 32.1048 16.0882 32.0633 16.0225 32.0217C15.9077 31.9472 15.7951 31.8729 15.6826 31.7963C15.6586 31.2727 16.5248 30.6572 16.967 30.4284C16.9676 30.4278 16.9693 30.4274 16.9699 30.4268C17.4937 30.1562 18.0146 30.1529 18.4545 30.2489C19.1299 30.3971 19.6117 30.7778 19.6117 30.7778L19.6105 30.7788Z" fill="black"/>
</g>
<g style="mix-blend-mode:soft-light" opacity="0.3">
<path d="M19.4144 32.2886C19.5408 32.3675 19.6707 32.4455 19.8035 32.5231L19.7851 32.542L19.6533 32.6743L19.6385 32.6899L19.5109 32.8185L18.8888 33.4493C18.7951 33.416 18.7026 33.3804 18.6101 33.3449C18.5459 33.3203 18.4822 33.2952 18.4181 33.2683C18.3489 33.2407 18.2798 33.2119 18.2113 33.1826C18.1814 33.1699 18.1516 33.1571 18.1223 33.1439C18.0289 33.1038 17.9345 33.0613 17.8419 33.0184C17.7745 32.9881 17.7072 32.9566 17.6405 32.9245C17.4398 32.829 17.24 32.7283 17.0443 32.6229C16.9569 32.5763 16.8695 32.5286 16.7838 32.4804L16.7828 32.4792C16.6965 32.4315 16.6104 32.3816 16.5254 32.3318C16.4563 32.2911 16.3877 32.2511 16.3198 32.2083C16.2859 32.1875 16.2508 32.1666 16.2174 32.1452C16.1506 32.1047 16.086 32.0632 16.0204 32.0216C15.9055 31.9471 15.7929 31.8728 15.6805 31.7962C15.6308 31.7616 15.5811 31.7282 15.5321 31.693C15.5021 31.6718 15.4709 31.6506 15.4415 31.6288C15.2899 31.5221 15.1407 31.4121 14.995 31.3001C14.9515 31.2663 14.908 31.2326 14.8651 31.1984C14.7527 31.1099 14.6419 31.021 14.5347 30.93C14.4897 30.8923 14.4442 30.8539 14.3998 30.8157C14.3549 30.7768 14.3099 30.7391 14.2661 30.7002C14.2282 30.6668 14.192 30.634 14.1536 30.6011C14.1206 30.5707 14.0883 30.5409 14.0559 30.5111C14.0105 30.4694 13.9657 30.4283 13.9215 30.3866C13.9182 30.3842 13.9155 30.3812 13.9129 30.3783C13.8648 30.3336 13.8174 30.2873 13.7706 30.2416C13.7544 30.2261 13.7394 30.2107 13.7238 30.1958C13.6613 30.1341 13.5995 30.0719 13.5388 30.0097C13.5291 30.0002 13.5189 29.9901 13.5098 29.98C13.0736 29.531 12.683 29.0623 12.3449 28.5803C12.2975 28.5125 12.2511 28.4448 12.2065 28.3778C12.1649 28.3165 12.1262 28.2548 12.0868 28.1936C12.0659 28.161 12.0449 28.1273 12.0252 28.0936C12.0084 28.0679 11.9927 28.0423 11.9782 28.0157C11.9442 27.9604 11.9126 27.9041 11.8798 27.8478C11.8547 27.806 11.8319 27.7642 11.8086 27.7219C11.7774 27.6685 11.7485 27.614 11.7212 27.5591C11.7161 27.5498 11.7103 27.54 11.7057 27.5301C11.699 27.518 11.6923 27.5058 11.6872 27.4931L11.6856 27.4914C11.6856 27.4914 11.6852 27.4896 11.6841 27.4885C11.6588 27.4404 11.6346 27.3924 11.6116 27.3444C11.5804 27.2792 11.5486 27.2133 11.5191 27.1475C11.4855 27.0737 11.4541 26.9999 11.4233 26.9256L11.9896 26.709L12.2196 26.621L14.1432 26.1407C14.1432 26.1407 14.1739 26.2872 14.2652 26.5433C14.3237 26.7075 14.406 26.9169 14.5209 27.1623C14.899 27.9684 15.6241 29.1644 16.9694 30.4274C17.1313 30.5786 17.3015 30.7319 17.483 30.8847C17.7739 31.1319 18.0884 31.3803 18.4312 31.6278C18.738 31.8498 19.0657 32.0701 19.4167 32.2876L19.4144 32.2886Z" fill="black"/>
</g>
<g style="mix-blend-mode:soft-light" opacity="0.3">
<path d="M27.5806 14.9537C27.547 15.2714 27.4583 15.6541 27.2951 16.0721C26.7415 17.4949 25.3244 19.3382 22.2642 20.5166L22.1231 18.9492C22.108 19.0156 21.4879 21.8089 17.8696 23.7042C17.5205 23.8874 17.143 24.0619 16.735 24.2253C16.735 24.2253 15.842 26.0558 14.5201 27.1641C13.9436 27.6482 13.2846 27.9939 12.5835 27.9907C12.3793 27.9897 12.1704 27.9586 11.9598 27.8936C11.9508 27.8813 11.9428 27.8702 11.935 27.858C11.8248 27.7008 11.7462 27.5881 11.6848 27.4942C11.6848 27.4931 11.6843 27.4925 11.6832 27.4913C11.5239 27.2432 11.4887 27.1309 11.3361 26.7099C11.3286 26.6909 11.3228 26.6715 11.3148 26.6507L11.7565 26.2114L12.0578 25.9114L14.2911 23.6905L15.9653 22.0251L18.1511 19.8517L21.7028 16.3193L22.0283 15.9961L22.3035 15.7218L23.6034 14.4291L24.6726 13.3661C24.7055 13.375 24.7377 13.3845 24.7694 13.3945C25.4685 13.6008 26.0685 13.8829 26.6014 14.2215C26.7256 14.3003 26.847 14.3807 26.9641 14.466C26.9946 14.4878 27.0268 14.5103 27.0573 14.5332C27.2386 14.6679 27.4123 14.8072 27.5801 14.9531L27.5806 14.9537Z" fill="black"/>
</g>
<path d="M26.7656 13.6313C26.8697 13.8908 26.9367 14.17 26.9611 14.4663C27.0013 14.9483 26.9286 15.4779 26.7195 16.0494C26.7079 16.0793 26.6968 16.1098 26.6852 16.1408C25.9066 18.1366 23.4499 19.3304 22.8277 19.6052C22.766 19.6321 22.7003 19.5786 22.7137 19.5127C22.9589 18.2954 22.984 17.3657 22.54 17.0777C21.3142 19.6017 19.3701 21.3988 17.955 22.4625C16.9318 23.2322 16.184 23.6176 16.184 23.6176C15.4877 24.9805 14.8374 25.9112 14.2626 26.5443C13.5327 27.3481 12.9233 27.6726 12.4914 27.7942C12.2431 27.8644 12.0534 27.8687 11.9343 27.8572C11.9124 27.8556 11.8944 27.8536 11.8788 27.8505C11.8177 27.8413 11.7861 27.8302 11.7861 27.8302C11.4004 27.3549 11.1071 26.8785 10.8901 26.4137C10.5985 25.7896 10.4443 25.1806 10.3846 24.6034C10.3588 24.3578 10.3513 24.1183 10.3564 23.8866C10.3618 23.6849 10.3771 23.4882 10.4016 23.2981C10.5154 22.4129 10.8128 21.6624 11.083 21.1323L11.0836 21.1318C11.3556 20.599 11.5987 20.2893 11.5987 20.2893L11.5994 20.2735C11.6023 20.2031 11.6086 20.1329 11.616 20.0616C11.6396 19.8456 11.6819 19.6253 11.7431 19.4021C12.6339 16.1373 17.3494 12.2134 20.2653 11.4132C20.5696 11.3288 20.88 11.2678 21.1934 11.2279C22.505 11.0573 23.8497 11.2602 24.9108 11.7803C25.7693 12.2003 26.4438 12.8268 26.7666 13.6325L26.7656 13.6313Z" fill="#A04432"/>
<g style="mix-blend-mode:overlay" opacity="0.2">
<path d="M25.2369 16.8342C25.3376 16.6225 25.41 16.388 25.4563 16.1566C25.48 16.0405 25.4959 15.9228 25.505 15.8059C25.5152 15.689 25.5182 15.5712 25.5126 15.4547C25.5081 15.3383 25.4941 15.222 25.4742 15.1087C25.4556 14.9944 25.4267 14.8818 25.3925 14.7719C25.3204 14.5522 25.2257 14.3411 25.1028 14.1439C25.0702 14.096 25.041 14.0461 25.0067 13.9987L24.9018 13.8593L24.8493 13.7896L24.7922 13.7241L24.6778 13.5933C24.6369 13.553 24.5943 13.5131 24.5528 13.4732L24.4903 13.4138C24.4686 13.3947 24.4458 13.3777 24.423 13.3597L24.2877 13.2521L24.144 13.1565L24.0725 13.1084L23.9972 13.0669C23.9466 13.0396 23.8973 13.0101 23.8455 12.985C23.7394 12.9392 23.6365 12.8874 23.5247 12.8531L23.4426 12.8243L23.4016 12.8099L23.3593 12.7988L23.1905 12.7539C23.1348 12.7387 23.076 12.7308 23.019 12.7189C22.9615 12.7077 22.9045 12.6959 22.8461 12.6907L22.6711 12.6698C22.6127 12.6647 22.553 12.6617 22.4945 12.6578L22.4062 12.6517L22.3171 12.6508L22.1395 12.6494L21.9608 12.6576L21.8715 12.6611L21.7825 12.6698L21.604 12.6864L21.4262 12.711C20.9507 12.7774 20.4805 12.8983 20.0194 13.0507C19.0983 13.3577 18.2102 13.7864 17.3914 14.3224L17.3908 14.323C17.3581 14.3439 17.3157 14.3351 17.2941 14.303C17.2742 14.2727 17.2818 14.2324 17.3088 14.2101C18.0895 13.5893 18.9748 13.1039 19.9108 12.7446C20.3814 12.5719 20.8664 12.4258 21.368 12.3431L21.5562 12.3134L21.7457 12.2911L21.8405 12.2805L21.9361 12.2744L22.1274 12.2624L22.3199 12.2599L22.4159 12.259L22.5121 12.2631C22.5763 12.2663 22.6405 12.2683 22.7046 12.2725L22.8976 12.2944C22.9622 12.3004 23.0259 12.3125 23.0897 12.3247C23.1534 12.3368 23.2178 12.3462 23.2808 12.3622L23.4702 12.411L23.5176 12.4229L23.5642 12.4387L23.6574 12.4703C23.7825 12.5086 23.9015 12.5663 24.022 12.6174C24.081 12.6456 24.1381 12.6789 24.1963 12.71L24.2832 12.7571L24.3657 12.8113C24.4209 12.8473 24.475 12.8844 24.5295 12.922L24.6831 13.0463C24.7086 13.0673 24.7347 13.0878 24.759 13.1098L24.8296 13.1782C24.8764 13.2239 24.9244 13.2697 24.9701 13.3165C25.1455 13.5124 25.3024 13.7198 25.4334 13.9473C25.6962 14.4008 25.8366 14.9318 25.8156 15.4532C25.8091 15.7141 25.761 15.9707 25.6847 16.2152C25.6471 16.3375 25.599 16.4564 25.5454 16.5728C25.5183 16.6308 25.4895 16.688 25.458 16.7435C25.426 16.7995 25.3946 16.8526 25.3546 16.9082C25.3322 16.9393 25.2884 16.9468 25.2574 16.9244C25.2296 16.9044 25.2207 16.8673 25.2351 16.8381L25.2369 16.8342Z" fill="white"/>
</g>
<g style="mix-blend-mode:overlay" opacity="0.2">
<path d="M24.1379 17.2343C24.252 16.6673 24.199 16.0774 24.0366 15.5447C23.9503 15.2799 23.8288 15.0307 23.6684 14.8136C23.5098 14.596 23.3064 14.4179 23.0742 14.2852C22.8415 14.1531 22.5804 14.0693 22.3074 14.0232C22.0344 13.9749 21.7495 13.9739 21.465 13.9899C20.8934 14.0251 20.319 14.1544 19.7474 14.307C19.7188 14.3146 19.6897 14.298 19.6821 14.2694C19.6754 14.2442 19.6879 14.2189 19.7099 14.2076C20.2459 13.941 20.823 13.7458 21.4311 13.6559C21.7349 13.6161 22.0478 13.597 22.3622 13.64C22.6751 13.679 22.9905 13.7706 23.2744 13.9294C23.559 14.0867 23.8103 14.3117 23.9925 14.579C24.1775 14.8447 24.3028 15.1442 24.377 15.4491C24.4489 15.755 24.4714 16.0681 24.4535 16.3758C24.4284 16.6826 24.371 16.9896 24.2378 17.2685C24.2252 17.295 24.1936 17.3064 24.1666 17.2933C24.144 17.2826 24.1328 17.2583 24.1373 17.2349L24.1374 17.2326L24.1379 17.2343Z" fill="white"/>
</g>
<g style="mix-blend-mode:soft-light" opacity="0.3">
<path d="M26.7664 13.6327C26.8705 13.8922 26.9375 14.1714 26.9619 14.4676C27.0021 14.9497 26.9294 15.4793 26.7203 16.0507C26.7087 16.0806 26.6976 16.1111 26.686 16.1421C25.9074 18.1379 23.4507 19.3317 22.8285 19.6065C22.7668 19.6334 22.7011 19.58 22.7145 19.5141C22.9597 18.2967 22.9848 17.3671 22.5408 17.0791C21.315 19.603 19.3709 21.4002 17.9558 22.4639C16.9326 23.2336 16.1848 23.619 16.1848 23.619C15.4885 24.9819 14.8382 25.9125 14.2634 26.5456C13.5335 27.3494 12.9241 27.6739 12.4922 27.7956C12.2439 27.8658 12.0542 27.87 11.9351 27.8586C11.9132 27.8569 11.8952 27.8549 11.8796 27.8519C11.8185 27.8427 11.7869 27.8316 11.7869 27.8316C11.4012 27.3563 11.1079 26.8799 10.8909 26.4151C10.5993 25.791 10.4451 25.182 10.3854 24.6048C10.5585 24.8835 10.764 25.135 10.9902 25.3418C11.1593 25.4962 11.3396 25.6263 11.5295 25.7242C11.6989 25.8137 11.8757 25.8782 12.0568 25.9119C12.5515 26.0066 13.0761 25.8805 13.5764 25.4345C14.1957 24.8836 14.3459 24.258 14.2907 23.6905C14.1996 22.7405 13.5345 21.9548 13.5345 21.9548C13.5345 21.9548 14.4315 22.5194 15.9643 22.0257C16.573 21.8309 17.2824 21.4684 18.0755 20.8364C18.2703 20.6835 18.4687 20.5132 18.672 20.3257C19.8566 19.2333 21.0529 17.3933 21.7018 16.3198C21.7735 16.202 21.8375 16.0935 21.8947 15.9964C22.0867 15.6707 22.1958 15.4706 22.1958 15.4706C22.1958 15.4706 22.2322 15.5689 22.3025 15.7224C22.3376 15.8014 22.3816 15.8938 22.4347 15.9952C22.8536 16.8083 23.7929 18.1716 25.0026 17.0962C25.143 16.9711 25.2739 16.8319 25.3959 16.6793L25.3965 16.6788C25.5597 16.4792 25.7071 16.2585 25.8414 16.0258C26.1693 15.4596 26.4155 14.82 26.6005 14.222C26.6628 14.0191 26.7177 13.821 26.767 13.6321L26.7664 13.6327Z" fill="black"/>
</g>
<g style="mix-blend-mode:soft-light" opacity="0.3">
<path d="M20.2337 33.8591C22.2764 34.3585 24.383 34.3137 26.239 33.4623C29.3433 32.0395 32.1313 29.4481 33.4729 26.7729C32.4876 28.0471 30.1467 30.7936 27.4083 32.0481C23.7778 33.7103 20.7843 32.7188 20.7843 32.7188L20.2331 33.8597L20.2337 33.8591Z" fill="black"/>
</g>
<path d="M21.0189 32.2126C21.0839 32.4076 21.1204 32.6068 21.1259 32.8051C21.1258 32.8062 21.1263 32.808 21.1257 32.8096C21.1397 33.2154 21.0347 33.6204 20.8327 33.9908C20.7758 34.0929 20.7133 34.1926 20.6421 34.2884C20.2931 34.7672 19.7701 35.1597 19.1293 35.3772C18.1558 35.707 17.1536 35.5485 16.466 35.0382C16.117 34.7802 15.8486 34.4319 15.7055 34.0108C15.4783 33.3402 15.616 32.6236 16.0182 32.0255C16.3462 31.5355 16.8515 31.1258 17.4798 30.8874C17.5172 30.8718 17.5568 30.8585 17.5964 30.8452C17.9405 30.7289 18.2879 30.6742 18.6242 30.6737C18.9498 30.6733 19.2644 30.7237 19.5547 30.8208C20.2425 31.0502 20.7923 31.5392 21.0206 32.2132L21.0189 32.2126Z" fill="#FDDCAB"/>
<g style="mix-blend-mode:soft-light" opacity="0.3">
<path d="M21.1262 32.8047C21.1262 32.8047 21.1266 32.8075 21.126 32.8092C21.14 33.2149 21.035 33.62 20.8329 33.9903C20.776 34.0925 20.7136 34.1921 20.6424 34.2879C20.2934 34.7668 19.7704 35.1592 19.1296 35.3767C18.156 35.7065 17.1539 35.5481 16.4663 35.0377C16.6753 34.6062 16.9094 34.2498 17.1596 33.9562C17.159 33.9556 17.1602 33.9557 17.1602 33.9557C17.4624 33.6009 17.7889 33.3382 18.1216 33.1463C18.6314 32.8508 19.1557 32.7196 19.6305 32.6785C19.6379 32.6771 19.6453 32.6769 19.6527 32.6756C19.8408 32.66 20.0208 32.6581 20.1891 32.6657C20.4081 32.6748 20.6083 32.6998 20.779 32.729C20.8204 32.7367 20.8606 32.7443 20.8986 32.7518C20.9847 32.7684 21.061 32.7874 21.1268 32.8041L21.1262 32.8047Z" fill="black"/>
</g>
<path d="M20.2328 32.6863C20.0861 32.6171 19.9398 32.5755 19.7862 32.5437C19.6337 32.5132 19.4776 32.4976 19.3203 32.4961C19.0061 32.4949 18.6861 32.5548 18.3927 32.6821C18.2453 32.7437 18.1053 32.8243 17.9761 32.9167C17.8442 33.0073 17.7277 33.1161 17.62 33.231C17.4077 33.4644 17.2434 33.7328 17.133 34.0179C17.1149 34.0644 17.1383 34.1164 17.1849 34.1344C17.2242 34.1493 17.2677 34.1357 17.2908 34.1018L17.2914 34.1013C17.4582 33.8629 17.6382 33.6426 17.8442 33.457C18.0513 33.2724 18.282 33.1224 18.5342 33.0185C18.7863 32.9168 19.0551 32.8538 19.3332 32.8319C19.6085 32.8081 19.898 32.8189 20.176 32.8562L20.1833 32.8571C20.2326 32.864 20.2777 32.8296 20.2847 32.7802C20.2906 32.7405 20.2687 32.7033 20.2339 32.6875L20.2328 32.6863Z" fill="#D6B98F"/>
<g style="mix-blend-mode:soft-light" opacity="0.3">
<path d="M46.6924 36.9337L46.2565 44.4955L34.1317 45.4195C34.1317 45.4195 27.3217 36.5448 30.9073 35.6172C30.9073 35.6172 33.1481 37.5688 35.12 37.4407C37.0918 37.3126 39.3386 37.9314 39.3386 37.9314C39.3386 37.9314 37.8592 33.3552 37.2197 30.1064C38.9738 30.9719 40.3741 32.4937 41.6358 33.1591C41.941 33.3201 42.4266 33.4737 42.9997 33.7189C43.4506 33.9113 43.9552 34.1606 44.47 34.5124C45.237 35.0368 46.0255 35.7913 46.6924 36.9337Z" fill="black"/>
</g>
<g style="mix-blend-mode:soft-light" opacity="0.3">
<path d="M26.7693 13.6314C26.8734 13.8909 26.9404 14.1701 26.9648 14.4663C26.9954 14.4881 27.0276 14.5106 27.058 14.5335C27.2393 14.6682 27.413 14.8076 27.5808 14.9534C28.0175 15.333 28.4164 15.748 28.8058 16.1835C28.4222 16.1365 27.9022 16.0992 27.2959 16.0724C27.1129 16.0651 26.9215 16.0569 26.7238 16.05C26.4416 16.0402 26.1469 16.032 25.8443 16.0256C25.7671 16.0235 25.6899 16.0215 25.6127 16.0205C25.1866 16.0121 24.7468 16.0052 24.3047 16.0017C23.6771 15.9952 23.0436 15.9941 22.4382 15.9944C22.2999 15.995 22.1651 15.9946 22.0302 15.9954C21.9862 15.9955 21.9417 15.995 21.8977 15.9951C19.9825 16.0018 18.4595 16.0306 18.4595 16.0306C18.4595 16.0306 18.3191 17.7016 18.1531 19.8509C18.129 20.1696 18.1033 20.4995 18.0784 20.8351C18.0383 21.3663 17.998 21.9138 17.9587 22.4626C17.9283 22.8774 17.8995 23.2941 17.8716 23.7034C17.8043 24.6863 17.7444 25.6346 17.7008 26.4562C17.6346 27.6952 17.9708 29.0211 18.4552 30.2505C18.5108 30.3926 18.5683 30.533 18.6281 30.6714C18.7176 30.8817 18.8109 31.0865 18.906 31.2864C19.0723 31.6358 19.2454 31.9715 19.4179 32.2874C19.4577 32.361 19.4987 32.4336 19.5376 32.5048C19.5697 32.5628 19.603 32.6198 19.6353 32.6755C19.6379 32.6796 19.6399 32.6842 19.6431 32.6888C19.6681 32.7318 19.6919 32.7747 19.717 32.8166C19.9173 33.1609 20.1119 33.474 20.2902 33.7501C20.3222 33.7985 20.3526 33.8463 20.3825 33.8923C20.4776 34.0363 20.5654 34.1675 20.6477 34.2855C20.2987 34.7644 19.7757 35.1568 19.1349 35.3743C18.1613 35.7041 17.1592 35.5457 16.4716 35.0353C16.1226 34.7773 15.8541 34.4291 15.7111 34.008C15.4838 33.3373 15.6216 32.6208 16.0238 32.0227C15.9089 31.9482 15.7963 31.8739 15.6839 31.7973C15.6342 31.7627 15.5845 31.7293 15.5354 31.6941C15.5055 31.6729 15.4743 31.6517 15.4449 31.6299C15.2933 31.5232 15.1441 31.4132 14.9984 31.3012C14.9549 31.2674 14.9114 31.2337 14.8685 31.1995C14.7561 31.111 14.6453 31.0221 14.5381 30.9311C14.4931 30.8934 14.4476 30.855 14.4032 30.8168C14.3582 30.7779 14.3133 30.7402 14.2695 30.7013C14.2316 30.6679 14.1954 30.6351 14.157 30.6022C14.124 30.5718 14.0916 30.542 14.0593 30.5122C14.0139 30.4705 13.9691 30.4294 13.9249 30.3877C13.9216 30.3853 13.9189 30.3824 13.9162 30.3794C13.8682 30.3347 13.8208 30.2884 13.774 30.2427C13.7578 30.2272 13.7428 30.2118 13.7271 30.1969C13.6647 30.1352 13.6029 30.073 13.5422 30.0108C13.5325 30.0013 13.5222 29.9912 13.5131 29.9811L12.5877 27.9889L12.4968 27.7938L11.9925 26.7096L11.7608 26.2097L11.5347 25.7219L10.9247 24.4096L10.4076 23.2972C10.5214 22.4119 10.8188 21.6614 11.089 21.1313C10.6226 21.0927 10.1826 20.8269 9.94323 20.6567C9.87945 20.6113 9.91135 20.5124 9.98882 20.5088C10.5458 20.4825 11.0219 20.3348 11.38 20.1769C10.7568 19.8491 10.4042 19.0758 10.2439 18.6263C10.2147 18.5441 10.3165 18.4809 10.3796 18.5409C10.8557 19.0031 11.3773 19.2617 11.7497 19.4006C12.6405 16.1358 17.356 12.2119 20.2719 11.4117C20.5762 11.3273 20.8866 11.2663 21.2 11.2264C22.5116 11.0558 23.8563 11.2587 24.9174 11.7789C25.7759 12.1988 26.4505 12.8254 26.7733 13.631L26.7693 13.6314Z" fill="black"/>
</g>
<path d="M48.9417 41.3448C49.4379 40.982 48.4231 39.4774 48.4231 39.4774C48.4231 39.4774 49.3088 40.1718 49.5856 39.91C49.6974 39.8043 49.6338 39.5372 49.4392 39.2016C48.9891 38.4252 47.8388 37.2824 46.5362 36.923C46.4271 36.8929 46.3161 36.8677 46.2053 36.8487L45.6554 37.1795L44.7503 37.7248C44.7503 37.7248 44.7006 37.8302 44.6244 38.0036C44.3135 38.719 43.5645 40.5944 44.028 41.0853C44.4206 41.5017 44.8659 40.2642 45.2661 40.4102C45.6668 40.5567 46.1242 42.5323 46.761 42.2712C47.221 42.0821 46.7451 40.588 46.7451 40.588C46.7451 40.588 47.6004 42.5255 48.2281 42.3006C48.8276 42.0851 47.8057 40.175 47.7167 40.0104C47.8007 40.1505 48.6503 41.5573 48.9423 41.3431L48.9417 41.3448Z" fill="#FFAE85"/>
<path d="M54.1303 43.5778C54.0897 44.3634 53.5113 45.3924 52.6942 46.3076C51.7635 47.3515 50.5247 48.25 49.421 48.4837C49.161 48.5387 48.8596 48.4958 48.5271 48.3734C46.772 47.7251 44.1643 44.8314 42.3984 42.1803C41.827 41.3236 41.3451 40.4943 41.0081 39.7726C40.7179 39.1525 40.4576 38.4656 40.1537 37.759C35.6657 27.3189 36.0638 21.8771 36.0638 21.8771C37.2675 23.1298 41.8054 28.8807 42.6082 30.0816C43.4103 31.283 54.3906 38.43 54.1303 43.5778Z" fill="#FDEAEF"/>
<g style="mix-blend-mode:soft-light" opacity="0.5">
<path d="M53.1704 46.7468C53.3684 47.9131 51.9053 49.7733 53.7777 49.4417C52.9382 49.9942 52.0915 50.4995 51.3308 50.9881C51.3157 50.9975 51.3011 51.0075 51.2853 51.0186C50.4659 50.2608 49.5224 49.3532 48.5272 48.3742C46.5037 46.3858 44.2622 44.1024 42.3984 42.181C41.8271 41.3243 41.3452 40.4951 41.0081 39.7734C40.718 39.1533 40.4324 38.4764 40.1537 37.7598C41.8339 37.7478 45.178 39.0453 48.348 40.9397C50.6355 42.3069 52.7283 44.1356 53.1715 46.7469L53.1704 46.7468Z" fill="black"/>
</g>
<path d="M51.1857 50.5383C50.0344 52.1965 42.4641 59.2007 33.3824 52.6634C28.9402 49.4655 23.2767 40.3236 19.4151 39.1768C15.5541 38.0305 9.82115 29.8703 9.31968 22.7743C8.85874 16.257 14.1115 11.1638 16.52 13.1366C16.9171 13.4618 17.2371 13.9784 17.4409 14.7134C17.5062 14.9479 17.5607 15.205 17.6001 15.4856C17.671 15.9731 17.7013 16.5309 17.6867 17.1638C17.5702 21.922 13.6185 29.366 21.4357 35.7213C23.8031 37.6464 36.5805 38.0863 39.4137 38.6423C44.4587 39.6315 55.5434 44.2634 51.1857 50.5383Z" fill="#FDEAEF"/>
<path d="M30.6876 15.9712C26.9921 14.5306 21.0927 15.0111 17.6009 15.4857C17.3709 15.5168 17.1522 15.5473 16.9459 15.5784C15.5974 15.777 14.7443 15.9514 14.7443 15.9514C15.2523 14.8044 15.8563 13.8748 16.5214 13.1373C19.181 10.1835 22.8259 10.2586 25.3199 11.4976C26.9557 12.3111 28.4433 13.6171 29.4369 14.6084C29.4917 14.6642 29.5438 14.7169 29.596 14.7697C30.2778 15.466 30.6876 15.9712 30.6876 15.9712Z" fill="#FDEAEF"/>
<g style="mix-blend-mode:soft-light" opacity="0.5">
<path d="M55.9767 35.8997C56.1742 36.1649 56.3624 36.4342 56.542 36.7081C57.385 37.9985 58.0288 39.4037 58.3912 40.934C58.5345 41.5441 58.6008 42.1166 58.597 42.6558C58.5942 43.0585 58.5551 43.4425 58.4825 43.8084C57.9809 46.334 55.9048 48.0401 53.7782 49.4402C52.9388 49.9926 52.0921 50.4979 51.3314 50.9865C51.3162 50.9959 51.3016 51.0059 51.2859 51.017C49.3718 52.2814 43.143 58.4478 39.9928 58.1211C39.1468 58.0341 38.0901 57.6303 36.9303 56.9705C38.7056 57.1013 40.5581 56.8986 42.1947 56.0353C47.4555 53.2573 46.1993 47.8667 50.0697 46.571C53.7119 45.3512 57.6545 41.1739 55.9773 35.8991L55.9767 35.8997Z" fill="black"/>
</g>
<g style="mix-blend-mode:soft-light" opacity="0.5">
<path d="M31.7199 41.9213C31.4127 43.5317 29.8469 45.3699 27.751 46.9724C27.6349 47.0615 27.5178 47.1494 27.3984 47.2372C27.3563 47.1646 27.3141 47.0921 27.2726 47.0189C25.6053 44.0793 23.8017 43.2943 22.002 42.9941C22.6254 42.8559 23.2443 42.7057 23.8322 42.5426C24.734 42.295 25.5673 42.0193 26.2533 41.7188C30.2795 39.9496 32.187 39.4765 31.7205 41.9219L31.7199 41.9213Z" fill="black"/>
</g>
<path d="M56.5435 36.7083C56.6957 36.9414 56.841 37.1776 56.9793 37.4179C57.6097 38.5094 58.0964 39.6796 58.3927 40.9342C58.5361 41.5443 58.6023 42.1168 58.5985 42.656C58.597 42.9521 58.5756 43.2382 58.5345 43.5143C58.5201 43.6135 58.5034 43.7114 58.484 43.8086C58.273 43.7278 58.0545 43.615 57.8301 43.4743C57.8027 43.4571 57.7754 43.44 57.7492 43.4218C57.2051 43.0674 56.6294 42.5546 56.0477 41.9309C55.5873 41.4373 55.1926 40.9249 54.8711 40.415C54.8156 40.3276 54.7628 40.241 54.7118 40.1539C53.8301 38.6524 53.5781 37.207 54.0559 36.3779C54.5867 35.4566 55.2905 36.1997 56.5436 36.7072L56.5435 36.7083Z" fill="#97C6DD"/>
<path d="M59.2746 37.4383C59.2746 37.4383 59.2158 36.715 58.8527 36.6978C58.461 36.6786 58.5596 37.3379 58.5596 37.3379C58.5596 37.3379 58.4097 36.5842 58.0539 36.569C57.5826 36.5499 57.7695 37.2389 57.7762 37.2996C57.7642 37.2437 57.3787 36.6703 57.1408 36.7139C56.678 36.7979 56.9651 37.4788 56.9799 37.5224C56.9473 37.4864 56.1264 37.0485 55.7357 37.5276C55.567 37.7343 55.6352 38.1049 55.8279 38.3174C56.1384 38.6598 56.6452 38.7371 56.6452 38.7371C56.6452 38.7371 56.9258 38.6859 57.3111 38.5948C57.8506 38.466 59.5046 38.354 59.9025 37.9932C59.971 37.9311 60.0714 37.2161 59.8166 37.0727C59.4745 36.8805 59.2751 37.4389 59.2751 37.4389L59.2746 37.4383Z" fill="#FFAE85"/>
<path d="M59.9897 42.6678C61.584 42.4862 60.9601 40.3271 60.4995 39.1999C60.3273 38.7774 60.1769 38.4264 59.9645 38.0617C59.5752 37.3928 58.5383 37.3928 57.4187 37.5699C56.2082 37.7618 56.2818 39.3022 57.7604 40.6208C58.3907 41.1831 58.8097 42.8019 59.9892 42.6672L59.9897 42.6678Z" fill="#FFAE85"/>
<path d="M60.2764 41.6717L57.759 43.4368C57.215 43.0824 56.6392 42.5697 56.0576 41.946C55.5971 41.4524 55.2024 40.94 54.8809 40.4301L58.1191 39.4195L60.2764 41.6717Z" fill="#FFAE85"/>
<g style="mix-blend-mode:soft-light" opacity="0.2">
<path d="M56.543 36.7077C56.6952 36.9409 56.8405 37.177 56.9788 37.4174C56.1465 37.2232 55.3105 37.1293 55.0294 37.4326C54.4845 38.0181 56.2172 41.2921 58.5345 43.5143C58.5201 43.6135 58.5034 43.7114 58.484 43.8086C58.273 43.7278 58.0545 43.615 57.8301 43.4743C57.8027 43.4571 57.7754 43.44 57.7492 43.4218C57.2051 43.0674 56.6294 42.5546 56.0477 41.9309C55.5873 41.4373 55.1926 40.9249 54.8711 40.415C54.8156 40.3276 54.7628 40.241 54.7118 40.1539C53.8301 38.6524 53.5781 37.207 54.0559 36.3779C54.5867 35.4566 55.2905 36.1997 56.5436 36.7072L56.543 36.7077Z" fill="black"/>
</g>
<g style="mix-blend-mode:soft-light" opacity="0.7">
<path d="M12.0588 26.6449C11.9687 26.2145 11.8993 25.788 11.8403 25.3563C11.8107 25.141 11.7835 24.9248 11.7591 24.7092C11.7364 24.4931 11.7148 24.276 11.6966 24.059C11.6189 23.1915 11.5927 22.3191 11.6045 21.4435C11.6214 20.5687 11.6869 19.6907 11.8222 18.816C11.9574 17.9425 12.1637 17.0714 12.4797 16.2265C12.7985 15.3845 13.2292 14.5604 13.8405 13.8513C14.1429 13.4931 14.4917 13.179 14.8601 12.902C15.2307 12.6273 15.6225 12.3903 16.0279 12.1873C16.8387 11.7824 17.6935 11.5043 18.5584 11.3192C18.9912 11.227 19.4272 11.1586 19.865 11.1135C20.0839 11.0903 20.3035 11.0762 20.5229 11.0655C20.6326 11.0596 20.7428 11.0565 20.8523 11.0562C20.9634 11.0555 21.0712 11.0557 21.1855 11.0607C21.2766 11.0651 21.3468 11.1425 21.3423 11.2337C21.3385 11.3113 21.2824 11.374 21.209 11.3879L21.2044 11.3888C20.7914 11.4696 20.3731 11.5671 19.9634 11.674C19.553 11.7814 19.1467 11.8992 18.7476 12.0309C17.9494 12.2942 17.1756 12.6118 16.461 13.0113C15.7486 13.412 15.0932 13.8933 14.581 14.4911C14.4502 14.6388 14.3318 14.7988 14.215 14.9607C14.1025 15.1261 13.9928 15.2934 13.8945 15.4697C13.6918 15.818 13.5196 16.1893 13.3684 16.5706C13.2161 16.9519 13.0873 17.3462 12.9763 17.7469C12.8653 18.1477 12.7703 18.5555 12.6926 18.9681C12.6144 19.38 12.5466 19.7965 12.4956 20.216C12.4424 20.6354 12.4003 21.0565 12.3689 21.4798C12.301 22.3266 12.2819 23.1787 12.2819 24.0329C12.2827 24.2462 12.2863 24.4602 12.2917 24.6737C12.2953 24.8877 12.3007 25.1012 12.3088 25.3155C12.3263 25.7417 12.347 26.1726 12.3805 26.5952L12.3803 26.5985C12.3872 26.6891 12.3201 26.7682 12.2295 26.7751C12.1463 26.7817 12.0723 26.7251 12.0559 26.6453L12.0588 26.6449Z" fill="black"/>
</g>
<g style="mix-blend-mode:overlay" opacity="0.7">
<path d="M15.1533 18.4692C15.2222 18.9189 15.2639 19.3694 15.2965 19.8218C15.3246 20.274 15.3464 20.7275 15.3468 21.1811C15.3565 22.0888 15.3115 22.9989 15.2051 23.9054C15.0987 24.8119 14.9276 25.7147 14.6643 26.5988C14.6296 26.7088 14.5977 26.8196 14.5607 26.9295L14.4488 27.2568C14.375 27.4614 14.3091 27.6675 14.2493 27.8756C14.1335 28.2925 14.0479 28.7176 14.0009 29.1464C13.9066 30.0033 13.9593 30.8752 14.1819 31.7092C14.4053 32.5416 14.7793 33.3374 15.2886 34.0449C15.4159 34.2221 15.549 34.395 15.6892 34.5627C15.8294 34.7303 15.9778 34.8916 16.1315 35.0481C16.4389 35.361 16.7728 35.6498 17.123 35.9197C17.298 36.0546 17.4791 36.182 17.6639 36.3038C17.8492 36.4252 18.0363 36.5449 18.2295 36.6548C18.6152 36.8773 19.0145 37.0768 19.4242 37.2582C19.4607 37.2747 19.4778 37.3172 19.4619 37.3543C19.4466 37.3885 19.408 37.4052 19.373 37.3939C18.9415 37.2549 18.5169 37.088 18.1057 36.8907C17.6932 36.6957 17.2947 36.4686 16.9128 36.2146C16.7221 36.0874 16.5346 35.9541 16.3531 35.8121C16.1716 35.6701 15.9961 35.5204 15.826 35.3649C15.4858 35.0526 15.1667 34.7148 14.8834 34.3467C14.599 33.9796 14.3452 33.5858 14.1307 33.1714C13.914 32.7568 13.7391 32.3195 13.61 31.8686C13.3482 30.9678 13.2629 30.0124 13.3605 29.0795C13.4053 28.6129 13.4967 28.1513 13.6202 27.7015C13.6831 27.4767 13.7538 27.2544 13.8323 27.0349L13.94 26.7242C13.9755 26.621 14.0066 26.5153 14.0399 26.4109C14.1666 25.9906 14.2794 25.5645 14.3727 25.1324C14.4694 24.7016 14.5489 24.2648 14.6183 23.8265C14.8897 22.071 14.9983 20.2783 15.0082 18.4836L15.0083 18.4813C15.0086 18.4413 15.0412 18.4085 15.0813 18.4087C15.1179 18.4088 15.1476 18.4357 15.1527 18.4709L15.1533 18.4692Z" fill="black"/>
</g>
<g style="mix-blend-mode:overlay" opacity="0.7">
<path d="M22.3112 40.805C22.7176 40.6861 23.1508 40.6537 23.5783 40.6802C24.0068 40.708 24.4294 40.8003 24.8351 40.9369C25.6464 41.2135 26.385 41.6615 27.0388 42.1939C27.6925 42.7286 28.2673 43.3541 28.7412 44.0464C28.9781 44.392 29.1911 44.7551 29.3712 45.1328C29.4174 45.2265 29.4572 45.3238 29.5005 45.419C29.5415 45.5152 29.5791 45.6135 29.6155 45.7106C29.6519 45.8089 29.6831 45.9086 29.7166 46.0073C29.7456 46.108 29.7739 46.2081 29.8 46.3092C29.8171 46.3755 29.7771 46.4429 29.7103 46.4594C29.6543 46.4736 29.5986 46.4478 29.5716 46.4002L29.57 46.3984C29.1779 45.6954 28.7257 45.0437 28.2228 44.4357C27.7199 43.8289 27.1663 43.267 26.5656 42.7682C25.9642 42.2711 25.3118 41.8375 24.6067 41.5238C23.9028 41.2089 23.1429 41.0223 22.3495 41.0489C22.2812 41.0506 22.2234 40.9976 22.2211 40.9287C22.2194 40.871 22.2568 40.821 22.31 40.8061L22.3112 40.805Z" fill="black"/>
</g>
<g style="mix-blend-mode:overlay" opacity="0.7">
<path d="M38.7829 41.2898C40.005 41.3564 41.2129 41.7145 42.3232 42.2556C43.4357 42.7992 44.4491 43.5348 45.3392 44.3919C46.2281 45.2512 46.9973 46.2394 47.576 47.3368C47.8646 47.8852 48.1055 48.4618 48.2742 49.0618C48.2971 49.1357 48.3125 49.2132 48.3314 49.2886C48.3491 49.3651 48.3691 49.4394 48.3845 49.5158L48.4258 49.7462L48.4461 49.8612L48.4595 49.9781C48.5037 50.2866 48.5086 50.6017 48.4906 50.9116C48.4857 51.0011 48.4084 51.0701 48.3189 51.0652C48.2418 51.0608 48.1809 51.0042 48.1675 50.9314L48.1661 50.9251C47.958 49.782 47.4473 48.7348 46.8347 47.7638C46.2158 46.7941 45.4776 45.9005 44.6549 45.0952C43.8299 44.2921 42.9194 43.574 41.9271 42.9849C40.9366 42.3921 39.8675 41.9296 38.7306 41.6094L38.7295 41.6082C38.6421 41.5842 38.5918 41.4943 38.6163 41.4075C38.6375 41.3324 38.7075 41.285 38.7823 41.2892L38.7829 41.2898Z" fill="black"/>
</g>
<g style="mix-blend-mode:overlay" opacity="0.7">
<path d="M39.8407 27.1341C39.9576 27.6047 40.1013 28.0682 40.2532 28.5275C40.4057 28.9863 40.5685 29.4411 40.7388 29.8912C41.0836 30.791 41.456 31.6764 41.8783 32.5359C42.3006 33.3955 42.768 34.2314 43.2977 35.0302C43.5625 35.429 43.8377 35.8239 44.1351 36.2029C44.4307 36.5846 44.7432 36.9542 45.067 37.3244L45.0686 37.3261C45.1135 37.378 45.1079 37.4561 45.0566 37.5016C45.0142 37.539 44.9537 37.5411 44.9088 37.513C44.0613 36.9745 43.3147 36.2745 42.6712 35.4972C42.0243 34.7197 41.4825 33.8588 41.0277 32.9598C40.573 32.0597 40.2107 31.1156 39.9542 30.1434C39.8245 29.6575 39.7245 29.164 39.6569 28.6648C39.6223 28.4154 39.5985 28.1638 39.5854 27.9121C39.5712 27.6603 39.5718 27.4059 39.5962 27.1504C39.6029 27.0819 39.6629 27.0318 39.732 27.038C39.7859 27.0429 39.8286 27.0816 39.8408 27.1319L39.8412 27.1347L39.8407 27.1341Z" fill="black"/>
</g>
<g style="mix-blend-mode:overlay" opacity="0.7">
<path d="M44.6737 32.029C44.9503 32.499 45.2379 32.9633 45.531 33.4193C45.824 33.8766 46.1253 34.3263 46.4337 34.7696C47.0492 35.6572 47.7012 36.5151 48.3861 37.3452L48.6452 37.6546C48.7315 37.7581 48.822 37.8568 48.909 37.9598C49.0817 38.1657 49.2679 38.3604 49.4448 38.5626C49.8102 38.9573 50.1804 39.3478 50.5641 39.727C51.3285 40.4894 52.1416 41.2022 52.9773 41.915C53.0098 41.9426 53.0137 41.9907 52.9867 42.0227C52.9639 42.0498 52.9258 42.0564 52.8955 42.0419C52.3997 41.7976 51.9154 41.5246 51.4538 41.216C51.2197 41.0657 50.9958 40.903 50.7708 40.7391C50.6567 40.6597 50.55 40.5704 50.4401 40.486C50.3315 40.3995 50.2188 40.3166 50.1138 40.2257L49.7952 39.9563C49.6879 39.8675 49.5882 39.7707 49.4844 39.6776C49.2757 39.4936 49.0794 39.2962 48.8796 39.1019C48.4883 38.7059 48.1117 38.2954 47.7557 37.8684C47.6661 37.7624 47.5813 37.6522 47.4929 37.5441C47.4051 37.4365 47.3208 37.3258 47.2359 37.2156C47.0667 36.9946 46.9057 36.7684 46.7453 36.5417C46.4291 36.085 46.1317 35.6146 45.858 35.1313C45.5843 34.6479 45.3303 34.1542 45.1063 33.6474C44.9946 33.3937 44.8887 33.1369 44.7913 32.8777C44.6941 32.6173 44.6059 32.3552 44.5339 32.0848C44.5229 32.0442 44.5469 32.0031 44.5875 31.9921C44.6213 31.983 44.6555 31.9982 44.6727 32.0267L44.6743 32.0285L44.6737 32.029Z" fill="black"/>
</g>
<g style="mix-blend-mode:soft-light" opacity="0.5">
<path d="M41.5294 26.3842C41.2437 28.799 41.6432 30.6679 40.4875 30.4421C37.8184 29.9223 37.7405 23.2792 37.8857 19.802C38.6045 21.8557 38.2953 23.5743 39.5067 25.2105C39.7808 25.5804 40.5065 25.9465 41.53 26.3836L41.5294 26.3842Z" fill="black"/>
</g>
<g style="mix-blend-mode:overlay" opacity="0.7">
<path d="M30.6878 15.9702C26.9924 14.5296 21.093 15.01 17.6012 15.4847C17.6721 15.9722 17.7024 16.53 17.6878 17.1628C17.5713 21.9211 13.6196 29.3651 21.4369 35.7204C23.8043 37.6455 36.5817 38.0853 39.4149 38.6414C39.4149 38.6414 29.639 39.2956 24.695 37.5897C19.7516 35.8845 16.6688 33.0945 15.8597 29.1519C15.1315 25.6071 17.1685 18.4373 16.9461 15.5785C16.9207 15.2562 16.8678 14.989 16.7783 14.7883C16.7783 14.7883 17.0217 14.759 17.4425 14.7142C19.6199 14.4805 26.6268 13.5498 28.9867 14.4618C29.2049 14.5459 29.4078 14.6523 29.5967 14.7704C30.2786 15.4667 30.6883 15.9719 30.6883 15.9719L30.6878 15.9702Z" fill="black"/>
</g>
<path d="M42.3644 47.4522C42.1351 48.0227 40.4268 47.4116 40.4268 47.4116C40.4268 47.4116 41.3184 48.0984 41.1329 48.4312C41.058 48.5658 40.7836 48.5704 40.4108 48.4642C39.5478 48.2194 38.1566 47.3875 37.4862 46.2139C37.4295 46.1158 37.378 46.014 37.3328 45.9119L37.5169 45.2975L37.8214 44.2856C37.8214 44.2856 37.9113 44.2116 38.0603 44.0947C38.6767 43.6166 40.3083 42.4275 40.8994 42.7554C41.3997 43.0332 40.3104 43.7704 40.5516 44.1218C40.7922 44.4738 42.8197 44.4296 42.7244 45.1099C42.6546 45.6024 41.0901 45.5106 41.0901 45.5106C41.0901 45.5106 43.1791 45.8605 43.1162 46.5243C43.0558 47.1588 40.9514 46.6401 40.7709 46.594C40.9271 46.6406 42.501 47.1165 42.3655 47.4523L42.3644 47.4522Z" fill="#FDDCAB"/>
<path d="M38.4268 43.9331L37.7044 46.2115C37.7044 46.2115 31.7163 44.3282 29.9092 42.7148C28.102 41.1015 26.7916 37.3262 26.9293 36.0331C27.2047 33.4491 30.4573 33.0761 30.4573 33.0761C30.4573 33.0761 32.4812 39.0488 33.3981 39.9461C34.315 40.8434 38.4268 43.9331 38.4268 43.9331Z" fill="#FDDCAB"/>
</g>
<defs>
<clipPath id="clip0_18814_39647">
<rect width="56" height="56" rx="28" fill="white"/>
</clipPath>
</defs>
</svg>
