<svg width="56" height="56" viewBox="0 0 56 56" fill="none" xmlns="http://www.w3.org/2000/svg">
<g clip-path="url(#clip0_18814_39723)">
<path d="M59.9938 33.9476C60.1339 34.1021 60.2709 34.2585 60.4048 34.4181C60.6404 34.6961 60.8661 34.9792 61.0826 35.268C62.0993 36.6286 62.9049 38.1294 63.4097 39.7873C63.6098 40.4483 63.7223 41.0734 63.7556 41.6666C63.7805 42.1097 63.7642 42.5347 63.7097 42.9423C63.3335 45.7547 61.1686 47.7752 58.9269 49.4627C58.0421 50.1286 57.1459 50.7431 56.3432 51.3332C56.3272 51.3446 56.3119 51.3567 56.2953 51.3699C54.278 52.8934 47.8556 60.1078 44.3683 59.9671C43.4318 59.9301 42.2417 59.5594 40.9202 58.9143C37.3432 57.1726 32.8081 53.4268 29.7625 48.8693C29.7111 48.7924 29.6597 48.7155 29.6089 48.638C27.5712 45.5206 25.533 44.7825 23.5328 44.5774C21.4561 44.364 19.4205 44.7245 17.468 43.592C12.7923 40.8779 1.31322 23.1968 9.62282 13.0784C16.7682 4.37942 29.8936 9.17353 35.5757 13.4378C37.7652 15.0811 38.8056 16.5823 39.391 17.9683C40.324 20.1771 40.1033 22.0887 41.5492 23.804C41.8764 24.1919 42.6999 24.5442 43.8559 24.9538C47.5941 26.2802 54.8157 28.2173 59.9938 33.9476Z" fill="#FDEAEF"/>
<path d="M17.0322 37.515C17.0322 37.515 32.7154 41.7655 38.974 37.4084C45.2326 33.0525 37.1095 19.8742 35.1719 17.8597C33.2342 15.8452 29.1738 11.8517 25.0183 12.3708C20.8622 12.8905 8.74351 26.9375 17.0328 37.5144L17.0322 37.515Z" fill="#804253"/>
<g style="mix-blend-mode:soft-light" opacity="0.2">
<path d="M20.9377 33.4635C20.9377 33.4635 25.6216 37.8035 31.806 36.8855C37.9897 35.9669 40.6339 36.5213 40.6339 36.5213C40.6339 36.5213 35.9299 16.8307 28.6201 14.8898C21.3096 12.9496 15.0927 23.7097 20.9389 33.4635L20.9377 33.4635Z" fill="#F1A9B8"/>
</g>
<path d="M48.0215 37.9589L50.1654 36.4287C50.1654 36.4287 46.1604 30.788 43.8559 29.4407C41.5514 28.0934 37.7956 27.279 35.8397 28.5817C33.4563 30.1694 33.9358 33.2833 33.9358 33.2833C33.9358 33.2833 40.8848 33.3805 42.1368 34.0378C43.3888 34.6951 48.0221 37.9582 48.0221 37.9582L48.0215 37.9589Z" fill="#F99D75"/>
<path d="M50.2678 36.199C50.6117 36.7121 50.9375 37.3043 51.2322 37.9888C51.2843 38.1117 51.3332 38.2365 51.3766 38.3632C52.9969 43.0918 48.1837 50.5342 42.2018 49.8719C41.3347 49.7749 40.5083 49.5755 39.7261 49.2903C38.379 48.8001 37.158 48.0567 36.0677 47.1524C35.3783 46.5814 34.7754 45.9305 34.2339 45.2351C32.6044 43.1417 31.5332 40.6466 30.3528 38.7325C27.3449 33.8565 32.0951 30.9138 32.0951 30.9138C34.9715 28.4348 37.3523 28.5041 39.3777 29.3486C41.3668 30.1787 43.0126 31.7552 44.4464 32.3994C44.7933 32.5553 45.338 32.6904 45.9852 32.9204C46.4946 33.1007 47.0668 33.3398 47.6574 33.691C48.5374 34.2145 49.457 34.9895 50.2697 36.1996L50.2678 36.199Z" fill="#FFAE85"/>
<path opacity="0.7" d="M40.9712 33.1838C41.0929 33.0586 41.0467 32.8162 40.8679 32.6425C40.6891 32.4687 40.4456 32.4293 40.3239 32.5545C40.2022 32.6797 40.2484 32.9221 40.4272 33.0959C40.6059 33.2696 40.8495 33.309 40.9712 33.1838Z" fill="#F6896C"/>
<path opacity="0.7" d="M36.2768 37.7541C36.4556 37.9279 36.699 37.9673 36.8208 37.842C36.9426 37.7167 36.8964 37.4745 36.7175 37.3007C36.5387 37.1268 36.2953 37.0875 36.1735 37.2128C36.0517 37.3381 36.098 37.5802 36.2768 37.7541Z" fill="#F6896C"/>
<g style="mix-blend-mode:soft-light" opacity="0.3">
<path d="M43.2418 33.4003C43.315 33.6147 40.6391 34.8128 39.5106 36.4702C38.6059 37.799 37.9464 40.0801 37.7326 40.1527C37.5181 40.2259 38.0061 37.0616 39.2671 35.4595C40.1065 34.393 43.1264 33.0616 43.2418 33.4003Z" fill="black"/>
</g>
<path d="M31.6687 20.22C31.8845 20.2877 32.1042 20.3225 32.3241 20.3256C32.3825 20.326 32.4402 20.3246 32.4979 20.3207C32.5259 20.3196 32.5538 20.3174 32.5817 20.3139C32.6015 20.3123 32.6214 20.3108 32.6406 20.3074C32.6605 20.3059 32.6796 20.3026 32.6988 20.2992C32.723 20.297 32.7466 20.2929 32.7707 20.2882C32.7906 20.2854 32.8104 20.2814 32.8296 20.2768C32.8525 20.2734 32.876 20.2681 32.8977 20.2622C32.9076 20.2608 32.9175 20.2582 32.9262 20.2556C32.9856 20.2411 33.0444 20.2247 33.1025 20.2053C33.113 20.2032 33.1235 20.2 33.1321 20.1962C33.1686 20.1838 33.2038 20.1715 33.2384 20.1574C33.2644 20.1483 33.2897 20.1374 33.3156 20.1271C33.3416 20.118 33.3668 20.1059 33.3915 20.0943C33.4144 20.0847 33.4353 20.0745 33.4569 20.0636C33.4859 20.0514 33.5149 20.0355 33.5426 20.0208C33.5747 20.0042 33.608 19.9863 33.64 19.9672C33.6566 19.9577 33.6726 19.9475 33.6893 19.938C33.7182 19.9208 33.7471 19.9024 33.7748 19.884C33.7902 19.8744 33.8044 19.8649 33.8191 19.8548C33.8474 19.8357 33.8757 19.8155 33.9034 19.7958C33.9188 19.785 33.9316 19.7743 33.947 19.7635C33.9783 19.7401 34.0097 19.7154 34.0404 19.6902C34.076 19.6611 34.1097 19.6314 34.1441 19.5999C34.1815 19.5664 34.217 19.5324 34.2538 19.4971C34.2905 19.4618 34.3248 19.4241 34.3603 19.3875C34.6893 19.0301 34.9537 18.5817 35.1154 18.0689C35.1374 17.9997 35.1569 17.9305 35.1739 17.8613C35.2093 17.7242 35.2353 17.5878 35.2526 17.4515C35.2571 17.4217 35.2598 17.3912 35.2637 17.3607C35.2676 17.3277 35.2702 17.2948 35.2735 17.2612C35.2761 17.2282 35.2781 17.1947 35.2795 17.1617C35.2815 17.1282 35.2817 17.0952 35.2831 17.0623C35.2861 16.9219 35.2804 16.7816 35.2648 16.644C35.2625 16.6161 35.2596 16.5888 35.2549 16.5609C35.2464 16.4915 35.2349 16.4227 35.2215 16.3558C35.2175 16.3348 35.2135 16.3137 35.2089 16.2933C35.2028 16.2629 35.1956 16.2314 35.1877 16.2017C35.1739 16.1491 35.1595 16.0946 35.1432 16.0433C35.138 16.0235 35.1315 16.0037 35.1244 15.9858C35.1127 15.9487 35.1004 15.9135 35.0868 15.8783C35.0803 15.8585 35.0726 15.84 35.0649 15.8202C34.9676 15.5726 34.8389 15.3434 34.6814 15.1413C34.3897 14.7622 33.9994 14.4759 33.5327 14.3272C32.509 14.0045 31.4024 14.4437 30.6861 15.3482C30.4298 15.671 30.2222 16.0534 30.0873 16.482C29.9791 16.8251 29.925 17.1706 29.9211 17.506C29.9041 18.7607 30.5757 19.8765 31.6718 20.2218L31.6687 20.22Z" fill="#FFAE85"/>
<g style="mix-blend-mode:soft-light" opacity="0.3">
<path d="M32.3254 20.3254C32.3838 20.3258 32.4416 20.3244 32.4993 20.3205C32.5272 20.3195 32.5551 20.3172 32.583 20.3137C32.6029 20.3122 32.6227 20.3106 32.6419 20.3073C32.6618 20.3057 32.681 20.3024 32.7002 20.299C32.7244 20.2968 32.7479 20.2927 32.7721 20.288C32.7919 20.2853 32.8117 20.2813 32.8309 20.2766C32.8538 20.2732 32.8774 20.2679 32.899 20.262C32.9089 20.2606 32.9188 20.258 32.9275 20.2554C32.9869 20.2409 33.0463 20.2251 33.1038 20.2051C33.1143 20.2031 33.1248 20.1998 33.1334 20.196C33.1699 20.1837 33.2051 20.1714 33.2397 20.1572C33.2657 20.1481 33.291 20.1372 33.3169 20.1269C33.3429 20.1179 33.3682 20.1057 33.3928 20.0942C33.4157 20.0845 33.4367 20.0743 33.4582 20.0634C33.4873 20.0512 33.5162 20.0353 33.544 20.0206C33.576 20.004 33.6093 19.9861 33.6413 19.9671C33.658 19.9575 33.674 19.9473 33.6906 19.9378C33.7195 19.9206 33.7485 19.9022 33.7762 19.8838C33.7915 19.8743 33.8057 19.8647 33.8204 19.8546C33.8487 19.8356 33.877 19.8153 33.9047 19.7956C33.9201 19.7849 33.933 19.7741 33.9483 19.7634C33.9797 19.7399 34.011 19.7153 34.0417 19.69C34.0773 19.6609 34.111 19.6312 34.1454 19.5997C34.1828 19.5663 34.2183 19.5322 34.2551 19.4969C34.2918 19.4616 34.3261 19.4239 34.3616 19.3874C34.6906 19.0299 34.9551 18.5815 35.1167 18.0687C35.1387 17.9995 35.1582 17.9303 35.1753 17.8611C35.2106 17.724 35.2366 17.5876 35.2539 17.4513C35.2584 17.4215 35.2611 17.391 35.265 17.3605C35.2689 17.3275 35.2716 17.2946 35.2748 17.261C35.2774 17.2281 35.2795 17.1945 35.2809 17.1616C35.2829 17.128 35.283 17.0951 35.2844 17.0621C35.2874 16.9217 35.2817 16.7815 35.2661 16.6438C35.2638 16.6159 35.2609 16.5886 35.2562 16.5607C35.2478 16.4913 35.2362 16.4225 35.2229 16.3556C35.2188 16.3346 35.2148 16.3135 35.2102 16.2931C35.2042 16.2628 35.1969 16.2312 35.189 16.2015C35.1752 16.1489 35.1608 16.0944 35.1445 16.0431C35.1393 16.0233 35.1328 16.0035 35.1257 15.9856C35.114 15.9485 35.1017 15.9133 35.0881 15.8781C35.0817 15.8583 35.0739 15.8398 35.0662 15.82C34.9689 15.5724 34.8402 15.3432 34.6827 15.1411C34.211 15.3807 33.8223 15.6483 33.5034 15.9322C33.071 16.3178 32.7677 16.7345 32.5581 17.1542C32.1831 17.9103 32.1139 18.6771 32.1525 19.2963C32.1573 19.3695 32.1638 19.4409 32.1704 19.5097C32.2069 19.8501 32.2724 20.1343 32.3267 20.3279L32.3254 20.3254Z" fill="black"/>
</g>
<path d="M32.1726 19.3449C32.0934 19.1845 32.0445 19.0244 32.0061 18.856C31.969 18.6889 31.9485 18.5171 31.943 18.3439C31.935 17.9981 31.9933 17.6445 32.1265 17.3172C32.1913 17.1536 32.276 16.9971 32.3758 16.8529C32.4725 16.7056 32.5898 16.5747 32.7142 16.4531C32.9667 16.2148 33.2584 16.0268 33.5702 15.8988C33.6208 15.8782 33.6783 15.9022 33.6995 15.9535C33.7175 15.9967 33.7027 16.0447 33.6664 16.0707L33.6658 16.0713C33.407 16.2607 33.169 16.464 32.9679 16.6948C32.7694 16.9268 32.6091 17.1849 32.5 17.4647C32.394 17.7451 32.3299 18.0428 32.3126 18.3492C32.2926 18.6532 32.3108 18.9722 32.3586 19.277L32.36 19.2845C32.3688 19.3384 32.3316 19.3892 32.2771 19.3975C32.2337 19.4043 32.1924 19.3813 32.1733 19.3443L32.1726 19.3449Z" fill="#F48351"/>
<g style="mix-blend-mode:soft-light" opacity="0.3">
<path d="M29.9195 17.5053L32.1687 19.5092L32.5612 19.8589L33.2374 20.1586C33.2634 20.1495 33.2887 20.1386 33.3146 20.1283C33.3406 20.1192 33.3659 20.1071 33.3906 20.0955C33.4134 20.0859 33.4344 20.0756 33.456 20.0648C33.485 20.0526 33.5139 20.0366 33.5417 20.022C33.5737 20.0054 33.607 19.9875 33.639 19.9684C33.6557 19.9589 33.6717 19.9487 33.6883 19.9392C33.7172 19.922 33.7462 19.9035 33.7739 19.8851C33.7893 19.8756 33.8034 19.8661 33.8182 19.856C33.8465 19.8369 33.8747 19.8166 33.9024 19.797C33.9178 19.7862 33.9307 19.7755 33.946 19.7647C33.9774 19.7413 34.0087 19.7166 34.0394 19.6913C34.075 19.6623 34.1088 19.6326 34.1431 19.6011C34.1805 19.5676 34.216 19.5336 34.2528 19.4983C34.2896 19.463 34.3238 19.4252 34.3593 19.3887C34.6884 19.0313 34.9528 18.5829 35.1144 18.0701C35.1364 18.0008 35.1559 17.9316 35.173 17.8625C34.2568 18.0288 33.3821 17.7052 32.6248 17.2018C32.601 17.1872 32.579 17.172 32.5564 17.1562C32.4693 17.0972 32.3852 17.0362 32.3017 16.9735C31.6318 16.4644 31.0728 15.8401 30.6845 15.35C30.4282 15.6728 30.2206 16.0552 30.0857 16.4838C29.9776 16.8269 29.9234 17.1724 29.9195 17.5078L29.9195 17.5053Z" fill="black"/>
</g>
<path d="M30.4761 34.393L34.7839 30.3771L33.5635 29.3672L32.4449 28.4428L32.1345 28.1864L27.8774 30.3458L28.6249 31.5096L29.634 33.0808L30.4761 34.393Z" fill="#FFAE85"/>
<g style="mix-blend-mode:soft-light" opacity="0.5">
<path d="M29.6323 33.0812C31.6603 31.8364 32.9102 30.3251 33.5618 29.3675L32.4432 28.4431L28.6232 31.5099L29.6316 33.0806L29.6323 33.0812Z" fill="black"/>
</g>
<path d="M34.4385 19.294C36.0696 21.0645 36.0619 23.5015 35.0239 25.9402C34.7438 26.6 34.3887 27.2602 33.9687 27.9064C33.9298 27.9666 33.8909 28.0268 33.8501 28.0864C33.8081 28.1484 33.7662 28.2105 33.7236 28.2732C33.7217 28.2751 33.7212 28.277 33.7199 28.2782C33.6317 28.4056 33.5416 28.5323 33.4483 28.6584C33.3557 28.7852 33.2606 28.9108 33.163 29.0351C33.1155 29.0966 33.0667 29.1594 33.0172 29.2204C32.9678 29.2813 32.9171 29.3435 32.8671 29.4051C32.773 29.5182 32.679 29.6301 32.5818 29.7414C32.4614 29.8804 32.3385 30.0181 32.2125 30.154C32.1661 30.2044 32.1183 30.2547 32.0706 30.3051C32.0149 30.3636 31.9598 30.4216 31.9035 30.4795L31.9023 30.4808C31.8233 30.562 31.7437 30.6426 31.6623 30.7226C31.5962 30.7894 31.5282 30.8556 31.4601 30.9205C31.4559 30.9249 31.4516 30.9293 31.446 30.9338C31.4215 30.9577 31.397 30.9816 31.3719 31.005C31.3143 31.0604 31.2561 31.1153 31.1966 31.1689C31.1789 31.1872 31.1605 31.2036 31.1421 31.22C31.0832 31.2743 31.025 31.3279 30.9649 31.3809C30.9281 31.415 30.8913 31.4465 30.8539 31.48C30.7987 31.5292 30.7428 31.5778 30.6857 31.6252C30.6428 31.6631 30.5992 31.7003 30.555 31.7357C30.533 31.7559 30.5109 31.7749 30.4869 31.7932C30.4464 31.8273 30.4059 31.8614 30.3635 31.8949C30.2979 31.9499 30.2315 32.003 30.1646 32.0555C30.1327 32.082 30.0989 32.1092 30.0651 32.1339C30.0006 32.1864 29.9349 32.2364 29.8691 32.2864C29.8292 32.3174 29.7893 32.3471 29.7481 32.3781C29.7205 32.4003 29.6916 32.4212 29.6626 32.4408C29.6196 32.4737 29.576 32.5048 29.5324 32.5371C29.4771 32.5788 29.4193 32.6194 29.3614 32.66C29.2981 32.705 29.2329 32.7506 29.169 32.795C29.1487 32.8108 29.1278 32.826 29.1069 32.8387C29.0558 32.8748 29.0041 32.9091 28.9525 32.9446C28.8725 32.9979 28.7925 33.0512 28.7113 33.1033C28.6282 33.1573 28.5457 33.2106 28.4614 33.2621C28.4152 33.292 28.3678 33.3206 28.3204 33.3492C28.2706 33.3803 28.2201 33.4109 28.1702 33.4408C28.14 33.4592 28.1086 33.4764 28.0778 33.4942C28.0088 33.5349 27.9392 33.5763 27.8683 33.6152C27.8499 33.6266 27.832 33.6362 27.8129 33.6458C27.7198 33.6987 27.6262 33.7509 27.5319 33.8013C27.3001 33.9251 27.0651 34.0383 26.8249 34.138C26.778 34.1573 26.7311 34.1778 26.6842 34.1959C26.6786 34.1978 26.6737 34.2004 26.6669 34.2023C26.6107 34.2249 26.5563 34.2468 26.4995 34.2674C26.4451 34.2881 26.3908 34.3075 26.3364 34.3269C26.3197 34.3339 26.3036 34.3391 26.2869 34.3437C26.2418 34.3586 26.1967 34.3748 26.1516 34.3897C26.0298 34.4294 25.9086 34.4658 25.7849 34.4999C25.6642 34.5333 25.5423 34.5642 25.421 34.5932C25.369 34.6052 25.3158 34.6171 25.2644 34.6284C25.2514 34.6317 25.2384 34.635 25.2254 34.637C25.1703 34.6471 25.1145 34.6591 25.06 34.6698C25.0563 34.6711 25.0526 34.6711 25.0495 34.6718C24.9888 34.6838 24.9287 34.694 24.868 34.7048C24.806 34.7156 24.7459 34.7258 24.684 34.7341C24.5458 34.7566 24.4075 34.774 24.2686 34.7884C24.219 34.7941 24.1688 34.7992 24.1173 34.8042C24.0578 34.81 23.9976 34.8152 23.9387 34.8192C23.8754 34.8251 23.8127 34.8278 23.7507 34.8324C23.603 34.8407 23.454 34.8465 23.3056 34.848C23.2398 34.849 23.1727 34.8499 23.1063 34.849C22.9262 34.8491 22.7454 34.8448 22.5645 34.8356C22.5148 34.8338 22.4645 34.8314 22.4129 34.8278C22.3563 34.8242 22.2979 34.8201 22.2395 34.8159C22.1873 34.813 22.1344 34.8081 22.0821 34.8026C21.9292 34.7899 21.7768 34.7728 21.6244 34.7545C21.4552 34.7333 21.2859 34.7084 21.1166 34.6809C21.0637 34.6724 21.0095 34.6626 20.9559 34.6534C20.4497 34.5618 19.9463 34.4435 19.4486 34.2966C19.3432 34.2664 19.239 34.2337 19.1349 34.201C19.0625 34.1784 18.9907 34.1552 18.9184 34.1302C18.8404 34.1046 18.7623 34.0778 18.6849 34.0503C18.6512 34.0383 18.6175 34.0264 18.5844 34.0138C18.4789 33.9762 18.3722 33.9361 18.2673 33.8953C18.1911 33.8666 18.1149 33.8366 18.0393 33.806C17.812 33.7149 17.5852 33.6181 17.3626 33.5157C17.2632 33.4705 17.1638 33.4241 17.0663 33.377L17.065 33.3758C16.9669 33.3294 16.8687 33.2805 16.7717 33.2315C16.6929 33.1917 16.6147 33.1524 16.5371 33.11C16.4983 33.0895 16.4583 33.0689 16.4201 33.0477C16.3438 33.0078 16.2699 32.9666 16.1948 32.9255C16.0633 32.8515 15.9343 32.7776 15.8053 32.7012C15.7483 32.6666 15.6913 32.6332 15.6349 32.598C15.6005 32.5768 15.5648 32.5555 15.5309 32.5337C15.3567 32.4268 15.185 32.3162 15.017 32.2031C14.9668 32.169 14.9166 32.135 14.8671 32.1003C14.7373 32.0108 14.6093 31.9207 14.485 31.8281C14.4329 31.7897 14.3802 31.7507 14.3287 31.7117C14.2766 31.6721 14.2245 31.6337 14.1737 31.594C14.1297 31.5599 14.0876 31.5263 14.043 31.4928C14.0047 31.4617 13.967 31.4311 13.9293 31.4006C13.8766 31.3579 13.8244 31.3158 13.7729 31.273C13.7691 31.2706 13.766 31.2675 13.7628 31.2645C13.7069 31.2187 13.6516 31.171 13.5969 31.124C13.578 31.1081 13.5604 31.0922 13.5422 31.0769C13.4692 31.0134 13.3969 30.9492 13.3258 30.885C13.3145 30.8752 13.3026 30.8648 13.2919 30.8544C12.781 30.3909 12.3189 29.9025 11.9136 29.3959C11.8567 29.3247 11.801 29.2534 11.7472 29.1827C11.6973 29.1182 11.6504 29.0531 11.6029 28.9885C11.5776 28.9541 11.5522 28.9185 11.5281 28.8828C11.5078 28.8557 11.4888 28.8287 11.471 28.8004C11.4298 28.742 11.3911 28.6823 11.3511 28.6226C11.3207 28.5783 11.2927 28.534 11.2642 28.4891C11.2261 28.4325 11.1905 28.3746 11.1568 28.3161C11.1504 28.3062 11.1434 28.2958 11.1377 28.2853C11.1301 28.2717 11.1205 28.2576 11.1129 28.244C11.1129 28.2428 11.1122 28.2422 11.111 28.2409C11.0798 28.1898 11.0499 28.1387 11.0212 28.0876C10.9824 28.0179 10.9429 27.9477 10.9059 27.8774C10.8637 27.7985 10.8241 27.7196 10.7851 27.64C10.7461 27.5617 10.7109 27.4834 10.675 27.4056C10.6654 27.3852 10.6576 27.3643 10.6474 27.342C10.587 27.2038 10.531 27.0636 10.48 26.9246C10.3637 26.6095 10.2723 26.2916 10.21 25.9739C10.2067 25.9584 10.204 25.941 10.2012 25.9249C10.1343 25.5843 10.0873 25.2446 10.0583 24.9066C9.9491 23.6455 10.0887 22.412 10.4285 21.2359C10.5156 20.9335 10.6157 20.6365 10.7283 20.343C10.7971 20.1625 10.8697 19.9833 10.9486 19.8051C11.0004 19.6901 11.0527 19.5745 11.107 19.4607C13.5548 14.3521 19.656 10.8108 24.3651 11.7948C24.3819 11.7977 24.3993 11.8012 24.4155 11.8047C24.4523 11.8122 24.4884 11.8204 24.5239 11.8292C25.3071 12.0076 25.9866 12.2761 26.5962 12.6116C26.7383 12.6897 26.8773 12.7697 27.0121 12.8553C27.0472 12.8772 27.0841 12.8996 27.1192 12.9227C27.328 13.0583 27.5287 13.1995 27.7233 13.3483C28.23 13.7355 28.6975 14.1642 29.156 14.616C29.5585 15.0109 29.9525 15.4233 30.3608 15.8361C30.8951 16.38 31.4531 16.926 32.0808 17.4432C32.1695 17.5171 32.258 17.5872 32.3497 17.6592C32.3729 17.6781 32.3968 17.6964 32.4207 17.7147C32.6951 17.9276 32.9837 18.1346 33.2889 18.3322C33.739 18.6239 34.1218 18.9457 34.4415 19.2909L34.4385 19.294Z" fill="#FFAE85"/>
<path d="M29.5583 21.0301C29.8824 21.3279 30.2156 21.3052 30.418 21.0843C30.6211 20.8641 30.6164 20.53 30.2923 20.2322C29.9682 19.9343 29.4475 19.7846 29.2451 20.0055C29.0427 20.2263 29.2343 20.7322 29.559 21.0307L29.5583 21.0301Z" fill="#521711"/>
<path d="M28.0765 22.6993L28.7315 23.0359L28.4571 23.0447C28.5007 23.0087 28.5345 22.9828 28.5738 22.9537C28.6119 22.9258 28.6513 22.8991 28.6907 22.8737C28.7701 22.8223 28.8514 22.774 28.9365 22.7305C29.106 22.6443 29.2882 22.5728 29.4864 22.5315C29.6833 22.4902 29.9024 22.484 30.1151 22.5461C30.3283 22.6065 30.5178 22.7429 30.6511 22.9031C30.79 23.0626 30.8831 23.2793 30.9029 23.4895C30.9233 23.7016 30.887 23.904 30.8237 24.085C30.7605 24.2672 30.6734 24.4337 30.5744 24.5897C30.524 24.6668 30.4704 24.7409 30.4142 24.8137C30.3575 24.8859 30.3001 24.9538 30.2328 25.0231C30.1869 25.0703 30.1105 25.072 30.0632 25.0249C30.0204 24.9832 30.0152 24.9181 30.048 24.8704L30.0523 24.866C30.1436 24.7318 30.2334 24.584 30.3045 24.4352C30.3788 24.2869 30.4394 24.1339 30.4764 23.9812C30.5121 23.8286 30.5273 23.6768 30.5012 23.5412C30.4775 23.4043 30.4187 23.2883 30.3235 23.1885C30.2283 23.0849 30.1161 23.0163 29.9915 22.9845C29.8668 22.9515 29.7253 22.9572 29.581 22.9872C29.4361 23.0178 29.2897 23.0752 29.1479 23.1467C29.077 23.1819 29.0061 23.2208 28.9372 23.2628C28.9033 23.2837 28.8688 23.3053 28.8356 23.3282C28.803 23.3491 28.7673 23.3745 28.7415 23.3935L28.4672 23.4023L27.9358 22.8932C27.8879 22.8466 27.8862 22.7703 27.9321 22.7218C27.9701 22.6827 28.0289 22.6739 28.0752 22.698L28.0765 22.6993Z" fill="#F48351"/>
<g style="mix-blend-mode:soft-light" opacity="0.3">
<path d="M27.9747 19.6464C28.3258 19.7476 29.2411 18.99 30.2516 18.4304C30.9344 18.053 30.4352 17.7564 29.6237 17.853C28.5083 17.9862 26.9277 19.3451 27.9747 19.6464Z" fill="black"/>
</g>
<g style="mix-blend-mode:soft-light" opacity="0.3">
<path d="M24.5379 23.3823C24.6676 23.7239 23.9896 24.6986 23.5164 25.7524C23.1967 26.4643 22.8602 25.9915 22.8884 25.175C22.9277 24.0522 24.1502 22.3637 24.5373 23.3817L24.5379 23.3823Z" fill="black"/>
</g>
<path d="M27.7736 19.4637C28.1247 19.565 29.0399 18.8074 30.0505 18.2478C30.7326 17.8698 30.2341 17.5738 29.4225 17.6704C28.3071 17.8036 26.7266 19.1625 27.7736 19.4637Z" fill="#93311F"/>
<path d="M26.0488 24.848C26.3728 25.1459 26.3776 25.4799 26.1745 25.7002C25.9714 25.9204 25.6389 25.9438 25.3148 25.6459C24.9908 25.3481 24.7985 24.8415 25.001 24.6207C25.204 24.4004 25.7241 24.5496 26.0481 24.8474L26.0488 24.848Z" fill="#521711"/>
<path d="M24.3387 23.1987C24.4684 23.5403 23.7903 24.515 23.3171 25.5688C22.9974 26.2807 22.661 25.8079 22.6891 24.9914C22.7285 23.8686 23.951 22.1801 24.3381 23.1981L24.3387 23.1987Z" fill="#93311F"/>
<path d="M30.4485 27.7457C30.4379 27.6517 30.4366 27.5709 30.4388 27.4838C30.441 27.3979 30.4501 27.3136 30.4611 27.2285C30.4849 27.0589 30.5268 26.8916 30.5845 26.7279C30.6998 26.4018 30.885 26.0929 31.1284 25.8335C31.3706 25.5742 31.6726 25.3706 31.9967 25.2417C32.3214 25.1135 32.6642 25.0515 32.9999 25.0663C33.0766 25.0696 33.1355 25.134 33.1322 25.2106C33.1299 25.2667 33.0935 25.3144 33.0441 25.3335L33.0429 25.3348C32.7485 25.4479 32.4736 25.5658 32.2218 25.7105C32.0978 25.7853 31.9764 25.8612 31.8662 25.9509C31.7546 26.0381 31.6477 26.1308 31.5511 26.2341C31.3567 26.4384 31.1905 26.673 31.0539 26.9311C30.9841 27.0599 30.9239 27.1952 30.8675 27.3339C30.8378 27.4031 30.8138 27.4738 30.7879 27.5453C30.7632 27.6154 30.7394 27.6924 30.7182 27.7574L30.7139 27.7713C30.6911 27.8432 30.614 27.8835 30.5414 27.8601C30.4891 27.8433 30.4527 27.7971 30.4472 27.7458L30.4485 27.7457Z" fill="#F48351"/>
<g style="mix-blend-mode:soft-light" opacity="0.3">
<path d="M33.7471 26.2774C33.4235 26.2348 33.1204 26.3198 32.841 26.4561C32.5629 26.5948 32.3192 26.7964 32.1194 27.0296L31.9786 27.2111C31.9335 27.2726 31.8959 27.3389 31.8571 27.4041C31.7744 27.5319 31.7205 27.6731 31.6616 27.8105C31.6083 27.9498 31.5731 28.0956 31.5385 28.2383C31.517 28.3852 31.498 28.532 31.4976 28.6798C31.4971 28.737 31.5431 28.7829 31.6003 28.7833C31.6332 28.7835 31.6622 28.7688 31.6811 28.7455L31.6878 28.7386C31.7787 28.6237 31.8497 28.5053 31.9226 28.3912C32.0043 28.2808 32.0697 28.1656 32.1458 28.0583C32.2238 27.9529 32.2906 27.8414 32.3718 27.7427C32.4121 27.6937 32.4442 27.638 32.4864 27.5908C32.5279 27.543 32.567 27.494 32.6067 27.4456C32.7717 27.2582 32.9431 27.0806 33.1352 26.9196C33.3254 26.7591 33.54 26.6077 33.7679 26.4752L33.7845 26.4657C33.8326 26.4377 33.8491 26.3766 33.8217 26.3279C33.8058 26.3002 33.7776 26.2826 33.7471 26.2787L33.7471 26.2774Z" fill="black"/>
</g>
<path d="M11.1491 19.5733L11.0319 19.9321L10.9152 20.2902C10.9033 20.3276 10.867 20.3536 10.8279 20.3523C10.7919 20.3516 10.7577 20.3489 10.7229 20.3457C10.6513 20.3387 10.581 20.3279 10.5137 20.3114C10.4258 20.2885 10.3403 20.2592 10.2584 20.2225C9.5503 19.9053 9.10883 19.0793 8.90139 18.596C8.86349 18.5077 8.97109 18.431 9.04462 18.4927C9.60036 18.968 10.192 19.2161 10.6111 19.3431C10.8151 19.4054 10.9777 19.4385 11.0766 19.4551C11.0854 19.4562 11.0941 19.4598 11.1016 19.4634C11.1404 19.4828 11.1622 19.5284 11.1479 19.5721L11.1491 19.5733Z" fill="#F4DB9D"/>
<path d="M11.0319 19.897L11.0324 19.9318L11.0463 20.7843C11.0479 20.8066 11.0395 20.8291 11.0242 20.8461C10.8421 21.0536 10.6376 21.177 10.4243 21.239C10.2876 21.2801 10.1468 21.2951 10.0077 21.2921L10.0071 21.2927C9.49145 21.2827 8.98905 21.0209 8.714 20.8503C8.64069 20.8047 8.66892 20.6938 8.75388 20.6845C9.36464 20.6168 9.87795 20.4214 10.2608 20.2228C10.3551 20.1737 10.4408 20.1246 10.5196 20.0776C10.6772 19.9809 10.8008 19.8928 10.8874 19.8264C10.9058 19.8125 10.925 19.8066 10.9455 19.8082C10.9909 19.8094 11.0324 19.8461 11.0331 19.897L11.0319 19.897Z" fill="#F4DB9D"/>
<g style="mix-blend-mode:soft-light" opacity="0.3">
<path d="M20.0543 31.3115L19.9978 31.3582L19.3133 31.9188L18.8161 32.3271L17.3623 33.5177C17.2629 33.4725 17.1635 33.4261 17.066 33.3791L17.0647 33.3778C16.9666 33.3314 16.8683 33.2825 16.7714 33.2336C16.6926 33.1937 16.6144 33.1544 16.5368 33.1121C16.498 33.0915 16.458 33.0709 16.4198 33.0497C16.3434 33.0098 16.2696 32.9687 16.1945 32.9275C16.063 32.8536 15.934 32.7796 15.805 32.7032C15.7422 32.129 16.6521 31.392 17.1226 31.1096C17.1232 31.109 17.1251 31.1083 17.1257 31.1077C17.683 30.7737 18.2557 30.7339 18.7461 30.809C19.4992 30.925 20.0555 31.3102 20.0555 31.3102L20.0543 31.3115Z" fill="black"/>
</g>
<g style="mix-blend-mode:soft-light" opacity="0.3">
<path d="M19.944 32.9846C20.0886 33.0626 20.2368 33.1394 20.3882 33.2155L20.3693 33.2375L20.2336 33.3922L20.2183 33.4105L20.0869 33.5607L19.4465 34.2977C19.3411 34.2675 19.237 34.2348 19.1328 34.2021C19.0604 34.1796 18.9887 34.1564 18.9163 34.1313C18.8383 34.1057 18.7603 34.0789 18.6829 34.0514C18.6492 34.0395 18.6155 34.0275 18.5824 34.0149C18.4769 33.9773 18.3701 33.9372 18.2652 33.8965C18.189 33.8677 18.1128 33.8378 18.0372 33.8072C17.8099 33.716 17.5831 33.6192 17.3605 33.5168C17.2612 33.4716 17.1618 33.4252 17.0642 33.3781L17.0629 33.3769C16.9648 33.3305 16.8666 33.2816 16.7696 33.2327C16.6908 33.1928 16.6126 33.1535 16.535 33.1111C16.4962 33.0906 16.4562 33.07 16.418 33.0488C16.3417 33.0089 16.2678 32.9677 16.1927 32.9266C16.0612 32.8527 15.9323 32.7787 15.8032 32.7023C15.7462 32.6677 15.6892 32.6344 15.6328 32.5992C15.5984 32.5779 15.5627 32.5567 15.5288 32.5348C15.3547 32.428 15.1829 32.3174 15.0149 32.2042C14.9647 32.1702 14.9146 32.1361 14.865 32.1014C14.7352 32.0119 14.6072 31.9219 14.4829 31.8292C14.4308 31.7908 14.3781 31.7518 14.3266 31.7128C14.2745 31.6732 14.2224 31.6348 14.1716 31.5951C14.1276 31.561 14.0855 31.5274 14.041 31.4939C14.0026 31.4628 13.965 31.4323 13.9273 31.4017C13.8745 31.359 13.8223 31.3169 13.7708 31.2741C13.7671 31.2717 13.7639 31.2687 13.7608 31.2656C13.7048 31.2198 13.6495 31.1722 13.5948 31.1251C13.5759 31.1092 13.5583 31.0933 13.5401 31.0781C13.4672 31.0145 13.3948 30.9503 13.3237 30.8861C13.3124 30.8764 13.3005 30.866 13.2898 30.8556C12.7789 30.3921 12.3168 29.9036 11.9115 29.397C11.8546 29.3258 11.799 29.2545 11.7452 29.1839C11.6952 29.1194 11.6483 29.0542 11.6008 28.9897C11.5755 28.9552 11.5501 28.9196 11.526 28.8839C11.5058 28.8569 11.4868 28.8298 11.469 28.8015C11.4278 28.7431 11.389 28.6834 11.3491 28.6237C11.3186 28.5794 11.2907 28.5351 11.2621 28.4902C11.224 28.4336 11.1884 28.3757 11.1547 28.3172C11.1483 28.3073 11.1414 28.2969 11.1356 28.2864C11.1274 28.2735 11.1191 28.2606 11.1127 28.247L11.1108 28.2452C11.1108 28.2452 11.1102 28.2433 11.1089 28.2421C11.0777 28.191 11.0478 28.1398 11.0192 28.0887C10.9803 28.0191 10.9408 27.9488 10.9038 27.8786C10.8617 27.7997 10.822 27.7207 10.783 27.6412L11.3908 27.3636L11.6376 27.2508L13.7199 26.5891C13.7199 26.5891 13.7638 26.7481 13.882 27.0234C13.9578 27.2 14.0628 27.4245 14.2062 27.6864C14.678 28.5467 15.5586 29.8117 17.1258 31.1074C17.3143 31.2624 17.5122 31.4192 17.7224 31.5746C18.0595 31.8263 18.4226 32.0777 18.8168 32.3261C19.1696 32.549 19.5453 32.7685 19.9465 32.9833L19.944 32.9846Z" fill="black"/>
</g>
<g style="mix-blend-mode:soft-light" opacity="0.3">
<path d="M27.7195 13.3523C27.7046 13.704 27.6336 14.131 27.4832 14.6021C26.973 16.2054 25.5425 18.331 22.2587 19.8394L21.9946 18.1254C21.9827 18.1995 21.4946 21.3147 17.6468 23.6503C17.2755 23.876 16.8724 24.0942 16.435 24.3022C16.435 24.3022 15.5801 26.3774 14.2032 27.6881C13.6027 28.2605 12.902 28.6865 12.1307 28.7316C11.906 28.7447 11.6741 28.725 11.4379 28.6681C11.4272 28.6552 11.4177 28.6436 11.4082 28.6307C11.2761 28.4655 11.1818 28.347 11.1078 28.248C11.1078 28.2468 11.1071 28.2462 11.1059 28.245C10.9134 27.9831 10.8669 27.862 10.6699 27.4096C10.6603 27.3893 10.6525 27.3682 10.6423 27.346L11.0976 26.8322L11.4082 26.4813L13.7102 23.8837L15.4358 21.9359L17.6889 19.3937L21.3498 15.2622L21.6854 14.8842L21.969 14.5634L23.3089 13.0515L24.411 11.8081C24.4478 11.8156 24.4839 11.8238 24.5194 11.8326C25.3026 12.0109 25.9821 12.2795 26.5917 12.6149C26.7338 12.693 26.8728 12.773 27.0076 12.8587C27.0427 12.8806 27.0796 12.903 27.1147 12.9261C27.3235 13.0617 27.5242 13.2029 27.7188 13.3517L27.7195 13.3523Z" fill="black"/>
</g>
<path d="M26.7355 11.9549C26.868 12.2331 26.9611 12.5355 27.0085 12.8597C27.0862 13.3871 27.0429 13.9746 26.8527 14.6176C26.842 14.6512 26.8319 14.6855 26.8213 14.7205C26.1035 16.9695 23.4845 18.453 22.8193 18.7984C22.7533 18.8323 22.6774 18.7781 22.6875 18.7047C22.8727 17.3488 22.8358 16.3246 22.3274 16.0387C21.1545 18.8997 19.1412 21.0112 17.6587 22.2792C16.5867 23.1968 15.7911 23.6726 15.7911 23.6726C15.1199 25.2198 14.4693 26.2885 13.8811 27.0247C13.1342 27.9594 12.4865 28.3586 12.0199 28.5224C11.7517 28.6168 11.5433 28.6347 11.4116 28.6304C11.3874 28.6301 11.3675 28.6291 11.3501 28.6269C11.2823 28.621 11.2468 28.6109 11.2468 28.6109C10.7895 28.115 10.4339 27.6114 10.1629 27.1153C9.79889 26.4491 9.5871 25.7901 9.48127 25.1594C9.43586 24.8911 9.41102 24.6281 9.40057 24.373C9.39246 24.1508 9.39559 23.9334 9.40937 23.7227C9.47309 22.7411 9.74802 21.8951 10.0084 21.2934L10.009 21.2927C10.2712 20.6879 10.5171 20.3304 10.5171 20.3304L10.5168 20.313C10.5151 20.2354 10.5171 20.1577 10.5203 20.0788C10.5312 19.8396 10.5625 19.5944 10.6142 19.3447C11.3673 15.6922 16.2811 11.0492 19.4324 9.96677C19.7612 9.85281 20.0984 9.76419 20.4403 9.69848C21.8709 9.41985 23.3639 9.5496 24.5671 10.048C25.5404 10.4503 26.3258 11.0925 26.7367 11.9562L26.7355 11.9549Z" fill="#A04432"/>
<g style="mix-blend-mode:overlay" opacity="0.2">
<path d="M25.2769 15.5828C25.3729 15.343 25.4362 15.08 25.4711 14.8224C25.4891 14.693 25.4984 14.5624 25.5003 14.4332C25.5035 14.304 25.4985 14.1743 25.4843 14.0465C25.4713 13.9188 25.4478 13.7918 25.4181 13.6686C25.3896 13.5442 25.35 13.4224 25.3048 13.3038C25.2102 13.0673 25.0915 12.8417 24.9426 12.6333C24.9034 12.5829 24.8678 12.53 24.8268 12.4803L24.7017 12.3342L24.6392 12.2612L24.5718 12.1932L24.437 12.0573C24.3892 12.0157 24.3395 11.9748 24.2911 11.9339L24.2182 11.8728C24.1931 11.8533 24.1668 11.8363 24.1404 11.818L23.9843 11.7091L23.8196 11.6139L23.7375 11.566L23.6519 11.5256C23.5944 11.4991 23.5381 11.4701 23.4794 11.4461C23.3595 11.4031 23.2427 11.3532 23.1174 11.3233L23.0251 11.2973L22.979 11.2843L22.9317 11.275L22.7429 11.2373C22.6807 11.2245 22.6154 11.2198 22.5519 11.2108C22.4878 11.2024 22.4243 11.1934 22.3597 11.1918L22.1658 11.1809C22.1012 11.1793 22.0354 11.1803 21.9708 11.1799L21.8733 11.1794L21.7752 11.1846L21.5798 11.1954L21.3838 11.2168L21.2858 11.2269L21.1885 11.2426L20.9934 11.2733L20.7995 11.3127C20.2812 11.4187 19.7724 11.5843 19.276 11.7839C18.2843 12.1855 17.3373 12.7187 16.4739 13.365L16.4733 13.3657C16.4388 13.391 16.3915 13.3842 16.3656 13.3504C16.3416 13.3185 16.3471 13.2737 16.3753 13.2472C17.1909 12.5103 18.1308 11.915 19.1353 11.4549C19.6408 11.2322 20.164 11.0379 20.71 10.9121L20.9149 10.8664L21.1218 10.8286L21.2253 10.8104L21.33 10.7971L21.5396 10.7706L21.7511 10.7545L21.8566 10.7468L21.9628 10.7447C22.0336 10.7437 22.1043 10.7414 22.1751 10.7417L22.3889 10.7523C22.4604 10.7544 22.5313 10.7633 22.6022 10.7723C22.6731 10.7812 22.7446 10.787 22.815 10.8003L23.0267 10.8408L23.0797 10.8506L23.132 10.8647L23.2368 10.8931C23.377 10.9265 23.5119 10.9817 23.648 11.0295C23.7148 11.0565 23.7799 11.0891 23.8461 11.1192L23.9449 11.165L24.0394 11.2189C24.1027 11.2547 24.1647 11.2917 24.2273 11.3293L24.4048 11.4553C24.4343 11.4766 24.4644 11.4973 24.4927 11.5199L24.5751 11.5902C24.6298 11.6372 24.6857 11.6842 24.7392 11.7325C24.9457 11.9358 25.1326 12.153 25.2926 12.3942C25.613 12.8747 25.8044 13.4489 25.8175 14.0238C25.8284 14.3112 25.7933 14.5968 25.7264 14.871C25.6935 15.0081 25.6489 15.1422 25.598 15.274C25.5722 15.3395 25.5445 15.4045 25.5138 15.4677C25.4824 15.5315 25.4515 15.5922 25.4115 15.6561C25.389 15.6918 25.3413 15.703 25.3056 15.6806C25.2737 15.6605 25.2613 15.6203 25.2751 15.5872L25.2769 15.5828Z" fill="white"/>
</g>
<g style="mix-blend-mode:overlay" opacity="0.2">
<path d="M24.0929 16.0989C24.1789 15.4673 24.0797 14.8222 23.8642 14.2477C23.7508 13.9624 23.5999 13.6969 23.4085 13.4692C23.2189 13.2408 22.9828 13.0591 22.7183 12.9293C22.4531 12.8002 22.1602 12.7261 21.8567 12.6944C21.5531 12.6602 21.2398 12.6789 20.9279 12.7162C20.3018 12.7947 19.679 12.9767 19.0609 13.1842C19.03 13.1946 18.9968 13.1783 18.9864 13.1474C18.9774 13.1202 18.9894 13.0915 19.0128 13.0775C19.5838 12.7471 20.2049 12.4923 20.8675 12.3513C21.1988 12.2863 21.5416 12.2436 21.8904 12.2691C22.2372 12.2903 22.5905 12.3691 22.9138 12.5241C23.2376 12.6773 23.5297 12.9073 23.7485 13.1886C23.9705 13.468 24.1291 13.7887 24.2319 14.1189C24.3322 14.4504 24.3787 14.7931 24.3804 15.1328C24.374 15.472 24.3323 15.8135 24.2051 16.1296C24.1931 16.1596 24.1591 16.1743 24.1285 16.1617C24.1029 16.1515 24.0889 16.1257 24.0922 16.0995L24.0922 16.097L24.0929 16.0989Z" fill="white"/>
</g>
<g style="mix-blend-mode:soft-light" opacity="0.3">
<path d="M26.7349 11.955C26.8674 12.2332 26.9605 12.5356 27.0079 12.8597C27.0855 13.3871 27.0423 13.9746 26.8521 14.6176C26.8414 14.6513 26.8313 14.6856 26.8206 14.7205C26.1029 16.9696 23.4839 18.4531 22.8187 18.7985C22.7527 18.8323 22.6768 18.7782 22.6869 18.7047C22.872 17.3489 22.8352 16.3247 22.3268 16.0387C21.1538 18.8997 19.1405 21.0112 17.6581 22.2793C16.5861 23.1969 15.7905 23.6727 15.7905 23.6727C15.1193 25.2199 14.4687 26.2886 13.8805 27.0248C13.1335 27.9595 12.4859 28.3587 12.0193 28.5224C11.7511 28.6169 11.5427 28.6348 11.411 28.6304C11.3867 28.6301 11.3669 28.6292 11.3494 28.6269C11.2817 28.6211 11.2461 28.611 11.2461 28.611C10.7888 28.1151 10.4333 27.6115 10.1623 27.1154C9.79826 26.4492 9.58647 25.7902 9.48065 25.1595C9.69039 25.454 9.93383 25.7163 10.1971 25.9281C10.3937 26.0861 10.6011 26.2167 10.8167 26.3112C11.0092 26.3979 11.2081 26.4565 11.4097 26.481C11.9603 26.5508 12.5286 26.3757 13.0478 25.8504C13.6907 25.2016 13.8124 24.5031 13.7123 23.8829C13.5461 22.8443 12.7601 22.0264 12.7601 22.0264C12.7601 22.0264 13.7859 22.5851 15.4373 21.9357C16.0932 21.6792 16.8483 21.2313 17.6767 20.4811C17.8803 20.2994 18.0867 20.0983 18.2973 19.878C19.5243 18.5943 20.7123 16.4876 21.3513 15.262C21.4221 15.1274 21.4849 15.0036 21.5411 14.8929C21.7296 14.5213 21.8357 14.2937 21.8357 14.2937C21.8357 14.2937 21.8825 14.3993 21.9705 14.5632C22.0146 14.6477 22.0694 14.7463 22.1349 14.854C22.6521 15.7192 23.7797 17.1534 25.0355 15.8867C25.1812 15.7393 25.3156 15.5772 25.4391 15.4009L25.4398 15.4003C25.6054 15.1694 25.7521 14.9164 25.8837 14.6512C26.205 14.0057 26.4314 13.2852 26.5933 12.6147C26.6478 12.3872 26.6944 12.1655 26.7355 11.9544L26.7349 11.955Z" fill="black"/>
</g>
<g style="mix-blend-mode:soft-light" opacity="0.3">
<path d="M20.9541 34.6552C23.2353 35.0626 25.549 34.8671 27.5312 33.8018C30.8466 32.0215 33.7329 28.9779 35.0226 25.9426C34.0274 27.4124 31.6436 30.5955 28.719 32.1653C24.8416 34.2455 21.4804 33.3628 21.4804 33.3628L20.9534 34.6558L20.9541 34.6552Z" fill="black"/>
</g>
<path d="M21.7036 32.79C21.7885 33 21.8425 33.2166 21.8624 33.4343C21.8624 33.4355 21.863 33.4374 21.8624 33.4392C21.906 33.8845 21.8186 34.3373 21.6222 34.7586C21.5667 34.8749 21.5049 34.9888 21.4332 35.0992C21.0827 35.65 20.5347 36.118 19.845 36.4016C18.7972 36.832 17.6841 36.7273 16.8924 36.2137C16.4907 35.9542 16.1712 35.5898 15.9847 35.1366C15.6882 34.4148 15.7899 33.6172 16.1907 32.9315C16.5175 32.3698 17.0447 31.8841 17.7192 31.5783C17.7593 31.5585 17.8019 31.5411 17.8445 31.5238C18.2149 31.372 18.5932 31.2877 18.963 31.2638C19.321 31.2408 19.6705 31.2743 19.9966 31.361C20.7689 31.5655 21.4076 32.0651 21.7054 32.7906L21.7036 32.79Z" fill="#FFAE85"/>
<g style="mix-blend-mode:soft-light" opacity="0.3">
<path d="M21.8627 33.4344C21.8627 33.4344 21.8634 33.4375 21.8628 33.4393C21.9064 33.8846 21.819 34.3373 21.6225 34.7587C21.567 34.875 21.5053 34.9889 21.4336 35.0992C21.0831 35.6501 20.5351 36.1181 19.8454 36.4017C18.7976 36.832 17.6845 36.7273 16.8928 36.2138C17.0927 35.7247 17.3254 35.3164 17.5802 34.9762C17.5795 34.9756 17.5808 34.9756 17.5808 34.9756C17.8886 34.5645 18.2294 34.2528 18.582 34.0187C19.1221 33.6583 19.6897 33.4776 20.209 33.3994C20.2171 33.3974 20.2251 33.3967 20.2332 33.3947C20.4389 33.3645 20.6368 33.3499 20.8225 33.3466C21.064 33.3413 21.2859 33.355 21.4756 33.3752C21.5217 33.3808 21.5664 33.3864 21.6088 33.392C21.7046 33.4043 21.7899 33.4199 21.8633 33.4337L21.8627 33.4344Z" fill="black"/>
</g>
<path d="M20.8713 33.366C20.7051 33.3 20.5413 33.2644 20.3702 33.2402C20.2003 33.2171 20.0275 33.2109 19.8544 33.2201C19.5088 33.2406 19.161 33.3287 18.8472 33.489C18.6893 33.567 18.541 33.6654 18.4053 33.776C18.2665 33.8848 18.146 34.0126 18.0355 34.1464C17.8182 34.4178 17.6561 34.7244 17.5545 35.0457C17.5378 35.0981 17.5672 35.1536 17.6196 35.1702C17.6639 35.1839 17.7108 35.1658 17.7339 35.127L17.7345 35.1264C17.9014 34.8526 18.0841 34.5979 18.2977 34.3793C18.5126 34.162 18.756 33.981 19.0262 33.8492C19.2963 33.7199 19.5876 33.6319 19.8919 33.5885C20.1931 33.5432 20.5122 33.535 20.8206 33.5567L20.8286 33.5572C20.8833 33.5614 20.9306 33.5204 20.9348 33.4657C20.9385 33.4215 20.9119 33.3822 20.8725 33.3672L20.8713 33.366Z" fill="#F48351"/>
<g style="mix-blend-mode:soft-light" opacity="0.3">
<path d="M50.2667 36.2006L50.3123 44.5474L37.0415 46.4055C37.0415 46.4055 28.9357 37.1178 32.8148 35.8487C32.8148 35.8487 35.4147 37.8395 37.5745 37.5617C39.7342 37.284 42.2482 37.8085 42.2482 37.8085C42.2482 37.8085 40.3034 32.8783 39.3746 29.3496C41.3638 30.1797 43.0095 31.7562 44.4433 32.4004C44.7902 32.5563 45.3349 32.6915 45.9822 32.9214C46.4915 33.1017 47.0638 33.3408 47.6544 33.692C48.5344 34.2155 49.454 34.9906 50.2667 36.2006Z" fill="black"/>
</g>
<g style="mix-blend-mode:soft-light" opacity="0.3">
<path d="M26.7364 11.9538C26.8689 12.232 26.962 12.5344 27.0095 12.8585C27.0445 12.8804 27.0815 12.9029 27.1166 12.926C27.3253 13.0615 27.5261 13.2027 27.7207 13.3515C28.2274 13.7387 28.6949 14.1674 29.1534 14.6193C28.7283 14.5942 28.1537 14.5893 27.485 14.6019C27.2833 14.6066 27.0722 14.6109 26.8543 14.6171C26.5433 14.6258 26.2186 14.6372 25.8853 14.6513C25.8003 14.6543 25.7152 14.6574 25.6302 14.6617C25.161 14.682 24.6769 14.705 24.1904 14.7318C23.4997 14.7683 22.8029 14.8111 22.1371 14.8534C21.9851 14.8637 21.8368 14.8726 21.6885 14.8828C21.6401 14.886 21.5911 14.8885 21.5427 14.8917C19.4368 15.0321 17.7638 15.1694 17.7638 15.1694C17.7638 15.1694 17.7254 17.017 17.692 19.3923C17.6877 19.7445 17.6823 20.1091 17.6783 20.4799C17.671 21.0669 17.6647 21.6719 17.6596 22.2781C17.655 22.7365 17.6522 23.1967 17.6499 23.6489C17.6442 24.7346 17.6441 25.7816 17.6532 26.6882C17.6664 28.0556 18.1283 29.4905 18.7463 30.8089C18.8174 30.9613 18.8903 31.1118 18.9657 31.2598C19.0788 31.4848 19.1955 31.7036 19.3141 31.9168C19.5212 32.2896 19.7349 32.6468 19.9465 32.9823C19.9954 33.0605 20.0456 33.1374 20.0932 33.2131C20.1326 33.2746 20.1732 33.3349 20.2125 33.394C20.2157 33.3983 20.2183 33.4032 20.2221 33.4081C20.2525 33.4537 20.2817 33.4992 20.3122 33.5435C20.5564 33.9083 20.7921 34.2391 21.0074 34.5304C21.046 34.5814 21.0828 34.6318 21.1189 34.6804C21.2334 34.8321 21.3391 34.9704 21.4377 35.0944C21.0872 35.6453 20.5392 36.1133 19.8496 36.3969C18.8018 36.8272 17.6886 36.7225 16.897 36.209C16.4952 35.9495 16.1758 35.5851 15.9892 35.1319C15.6927 34.4101 15.7944 33.6125 16.1952 32.9268C16.0638 32.8529 15.9348 32.7789 15.8058 32.7025C15.7488 32.6679 15.6918 32.6346 15.6354 32.5993C15.6009 32.5781 15.5652 32.5569 15.5314 32.535C15.3572 32.4281 15.1855 32.3175 15.0174 32.2044C14.9673 32.1703 14.9171 32.1363 14.8675 32.1016C14.7377 32.0121 14.6098 31.922 14.4855 31.8294C14.4334 31.791 14.3807 31.752 14.3292 31.713C14.2771 31.6734 14.225 31.635 14.1741 31.5953C14.1302 31.5612 14.0881 31.5276 14.0435 31.4941C14.0052 31.463 13.9675 31.4324 13.9298 31.4019C13.877 31.3592 13.8249 31.3171 13.7734 31.2743C13.7696 31.2719 13.7664 31.2688 13.7633 31.2658C13.7074 31.22 13.652 31.1723 13.5973 31.1253C13.5785 31.1094 13.5609 31.0935 13.5427 31.0782C13.4697 31.0147 13.3974 30.9505 13.3263 30.8863C13.315 30.8765 13.303 30.8662 13.2923 30.8557L12.1362 28.7289L12.0227 28.5206L11.3927 27.3632L11.1032 26.8295L10.8207 26.3087L10.0587 24.9079L9.41276 23.7203C9.47648 22.7388 9.75142 21.8927 10.0118 21.291C9.49619 21.2809 8.9938 21.0191 8.71874 20.8485C8.64543 20.803 8.67366 20.692 8.75862 20.6827C9.36938 20.6151 9.8827 20.4196 10.2656 20.2211C9.55741 19.9038 9.11595 19.0779 8.9085 18.5945C8.87061 18.5063 8.9782 18.4296 9.05174 18.4913C9.60748 18.9666 10.1991 19.2147 10.6183 19.3416C11.3714 15.6892 16.2851 11.0462 19.4364 9.96375C19.7652 9.84979 20.1024 9.76117 20.4443 9.69546C21.875 9.41684 23.3679 9.54658 24.5711 10.045C25.5444 10.4473 26.3298 11.0895 26.7408 11.9531L26.7364 11.9538Z" fill="black"/>
</g>
<path d="M53.047 40.8938C53.5675 40.4604 52.347 38.8761 52.347 38.8761C52.347 38.8761 53.3693 39.5782 53.6556 39.2711C53.7712 39.1471 53.6826 38.8578 53.4453 38.5022C52.8964 37.6796 51.552 36.5025 50.0944 36.1978C49.9723 36.1722 49.8485 36.1522 49.7253 36.139L49.1435 36.541L48.1859 37.2036C48.1859 37.2036 48.1386 37.3229 48.0668 37.5189C47.7746 38.3273 47.081 40.4418 47.6248 40.9496C48.0855 41.3803 48.4893 39.9884 48.9396 40.1211C49.3905 40.2544 50.0307 42.3954 50.7129 42.0641C51.2057 41.8242 50.5786 40.214 50.5786 40.214C50.5786 40.214 51.6538 42.2855 52.3285 41.9946C52.9729 41.7159 51.7163 39.6861 51.6071 39.5113C51.7091 39.6595 52.7413 41.1478 53.0476 40.892L53.047 40.8938Z" fill="#FFAE85"/>
<path d="M58.906 42.9912C58.9158 43.858 58.3511 45.0298 57.516 46.0931C56.565 47.3058 55.2648 48.38 54.0672 48.7137C53.7851 48.7922 53.4506 48.7659 53.0764 48.6545C51.1012 48.0633 48.0323 45.0618 45.9061 42.2687C45.2182 41.3661 44.6306 40.4876 44.2098 39.7173C43.8477 39.0554 43.5137 38.318 43.1304 37.562C37.4696 26.3915 37.5297 20.3789 37.5297 20.3789C38.9404 21.673 44.3306 27.6829 45.2968 28.9479C46.2625 30.2136 58.8348 37.3115 58.906 42.9912Z" fill="#FDEAEF"/>
<g style="mix-blend-mode:soft-light" opacity="0.5">
<path d="M58.0725 46.5423C58.3712 47.8112 56.8913 49.9586 58.9275 49.464C58.0426 50.1299 57.1465 50.7444 56.3438 51.3346C56.3278 51.346 56.3124 51.358 56.2958 51.3713C55.3421 50.5948 54.2414 49.6621 53.0788 48.6545C50.7153 46.6081 48.0916 44.2524 45.9085 42.2687C45.2206 41.3661 44.6331 40.4876 44.2123 39.7172C43.8501 39.0554 43.489 38.3308 43.1328 37.562C44.9798 37.4321 48.7478 38.627 52.3657 40.4904C54.9764 41.8352 57.405 43.7012 58.0738 46.5423L58.0725 46.5423Z" fill="black"/>
</g>
<path d="M56.1524 50.8499C55.0012 52.7536 47.1617 60.9823 36.7197 54.4231C31.6121 51.2145 24.7486 41.5533 20.4221 40.5601C16.0961 39.5675 9.22443 30.9908 8.18027 23.2215C7.22086 16.0856 12.6443 10.1194 15.4301 12.1219C15.8894 12.452 16.2772 12.998 16.5524 13.7922C16.6405 14.0455 16.7183 14.3245 16.7811 14.6304C16.8929 15.1617 16.9649 15.773 16.9928 16.4701C17.195 21.7113 13.3657 30.1726 22.4045 36.6195C25.1417 38.5724 39.225 38.1691 42.3796 38.5839C47.9968 39.3216 60.5094 43.6462 56.1524 50.8499Z" fill="#FDEAEF"/>
<path d="M31.2091 14.2551C27.0449 12.9273 20.59 13.8652 16.7827 14.6297C16.5319 14.6798 16.2935 14.7285 16.0687 14.777C14.5994 15.0891 13.6732 15.3401 13.6732 15.3401C14.1523 14.0434 14.7521 12.9792 15.4324 12.1218C18.1523 8.68862 22.1662 8.51809 24.9951 9.70766C26.8507 10.4887 28.5775 11.8218 29.739 12.8431C29.8032 12.9006 29.8642 12.955 29.9252 13.0094C30.7235 13.7278 31.2091 14.2551 31.2091 14.2551Z" fill="#FDEAEF"/>
<g style="mix-blend-mode:soft-light" opacity="0.5">
<path d="M60.4047 34.4174C60.6403 34.6954 60.866 34.9785 61.0825 35.2673C62.0991 36.6279 62.9048 38.1287 63.4096 39.7866C63.6096 40.4476 63.7222 41.0727 63.7554 41.6659C63.7804 42.109 63.764 42.534 63.7096 42.9416C63.3333 45.754 61.1684 47.7745 58.9268 49.462C58.0419 50.1279 57.1458 50.7424 56.3431 51.3325C56.3271 51.344 56.3117 51.356 56.2951 51.3692C54.2779 52.8927 47.8554 60.1071 44.3681 59.9664C43.4317 59.9294 42.2415 59.5588 40.9201 58.9136C42.8816 58.9342 44.905 58.5826 46.645 57.5196C52.2381 54.0991 50.4822 48.2576 54.649 46.564C58.57 44.9695 62.616 40.1015 60.4053 34.4168L60.4047 34.4174Z" fill="black"/>
</g>
<g style="mix-blend-mode:soft-light" opacity="0.5">
<path d="M34.1466 42.7236C33.9205 44.516 32.326 46.6464 30.1322 48.5543C30.0108 48.6603 29.8881 48.7652 29.7628 48.87C29.7115 48.7931 29.6601 48.7162 29.6093 48.6387C27.5715 45.5214 25.5334 44.7833 23.5332 44.5781C24.2092 44.3829 24.8795 44.1746 25.5148 43.9545C26.4894 43.6196 27.3867 43.2584 28.1204 42.8804C32.4256 40.655 34.4906 40.0022 34.1472 42.7242L34.1466 42.7236Z" fill="black"/>
</g>
<g style="mix-blend-mode:soft-light" opacity="0.7">
<path d="M11.4623 27.2883C11.3333 26.8212 11.2274 26.3569 11.1325 25.8863C11.0851 25.6516 11.0401 25.4156 10.9983 25.1802C10.9583 24.9441 10.9195 24.7068 10.8845 24.4695C10.7388 23.5207 10.6494 22.5631 10.6016 21.5993C10.5594 20.636 10.5705 19.6658 10.6586 18.6945C10.7467 17.7244 10.913 16.752 11.2019 15.8008C11.4941 14.8527 11.9106 13.9165 12.5336 13.0941C12.8413 12.6792 13.2031 12.3095 13.5891 11.9792C13.9776 11.6514 14.3921 11.3636 14.8239 11.1122C15.6875 10.6105 16.6083 10.2453 17.5466 9.98177C18.0162 9.85028 18.491 9.74482 18.9693 9.66476C19.2085 9.6241 19.449 9.59337 19.6896 9.56636C19.8098 9.55223 19.9308 9.54121 20.0512 9.53329C20.1734 9.52473 20.2919 9.51746 20.4179 9.51505C20.5185 9.51362 20.601 9.59381 20.6024 9.6944C20.6037 9.78009 20.5463 9.85294 20.4665 9.87332L20.4615 9.87463C20.013 9.99215 19.5597 10.1284 19.1164 10.2744C18.6726 10.421 18.2339 10.5788 17.8041 10.7513C16.9445 11.0964 16.1155 11.4994 15.3573 11.9883C14.6017 12.4785 13.9142 13.0534 13.3924 13.7464C13.2589 13.9179 13.1397 14.1021 13.0225 14.2882C12.9103 14.478 12.8012 14.6696 12.7053 14.8703C12.5067 15.2675 12.3431 15.6877 12.2032 16.1176C12.0621 16.5475 11.9479 16.9901 11.8537 17.4386C11.7594 17.8871 11.6833 18.3421 11.6264 18.8013C11.569 19.2598 11.5233 19.7225 11.4964 20.1874C11.467 20.6524 11.45 21.1184 11.4448 21.5861C11.4289 22.5222 11.467 23.4607 11.5263 24.4001C11.542 24.6347 11.5609 24.8698 11.5816 25.1042C11.6005 25.3393 11.6212 25.5738 11.645 25.8088C11.6939 26.2764 11.7465 26.7489 11.8127 27.2113L11.8127 27.215C11.8266 27.3142 11.7583 27.4058 11.6591 27.4196C11.568 27.4327 11.4827 27.3755 11.4592 27.2889L11.4623 27.2883Z" fill="black"/>
</g>
<g style="mix-blend-mode:overlay" opacity="0.7">
<path d="M14.2959 18.0817C14.4029 18.5714 14.48 19.0641 14.5473 19.5593C14.6096 20.0547 14.6651 20.552 14.697 21.0508C14.7707 22.0484 14.7843 23.0524 14.7303 24.0568C14.6762 25.0612 14.5507 26.066 14.3225 27.0566C14.292 27.18 14.2645 27.304 14.2315 27.4275L14.1312 27.7953C14.0642 28.0254 14.006 28.2566 13.9547 28.4896C13.8563 28.9562 13.7916 29.4297 13.7698 29.9045C13.7255 30.8535 13.844 31.8088 14.1468 32.7106C14.4502 33.6105 14.9168 34.4597 15.526 35.2026C15.6783 35.3886 15.8368 35.5695 16.0026 35.7442C16.1684 35.9188 16.3428 36.0859 16.5227 36.2473C16.8825 36.5701 17.2699 36.8646 17.6737 37.1371C17.8756 37.2734 18.0836 37.4008 18.2952 37.522C18.5075 37.6426 18.7215 37.7613 18.9417 37.8687C19.3814 38.0867 19.8343 38.2784 20.2976 38.4494C20.3388 38.465 20.3605 38.5106 20.3456 38.5525C20.3312 38.5912 20.2899 38.6123 20.2507 38.6023C19.7664 38.4793 19.2879 38.3252 18.8219 38.1368C18.3547 37.9509 17.9007 37.7288 17.463 37.4761C17.2445 37.3494 17.0289 37.2158 16.8195 37.0722C16.61 36.9286 16.4066 36.7762 16.2087 36.6169C15.8129 36.2971 15.4385 35.9478 15.1014 35.5626C14.7631 35.1786 14.4566 34.7631 14.192 34.3222C13.9249 33.8813 13.7021 33.4125 13.5288 32.9256C13.1784 31.953 13.0183 30.9082 13.0608 29.8754C13.0777 29.3591 13.1461 28.8452 13.2508 28.3419C13.3044 28.0902 13.3667 27.8409 13.4377 27.594L13.5346 27.2448C13.5665 27.1288 13.5934 27.0105 13.6228 26.8933C13.7328 26.4222 13.8273 25.9458 13.9 25.4641C13.9764 24.9835 14.0335 24.4977 14.0794 24.0108C14.2561 22.0613 14.251 20.0821 14.1373 18.1076L14.1373 18.1051C14.1348 18.061 14.1684 18.0227 14.2125 18.0202C14.2528 18.0177 14.2873 18.0452 14.2953 18.0836L14.2959 18.0817Z" fill="black"/>
</g>
<g style="mix-blend-mode:overlay" opacity="0.7">
<path d="M23.72 42.1503C24.1587 41.9913 24.6328 41.9256 25.1048 41.9251C25.578 41.9259 26.0492 41.9981 26.5049 42.1202C27.4164 42.3681 28.2598 42.8095 29.0158 43.3496C29.7719 43.8923 30.4474 44.5404 31.0167 45.2689C31.3013 45.6325 31.5608 46.017 31.7851 46.42C31.8424 46.5198 31.8929 46.624 31.9472 46.7257C31.9989 46.8287 32.047 46.9342 32.0938 47.0385C32.1407 47.144 32.1819 47.2515 32.2257 47.3577C32.2645 47.4665 32.3026 47.5746 32.3383 47.684C32.3617 47.7557 32.3224 47.8327 32.2501 47.8554C32.1895 47.8749 32.1264 47.8503 32.0934 47.7999L32.0915 47.798C31.6115 47.0521 31.0689 46.3667 30.4737 45.733C29.8784 45.1005 29.2305 44.521 28.5352 44.0141C27.8393 43.5092 27.0917 43.0776 26.2944 42.7815C25.4984 42.4841 24.6497 42.3315 23.779 42.4159C23.704 42.4226 23.6367 42.3682 23.6295 42.2926C23.6236 42.2293 23.6613 42.1716 23.7187 42.1516L23.72 42.1503Z" fill="black"/>
</g>
<g style="mix-blend-mode:overlay" opacity="0.7">
<path d="M41.8667 41.5394C43.2154 41.5277 44.5687 41.8377 45.8275 42.3558C47.0887 42.8764 48.2543 43.615 49.2928 44.4959C50.33 45.3792 51.2445 46.4127 51.9573 47.5795C52.3127 48.1626 52.6177 48.7799 52.8448 49.4282C52.8752 49.5078 52.8975 49.592 52.9235 49.6736C52.9483 49.7565 52.9755 49.8368 52.9978 49.9197L53.0591 50.1704L53.0894 50.2954L53.1123 50.423C53.1823 50.7592 53.2096 51.1054 53.2113 51.4476C53.2121 51.5463 53.1319 51.6275 53.0332 51.6283C52.9481 51.6289 52.8771 51.5709 52.8573 51.4917L52.8554 51.4849C52.5471 50.2422 51.9127 49.1259 51.1716 48.1005C50.4236 47.077 49.5497 46.1454 48.589 45.3169C47.6258 44.4909 46.5746 43.7643 45.4424 43.1854C44.3119 42.6021 43.104 42.1677 41.8313 41.8945L41.8301 41.8933C41.7323 41.8729 41.6707 41.7775 41.6917 41.6804C41.7097 41.5963 41.7834 41.5393 41.866 41.5388L41.8667 41.5394Z" fill="black"/>
</g>
<g style="mix-blend-mode:overlay" opacity="0.7">
<path d="M42.0508 25.8974C42.2121 26.4069 42.4023 26.9066 42.6013 27.4012C42.8008 27.8953 43.0114 28.3841 43.23 28.8673C43.6716 29.833 44.1428 30.7808 44.6669 31.6969C45.191 32.613 45.7631 33.4998 46.401 34.3416C46.72 34.7618 47.05 35.177 47.4034 35.5732C47.755 35.9725 48.1244 36.3573 48.5062 36.7419L48.5081 36.7437C48.561 36.7976 48.5604 36.8839 48.5071 36.9375C48.463 36.9816 48.3967 36.9881 48.3454 36.9603C47.3758 36.4269 46.5061 35.7089 45.7444 34.8986C44.979 34.0885 44.3233 33.1792 43.7608 32.2221C43.1982 31.2637 42.7342 30.2506 42.3845 29.1991C42.2082 28.6737 42.0639 28.138 41.955 27.5936C41.8996 27.3218 41.856 27.0466 41.8241 26.7707C41.791 26.4948 41.774 26.215 41.783 25.9323C41.7857 25.8565 41.8482 25.7972 41.9246 25.7992C41.9842 25.8009 42.0339 25.8405 42.0508 25.895L42.0514 25.898L42.0508 25.8974Z" fill="black"/>
</g>
<g style="mix-blend-mode:overlay" opacity="0.7">
<path d="M47.7085 30.9439C48.0454 31.4416 48.3939 31.9322 48.7479 32.4135C49.1019 32.896 49.4645 33.3697 49.8344 33.8358C50.573 34.7693 51.3496 35.6675 52.1605 36.5329L52.4669 36.8553C52.569 36.9631 52.6755 37.0653 52.7782 37.1725C52.9825 37.387 53.2008 37.5882 53.4094 37.7983C53.8387 38.2071 54.2729 38.6108 54.7213 39.0013C55.6149 39.7867 56.5587 40.5142 57.5272 41.2401C57.5649 41.2682 57.5724 41.3209 57.545 41.3579C57.5219 41.3893 57.4804 41.3992 57.446 41.3854C56.8838 41.1511 56.3322 40.8844 55.8031 40.5771C55.5352 40.4281 55.2776 40.2647 55.0188 40.1001C54.8879 40.0206 54.7643 39.9298 54.6376 39.8446C54.5121 39.757 54.3824 39.6737 54.2606 39.581L53.8916 39.3068C53.7673 39.2167 53.651 39.1171 53.5304 39.0219C53.288 38.8341 53.0585 38.6305 52.8252 38.4307C52.3673 38.0224 51.9247 37.597 51.5035 37.1521C51.3976 37.0418 51.2966 36.9265 51.192 36.8137C51.0879 36.7015 50.9875 36.5856 50.8865 36.4702C50.6851 36.239 50.4923 36.0013 50.3002 35.7631C49.9207 35.2828 49.5609 34.7861 49.2264 34.2735C48.8918 33.761 48.5782 33.2357 48.2966 32.6938C48.1562 32.4225 48.0218 32.1474 47.8968 31.8691C47.7717 31.5895 47.6566 31.3073 47.5587 31.015C47.5438 30.9711 47.5673 30.9242 47.6112 30.9093C47.6476 30.897 47.6864 30.9113 47.7073 30.9415L47.7092 30.9433L47.7085 30.9439Z" fill="black"/>
</g>
<g style="mix-blend-mode:soft-light" opacity="0.5">
<path d="M43.8557 24.9541C43.7092 27.6298 44.2782 29.6575 42.9915 29.4894C40.02 29.103 39.4731 21.8024 39.3914 17.968C40.3245 20.1768 40.1037 22.0884 41.5496 23.8037C41.8768 24.1916 42.7003 24.5439 43.8563 24.9535L43.8557 24.9541Z" fill="black"/>
</g>
<g style="mix-blend-mode:overlay" opacity="0.7">
<path d="M31.2083 14.2546C27.044 12.9269 20.5891 13.8648 16.7818 14.6292C16.8937 15.1605 16.9657 15.7718 16.9936 16.4689C17.1958 21.7101 13.3665 30.1714 22.4052 36.6183C25.1425 38.5712 39.2257 38.1679 42.3803 38.5827C42.3803 38.5827 31.6741 39.9809 26.1183 38.448C20.5631 36.9158 16.979 34.0613 15.8153 29.7815C14.7684 25.9334 16.5109 17.9066 16.0679 14.7778C16.0175 14.4252 15.9407 14.135 15.8284 13.9205C15.8284 13.9205 16.0941 13.8714 16.5538 13.7928C18.9322 13.3846 26.5739 11.8746 29.2326 12.7139C29.4784 12.7911 29.709 12.894 29.925 13.0108C30.7232 13.7293 31.2089 14.2565 31.2089 14.2565L31.2083 14.2546Z" fill="black"/>
</g>
<path d="M46.2366 48.068C46.024 48.7113 44.1027 48.1578 44.1027 48.1578C44.1027 48.1578 45.1311 48.8512 44.9501 49.2302C44.8771 49.3833 44.5757 49.4075 44.1583 49.3165C43.1921 49.1073 41.6043 48.2889 40.7855 47.0447C40.7163 46.9408 40.6527 46.8323 40.5959 46.7232L40.7556 46.0347L41.0203 44.9007C41.0203 44.9007 41.1141 44.813 41.2698 44.6742C41.9145 44.1055 43.6264 42.6845 44.2992 43.0041C44.8688 43.2749 43.7219 44.1612 44.0116 44.531C44.3006 44.9014 46.5275 44.7121 46.4699 45.4668C46.4273 46.0133 44.7003 46.0211 44.7003 46.0211C44.7003 46.0211 47.0221 46.2608 46.9989 46.9952C46.9766 47.6973 44.6261 47.2729 44.4244 47.2347C44.5995 47.2751 46.3635 47.6892 46.2378 48.0679L46.2366 48.068Z" fill="#FFAE85"/>
<path d="M41.6643 44.4705L41.0279 47.0264C41.0279 47.0264 34.3115 45.3708 32.2119 43.7219C30.1124 42.073 28.4091 38.0119 28.4708 36.5802C28.5942 33.7192 32.1456 33.0832 32.1456 33.0832C32.1456 33.0832 34.7861 39.5114 35.8568 40.4346C36.9276 41.3579 41.6643 44.4705 41.6643 44.4705Z" fill="#FFAE85"/>
<path fill-rule="evenodd" clip-rule="evenodd" d="M46.2978 32.8651C48.7292 35.2285 48.8278 39.0707 46.5181 41.4468C44.2084 43.8229 40.365 43.8332 37.9336 41.4698C35.5023 39.1064 35.4036 35.2642 37.7133 32.8881C40.023 30.512 43.8665 30.5017 46.2978 32.8651ZM45.2861 40.2492C46.9495 38.5381 46.8785 35.7711 45.1275 34.0691C43.3765 32.3671 40.6087 32.3745 38.9453 34.0856C37.282 35.7968 37.353 38.5638 39.104 40.2658C40.8549 41.9678 43.6228 41.9604 45.2861 40.2492Z" fill="#FFA2A2"/>
<path d="M43.9627 35.2673C45.0365 36.3111 45.0801 38.0079 44.06 39.0573C43.04 40.1067 41.3426 40.1112 40.2688 39.0674C39.195 38.0237 39.1515 36.3268 40.1715 35.2775C41.1916 34.2281 42.889 34.2235 43.9627 35.2673Z" fill="#F72A2A"/>
<path fill-rule="evenodd" clip-rule="evenodd" d="M45.1331 34.0633C46.8873 35.7685 46.9584 38.5405 45.292 40.2548C43.6256 41.9692 40.8527 41.9766 39.0985 40.2714C37.3443 38.5663 37.2731 35.7942 38.9395 34.0799C40.6059 32.3656 43.3789 32.3582 45.1331 34.0633ZM44.06 39.0573C45.0801 38.0079 45.0365 36.3111 43.9627 35.2673C42.889 34.2235 41.1916 34.2281 40.1715 35.2775C39.1515 36.3268 39.195 38.0237 40.2688 39.0674C41.3426 40.1112 43.04 40.1067 44.06 39.0573Z" fill="white"/>
<path fill-rule="evenodd" clip-rule="evenodd" d="M31.6872 21.8855C31.6998 21.8875 31.7013 21.8893 31.7345 21.9429C31.8291 22.0957 31.9531 22.1875 32.1322 22.2376C32.1625 22.246 32.2087 22.2571 32.2348 22.2622C32.4759 22.3088 32.567 22.3378 32.6501 22.394C32.6886 22.4201 32.7455 22.4779 32.7694 22.5153C32.8629 22.6617 32.8668 22.8458 32.7796 23.0064C32.6901 23.1713 32.5281 23.2737 32.3428 23.2827C32.2416 23.2875 32.142 23.2584 32.0585 23.1996C31.8857 23.0776 31.7604 22.7701 31.6958 22.3092C31.6731 22.1471 31.6548 21.9149 31.6636 21.8999C31.6711 21.8871 31.6764 21.8838 31.6872 21.8855ZM31.8647 22.8005C31.8335 22.7065 31.8307 22.6468 31.8557 22.6064C31.8747 22.5756 31.9273 22.5575 31.9595 22.5705C31.9737 22.5763 31.9946 22.5976 32.0105 22.6225C32.0299 22.6531 32.0524 22.6739 32.0694 22.6772C32.0885 22.6809 32.1194 22.6738 32.1409 22.6608C32.1636 22.6471 32.1848 22.6265 32.2412 22.5631C32.2895 22.5089 32.3076 22.4939 32.3394 22.4818C32.3674 22.4712 32.4041 22.4721 32.4446 22.4845C32.5064 22.5035 32.5321 22.5202 32.5771 22.5709L32.5933 22.5891L32.6203 22.5892C32.6883 22.5894 32.7535 22.6307 32.7732 22.6862C32.7981 22.7561 32.7906 22.8674 32.7559 22.9462C32.7322 22.9998 32.7158 23.0239 32.6712 23.0704C32.626 23.1175 32.5998 23.1376 32.5404 23.1708C32.4246 23.2355 32.2905 23.2486 32.1799 23.2061C32.0493 23.1559 31.9333 23.0066 31.8647 22.8005Z" fill="#77B3E3"/>
<path d="M31.8557 22.6064C31.8307 22.6468 31.8335 22.7065 31.8647 22.8005C31.9333 23.0066 32.0493 23.1559 32.1799 23.2061C32.2905 23.2486 32.4246 23.2355 32.5404 23.1708C32.5998 23.1376 32.626 23.1175 32.6712 23.0704C32.7158 23.0239 32.7322 22.9998 32.7559 22.9462C32.7906 22.8674 32.7981 22.7561 32.7732 22.6862C32.7535 22.6307 32.6883 22.5894 32.6203 22.5892L32.5933 22.5891L32.5771 22.5709C32.5321 22.5202 32.5064 22.5035 32.4446 22.4845C32.4041 22.4721 32.3674 22.4712 32.3394 22.4818C32.3076 22.4939 32.2895 22.5089 32.2412 22.5631C32.1848 22.6265 32.1636 22.6471 32.1409 22.6608C32.1194 22.6738 32.0885 22.6809 32.0694 22.6772C32.0524 22.6739 32.0299 22.6531 32.0105 22.6225C31.9946 22.5976 31.9737 22.5763 31.9595 22.5705C31.9273 22.5575 31.8747 22.5756 31.8557 22.6064Z" fill="#77B3E3"/>
<path fill-rule="evenodd" clip-rule="evenodd" d="M26.8083 26.905C26.8209 26.907 26.8224 26.9088 26.8556 26.9624C26.9502 27.1152 27.0742 27.207 27.2533 27.2571C27.2836 27.2656 27.3298 27.2766 27.3559 27.2817C27.597 27.3284 27.688 27.3573 27.7712 27.4135C27.8097 27.4396 27.8666 27.4974 27.8904 27.5348C27.984 27.6812 27.9878 27.8653 27.9007 28.0259C27.8112 28.1908 27.6492 28.2933 27.4639 28.3022C27.3627 28.3071 27.2631 28.278 27.1796 28.2191C27.0068 28.0971 26.8815 27.7897 26.8169 27.3287C26.7942 27.1666 26.7759 26.9344 26.7846 26.9195C26.7922 26.9066 26.7975 26.9033 26.8083 26.905ZM26.9858 27.82C26.9546 27.726 26.9518 27.6663 26.9768 27.6259C26.9958 27.5951 27.0484 27.577 27.0806 27.5901C27.0948 27.5958 27.1157 27.6171 27.1316 27.6421C27.151 27.6726 27.1735 27.6935 27.1905 27.6968C27.2096 27.7004 27.2405 27.6933 27.262 27.6803C27.2847 27.6667 27.3059 27.6461 27.3623 27.5827C27.4106 27.5284 27.4287 27.5134 27.4605 27.5013C27.4885 27.4907 27.5252 27.4917 27.5656 27.5041C27.6275 27.523 27.6532 27.5398 27.6982 27.5904L27.7144 27.6086L27.7414 27.6087C27.8094 27.6089 27.8746 27.6503 27.8943 27.7058C27.9192 27.7756 27.9117 27.8869 27.877 27.9657C27.8533 28.0193 27.8369 28.0434 27.7923 28.0899C27.7471 28.137 27.7209 28.1572 27.6615 28.1904C27.5457 28.255 27.4116 28.2682 27.301 28.2256C27.1704 28.1754 27.0544 28.0261 26.9858 27.82Z" fill="#77B3E3"/>
<path d="M26.9768 27.6259C26.9518 27.6663 26.9546 27.726 26.9858 27.82C27.0544 28.0261 27.1704 28.1754 27.301 28.2256C27.4116 28.2682 27.5457 28.255 27.6615 28.1904C27.7209 28.1572 27.7471 28.137 27.7923 28.0899C27.8369 28.0434 27.8533 28.0193 27.877 27.9657C27.9117 27.8869 27.9192 27.7756 27.8943 27.7058C27.8746 27.6503 27.8094 27.6089 27.7414 27.6087L27.7144 27.6086L27.6982 27.5904C27.6532 27.5398 27.6275 27.523 27.5656 27.5041C27.5252 27.4917 27.4885 27.4907 27.4605 27.5013C27.4287 27.5134 27.4106 27.5284 27.3623 27.5827C27.3059 27.6461 27.2847 27.6667 27.262 27.6803C27.2405 27.6933 27.2096 27.7004 27.1905 27.6968C27.1735 27.6935 27.151 27.6726 27.1316 27.6421C27.1157 27.6171 27.0948 27.5958 27.0806 27.5901C27.0484 27.577 26.9958 27.5951 26.9768 27.6259Z" fill="#77B3E3"/>
<path d="M45.3866 24.2626L44.2238 28.6149L42.9785 27.1235L41.9734 29.4405L42.5475 24.527L43.9005 26.4131L45.3866 24.2626Z" fill="#F27373"/>
<path d="M45.4541 30.4249L51.3808 28.3494L50.546 30.731L53.9815 30.0175L47.8291 33.1121L49.0457 30.3256L45.4541 30.4249Z" fill="#F27373"/>
</g>
<defs>
<clipPath id="clip0_18814_39723">
<rect width="56" height="56" rx="28" fill="white"/>
</clipPath>
</defs>
</svg>
