<svg width="56" height="56" viewBox="0 0 56 56" fill="none" xmlns="http://www.w3.org/2000/svg">
<g clip-path="url(#clip0_18913_30300)">
<path d="M25.2214 46.2715C25.8601 45.1439 26.4787 44.0497 27.0719 43.0011H27.0732C20.7738 39.6383 16.4891 34.7649 14.8845 27.805C13.2332 20.6429 17.1464 13.3093 23.9749 10.7782C28.9022 8.95149 33.2778 10.2773 36.9011 13.8544C41.3608 18.2577 42.5953 23.6521 40.7329 29.6049C38.9635 35.2602 35.3059 39.3464 30.261 42.2793C29.8602 42.5136 29.422 42.6837 28.929 42.9167L30.8261 46.2715H25.2214Z" fill="#F27373"/>
<path fill-rule="evenodd" clip-rule="evenodd" d="M26.9452 47.1854C26.987 46.8631 27.0232 46.5844 27.0232 46.2718L28.7074 46.2715C28.7075 46.702 28.6558 47.096 28.614 47.4139C28.6078 47.4616 28.6017 47.5075 28.5961 47.5517C28.5505 47.9108 28.5308 48.1628 28.5635 48.4046C28.6194 48.8181 28.8596 49.4138 30.1046 50.4098C31.6158 51.619 32.2385 53.2688 32.4481 54.9679C32.6545 56.6424 32.4695 58.4518 32.3 60.0619L30.625 59.8856C30.7981 58.2414 30.9555 56.6253 30.7765 55.174C30.6006 53.7473 30.11 52.5711 29.0524 51.7249C27.6492 50.6023 27.0331 49.6564 26.8944 48.63C26.8299 48.1518 26.8784 47.7091 26.9253 47.3396C26.932 47.2869 26.9387 47.2356 26.9452 47.1854Z" fill="#F8A9A9"/>
</g>
<defs>
<clipPath id="clip0_18913_30300">
<rect width="56" height="56" rx="28" fill="white"/>
</clipPath>
</defs>
</svg>
