<svg width="56" height="56" viewBox="0 0 56 56" fill="none" xmlns="http://www.w3.org/2000/svg">
<path d="M19.9496 38.5557V39.4402C19.9496 39.7499 19.6986 40.0011 19.3889 40.0011H18.0531C17.7434 40.0011 17.4922 39.7499 17.4922 39.4402V38.5557H19.9494H19.9496Z" fill="#FCE9E9"/>
<g style="mix-blend-mode:multiply" opacity="0.2">
<path d="M19.9494 38.5557H17.4922V38.835H19.9494V38.5557Z" fill="#FCE9E9"/>
</g>
<path d="M38.3813 38.5557V39.4402C38.3813 39.7499 38.1303 40.0011 37.8206 40.0011H36.4847C36.175 40.0011 35.9238 39.7499 35.9238 39.4402V38.5557H38.3811H38.3813Z" fill="#FCE9E9"/>
<g style="mix-blend-mode:multiply" opacity="0.2">
<path d="M38.3811 38.5557H35.9238V38.835H38.3811V38.5557Z" fill="#FCE9E9"/>
</g>
<path d="M44.761 30.4196V36.1853C44.761 36.3011 44.7526 36.4151 44.7364 36.5265C44.5713 37.6731 43.5847 38.5543 42.392 38.5543H13.0819C13.0655 38.5543 13.0493 38.5541 13.0332 38.5537C11.8626 38.5303 10.9004 37.6575 10.7375 36.5267C10.7213 36.4153 10.7129 36.3013 10.7129 36.1855V30.4198C10.7129 29.7688 10.9755 29.1796 11.4 28.7512C11.8293 28.3185 12.4243 28.0508 13.0819 28.0508H18.7186V26.5957H35.923V28.0508H42.3922C43.0589 28.0508 43.661 28.3259 44.0913 28.7688C44.5058 29.1957 44.7612 29.7776 44.7612 30.4198L44.761 30.4196Z" fill="#FCE9E9"/>
<g style="mix-blend-mode:multiply" opacity="0.3">
<path d="M35.9231 26.5957V27.2391C33.5054 27.4917 30.8758 27.6883 28.2141 27.7532C24.804 27.8363 21.5318 27.6131 18.7188 27.2882V26.5957H35.9231Z" fill="#CCCCCC"/>
</g>
<g style="mix-blend-mode:multiply" opacity="0.2">
<path d="M44.7605 34.367V36.185C44.7605 36.3009 44.7521 36.4149 44.7359 36.5263C44.5708 37.6729 43.5842 38.554 42.3915 38.554H13.0814C13.065 38.554 13.0488 38.5538 13.0327 38.5534C12.2783 38.2381 11.722 37.5437 11.6016 36.7084C12.081 31.985 19.5087 28.2324 28.6013 28.2324C36.1266 28.2324 42.5115 30.8029 44.7607 34.367H44.7605Z" fill="#FCE9E9"/>
</g>
<path d="M40.4023 28.4267C40.7408 28.4016 41.0791 28.3868 41.4175 28.3712L41.9251 28.3526L42.0521 28.3483C42.0944 28.3473 42.1392 28.3479 42.1827 28.3477C42.2264 28.3487 42.2701 28.3516 42.3139 28.3536C42.3574 28.3576 42.4011 28.362 42.4449 28.3668C42.7933 28.4106 43.1336 28.5354 43.4301 28.7296C43.5786 28.8265 43.7154 28.9419 43.8378 29.0707C43.9586 29.2007 44.0667 29.3435 44.1549 29.498C44.2428 29.6526 44.3145 29.8163 44.3658 29.9858C44.4167 30.1554 44.4504 30.3293 44.4674 30.5038C44.4766 30.5907 44.4798 30.6795 44.4828 30.7648L44.4894 31.0184L44.4954 31.272L44.4996 31.5258C44.5117 32.2023 44.5159 32.8792 44.4976 33.5581C44.4213 32.8846 44.3678 32.2091 44.3222 31.5333L44.3047 31.2799L44.2889 31.0264L44.2739 30.7728C44.2685 30.6891 44.2637 30.6088 44.253 30.5278C44.2138 30.2045 44.119 29.8898 43.9576 29.6116C43.7983 29.3329 43.5752 29.0907 43.3099 28.9084C43.1775 28.8167 43.0343 28.7402 42.8846 28.6785C42.7346 28.6176 42.578 28.5713 42.4179 28.5417L42.2971 28.5232C42.2566 28.5194 42.216 28.5142 42.1753 28.5112C42.1342 28.5094 42.0942 28.5064 42.0521 28.5052L41.9251 28.5008L41.4175 28.4822C41.0791 28.4667 40.7408 28.4519 40.4023 28.4267Z" fill="#F07C7C"/>
<path d="M15.1702 28.4268C14.8317 28.452 14.4935 28.4667 14.155 28.4823L13.6474 28.5009L13.5204 28.5053C13.4783 28.5065 13.4384 28.5093 13.3972 28.5113C13.3565 28.5143 13.316 28.5193 13.2754 28.5233L13.1546 28.5418C12.9943 28.5714 12.8379 28.6177 12.688 28.6786C12.5384 28.7403 12.3952 28.8168 12.2627 28.9084C11.9973 29.0905 11.7742 29.333 11.6149 29.6117C11.4536 29.8897 11.3587 30.2046 11.3196 30.5278C11.3088 30.6091 11.304 30.6894 11.2986 30.7728L11.2836 31.0264L11.2679 31.28L11.2503 31.5334C11.2048 32.2093 11.151 32.8846 11.075 33.5582C11.0566 32.8795 11.0608 32.2023 11.073 31.5258L11.0772 31.272L11.0832 31.0184L11.0897 30.7649C11.0929 30.6796 11.0959 30.5907 11.1051 30.5039C11.1223 30.3294 11.156 30.1554 11.2068 29.9859C11.2581 29.8166 11.3298 29.6526 11.4176 29.4981C11.5059 29.3435 11.6139 29.2008 11.7347 29.0708C11.8571 28.9418 11.9939 28.8266 12.1425 28.7297C12.4392 28.5354 12.7792 28.4106 13.1277 28.3669C13.1714 28.3621 13.2149 28.3577 13.2587 28.3537C13.3024 28.3517 13.3461 28.3487 13.3899 28.3477C13.4334 28.3477 13.4781 28.3473 13.5204 28.3483L13.6474 28.3527L14.155 28.3713C14.4935 28.3869 14.8317 28.4016 15.1702 28.4268Z" fill="#E3E1E1"/>
<path d="M44.7373 36.5277C44.5721 37.6743 43.5855 38.5555 42.3928 38.5555H13.0827C11.8902 38.5555 10.9034 37.6743 10.7383 36.5277C11.2177 31.8043 18.6454 28.0518 27.738 28.0518C36.8306 28.0518 44.258 31.8043 44.7373 36.5277Z" fill="#FFB0B0"/>
<path d="M44.7412 36.5258C44.576 37.6723 43.5894 38.5535 42.3967 38.5535H13.0866C11.8941 38.5535 10.9073 37.6723 10.7422 36.5258C11.2216 31.8024 18.6493 28.0498 27.7419 28.0498C36.8345 28.0498 44.2619 31.8024 44.7412 36.5258Z" fill="#FFB0B0"/>
<g style="mix-blend-mode:screen" opacity="0.2">
<path d="M11.1745 36.867C11.6539 32.1436 19.0816 28.3911 28.1742 28.3911C33.9481 28.3911 39.0505 29.9044 42.1288 32.2185C39.1102 29.7129 33.7952 28.0498 27.7419 28.0498C18.6493 28.0498 11.2216 31.8024 10.7422 36.5258C10.8444 37.2352 11.2614 37.8427 11.8468 38.2031C11.4926 37.8501 11.2492 37.386 11.1745 36.867Z" fill="#FFB0B0"/>
</g>
<g style="mix-blend-mode:multiply" opacity="0.2">
<path d="M42.5651 32.6016C43.4197 33.5914 43.9425 34.6774 44.0585 35.8202C43.8934 36.9667 42.9067 37.8479 41.7141 37.8479H12.404C11.9135 37.8479 11.4581 37.6986 11.0801 37.4434C11.4992 38.1099 12.241 38.5532 13.0865 38.5532H42.3966C43.5893 38.5532 44.5759 37.672 44.741 36.5255C44.5968 35.1043 43.8233 33.7711 42.5649 32.6016H42.5651Z" fill="#FFB0B0"/>
</g>
<g style="mix-blend-mode:screen" opacity="0.3">
<path d="M24.2584 32.8102V33.7032C24.2584 34.6273 23.5092 35.3767 22.5848 35.3767H18.3512C18.3205 35.3767 18.2899 35.3757 18.2598 35.3741H18.2596C18.0659 35.3637 17.8814 35.3204 17.7109 35.2497C17.3043 35.0814 16.9785 34.7569 16.8079 34.3514C16.7243 34.1521 16.6777 33.933 16.6777 33.7032V32.8102C16.6777 31.9075 17.3928 31.1715 18.2877 31.1381C18.3089 31.1371 18.3301 31.1367 18.3514 31.1367H22.585C22.8163 31.1367 23.0365 31.1836 23.2368 31.2685C23.8372 31.5227 24.2584 32.1171 24.2584 32.8102Z" fill="#FCE9E9"/>
</g>
<g style="mix-blend-mode:multiply" opacity="0.2">
<path d="M24.4166 32.9245V33.8175C24.4166 34.7416 23.6674 35.491 22.743 35.491H18.5094C18.4787 35.491 18.4481 35.49 18.418 35.4884H18.4178C18.2241 35.478 18.0396 35.4347 17.8691 35.364C17.4625 35.1956 17.1367 34.8712 16.9661 34.4656C16.8825 34.2663 16.8359 34.0473 16.8359 33.8175V32.9245C16.8359 32.0217 17.551 31.2857 18.446 31.2524C18.4671 31.2514 18.4883 31.251 18.5096 31.251H22.7432C22.9745 31.251 23.1947 31.2979 23.3952 31.3828C23.9956 31.637 24.4168 32.2314 24.4168 32.9245H24.4166Z" fill="#FFB0B0"/>
</g>
<path d="M24.3482 32.8552V33.7481C24.3482 34.6722 23.599 35.4216 22.6747 35.4216H18.4411C18.4103 35.4216 18.3798 35.4206 18.3496 35.419H18.3494C18.1557 35.4086 17.9712 35.3653 17.8007 35.2946C17.3942 35.1263 17.0683 34.8018 16.8978 34.3963C16.8141 34.197 16.7676 33.9779 16.7676 33.7481V32.8552C16.7676 31.9524 17.4826 31.2164 18.3776 31.183C18.3988 31.182 18.4199 31.1816 18.4413 31.1816H22.6749C22.9061 31.1816 23.1264 31.2286 23.3266 31.3134C23.9271 31.5676 24.3482 32.1621 24.3482 32.8552Z" fill="#FCE9E9"/>
<g style="mix-blend-mode:screen" opacity="0.3">
<path d="M20.1307 32.2374V32.5255C20.1307 32.8239 19.8745 33.0657 19.5586 33.0657H18.1113C18.1008 33.0657 18.0904 33.0655 18.08 33.0649C18.0137 33.0615 17.9508 33.0475 17.8923 33.0247C17.7533 32.9704 17.6419 32.8656 17.5836 32.7348C17.555 32.6705 17.5391 32.5998 17.5391 32.5255V32.2374C17.5391 31.9461 17.7835 31.7084 18.0894 31.6977C18.0966 31.6975 18.1038 31.6973 18.1111 31.6973H19.5584C19.6375 31.6973 19.7128 31.7124 19.7813 31.7398C19.9865 31.8219 20.1305 32.0138 20.1305 32.2374H20.1307Z" fill="#FCE9E9"/>
</g>
<g style="mix-blend-mode:screen" opacity="0.3">
<path d="M19.4597 31.1816L17.8033 35.2946C17.3968 35.1263 17.0709 34.8018 16.9004 34.3963L18.3802 31.183C18.4014 31.182 18.4225 31.1816 18.4439 31.1816H19.4599H19.4597Z" fill="#FCE9E9"/>
</g>
<g style="mix-blend-mode:screen" opacity="0.3">
<path d="M23.3273 31.3132L21.673 35.4214H20.541L22.2005 31.1816H22.6754C22.9066 31.1816 23.1269 31.2286 23.3271 31.3134L23.3273 31.3132Z" fill="#FCE9E9"/>
</g>
<g style="mix-blend-mode:screen" opacity="0.3">
<path d="M21.4862 31.1818L19.7915 35.4216H18.4411C18.4103 35.4216 18.3798 35.4206 18.3496 35.419L20.0255 31.1816H21.486L21.4862 31.1818Z" fill="#FCE9E9"/>
</g>
<path d="M16.9004 32.6658C16.9078 32.4973 16.9535 32.3313 17.0182 32.1742C17.0845 32.0174 17.1751 31.8691 17.289 31.7397C17.3465 31.6756 17.4088 31.6155 17.4763 31.562C17.5448 31.5094 17.6164 31.4615 17.6931 31.4226C17.8459 31.3443 18.0124 31.2962 18.1799 31.2832C18.0228 31.3427 17.8734 31.4112 17.7378 31.5001C17.67 31.5442 17.6061 31.5933 17.545 31.6452C17.4845 31.6981 17.4275 31.7548 17.3742 31.8149C17.2678 31.9356 17.1767 32.0699 17.0985 32.2127C17.0595 32.2842 17.0228 32.3577 16.9904 32.4334C16.9567 32.5086 16.9273 32.5861 16.9004 32.6656V32.6658Z" fill="#E3E1E1"/>
<path d="M22.9824 35.2666C23.0571 35.2278 23.1292 35.1873 23.1987 35.1428C23.2688 35.0994 23.3359 35.0521 23.4008 35.003C23.5303 34.9043 23.6496 34.7941 23.753 34.6709C23.8045 34.6092 23.852 34.5445 23.8954 34.4768C23.9377 34.4085 23.9766 34.338 24.0102 34.2644C24.0779 34.1172 24.123 33.9593 24.1585 33.7949C24.1707 33.9625 24.1479 34.1344 24.0934 34.2971C24.0663 34.3786 24.0295 34.4569 23.988 34.5323C23.9451 34.6072 23.8952 34.6777 23.8402 34.744C23.7294 34.876 23.5962 34.9876 23.4511 35.0767C23.3053 35.1643 23.1482 35.2342 22.9826 35.2666H22.9824Z" fill="#E3E1E1"/>
<g style="mix-blend-mode:multiply" opacity="0.2">
<path d="M29.383 33.8151C29.6282 33.223 29.3471 32.5443 28.755 32.299C28.163 32.0538 27.4842 32.335 27.239 32.927C26.9937 33.5191 27.2749 34.1978 27.8669 34.4431C28.459 34.6883 29.1377 34.4072 29.383 33.8151Z" fill="#FFB0B0"/>
</g>
<path d="M29.0396 34.1222C29.4927 33.6691 29.4927 32.9344 29.0396 32.4813C28.5864 32.0281 27.8517 32.0281 27.3986 32.4813C26.9455 32.9344 26.9455 33.6691 27.3986 34.1222C27.8517 34.5754 28.5864 34.5754 29.0396 34.1222Z" fill="#F28484"/>
<g style="mix-blend-mode:multiply" opacity="0.2">
<path d="M28.8711 33.9528C29.2307 33.5932 29.2307 33.0103 28.8711 32.6507C28.5115 32.2911 27.9286 32.2911 27.569 32.6507C27.2095 33.0103 27.2095 33.5932 27.569 33.9528C27.9286 34.3124 28.5115 34.3124 28.8711 33.9528Z" fill="#F28484"/>
</g>
<g style="mix-blend-mode:multiply" opacity="0.2">
<path d="M28.7178 33.8014C28.9938 33.5255 28.9938 33.078 28.7178 32.8021C28.4418 32.5261 27.9944 32.5261 27.7184 32.8021C27.4425 33.078 27.4425 33.5255 27.7184 33.8014C27.9944 34.0774 28.4418 34.0774 28.7178 33.8014Z" fill="#F28484"/>
</g>
<path d="M27.1537 33.4321C27.1311 33.3307 27.1305 33.2251 27.1425 33.121C27.1547 33.017 27.1826 32.9142 27.2258 32.8175C27.2691 32.7209 27.3296 32.6316 27.4041 32.5568C27.4782 32.4815 27.5668 32.4218 27.6623 32.3818C27.5812 32.4463 27.5065 32.5146 27.4436 32.5923C27.3805 32.6698 27.329 32.7552 27.2881 32.8457C27.2667 32.8906 27.2497 32.9375 27.2344 32.9851C27.2184 33.0324 27.2064 33.0811 27.195 33.13C27.1739 33.2285 27.1597 33.3291 27.1539 33.4321H27.1537Z" fill="#BABAC4"/>
<path d="M29.3154 33.3604C29.3194 33.4642 29.3013 33.5684 29.2707 33.6685C29.24 33.7687 29.1942 33.8649 29.1343 33.9522C29.0744 34.0395 28.999 34.1165 28.9123 34.1768C28.826 34.2377 28.728 34.2807 28.627 34.3026C28.7182 34.2537 28.8039 34.1998 28.8797 34.1347C28.9556 34.0698 29.0217 33.9949 29.0782 33.9133C29.1074 33.8729 29.1323 33.8298 29.1561 33.7859C29.1803 33.7421 29.2008 33.6964 29.2208 33.6503C29.2593 33.5572 29.2913 33.4608 29.3154 33.3604Z" fill="#696976"/>
<g style="mix-blend-mode:screen" opacity="0.2">
<path d="M27.9107 33.3771C28.1322 33.3771 28.3117 33.1976 28.3117 32.9762C28.3117 32.7547 28.1322 32.5752 27.9107 32.5752C27.6893 32.5752 27.5098 32.7547 27.5098 32.9762C27.5098 33.1976 27.6893 33.3771 27.9107 33.3771Z" fill="#F28484"/>
</g>
<g style="mix-blend-mode:multiply" opacity="0.2">
<path d="M32.2681 34.1906C32.7212 33.7375 32.7212 33.0028 32.2681 32.5496C31.8149 32.0965 31.0803 32.0965 30.6271 32.5496C30.174 33.0028 30.174 33.7375 30.6271 34.1906C31.0803 34.6437 31.8149 34.6437 32.2681 34.1906Z" fill="#FFB0B0"/>
</g>
<path d="M32.4607 33.5678C32.6079 32.9441 32.2216 32.3192 31.5979 32.172C30.9742 32.0248 30.3493 32.4111 30.2021 33.0348C30.0549 33.6585 30.4412 34.2834 31.0649 34.4306C31.6886 34.5778 32.3135 34.1915 32.4607 33.5678Z" fill="#F28484"/>
<g style="mix-blend-mode:multiply" opacity="0.2">
<path d="M32.2303 33.5132C32.3471 33.0183 32.0406 32.5224 31.5457 32.4056C31.0508 32.2888 30.5549 32.5953 30.4381 33.0902C30.3213 33.5851 30.6278 34.081 31.1227 34.1978C31.6176 34.3146 32.1135 34.0081 32.2303 33.5132Z" fill="#F28484"/>
</g>
<g style="mix-blend-mode:multiply" opacity="0.2">
<path d="M31.9883 33.5735C32.1376 33.213 31.9664 32.7996 31.6058 32.6502C31.2453 32.5009 30.8319 32.6721 30.6825 33.0327C30.5332 33.3932 30.7044 33.8066 31.065 33.956C31.4256 34.1053 31.8389 33.9341 31.9883 33.5735Z" fill="#F28484"/>
</g>
<path d="M32.4404 33.3604C32.4444 33.4642 32.4263 33.5684 32.3957 33.6685C32.365 33.7687 32.3192 33.8649 32.2593 33.9522C32.1994 34.0395 32.124 34.1165 32.0373 34.1768C31.951 34.2377 31.853 34.2807 31.752 34.3026C31.8432 34.2537 31.9289 34.1998 32.0047 34.1347C32.0806 34.0698 32.1467 33.9949 32.2032 33.9133C32.2324 33.8729 32.2573 33.8298 32.2811 33.7859C32.3053 33.7421 32.3258 33.6964 32.3458 33.6503C32.3843 33.5572 32.4163 33.4608 32.4404 33.3604Z" fill="#696976"/>
<path d="M30.2806 33.4312C30.2581 33.3297 30.2575 33.2241 30.2695 33.1201C30.2816 33.016 30.3096 32.9132 30.3527 32.8166C30.3961 32.7199 30.4566 32.6307 30.531 32.5558C30.6051 32.4805 30.6938 32.4208 30.7892 32.3809C30.7082 32.4454 30.6335 32.5136 30.5706 32.5913C30.5075 32.6688 30.456 32.7543 30.415 32.8447C30.3937 32.8896 30.3767 32.9366 30.3613 32.9841C30.3453 33.0314 30.3334 33.0801 30.322 33.1291C30.3008 33.2275 30.2866 33.3281 30.2808 33.4312H30.2806Z" fill="#BABAC4"/>
<g style="mix-blend-mode:screen" opacity="0.2">
<path d="M31.0279 33.3761C31.2493 33.3761 31.4289 33.1966 31.4289 32.9752C31.4289 32.7537 31.2493 32.5742 31.0279 32.5742C30.8065 32.5742 30.627 32.7537 30.627 32.9752C30.627 33.1966 30.8065 33.3761 31.0279 33.3761Z" fill="#F28484"/>
</g>
<g style="mix-blend-mode:multiply" opacity="0.2">
<path d="M34.6545 34.5082C35.2953 34.5082 35.8148 33.9887 35.8148 33.3478C35.8148 32.707 35.2953 32.1875 34.6545 32.1875C34.0136 32.1875 33.4941 32.707 33.4941 33.3478C33.4941 33.9887 34.0136 34.5082 34.6545 34.5082Z" fill="#FFB0B0"/>
</g>
<path d="M35.005 34.3748C35.5971 34.1295 35.8782 33.4508 35.633 32.8587C35.3877 32.2667 34.709 31.9855 34.1169 32.2308C33.5249 32.476 33.2437 33.1548 33.489 33.7468C33.7342 34.3389 34.413 34.62 35.005 34.3748Z" fill="#F28484"/>
<g style="mix-blend-mode:multiply" opacity="0.2">
<path d="M35.4549 33.5132C35.5717 33.0183 35.2652 32.5224 34.7703 32.4056C34.2754 32.2888 33.7795 32.5953 33.6627 33.0902C33.5459 33.5851 33.8524 34.081 34.3473 34.1978C34.8422 34.3146 35.3381 34.0081 35.4549 33.5132Z" fill="#F28484"/>
</g>
<g style="mix-blend-mode:multiply" opacity="0.2">
<path d="M35.2468 33.464C35.3365 33.0842 35.1013 32.7036 34.7214 32.6139C34.3416 32.5243 33.961 32.7595 33.8713 33.1394C33.7817 33.5192 34.0169 33.8998 34.3968 33.9895C34.7766 34.0791 35.1572 33.8439 35.2468 33.464Z" fill="#F28484"/>
</g>
<path d="M35.6553 33.3711C35.6593 33.4749 35.6411 33.5792 35.6106 33.6792C35.5798 33.7794 35.5341 33.8757 35.4742 33.9629C35.4143 34.0502 35.3388 34.1273 35.2521 34.1876C35.1659 34.2485 35.0678 34.2914 34.9668 34.3134C35.0581 34.2645 35.1437 34.2105 35.2196 34.1455C35.2955 34.0806 35.3616 34.0057 35.4181 33.924C35.4472 33.8837 35.4722 33.8405 35.4959 33.7966C35.5201 33.7529 35.5407 33.7072 35.5606 33.661C35.5992 33.568 35.6311 33.4715 35.6553 33.3711Z" fill="#696976"/>
<path d="M33.4955 33.4321C33.4729 33.3307 33.4723 33.2251 33.4843 33.121C33.4965 33.017 33.5244 32.9142 33.5676 32.8175C33.6109 32.7209 33.6714 32.6316 33.7459 32.5568C33.82 32.4815 33.9086 32.4218 34.0041 32.3818C33.923 32.4463 33.8483 32.5146 33.7854 32.5923C33.7223 32.6698 33.6708 32.7552 33.6299 32.8457C33.6085 32.8906 33.5915 32.9375 33.5762 32.9851C33.5602 33.0324 33.5482 33.0811 33.5368 33.13C33.5157 33.2285 33.5015 33.3291 33.4957 33.4321H33.4955Z" fill="#BABAC4"/>
<g style="mix-blend-mode:screen" opacity="0.2">
<path d="M34.2994 33.3771C34.5208 33.3771 34.7003 33.1976 34.7003 32.9762C34.7003 32.7547 34.5208 32.5752 34.2994 32.5752C34.078 32.5752 33.8984 32.7547 33.8984 32.9762C33.8984 33.1976 34.078 33.3771 34.2994 33.3771Z" fill="#F28484"/>
</g>
<path d="M13.3227 34.4408C13.2404 34.5776 13.1649 34.7178 13.0963 34.8608C13.0791 34.8965 13.0621 34.9322 13.0463 34.9686C13.03 35.0047 13.0142 35.0409 12.9996 35.0776L12.9766 35.1323L12.9551 35.1876L12.9335 35.2427L12.9135 35.2985C12.86 35.447 12.8159 35.5984 12.7772 35.7507C12.739 35.9033 12.7089 36.0576 12.6863 36.2128L12.6871 36.207C12.6871 36.2128 12.6869 36.2234 12.6871 36.2324C12.6871 36.2415 12.6879 36.2511 12.6885 36.2607C12.6899 36.2797 12.6921 36.2988 12.6945 36.318C12.6997 36.3564 12.7081 36.3943 12.7185 36.4314C12.7394 36.5057 12.771 36.5766 12.8121 36.6407C12.853 36.705 12.9034 36.7627 12.9611 36.8122C13.0188 36.8621 13.0841 36.9031 13.153 36.9384C13.2219 36.9742 13.2967 36.9993 13.3724 37.0219C13.4111 37.0311 13.4489 37.0424 13.4886 37.0488L13.5475 37.06L13.6072 37.0682C13.647 37.0746 13.6873 37.0776 13.7276 37.0808C13.7678 37.0852 13.8087 37.0854 13.8494 37.087C13.89 37.0892 13.9311 37.0878 13.9718 37.0876L14.0974 37.0856C14.4383 37.0766 14.7776 37.0778 15.1172 37.079C15.4567 37.0816 15.7959 37.0862 16.135 37.0938C16.474 37.1012 16.8131 37.1105 17.1521 37.1223C17.491 37.1337 17.8298 37.1495 18.1687 37.1637C18.8462 37.1972 19.5235 37.2349 20.2002 37.292C19.5215 37.3126 18.8432 37.3174 18.1651 37.3208H17.6567C17.4872 37.3208 17.3177 37.3214 17.1483 37.3202L16.64 37.3176L16.1318 37.314C15.4545 37.3092 14.7764 37.3004 14.1016 37.3038L14.0383 37.3042L13.973 37.3036C13.9291 37.303 13.8854 37.3036 13.8415 37.3002C13.7975 37.2976 13.7536 37.2962 13.7095 37.2907C13.6655 37.2861 13.6214 37.2819 13.5775 37.2739L13.5116 37.2633L13.4459 37.2489C13.402 37.2405 13.3588 37.2264 13.3155 37.2146C13.2296 37.1864 13.1442 37.1545 13.0635 37.1097C12.9826 37.0658 12.9062 37.0119 12.8381 36.9482C12.77 36.8845 12.7109 36.8104 12.6641 36.7298C12.6172 36.6491 12.5829 36.5616 12.5615 36.4718C12.5509 36.4268 12.5429 36.3813 12.5388 36.3354C12.5368 36.3124 12.5352 36.2893 12.5352 36.2661C12.5352 36.2543 12.5352 36.2427 12.5356 36.231C12.536 36.2186 12.5366 36.2082 12.538 36.1928L12.5384 36.189L12.5388 36.187C12.5713 36.0285 12.6114 35.8715 12.6598 35.7174C12.7075 35.563 12.766 35.4123 12.8313 35.2651L12.8558 35.21L12.8818 35.1555L12.908 35.1012L12.9355 35.0475C12.9539 35.0117 12.9731 34.9764 12.9928 34.9414C13.012 34.9061 13.0324 34.8715 13.0529 34.8372C13.1346 34.6992 13.225 34.5668 13.3227 34.4404V34.4408Z" fill="#ED6C6C"/>
<path d="M41.4693 34.4404C41.567 34.5666 41.6574 34.6992 41.7391 34.8372C41.7597 34.8715 41.7801 34.9063 41.7992 34.9414C41.819 34.9764 41.8382 35.0117 41.8565 35.0475L41.8841 35.1012L41.9102 35.1555L41.9362 35.21L41.9608 35.2651C42.0261 35.4123 42.0846 35.563 42.1323 35.7174C42.1806 35.8715 42.2209 36.0285 42.2533 36.187L42.2537 36.189L42.2541 36.1928C42.2555 36.2082 42.2561 36.2188 42.2565 36.231C42.2569 36.2429 42.2569 36.2545 42.2569 36.2661C42.2569 36.2895 42.2553 36.3124 42.2533 36.3354C42.2491 36.3813 42.2411 36.4268 42.2305 36.4718C42.2094 36.5616 42.175 36.6489 42.1279 36.7298C42.0812 36.8106 42.0221 36.8845 41.954 36.9482C41.8859 37.0119 41.8094 37.0658 41.7285 37.1097C41.6479 37.1545 41.5624 37.1862 41.4765 37.2146C41.4332 37.2264 41.3901 37.2405 41.3461 37.2489L41.2805 37.2633L41.2146 37.2739C41.1706 37.2817 41.1265 37.2861 41.0826 37.2907C41.0384 37.2962 40.9945 37.2976 40.9506 37.3002C40.9065 37.3036 40.8627 37.303 40.819 37.3036L40.7537 37.3042L40.6904 37.3038C40.0157 37.3004 39.3376 37.3092 38.6603 37.314L38.1521 37.3176L37.6437 37.3202C37.4742 37.3214 37.3048 37.321 37.1353 37.3208H36.6269C35.9488 37.3174 35.2707 37.3126 34.5918 37.292C35.2685 37.2349 35.9458 37.1972 36.6233 37.1637C36.9622 37.1497 37.301 37.1337 37.6399 37.1223C37.9788 37.1105 38.3178 37.1012 38.6571 37.0938C38.9961 37.0862 39.3354 37.0816 39.6748 37.079C40.0145 37.0778 40.3535 37.0766 40.6946 37.0856L40.8202 37.0876C40.8611 37.0878 40.9021 37.0894 40.9426 37.087C40.9831 37.0854 41.0241 37.085 41.0644 37.0808C41.1047 37.0776 41.1453 37.0746 41.1848 37.0682L41.2445 37.06L41.3034 37.0488C41.3432 37.0424 41.3809 37.0311 41.4196 37.0219C41.4953 36.9993 41.5702 36.9742 41.6391 36.9384C41.708 36.9031 41.7733 36.8621 41.831 36.8122C41.8889 36.7627 41.9392 36.7048 41.9799 36.6407C42.0211 36.5766 42.0526 36.5059 42.0734 36.4314C42.0838 36.3943 42.0921 36.3564 42.0973 36.318C42.0997 36.2988 42.1019 36.2797 42.1033 36.2607C42.1039 36.2511 42.1045 36.2417 42.1047 36.2324C42.1051 36.2234 42.1047 36.2128 42.1047 36.207L42.1055 36.2128C42.083 36.0574 42.053 35.9031 42.0147 35.7507C41.9759 35.5984 41.9318 35.447 41.8783 35.2985L41.8583 35.2427L41.8368 35.1876L41.8152 35.1323L41.7922 35.0776C41.7775 35.0409 41.7617 35.0045 41.7455 34.9686C41.7297 34.9322 41.7128 34.8965 41.6956 34.8608C41.6269 34.7178 41.5514 34.5776 41.4691 34.4408L41.4693 34.4404Z" fill="#F46969"/>
<g style="mix-blend-mode:multiply" opacity="0.2">
<path d="M41.6475 28.0517C41.1618 28.1256 40.6525 28.2003 40.1223 28.2742C36.7449 28.746 32.5231 29.1965 28.2172 29.3015C23.3852 29.4191 18.8293 28.9219 15.4653 28.3912C14.7457 28.2776 14.0803 28.1626 13.4785 28.0517H18.7217V26.5967H35.9261V28.0517H41.6473H41.6475Z" fill="#FCE9E9"/>
</g>
<path d="M47.3461 25.2657C47.3461 25.2657 45.7942 25.6015 43.2934 26.0159C42.3587 26.1706 41.2916 26.3363 40.1233 26.4995C36.7459 26.9713 32.5241 27.4218 28.2182 27.5268C23.3862 27.6444 18.8303 27.1472 15.4663 26.6165C14.2748 26.4286 13.2325 26.2363 12.3805 26.0656C10.7894 25.7471 9.86133 25.5037 9.86133 25.5037C9.86133 25.5037 10.1958 25.2295 10.8935 24.8134C13.0213 23.5426 18.5282 20.9474 28.2184 20.7721C36.1237 20.6291 43.1031 23.3214 45.9659 24.6049C46.8545 25.0031 47.3463 25.2657 47.3463 25.2657H47.3461Z" fill="#FEECEC"/>
<g style="mix-blend-mode:multiply" opacity="0.3">
<path d="M47.3461 25.2655C47.3461 25.2655 45.7942 25.6013 43.2934 26.0157C41.8376 25.9148 40.7934 25.8114 40.7934 25.8114C40.7934 25.8114 30.3382 24.7888 28.2182 24.7888C26.0982 24.7888 15.6428 25.8114 15.6428 25.8114C15.6428 25.8114 14.2201 25.9524 12.3805 26.0656C10.7894 25.7471 9.86133 25.5037 9.86133 25.5037C9.86133 25.5037 10.1958 25.2295 10.8935 24.8134C13.0213 23.5426 18.5282 20.9474 28.2184 20.7721C36.1237 20.6291 43.1031 23.3214 45.9659 24.6049C46.8545 25.0031 47.3463 25.2657 47.3463 25.2657L47.3461 25.2655Z" fill="#FEECEC"/>
</g>
<path d="M52.4193 24.7908C52.4047 24.8529 52.3752 24.9138 52.3297 24.9737C52.2899 25.0259 52.238 25.0768 52.1729 25.1271C52.0701 25.2064 51.9347 25.2826 51.7632 25.3567C49.7041 26.2409 40.7904 25.3567 40.7904 25.3567C40.7904 25.3567 36.9891 24.9849 33.5061 24.6898C31.2126 24.4953 29.0571 24.3342 28.2152 24.3342C27.2981 24.3342 24.8207 24.5255 22.3047 24.7427C22.2995 24.7431 22.2943 24.7437 22.2893 24.7441C18.995 25.0285 15.64 25.3565 15.64 25.3565C15.64 25.3565 6.72653 26.2407 4.66743 25.3565C4.49571 25.2826 4.36033 25.206 4.25749 25.1269C4.1924 25.0766 4.14048 25.0257 4.10094 24.9735C4.05522 24.9138 4.02586 24.8529 4.01129 24.7908C3.92622 24.4336 4.32958 24.0404 4.96236 23.6371C5.78624 23.1119 6.99869 22.5698 8.02724 22.0676C8.05559 22.054 8.08395 22.0401 8.1121 22.0267C9.6658 21.2823 11.5638 20.8128 13.5713 20.6617C15.3916 20.5249 18.9153 20.2082 20.892 19.6908C23.6378 18.9726 28.2152 19.0001 28.2152 19.0001C28.2152 19.0001 32.7925 18.9724 35.5386 19.6908C37.5151 20.2082 41.039 20.5249 42.8593 20.6617C44.8667 20.8128 46.7648 21.2821 48.3183 22.0267C48.3467 22.0401 48.375 22.054 48.4032 22.0676C49.2015 22.4574 50.1104 22.8713 50.8624 23.2823C51.8239 23.8078 52.5289 24.3292 52.4193 24.7904V24.7908Z" fill="#FFC5C5"/>
<g style="mix-blend-mode:multiply" opacity="0.5">
<path d="M51.7636 25.3566C49.7045 26.2407 40.7909 25.3566 40.7909 25.3566C40.7909 25.3566 30.3357 24.334 28.2157 24.334C27.8776 24.334 27.3275 24.36 26.6414 24.4039C23.0266 24.6343 15.6403 25.3566 15.6403 25.3566C15.6403 25.3566 6.72678 26.2407 4.66769 25.3566C2.6086 24.4724 5.76313 23.1735 8.02749 22.0679C8.05585 22.0541 8.0842 22.0403 8.11235 22.0269C8.51331 21.8348 8.93703 21.6609 9.37992 21.5064C10.6529 21.0613 12.0822 20.7739 13.5716 20.6621C26.8988 22.1785 35.2502 22.1048 42.8597 20.6621C44.8671 20.8131 46.7653 21.2823 48.3188 22.0271C48.3471 22.0405 48.3755 22.0543 48.4036 22.0681C50.6682 23.1735 53.8225 24.4724 51.7636 25.3568V25.3566Z" fill="#F4E1E1"/>
</g>
<g style="mix-blend-mode:multiply" opacity="0.5">
<path d="M26.7714 23.7501L26.3878 24.2125C22.9567 24.4046 15.9458 25.0073 15.9458 25.0073C15.9458 25.0073 7.68347 25.5332 5.53093 25.0073C3.58027 24.5306 7.50915 22.3493 8.36797 22.1584C9.05247 22.0063 5.61999 23.8214 7.94865 24.2086C10.103 24.5668 23.2958 23.8695 26.7714 23.7501Z" fill="#F4E1E1"/>
</g>
<g style="mix-blend-mode:multiply" opacity="0.5">
<path d="M29.6758 23.6564L30.0594 24.1189C33.4905 24.311 40.5014 24.9136 40.5014 24.9136C40.5014 24.9136 48.9618 25.6514 50.9163 24.9136C52.8707 24.1758 49.8763 23.0921 47.7272 22.17C47.7002 22.1584 47.6735 22.1471 47.6467 22.1359C47.2661 21.9755 47.0884 21.7852 46.6683 21.6562C47.7152 22.209 49.7513 23.2028 48.4987 24.1149C47.3019 24.9865 33.1516 23.7758 29.676 23.6564H29.6758Z" fill="#F4E1E1"/>
</g>
<g style="mix-blend-mode:screen" opacity="0.7">
<path d="M43.0163 20.9248C41.196 20.7878 37.6852 20.553 35.7088 20.0358C32.9626 19.3174 28.2166 19.3449 28.2166 19.3449C28.2166 19.3449 23.6392 19.3587 20.893 20.0774C18.9166 20.5945 15.6636 20.7183 13.8425 20.8511C10.5951 21.0879 9.38867 21.5179 9.38867 21.5179C9.38867 21.5179 11.1886 20.8603 13.5726 20.7263C15.3996 20.6237 18.9166 20.2727 20.8932 19.7555C23.6392 19.037 28.2166 19.0646 28.2166 19.0646C28.2166 19.0646 32.7939 19.0368 35.5401 19.7555C37.5165 20.2727 41.0418 20.5834 42.8607 20.7263C44.4545 20.8515 45.2888 20.9983 46.0899 21.2301C46.1229 21.2397 45.0236 21.0758 43.0163 20.9248Z" fill="#F4E1E1"/>
</g>
<path d="M50.8625 23.2822C50.1105 22.8711 49.2015 22.4571 48.4032 22.0676C48.3751 22.054 48.3467 22.04 48.3184 22.0266C47.5714 21.6686 46.7445 21.3745 45.8643 21.1484C46.1225 21.2483 46.3731 21.3551 46.6143 21.4691C46.6407 21.4813 46.6666 21.4941 46.6926 21.5065C47.4296 21.8617 48.2688 22.2389 48.9631 22.6135C49.8509 23.0925 50.5019 23.5676 50.4006 23.9881C50.3872 24.0448 50.3599 24.1003 50.3179 24.1548C50.2812 24.2023 50.2333 24.2487 50.1732 24.2946C50.0783 24.3667 49.9533 24.4364 49.7948 24.5038C47.8938 25.3096 39.6645 24.5038 39.6645 24.5038C39.6645 24.5038 36.1551 24.165 32.9395 23.896C30.8221 23.7187 28.8321 23.5719 28.0549 23.5719C27.2083 23.5719 24.9209 23.7463 22.5981 23.9443C22.5933 23.9447 22.5885 23.9451 22.5837 23.9455C19.5424 24.2047 16.445 24.5036 16.445 24.5036C16.445 24.5036 8.21598 25.3094 6.31483 24.5036C6.15629 24.4364 6.03129 24.3665 5.93624 24.2944C5.87614 24.2485 5.82821 24.2021 5.79167 24.1546C5.74954 24.1003 5.72238 24.0448 5.70901 23.9881C5.63053 23.6626 6.00293 23.3042 6.587 22.9366C7.34757 22.4579 8.46698 21.9639 9.41665 21.5063C9.44281 21.4939 9.46897 21.4811 9.49492 21.4689C9.50251 21.4653 9.5103 21.4619 9.51789 21.4583C9.02508 21.6247 8.55463 21.8144 8.11214 22.0264C8.08399 22.0398 8.05564 22.0538 8.02728 22.0674C6.99873 22.5696 5.78608 23.1117 4.9624 23.6368C4.32962 24.0404 3.92607 24.4336 4.01133 24.7908C4.02591 24.8529 4.05526 24.9138 4.10099 24.9735C4.14053 25.0256 4.19244 25.0765 4.25754 25.1268C4.36037 25.2057 4.49575 25.2824 4.66748 25.3565C6.72657 26.2407 15.6401 25.3565 15.6401 25.3565C15.6401 25.3565 18.9951 25.0284 22.2894 24.7441C22.2944 24.7437 22.2996 24.7431 22.3047 24.7427C24.8207 24.5254 27.2981 24.3341 28.2153 24.3341C29.0571 24.3341 31.2126 24.4953 33.5062 24.6897C36.9894 24.9849 40.7905 25.3567 40.7905 25.3567C40.7905 25.3567 49.7041 26.2409 51.7632 25.3567C51.9347 25.2828 52.0701 25.2063 52.173 25.127C52.2381 25.0767 52.29 25.0258 52.3297 24.9737C52.3752 24.9138 52.4048 24.8529 52.4194 24.7908C52.529 24.3293 51.8239 23.8082 50.8625 23.2826V23.2822Z" fill="#F5DDDD"/>
<path d="M19.1584 26.308C20.4849 26.3591 21.8069 26.4152 23.1288 26.4622L24.1198 26.4961L25.1106 26.5247L25.6058 26.5374C25.771 26.5414 25.9359 26.546 26.101 26.5484L26.5963 26.5588L27.0915 26.5658C27.2566 26.5692 27.4215 26.5698 27.5865 26.572L27.8341 26.5746L28.0817 26.5752C28.2466 26.576 28.4117 26.578 28.5767 26.5778C28.7416 26.5774 28.9065 26.576 29.0717 26.5766C29.7316 26.573 30.3916 26.5654 31.0513 26.547L31.1751 26.544L31.2987 26.5396L31.5461 26.5315L31.7935 26.5233L32.0407 26.5127L32.5355 26.4907L33.0301 26.4632L33.1539 26.4566L33.2775 26.448L33.5247 26.431L33.7723 26.4148L34.0195 26.3947C34.3498 26.3711 34.6789 26.336 35.0101 26.308C34.849 26.3474 34.6869 26.3833 34.5249 26.421L34.4031 26.4478L34.2809 26.4718L34.0363 26.5197L33.7913 26.5668L33.5455 26.6077L33.2993 26.6479L33.1761 26.6676L33.0527 26.6854L32.5585 26.7531C32.3935 26.7743 32.2282 26.7912 32.0631 26.8106C31.9804 26.8196 31.8979 26.8304 31.8151 26.8378L31.5669 26.8607L31.3185 26.8837L31.1943 26.8949L31.0699 26.9039L30.5725 26.94C30.4065 26.9506 30.2406 26.9586 30.0747 26.968L29.8257 26.9811L29.5767 26.9907C29.4105 26.9963 29.2444 27.0041 29.0785 27.0079C28.9123 27.0125 28.7462 27.0151 28.5801 27.0187C28.4139 27.0217 28.2478 27.0223 28.0817 27.0243L27.8325 27.0253L27.5833 27.0241C27.4171 27.0227 27.251 27.0235 27.0851 27.0203L26.5869 27.0105L26.0889 26.9965C25.9229 26.9915 25.757 26.9841 25.5911 26.9773C25.4251 26.9706 25.2592 26.9642 25.0935 26.9544C24.4303 26.9208 23.7678 26.8755 23.1067 26.8176C22.4453 26.7595 21.7852 26.6908 21.1266 26.6079C20.7976 26.5654 20.4685 26.5223 20.1404 26.4716C19.9763 26.4464 19.8124 26.4212 19.6486 26.3945C19.4851 26.3663 19.3211 26.3394 19.1582 26.3076L19.1584 26.308Z" fill="#FFDCDC"/>
<path d="M20.5553 20.7675C20.7048 20.728 20.8556 20.694 21.0064 20.6587C21.1573 20.6249 21.3085 20.593 21.4598 20.561C21.7625 20.4975 22.0665 20.441 22.371 20.3865C22.98 20.2789 23.592 20.188 24.2058 20.1108L24.6667 20.0559C24.8204 20.0377 24.9744 20.0233 25.1281 20.0069C25.2821 19.9904 25.436 19.9762 25.5902 19.9628L25.8214 19.9424L26.0529 19.9245C26.3614 19.8989 26.6707 19.8825 26.9798 19.8634C27.2893 19.8496 27.5986 19.8352 27.9085 19.8276C28.0634 19.8234 28.2182 19.8198 28.3733 19.819C28.5283 19.8178 28.6832 19.8152 28.8384 19.8154L29.3034 19.8208L29.4196 19.8222L29.5359 19.8254L29.7685 19.8326C30.3885 19.854 31.0085 19.8917 31.6257 19.9616C32.2427 20.0301 32.8583 20.1188 33.4653 20.2513L33.5792 20.2751L33.6361 20.2871L33.6928 20.3009L33.919 20.3562L34.1447 20.4125C34.1824 20.4215 34.2197 20.4317 34.2569 20.443L34.3685 20.4762L34.5913 20.5423C34.6654 20.5644 34.7401 20.585 34.813 20.6118C34.9591 20.6639 35.1055 20.714 35.2503 20.7675C35.0979 20.7394 34.9468 20.708 34.7956 20.6785C34.7205 20.6617 34.6443 20.6501 34.5684 20.6373L34.3407 20.5994L34.2271 20.5804L34.1704 20.5706L34.1133 20.5626L33.8849 20.5313L33.657 20.4991L33.6001 20.491L33.5428 20.4846L33.4284 20.472C32.8196 20.3967 32.208 20.3516 31.5963 20.3182L31.3669 20.3063L31.2523 20.3003C31.2142 20.2983 31.1756 20.2977 31.1375 20.2963L30.6782 20.2797C30.5251 20.2751 30.3717 20.2743 30.2188 20.2699C30.1421 20.2683 30.0656 20.2659 29.9891 20.2651L29.7593 20.2641L29.5295 20.2625L29.4147 20.2613L29.2996 20.2619L28.8398 20.2647L28.3799 20.2713C28.3032 20.2727 28.2266 20.2731 28.1499 20.2755L27.9199 20.2821C27.3066 20.2963 26.6932 20.3218 26.08 20.3538L25.85 20.365L25.6199 20.3785C25.4666 20.3881 25.3132 20.3947 25.1599 20.4053C24.8532 20.4243 24.5465 20.4446 24.2398 20.4654C23.6262 20.5077 23.0127 20.5559 22.3987 20.607L21.4774 20.6848L20.5547 20.7673L20.5553 20.7675Z" fill="#FFDCDC"/>
<path d="M5.39977 23.551C5.31132 23.636 5.22705 23.7223 5.14758 23.8106C5.06851 23.8992 4.99442 23.9901 4.93272 24.0843C4.87062 24.1774 4.8209 24.276 4.80193 24.3661C4.79295 24.411 4.79095 24.4523 4.79734 24.4881C4.80353 24.524 4.81791 24.5544 4.83788 24.5845C4.85824 24.6145 4.8866 24.6432 4.92034 24.6708C4.93951 24.6836 4.95549 24.6981 4.97665 24.7105C4.98684 24.7169 4.99622 24.7235 5.0068 24.7297L5.03935 24.7475C5.12741 24.794 5.22785 24.8341 5.33288 24.8669C5.43831 24.8992 5.54694 24.9296 5.65876 24.9531C5.71447 24.9651 5.77058 24.9777 5.82709 24.9887C5.884 24.9991 5.94031 25.0104 5.99801 25.0192L6.08387 25.0344L6.17034 25.048L6.257 25.0614L6.34426 25.0733C6.40216 25.0825 6.46047 25.0905 6.51898 25.0979L6.60663 25.1095C6.63599 25.1127 6.66534 25.1165 6.69449 25.1203C6.92892 25.15 7.16514 25.177 7.40236 25.2045C7.87679 25.2612 8.35503 25.3126 8.83685 25.4034C8.59684 25.4551 8.35582 25.4891 8.11401 25.5148C7.8722 25.5408 7.62959 25.5552 7.38638 25.562L7.20388 25.5651L7.02117 25.5635C6.89916 25.5621 6.77716 25.5568 6.65496 25.55C6.59385 25.5474 6.53275 25.5418 6.47165 25.5366C6.41055 25.5316 6.34925 25.526 6.28815 25.5192L6.19649 25.5084L6.10464 25.4957C6.04354 25.4875 5.98204 25.4781 5.92074 25.4675C5.79853 25.4457 5.67573 25.4202 5.55333 25.3892L5.46167 25.3641C5.43112 25.3557 5.40057 25.3455 5.37002 25.3363L5.32429 25.3221L5.27857 25.3062C5.24802 25.2954 5.21787 25.285 5.18751 25.272C5.06651 25.2237 4.9449 25.1676 4.82849 25.0871L4.78496 25.0566C4.77058 25.046 4.75641 25.034 4.74223 25.0226C4.71368 25.0009 4.68632 24.9735 4.65956 24.9475C4.60705 24.8914 4.55813 24.8265 4.52218 24.7499C4.48564 24.674 4.46707 24.5855 4.46887 24.5013C4.47027 24.4168 4.49063 24.3379 4.52059 24.2692C4.58049 24.1312 4.67035 24.0284 4.76419 23.9394C4.85924 23.8511 4.96128 23.777 5.06791 23.7129C5.17434 23.649 5.28476 23.5931 5.40037 23.5508L5.39977 23.551Z" fill="#FFDCDC"/>
<path d="M50.9423 23.5508C51.0579 23.5931 51.1682 23.649 51.2748 23.7129C51.3814 23.777 51.4835 23.8511 51.5785 23.9394C51.6724 24.0284 51.7622 24.1312 51.8221 24.2692C51.8521 24.3377 51.8724 24.4166 51.8738 24.5013C51.8756 24.5855 51.8571 24.674 51.8205 24.7499C51.7846 24.8265 51.7357 24.8912 51.6831 24.9475C51.6564 24.9735 51.629 25.0009 51.6005 25.0226C51.5863 25.034 51.5721 25.0458 51.5577 25.0566L51.5142 25.0871C51.3978 25.1674 51.2762 25.2235 51.1552 25.272C51.1248 25.2848 51.0947 25.2954 51.0641 25.3062L51.0184 25.3221L50.9727 25.3363C50.9421 25.3455 50.9116 25.3557 50.881 25.3641L50.7894 25.3892C50.667 25.4202 50.5444 25.4457 50.422 25.4675C50.3607 25.4779 50.2994 25.4875 50.2381 25.4957L50.1462 25.5084L50.0546 25.5192C49.9933 25.526 49.9322 25.5316 49.8711 25.5366C49.81 25.542 49.7489 25.5476 49.6878 25.55C49.5656 25.557 49.4435 25.5623 49.3215 25.5635L49.1388 25.5651L48.9563 25.562C48.7131 25.5552 48.4705 25.541 48.2287 25.5148C47.9869 25.4891 47.7459 25.4551 47.5059 25.4034C47.9877 25.3126 48.4659 25.2612 48.9404 25.2045C49.1776 25.177 49.4138 25.1502 49.6482 25.1203C49.6776 25.1165 49.7069 25.1127 49.7361 25.1095L49.8237 25.0979C49.8822 25.0905 49.9405 25.0825 49.9985 25.0733L50.0857 25.0614L50.1724 25.048L50.2588 25.0344L50.3447 25.0192C50.4024 25.0106 50.4587 24.9991 50.5156 24.9887C50.5721 24.9777 50.6282 24.9651 50.684 24.9531C50.7958 24.9296 50.9044 24.8992 51.0098 24.8669C51.1151 24.8343 51.2153 24.7942 51.3034 24.7475L51.3359 24.7297C51.3465 24.7235 51.3559 24.7169 51.3661 24.7105C51.3872 24.6983 51.4032 24.6836 51.4224 24.6708C51.4561 24.6432 51.4847 24.6145 51.5048 24.5845C51.5248 24.5544 51.5392 24.5242 51.5454 24.4881C51.5518 24.4523 51.5498 24.411 51.5408 24.3661C51.5218 24.276 51.4719 24.1774 51.41 24.0843C51.3483 23.9901 51.274 23.8992 51.1951 23.8106C51.1157 23.7221 51.0314 23.6358 50.9429 23.551L50.9423 23.5508Z" fill="#FFDCDC"/>
<path d="M19.7051 24.6536C19.8716 24.6173 20.0389 24.5863 20.2061 24.5534C20.3734 24.5224 20.5411 24.4929 20.7089 24.4633C21.0443 24.4048 21.3806 24.3517 21.7174 24.3018C22.391 24.2019 23.0667 24.1169 23.744 24.0438L23.998 24.0168L24.2522 23.9915C24.4217 23.9749 24.5912 23.9587 24.761 23.9444C24.9307 23.93 25.1002 23.9138 25.2701 23.9014L25.7797 23.8637C25.9496 23.8513 26.1198 23.8419 26.2899 23.8315C26.46 23.8206 26.6302 23.8126 26.8003 23.8038C27.1407 23.786 27.4814 23.776 27.8222 23.7636C28.1633 23.7569 28.5041 23.7485 28.8454 23.7477C29.0159 23.7471 29.1864 23.7463 29.3572 23.7489C29.5279 23.7511 29.6984 23.7513 29.8689 23.7555L30.3807 23.7706L30.5087 23.7744L30.6367 23.7806L30.8925 23.7936L31.1483 23.8066C31.2336 23.8116 31.3188 23.8178 31.4039 23.8238L31.6595 23.8425C31.7445 23.8491 31.8298 23.8541 31.9149 23.8629L32.425 23.9122C32.595 23.9302 32.7647 23.9521 32.9342 23.9733C33.104 23.9931 33.2729 24.0196 33.4418 24.046L33.695 24.0857C33.7793 24.0993 33.8633 24.1163 33.9474 24.1319L34.1992 24.18L34.325 24.2041L34.4502 24.2327L34.7 24.2902L34.8248 24.3192L34.8871 24.3339L34.949 24.3511C35.1137 24.3974 35.2785 24.4418 35.4422 24.4893C35.6041 24.5442 35.7661 24.5973 35.9266 24.6536C35.7587 24.6227 35.5924 24.5883 35.426 24.556C35.2587 24.5276 35.091 24.5017 34.924 24.4745C34.5882 24.4288 34.2531 24.3837 33.9162 24.3531C33.832 24.3451 33.7483 24.3343 33.6641 24.3275L33.4111 24.308L33.1585 24.2874C33.0744 24.2794 32.9897 24.2764 32.9055 24.271L32.6525 24.2561C32.568 24.2513 32.4842 24.2441 32.3995 24.2415L31.8929 24.2199C31.2172 24.1974 30.5413 24.1858 29.8648 24.1868C29.5265 24.1902 29.1882 24.1884 28.85 24.1968C28.5117 24.1997 28.1733 24.2097 27.835 24.2179C27.4966 24.2281 27.1583 24.2373 26.8198 24.2517C26.4814 24.2618 26.1431 24.2798 25.8045 24.2932C25.1276 24.3239 24.4507 24.3607 23.7735 24.399C23.0964 24.4374 22.4189 24.4797 21.7412 24.523L19.7055 24.6536H19.7051Z" fill="#FFDCDC"/>
</svg>
