<svg width="56" height="56" viewBox="0 0 56 56" fill="none" xmlns="http://www.w3.org/2000/svg">
<g clip-path="url(#clip0_18916_30473)">
<path d="M59.9987 11.9682C59.9987 11.9682 57.4802 21.0354 56.7664 20.5062C56.7664 20.5062 56.7637 20.5035 56.7555 20.498C54.6333 18.9213 45.0532 11.0726 43.5089 12.0903C42.3989 12.8231 41.9484 14.3917 41.7693 15.6863C41.9539 17.6756 42.0814 17.2196 42.1086 18.9267V18.9864C42.1276 20.2619 42.0814 21.3366 42.0136 22.2675C42.0054 22.3706 41.9973 22.4683 41.9891 22.566C41.9023 23.6218 42.2388 25.9177 42.6079 27.9097C42.9526 29.7579 43.3217 31.3456 43.4167 31.446C43.7423 31.7879 44.1169 32.138 44.5294 32.4908C48.3587 35.7747 55.4719 39.4982 56.1558 43.2705C56.7854 46.7226 53.0565 70.7407 53.0565 70.7407L42.2524 72C42.2524 72 40.6295 64.0238 40.9253 56.6989C41.0908 52.5222 41.8833 48.5572 43.9567 46.4024C43.9567 46.4024 43.2023 46.5652 41.6662 46.1472C41.5413 46.1092 41.4084 46.074 41.2727 46.0305C39.031 45.3331 33.4295 43.873 28.2649 39.0531C26.8075 37.6934 25.0543 44.2041 15.4715 45.6343C15.3466 45.6533 15.2218 45.6696 15.0942 45.6859C14.0901 45.8216 13.0018 45.9003 11.8213 45.9084C12.0465 48.4676 11.4603 52.2156 10.6434 55.9011C9.28919 62.0128 7.29175 67.9373 7.29175 67.9373L-2.17981 63.4132C-2.17981 63.4132 -3.28438 43.1538 0.0374541 38.798C1.44598 36.9525 7.67984 35.0663 11.3599 32.7568C11.5444 32.6401 11.7209 32.5261 11.8918 32.4067C12.1497 32.2303 12.9665 27.8528 13.6043 27.0766C13.6152 27.063 13.626 27.0549 13.6342 27.044C13.7536 26.9165 14.139 24.189 13.9815 23.0301C13.9083 22.4873 13.8513 21.9527 13.8024 21.4316C13.7292 20.6392 13.6803 20.1561 13.645 19.8141C13.5717 19.1384 13.5527 19.0162 13.4876 18.1369C13.4306 17.3852 13.4008 16.5032 13.3872 15.5452C13.3791 15.4882 12.6924 10.6574 9.10193 11.458C7.50072 11.8162 -0.700731 18.2998 -3.28438 20.3162C-4.68204 21.3991 -4.20982 11.9682 -4.00899 11.5991C-3.80545 11.2327 13.3085 -1.89989 13.3085 -1.89989C13.3085 -1.89989 40.3174 -2.12514 41.137 -1.89989C41.9539 -1.67463 60.0014 11.9682 60.0014 11.9682H59.9987Z" fill="#FFBE9D"/>
<g style="mix-blend-mode:multiply">
<path d="M28.3756 25.1263C28.3702 26.125 28.2209 26.9636 27.708 26.6813C27.3009 26.4561 27.2493 25.8509 27.3525 25.1697C27.4176 24.7463 27.5397 24.2931 27.67 23.8806C27.7894 23.5088 28.3132 23.6037 28.3403 23.9973C28.3648 24.3636 28.3811 24.7572 28.3783 25.1263H28.3756Z" fill="#FBEFE9"/>
</g>
<g style="mix-blend-mode:multiply">
<path d="M28.3735 25.127C28.2704 24.7878 28.1401 24.4757 27.9691 24.4512C27.7602 24.4214 27.5241 24.8041 27.3477 25.1677C27.4128 24.7444 27.5349 24.2911 27.6652 23.8786C27.7846 23.5068 28.3084 23.6018 28.3355 23.9953C28.3599 24.3617 28.3762 24.7552 28.3735 25.1243V25.127Z" fill="#FBEFE9"/>
</g>
<g style="mix-blend-mode:multiply">
<path d="M20.9723 11.2298C21.0103 11.9381 20.4946 12.5243 19.8216 12.5379C19.1485 12.5514 18.5732 11.9924 18.5352 11.284C18.4972 10.5757 19.0155 9.9895 19.6859 9.97593C20.3589 9.95965 20.9343 10.5214 20.9723 11.2298Z" fill="#FBEFE9"/>
</g>
<g style="mix-blend-mode:multiply">
<path d="M20.2457 11.2465C20.2592 11.5288 20.0557 11.7622 19.787 11.7676C19.5183 11.773 19.2876 11.5505 19.2741 11.2682C19.2605 10.986 19.4641 10.7526 19.7327 10.7472C20.0014 10.7417 20.2321 10.9643 20.2457 11.2465Z" fill="#FBEFE9"/>
</g>
<g style="mix-blend-mode:multiply">
<path d="M34.9366 12.4304C35.5769 12.233 35.9258 11.5214 35.716 10.841C35.5062 10.1607 34.8171 9.76925 34.1768 9.9667C33.5366 10.1642 33.1877 10.8757 33.3975 11.5561C33.6073 12.2364 34.2964 12.6279 34.9366 12.4304Z" fill="#FBEFE9"/>
</g>
<g style="mix-blend-mode:multiply">
<path d="M35.0386 11.1889C35.0522 11.4712 34.8487 11.7046 34.58 11.71C34.3113 11.7154 34.0806 11.4929 34.067 11.2106C34.0535 10.9284 34.257 10.695 34.5257 10.6896C34.7944 10.6841 35.0251 10.9067 35.0386 11.1889Z" fill="#FBEFE9"/>
</g>
<g style="mix-blend-mode:multiply">
<path d="M42.8658 57.9129C42.8658 57.9129 41.6445 57.1503 40.9226 56.6944C41.0882 52.5177 41.8806 48.5526 43.9541 46.3978C43.9541 46.3978 43.1996 46.5606 41.6635 46.1427C41.5387 46.1047 41.4057 46.0694 41.27 46.026C39.0283 45.3285 33.4268 43.8684 28.2622 39.0485C26.8048 37.6888 25.0516 44.1995 15.4688 45.6297C15.344 45.6487 15.2191 45.665 15.0916 45.6813C14.0874 45.817 12.9992 45.8957 11.8186 45.9038C12.0439 48.4631 11.4577 52.211 10.6408 55.8965C8.57276 53.1717 11.7752 46.6312 8.23895 43.2876C7.51433 42.601 9.51449 44.11 12.4238 42.9023C16.7715 41.1002 15.3847 37.6427 15.078 37.1732C14.7225 36.6277 14.1906 37.2682 13.6016 36.9127C13.4877 36.8421 12.2745 36.3373 11.9896 35.9736C11.5825 35.4526 12.0439 35.0156 11.7019 34.4837C11.3898 33.9952 11.1618 34.139 11.3002 33.7238C11.4766 33.2054 11.4739 32.9666 11.3545 32.7522C11.5391 32.6355 11.7155 32.5215 11.8865 32.4021C12.1443 32.2257 12.9612 27.8482 13.5989 27.072C13.6098 27.0584 13.6206 27.0503 13.6288 27.0394C13.7292 26.9336 35.0443 26.7762 42.6052 27.9052C42.9499 29.7533 43.319 31.341 43.414 31.4414C43.7397 31.7834 44.1142 32.1335 44.5267 32.4863C44.4127 32.8228 44.429 33.0562 44.7357 33.1702C45.0776 33.295 44.6678 34.8609 43.8862 34.5461C43.3679 34.3371 43.8021 35.5014 43.7614 35.8976C43.7044 36.4296 42.8468 36.264 42.4695 36.6358C41.9512 37.1488 41.2429 37.5043 40.4531 37.184C39.7258 37.7974 38.5371 40.9102 38.5317 41.3011C38.5154 42.6499 44.7981 45.6705 49.4796 44.6066C49.0915 44.8047 40.9443 51.9233 42.8658 57.9102V57.9129Z" fill="#FBECE4"/>
</g>
<g style="mix-blend-mode:multiply">
<path d="M43.3075 9.44987C41.2721 9.87596 40.8487 11.1162 40.7971 13.4366C40.7618 15.0433 40.9165 15.6892 41.1988 16.5902C41.5353 17.6622 41.2286 18.8427 40.4036 19.5891C39.6356 20.2838 38.493 20.9677 36.9379 21.0329C33.6704 21.1713 26.7689 21.5078 20.4021 21.0329C11.8424 20.3924 14.7761 12.9345 14.4532 11.887C13.9592 10.283 10.7025 9.4743 9.08232 9.99537C7.46211 10.5192 -3.17643 17.2551 -3.41797 17.3447C-3.41797 17.3447 -3.36098 18.7505 -3.29313 20.3164C-0.706769 18.3 7.49197 11.8164 9.09317 11.4582C12.6864 10.6549 13.3703 15.4883 13.3812 15.5453C13.392 16.5033 13.4246 17.3854 13.4789 18.1371C13.5657 19.334 13.5766 19.1277 13.7394 20.832C13.7394 20.8402 13.7394 20.8456 13.7394 20.8537C13.7394 20.8673 13.7421 20.8836 13.7448 20.8999C13.7611 21.06 13.7774 21.2364 13.7937 21.4318C13.8425 21.9529 13.8995 22.4875 13.9728 23.0303L24.6629 25.215L41.9532 22.2758C41.9641 22.4007 41.975 22.4984 41.9831 22.5662C41.9912 22.4685 41.9994 22.3681 42.0075 22.2677C42.0292 21.9882 42.0455 21.6951 42.0618 21.3884C42.0618 21.3694 42.0618 21.3477 42.0645 21.3287C42.0699 21.2255 42.0727 21.1224 42.0781 21.0166C42.0781 20.9623 42.0835 20.9053 42.0835 20.8483C42.0835 20.775 42.0889 20.699 42.0917 20.6231C42.0917 20.5444 42.0971 20.4657 42.0971 20.3869C42.0971 20.3327 42.0971 20.2757 42.0998 20.2187C42.0998 20.1183 42.1025 20.0206 42.1052 19.9174C42.1052 19.8903 42.1052 19.8604 42.1052 19.8333C42.1052 19.5592 42.1052 19.277 42.1052 18.9839C42.1052 18.9703 42.1052 18.9594 42.1052 18.9459V18.9241C42.0781 17.2198 41.9505 17.673 41.766 15.6837C41.9451 14.3892 42.3956 12.8233 43.5056 12.0905C45.0498 11.0728 54.6299 18.9214 56.7522 20.4982C56.4483 20.1753 45.2886 9.04007 43.3048 9.45259L43.3075 9.44987Z" fill="#FBEFE9"/>
</g>
<path d="M39.666 33.864V34.4611C39.666 34.4611 39.8017 34.51 40.0243 34.5887C40.0243 34.5887 40.0243 34.5887 40.027 34.5887C40.7597 34.8492 42.4152 35.4218 43.205 35.6064L43.2999 35.6281C43.5388 35.6796 43.4981 35.3404 43.4872 35.3268C43.0693 34.8112 43.3407 34.6674 43.4546 34.51C43.4682 34.491 43.4845 34.472 43.4981 34.453C43.6636 34.2467 43.8753 34.0703 43.8753 34.0703L40.6403 33.9102L39.666 33.8613V33.864Z" fill="#DBEBFF"/>
<path d="M42.2593 36.151C42.2593 36.151 42.2539 36.151 42.243 36.1591C42.2186 36.17 42.167 36.1917 42.1019 36.2215C42.0639 36.2405 42.0205 36.2595 41.9743 36.2839C41.8712 36.3409 41.7681 36.4061 41.7192 36.4658C41.7002 36.4875 41.6921 36.5119 41.6921 36.5309C41.6921 36.6829 41.9336 36.786 41.7681 36.8701C41.665 36.9244 41.1032 36.5608 40.5441 36.2541C40.4274 36.189 40.2836 36.17 40.1479 36.17H40.1452C39.9118 36.17 39.7109 36.2297 39.7109 36.2297L39.9715 35.5729L40.1452 35.1387L41.9635 36.0071L42.2593 36.1482V36.151Z" fill="#DBEBFF"/>
<path d="M39.502 33.085L43.9446 33.1772C43.9446 33.1772 44.1889 33.8313 44.1889 34.1678C44.1889 34.5043 39.5047 33.8829 39.5047 33.8829V33.085H39.502Z" fill="#DBEBFF"/>
<path d="M42.901 35.9619C42.7843 35.9701 42.7111 36.0135 42.6649 36.0678C42.5754 36.1736 42.5917 36.3175 42.5917 36.3175C42.5618 36.3717 42.4071 36.3419 42.1819 36.2605C42.1819 36.2605 42.1791 36.2605 42.1764 36.2578C42.1493 36.2496 42.1249 36.2388 42.095 36.2279C41.6635 36.0569 41.0284 35.734 40.5047 35.4517C40.3635 35.3757 40.2278 35.3052 40.1084 35.24C39.7855 35.0636 39.5684 34.9388 39.5684 34.9388L39.6661 34.4639L40.8683 34.8004L40.9796 34.833C40.9796 34.833 40.9905 34.8357 40.9959 34.8384L42.4397 35.2428L43.0992 35.4273C43.0992 35.4273 43.11 35.4734 43.1209 35.5386C43.1209 35.5549 43.1236 35.5739 43.1263 35.5929C43.1372 35.7448 43.1154 35.9511 42.8983 35.9647L42.901 35.9619Z" fill="#DBEBFF"/>
<path d="M15.9026 33.7898V34.3869C15.9026 34.3869 15.7669 34.4357 15.5444 34.5144C15.5444 34.5144 15.5444 34.5144 15.5417 34.5144C14.8089 34.775 13.1534 35.3476 12.3637 35.5322L12.2687 35.5539C12.0299 35.6054 12.0706 35.2662 12.0814 35.2526C12.4994 34.737 12.228 34.5931 12.114 34.4357C12.1004 34.4167 12.0842 34.3977 12.0706 34.3787C11.905 34.1725 11.6934 33.9961 11.6934 33.9961L14.9283 33.836L15.9026 33.7871V33.7898Z" fill="#DBEBFF"/>
<path d="M15.857 36.1596C15.857 36.1596 15.3386 36.0076 15.0211 36.184C14.4647 36.4879 13.9029 36.8543 13.7971 36.8001C13.6316 36.7159 13.8731 36.6128 13.8731 36.4608C13.8731 36.3848 13.732 36.2925 13.5908 36.2138C13.4796 36.1541 13.3656 36.1053 13.3249 36.089C13.314 36.0836 13.3086 36.0809 13.3086 36.0809L13.6044 35.9397L15.4227 35.0713L15.5964 35.5055L15.857 36.1623V36.1596Z" fill="#DBEBFF"/>
<path d="M16.2787 33.0117L11.836 33.104C11.836 33.104 11.5918 33.758 11.5918 34.0946C11.5918 34.4311 16.276 33.8096 16.276 33.8096V33.0117H16.2787Z" fill="#DBEBFF"/>
<path d="M12.4662 35.3484C12.4662 35.3484 12.3197 35.8641 12.6671 35.8885C13.0144 35.9129 12.9737 36.244 12.9737 36.244C13.1203 36.5045 15.997 34.8626 15.997 34.8626L15.8993 34.3877L12.4662 35.3484Z" fill="#DBEBFF"/>
<path d="M42.9605 32.5503C41.9591 33.9642 41.495 32.5991 40.5397 35.2018C39.3673 38.3961 37.5707 42.3611 36.6588 43.2811C34.333 45.6259 21.7513 45.8973 19.4173 43.8375C19.3413 43.7696 19.2572 43.6909 19.1676 43.6014C19.1486 43.5824 19.1296 43.5661 19.1106 43.5471C19.0537 43.4928 18.9967 43.4331 18.937 43.3707C18.8881 43.3191 18.8338 43.2621 18.7795 43.2051C18.7226 43.1454 18.6656 43.0803 18.6059 43.0151C18.576 42.9826 18.5489 42.95 18.519 42.9174C18.3345 42.7112 18.1391 42.4832 17.9355 42.239C17.8921 42.1874 17.8487 42.1358 17.808 42.0843C17.7645 42.03 17.7211 41.9784 17.6777 41.9242C17.6397 41.8753 17.599 41.8265 17.561 41.7776C16.28 40.171 15.6477 36.86 15.1592 35.2588C15.1158 35.1177 15.0805 34.982 15.0533 34.849C15.0479 34.8218 15.0425 34.7947 15.0371 34.7676C14.9855 34.4853 14.9122 34.2655 14.8254 34.0918C14.7711 33.9805 14.7087 33.8883 14.6435 33.8123C14.3722 33.5002 14.0139 33.4567 13.6394 33.4459C13.0233 33.4242 12.3584 33.4839 11.9513 32.553C11.9323 32.5096 11.9106 32.4634 11.8943 32.4146C11.2973 30.8052 11.433 25.6054 12.163 22.7802C12.3856 21.9253 12.6597 21.2876 12.9881 21.0352C12.9881 21.0352 21.7649 21.9416 27.1031 21.9416C37.3183 21.9416 41.8912 21.008 42.7597 21.4558C42.966 21.5617 43.1478 22.156 43.2862 23.0245C43.7421 25.8144 43.7856 31.4104 42.9687 32.5611L42.9605 32.5503Z" fill="#DBEBFF"/>
<g style="mix-blend-mode:screen">
<path d="M17.2236 23.7223C17.2236 23.7223 36.1341 23.934 40.0965 23.7223C44.0588 23.5106 37.0813 24.2624 27.797 24.1728C18.5127 24.0833 15.2859 23.9774 17.2263 23.7223H17.2236Z" fill="#363C42"/>
</g>
<g style="mix-blend-mode:screen">
<path d="M17.2236 25.3209C17.2236 25.3209 36.1341 25.5326 40.0965 25.3209C44.0588 25.1093 37.0813 25.861 27.797 25.7715C18.5127 25.6819 15.2859 25.5761 17.2263 25.3209H17.2236Z" fill="#363C42"/>
</g>
<g style="mix-blend-mode:screen">
<path d="M17.2236 26.1022C17.2236 26.1022 36.1341 26.3139 40.0965 26.1022C44.0588 25.8905 37.0813 26.6423 27.797 26.5527C18.5127 26.4631 15.2859 26.3573 17.2263 26.1022H17.2236Z" fill="#363C42"/>
</g>
<g style="mix-blend-mode:screen">
<path d="M27.94 24.6272C31.3242 24.6923 34.7356 24.7547 38.0764 24.4888C38.7658 24.4345 39.4551 24.3639 40.1553 24.3531C40.348 24.3504 40.5922 24.3694 40.6357 24.4589C40.6845 24.5648 40.3914 24.6272 40.1634 24.6435C38.6192 24.7629 37.0669 24.8606 35.5091 24.9339C33.9431 25.0071 32.3718 25.0587 30.7977 25.0858C29.2291 25.113 27.6577 25.1184 26.0891 25.0994C24.5204 25.0804 22.9518 25.0397 21.3886 24.9746C19.8254 24.9094 18.2649 24.8199 16.7152 24.7086C16.5252 24.695 16.3271 24.6869 16.1426 24.6652C16.3108 24.5159 16.6881 24.4399 17.0056 24.3802C17.2444 24.3368 17.4887 24.2907 17.7465 24.2771C18.0098 24.2635 18.2784 24.2825 18.5417 24.2988C18.9596 24.3259 19.3776 24.3504 19.7955 24.3748C21.527 24.4698 23.2666 24.5241 25.0089 24.5648C25.9887 24.5892 26.9657 24.6055 27.9454 24.6245L27.94 24.6272Z" fill="#363C42"/>
</g>
<g style="mix-blend-mode:multiply">
<path d="M43.6336 34.3006C42.8655 34.4037 41.343 33.6628 41.2345 33.7877C41.1748 33.8582 41.1178 33.9342 41.0662 34.0102C41.0255 34.0672 43.2943 35.0225 43.2591 35.0822C43.2401 35.1093 41.3756 34.3874 41.3539 34.4173C41.1802 34.6181 41.8451 34.9628 42.4449 35.2342C42.7108 35.3563 42.9632 35.4594 43.1261 35.53C43.2401 35.5816 43.3079 35.6141 43.3052 35.6223C43.3025 35.6304 43.2373 35.6168 43.1315 35.5843C42.6783 35.4404 41.4516 34.9709 41.0011 34.8271C40.9956 34.8271 40.9902 34.8244 40.9848 34.8217C40.9359 34.8054 40.8979 34.7972 40.8735 34.7891C40.8491 34.7837 40.8355 34.7837 40.8328 34.7891C40.7948 34.8814 41.1286 35.606 42.6674 36.0592C42.5779 36.1651 42.5941 36.3089 42.5941 36.3089C42.5643 36.3632 42.4096 36.3333 42.1843 36.2519C42.1843 36.2519 42.1816 36.2519 42.1789 36.2492C42.1545 36.2383 42.1301 36.2275 42.1056 36.2139C41.419 35.8801 40.537 35.3834 40.5207 35.4133C40.5153 35.4214 40.5099 35.4323 40.5044 35.4404C40.3579 35.7037 41.2833 36.2058 41.723 36.4582C41.704 36.4799 41.6958 36.5043 41.6958 36.5233C41.6958 36.6753 41.9374 36.7784 41.7718 36.8625C41.6687 36.9168 41.1069 36.5531 40.5479 36.2465C40.4312 36.1813 40.2873 36.1623 40.1516 36.1623H40.1489C38.9466 38.9387 37.4784 42.4451 36.6615 43.2701C34.3357 45.6149 21.754 45.8863 19.42 43.8264C19.344 43.7586 19.2599 43.6799 19.1704 43.5903C19.1514 43.5713 19.1324 43.555 19.1134 43.536C19.0564 43.4818 18.9994 43.4221 18.9397 43.3596C18.8908 43.3081 18.8365 43.2511 18.7823 43.1941C18.7253 43.1344 18.6683 43.0693 18.6086 43.0041C18.5787 42.9716 18.5516 42.939 18.5217 42.9064C18.3372 42.7002 18.1418 42.4722 17.9382 42.2279C17.8948 42.1764 17.8514 42.1248 17.8107 42.0732C17.7673 42.019 17.7238 41.9674 17.6804 41.9131C17.6424 41.8643 17.6017 41.8154 17.5637 41.7666C16.4836 40.4123 15.8431 37.3402 15.3437 35.834C15.2976 35.6955 14.4644 36.3632 14.4183 36.222C14.3396 36.1949 15.341 35.3997 15.2732 35.3943C15.0941 35.3807 13.9352 36.0456 13.5987 36.2085C13.558 36.1868 13.5173 36.1678 13.4793 36.1488C14.0275 35.9317 13.9623 35.4296 15.1646 35.1989C15.0533 34.8407 13.2133 35.9262 13.1048 35.6766C13.0233 35.492 15.0398 34.8732 14.9448 34.7375L12.4751 35.3455C12.4751 35.3455 12.4534 35.4187 12.448 35.511C12.4208 35.5164 12.3937 35.5246 12.3693 35.53L12.2743 35.5517C12.2743 35.5517 12.1467 34.9492 14.5648 34.7077C15.0968 34.6561 12.0816 34.572 12.8551 34.5557C14.0573 34.3684 14.4319 34.4607 14.4346 34.4607C14.8118 34.4146 14.9502 34.3576 14.8607 34.3359C14.3884 34.2138 12.9256 34.3196 12.0762 34.3766C12.0192 34.306 11.9568 34.2409 11.9025 34.1839C12.4778 34.2219 13.3626 34.1649 14.3993 34.0482C14.5404 34.0373 14.6435 34.0156 14.7141 33.9912C14.8064 33.9586 12.2472 33.7578 12.2499 33.7144C12.2526 33.6683 14.8145 33.7822 14.7575 33.7361C14.6544 33.6493 14.4726 33.5651 14.3097 33.5163C13.2947 33.2123 12.239 33.1499 11.9513 32.542C11.9323 32.4986 11.9106 32.4524 11.8943 32.4036C11.2973 30.7942 11.433 25.5944 12.163 22.7692L19.0808 23.008C19.0808 23.008 19.3033 24.3894 20.2179 25.1194C20.6087 25.4315 21.7241 25.1601 22.1014 25.2904C22.1611 25.4261 22.0525 25.5808 22.0932 25.7138C22.1339 25.8386 22.3266 25.9472 22.3538 26.072C22.3809 26.205 22.0932 26.3488 22.1068 26.4818C22.1177 26.5985 22.4325 26.7071 22.4352 26.8265C22.4352 26.9513 22.0471 27.0816 22.039 27.2119C22.0335 27.3448 22.4108 27.4778 22.3945 27.6135C22.3809 27.7275 22.0308 27.8035 22.0145 27.9175C21.9982 28.0152 22.3104 28.1536 22.2941 28.254C22.2724 28.3598 21.944 28.4765 21.9223 28.5851C21.9005 28.6828 22.1828 28.7751 22.1584 28.8755C22.3131 29.0655 20.2532 29.6191 20.2749 29.8226C20.378 30.645 20.4215 31.2963 20.3618 31.5785C20.1256 32.7048 16.2936 32.9871 16.2936 32.9871C16.2936 32.9871 15.417 32.9409 15.9082 33.7904C16.1281 34.173 17.7184 35.1473 19.1459 35.6928C19.5042 35.8312 16.1389 34.9872 16.2827 35.2776C16.5867 35.891 17.789 38.9767 20.9642 40.9795C21.6509 41.4111 17.0046 39.2101 17.4687 39.7773C18.8121 41.4246 19.6697 42.7246 22.6414 43.2701C25.4911 43.7912 24.7284 43.9106 22.2072 43.6799C21.1651 43.5849 22.1149 44.5266 23.461 44.5483C26.2727 44.5863 30.9894 44.8034 34.1403 43.5143C36.5638 42.521 33.9829 42.6405 34.1729 42.3284C34.2679 42.1682 36.667 41.943 37.7335 40.2848C38.3306 39.3566 38.8082 37.1149 39.4243 36.1542C39.6794 35.758 35.2557 38.5777 35.6112 38.3118C40.2303 34.9058 40.6103 32.7591 38.9901 32.8948C38.7702 32.9138 35.7144 32.9762 35.5461 31.5785C35.5108 31.2882 35.7334 30.3003 35.7985 29.6001C35.8175 29.3748 33.7251 29.0953 33.7088 28.8429C33.7006 28.6828 33.9286 28.6502 33.9205 28.4793C33.9178 28.3761 33.6762 28.14 33.6708 28.0342C33.6654 27.912 33.8662 27.7166 33.8608 27.5918C33.8608 27.4751 33.6545 27.4263 33.6545 27.3096C33.6545 27.144 34.0182 27.0354 34.0236 26.8699C34.0263 26.7505 33.6708 26.5741 33.6789 26.4547C33.6844 26.3624 34.029 26.2728 34.0345 26.1833C34.0453 26.0774 33.7169 25.9716 33.7305 25.8685C33.7468 25.7409 34.0697 25.6785 34.0915 25.5591C34.1077 25.4777 33.8201 25.3365 33.8391 25.2578C33.8581 25.1764 35.7117 25.2226 35.7442 25.1439C36.3114 23.7598 36.6371 22.5928 36.6371 22.5928L43.2781 23.0134C43.734 25.8033 43.7774 31.3994 42.9605 32.5501C42.8791 32.6641 42.6946 32.9219 42.3635 33.139C42.2766 33.196 43.8778 33.2639 43.791 33.3182C43.7367 33.3534 41.8695 33.3372 41.8153 33.3697C41.7176 33.4321 41.6253 33.4864 41.5466 33.5353C41.4163 33.614 43.8127 34.2762 43.6309 34.3006H43.6336Z" fill="#EDF5FF"/>
</g>
<path d="M43.9417 32.4803C43.9417 32.4803 36.7905 32.084 36.6032 31.2129C36.416 30.3417 35.8081 22.854 36.6304 22.6179C37.4527 22.3818 43.0786 21.7413 44.27 22.01C45.4614 22.2787 45.361 30.2766 43.9417 32.4803Z" fill="#E8F2FF"/>
<path opacity="0.85" d="M39.9273 29.0604C38.5568 29.0333 34.9039 28.9546 33.7016 28.8433C33.7016 28.8433 34.0544 28.4715 34.0381 28.4091C34.0245 28.3439 33.6636 28.1648 33.6337 28.0373C33.6066 27.9097 34.1792 27.6899 34.1657 27.6275C34.1521 27.5623 33.7396 27.4103 33.7097 27.3154C33.6799 27.2177 34.3394 27.006 34.3285 26.911C34.3177 26.816 33.8427 26.6423 33.7939 26.531C33.7477 26.4171 34.4615 26.2705 34.4479 26.1918C34.4344 26.1131 33.7532 25.9747 33.764 25.8797C33.7749 25.7847 34.5049 25.6707 34.5158 25.592C34.5239 25.5133 33.8671 25.3315 33.8319 25.2664C33.7993 25.2039 36.003 25.09 40.1254 25.1388C40.4267 25.1415 40.6682 25.3315 40.6546 25.5595L40.4755 28.6805C40.462 28.9003 40.2177 29.0713 39.9273 29.0658V29.0604Z" fill="#F5F9FF"/>
<path d="M11.675 21.9541C11.675 21.9541 18.8425 22.1441 19.0731 23.0098C19.3038 23.8756 20.2998 31.3388 19.4911 31.5994C18.6823 31.8599 13.0944 32.6605 11.8894 32.4271C10.6844 32.1937 10.3723 24.1985 11.6777 21.9541H11.675Z" fill="#E8F2FF"/>
<path opacity="0.85" d="M15.8634 25.2553C17.234 25.2417 20.8896 25.2146 22.0946 25.2906C22.0946 25.2906 21.7635 25.6705 21.7798 25.7356C21.796 25.7981 22.1678 25.969 22.2031 26.0966C22.2384 26.2241 21.6766 26.4575 21.6929 26.5227C21.7092 26.5851 22.1299 26.7262 22.1624 26.8212C22.1977 26.9162 21.5491 27.1496 21.5654 27.2446C21.5816 27.3396 22.0647 27.497 22.119 27.611C22.1706 27.7222 21.4649 27.8905 21.4812 27.9692C21.4975 28.0479 22.1868 28.1646 22.1814 28.2596C22.176 28.3546 21.4514 28.4875 21.4459 28.5662C21.4405 28.645 22.1081 28.8078 22.1461 28.8729C22.1841 28.9353 19.9859 29.1117 15.8634 29.1823C15.5622 29.1877 15.3125 29.0059 15.3125 28.7779L15.3315 25.6542C15.3315 25.4344 15.5676 25.258 15.8607 25.2553H15.8634Z" fill="#F5F9FF"/>
<g style="mix-blend-mode:screen">
<path d="M36.2129 34.0467C36.2536 33.8486 34.8532 33.2027 32.5627 32.7983C32.503 32.7576 32.4134 32.7196 32.2804 32.6871C30.9561 32.3641 33.3633 31.862 34.3539 31.4414C35.3445 31.018 30.6765 30.9827 29.6887 30.5946C28.6981 30.2066 31.4337 30.2066 32.0443 29.6068C32.6577 29.007 25.8702 29.0423 24.9746 29.3951C24.079 29.7479 26.5758 30.3124 25.9163 30.5594C25.2568 30.8063 23.2295 30.5946 22.4289 30.7711C21.6283 30.9475 22.2417 31.5119 23.2295 32.0764C24.2201 32.6409 22.9717 33.048 22.9717 33.048C21.3868 33.4117 20.6459 33.8025 20.6459 33.8025C20.6459 33.8025 19.3948 34.2231 20.6459 34.8826C21.897 35.5421 24.9963 33.8676 25.1754 34.8826C25.3545 35.8976 21.3597 35.9628 21.8373 36.6765C22.315 37.3903 26.6057 36.7661 25.6531 37.3794C24.7005 37.9928 23.3272 39.5126 24.2228 39.9142C25.1184 40.3159 33.5804 39.4909 33.632 38.7662C33.6835 38.0416 31.07 37.9846 30.3563 37.1732C29.6398 36.3617 33.8789 36.0523 35.0106 35.8298C36.1423 35.6072 33.6401 34.8039 32.6848 34.5027C31.7322 34.2014 36.1423 34.3588 36.2075 34.0467H36.2129Z" fill="#363C42"/>
</g>
<g style="mix-blend-mode:screen">
<g style="mix-blend-mode:multiply">
<path d="M14.1467 33.5716C14.1467 33.5716 13.6528 33.52 13.6745 33.615C13.6962 33.71 14.1467 33.5716 14.1467 33.5716Z" fill="#85888A"/>
</g>
<g style="mix-blend-mode:multiply">
<path d="M14.2349 33.6104C14.2349 33.6104 13.7681 33.7216 13.7898 33.8085C13.8115 33.8953 14.2349 33.6104 14.2349 33.6104Z" fill="#85888A"/>
</g>
<g style="mix-blend-mode:multiply">
<path d="M14.2882 33.6582C14.2882 33.6582 13.8893 33.8048 13.911 33.8997C13.9354 33.9947 14.2882 33.6582 14.2882 33.6582Z" fill="#85888A"/>
</g>
<g style="mix-blend-mode:multiply">
<path d="M14.3201 33.7803C14.3201 33.7803 14.0325 33.8373 14.0352 33.9431C14.0352 34.049 14.3201 33.7803 14.3201 33.7803Z" fill="#85888A"/>
</g>
<g style="mix-blend-mode:multiply">
<path d="M14.127 33.6199C14.127 33.6199 14.2192 33.5684 14.2355 33.4734C14.2491 33.3784 14.2572 33.3078 14.2789 33.335C14.3006 33.3621 14.2599 33.5059 14.2219 33.5575C14.1839 33.6064 14.127 33.6226 14.127 33.6226V33.6199Z" fill="#85888A"/>
</g>
<g style="mix-blend-mode:multiply">
<path d="M14.2188 33.7663C14.2188 33.7663 14.3517 33.6794 14.4114 33.4514C14.4711 33.2262 14.4766 33.4297 14.4413 33.5356C14.406 33.6414 14.2812 33.7554 14.2188 33.7663Z" fill="#85888A"/>
</g>
<g style="mix-blend-mode:multiply">
<path d="M14.2539 33.922C14.2539 33.922 14.471 33.7511 14.5063 33.5584C14.5389 33.3657 14.5959 33.5231 14.5769 33.6127C14.5117 33.9031 14.3706 33.8705 14.2539 33.922Z" fill="#85888A"/>
</g>
<g style="mix-blend-mode:multiply">
<path d="M14.4702 33.9473C14.4702 33.9473 14.1228 34.0694 14.0876 34.1182C14.0496 34.1671 14.0577 34.2159 14.1174 34.1942C14.1771 34.1725 14.4729 33.9473 14.4729 33.9473H14.4702Z" fill="#85888A"/>
</g>
<g style="mix-blend-mode:multiply">
<path d="M14.1684 33.5357C14.1684 33.5357 13.8373 33.3919 13.7641 33.3946C13.6908 33.4 13.6392 33.4326 13.6962 33.457C13.7532 33.4814 14.1684 33.5357 14.1684 33.5357Z" fill="#85888A"/>
</g>
<g style="mix-blend-mode:multiply">
<path d="M14.6237 34.1377C14.6237 34.1377 14.3578 34.1675 14.2818 34.2381C14.2058 34.306 14.1732 34.3738 14.1759 34.4498C14.1759 34.5285 14.2302 34.3494 14.3143 34.2734C14.4012 34.2001 14.621 34.1377 14.621 34.1377H14.6237Z" fill="#85888A"/>
</g>
<g style="mix-blend-mode:multiply">
<path d="M14.3516 34.1473C14.3516 34.1473 14.5144 34.0306 14.5741 33.9302C14.6338 33.8325 14.6175 33.7131 14.6582 33.7402C14.6989 33.7674 14.6962 33.8461 14.6555 33.9112C14.6148 33.9791 14.4167 34.1256 14.3516 34.1446V34.1473Z" fill="#85888A"/>
</g>
<g style="mix-blend-mode:multiply">
<path d="M14.7333 34.4012C14.7333 34.4012 14.5298 34.3849 14.3914 34.4717C14.253 34.5613 14.2584 34.6183 14.2638 34.6644C14.2693 34.7105 14.3832 34.5803 14.4837 34.5124C14.5841 34.4446 14.7333 34.3984 14.7333 34.3984V34.4012Z" fill="#85888A"/>
</g>
<g style="mix-blend-mode:multiply">
<path d="M14.3679 34.3626C14.3679 34.3626 14.4684 34.2567 14.5769 34.178C14.6882 34.0993 14.7669 34.0261 14.8049 34.064C14.8429 34.102 14.8402 34.1482 14.7723 34.1862C14.7045 34.2242 14.4439 34.273 14.3652 34.3626H14.3679Z" fill="#85888A"/>
</g>
<g style="mix-blend-mode:multiply">
<path d="M14.8417 34.5645C14.8417 34.5645 14.7386 34.5807 14.6545 34.5943C14.573 34.6079 14.1958 34.7409 14.2012 34.8223C14.2067 34.9037 14.6246 34.635 14.8417 34.5645Z" fill="#85888A"/>
</g>
<g style="mix-blend-mode:multiply">
<path d="M14.5254 34.377C14.5254 34.377 14.8755 34.1354 14.965 34.225C15.0546 34.3146 14.6312 34.282 14.5254 34.377Z" fill="#85888A"/>
</g>
<g style="mix-blend-mode:multiply">
<path d="M14.9407 34.7091C14.9407 34.7091 14.5797 34.6982 14.3545 34.8855C14.1292 35.0701 14.406 34.9072 14.5607 34.8312C14.7154 34.758 14.9407 34.7091 14.9407 34.7091Z" fill="#85888A"/>
</g>
<g style="mix-blend-mode:multiply">
<path d="M14.5527 34.5757C14.5527 34.5757 14.9001 34.2908 15.0494 34.3749C15.1389 34.4265 15.0385 34.3885 14.8621 34.459C14.6857 34.5296 14.5527 34.5757 14.5527 34.5757Z" fill="#85888A"/>
</g>
<g style="mix-blend-mode:multiply">
<path d="M14.8359 35.3084C14.8359 35.3084 15.1833 35.0261 15.3326 35.1075C15.4221 35.1591 15.3217 35.1211 15.1453 35.1917C14.9689 35.2622 14.8359 35.3084 14.8359 35.3084Z" fill="#85888A"/>
</g>
<g style="mix-blend-mode:multiply">
<path d="M15.0977 35.9102C15.0977 35.9102 15.3004 36.1453 15.2815 36.048C15.2626 35.9507 15.0977 35.9102 15.0977 35.9102Z" fill="#85888A"/>
</g>
<g style="mix-blend-mode:multiply">
<path d="M15.0801 35.864C15.0801 35.864 15.3477 35.9207 15.3315 35.8315C15.3153 35.7423 15.0801 35.864 15.0801 35.864Z" fill="#85888A"/>
</g>
<g style="mix-blend-mode:multiply">
<path d="M15.0547 35.7578C15.0547 35.7578 15.3169 35.7497 15.298 35.6524C15.2791 35.5551 15.0547 35.7578 15.0547 35.7578Z" fill="#85888A"/>
</g>
<g style="mix-blend-mode:multiply">
<path d="M15.0215 35.5887C15.0215 35.5887 15.3227 35.6049 15.3254 35.5045C15.3282 35.4041 15.0215 35.5887 15.0215 35.5887Z" fill="#85888A"/>
</g>
<g style="mix-blend-mode:multiply">
<path d="M15.0973 35.9109C15.0973 35.9109 15 35.9379 14.9784 36.0244C14.9567 36.111 14.9459 36.1758 14.927 36.1434C14.9054 36.111 14.9567 35.9839 14.9973 35.9461C15.0378 35.9082 15.0973 35.9082 15.0973 35.9082V35.9109Z" fill="#85888A"/>
</g>
<g style="mix-blend-mode:multiply">
<path d="M15.1278 35.6253C15.1278 35.6253 14.9867 35.6768 14.9107 35.8777C14.8347 36.0785 14.8429 35.8831 14.8863 35.7908C14.9297 35.6985 15.0627 35.6198 15.1278 35.6253Z" fill="#85888A"/>
</g>
<g style="mix-blend-mode:multiply">
<path d="M15.0981 35.4717C15.0981 35.4717 14.862 35.5802 14.8159 35.7566C14.7697 35.933 14.7209 35.7675 14.748 35.6888C14.8322 35.4283 14.976 35.4934 15.0981 35.4744V35.4717Z" fill="#85888A"/>
</g>
<g style="mix-blend-mode:multiply">
<path d="M14.8672 35.4524C14.8672 35.4524 15.2336 35.4225 15.2743 35.3845C15.315 35.3493 15.3096 35.2977 15.2471 35.3031C15.1847 35.3086 14.8672 35.4497 14.8672 35.4497V35.4524Z" fill="#85888A"/>
</g>
<g style="mix-blend-mode:multiply">
<path d="M15.0225 35.2939C15.0225 35.2939 14.8461 35.3645 14.7783 35.4459C14.7104 35.5246 14.7213 35.6413 14.6806 35.606C14.6399 35.5708 14.648 35.4948 14.6942 35.4432C14.7403 35.3889 14.952 35.2967 15.0225 35.2939Z" fill="#85888A"/>
</g>
<g style="mix-blend-mode:multiply">
<path d="M14.7637 35.0144C14.7637 35.0144 14.9509 35.0986 15.0921 35.0497C15.2332 35.0009 15.2386 34.9412 15.2386 34.8923C15.2386 34.8435 15.1138 34.9412 15.0134 34.9764C14.9102 35.0144 14.7637 35.0117 14.7637 35.0117V35.0144Z" fill="#85888A"/>
</g>
<g style="mix-blend-mode:multiply">
<path d="M14.5789 34.7386C14.5789 34.7386 14.8069 34.6897 14.9534 34.6626C15.1 34.6355 15.1135 34.5757 15.119 34.5296C15.1244 34.4835 14.9887 34.5568 14.8828 34.5785C14.777 34.6002 14.5762 34.7359 14.5762 34.7359L14.5789 34.7386Z" fill="#85888A"/>
</g>
<g style="mix-blend-mode:multiply">
<path d="M14.9734 35.1479C14.9734 35.1479 14.8649 35.1398 14.7536 35.1534C14.6423 35.1669 14.5582 35.1696 14.5365 35.2158C14.5148 35.2619 14.531 35.2891 14.5935 35.2728C14.6586 35.2565 14.8838 35.1371 14.9707 35.1479H14.9734Z" fill="#85888A"/>
</g>
<g style="mix-blend-mode:multiply">
<path d="M14.5984 34.906C14.5984 34.906 14.6418 34.8815 14.7178 34.8815C14.7938 34.8815 15.1493 34.7893 15.1466 34.7024C15.1466 34.6156 14.726 34.8544 14.5957 34.906H14.5984Z" fill="#85888A"/>
</g>
<g style="mix-blend-mode:multiply">
<path d="M14.8434 34.8789C14.8434 34.8789 14.4906 35.2127 14.3929 35.153C14.2952 35.0933 14.7376 34.9983 14.8434 34.8789Z" fill="#85888A"/>
</g>
</g>
<mask id="mask0_18916_30473" style="mask-type:luminance" maskUnits="userSpaceOnUse" x="15" y="25" width="8" height="5">
<path d="M15.8634 25.2553C17.234 25.2417 20.8896 25.2146 22.0946 25.2906C22.0946 25.2906 21.7635 25.6705 21.7798 25.7356C21.796 25.7981 22.1678 25.969 22.2031 26.0966C22.2384 26.2241 21.6766 26.4575 21.6929 26.5227C21.7092 26.5851 22.1299 26.7262 22.1624 26.8212C22.1977 26.9162 21.5491 27.1496 21.5654 27.2446C21.5816 27.3396 22.0647 27.497 22.119 27.611C22.1706 27.7222 21.4649 27.8905 21.4812 27.9692C21.4975 28.0479 22.1868 28.1646 22.1814 28.2596C22.176 28.3546 21.4514 28.4875 21.4459 28.5662C21.4405 28.645 22.1081 28.8078 22.1461 28.8729C22.1841 28.9353 19.9859 29.1117 15.8634 29.1823C15.5622 29.1877 15.3125 29.0059 15.3125 28.7779L15.3315 25.6542C15.3315 25.4344 15.5676 25.258 15.8607 25.2553H15.8634Z" fill="white"/>
</mask>
<g mask="url(#mask0_18916_30473)">
<g style="mix-blend-mode:screen" opacity="0.85">
<path d="M13.3105 29.9583L13.4191 29.9909L16.6242 24.308L16.5157 24.2754L13.3105 29.9583Z" fill="#869BBA"/>
</g>
<g style="mix-blend-mode:screen" opacity="0.85">
<path d="M13.8691 29.9866L13.9777 30.0219L17.1855 24.339L17.0743 24.3037L13.8691 29.9866Z" fill="#869BBA"/>
</g>
<g style="mix-blend-mode:screen" opacity="0.85">
<path d="M14.4219 30.014L14.5304 30.0493L17.7383 24.3663L17.6297 24.3311L14.4219 30.014Z" fill="#869BBA"/>
</g>
<g style="mix-blend-mode:screen" opacity="0.85">
<path d="M14.9805 30.0452L15.0917 30.0778L18.2969 24.3949L18.1883 24.3623L14.9805 30.0452Z" fill="#869BBA"/>
</g>
<g style="mix-blend-mode:screen" opacity="0.85">
<path d="M15.5391 30.0726L15.6476 30.1079L18.8528 24.4249L18.7442 24.3896L15.5391 30.0726Z" fill="#869BBA"/>
</g>
<g style="mix-blend-mode:screen" opacity="0.85">
<path d="M16.0957 30.1029L16.2043 30.1354L19.4094 24.4525L19.3008 24.4199L16.0957 30.1029Z" fill="#869BBA"/>
</g>
<g style="mix-blend-mode:screen" opacity="0.85">
<path d="M16.6504 30.1282L16.7589 30.1635L19.9641 24.4806L19.8555 24.4453L16.6504 30.1282Z" fill="#869BBA"/>
</g>
<g style="mix-blend-mode:screen" opacity="0.85">
<path d="M17.207 30.1595L17.3156 30.1948L20.5207 24.5118L20.4122 24.4766L17.207 30.1595Z" fill="#869BBA"/>
</g>
<g style="mix-blend-mode:screen" opacity="0.85">
<path d="M17.7656 30.1868L17.8742 30.2221L21.0793 24.5392L20.9708 24.5039L17.7656 30.1868Z" fill="#869BBA"/>
</g>
<g style="mix-blend-mode:screen" opacity="0.85">
<path d="M18.3184 30.2161L18.4269 30.2514L21.632 24.5685L21.5235 24.5332L18.3184 30.2161Z" fill="#869BBA"/>
</g>
<g style="mix-blend-mode:screen" opacity="0.85">
<path d="M18.8613 30.2161L18.9699 30.2514L22.1777 24.5685L22.0692 24.5332L18.8613 30.2161Z" fill="#869BBA"/>
</g>
<g style="mix-blend-mode:screen" opacity="0.85">
<path d="M19.4102 30.2161L19.5187 30.2514L22.7238 24.5685L22.6153 24.5332L19.4102 30.2161Z" fill="#869BBA"/>
</g>
<g style="mix-blend-mode:screen" opacity="0.85">
<path d="M19.9492 30.2161L20.0578 30.2514L23.2629 24.5685L23.1544 24.5332L19.9492 30.2161Z" fill="#869BBA"/>
</g>
<g style="mix-blend-mode:screen" opacity="0.85">
<path d="M20.5 30.2161L20.6086 30.2514L23.8137 24.5685L23.7051 24.5332L20.5 30.2161Z" fill="#869BBA"/>
</g>
<g style="mix-blend-mode:screen" opacity="0.85">
<path d="M21.0391 30.2161L21.1476 30.2514L24.3528 24.5685L24.2442 24.5332L21.0391 30.2161Z" fill="#869BBA"/>
</g>
<g style="mix-blend-mode:screen" opacity="0.85">
<path d="M21.5879 30.2161L21.6964 30.2514L24.9016 24.5685L24.793 24.5332L21.5879 30.2161Z" fill="#869BBA"/>
</g>
<g style="mix-blend-mode:screen" opacity="0.85">
<path d="M22.1289 30.2161L22.2375 30.2514L25.4426 24.5685L25.334 24.5332L22.1289 30.2161Z" fill="#869BBA"/>
</g>
<g style="mix-blend-mode:screen" opacity="0.85">
<path d="M21.632 29.9583L21.5235 29.9909L18.3184 24.308L18.4269 24.2754L21.632 29.9583Z" fill="#869BBA"/>
</g>
<g style="mix-blend-mode:screen" opacity="0.85">
<path d="M22.1777 29.9583L22.0692 29.9909L18.8613 24.308L18.9699 24.2754L22.1777 29.9583Z" fill="#869BBA"/>
</g>
<g style="mix-blend-mode:screen" opacity="0.85">
<path d="M22.7238 29.9583L22.6153 29.9909L19.4102 24.308L19.5187 24.2754L22.7238 29.9583Z" fill="#869BBA"/>
</g>
<g style="mix-blend-mode:screen" opacity="0.85">
<path d="M23.2629 29.9583L23.1544 29.9909L19.9492 24.308L20.0578 24.2754L23.2629 29.9583Z" fill="#869BBA"/>
</g>
<g style="mix-blend-mode:screen" opacity="0.85">
<path d="M23.8137 29.9583L23.7051 29.9909L20.5 24.308L20.6086 24.2754L23.8137 29.9583Z" fill="#869BBA"/>
</g>
<g style="mix-blend-mode:screen" opacity="0.85">
<path d="M24.3528 29.9583L24.2442 29.9909L21.0391 24.308L21.1476 24.2754L24.3528 29.9583Z" fill="#869BBA"/>
</g>
<g style="mix-blend-mode:screen" opacity="0.85">
<path d="M24.9016 29.9583L24.793 29.9909L21.5879 24.308L21.6964 24.2754L24.9016 29.9583Z" fill="#869BBA"/>
</g>
<g style="mix-blend-mode:screen" opacity="0.85">
<path d="M25.4426 29.9583L25.334 29.9909L22.1289 24.308L22.2375 24.2754L25.4426 29.9583Z" fill="#869BBA"/>
</g>
<g style="mix-blend-mode:screen" opacity="0.85">
<path d="M21.0793 29.9866L20.9708 30.0219L17.7656 24.339L17.8742 24.3037L21.0793 29.9866Z" fill="#869BBA"/>
</g>
<g style="mix-blend-mode:screen" opacity="0.85">
<path d="M20.5207 30.014L20.4122 30.0493L17.207 24.3663L17.3156 24.3311L20.5207 30.014Z" fill="#869BBA"/>
</g>
<g style="mix-blend-mode:screen" opacity="0.85">
<path d="M19.9641 30.0452L19.8555 30.0778L16.6504 24.3949L16.7589 24.3623L19.9641 30.0452Z" fill="#869BBA"/>
</g>
<g style="mix-blend-mode:screen" opacity="0.85">
<path d="M19.4094 30.0726L19.3008 30.1079L16.0957 24.4249L16.2043 24.3896L19.4094 30.0726Z" fill="#869BBA"/>
</g>
<g style="mix-blend-mode:screen" opacity="0.85">
<path d="M18.8528 30.1029L18.7442 30.1354L15.5391 24.4525L15.6476 24.4199L18.8528 30.1029Z" fill="#869BBA"/>
</g>
<g style="mix-blend-mode:screen" opacity="0.85">
<path d="M18.2969 30.1282L18.1883 30.1635L14.9805 24.4806L15.0917 24.4453L18.2969 30.1282Z" fill="#869BBA"/>
</g>
<g style="mix-blend-mode:screen" opacity="0.85">
<path d="M17.7383 30.1595L17.6297 30.1948L14.4219 24.5118L14.5304 24.4766L17.7383 30.1595Z" fill="#869BBA"/>
</g>
<g style="mix-blend-mode:screen" opacity="0.85">
<path d="M17.1855 30.1868L17.0743 30.2221L13.8691 24.5392L13.9777 24.5039L17.1855 30.1868Z" fill="#869BBA"/>
</g>
<g style="mix-blend-mode:screen" opacity="0.85">
<path d="M16.6242 30.2161L16.5157 30.2514L13.3105 24.5685L13.4191 24.5332L16.6242 30.2161Z" fill="#869BBA"/>
</g>
</g>
<mask id="mask1_18916_30473" style="mask-type:luminance" maskUnits="userSpaceOnUse" x="33" y="25" width="8" height="5">
<path d="M39.9312 29.0604C38.5607 29.0333 34.9078 28.9546 33.7055 28.8433C33.7055 28.8433 34.0583 28.4715 34.042 28.4091C34.0285 28.3439 33.6675 28.1648 33.6377 28.0373C33.6105 27.9097 34.1831 27.6899 34.1696 27.6275C34.156 27.5623 33.7435 27.4103 33.7136 27.3154C33.6838 27.2177 34.3433 27.006 34.3324 26.911C34.3216 26.816 33.8466 26.6423 33.7978 26.531C33.7516 26.4171 34.4654 26.2705 34.4518 26.1918C34.4383 26.1131 33.7571 25.9747 33.7679 25.8797C33.7788 25.7847 34.5088 25.6707 34.5197 25.592C34.5278 25.5133 33.871 25.3315 33.8358 25.2664C33.8032 25.2039 36.0069 25.09 40.1293 25.1388C40.4306 25.1415 40.6721 25.3315 40.6585 25.5595L40.4794 28.6805C40.4659 28.9003 40.2216 29.0713 39.9312 29.0658V29.0604Z" fill="white"/>
</mask>
<g mask="url(#mask1_18916_30473)">
<g style="mix-blend-mode:screen" opacity="0.85">
<path d="M31.0859 29.6156L31.1945 29.6508L34.4023 23.9679L34.2938 23.9326L31.0859 29.6156Z" fill="#869BBA"/>
</g>
<g style="mix-blend-mode:screen" opacity="0.85">
<path d="M31.6445 29.6468L31.7558 29.6821L34.9609 23.9991L34.8524 23.9639L31.6445 29.6468Z" fill="#869BBA"/>
</g>
<g style="mix-blend-mode:screen" opacity="0.85">
<path d="M32.2012 29.6739L32.3097 29.7065L35.5149 24.0236L35.4063 23.9883L32.2012 29.6739Z" fill="#869BBA"/>
</g>
<g style="mix-blend-mode:screen" opacity="0.85">
<path d="M32.7598 29.7025L32.8683 29.7377L36.0735 24.0548L35.9649 24.0195L32.7598 29.7025Z" fill="#869BBA"/>
</g>
<g style="mix-blend-mode:screen" opacity="0.85">
<path d="M33.3145 29.7318L33.423 29.7643L36.6281 24.0814L36.5196 24.0488L33.3145 29.7318Z" fill="#869BBA"/>
</g>
<g style="mix-blend-mode:screen" opacity="0.85">
<path d="M33.8711 29.7601L33.9797 29.7954L37.1848 24.1124L37.0762 24.0771L33.8711 29.7601Z" fill="#869BBA"/>
</g>
<g style="mix-blend-mode:screen" opacity="0.85">
<path d="M34.4258 29.7884L34.5343 29.821L37.7395 24.138L37.6309 24.1055L34.4258 29.7884Z" fill="#869BBA"/>
</g>
<g style="mix-blend-mode:screen" opacity="0.85">
<path d="M34.9824 29.8167L35.091 29.852L38.2961 24.1691L38.1876 24.1338L34.9824 29.8167Z" fill="#869BBA"/>
</g>
<g style="mix-blend-mode:screen" opacity="0.85">
<path d="M35.541 29.846L35.6496 29.8813L38.8547 24.1984L38.7461 24.1631L35.541 29.846Z" fill="#869BBA"/>
</g>
<g style="mix-blend-mode:screen" opacity="0.85">
<path d="M36.0938 29.8763L36.2023 29.9089L39.4074 24.2259L39.2989 24.1934L36.0938 29.8763Z" fill="#869BBA"/>
</g>
<g style="mix-blend-mode:screen" opacity="0.85">
<path d="M36.6426 29.8763L36.7511 29.9089L39.9563 24.2259L39.8477 24.1934L36.6426 29.8763Z" fill="#869BBA"/>
</g>
<g style="mix-blend-mode:screen" opacity="0.85">
<path d="M37.1855 29.8763L37.2941 29.9089L40.4992 24.2259L40.3907 24.1934L37.1855 29.8763Z" fill="#869BBA"/>
</g>
<g style="mix-blend-mode:screen" opacity="0.85">
<path d="M37.7246 29.8763L37.8332 29.9089L41.041 24.2259L40.9325 24.1934L37.7246 29.8763Z" fill="#869BBA"/>
</g>
<g style="mix-blend-mode:screen" opacity="0.85">
<path d="M38.2754 29.8763L38.3839 29.9089L41.5891 24.2259L41.4805 24.1934L38.2754 29.8763Z" fill="#869BBA"/>
</g>
<g style="mix-blend-mode:screen" opacity="0.85">
<path d="M38.8145 29.8763L38.923 29.9089L42.1281 24.2259L42.0196 24.1934L38.8145 29.8763Z" fill="#869BBA"/>
</g>
<g style="mix-blend-mode:screen" opacity="0.85">
<path d="M39.3633 29.8763L39.4718 29.9089L42.677 24.2259L42.5684 24.1934L39.3633 29.8763Z" fill="#869BBA"/>
</g>
<g style="mix-blend-mode:screen" opacity="0.85">
<path d="M39.9043 29.8763L40.0129 29.9089L43.218 24.2259L43.1094 24.1934L39.9043 29.8763Z" fill="#869BBA"/>
</g>
<g style="mix-blend-mode:screen" opacity="0.85">
<path d="M39.4074 29.6156L39.2989 29.6508L36.0938 23.9679L36.2023 23.9326L39.4074 29.6156Z" fill="#869BBA"/>
</g>
<g style="mix-blend-mode:screen" opacity="0.85">
<path d="M39.9563 29.6156L39.8477 29.6508L36.6426 23.9679L36.7511 23.9326L39.9563 29.6156Z" fill="#869BBA"/>
</g>
<g style="mix-blend-mode:screen" opacity="0.85">
<path d="M40.4992 29.6156L40.3907 29.6508L37.1855 23.9679L37.2941 23.9326L40.4992 29.6156Z" fill="#869BBA"/>
</g>
<g style="mix-blend-mode:screen" opacity="0.85">
<path d="M41.041 29.6156L40.9325 29.6508L37.7246 23.9679L37.8332 23.9326L41.041 29.6156Z" fill="#869BBA"/>
</g>
<g style="mix-blend-mode:screen" opacity="0.85">
<path d="M41.5891 29.6156L41.4805 29.6508L38.2754 23.9679L38.3839 23.9326L41.5891 29.6156Z" fill="#869BBA"/>
</g>
<g style="mix-blend-mode:screen" opacity="0.85">
<path d="M42.1281 29.6156L42.0196 29.6508L38.8145 23.9679L38.923 23.9326L42.1281 29.6156Z" fill="#869BBA"/>
</g>
<g style="mix-blend-mode:screen" opacity="0.85">
<path d="M42.677 29.6156L42.5684 29.6508L39.3633 23.9679L39.4718 23.9326L42.677 29.6156Z" fill="#869BBA"/>
</g>
<g style="mix-blend-mode:screen" opacity="0.85">
<path d="M43.218 29.6156L43.1094 29.6508L39.9043 23.9679L40.0129 23.9326L43.218 29.6156Z" fill="#869BBA"/>
</g>
<g style="mix-blend-mode:screen" opacity="0.85">
<path d="M38.8547 29.6468L38.7461 29.6821L35.541 23.9991L35.6496 23.9639L38.8547 29.6468Z" fill="#869BBA"/>
</g>
<g style="mix-blend-mode:screen" opacity="0.85">
<path d="M38.2961 29.6739L38.1876 29.7065L34.9824 24.0236L35.091 23.9883L38.2961 29.6739Z" fill="#869BBA"/>
</g>
<g style="mix-blend-mode:screen" opacity="0.85">
<path d="M37.7395 29.7025L37.6309 29.7377L34.4258 24.0548L34.5343 24.0195L37.7395 29.7025Z" fill="#869BBA"/>
</g>
<g style="mix-blend-mode:screen" opacity="0.85">
<path d="M37.1848 29.7318L37.0762 29.7643L33.8711 24.0814L33.9797 24.0488L37.1848 29.7318Z" fill="#869BBA"/>
</g>
<g style="mix-blend-mode:screen" opacity="0.85">
<path d="M36.6281 29.7601L36.5196 29.7954L33.3145 24.1124L33.423 24.0771L36.6281 29.7601Z" fill="#869BBA"/>
</g>
<g style="mix-blend-mode:screen" opacity="0.85">
<path d="M36.0735 29.7884L35.9649 29.821L32.7598 24.138L32.8683 24.1055L36.0735 29.7884Z" fill="#869BBA"/>
</g>
<g style="mix-blend-mode:screen" opacity="0.85">
<path d="M35.5149 29.8167L35.4063 29.852L32.2012 24.1691L32.3097 24.1338L35.5149 29.8167Z" fill="#869BBA"/>
</g>
<g style="mix-blend-mode:screen" opacity="0.85">
<path d="M34.9609 29.846L34.8524 29.8813L31.6445 24.1984L31.7558 24.1631L34.9609 29.846Z" fill="#869BBA"/>
</g>
<g style="mix-blend-mode:screen" opacity="0.85">
<path d="M34.4023 29.8763L34.2938 29.9089L31.0859 24.2259L31.1945 24.1934L34.4023 29.8763Z" fill="#869BBA"/>
</g>
</g>
<g style="mix-blend-mode:screen">
<g style="mix-blend-mode:multiply">
<path d="M41.8047 33.8135C41.8047 33.8135 42.2498 33.9655 42.2145 34.0496C42.1792 34.1337 41.8047 33.8135 41.8047 33.8135Z" fill="#85888A"/>
</g>
<g style="mix-blend-mode:multiply">
<path d="M41.7402 33.8564C41.7402 33.8564 42.112 34.0383 42.074 34.1306C42.036 34.2228 41.7402 33.8564 41.7402 33.8564Z" fill="#85888A"/>
</g>
<g style="mix-blend-mode:multiply">
<path d="M41.6875 33.9756C41.6875 33.9756 41.9643 34.057 41.9426 34.1628C41.9236 34.266 41.6875 33.9756 41.6875 33.9756Z" fill="#85888A"/>
</g>
<g style="mix-blend-mode:multiply">
<path d="M41.7922 33.9692C41.7922 33.9692 41.6755 33.8688 41.6511 33.6408C41.6267 33.4101 41.5914 33.6137 41.6077 33.7195C41.6239 33.8281 41.7298 33.9529 41.7895 33.9692H41.7922Z" fill="#85888A"/>
</g>
<g style="mix-blend-mode:multiply">
<path d="M41.7277 34.1182C41.7277 34.1182 41.5405 33.9282 41.5378 33.7355C41.5378 33.5428 41.4563 33.6921 41.4591 33.7816C41.4753 34.0775 41.6219 34.0557 41.7277 34.1182Z" fill="#85888A"/>
</g>
<g style="mix-blend-mode:multiply">
<path d="M42.0645 33.5791C42.0645 33.5791 42.4661 33.7148 42.4444 33.7745C42.4227 33.8342 42.0645 33.5791 42.0645 33.5791Z" fill="#85888A"/>
</g>
<g style="mix-blend-mode:multiply">
<path d="M42.0176 33.6094C42.0176 33.6094 42.3568 33.7641 42.3351 33.8292C42.3107 33.8943 42.0176 33.6094 42.0176 33.6094Z" fill="#85888A"/>
</g>
<g style="mix-blend-mode:multiply">
<path d="M41.9863 33.6904C41.9863 33.6904 42.2323 33.7661 42.2269 33.8391C42.2215 33.9121 41.9863 33.6904 41.9863 33.6904Z" fill="#85888A"/>
</g>
<g style="mix-blend-mode:multiply">
<path d="M42.0716 33.6934C42.0716 33.6934 41.9604 33.6146 41.9169 33.4464C41.8735 33.2781 41.8627 33.422 41.8898 33.5007C41.9169 33.5794 42.0201 33.6771 42.0743 33.6934H42.0716Z" fill="#85888A"/>
</g>
<g style="mix-blend-mode:multiply">
<path d="M42.0357 33.7987C42.0357 33.7987 41.8539 33.6494 41.8321 33.5083C41.8104 33.3672 41.7562 33.473 41.7697 33.5381C41.8159 33.7525 41.938 33.7471 42.0357 33.7987Z" fill="#85888A"/>
</g>
<g style="mix-blend-mode:multiply">
<path d="M41.5156 34.1279C41.5156 34.1279 41.8386 34.2799 41.8684 34.3315C41.8983 34.383 41.882 34.4319 41.8277 34.4048C41.7734 34.3776 41.5156 34.1279 41.5156 34.1279Z" fill="#85888A"/>
</g>
<g style="mix-blend-mode:multiply">
<path d="M41.3281 34.3018C41.3281 34.3018 41.5887 34.356 41.6511 34.432C41.7135 34.508 41.7352 34.5759 41.7216 34.6519C41.7054 34.7278 41.6864 34.546 41.6131 34.4646C41.5398 34.3832 41.3308 34.3018 41.3308 34.3018H41.3281Z" fill="#85888A"/>
</g>
<g style="mix-blend-mode:multiply">
<path d="M41.6019 34.3352C41.6019 34.3352 41.4581 34.2022 41.4147 34.0991C41.3712 33.9959 41.4065 33.8792 41.3604 33.9037C41.3142 33.9281 41.3061 34.0041 41.336 34.0746C41.3658 34.1452 41.5368 34.3108 41.5992 34.3352H41.6019Z" fill="#85888A"/>
</g>
<g style="mix-blend-mode:multiply">
<path d="M41.1738 34.5537C41.1738 34.5537 41.3801 34.5537 41.5022 34.6568C41.6243 34.7573 41.6108 34.817 41.5972 34.8604C41.5836 34.9038 41.4914 34.7654 41.4045 34.6894C41.3177 34.6134 41.1738 34.5537 41.1738 34.5537Z" fill="#85888A"/>
</g>
<g style="mix-blend-mode:multiply">
<path d="M41.5444 34.5483C41.5444 34.5483 41.463 34.4343 41.3653 34.3447C41.2676 34.2552 41.2025 34.1765 41.1563 34.2117C41.1129 34.247 41.1075 34.2932 41.1672 34.3366C41.2269 34.38 41.4766 34.4533 41.5417 34.5483H41.5444Z" fill="#85888A"/>
</g>
<g style="mix-blend-mode:multiply">
<path d="M41.0371 34.7041C41.0371 34.7041 41.1375 34.7312 41.2162 34.7502C41.2949 34.7692 41.6477 34.9402 41.6287 35.0189C41.6097 35.0976 41.2379 34.7937 41.0371 34.7041Z" fill="#85888A"/>
</g>
<g style="mix-blend-mode:multiply">
<path d="M41.3876 34.5486C41.3876 34.5486 41.0782 34.2745 40.9751 34.3559C40.8719 34.4373 41.2953 34.4455 41.3876 34.5486Z" fill="#85888A"/>
</g>
<g style="mix-blend-mode:multiply">
<path d="M40.9199 34.8389C40.9199 34.8389 41.2782 34.8633 41.4736 35.0668C41.669 35.2704 41.4193 35.0831 41.2782 34.9936C41.137 34.9067 40.9226 34.8389 40.9226 34.8389H40.9199Z" fill="#85888A"/>
</g>
<g style="mix-blend-mode:multiply">
<path d="M41.3262 34.7409C41.3262 34.7409 41.0277 34.4261 40.8676 34.4966C40.7699 34.5373 40.8757 34.5102 41.0386 34.5971C41.2014 34.6839 41.3262 34.7409 41.3262 34.7409Z" fill="#85888A"/>
</g>
<g style="mix-blend-mode:multiply">
<path d="M40.9278 35.444C40.9278 35.444 40.6293 35.1292 40.4692 35.1998C40.3715 35.2405 40.4773 35.2133 40.6401 35.3002C40.803 35.387 40.9278 35.444 40.9278 35.444Z" fill="#85888A"/>
</g>
<g style="mix-blend-mode:multiply">
<path d="M40.564 36.0166C40.564 36.0166 40.3261 36.2302 40.3585 36.1382C40.3909 36.0463 40.564 36.0166 40.564 36.0166Z" fill="#85888A"/>
</g>
<g style="mix-blend-mode:multiply">
<path d="M40.5897 35.9728C40.5897 35.9728 40.314 36.0053 40.3464 35.9188C40.3761 35.8323 40.5897 35.9728 40.5897 35.9728Z" fill="#85888A"/>
</g>
<g style="mix-blend-mode:multiply">
<path d="M40.6319 35.8693C40.6319 35.8693 40.3724 35.8396 40.4076 35.7422C40.4427 35.6449 40.6319 35.8693 40.6319 35.8693Z" fill="#85888A"/>
</g>
<g style="mix-blend-mode:multiply">
<path d="M40.6944 35.7047C40.6944 35.7047 40.3931 35.6939 40.4067 35.5934C40.4203 35.493 40.6944 35.7047 40.6944 35.7047Z" fill="#85888A"/>
</g>
<g style="mix-blend-mode:multiply">
<path d="M40.5645 36.0166C40.5645 36.0166 40.6567 36.0519 40.6649 36.1414C40.6703 36.231 40.6703 36.2961 40.6974 36.2663C40.7246 36.2364 40.6974 36.1062 40.6594 36.0627C40.6214 36.0193 40.5645 36.0166 40.5645 36.0166Z" fill="#85888A"/>
</g>
<g style="mix-blend-mode:multiply">
<path d="M40.5828 35.7314C40.5828 35.7314 40.7158 35.7939 40.7565 36.0001C40.7999 36.2064 40.8216 36.011 40.7945 35.916C40.7673 35.821 40.6479 35.7314 40.5801 35.7314H40.5828Z" fill="#85888A"/>
</g>
<g style="mix-blend-mode:multiply">
<path d="M40.6406 35.5799C40.6406 35.5799 40.855 35.7101 40.874 35.8865C40.8903 36.0657 40.9663 35.9082 40.9527 35.8241C40.912 35.5554 40.76 35.6097 40.6406 35.5771V35.5799Z" fill="#85888A"/>
</g>
<g style="mix-blend-mode:multiply">
<path d="M40.8698 35.5827C40.8698 35.5827 40.5115 35.5176 40.479 35.4796C40.4464 35.4416 40.4573 35.39 40.517 35.4036C40.5767 35.4144 40.8698 35.5854 40.8698 35.5854V35.5827Z" fill="#85888A"/>
</g>
<g style="mix-blend-mode:multiply">
<path d="M40.7402 35.4111C40.7402 35.4111 40.9031 35.498 40.9573 35.5848C41.0116 35.6717 40.9818 35.7857 41.0279 35.7531C41.074 35.7205 41.0768 35.6472 41.0415 35.5902C41.0035 35.5333 40.8081 35.422 40.7402 35.4138V35.4111Z" fill="#85888A"/>
</g>
<g style="mix-blend-mode:multiply">
<path d="M41.0439 35.1584C41.0439 35.1584 40.8458 35.2235 40.7128 35.1638C40.5798 35.1041 40.5852 35.0417 40.5934 34.9928C40.6015 34.944 40.7074 35.0525 40.8024 35.0987C40.8973 35.1448 41.0439 35.1584 41.0439 35.1584Z" fill="#85888A"/>
</g>
<g style="mix-blend-mode:multiply">
<path d="M41.2743 34.9012C41.2743 34.9012 41.0572 34.8307 40.9134 34.7927C40.7722 34.7547 40.7695 34.6923 40.7695 34.6461C40.7695 34.5973 40.8944 34.6868 40.9948 34.7167C41.0979 34.7493 41.2716 34.9012 41.2716 34.9012H41.2743Z" fill="#85888A"/>
</g>
<g style="mix-blend-mode:multiply">
<path d="M40.8152 35.2734C40.8152 35.2734 40.9238 35.2734 41.0323 35.3006C41.1409 35.325 41.2223 35.3331 41.2359 35.382C41.2494 35.4308 41.2304 35.4553 41.168 35.4336C41.1056 35.4118 40.9021 35.2734 40.8125 35.2734H40.8152Z" fill="#85888A"/>
</g>
<g style="mix-blend-mode:multiply">
<path d="M41.2303 35.067C41.2303 35.067 41.1896 35.0398 41.1136 35.0317C41.0376 35.0235 40.7011 34.9014 40.7174 34.8146C40.7337 34.7277 41.1109 35.0045 41.2303 35.067Z" fill="#85888A"/>
</g>
<g style="mix-blend-mode:multiply">
<path d="M40.9902 35.0186C40.9902 35.0186 41.286 35.3822 41.3919 35.3334C41.4977 35.2845 41.0771 35.1488 40.9902 35.0186Z" fill="#85888A"/>
</g>
</g>
</g>
<defs>
<clipPath id="clip0_18916_30473">
<rect width="56" height="56" rx="28" fill="white"/>
</clipPath>
</defs>
</svg>
