<svg width="56" height="56" viewBox="0 0 56 56" fill="none" xmlns="http://www.w3.org/2000/svg">
<g clip-path="url(#clip0_18916_30916)">
<rect width="56" height="56" rx="28" fill="white"/>
<path d="M11.9349 56.2113C11.6348 56.8797 11.2109 57.4702 10.6515 57.9651C10.618 57.996 10.5807 58.0276 10.5434 58.0593C6.22079 57.3125 3.3481 56.0378 1.43766 54.4797C-1.92942 51.7441 -2.32869 48.1458 -2.43497 45.037C-2.60129 40.158 -0.682957 38.8309 4.77034 37.4527L8.13635 38.7408C8.13635 38.7408 9.46907 41.1286 10.6786 44.2877C12.1324 48.0861 13.3987 53.0003 11.9387 56.2105L11.9349 56.2113Z" fill="#F6C1CD"/>
<path d="M50.1058 47.3969C38.8083 59.0763 17.0801 58.8642 11.0745 58.0597C10.9349 58.0408 10.793 58.0104 10.6526 57.9678C9.70326 57.698 8.68923 56.9431 7.71003 55.9138C4.9166 52.9635 2.44414 47.7531 2.79908 45.0991C3.29581 41.3787 6.9547 43.7906 10.6712 44.2881C19.9511 45.5343 21.4631 44.2476 27.6104 42.0236C30.7707 40.8776 33.3836 40.0725 35.3442 39.0837C35.3625 39.0759 35.38 39.0643 35.3983 39.0565C35.6479 38.9329 35.8806 38.8049 36.1041 38.6708C36.673 38.3375 37.176 37.9739 37.6066 37.5695C39.2081 36.0609 39.9705 34.3912 41.1751 33.3916C46.0443 29.3507 52.5183 29.6633 53.9586 35.6661C54.7658 39.0203 53.1037 44.2945 50.102 47.3977L50.1058 47.3969Z" fill="#F6C1CD"/>
<path d="M50.1065 47.3988C38.809 59.0782 17.0808 58.8661 11.0752 58.0616C10.9356 58.0427 10.7937 58.0123 10.6533 57.9697C10.6198 58.0005 10.5825 58.0322 10.5452 58.0639C6.22258 57.3171 3.34989 56.0424 1.43945 54.4843C2.68546 55.0116 4.84849 55.576 7.71455 55.9149C8.99005 56.0652 10.4039 56.1708 11.9397 56.2112C19.4561 56.4153 29.8386 55.0359 40.8006 49.5081C48.5093 45.6202 47.9601 40.5294 47.1165 37.7889C46.3742 35.3824 38.6105 37.5628 36.1124 38.6711C36.6814 38.3378 37.1843 37.9742 37.6149 37.5698C39.2164 36.0612 39.9789 34.3915 41.1834 33.3919C46.0526 29.351 52.5266 29.6636 53.9669 35.6663C54.7742 39.0206 53.1121 44.2948 50.1103 47.398L50.1065 47.3988Z" fill="#F3AEBD"/>
<path d="M33.575 0.855469C35.1488 3.02284 34.7114 9.73583 32.8682 11.0323C31.021 12.3289 29.748 15.7654 29.666 16.9604C29.5839 18.1554 24.5697 15.7771 24.5736 15.5311C24.5775 15.2851 24.5072 9.92328 25.0149 9.4859C25.5226 9.04852 33.575 0.859378 33.575 0.859378V0.855469Z" fill="#2C2C2C"/>
<path d="M8.10588 5.69043C5.095 7.49462 3.17756 7.31498 3.43139 11.1694C4.25929 19.9912 1.10782 16.4297 1.05705 21.6821C1.01019 26.7354 5.01299 30.4766 8.87911 27.8367C12.7452 25.1968 16.2326 7.70941 16.2326 7.70941L8.10588 5.69043Z" fill="#2C2C2C"/>
<path d="M38.5668 36.7474C38.5668 36.7474 34.685 36.4858 35.0951 35.6306C35.5012 34.7753 32.8301 28.4841 32.998 28.3045C33.162 28.1248 31.5023 26.4261 31.5023 26.4261C28.4992 22.4858 24.6292 15.8118 24.3558 14.734C24.0825 13.6523 28.5227 14.8433 29.6395 15.5814C31.967 17.124 31.928 19.2601 32.7051 21.9117C32.9785 22.8372 33.3495 23.8252 33.9587 24.8757C35.4817 27.5039 37.1101 30.2571 37.6803 31.2646C37.692 31.2841 37.7037 31.3036 37.7154 31.3271C40.2577 35.8454 38.5707 36.7514 38.5707 36.7514L38.5668 36.7474Z" fill="#FB9897"/>
<g style="mix-blend-mode:multiply">
<path d="M37.7111 31.3265L35.9694 32.0841L31.0762 25.3555C31.0762 25.3555 32.2594 23.3756 32.7046 21.915C32.978 22.8406 33.349 23.8286 33.9582 24.8791C35.4812 27.5072 37.1097 30.2604 37.6798 31.2679C37.6915 31.2874 37.7033 31.307 37.715 31.3304L37.7111 31.3265Z" fill="#FFF0F0"/>
</g>
<path d="M34.053 43.5143C33.4399 43.5143 10.2627 31.4161 10.2627 31.4161C10.2627 31.4161 8.52488 19.7864 10.5634 15.9125C11.5045 14.12 17.8723 11.1939 24.3525 13.6163C24.6493 13.6319 24.9266 13.671 25.1844 13.7334C28.8786 14.5926 29.2653 19.6185 30.0463 21.3173C32.1043 25.7926 32.6784 25.4021 33.9202 26.5541C34.3771 26.9798 35.5135 28.4989 35.576 29.0651C35.5877 29.1628 35.5994 29.2643 35.6073 29.3619C36.7554 40.0973 34.6583 43.5143 34.053 43.5143Z" fill="#FFBF9D"/>
<g style="mix-blend-mode:multiply">
<path d="M14.6717 23.063C16.7766 22.2352 17.6943 22.5671 18.2215 23.9808C18.7487 25.3944 16.4485 30.5024 16.2299 30.6274C16.0151 30.7523 14.0078 30.272 14.0078 30.272L14.6678 23.063H14.6717Z" fill="#FBF2F1"/>
</g>
<g style="mix-blend-mode:multiply">
<path d="M35.6134 29.358C35.3127 29.5884 35.0784 29.6587 34.9612 29.315C34.2934 27.3234 30.5288 26.3979 30.4976 25.5231C30.4429 24.0274 26.6158 16.3303 24.8468 16.014C23.0778 15.7016 24.058 14.2957 24.058 14.2957L25.1865 13.7295C25.9363 13.9052 26.5495 14.2489 27.0571 14.7058C27.639 15.2252 28.0842 15.8891 28.4357 16.6037C29.2909 18.3337 29.6072 20.3566 30.0485 21.3133C32.1065 25.7887 32.6806 25.3982 33.9224 26.5502C34.3793 26.9758 35.5157 28.495 35.5782 29.0612C35.5899 29.1588 35.6016 29.2604 35.6095 29.358H35.6134Z" fill="#FBF2F1"/>
</g>
<path d="M31.3337 24.4925C30.9666 24.1254 30.7245 23.6763 30.4628 23.2389C30.2051 22.8015 29.9591 22.3603 29.7208 21.9151C29.2405 21.0286 28.7758 20.1304 28.3111 19.24C27.8464 18.3496 27.3738 17.4593 26.8857 16.5884C26.4014 15.7137 25.8977 14.8467 25.3509 14.011C25.2689 13.886 25.3041 13.7181 25.429 13.6361C25.554 13.5541 25.7219 13.5892 25.8039 13.7142C26.3702 14.5577 26.8935 15.4286 27.3855 16.3111C27.8698 17.2015 28.3306 18.0997 28.7836 18.9979C29.2366 19.8961 29.6857 20.7982 30.1543 21.6847C30.3847 22.1299 30.6229 22.5711 30.869 23.0046C31.1033 23.4498 31.4157 23.8364 31.5133 24.3714V24.3948C31.5289 24.4534 31.4899 24.512 31.4313 24.5198C31.3962 24.5276 31.361 24.512 31.3337 24.4886V24.4925Z" fill="white"/>
<g style="mix-blend-mode:multiply">
<path d="M28.4367 16.6079C27.3472 15.8932 26.199 16.2642 25.5625 16.4165C25.5625 16.4165 25.5703 15.0458 25.5625 15.0497C25.5742 15.0497 26.6403 14.8037 27.0582 14.71C27.6401 15.2293 28.0852 15.8932 28.4367 16.6079Z" fill="#FBF2F1"/>
</g>
<path d="M25.1438 29.2727C23.5543 28.1051 19.1025 24.6568 18.0754 23.0635C19.0556 27.0389 15.2402 30.0381 15.2402 30.0381C15.2402 30.0381 21.2854 30.5575 21.2854 30.3622C21.2854 30.167 25.1398 29.2766 25.1398 29.2766L25.1438 29.2727Z" fill="white"/>
<path d="M11.766 30.015C13.9529 30.4368 15.964 29.0895 18.9202 28.1093C21.8765 27.1252 25.6059 28.9138 27.7733 31.624C31.6824 36.5171 22.0639 41.4884 19.5607 38.8095C19.1624 38.3838 10.4655 32.526 10.817 32.1629C11.1685 31.7997 11.7699 30.015 11.7699 30.015H11.766Z" fill="white"/>
<path d="M17.2592 31.4643C17.2631 32.5421 17.1733 33.5848 16.9663 34.5377C16.9038 34.8188 16.8335 35.1117 16.7476 35.4124C15.3222 40.6063 10.8196 48.6549 10.7961 48.7291C10.761 48.7291 9.34342 41.7271 9.34342 41.7271C9.34342 41.7271 8.84747 23.7789 8.58191 23.5759C8.31246 23.3728 6.0787 20.0729 7.33226 17.8782C8.58973 15.6835 10.7961 15.3203 10.7961 15.3203C10.7961 15.3203 11.1593 17.4096 13.2213 19.3114C15.373 21.2991 17.2358 26.7469 17.2592 31.4604V31.4643Z" fill="#FB9897"/>
<g style="mix-blend-mode:multiply">
<path d="M17.2597 31.4631C17.2636 32.5409 17.1738 33.5836 16.9668 34.5364C16.9043 34.8176 16.834 35.1105 16.7481 35.4112C16.2287 36.0712 15.7601 36.6101 15.6234 36.6101C15.268 36.6179 12.1049 33.8023 12.1049 33.8023C12.1049 33.8023 9.99606 30.5688 10.7966 30.0143C11.5972 29.4597 13.1085 28.5576 13.1085 28.5576C14.6784 29.6003 15.9475 30.272 15.9475 30.272C15.9475 30.272 15.7913 31.1116 16.299 31.4631C16.8067 31.8145 17.2558 31.4631 17.2558 31.4631H17.2597Z" fill="#FFF0F0"/>
</g>
<path d="M21.1127 28.3161C21.0228 28.238 18.8672 26.3869 17.0708 21.2282C15.2432 15.964 11.8105 13.4452 11.7754 13.4218L12.0917 12.9805C12.2362 13.0859 15.6962 15.6165 17.5824 21.0525C19.328 26.0745 21.4368 27.8865 21.4602 27.9021L21.1127 28.32V28.3161Z" fill="white"/>
<path d="M23.7505 17.8542C23.6334 17.8542 23.524 17.8308 23.4381 17.7761C23.3053 17.6863 23.2506 17.5379 23.2663 17.3309C23.2702 17.2762 23.3209 17.2294 23.3756 17.2372C23.4303 17.2411 23.4732 17.2919 23.4693 17.3465C23.4537 17.5418 23.5279 17.5887 23.5552 17.6082C23.7466 17.737 24.2543 17.5691 24.5315 17.4285C24.5823 17.4012 24.6448 17.4246 24.6682 17.4754C24.6917 17.5262 24.6721 17.5847 24.6214 17.6121C24.5589 17.6433 24.1176 17.8581 23.7544 17.8581L23.7505 17.8542Z" fill="#E78762"/>
<path d="M29.953 32.1037C30.1209 31.9319 30.3162 31.7249 30.3709 31.6039C30.4255 31.4828 30.8785 30.9322 30.8785 30.9322C30.8785 30.9322 31.1636 30.2136 30.6833 29.5575C30.5895 29.4326 30.3591 29.4482 30.3201 29.4365C30.281 29.4209 30.3006 29.2373 30.1131 29.1553C29.9257 29.0733 29.7304 29.0772 29.7304 29.0772C29.7304 29.0772 29.6093 28.8351 29.4805 28.8702C29.3516 28.9054 29.2071 28.9718 29.2071 28.9718C29.2071 28.9718 29.1524 28.6867 29.0197 28.6945C28.8869 28.7023 28.7112 28.7804 28.7112 28.7804L28.6096 29.413C28.6096 29.413 27.8052 29.3388 27.2858 29.7216C26.4969 30.2995 26.4305 30.8306 26.4305 30.8306C26.4305 30.8306 23.9937 32.0998 23.775 32.6348C23.5563 33.1698 29.953 32.1115 29.953 32.1115V32.1037Z" fill="#F4B6A3"/>
<path d="M26.4288 30.7535C26.3703 30.7535 26.3156 30.7105 26.3078 30.652C26.1477 29.7655 27.8035 29.2891 27.823 29.2852C27.8386 29.2813 27.8542 29.2813 27.8659 29.2852L28.6235 29.3594C28.6938 29.3672 28.7407 29.4257 28.7368 29.496C28.729 29.5663 28.6704 29.6171 28.6001 29.6093L27.8659 29.5351C27.5848 29.6171 26.4523 30.0506 26.5538 30.6129C26.5655 30.6793 26.5226 30.7457 26.4523 30.7574C26.4445 30.7574 26.4367 30.7574 26.4288 30.7574V30.7535Z" fill="#E78762"/>
<path d="M28.6994 29.4413C28.6447 29.4413 28.594 29.4023 28.5784 29.3476C28.551 29.2304 28.4885 28.9375 28.5432 28.8048C28.6018 28.6681 28.8205 28.5744 28.9962 28.6134C29.1954 28.6564 29.3321 28.8243 29.3477 28.8438C29.3906 28.8985 29.3828 28.9766 29.3281 29.0196C29.2735 29.0625 29.1954 29.0547 29.1524 29C29.1251 28.9688 29.0392 28.879 28.9454 28.8594C28.8712 28.8477 28.7853 28.8868 28.7697 28.9102C28.758 28.9493 28.7814 29.1289 28.8205 29.2929C28.8361 29.3593 28.797 29.4257 28.7307 29.4452C28.7189 29.4452 28.7111 29.4452 28.6994 29.4452V29.4413Z" fill="#E78762"/>
<path d="M28.7277 32.5899C28.673 32.5899 28.6222 32.5548 28.6066 32.5001C28.5871 32.4337 28.6261 32.3634 28.6925 32.3439L29.8797 31.9963L30.7701 30.8677C30.813 30.7623 31.0317 30.1297 30.5904 29.6376C30.5358 29.5751 30.3795 29.5556 30.321 29.5556C30.2507 29.5556 30.196 29.5009 30.196 29.4306C30.196 29.3603 30.2507 29.3057 30.321 29.3057C30.3522 29.3096 30.6334 29.3057 30.7779 29.4697C31.3558 30.114 31.0083 30.9419 30.9966 30.9771C30.9927 30.9888 30.9848 30.9966 30.9809 31.0044L30.0554 32.176C30.0398 32.1955 30.0164 32.2111 29.9929 32.2189L28.7667 32.5782C28.7667 32.5782 28.7433 32.5821 28.7316 32.5821L28.7277 32.5899Z" fill="#E78762"/>
<path d="M30.4329 30.8356C30.3704 30.8356 30.3196 30.7888 30.3079 30.7263C30.304 30.695 30.3079 30.6443 30.3275 30.4295C30.3431 30.2733 30.3743 29.9765 30.3665 29.9218L30.3548 29.8906C30.1869 29.4454 30.0892 29.297 30.0346 29.254C29.9252 29.1642 29.7651 29.1994 29.7612 29.1994C29.6948 29.215 29.6284 29.1759 29.6089 29.1095C29.5933 29.0432 29.6323 28.9729 29.6987 28.9572C29.7104 28.9572 29.9838 28.8869 30.1908 29.0627C30.3392 29.1837 30.4798 29.5235 30.5852 29.8047L30.6008 29.8476C30.6242 29.9101 30.6203 30.0194 30.5735 30.4607C30.5618 30.5779 30.55 30.6716 30.55 30.7029C30.5618 30.7692 30.5149 30.8278 30.4446 30.8395C30.4368 30.8395 30.4329 30.8395 30.4251 30.8395L30.4329 30.8356Z" fill="#E78762"/>
<path d="M30.1636 29.3045C30.109 29.3045 30.0621 29.2693 30.0426 29.2146C30.0348 29.2186 29.9527 29.2146 29.902 29.2068C29.7809 29.1951 29.6403 29.1873 29.5388 29.1014C29.4412 29.0194 29.2732 29.0428 29.2732 29.0428C29.2069 29.0584 29.1405 29.0077 29.1288 28.9413C29.117 28.8749 29.1639 28.8085 29.2303 28.7968C29.2576 28.789 29.5154 28.7538 29.7028 28.9139C29.7419 28.9452 29.8434 28.9569 29.9215 28.9608C30.0621 28.9725 30.2339 28.9881 30.2808 29.1443C30.3003 29.2107 30.2613 29.281 30.1988 29.3006C30.1871 29.3006 30.1753 29.3045 30.1636 29.3045Z" fill="#E78762"/>
<path d="M29.8427 29.6639C29.7763 29.6639 29.7217 29.6092 29.7178 29.5428C29.7139 29.4022 29.585 29.164 29.5381 29.0859C29.503 29.0273 29.5186 28.9492 29.5772 28.9141C29.6357 28.8789 29.7139 28.8946 29.749 28.9531C29.7724 28.9883 29.9599 29.3007 29.9677 29.5311C29.9677 29.6014 29.9169 29.6561 29.8466 29.66L29.8427 29.6639Z" fill="#E78762"/>
<path d="M28.5969 29.9024C28.5969 29.9024 28.5774 29.9024 28.5696 29.9024C28.5032 29.8868 28.4602 29.8204 28.4759 29.754L28.5774 29.2932C28.593 29.2268 28.6594 29.1839 28.7258 29.1995C28.7922 29.2151 28.8351 29.2815 28.8195 29.3479L28.718 29.8087C28.7063 29.8673 28.6555 29.9063 28.5969 29.9063V29.9024Z" fill="#E78762"/>
<g style="mix-blend-mode:multiply">
<path d="M37.8136 28.1829C37.7553 28.1284 37.693 28.0779 37.623 28.0234C37.6892 28.0545 37.7553 28.109 37.8136 28.1829Z" fill="#FBF2F1"/>
</g>
<path d="M32.8683 36.3882L32.1028 36.3764L27.5143 36.2983C27.5143 36.2983 27.112 36.4272 26.5028 36.5561C25.4484 36.7787 23.777 37.0013 22.5078 36.5561C22.1407 36.4272 21.8166 36.2476 21.5433 35.9937C21.5237 35.982 21.512 35.9664 21.4964 35.9547C21.3441 35.8063 21.2113 35.6618 21.0903 35.5173C20.5787 34.8964 20.3483 34.2872 20.4303 33.717C20.5552 32.8579 21.391 32.0768 23.0585 31.4715C24.4331 30.9717 25.7101 30.4093 26.9558 30.7296C27.1901 30.7881 27.4205 30.8819 27.6549 31.0107C28.4242 31.4364 29.0646 31.8113 29.6074 32.1667C29.6231 32.1784 29.6387 32.1901 29.6543 32.1979C30.7985 32.9555 31.5014 33.6311 32.0404 34.5371C32.2708 34.9276 32.4738 35.3533 32.6652 35.8532C32.7355 36.025 32.8019 36.2046 32.8683 36.396V36.3882Z" fill="#F27373"/>
<path d="M35.838 43.1806C35.6037 43.329 34.9164 43.6297 34.4712 43.7664C31.2768 44.7388 23.704 46.5781 17.2996 46.5C15.7023 46.4805 14.2184 46.418 12.9453 46.3047C11.6253 46.1876 10.5358 46.0158 9.79772 45.7853C5.08418 44.3131 5.46298 40.3806 5.96284 37.5415C6.11515 36.6668 6.72435 36.2216 7.56397 36.0263C7.80999 35.9717 8.07554 35.9365 8.35281 35.9209C8.81362 35.8936 9.31739 35.9131 9.83678 35.956C9.97736 35.9677 10.1179 35.9834 10.2624 35.999C11.2817 36.1161 12.3361 36.3153 13.2499 36.4598C13.6521 36.5223 14.027 36.577 14.3629 36.6043C15.6321 36.7175 16.6786 36.3387 17.8268 35.9873C17.8931 35.9677 17.9595 35.9482 18.0298 35.9248C18.9085 35.6592 19.8574 35.4249 21.0134 35.4405C21.0837 35.4405 21.1579 35.4406 21.2321 35.4445C21.5874 35.4562 21.9623 35.4952 22.3607 35.5616C22.3607 35.5616 22.634 35.4171 23.087 35.2023C24.7389 34.4174 28.773 32.664 30.5967 33.402C31.1551 33.6246 31.6901 34.0113 32.1783 34.4643C32.4985 34.7571 32.7992 35.0813 33.0765 35.4093C34.1504 36.6824 34.8572 38.0336 34.8572 38.0336C34.8572 38.0336 39.3917 41.0484 36.619 42.7901L35.838 43.1806Z" fill="#F27373"/>
<path d="M18.091 37.0753C18.0675 37.3447 17.9348 38.7467 17.4271 39.9768C17.1733 40.6017 16.8179 41.1796 16.3415 41.5467C15.9705 41.8279 15.5214 41.9841 14.9825 41.9333C14.5021 41.8904 13.8187 41.4335 13.1119 40.7501C11.9169 39.598 10.6516 37.7978 10.1869 36.2513C10.1674 36.1888 10.1478 36.1263 10.1244 36.0678C9.70266 34.9079 8.73027 33.8301 8.54282 33.5411L7.96095 33.3966L4.89148 32.639L4.49706 32.5414L3.6926 32.8226C3.61449 32.8577 3.53248 32.885 3.45048 32.9085L3.41142 32.9202C2.89594 33.0217 2.35703 32.8694 1.98994 32.4672L0.576268 30.788C0.318526 30.5068 0.0217327 29.304 0.197465 28.9369C0.427871 28.4566 1.28701 28.3277 1.76735 28.562C1.76735 28.562 2.66163 29.2845 2.67335 29.2884L3.93472 29.7765L6.21143 29.3274L9.03097 29.0775C9.39024 29.0424 9.71828 29.0072 10.0229 28.9877C10.9836 28.933 11.7255 29.0423 12.5886 29.8156C13.4594 30.5966 14.3303 31.5299 15.1152 32.4633C15.8611 33.3576 16.5289 34.2519 17.0405 35.0212C17.2982 35.4039 17.513 35.7554 17.6848 36.06C17.9582 36.5481 18.1027 36.9113 18.0871 37.0831L18.091 37.0753Z" fill="#F27373"/>
<path d="M10.5658 38.0085C10.5189 38.0085 10.4721 37.9811 10.4526 37.9382L8.39844 33.5253L8.44139 33.4668C8.48045 33.4121 9.4255 32.1156 10.2104 32.3382C10.2768 32.3577 10.3159 32.428 10.2964 32.4944C10.2768 32.5608 10.2065 32.5998 10.1401 32.5803C9.6559 32.4358 8.96859 33.1895 8.68742 33.5566L10.6791 37.8367C10.7064 37.8991 10.6791 37.9733 10.6205 38.0007C10.6049 38.0085 10.5853 38.0124 10.5697 38.0124L10.5658 38.0085Z" fill="#DF9F30"/>
<path d="M-0.427323 35.5964L1.9275 37.7989C2.63043 38.2519 3.56767 38.0488 4.02067 37.342C4.47367 36.639 4.2706 35.7018 3.56377 35.2488C3.41927 35.1551 3.07562 34.7021 2.91941 34.663L0.96292 33.8312C0.435721 33.7023 -0.724116 34.0069 -0.852987 34.538C-0.954521 34.9559 -0.770978 35.3777 -0.427323 35.5964Z" fill="#F27373"/>
<path d="M8.09761 33.4595C8.03513 33.4595 7.98046 33.4126 7.97265 33.3462C7.96874 33.2915 7.85159 31.9911 8.88255 30.8352C8.92942 30.7844 9.00752 30.7805 9.05829 30.8235C9.10905 30.8703 9.11296 30.9484 9.07 30.9992C8.11714 32.0692 8.22258 33.3072 8.22258 33.3189C8.23039 33.3892 8.17962 33.4478 8.10933 33.4556C8.10542 33.4556 8.10152 33.4556 8.09761 33.4556V33.4595Z" fill="#DF9F30"/>
<path d="M4.38662 37.0094C4.38662 37.0094 4.36709 37.0094 4.35538 37.0055C4.28899 36.9899 4.24994 36.9196 4.26556 36.8532C4.33585 36.5838 4.15231 36.0292 3.8477 35.5957C3.66026 35.3302 3.45719 35.1545 3.31269 35.1427C3.2424 35.1349 3.19554 35.0764 3.19945 35.0061C3.20726 34.9358 3.26583 34.8889 3.33613 34.8928C3.63682 34.9201 3.91409 35.256 4.05077 35.4513C4.35538 35.8847 4.60921 36.5252 4.50768 36.9157C4.49206 36.9704 4.44129 37.0094 4.38662 37.0094Z" fill="#DFA745"/>
<g style="mix-blend-mode:multiply">
<path d="M35.9589 44.6092C35.7246 44.7576 35.377 44.8982 34.9318 45.0349L17.1555 46.5657L13.2698 46.9015C13.2698 46.9015 13.0941 46.7024 12.8051 46.3704C11.5281 44.9216 8.06816 40.9579 7.86509 40.4151C7.70107 39.9738 7.52143 37.6346 7.4199 36.0959C7.4199 36.0686 7.41599 36.0413 7.41599 36.0139C7.36523 35.2641 7.33789 34.7252 7.33789 34.7252L7.95881 33.3975L8.09159 33.1124L9.50135 30.0976L10.0246 28.9846C10.9853 28.9299 11.7273 29.0393 12.5903 29.8125C13.4612 30.5935 14.3321 31.5269 15.117 32.4602C14.7343 32.6047 14.4102 32.8039 14.1407 33.0421C13.1722 33.8973 12.9184 35.2719 13.1136 36.5294C13.3128 37.8572 14.0079 39.0561 14.871 39.3724C15.5231 39.6106 16.4408 39.8254 17.4328 39.9816C17.589 40.005 17.7452 40.0284 17.9053 40.048C19.69 40.2862 21.6035 40.3213 22.5642 39.9347C24.1575 39.2943 22.5095 36.5567 22.5095 36.5567C22.4548 36.5294 22.0292 36.3146 21.5449 35.9944C21.3223 35.8499 21.0919 35.6859 20.8771 35.5102C20.9474 35.5102 21.0216 35.5102 21.0958 35.5141C20.5842 34.8931 20.3538 34.2839 20.4358 33.7138C20.8966 34.0574 21.8378 34.7252 22.9508 35.2719C23.3999 35.4945 23.8763 35.6976 24.3605 35.8538C24.9619 36.0452 25.7078 36.3185 26.5084 36.5567C28.3829 37.1152 30.5815 37.5096 32.1084 36.3771C32.2919 36.2404 32.4677 36.0803 32.6278 35.8968C32.6434 35.8772 32.659 35.8616 32.6707 35.846C32.7762 35.7249 32.866 35.6 32.9441 35.475C34.018 36.7481 34.7249 38.0993 34.7249 38.0993C34.7249 38.0993 38.7394 42.8675 35.9667 44.6092H35.9589Z" fill="#FBE2DF"/>
</g>
<g style="mix-blend-mode:multiply">
<path d="M25.7881 16.2026C23.9331 18.1826 17.1225 13.8088 18.8173 8.60706C20.5122 3.40537 24.8118 11.2352 24.8118 11.2352L25.7881 16.2026Z" fill="#F1CEC9"/>
</g>
<g style="mix-blend-mode:multiply">
<path d="M24.8965 18.628C22.2897 20.5051 13.6455 15.0469 16.4774 9.77009C19.3092 4.49333 23.7079 13.1944 23.7079 13.1944L24.8965 18.628Z" fill="#F1CEC9"/>
</g>
<path d="M18.53 0.785839C16.9194 3.17236 16.6823 5.99508 17.1796 8.69726L17.1884 8.73401C17.6323 10.5817 18.0354 12.2598 19.2028 14.2206C20.4852 16.3748 22.3828 18.6414 23.5318 18.9611C26.413 19.7626 31.9408 10.7207 32.0885 5.98329C32.2363 1.24585 23.1704 -6.0904 18.53 0.785839Z" fill="#FFBF9D"/>
<path d="M33.0864 4.61915C33.0864 4.61915 35.449 3.31092 32.3913 -1.40263C30.0872 -4.95243 26.2016 -6.7449 24.3349 -6.94797C22.6401 -7.13541 17.3993 -7.17838 13.6425 -0.680168C11.7056 1.59264 15.2632 -2.57809 15.3882 -1.48854C14.5837 -1.33233 24.1631 5.01749 25.0066 5.24399C30.3098 6.65766 33.0825 4.61915 33.0825 4.61915H33.0864Z" fill="#2C2C2C"/>
<path d="M28.7455 5.46765C28.1128 5.49889 27.4841 5.56137 26.8749 5.6551C26.2618 5.73711 25.6643 5.86207 25.0941 6.0339C24.524 6.20182 23.9851 6.41271 23.5047 6.68607C23.0283 6.96334 22.6183 7.30308 22.2902 7.68188C21.9583 8.06069 21.6849 8.47073 21.4584 8.94716C21.3998 9.06431 21.353 9.18928 21.3022 9.31424C21.2554 9.45093 21.2046 9.58761 21.1655 9.72429C21.0835 10.0016 21.0171 10.2788 20.9586 10.5561C20.9078 10.8373 20.8687 11.1223 20.8375 11.4113C20.8102 11.7042 20.8141 12.0049 20.8258 12.3212C20.8336 12.6415 20.8844 12.9812 20.7985 13.3991C20.7555 13.6099 20.6305 13.8286 20.4704 13.9653C20.3103 14.1059 20.1229 14.1606 19.9471 14.1879L19.8925 14.1957C19.8456 14.2035 19.8026 14.1723 19.7948 14.1254C19.787 14.0825 19.8143 14.0434 19.8495 14.0317C19.994 13.9809 20.1346 13.9106 20.2361 13.7974C20.3337 13.6841 20.4079 13.5357 20.4157 13.3756C20.4392 13.0554 20.3689 12.7313 20.2713 12.4267C20.0838 11.8136 19.7597 11.1809 19.58 10.4624C19.4824 10.107 19.4355 9.736 19.4316 9.37282C19.4316 9.18928 19.4473 9.00964 19.4629 8.83001C19.4941 8.64256 19.5176 8.4512 19.5683 8.26375C19.662 7.88886 19.8183 7.52177 20.0135 7.17811C20.2166 6.83836 20.4665 6.52205 20.7477 6.24478C21.3061 5.68244 21.9778 5.27629 22.6534 4.9795C23.3368 4.69052 24.0319 4.50307 24.7271 4.39763C25.4222 4.3 26.1095 4.27267 26.7851 4.28829C27.4646 4.31562 28.1285 4.39764 28.7845 4.49917C29.0462 4.54213 29.2258 4.78425 29.1829 5.04589C29.1477 5.2763 28.9564 5.44032 28.7338 5.45203H28.7299L28.7455 5.46765Z" fill="#2C2C2C"/>
<path d="M8.84277 15.3509C11.1039 15.5032 17.6919 16.6748 18.7619 11.7543C20.2849 4.74839 25.0141 5.24044 25.0141 5.24044C25.0141 5.24044 25.3851 -6.53756 23.3349 -6.38525C14.8685 -5.75262 12.3262 2.31157 9.56913 3.96345C6.10524 6.04101 4.39868 5.68954 3.64498 8.89959C3.0514 11.4262 7.24555 15.2416 8.84277 15.3509Z" fill="#2C2C2C"/>
<g style="mix-blend-mode:multiply">
<path d="M31.6302 30.8929L31.4785 30.7529C31.5057 30.7763 31.5602 30.8229 31.6302 30.8929Z" fill="#FBF2F1"/>
</g>
<path d="M37.9478 39.2682C36.3744 39.5387 34.7531 38.8366 33.4618 37.7136C32.1705 36.5905 31.2279 35.0621 31.004 33.7133L30.9816 33.5782C30.932 33.0948 31.0295 32.5783 31.205 32.0702C31.3972 31.5138 31.6805 30.9746 31.9561 30.5107C32.0486 30.3564 32.1631 30.1803 32.2931 30.0204C32.4239 29.8596 32.5665 29.7205 32.7139 29.6352L32.7141 29.6351C33.1337 29.3913 33.5567 29.2826 33.9388 29.2077C34.0248 29.1908 34.1126 29.175 34.1978 29.1597C34.2958 29.142 34.3905 29.125 34.4754 29.1076C34.6391 29.0742 34.7915 29.035 34.9203 28.9754L34.9207 28.9753C35.0656 28.9074 35.2485 28.7928 35.447 28.6614C35.5454 28.5962 35.6489 28.5259 35.7548 28.4541L35.7595 28.4509C35.8672 28.3779 35.9774 28.3031 36.0882 28.2296C36.3101 28.0824 36.5324 27.9415 36.7377 27.8311C36.9449 27.7198 37.1268 27.6439 37.2696 27.6202L37.2697 27.6202C40.4427 27.0907 43.3626 29.4543 43.4277 32.6182C43.4548 34.0012 43.2113 35.4688 42.4018 36.6861C41.5944 37.9003 40.216 38.8776 37.9478 39.2682ZM37.9478 39.2682L37.9644 39.3644M37.9478 39.2682L37.9644 39.3644M37.9644 39.3644C42.5451 38.5756 43.58 35.4046 43.5253 32.6163C43.4589 29.3906 40.4832 26.985 37.2536 27.5239M37.9644 39.3644C34.7842 39.9111 31.4598 36.5786 30.9288 33.8462L30.9728 33.8022L30.9767 33.7983L30.9105 33.7321L37.2536 27.5239M37.2536 27.5239C36.8547 27.59 36.2395 28.0073 35.7002 28.3731M37.2536 27.5239L35.7002 28.3731M35.7002 28.3731C35.379 28.591 35.0848 28.7906 34.8793 28.8868L35.7002 28.3731Z" fill="#FDCCB2" stroke="#E78762" stroke-width="0.195259"/>
<path d="M32.2881 39.9029C32.1866 40.1059 32.1866 40.2543 32.2373 40.3402C32.6083 41.0119 32.3662 41.8594 31.7023 42.2303C30.5542 42.8747 27.805 42.0195 28.3244 40.8089L30.4566 38.907C31.0541 37.9034 32.4404 37.6652 32.9168 36.6499C33.2449 35.9508 34.2993 36.3413 34.104 37.0872C33.733 38.5087 32.6513 39.1648 32.292 39.9068L32.2881 39.9029Z" fill="#FFBF9D"/>
<path d="M39.2257 38.071C39.1905 38.2975 38.8937 38.4029 38.5696 38.7309C38.7883 39.1136 38.9133 39.1332 38.8195 39.3636C38.6555 39.7697 38.1127 40.7382 37.8511 41.1365C37.9214 41.5388 37.4215 42.4447 36.949 42.8548C36.66 43.1047 36.1406 43.4484 35.6915 43.6983C34.8285 44.1747 32.8095 44.6004 31.1146 44.8894C29.6971 45.1354 28.5099 45.2838 28.4318 45.2916C28.4279 45.2916 28.506 44.7761 28.506 44.7761L28.9512 41.9058L31.5715 40.5976L31.9035 40.5156L35.3049 39.6604C35.3049 39.6604 37.4566 38.0007 38.265 37.8132C38.5228 37.7507 38.9601 37.7937 38.9601 37.7937C39.1046 37.8523 39.2491 37.9187 39.2218 38.0749L39.2257 38.071Z" fill="#FFBF9D"/>
<path d="M32.1123 40.6735L30.7455 44.399C30.5034 44.5045 30.2535 44.6099 29.9996 44.7114C29.4998 44.9145 28.9765 45.1059 28.4336 45.2933C22.2322 47.4255 13.6448 48.5424 9.86455 47.078C9.68881 47.0077 9.52089 46.9335 9.36468 46.8554C8.56412 46.5234 7.73232 44.7622 7.3379 43.4891L7.34962 41.7943C6.96691 40.5485 13.7385 39.5761 13.7502 39.6582C15.6286 40.1463 19.9868 41.0835 22.4978 41.0171C25.9851 40.9234 27.4105 41.1343 28.9452 40.4899C29.9371 40.0721 31.1165 40.0643 31.9053 40.5173C31.9835 40.5602 32.0537 40.6149 32.1123 40.6774V40.6735Z" fill="#FFBF9D"/>
<path d="M31.934 40.899C31.934 40.899 31.9106 40.899 31.8989 40.8912C31.8481 40.8717 31.8208 40.8131 31.8403 40.7584C31.9223 40.5515 31.9575 40.3874 31.9926 40.239C32.0824 39.8524 32.1449 39.5752 32.8479 38.9582C33.6562 38.2513 33.832 37.5015 33.9179 37.1422C33.9296 37.0876 33.9413 37.0446 33.953 37.0095C33.9804 36.9118 33.9647 36.74 33.8632 36.5877C33.832 36.5408 33.8437 36.4784 33.8905 36.4471C33.9374 36.4159 33.9999 36.4276 34.0311 36.4745C34.1561 36.6541 34.2029 36.8923 34.1483 37.068C34.1405 37.0993 34.1287 37.1383 34.117 37.1891C34.035 37.5406 33.8398 38.3567 32.9845 39.1104C32.3324 39.6845 32.2777 39.9227 32.1918 40.2859C32.1566 40.4382 32.1176 40.61 32.0317 40.8326C32.0161 40.8717 31.977 40.899 31.9379 40.899H31.934Z" fill="#E78762"/>
<path d="M35.3113 41.1995C35.2761 41.1995 35.241 41.18 35.2215 41.1488C35.1941 41.098 35.2137 41.0394 35.2605 41.0121L37.1311 39.9733C37.2405 39.8601 38.0449 39.0048 38.205 38.8721C38.4745 38.6456 38.7439 38.5167 38.9197 38.4503C38.9939 38.423 39.0564 38.3605 39.0915 38.2863C39.1227 38.2121 39.1227 38.134 39.0915 38.0637C39.0681 38.0129 39.0915 37.9504 39.1462 37.9309C39.1969 37.9075 39.2594 37.9309 39.279 37.9856C39.3297 38.1067 39.3297 38.2433 39.279 38.3683C39.2243 38.4933 39.1227 38.5948 38.9939 38.6417C38.8338 38.7002 38.5877 38.8174 38.3417 39.0283C38.2167 39.1337 37.588 39.7937 37.2756 40.1256C37.2678 40.1334 37.26 40.1413 37.2522 40.1452L35.3699 41.1917C35.3699 41.1917 35.3386 41.2035 35.3191 41.2035L35.3113 41.1995Z" fill="#E78762"/>
<path d="M36.1718 42.5496C36.1249 42.5496 36.082 42.5144 36.0703 42.4675C36.0078 42.1512 35.9258 42.0927 35.9219 42.0927C35.8828 42.0809 35.8633 42.0458 35.8594 42.0067C35.8594 41.9677 35.8828 41.9286 35.918 41.913C35.9336 41.9052 37.4449 41.1046 37.8041 40.7766C37.9721 40.6243 38.2454 40.2767 38.5813 39.4996L38.6086 39.4371C38.7336 39.1638 38.7922 38.9685 38.5305 38.7889C38.4837 38.7576 38.4719 38.6952 38.5032 38.6483C38.5344 38.6014 38.5969 38.5897 38.6438 38.621C39.0694 38.9099 38.8976 39.2926 38.7961 39.523L38.7687 39.5816C38.4915 40.2221 38.2064 40.6907 37.9408 40.9289C37.6167 41.2218 36.4998 41.831 36.1288 42.0302C36.1757 42.1083 36.2265 42.2332 36.2655 42.4324C36.2772 42.4871 36.2382 42.5417 36.1835 42.5535C36.1757 42.5535 36.1718 42.5535 36.164 42.5535L36.1718 42.5496Z" fill="#E78762"/>
<g style="mix-blend-mode:multiply">
<path d="M31.1191 44.8903C29.7016 45.1363 28.5144 45.2847 28.4363 45.2925C22.2349 47.4248 13.6474 48.5416 9.86719 47.0772C10.8708 45.687 12.2845 43.6953 12.2845 43.6953C13.0069 45.5815 21.4226 45.8158 24.0586 45.2925C25.4762 45.0114 27.1281 44.8551 28.5144 44.7731C29.0611 44.7419 29.5688 44.7185 30.0023 44.7068C30.5138 44.6911 30.9278 44.6872 31.1933 44.6872C31.3183 44.6872 31.2832 44.7575 31.123 44.8864L31.1191 44.8903Z" fill="#FBF2F1"/>
</g>
<path d="M3.51407 43.5551C1.08505 40.0874 2.39719 25.0368 5.40808 20.1905C6.72412 18.07 7.48172 17.3007 8.04016 16.8945C7.79804 17.7224 8.30572 18.7612 8.68843 19.1322C9.36793 19.7961 13.9526 24.248 13.4059 26.3724C12.8552 28.4929 12.1094 38.2832 12.1094 38.2832L3.51407 43.5551Z" fill="#FB9897"/>
<path d="M12.1069 38.2832C12.1069 38.2832 14.325 39.3103 14.0243 39.4313C13.7236 39.5524 11.322 47.9524 11.322 47.9524C11.322 47.9524 3.57409 49.5926 3.12109 42.5789C9.92 39.5602 12.1108 38.2832 12.1108 38.2832H12.1069Z" fill="#FB9897"/>
<path d="M45.9905 34.1656C45.6898 34.4585 45.4008 34.7709 45.1392 35.0677C45.0064 35.2161 44.8814 35.3567 44.7525 35.4777C44.6237 35.6027 44.4948 35.7081 44.3542 35.8019C44.1433 35.9424 44.0887 36.2119 44.2175 36.4111C44.3347 36.5907 44.5651 36.6532 44.7564 36.5712C44.9673 36.4774 45.1743 36.3603 45.3578 36.2353C45.5453 36.1064 45.7093 35.9737 45.8694 35.8487C46.1857 35.5949 46.4864 35.3606 46.8028 35.1419C47.0917 34.9427 47.1659 34.5444 46.9629 34.2554C46.7637 33.9664 46.3654 33.8922 46.0764 34.0953C46.0491 34.1148 46.0217 34.1382 45.9983 34.1617L45.9905 34.1695V34.1656Z" fill="#FFBF9D"/>
<path d="M48.2116 32.2679C48.2116 32.2679 47.9734 33.7949 47.7547 34.1815C47.3329 34.9313 45.9427 35.3804 45.8997 35.4038C45.8568 35.4233 44.8024 32.9592 43.5293 31.1003C43.6972 30.9402 43.8495 30.7762 43.9862 30.6161C44.2791 30.2685 44.6618 30.0303 45.0757 29.917C45.4936 29.8038 46.1887 30.3778 46.6105 30.5379L47.7195 31.3112L48.2155 32.2679H48.2116Z" fill="#FFBF9D"/>
<path d="M43.188 35.6183C43.3989 35.3411 43.6215 35.0677 43.8597 34.806C44.094 34.5444 44.3557 34.2945 44.5783 34.0719C44.6954 33.9547 44.754 33.8727 44.8477 33.7399C44.9336 33.615 45.0235 33.4783 45.1094 33.3416C45.2812 33.0682 45.453 32.7793 45.6131 32.4981C45.7889 32.1935 46.1755 32.0841 46.4801 32.2599C46.7847 32.4356 46.8901 32.8222 46.7144 33.1268C46.7027 33.1463 46.691 33.1659 46.6753 33.1854C46.4684 33.4705 46.2653 33.7399 46.0466 34.0133C45.9373 34.15 45.8279 34.2867 45.7069 34.4272C45.5936 34.56 45.4257 34.7279 45.2929 34.8373C45.0195 35.0716 44.7735 35.2669 44.5353 35.4855C44.2971 35.7003 44.0745 35.9346 43.8519 36.1768C43.6879 36.3564 43.4106 36.3681 43.2349 36.208C43.067 36.0557 43.0474 35.8019 43.1841 35.6222L43.188 35.6183Z" fill="#FFBF9D"/>
<path d="M43.1506 35.7313C43.3146 35.579 43.4474 35.4189 43.6036 35.2315C44.7048 33.8959 44.8962 33.4819 45.5054 32.4744C45.6968 32.1581 45.5952 31.7481 45.2789 31.5567C44.947 31.3536 44.4979 31.4786 44.326 31.8535L43.4279 33.4273C43.4279 33.4273 42.8225 34.6535 42.514 35.1455C42.3656 35.333 42.4008 35.6064 42.5882 35.7548C42.7601 35.8875 42.9983 35.8719 43.1506 35.7313Z" fill="#FFBF9D"/>
<path d="M41.1386 32.8415L41.7517 31.998L41.9157 31.7832C41.9743 31.709 42.0251 31.6388 42.111 31.545C42.2359 31.4279 42.3219 31.3654 42.4078 31.299C42.4937 31.2365 42.5757 31.1818 42.6577 31.1272C42.9818 30.9124 43.2982 30.7249 43.6223 30.5492C43.9464 30.3696 44.2666 30.2095 44.6025 30.0493C45.0086 29.8541 45.4968 30.0259 45.692 30.4321C45.8873 30.8382 45.7155 31.3263 45.3093 31.5216C45.282 31.5333 45.2546 31.545 45.2234 31.5567L45.1375 31.588L44.1573 31.9238C43.8332 32.041 43.5051 32.1503 43.2005 32.2714C43.1263 32.3026 43.0521 32.3339 42.9857 32.3612C42.9233 32.3885 42.8569 32.4276 42.8491 32.4276C42.81 32.4549 42.7358 32.5135 42.6733 32.5682L42.4742 32.74C42.2008 32.9704 41.9235 33.2008 41.5799 33.4117C41.408 33.5171 41.1855 33.4625 41.0839 33.2906C41.0058 33.1618 41.0175 33.0056 41.0995 32.8884L41.1347 32.8376L41.1386 32.8415Z" fill="#FFBF9D"/>
<path d="M44.6532 36.6807C44.5009 36.6807 44.2354 36.6534 44.0987 36.4738C43.9894 36.3371 43.9815 36.1418 44.0714 35.9036C44.0909 35.8489 44.1495 35.8216 44.2041 35.845C44.2549 35.8645 44.2822 35.9231 44.2627 35.9739C44.2002 36.1418 44.2002 36.2668 44.2627 36.3449C44.3643 36.4737 44.6181 36.4777 44.7313 36.4698C45.0828 36.2824 46.5746 35.1733 46.5902 35.1616C47.3947 34.5524 47.8125 34.0994 47.875 33.7675L47.9062 33.6034C47.9648 33.3106 48.1406 32.4124 48.1171 32.2913C48.0898 32.2405 48.1171 32.1859 48.164 32.1624C48.2148 32.139 48.2772 32.1624 48.3046 32.2132C48.3397 32.2796 48.3436 32.4241 48.1054 33.6464L48.0742 33.8065C48 34.1931 47.5704 34.6774 46.7113 35.3256C46.6449 35.3725 45.1414 36.4894 44.8055 36.6612C44.7938 36.6651 44.7821 36.669 44.7704 36.6729C44.7665 36.6729 44.7196 36.6768 44.6571 36.6768L44.6532 36.6807Z" fill="#E78762"/>
<path d="M43.37 36.4343C43.37 36.4343 43.3466 36.4343 43.3349 36.4343C43.2451 36.4265 43.1943 36.3913 43.1631 36.3562C43.0771 36.2898 42.96 36.1453 42.96 35.9539C42.8389 35.9461 42.7101 35.8914 42.6476 35.8602C42.6124 35.8524 42.546 35.829 42.4875 35.7626C42.3937 35.6532 42.3586 35.4775 42.382 35.2354C42.3859 35.1807 42.4367 35.1377 42.4953 35.1455C42.55 35.1495 42.5929 35.2002 42.5851 35.2588C42.5539 35.5595 42.6398 35.6571 42.6866 35.6649C42.6983 35.6649 42.7101 35.6649 42.7218 35.6727C42.8272 35.7235 42.9561 35.7587 43.0069 35.7548C43.0069 35.7509 43.0108 35.743 43.0147 35.7352C43.0381 35.6884 43.0889 35.6688 43.1357 35.6806C43.1826 35.6962 43.2138 35.743 43.206 35.7938C43.2021 35.8211 43.1943 35.8446 43.1787 35.8641C43.1162 36.0555 43.2724 36.1804 43.2919 36.196C43.2997 36.1999 43.3076 36.2078 43.3115 36.2156C43.3115 36.2195 43.3271 36.2273 43.3505 36.2273C43.5145 36.2429 43.8699 36.0672 44.0925 35.8641C44.4322 35.5556 45.3773 34.7199 45.3773 34.7199L46.5293 33.521C46.5684 33.482 46.6309 33.478 46.6738 33.521C46.7129 33.5601 46.7168 33.6225 46.6738 33.6655L45.514 34.8722C45.514 34.8722 44.565 35.7118 44.2253 36.0203C43.9988 36.2273 43.6122 36.4382 43.3622 36.4382L43.37 36.4343Z" fill="#E78762"/>
<path d="M43.6013 35.3373C43.6013 35.3373 43.5662 35.3334 43.5466 35.3217C43.4998 35.2944 43.4842 35.2319 43.5115 35.1811C43.7107 34.8531 44.3003 34.1111 44.3277 34.0798L45.4407 32.6388C45.4758 32.5959 45.5383 32.5842 45.5851 32.6193C45.6281 32.6545 45.6398 32.7169 45.6047 32.7638L44.4917 34.2087C44.4917 34.2087 43.8825 34.9741 43.6911 35.2905C43.6716 35.3217 43.6404 35.3373 43.6052 35.3373H43.6013Z" fill="#E78762"/>
<path d="M44.7765 31.2793C44.9366 31.2793 45.0967 31.2012 45.1982 31.0607C45.3584 30.8303 45.6239 30.2484 45.3896 30.0883C44.9913 29.8149 43.8861 29.5923 43.5268 29.4244C42.9957 29.1745 42.8239 29.1823 42.4802 28.8894C42.2342 28.6785 42.2186 28.6082 41.9843 28.7683C41.7539 28.9284 41.9921 29.5181 42.1522 29.7524C42.5661 30.3538 42.8786 30.3616 43.4721 30.6389C43.8119 30.7951 44.1595 30.9591 44.4875 31.1856C44.5773 31.2481 44.6749 31.2755 44.7765 31.2755V31.2793Z" fill="#FFBF9D"/>
<path d="M47.277 33.3609C47.277 33.3609 47.2574 33.3609 47.2457 33.357C47.1168 33.3179 47.0153 33.1149 46.8474 32.7556C46.7615 32.572 46.6131 32.2674 46.5467 32.2362C46.3202 32.2909 45.8945 32.0761 45.832 31.8105C45.75 31.4747 45.4064 30.6038 45.094 30.6038C45.0237 30.6038 44.9768 30.5648 44.9729 30.5101C44.969 30.4554 45.012 30.4047 45.0666 30.4008C45.6524 30.35 46.0234 31.7481 46.0273 31.7637C46.0624 31.9121 46.3827 32.0683 46.5272 32.037C46.699 31.998 46.824 32.2401 47.027 32.6658C47.1129 32.8493 47.2457 33.1266 47.3082 33.1617C47.3629 33.1773 47.3902 33.2359 47.3746 33.2867C47.3629 33.3296 47.3199 33.357 47.277 33.357V33.3609Z" fill="#E78762"/>
</g>
<rect x="0.35" y="0.35" width="55.3" height="55.3" rx="27.65" stroke="#EFEFEF" stroke-width="0.7"/>
<defs>
<clipPath id="clip0_18916_30916">
<rect width="56" height="56" rx="28" fill="white"/>
</clipPath>
</defs>
</svg>
