<svg width="56" height="56" viewBox="0 0 56 56" fill="none" xmlns="http://www.w3.org/2000/svg">
<g clip-path="url(#clip0_18916_31010)">
<rect width="56" height="56" rx="28" fill="white"/>
<path d="M37.8657 37.4112C35.6501 40.6266 30.7234 40.7437 30.7234 40.7437C15.1236 40.7437 15.1236 27.0174 15.1236 27.0174C14.8084 25.1439 16.6818 24.2072 16.6818 24.2072C21.9475 17.6378 31.2953 14.0586 33.9138 6.05683L37.8657 -6.0195C37.8657 -6.0195 39.3609 -10.4328 34.9475 -17.6562H59.8513C59.8513 -17.6562 58.2481 -11.0002 59.8513 -4.2902C59.8513 -4.2902 65.8588 4.90573 60.851 33.16L58.8245 42.464C58.8245 42.464 57.7077 48.5435 58.6624 52.0652L65.3724 73.5734H27.9313C29.4894 51.4257 28.2195 40.7617 28.2195 40.7617" fill="#FFBF9D"/>
<path d="M37.8654 37.4117C37.5502 37.9791 37.1539 38.5466 36.6405 38.9969C36.1451 39.4563 35.5777 39.8526 34.9742 40.1678C33.7583 40.8073 32.4433 41.2126 31.0653 41.3837L30.7951 41.4107C30.7501 41.4107 30.7951 41.4107 30.669 41.4107H30.606H30.4799H29.9845L29.0028 41.4017L28.021 41.3747C27.6878 41.3477 27.3365 41.2846 26.9943 41.2306L25.9585 41.0775C25.6162 41.0234 25.2649 40.9784 24.9407 40.8613C24.2832 40.6451 23.6167 40.474 22.9682 40.2128C22.3468 39.9066 21.6983 39.6364 21.0948 39.2851C20.5274 38.8708 19.9239 38.5105 19.4015 38.0512L18.636 37.3307C18.3748 37.1055 18.1316 36.8443 17.9244 36.5651L17.2759 35.7455C17.0688 35.4663 16.9067 35.16 16.7265 34.8628C16.3392 34.2864 16.069 33.6469 15.7898 33.0164C15.5647 32.3679 15.3035 31.7284 15.1593 31.0619C14.9792 30.4044 14.8801 29.7289 14.7991 29.0624C14.727 28.3869 14.691 27.7204 14.727 27.0269V27.09L14.745 26.5946C14.745 26.4325 14.7631 26.2703 14.8261 26.1172C14.8801 25.9641 14.9162 25.811 14.9882 25.6669L15.2404 25.2706C15.3215 25.1445 15.4476 25.0454 15.5466 24.9283C15.6457 24.8112 15.7718 24.7302 15.8889 24.6401C16.1231 24.46 16.3843 24.3249 16.6545 24.2168C16.4203 24.3879 16.2131 24.5771 16.033 24.8022C15.9429 24.9103 15.8529 25.0094 15.7898 25.1355C15.7268 25.2526 15.6367 25.3607 15.5917 25.4867L15.4566 25.856C15.4205 25.9821 15.4205 26.1082 15.4025 26.2343C15.3755 26.3514 15.3845 26.4775 15.4025 26.6036L15.4476 26.9729V27.0359C15.5286 27.6484 15.6637 28.2788 15.8078 28.9003C15.961 29.5128 16.1591 30.1162 16.3753 30.7107C16.5644 31.3141 16.8616 31.8725 17.1138 32.431C17.4381 32.9624 17.6903 33.5298 18.0685 34.0252C18.2487 34.2774 18.4108 34.5386 18.5999 34.7727L19.2124 35.4572C19.5817 35.9526 20.0951 36.2949 20.5274 36.7272C20.9867 37.1235 21.5271 37.4207 22.0225 37.772C22.5539 38.0692 23.1123 38.3304 23.6527 38.6096C24.2202 38.8438 24.8146 39.0149 25.4001 39.2221C25.9855 39.4382 26.5889 39.5013 27.1924 39.6544C27.4986 39.7175 27.7868 39.7985 28.1021 39.8435L29.0838 39.9336L30.0566 40.0327L30.5429 40.0867H30.669L30.7321 40.1047H30.9572C31.5697 40.0867 32.2002 40.0147 32.8126 39.9246C33.4341 39.8255 34.0375 39.6544 34.641 39.4653C35.2445 39.2761 35.8029 38.9879 36.3613 38.6727C36.9107 38.3484 37.3971 37.9251 37.8564 37.4477L37.8654 37.4117Z" fill="#EBA98C"/>
<g style="mix-blend-mode:multiply" opacity="0.6">
<path d="M58.6727 52.0569C57.718 48.5352 58.8348 42.4556 58.8348 42.4556L60.8613 33.1516C65.4728 7.16711 60.7622 -2.69531 59.9697 -4.10938C59.8976 -4.05533 59.8255 -3.98328 59.7535 -3.92023C60.0867 1.9702 61.5458 7.84261 61.0955 13.7601C60.6722 19.3172 60.1318 24.9104 58.8528 30.3505C57.763 34.998 56.2409 39.8347 53.6739 43.9057C52.0077 46.5537 49.855 48.8324 46.8828 49.6701C49.4678 50.4627 52.0167 51.0931 53.8631 53.3358C55.7995 55.6956 56.9073 58.5327 57.9431 61.3699C58.6276 63.2613 59.141 65.1527 59.5463 67.1162C59.8706 68.6834 59.8886 70.3226 60.2489 71.8718C60.384 72.4482 60.5641 73.0066 60.7532 73.556H65.3737L58.6637 52.0479L58.6727 52.0569Z" fill="#FADED3"/>
</g>
<path d="M15.454 30.2039C19.9736 31.5837 21.9889 24.4372 17.8644 22.8464C17.4595 23.3275 17.0829 23.7736 16.7346 24.1846C16.7346 24.1846 14.8286 25.0532 15.0761 26.9367C15.0761 26.9367 15.0265 28.3139 15.4536 30.2129L15.454 30.2039Z" fill="#EBA98C"/>
<path d="M15.2067 28.0714C16.3685 28.1614 17.3413 27.3418 17.5394 26.1709C17.6835 25.3243 17.2422 24.7299 16.7018 24.1895C16.7018 24.1895 16.6928 24.1985 16.6838 24.2075C16.6838 24.2075 14.8104 25.1442 15.1256 27.0176C15.1256 27.0176 15.1256 27.4229 15.2067 28.0714Z" fill="#DD9B7E"/>
<g style="mix-blend-mode:multiply" opacity="0.6">
<path d="M35.4253 73.556C34.1373 72.3581 33.0925 70.827 32.462 69.3319C30.9219 65.6661 31.3632 61.1807 31.5884 57.3078C31.8406 53.0656 32.2369 48.6253 33.786 44.6353C34.3174 43.2663 35.1371 42.1134 35.9747 40.9245C36.434 40.276 37.659 38.7629 37.758 37.6641C35.7225 40.276 31.4263 41.4289 28.2289 40.7804C28.3009 41.4559 29.4448 52.1379 27.9316 73.556H35.4163H35.4253Z" fill="#FADED3"/>
</g>
<path fill-rule="evenodd" clip-rule="evenodd" d="M33 19.5C33 23.0899 30.0899 26 26.5 26C22.9101 26 20 23.0899 20 19.5C20 15.9101 22.9101 13 26.5 13C30.0899 13 33 15.9101 33 19.5ZM26.5 24.181C29.0853 24.181 31.181 22.0853 31.181 19.5C31.181 16.9147 29.0853 14.819 26.5 14.819C23.9147 14.819 21.819 16.9147 21.819 19.5C21.819 22.0853 23.9147 24.181 26.5 24.181Z" fill="#FFA2A2"/>
<path d="M29.3707 19.5C29.3707 21.0854 28.0855 22.3706 26.5001 22.3706C24.9147 22.3706 23.6295 21.0854 23.6295 19.5C23.6295 17.9146 24.9147 16.6294 26.5001 16.6294C28.0855 16.6294 29.3707 17.9146 29.3707 19.5Z" fill="#EA4747"/>
<path fill-rule="evenodd" clip-rule="evenodd" d="M31.1897 19.5C31.1897 22.09 29.0901 24.1896 26.5001 24.1896C23.9101 24.1896 21.8105 22.09 21.8105 19.5C21.8105 16.91 23.9101 14.8104 26.5001 14.8104C29.0901 14.8104 31.1897 16.91 31.1897 19.5ZM26.5001 22.3706C28.0855 22.3706 29.3707 21.0854 29.3707 19.5C29.3707 17.9146 28.0855 16.6294 26.5001 16.6294C24.9147 16.6294 23.6295 17.9146 23.6295 19.5C23.6295 21.0854 24.9147 22.3706 26.5001 22.3706Z" fill="white"/>
<path d="M13.3631 9.81743L17.8627 12.1851L15.9906 13.0041L18.3087 14.6468L13.0805 12.7074L15.4032 11.8913L13.3631 9.81743Z" fill="#F27373"/>
<path d="M27.8879 5.08808L25.5916 9.62451L27.5921 9.20772L26.654 11.8895L29.7923 7.28015L27.4262 7.96035L27.8879 5.08808Z" fill="#F27373"/>
</g>
<rect x="0.35" y="0.35" width="55.3" height="55.3" rx="27.65" stroke="#EFEFEF" stroke-width="0.7"/>
<defs>
<clipPath id="clip0_18916_31010">
<rect width="56" height="56" rx="28" fill="white"/>
</clipPath>
</defs>
</svg>
