<svg width="56" height="56" viewBox="0 0 56 56" fill="none" xmlns="http://www.w3.org/2000/svg">
<g clip-path="url(#clip0_18916_31026)">
<rect width="56" height="56" rx="28" fill="white"/>
<path d="M44.3739 39.3401C41.7159 43.1974 35.8057 43.3379 35.8057 43.3379C17.0917 43.3379 17.0917 26.8713 17.0917 26.8713C16.7135 24.6239 18.9609 23.5002 18.9609 23.5002C25.2779 15.6193 36.4918 11.3256 39.6331 1.72634L44.3739 -12.7608C44.3739 -12.7608 46.1675 -18.0552 40.8732 -26.7207H70.7486C70.7486 -26.7207 68.8253 -18.7359 70.7486 -10.6863C70.7486 -10.6863 77.9554 0.345438 71.9479 34.2402L69.5168 45.4016C69.5168 45.4016 68.177 52.6949 69.3223 56.9196L77.3719 82.7216H32.4562C34.3254 56.1524 32.8019 43.3595 32.8019 43.3595" fill="#FFBF9D"/>
<g filter="url(#filter0_f_18916_31026)">
<path d="M23.8477 36.4366C21.7905 35.1689 20.72 32.4069 21.3763 31.3419C22.0326 30.2769 24.3619 30.9107 26.4191 32.1785C28.4763 33.4462 30.1588 35.3431 29.5025 36.4081C28.8462 37.4732 25.9049 37.7043 23.8477 36.4366Z" fill="#F39A9E"/>
</g>
<g filter="url(#filter1_f_18916_31026)">
<path d="M23.0715 36.3476C21.1011 35.1333 20.0757 32.4878 20.7043 31.4677C21.333 30.4476 23.564 31.0548 25.5344 32.269C27.5048 33.4833 29.1164 35.3002 28.4878 36.3203C27.8592 37.3404 25.042 37.5618 23.0715 36.3476Z" fill="#F2959A"/>
</g>
<g filter="url(#filter2_f_18916_31026)">
<path d="M23.7751 35.216C22.4935 34.4263 21.638 33.0117 21.915 32.5622C22.1921 32.1126 23.5712 32.6242 24.8528 33.4139C26.1344 34.2037 27.2597 35.2602 26.9827 35.7098C26.7057 36.1593 25.0567 36.0058 23.7751 35.216Z" fill="#FF2B2B"/>
</g>
<path d="M44.3722 39.3398C43.9941 40.0205 43.5187 40.7012 42.9028 41.2415C42.3085 41.7925 41.6278 42.2679 40.9039 42.6461C39.4452 43.4133 37.8677 43.8995 36.2146 44.1048L35.8905 44.1372C35.8364 44.1372 35.8905 44.1372 35.7392 44.1372H35.6635H35.5123H34.918L33.7403 44.1264L32.5626 44.094C32.1628 44.0615 31.7414 43.9859 31.3308 43.9211L30.0883 43.7374C29.6777 43.6726 29.2563 43.6185 28.8673 43.4781C28.0785 43.2188 27.279 43.0135 26.501 42.7001C25.7555 42.3328 24.9776 42.0086 24.2536 41.5872C23.5729 41.0902 22.849 40.658 22.2223 40.107L21.3039 39.2426C20.9906 38.9725 20.6988 38.6591 20.4503 38.3242L19.6724 37.3409C19.4239 37.006 19.2294 36.6386 19.0133 36.2821C18.5487 35.5906 18.2245 34.8234 17.8896 34.0671C17.6195 33.2891 17.3061 32.522 17.1332 31.7224C16.9171 30.9337 16.7983 30.1233 16.7011 29.3237C16.6146 28.5134 16.5714 27.7138 16.6146 26.8818V26.9575L16.6362 26.3632C16.6362 26.1687 16.6578 25.9742 16.7335 25.7906C16.7983 25.6069 16.8415 25.4232 16.928 25.2503L17.2305 24.7749C17.3277 24.6236 17.479 24.5048 17.5979 24.3643C17.7167 24.2239 17.868 24.1266 18.0084 24.0186C18.2894 23.8025 18.6027 23.6404 18.9268 23.5107C18.6459 23.716 18.3974 23.9429 18.1813 24.2131C18.0733 24.3427 17.9652 24.4616 17.8896 24.6128C17.8139 24.7533 17.7059 24.883 17.6519 25.0342L17.4898 25.4772C17.4466 25.6285 17.4466 25.7798 17.425 25.931C17.3926 26.0715 17.4034 26.2228 17.425 26.374L17.479 26.817V26.8927C17.5762 27.6274 17.7383 28.3837 17.9112 29.1293C18.0949 29.864 18.3326 30.5879 18.5919 31.301C18.8188 32.025 19.1754 32.6949 19.4779 33.3648C19.8669 34.0022 20.1694 34.6829 20.6232 35.2772C20.8393 35.5798 21.0338 35.8931 21.2607 36.174L21.9954 36.9952C22.4384 37.5894 23.0543 38 23.5729 38.5187C24.124 38.9941 24.7723 39.3506 25.3665 39.772C26.004 40.1286 26.6739 40.4419 27.3222 40.7769C28.0029 41.0578 28.716 41.2631 29.4184 41.5116C30.1207 41.7709 30.8446 41.8466 31.5685 42.0302C31.9359 42.1059 32.2816 42.2031 32.6598 42.2571L33.8375 42.3652L35.0045 42.484L35.5879 42.5489H35.7392L35.8148 42.5705H36.0849C36.8197 42.5489 37.576 42.4624 38.3107 42.3544C39.0563 42.2355 39.7802 42.0302 40.5041 41.8033C41.228 41.5764 41.8979 41.2307 42.5678 40.8525C43.2269 40.4635 43.8104 39.9557 44.3615 39.3831L44.3722 39.3398Z" fill="#EBA98C"/>
<g style="mix-blend-mode:multiply" opacity="0.6">
<path d="M69.333 56.9093C68.1877 52.6846 69.5275 45.3913 69.5275 45.3913L71.9586 34.2299C77.4906 3.05794 71.8397 -8.77337 70.8889 -10.4697C70.8024 -10.4049 70.716 -10.3185 70.6296 -10.2428C71.0294 -3.17646 72.7797 3.8683 72.2395 10.9671C71.7317 17.6337 71.0834 24.3435 69.5491 30.8696C68.2417 36.4449 66.4157 42.2471 63.3363 47.1309C61.3374 50.3075 58.7551 53.0411 55.1895 54.046C58.2904 54.9968 61.3482 55.7531 63.5632 58.4436C65.8862 61.2744 67.2152 64.6779 68.4578 68.0815C69.279 70.3505 69.8948 72.6195 70.3811 74.975C70.77 76.855 70.7916 78.8215 71.2238 80.6799C71.3859 81.3714 71.602 82.0413 71.8289 82.7004H77.3718L69.3222 56.8985L69.333 56.9093Z" fill="#FADED3"/>
</g>
<path d="M17.4849 30.6939C22.9068 32.3491 25.3244 23.776 20.3765 21.8676C19.8908 22.4448 19.439 22.9799 19.0212 23.473C19.0212 23.473 16.7347 24.5149 17.0316 26.7745C17.0316 26.7745 16.972 28.4266 17.4845 30.7047L17.4849 30.6939Z" fill="#EBA98C"/>
<path d="M17.189 28.1364C18.5828 28.2444 19.7497 27.2612 19.9874 25.8566C20.1603 24.8409 19.6308 24.1278 18.9826 23.4795C18.9826 23.4795 18.9718 23.4903 18.9609 23.5011C18.9609 23.5011 16.7135 24.6248 17.0917 26.8722C17.0917 26.8722 17.0917 27.3584 17.189 28.1364Z" fill="#DD9B7E"/>
<g style="mix-blend-mode:multiply" opacity="0.6">
<path d="M41.4447 82.6999C39.8996 81.2628 38.6463 79.426 37.8899 77.6324C36.0423 73.2348 36.5717 67.854 36.8418 63.2079C37.1444 58.1189 37.6198 52.7921 39.4782 48.0055C40.1157 46.3632 41.099 44.9802 42.1038 43.5539C42.6549 42.776 44.1243 40.9608 44.2432 39.6426C41.8013 42.776 36.6474 44.159 32.8116 43.3811C32.8981 44.1914 34.2703 57.0059 32.4551 82.6999H41.4339H41.4447Z" fill="#FADED3"/>
</g>
<path fill-rule="evenodd" clip-rule="evenodd" d="M14.2156 29.0932C14.3673 29.4628 14.1906 29.8854 13.821 30.0371L10.8202 31.2688C10.6304 31.3466 10.4167 31.3403 10.2318 31.2514C10.0471 31.1625 9.90875 30.9993 9.85122 30.8025L9.48803 29.5596L7.08825 30.764C6.73125 30.9433 6.29653 30.7991 6.11729 30.4421C5.93814 30.0851 6.08227 29.6503 6.43927 29.4711L9.61445 27.8774C9.80621 27.7811 10.031 27.775 10.2277 27.8606C10.4245 27.9464 10.573 28.1149 10.6332 28.321L11.0144 29.6252L13.2718 28.6988C13.6414 28.5471 14.0639 28.7237 14.2156 29.0932Z" fill="#F27373"/>
<path fill-rule="evenodd" clip-rule="evenodd" d="M6.55863 18.9289C6.63876 18.5375 7.02106 18.2852 7.41244 18.3653L10.5903 19.016C10.7912 19.0572 10.9651 19.1816 11.069 19.3585C11.1728 19.5353 11.1966 19.7479 11.1346 19.9434L10.7431 21.1777L13.4068 21.5158C13.8032 21.5661 14.0836 21.9281 14.0334 22.3245C13.983 22.7207 13.621 23.0012 13.2247 22.951L9.70028 22.5036C9.48739 22.4766 9.29743 22.3564 9.18187 22.1756C9.06631 21.9947 9.03697 21.7719 9.10189 21.5674L9.51265 20.2721L7.12216 19.7826C6.73078 19.7024 6.4785 19.3202 6.55863 18.9289Z" fill="#F27373"/>
</g>
<rect x="0.35" y="0.35" width="55.3" height="55.3" rx="27.65" stroke="#EFEFEF" stroke-width="0.7"/>
<defs>
<filter id="filter0_f_18916_31026" x="17.3739" y="26.9931" width="16.0823" height="14.1164" filterUnits="userSpaceOnUse" color-interpolation-filters="sRGB">
<feFlood flood-opacity="0" result="BackgroundImageFix"/>
<feBlend mode="normal" in="SourceGraphic" in2="BackgroundImageFix" result="shape"/>
<feGaussianBlur stdDeviation="1.90484" result="effect1_foregroundBlur_18916_31026"/>
</filter>
<filter id="filter1_f_18916_31026" x="11.7166" y="22.1482" width="25.7114" height="23.8295" filterUnits="userSpaceOnUse" color-interpolation-filters="sRGB">
<feFlood flood-opacity="0" result="BackgroundImageFix"/>
<feBlend mode="normal" in="SourceGraphic" in2="BackgroundImageFix" result="shape"/>
<feGaussianBlur stdDeviation="4.40148" result="effect1_foregroundBlur_18916_31026"/>
</filter>
<filter id="filter2_f_18916_31026" x="17.8317" y="28.3629" width="13.2253" height="11.6277" filterUnits="userSpaceOnUse" color-interpolation-filters="sRGB">
<feFlood flood-opacity="0" result="BackgroundImageFix"/>
<feBlend mode="normal" in="SourceGraphic" in2="BackgroundImageFix" result="shape"/>
<feGaussianBlur stdDeviation="2.0158" result="effect1_foregroundBlur_18916_31026"/>
</filter>
<clipPath id="clip0_18916_31026">
<rect width="56" height="56" rx="28" fill="white"/>
</clipPath>
</defs>
</svg>
