<svg width="56" height="56" viewBox="0 0 56 56" fill="none" xmlns="http://www.w3.org/2000/svg">
<g clip-path="url(#clip0_18916_31045)">
<rect width="56" height="56" rx="28" fill="white"/>
<path d="M32.6847 33.6586C32.6196 34.1162 32.4503 34.5571 32.0448 34.7264C31.7824 34.8362 31.4848 34.799 31.2038 34.7599C28.9695 34.4511 26.5175 34.6223 24.2608 34.8102C22.9845 34.9237 21.539 34.9962 20.2981 35.2901C19.206 35.5487 18.3112 36.4362 17.221 36.7245C14.0527 37.5654 12.7727 30.4475 14.2927 26.762C15.182 24.6077 16.1159 23.0654 14.7355 20.7659C12.2723 16.6637 15.1764 16.5409 15.0127 12.9392C14.7931 8.10023 18.6665 3.63524 23.485 2.7348C24.2459 2.5934 24.9919 2.75898 25.7398 2.88921C26.4282 3.01014 27.0514 2.92084 27.7119 2.97107C29.0011 3.06967 30.0467 4.60451 30.5378 5.67611C31.1201 6.94491 31.3341 8.34766 31.5015 9.73181C31.9815 13.6629 32.1471 17.6255 32.3145 21.5826C32.4299 24.3156 32.5433 27.0485 32.6587 29.7815C32.7071 30.9219 32.7554 32.0623 32.7219 33.2028C32.7182 33.3516 32.7071 33.506 32.6847 33.6586Z" fill="#47403A"/>
<path d="M20.3123 31.9155C20.1356 31.7779 19.9402 31.6625 19.7282 31.5695C19.5161 31.4765 19.2872 31.4076 19.0454 31.3611C18.8035 31.3165 18.5505 31.2941 18.2901 31.296C18.0296 31.2979 17.7617 31.3221 17.4957 31.3704C17.1738 31.4281 16.8538 31.51 16.5413 31.6123C16.2287 31.7146 15.9255 31.8337 15.6334 31.9676C15.3413 32.1016 15.0622 32.2448 14.7999 32.3955C14.5376 32.5462 14.2883 32.7043 14.0483 32.8681C13.8102 33.0318 13.5776 33.2048 13.3507 33.3834C12.6716 33.9173 12.0465 34.5089 11.4772 35.0596C10.9824 35.5396 10.5024 36.0363 10.0335 36.5424C8.51173 38.187 6.9341 39.7813 5.46809 41.4762C4.8616 42.1776 4.29045 42.8845 3.80302 43.664C3.39745 44.3152 2.64026 44.7896 2.51376 45.5933C2.29237 46.9867 4.20301 48.4471 5.39926 48.689C6.48388 48.9067 7.58896 48.4453 8.53777 47.8779C12.8335 45.3105 17.7673 43.3273 20.3607 38.7377C20.5188 38.4586 20.6714 38.1665 20.8109 37.8651C20.9504 37.5637 21.0751 37.253 21.1793 36.9349C21.2853 36.6168 21.3765 36.2856 21.4453 35.9452C21.5141 35.6047 21.5607 35.2568 21.5718 34.9015C21.583 34.5927 21.5607 34.295 21.5104 34.0085C21.4602 33.722 21.3783 33.4504 21.2723 33.1936C21.1644 32.9387 21.0304 32.7006 20.8704 32.4867C20.7086 32.269 20.5225 32.0792 20.3123 31.9155Z" fill="#FB9897"/>
<path d="M47.0315 70.8389C47.2621 71.5124 47.9375 75.023 48.1105 75.7076C45.0855 76.502 42.0511 77.3002 38.9498 77.7057C34.6597 78.2676 30.3101 78.0741 25.9883 77.836C23.6721 77.7076 21.3373 77.5662 19.0899 76.9876C18.2137 76.7625 16.8295 76.5485 17.0825 75.3746C17.7616 72.2231 17.4993 68.9227 17.9067 65.7303C18.3402 62.3331 18.9169 58.9453 19.036 55.5166C19.0527 55.0161 19.062 54.5138 19.062 54.0115C19.0118 53.5948 18.9169 53.2078 18.7885 52.8357C18.6602 52.4655 18.5039 52.1102 18.3327 51.7623C18.1616 51.4125 17.9811 51.0665 17.8062 50.713C17.6314 50.3595 17.4621 49.9967 17.3151 49.6135C17.1923 49.2916 17.103 48.9698 17.0397 48.6535C16.9784 48.3335 16.9411 48.0173 16.9225 47.701C16.8835 47.0666 16.93 46.4378 16.9932 45.8108C17.0565 45.3122 17.1402 44.8118 17.2463 44.3057C17.356 43.8258 17.4769 43.3495 17.6072 42.8714C17.7374 42.3951 17.8769 41.9188 18.0202 41.4444C18.1634 40.97 18.3067 40.4975 18.4425 40.0249C18.5802 39.5542 18.7085 39.0854 18.8239 38.6185C18.9392 38.1515 19.036 37.6883 19.1178 37.225C19.1997 36.7618 19.2741 36.2967 19.3374 35.8297C19.4006 35.3609 19.4527 34.8902 19.4918 34.4139C19.5308 33.9377 19.555 33.4577 19.5606 32.9702C19.5662 32.4047 19.5587 31.8242 19.7615 31.2959C20.0257 30.615 20.5001 30.3861 21.0527 30.334C21.6033 30.2819 22.2322 30.4047 22.7977 30.4289C23.8544 30.4717 24.9056 30.574 25.9567 30.6931C28.0199 30.9275 30.0775 31.2401 32.1537 31.3294C33.9062 31.4056 35.642 31.2233 37.3889 31.268C40.3023 31.3387 44.8492 31.307 46.1812 34.6111C46.4101 35.1767 46.4845 35.7906 46.5347 36.3971C46.7133 38.6129 46.5719 40.8398 46.3022 43.0407C46.051 45.0815 46.0008 47.061 45.7273 49.1056C45.3236 52.1325 45.0464 55.1947 45.0743 58.2514C45.091 59.9555 45.2008 61.6559 45.4389 63.3489C45.6715 65.0028 46.0808 66.6288 46.3282 68.2734C46.4622 69.1422 46.7412 69.9906 47.0315 70.8389Z" fill="#FB9897"/>
<path d="M37.3776 31.1652C37.0427 30.4898 36.6036 29.8517 36.2892 29.1764C35.6623 27.8294 35.679 26.2034 35.4353 24.7542C35.0762 22.6147 33.7516 19.3553 33.6716 18.8734C33.6716 18.8734 35.5171 17.5228 35.3144 15.9042C34.8902 12.5108 31.6419 14.3322 31.7331 15.8689C31.7349 15.8875 31.6679 15.7163 31.6642 15.6996C31.5452 15.1359 31.5414 10.6225 26.4327 8.92393C24.2951 8.21326 19.8822 8.23 18.9576 12.0755C18.4069 14.3638 18.3381 16.5721 19.2367 19.7013C20.1352 22.8324 22.857 26.4509 25.0393 27.3569C25.7258 27.6415 26.5946 27.4555 27.1657 27.2676C27.1509 27.9746 27.0802 28.7113 27.1155 29.4145C27.1509 30.1159 27.2253 30.6908 26.8216 31.3233C26.3434 32.0712 25.4579 32.5289 25.1156 33.3474C24.9109 33.8349 24.9314 34.3986 25.11 34.8953C25.8504 36.9585 28.1183 37.5241 30.0866 37.6282C32.9609 37.7808 38.2073 36.5139 37.8575 32.6926C37.8036 32.1475 37.6175 31.647 37.3776 31.1652Z" fill="#FCC9B8"/>
<path d="M18.9517 12.0751C18.4011 14.3634 18.3322 16.5718 19.2308 19.701C19.4429 20.4433 19.2978 21.2526 19.6103 22.0079C20.615 24.4432 22.7098 26.5026 24.1646 27.3808C25.6381 28.27 28.1813 27.0347 29.4128 26.1752C30.57 25.3678 31.7942 24.2218 32.6555 23.1037C33.1486 22.4637 33.5355 21.7288 33.7383 20.9437C33.8406 20.5437 33.8983 20.1307 33.8871 19.7177C33.8778 19.3791 33.7253 19.1782 33.6713 18.8675C34.5662 18.2182 35.4592 17.0666 35.3122 15.902C34.888 12.5086 31.6398 14.33 31.7309 15.8667C31.7328 15.8853 31.6658 15.7141 31.6621 15.6974C31.543 15.1337 31.5393 10.6203 26.4306 8.92174C24.2893 8.21292 19.8764 8.22967 18.9517 12.0751Z" fill="#FCC9B8"/>
<path d="M56.7538 38.0848C59.1965 39.7033 61.5648 41.4261 63.708 43.4297C64.8652 44.5106 66.6456 46.3599 65.7805 48.1031C65.0829 49.5077 62.9267 49.9486 61.5165 49.8854C59.684 49.8016 58.1398 48.7021 56.6757 47.7105C53.3269 45.4446 49.4331 44.1125 45.9485 42.0698C44.0007 40.9275 40.8584 39.374 40.3208 36.9406C40.1292 36.0718 40.3208 35.1621 40.6315 34.3286C41.0501 33.2049 41.7459 32.0775 42.8528 31.5268C45.3644 30.2748 48.3485 32.7268 50.3354 33.9974C52.4656 35.3574 54.6367 36.682 56.7538 38.0848Z" fill="#FFC6AD"/>
<path d="M59.439 43.4139C59.6957 43.3227 59.9525 43.2576 60.2036 43.2055C60.5013 43.146 60.7971 43.1051 61.0873 43.0883C61.3775 43.0716 61.6659 43.0772 61.9487 43.1088C62.2315 43.1404 62.5105 43.1962 62.7859 43.2818C63.0594 43.3655 63.331 43.4772 63.5951 43.6186C63.9021 43.7823 64.2203 43.9962 64.5216 44.2474C64.823 44.4985 65.1132 44.785 65.3588 45.0994C65.6044 45.4138 65.8053 45.7543 65.9225 46.1171C66.0397 46.4799 66.0695 46.8631 65.9783 47.2612C65.8909 47.6389 65.7681 47.9942 65.623 48.3347C65.4797 48.6752 65.3123 48.9989 65.1393 49.3151C64.8826 49.7858 64.6221 50.2491 64.3486 50.7104C64.077 51.1737 63.7849 51.6407 63.4631 52.1206C63.1412 52.6006 62.7766 53.1011 62.3766 53.6183C61.958 54.1522 61.532 54.6917 61.1078 55.2331C60.7896 55.6387 60.4715 56.0442 60.1534 56.4498C59.8353 56.8554 59.5171 57.2591 59.1971 57.6628C58.8771 58.0647 58.5534 58.4646 58.226 58.8591C57.8986 59.2535 57.5637 59.6441 57.2251 60.0311C56.8846 60.4162 56.5405 60.7976 56.1926 61.1771C55.6698 61.7446 55.1377 62.3045 54.5945 62.8534C54.0494 63.4022 53.4987 63.9454 52.9424 64.4812C51.7555 65.6272 50.5406 66.7528 49.2346 67.7648C48.0719 68.6671 46.5928 70.0904 45.0133 69.3871C44.6803 69.2383 44.3883 69.0057 44.178 68.7099C43.9883 68.442 43.8729 68.1518 43.819 67.8486C43.765 67.5453 43.7743 67.2272 43.832 66.9091C43.8897 66.5909 43.9976 66.2709 44.1408 65.9584C44.2841 65.6477 44.4627 65.3444 44.6636 65.0635C44.8403 64.8161 45.0506 64.5798 45.324 64.4589C45.5752 64.3473 45.8524 64.3435 46.1147 64.2915C46.431 64.2282 46.7156 63.9808 46.9705 63.685C47.2254 63.3892 47.4542 63.0431 47.6533 62.7808C48.0086 62.3138 48.3565 61.8376 48.7007 61.3501C49.0449 60.8646 49.3835 60.3697 49.7165 59.8748C50.0272 59.4135 50.3211 58.9446 50.5983 58.4684C50.829 58.0721 51.0504 57.6721 51.2643 57.2684C51.5304 56.7642 51.7871 56.2526 52.0364 55.7373C52.2857 55.2219 52.5257 54.7029 52.7601 54.182C52.9945 53.6611 53.2252 53.1364 53.4503 52.6136C53.6773 52.089 53.9005 51.5662 54.1219 51.0435C54.3043 50.6137 54.4922 50.156 54.6875 49.6854C54.8847 49.2147 55.0912 48.731 55.3126 48.251C55.534 47.7691 55.7721 47.291 56.0289 46.8278C56.2875 46.3664 56.5647 45.9236 56.8642 45.5143C57.1042 45.1869 57.3572 44.8836 57.6269 44.6102C57.9488 44.2827 58.293 43.9999 58.6613 43.7804C58.9125 43.6241 59.1748 43.5069 59.439 43.4139Z" fill="#FFC6AD"/>
<path d="M51.1393 45.8025C47.1934 43.9775 43.1395 43.291 40.0736 40.2232C38.6652 38.8148 38.9889 33.2503 40.5684 31.6709C42.1479 30.0914 43.0874 28.9379 49.4072 33.0364C55.7271 37.1349 62.1734 41.1497 64.2664 43.2835C66.3593 45.4193 66.657 46.9988 65.8459 48.7922C65.0347 50.5857 63.1985 53.0191 62.7725 53.447C62.3464 53.8749 59.3995 53.0321 57.3959 51.9214C55.3903 50.8108 54.3727 50.2247 54.3727 50.0089C54.3727 49.6071 54.6592 49.1048 54.769 48.7104C54.8062 48.5764 54.8415 48.4239 54.7708 48.3048C54.7262 48.2285 54.6462 48.1802 54.5811 48.1188C54.4248 47.9699 54.3652 47.7299 54.4304 47.5271C54.449 47.4713 54.4769 47.4155 54.4825 47.356C54.4973 47.2202 54.395 47.0974 54.2815 47.0248C54.1587 46.9467 54.0174 46.9039 53.8778 46.863C53.435 46.7327 53.0816 46.5523 52.6686 46.3793C52.1625 46.169 51.6342 46.0314 51.1393 45.8025Z" fill="#FB9897"/>
<path d="M21.0841 9.05592C20.9986 8.71361 21.6274 7.73503 21.7855 7.41504C22.0329 6.91273 22.3083 6.42158 22.6171 5.95275C23.1362 5.16394 23.7501 4.43094 24.4701 3.81514C25.6682 2.79377 27.1435 2.14821 28.7174 2.02542C32.9164 1.69985 35.9228 4.55 38.0827 7.77596C38.466 8.34897 38.8548 8.93314 39.065 9.59172C39.4148 10.6894 39.2418 11.9265 39.718 12.9758C40.3357 14.3302 41.8984 15.0725 42.4938 16.438C43.0668 17.7496 42.5998 19.2659 42.7393 20.6909C42.8398 21.7198 43.2919 22.6648 43.9021 23.489C44.4807 24.2722 45.4295 24.7187 45.5486 25.7996C45.6472 26.7019 45.1244 27.7698 46.0509 28.3968C46.289 28.5568 46.5588 28.6591 46.8174 28.7819C47.7197 29.2116 48.3224 29.8814 48.7094 30.793C48.9271 31.3065 49.074 31.9223 48.7857 32.3985C48.7466 32.4636 48.6945 32.5288 48.622 32.5511C48.488 32.5939 48.3615 32.4804 48.2536 32.3911C47.6694 31.9018 46.9178 31.9632 46.2574 32.2441C45.6676 32.4953 45.1411 32.8748 44.6109 33.2338C42.2556 34.8338 39.5394 36.1156 36.8046 34.5492C36.1423 34.1696 35.5172 33.5799 35.4298 32.8208C35.3349 31.9837 35.867 31.1837 35.4744 30.3595C35.0707 29.513 33.9675 29.247 33.6308 28.3577C33.4243 27.8126 33.6029 27.208 33.7126 26.6368C33.8633 25.8536 33.867 25.0201 33.5545 24.2741C33.2717 23.6025 32.7136 23.0909 32.6894 22.3244C32.6578 21.3421 33.3517 20.5514 33.4801 19.6063C33.6345 18.4622 33.2736 16.4622 32.2578 15.7422C32.1443 15.6622 32.0122 15.5823 31.8857 15.679C31.7759 15.7627 31.7331 15.919 31.7071 16.0492C31.6662 16.2557 31.5862 16.438 31.5471 16.639C31.5322 16.7208 31.5118 16.8027 31.4671 16.8734C31.4225 16.9441 31.3462 16.998 31.2625 16.9962C31.1285 16.9924 31.0466 16.8529 30.989 16.7301C30.829 16.3897 30.7043 16.0194 30.4513 15.7385C30.256 15.5209 30.0067 15.359 29.7481 15.2288C29.216 14.9609 28.63 14.8269 28.0644 14.6483C25.017 13.6921 21.9046 12.5033 21.0841 9.05592Z" fill="#47403A"/>
<path d="M19.5804 19.3423C20.2688 19.5823 21.065 19.6456 21.651 19.1377C21.7999 19.0093 21.5822 18.7916 21.4334 18.92C20.9348 19.3516 20.2316 19.2456 19.6604 19.0446C19.4744 18.9814 19.3944 19.2772 19.5804 19.3423Z" fill="#DE9A85"/>
<path d="M31.3952 23.9679C30.9915 24.4404 30.5896 24.9167 30.145 25.3539C29.639 25.8525 29.079 26.2915 28.4688 26.6562C28.0446 26.9092 27.5981 27.1287 27.1423 27.3185C27.066 27.3501 27.0121 27.4208 27.0344 27.5064C27.053 27.5789 27.146 27.6459 27.2223 27.6143C28.0055 27.2906 28.7534 26.8887 29.4306 26.3753C29.9701 25.966 30.4538 25.499 30.9059 24.9967C31.1459 24.7307 31.3766 24.4572 31.611 24.1837C31.7412 24.0349 31.5236 23.8172 31.3952 23.9679Z" fill="#DE9A85"/>
<path d="M21.3198 16.6679C21.3142 16.4949 21.1561 16.3535 20.9924 16.3163C20.8287 16.2791 20.6631 16.32 20.5049 16.3646C19.6287 16.6139 18.7859 16.9786 18.0045 17.4493C17.7794 17.5851 17.5357 17.7637 17.5078 18.039C18.6408 17.7227 19.7738 17.4083 20.9068 17.0921C21.0203 17.0604 21.1356 17.0288 21.2286 16.9563C21.3217 16.8856 21.3886 16.7646 21.3682 16.6418C21.3533 16.5525 21.2938 16.4763 21.2231 16.4205C21.037 16.2698 20.7673 16.2493 21.3198 16.6679Z" fill="#47403A"/>
<path d="M27.1765 29.0964C27.1691 29.8889 27.117 30.674 26.9532 31.474C26.6705 32.86 24.6817 33.6005 23.4519 33.7437C22.7617 33.8256 22.0213 33.7065 21.4278 33.3344C20.7916 32.9363 20.3878 32.2889 19.8279 31.8052C19.1358 31.2061 18.0307 30.8117 17.1433 31.0684C16.9796 30.6089 17.4819 30.302 17.8093 29.9392C18.1442 29.5671 18.4995 29.2099 18.8698 28.8732C19.5804 28.2276 20.4158 27.6285 21.3739 27.5727C21.9022 27.543 22.3655 27.716 22.8715 27.8164C23.3013 27.902 23.7626 27.9541 24.2036 28.0006C24.6984 28.0527 25.2472 27.9709 25.7384 27.9057C25.8668 27.889 27.1542 27.7104 27.1523 27.6267C27.1691 28.1253 27.1821 28.6127 27.1765 29.0964Z" fill="#47403A"/>
<path d="M27.38 32.8383C27.3484 31.4375 27.3354 30.0366 27.3354 28.6338C27.3354 28.245 27.3354 27.858 27.3391 27.4692C27.3409 27.272 27.034 27.272 27.0321 27.4692C27.0247 28.8701 27.0321 30.2728 27.0526 31.6737C27.0582 32.0626 27.0656 32.4495 27.0749 32.8383C27.0768 33.0355 27.3837 33.0355 27.38 32.8383Z" fill="#DE9A85"/>
<path d="M31.5856 18.089C31.5465 17.6239 31.5112 17.1551 31.5633 16.6918C31.6433 15.9663 31.9893 15.1961 32.6925 14.8835C33.046 14.7254 33.459 14.6937 33.8237 14.8202C34.3037 14.9858 34.5697 15.4323 34.6906 15.9049C34.8153 16.3867 34.8246 16.8946 34.8227 17.3895C34.8153 18.8332 33.9148 19.9196 32.4247 19.9624C32.1456 19.9699 31.9595 19.8303 31.8572 19.5699C31.6749 19.1048 31.6284 18.5987 31.5875 18.102C31.5875 18.0964 31.5875 18.0927 31.5856 18.089Z" fill="#FCC9B8"/>
<path d="M32.4633 18.7981C32.7367 18.653 32.9786 18.4335 33.0177 18.1097C33.0363 17.9609 33.0084 17.8046 32.9172 17.6819C32.8223 17.5553 32.6846 17.507 32.5581 17.4233C32.3014 17.254 32.4205 16.8819 32.5005 16.6475C32.6084 16.3349 32.7349 16.0149 33.0474 15.8568C33.3916 15.6838 33.8418 15.8307 34.0093 16.1786C34.0911 16.3479 34.3423 16.201 34.2604 16.0317C34.1004 15.6987 33.7321 15.494 33.3693 15.4903C33.0139 15.4866 32.6884 15.6838 32.4893 15.9703C32.3795 16.1284 32.3126 16.3144 32.2475 16.493C32.1916 16.6456 32.1451 16.7982 32.1247 16.96C32.1042 17.1219 32.1135 17.2856 32.1879 17.4344C32.2623 17.587 32.3963 17.667 32.5395 17.7451C32.6995 17.8344 32.7702 17.9646 32.7163 18.1488C32.6605 18.3404 32.4837 18.4558 32.3182 18.5451C32.1507 18.6362 32.2977 18.8874 32.4633 18.7981Z" fill="#DE9A85"/>
<path d="M33.8132 16.8107C33.5192 16.4312 33.0858 16.1782 32.6002 16.167C32.5221 16.1652 32.4551 16.2359 32.4551 16.3121C32.4551 16.3921 32.5221 16.4554 32.6002 16.4573C32.9667 16.4666 33.3332 16.66 33.562 16.9577C33.6104 17.0191 33.6867 17.0526 33.7611 17.0098C33.8225 16.9744 33.8615 16.874 33.8132 16.8107Z" fill="#DE9A85"/>
<path d="M0.713701 45.8067C0.680213 45.7397 0.652307 45.669 0.633703 45.5965C0.583472 45.3937 0.605796 45.1816 0.629981 44.9751C0.644864 44.8523 0.661609 44.7277 0.678352 44.6049C0.896021 43.0663 1.29787 41.5557 1.8746 40.1138C2.40854 38.7762 3.26433 37.7083 4.15546 36.5791C6.09029 34.1233 8.22791 31.8331 10.4065 29.5932C11.1469 28.8323 11.8873 28.0714 12.6278 27.3105C13.2399 26.6835 13.8278 25.9561 14.5161 25.4129C14.6296 25.3236 14.7524 25.2398 14.89 25.1878C15.1152 25.1059 15.3682 25.1171 15.6063 25.1673C16.3691 25.3291 17.0128 25.8556 17.5337 26.4398C17.7607 26.6928 17.9802 26.9886 17.9858 27.3217C17.9932 27.8109 16.2668 30.9327 16.0193 31.3234C14.8249 33.2024 13.8705 35.2805 12.8045 37.2339C11.7739 39.126 10.7618 41.0441 9.6474 42.8877C8.81766 44.2588 8.20744 45.829 7.04282 46.9602C6.53307 47.455 5.92844 47.9071 5.22334 48.002C4.85312 48.0504 4.47732 47.9983 4.11453 47.9127C3.01131 47.656 1.97692 47.1053 1.14718 46.3351C0.979738 46.1806 0.816023 46.0076 0.713701 45.8067Z" fill="#FCC9B8"/>
<path d="M11.2729 40.5057C10.259 41.4973 8.25906 41.7373 5.87959 40.6564C3.50012 39.5755 3.38106 37.8099 3.95406 36.8444L4.18289 36.5411C4.18289 36.5411 3.94476 36.4779 3.78849 36.5783C3.63221 36.6788 2.05272 38.768 1.29554 40.6675C0.538347 42.5652 -0.164888 45.7092 0.0341757 46.5446C0.203473 47.2515 1.08903 47.8394 1.62669 48.2524C2.34295 48.805 3.04246 49.3761 3.99127 49.3817C5.95773 49.3947 7.82558 48.6022 9.02927 47.0208C9.31019 46.6525 9.47205 46.2023 9.71948 45.8078C10.6367 44.3474 11.5725 42.6154 11.7678 40.8778C11.7883 40.6936 11.8292 40.4889 11.8199 40.3029C11.8162 40.2471 11.6804 39.8694 11.6878 39.8601C11.6859 39.8657 11.2729 40.5057 11.2729 40.5057Z" fill="#FB9897"/>
<path d="M15.9092 27.685C15.6078 27.5883 15.2953 27.4841 14.9753 27.378C14.5939 27.2515 14.2013 27.1362 14.1009 26.7678C14.032 26.5185 14.1009 26.2636 14.166 26.0237C14.2237 25.8153 14.2795 25.6106 14.3353 25.4041C14.3911 25.1976 14.4488 24.9893 14.5083 24.7753C14.5678 24.5614 14.6292 24.34 14.6943 24.1093C14.7595 23.8786 14.8264 23.6367 14.8953 23.3893C14.9641 23.1363 15.0329 22.8777 15.1036 22.6117C15.1743 22.3456 15.245 22.0759 15.3139 21.8061C15.5166 21.0173 15.6897 20.1968 16.071 19.4694C16.8003 18.0816 19.7528 15.5495 20.3016 15.0863C20.8858 14.5914 21.4681 15.0044 19.8905 17.1253C19.4589 17.7058 18.9417 18.1057 18.7742 18.6806C18.7742 18.6806 19.9965 17.1644 20.4393 16.716C20.8356 16.3123 21.9648 15.2556 22.2625 15.0472C23.0085 14.5207 23.7248 15.0398 22.8336 16.1691C22.8336 16.1691 23.4774 16.1095 23.4457 16.8183C23.4308 17.1607 23.0271 17.5625 23.0271 17.5625C23.0271 17.5625 23.3285 17.2406 23.4941 17.3653C23.6597 17.4899 23.8178 18.3569 23.2057 19.1755C22.8206 19.6908 22.4188 20.1857 22.0058 20.6787C21.7993 20.9261 21.5909 21.1754 21.429 21.4563C21.3044 21.674 21.2114 21.9047 21.1388 22.1447C21.0663 22.3847 21.0104 22.6321 20.9621 22.8814C20.9118 23.14 20.8672 23.4005 20.8207 23.6553C20.7742 23.9102 20.7295 24.1577 20.6793 24.4014C20.6291 24.6432 20.5751 24.8814 20.51 25.1102C20.4449 25.339 20.3723 25.5604 20.2849 25.7744C20.1974 25.9883 20.097 26.1967 19.9779 26.3957C19.8607 26.5948 19.7268 26.7864 19.5723 26.965C19.4217 27.1399 19.2561 27.298 19.0793 27.4357C18.9026 27.5734 18.7166 27.6887 18.5249 27.778C18.3333 27.8673 18.1342 27.9324 17.9333 27.9715C17.7324 28.0106 17.5259 28.0236 17.3194 28.0106C17.0868 27.9957 16.8543 27.9529 16.6217 27.8952C16.3892 27.8357 16.1529 27.7631 15.9092 27.685Z" fill="#FCC9B8"/>
<path d="M22.3193 15.5168C22.4198 15.4386 22.5202 15.3605 22.6207 15.2824C22.6449 15.2638 22.6579 15.2228 22.6579 15.1931C22.6579 15.1633 22.6449 15.1261 22.6207 15.1038C22.5965 15.0814 22.5649 15.0647 22.5314 15.0665C22.5202 15.0684 22.5091 15.0703 22.4979 15.0703C22.4775 15.0758 22.4589 15.087 22.4421 15.1019C22.3416 15.18 22.2412 15.2582 22.1407 15.3363C22.1165 15.3549 22.1035 15.3958 22.1035 15.4256C22.1035 15.4554 22.1165 15.4926 22.1407 15.5149C22.1649 15.5372 22.1965 15.5521 22.23 15.5521C22.2412 15.5503 22.2523 15.5484 22.2635 15.5484C22.2858 15.5447 22.3044 15.5335 22.3193 15.5168Z" fill="#FCE8E1"/>
<path d="M17.8329 19.7561C18.2645 19.3542 18.6552 18.9114 19.0645 18.4891C19.2022 18.3477 18.9845 18.1301 18.8468 18.2715C18.4375 18.6938 18.0468 19.1366 17.6152 19.5384C17.472 19.6742 17.6896 19.8919 17.8329 19.7561Z" fill="#DE9A85"/>
<path d="M18.6528 20.5176C19.436 19.5428 20.3197 18.6554 21.235 17.807C21.6238 17.4479 22.0238 17.1019 22.4089 16.7373C22.5392 16.6145 22.6731 16.4917 22.8275 16.4005C22.928 16.341 23.075 16.2666 23.181 16.3484C23.3633 16.4861 23.3149 16.7652 23.2554 16.9494C23.1847 17.1707 23.0638 17.3866 22.9038 17.5558C22.7698 17.6991 22.9857 17.9168 23.1215 17.7735C23.4266 17.4461 23.7298 16.8749 23.5791 16.4173C23.5159 16.2257 23.367 16.0508 23.1605 16.0154C22.9596 15.9801 22.7587 16.0731 22.5968 16.1847C22.4257 16.3001 22.275 16.4415 22.1261 16.5847C21.9345 16.7689 21.7317 16.9419 21.5345 17.1205C21.0062 17.5986 20.4853 18.0842 19.983 18.5884C19.4397 19.1335 18.9188 19.7028 18.4369 20.3037C18.3142 20.4525 18.53 20.672 18.6528 20.5176Z" fill="#DE9A85"/>
<path d="M19.5571 21.1867C20.2138 20.3514 20.9877 19.6128 21.7895 18.917C22.1821 18.5766 22.5858 18.2454 22.9914 17.9217C23.1253 17.8138 23.3542 17.5794 23.4695 17.8399C23.5625 18.0519 23.41 18.3292 23.3225 18.5171C23.1942 18.7905 23.0435 19.0529 22.8742 19.304C22.7179 19.5347 22.5523 19.7765 22.3588 19.9775C22.4444 20.0277 22.53 20.0761 22.6156 20.1263C22.5877 20.1951 22.6342 20.0817 22.6342 20.0612C22.6435 19.9496 22.4946 19.8621 22.4035 19.9291C22.2751 20.0203 22.1691 20.1598 22.0649 20.2751C21.9477 20.4054 21.8342 20.5393 21.7282 20.6789C21.5254 20.9449 21.3486 21.2277 21.2165 21.5365C21.0658 21.8881 20.9803 22.2583 20.9059 22.6323C20.8259 23.0416 20.744 23.449 20.6454 23.8546C20.5989 24.0462 20.8947 24.1281 20.9412 23.9364C21.0324 23.5606 21.1105 23.1811 21.1849 22.8016C21.2556 22.4369 21.33 22.0704 21.4677 21.7263C21.5868 21.4286 21.7561 21.1514 21.9477 20.8947C22.0444 20.7663 22.1486 20.6435 22.2565 20.5226C22.3067 20.4668 22.3588 20.411 22.4109 20.3551C22.437 20.3272 22.463 20.2993 22.4909 20.2714C22.5095 20.2528 22.5263 20.2342 22.5449 20.2156C22.5765 20.1877 22.5821 20.1803 22.5598 20.1951C22.4835 20.1505 22.4053 20.1077 22.3291 20.0631C22.3291 20.0538 22.3644 19.9793 22.3384 20.0054C22.3309 20.0128 22.3235 20.037 22.3198 20.0463C22.2602 20.1933 22.476 20.2993 22.5765 20.1951C22.77 19.9942 22.9356 19.7561 23.0937 19.5273C23.2649 19.278 23.4211 19.0194 23.5532 18.7459C23.6704 18.504 23.8155 18.2268 23.8025 17.9496C23.7914 17.7003 23.6351 17.4473 23.3728 17.412C23.1067 17.3766 22.9039 17.598 22.7142 17.7506C22.4872 17.9329 22.2621 18.1152 22.0388 18.3012C21.5756 18.6882 21.1198 19.0863 20.6845 19.5031C20.2063 19.9607 19.7505 20.4444 19.3412 20.9654C19.2185 21.1235 19.4343 21.3412 19.5571 21.1867Z" fill="#DE9A85"/>
<path d="M19.0889 18.4591C19.2527 18.2153 19.4815 17.9698 19.6936 17.7354C19.9968 17.3986 20.3075 17.0693 20.6201 16.7419C20.888 16.461 21.1577 16.1838 21.4312 15.9084C21.6972 15.6405 21.967 15.3559 22.2982 15.1698C22.5028 15.0545 22.8433 14.8238 22.9884 15.1364C23.1409 15.4656 22.8749 15.9028 22.6461 16.1261C22.5047 16.2638 22.7205 16.4814 22.8637 16.3438C23.1205 16.0945 23.3046 15.754 23.3307 15.3931C23.3549 15.0712 23.1651 14.688 22.8042 14.6657C22.6628 14.6582 22.5233 14.7178 22.3968 14.7754C22.2665 14.835 22.1363 14.9038 22.0154 14.9819C21.794 15.1252 21.6005 15.3112 21.4126 15.4936C20.8042 16.0852 20.2201 16.7047 19.6489 17.3298C19.3643 17.6423 19.061 17.9549 18.8229 18.3065C18.7131 18.4684 18.9792 18.6228 19.0889 18.4591Z" fill="#DE9A85"/>
<path d="M19.6613 17.7616C19.9776 17.4137 20.2827 17.0509 20.545 16.6583C20.798 16.2807 21.0417 15.8528 21.1422 15.4063C21.1906 15.196 21.1794 14.9598 20.9989 14.8128C20.8538 14.6937 20.6529 14.6882 20.478 14.7365C20.1841 14.8165 19.9441 15.0584 19.7208 15.2519C19.3413 15.5793 18.973 15.9179 18.6064 16.2583C18.4613 16.3923 18.679 16.61 18.8241 16.476C19.1106 16.21 19.399 15.9458 19.6892 15.6872C19.9013 15.4993 20.1115 15.3002 20.3459 15.1384C20.4483 15.0677 20.5748 15.0044 20.7031 15.0156C20.8892 15.0323 20.8743 15.2221 20.8371 15.3616C20.7348 15.7523 20.5338 16.117 20.3124 16.4537C20.0557 16.8425 19.7562 17.2016 19.4418 17.5458C19.3115 17.6909 19.5274 17.9085 19.6613 17.7616Z" fill="#DE9A85"/>
<path d="M17.7479 27.8571C17.6251 27.8236 17.5004 27.7901 17.3777 27.7566C17.3386 27.7455 17.2939 27.751 17.2586 27.7715C17.227 27.7901 17.1972 27.8273 17.1879 27.8627C17.1693 27.9427 17.2121 28.0282 17.2958 28.0506C17.4186 28.0841 17.5432 28.1175 17.666 28.151C17.7051 28.1622 17.7497 28.1566 17.7851 28.1362C17.8167 28.1175 17.8465 28.0803 17.8558 28.045C17.8725 27.965 17.8297 27.8794 17.7479 27.8571Z" fill="#DE9A85"/>
</g>
<rect x="0.35" y="0.35" width="55.3" height="55.3" rx="27.65" stroke="#EFEFEF" stroke-width="0.7"/>
<defs>
<clipPath id="clip0_18916_31045">
<rect width="56" height="56" rx="28" fill="white"/>
</clipPath>
</defs>
</svg>
