<svg width="56" height="56" viewBox="0 0 56 56" fill="none" xmlns="http://www.w3.org/2000/svg">
<rect x="0.35" y="0.35" width="55.3" height="55.3" rx="27.65" fill="white"/>
<rect x="0.35" y="0.35" width="55.3" height="55.3" rx="27.65" stroke="#EFEFEF" stroke-width="0.7"/>
<rect x="13.0848" y="21.0848" width="27.935" height="14.5552" rx="2.16953" fill="white"/>
<rect x="13.0848" y="21.0848" width="27.935" height="14.5552" rx="2.16953" stroke="#F8DDDD" stroke-width="2.16953"/>
<rect x="15.541" y="23.6348" width="3.34495" height="8.91986" rx="1.08476" fill="#F27373"/>
<path d="M42.6774 25.153H43.491C44.2399 25.153 44.847 25.7601 44.847 26.509V30.3057C44.847 31.0545 44.2399 31.6616 43.491 31.6616H42.6774V25.153Z" fill="#F4C0C0"/>
<path d="M42.6774 25.153H43.491C44.2399 25.153 44.847 25.7601 44.847 26.509V30.3057C44.847 31.0545 44.2399 31.6616 43.491 31.6616H42.6774V25.153Z" stroke="#F8DDDD" stroke-width="0.542382"/>
</svg>
