<svg width="56" height="56" viewBox="0 0 56 56" fill="none" xmlns="http://www.w3.org/2000/svg">
<g clip-path="url(#clip0_9466_17307)">
<rect width="56" height="56" rx="28" fill="white"/>
<rect width="56" height="56" rx="28" fill="white"/>
<path d="M18.0918 19.0618C18.0918 13.5304 22.5758 9.04639 28.1072 9.04639C33.6377 9.04639 35.7908 12.5185 36.4104 15.3352C36.6519 16.4328 35.7191 17.3387 34.5953 17.3387C33.4506 17.3387 32.5963 16.3675 32.1497 15.3135C31.3108 13.3339 29.2586 12.8671 28.1072 12.9233C24.717 12.9233 21.9687 15.6716 21.9687 19.0618V22.831H18.0918V19.0618Z" fill="#F8A9A9"/>
<path d="M43.0777 29.6714C43.0777 39.0967 29.1059 46.7258 28.5109 47.0408C28.3541 47.1252 28.1788 47.1694 28.0008 47.1694C27.8227 47.1694 27.6474 47.1252 27.4906 47.0408C26.8956 46.7258 12.9238 39.0967 12.9238 29.6714C12.9263 27.4581 13.8064 25.3361 15.3711 23.7711C16.9358 22.2061 19.0572 21.3257 21.27 21.3232C24.0498 21.3232 26.4836 23.4131 28.0008 25.4342C29.5179 23.4131 31.9517 21.3232 34.7315 21.3232C36.9443 21.3257 39.0657 22.2061 40.6304 23.7711C42.1951 25.3361 43.0752 27.4581 43.0777 29.6714Z" fill="#FE6868"/>
<path d="M28.0368 28.646C28.7683 28.6453 29.4789 28.8901 30.0547 29.3412C30.6305 29.7923 31.0383 30.4236 31.2128 31.134C31.3873 31.8444 31.3183 32.5928 31.0169 33.2593C30.7156 33.9259 30.1992 34.472 29.5506 34.8102V39.5347C29.5506 39.9391 29.39 40.3269 29.1041 40.6128C28.8181 40.8988 28.4303 41.0594 28.0259 41.0594C27.6215 41.0594 27.2337 40.8988 26.9478 40.6128C26.6618 40.3269 26.5012 39.9391 26.5012 39.5347V34.7972C25.8579 34.4546 25.3476 33.9068 25.0514 33.2408C24.7553 32.5749 24.6903 31.829 24.8668 31.1219C25.0434 30.4148 25.4513 29.787 26.0257 29.3383C26.6001 28.8897 27.308 28.646 28.0368 28.646Z" fill="#7B2121"/>
</g>
<rect x="0.35" y="0.35" width="55.3" height="55.3" rx="27.65" stroke="#EFEFEF" stroke-width="0.7"/>
<defs>
<clipPath id="clip0_9466_17307">
<rect width="56" height="56" rx="28" fill="white"/>
</clipPath>
</defs>
</svg>
