<svg width="56" height="56" viewBox="0 0 56 56" fill="none" xmlns="http://www.w3.org/2000/svg">
<g clip-path="url(#clip0_9466_17332)">
<rect width="56" height="56" rx="28" fill="white"/>
<g clip-path="url(#clip1_9466_17332)">
<rect width="56" height="56" rx="28" fill="white"/>
<rect width="56" height="56" rx="28" fill="white"/>
<path d="M38.3486 23.4851L37.0475 28.824L36.0322 32.9931L32.6655 46.8131C32.6188 47.0085 32.3621 47.064 32.2395 46.8977L31.481 45.8766C31.411 45.7832 31.2885 45.757 31.1834 45.8065L29.7597 46.498C29.6547 46.5476 29.5322 46.5213 29.4621 46.428L28.514 45.156C28.4469 45.0597 28.3214 45.0334 28.2193 45.083L26.7927 45.7774C26.6906 45.827 26.5651 45.7978 26.498 45.7044L25.5499 44.4324C25.4828 44.3391 25.3573 44.3099 25.2523 44.3595L23.8286 45.0538C23.7236 45.1034 23.601 45.0743 23.531 44.9809L22.5858 43.7089C22.5157 43.6155 22.3932 43.5864 22.2882 43.636L20.8645 44.3303C20.7594 44.3799 20.6369 44.3507 20.5669 44.2574L19.6216 42.9854C19.5516 42.892 19.4291 42.8658 19.3241 42.9124L17.8974 43.6068C17.7953 43.6564 17.6699 43.6301 17.6028 43.5339L16.6546 42.2648C16.5875 42.1685 16.4621 42.1422 16.36 42.1918L14.9333 42.8862C14.8312 42.9329 14.7058 42.9066 14.6387 42.8132L13.6905 41.5412C13.6205 41.4479 13.4979 41.4187 13.3929 41.4683L11.9692 42.1626C11.8642 42.2122 11.7417 42.1831 11.6716 42.0897L10.7235 40.8177C10.6564 40.7243 10.5309 40.6952 10.4288 40.7448L9.27934 41.302C9.09846 41.3895 8.89132 41.2261 8.94384 41.0278L10.8781 33.0748L12.2347 27.4995L14.6212 17.6998C14.6678 17.5043 14.9246 17.4518 15.0471 17.6152L15.8086 18.6363C15.8786 18.7296 16.0011 18.7588 16.1061 18.7092L17.5298 18.0149C17.6349 17.9653 17.7574 17.9945 17.8274 18.0878L18.7727 19.3598C18.8427 19.4532 18.9652 19.4824 19.0702 19.4328L20.494 18.7384C20.599 18.6888 20.7215 18.7151 20.7915 18.8113L21.7368 20.0833C21.8068 20.1767 21.9293 20.203 22.0344 20.1534L23.4581 19.4619C23.5631 19.4123 23.6856 19.4386 23.7556 19.5319L24.7038 20.804C24.7709 20.8973 24.8964 20.9265 24.9985 20.8769L26.4251 20.1825C26.5272 20.1329 26.6527 20.1621 26.7198 20.2555L27.6679 21.5275C27.7379 21.6208 27.8605 21.65 27.9655 21.6004L29.3892 20.9061C29.4942 20.8565 29.6168 20.8856 29.6868 20.979L30.632 22.251C30.7021 22.3444 30.8246 22.3735 30.9296 22.324L32.3533 21.6296C32.4584 21.58 32.5809 21.6092 32.6509 21.7025L33.5991 22.9745C33.6662 23.0679 33.7916 23.0942 33.8937 23.0475L35.3204 22.3531C35.4225 22.3035 35.5479 22.3298 35.615 22.4231L36.5632 23.6981C36.6332 23.7914 36.7557 23.8177 36.8608 23.7681L38.0073 23.2138C38.1911 23.1263 38.3953 23.2867 38.3457 23.4822L38.3486 23.4851Z" fill="#FF9B9B"/>
<g style="mix-blend-mode:soft-light">
<path d="M33.5734 24.1511L18.5446 20.4903C17.2062 20.1642 15.8568 20.985 15.5307 22.3235L11.8699 37.3524C11.5439 38.6909 12.3646 40.0402 13.7031 40.3663L28.7319 44.0271C30.0704 44.3532 31.4197 43.5324 31.7458 42.1939L35.4066 27.165C35.7327 25.8265 34.9119 24.4772 33.5734 24.1511Z" fill="white"/>
</g>
<g style="mix-blend-mode:soft-light" opacity="0.25">
<path d="M36.0322 32.9938L32.6655 46.8138C32.6188 47.0092 32.3621 47.0647 32.2395 46.8984L31.481 45.8772C31.411 45.7839 31.2885 45.7576 31.1834 45.8072L29.7597 46.4987C29.6547 46.5483 29.5322 46.522 29.4621 46.4286L28.514 45.1566C28.4469 45.0604 28.3214 45.0341 28.2193 45.0837L26.7927 45.7781C26.6906 45.8277 26.5651 45.7985 26.498 45.7051L25.5499 44.4331C25.4828 44.3397 25.3573 44.3106 25.2523 44.3602L23.8286 45.0545C23.7236 45.1041 23.601 45.0749 23.531 44.9816L22.5858 43.7096C22.5157 43.6162 22.3932 43.587 22.2882 43.6366L20.8645 44.331C20.7594 44.3806 20.6369 44.3514 20.5669 44.2581L19.6216 42.9861C19.5516 42.8927 19.4291 42.8664 19.3241 42.9131L17.8974 43.6075C17.7953 43.6571 17.6699 43.6308 17.6028 43.5345L16.6546 42.2654C16.5875 42.1692 16.4621 42.1429 16.36 42.1925L14.9333 42.8869C14.8312 42.9335 14.7058 42.9073 14.6387 42.8139L13.6905 41.5419C13.6205 41.4486 13.4979 41.4194 13.3929 41.469L11.9692 42.1633C11.8642 42.2129 11.7417 42.1838 11.6716 42.0904L10.7235 40.8184C10.6564 40.725 10.5309 40.6958 10.4288 40.7454L9.27934 41.3027C9.09846 41.3902 8.89132 41.2268 8.94384 41.0284L10.8781 33.0755C10.9539 33.1163 11.0269 33.1601 11.0998 33.2126C11.6746 33.6064 12.1268 34.2191 12.8007 34.3883C13.8043 34.645 14.7612 33.8194 15.7911 33.764C16.4037 33.729 17.1943 33.8515 17.6203 34.3008C17.629 34.3095 17.6407 34.3212 17.6495 34.3329C18.1221 34.8639 18.6531 35.3365 19.2395 35.7362C20.4006 36.5268 21.7572 37.0403 23.1605 37.1599C25.3165 37.3437 27.5541 36.5764 29.077 35.0389C29.3805 34.7267 29.6605 34.3854 30.0135 34.1287C30.3315 33.8953 30.7021 33.7406 31.0317 33.5277C31.4197 33.2797 31.7786 32.7925 32.2425 32.8275C32.7705 32.8683 33.2694 33.1046 33.7887 33.198C34.5618 33.3439 35.3145 33.2272 36.0439 32.9909L36.0322 32.9938Z" fill="black"/>
</g>
<g style="mix-blend-mode:soft-light" opacity="0.3">
<path d="M38.3493 23.4837L37.0481 28.8226C36.768 28.633 36.523 28.3733 36.2779 28.1224C31.5225 23.329 24.5498 21.6457 18.0819 23.7229C15.9434 24.4114 13.7582 25.6017 12.2266 27.5039L14.613 17.7042C14.6597 17.5087 14.9164 17.4562 15.039 17.6196L15.8004 18.6407C15.8704 18.734 15.993 18.7632 16.098 18.7136L17.5217 18.0193C17.6267 17.9697 17.7493 17.9988 17.8193 18.0922L18.7645 19.3642C18.8345 19.4576 18.9571 19.4867 19.0621 19.4372L20.4858 18.7428C20.5908 18.6932 20.7134 18.7195 20.7834 18.8157L21.7286 20.0877C21.7987 20.1811 21.9212 20.2074 22.0262 20.1578L23.4499 19.4663C23.555 19.4167 23.6775 19.443 23.7475 19.5363L24.6957 20.8084C24.7628 20.9017 24.8882 20.9309 24.9903 20.8813L26.417 20.1869C26.5191 20.1373 26.6445 20.1665 26.7116 20.2599L27.6598 21.5319C27.7298 21.6252 27.8523 21.6544 27.9574 21.6048L29.3811 20.9105C29.4861 20.8609 29.6086 20.89 29.6786 20.9834L30.6239 22.2554C30.6939 22.3488 30.8165 22.3779 30.9215 22.3283L32.3452 21.634C32.4502 21.5844 32.5727 21.6136 32.6428 21.7069L33.5909 22.9789C33.658 23.0723 33.7835 23.0986 33.8856 23.0519L35.3122 22.3575C35.4143 22.3079 35.5398 22.3342 35.6069 22.4275L36.555 23.7025C36.6251 23.7958 36.7476 23.8221 36.8526 23.7725L37.9992 23.2182C38.183 23.1306 38.3872 23.2911 38.3376 23.4866L38.3493 23.4837Z" fill="white"/>
</g>
<g style="mix-blend-mode:soft-light">
<path opacity="0.6" d="M29.8378 26.7001C28.7029 25.3844 27.1042 24.6783 25.4062 24.5908C26.9437 24.9059 28.3937 25.7111 29.4965 26.9919C30.5993 28.2726 31.1857 29.8218 31.2703 31.3856C31.4337 29.6964 30.9698 28.0101 29.8378 26.6972V26.7001Z" fill="black"/>
<g style="mix-blend-mode:soft-light" opacity="0.5">
<path d="M19.2382 25.0653C17.584 26.0485 16.4637 27.5889 15.9707 29.3102C16.6651 27.7843 17.8554 26.4102 19.4658 25.4504C21.0762 24.4935 22.8471 24.0996 24.5188 24.2221C22.7742 23.8341 20.8866 24.085 19.2353 25.0653H19.2382Z" fill="white"/>
</g>
<g style="mix-blend-mode:soft-light" opacity="0.5">
<path d="M26.6709 39.221C28.4622 38.5149 29.813 37.1758 30.5773 35.5566C29.6467 36.9512 28.2521 38.1182 26.5075 38.8038C24.7658 39.4894 22.9512 39.5915 21.3203 39.2064C22.9803 39.8716 24.8825 39.927 26.6709 39.221Z" fill="white"/>
</g>
<path opacity="0.6" d="M32.3693 32.5347C32.3693 37.1967 28.5912 40.9749 23.9321 40.9749C20.4137 40.9749 17.397 38.8189 16.1309 35.7584C17.54 38.4542 20.3611 40.2951 23.6141 40.2951C28.2761 40.2951 32.0513 36.517 32.0513 31.8549C32.0513 30.7229 31.8179 29.6026 31.3832 28.5728C32.0134 29.7543 32.3693 31.1022 32.3693 32.5347Z" fill="black"/>
<path opacity="0.6" d="M29.4657 28.1848C28.1412 26.6123 26.1573 25.6146 23.943 25.6146C19.9549 25.6146 16.7223 28.8471 16.7223 32.8324C16.7223 34.4282 17.2387 35.8986 18.114 37.0918C17.0579 35.8373 16.416 34.2123 16.416 32.4414C16.416 28.4533 19.6485 25.2236 23.6367 25.2236C26.0319 25.2236 28.1529 26.3877 29.4657 28.1848Z" fill="black"/>
</g>
<path d="M46.8347 36.5418L38.3275 39.4768C38.3216 39.4622 38.3187 39.4418 38.3129 39.4272C38.2253 39.1763 38.1378 38.9254 38.0532 38.6716C37.8811 38.1727 37.706 37.6709 37.5368 37.1749C37.3034 36.4951 37.0671 35.8183 36.8366 35.1385C36.5624 34.3508 36.294 33.566 36.0227 32.7783C35.7368 31.9497 35.4509 31.1241 35.1708 30.3014C35.0979 30.0913 35.0249 29.8784 34.952 29.6712C34.7478 29.0848 34.5494 28.5013 34.3452 27.9178C34.1059 27.2235 33.8696 26.5291 33.6275 25.8348C33.4466 25.3125 33.2657 24.7874 33.0848 24.2623C33.0236 24.0872 32.9652 23.9092 32.9039 23.7342C32.8689 23.6292 32.8573 23.4687 32.7697 23.4045C32.5684 23.2557 32.2942 23.3695 32.1921 23.0719C32.1542 22.964 32.1629 22.8473 32.2125 22.751C32.2767 22.6168 32.4634 22.5176 32.4021 22.3426C32.3234 22.1208 31.9879 22.1938 31.8508 22.0158C31.7428 21.8729 31.7399 21.7095 31.807 21.5724C31.8712 21.4382 31.9879 21.339 31.9412 21.1727C31.8712 20.9393 31.5882 21.0151 31.4481 20.843C31.3373 20.7 31.3344 20.5279 31.3986 20.3937C31.4686 20.2508 31.6611 20.1311 31.5824 19.9503C31.524 19.819 31.4015 19.8336 31.2877 19.8073C31.1739 19.781 31.0689 19.7139 31.0076 19.6147C30.9318 19.4805 30.9347 19.3347 30.993 19.2151C31.0572 19.0779 31.241 18.9642 31.1827 18.7949C31.1301 18.6491 30.9872 18.6607 30.8647 18.6257C30.7246 18.5849 30.6138 18.4915 30.5642 18.3515C30.5292 18.2406 30.5379 18.1298 30.5875 18.0306C30.6459 17.9168 30.7392 17.8118 30.7596 17.6834C30.7801 17.5521 30.7275 17.3975 30.6955 17.2749C30.6138 16.9569 30.5642 16.6302 30.5554 16.3034C30.5321 15.6703 30.6517 15.0314 30.8909 14.4421C30.9288 14.3575 30.9668 14.27 31.0076 14.1854C31.2381 13.7098 31.5561 13.2751 31.9441 12.9046C32.1833 12.677 32.2825 12.3444 32.2183 12.0206L31.877 10.4102C31.7457 9.81502 32.0812 9.23736 32.6064 9.05648C32.866 8.96312 33.1519 8.98354 33.4057 9.09149C33.6596 9.19943 33.8813 9.39782 34.0155 9.67498L34.739 11.1541C34.8849 11.4517 35.1737 11.653 35.5063 11.6851C36.6412 11.7989 37.7177 12.359 38.4617 13.2226C38.6775 13.4706 38.8643 13.7419 39.0189 14.0307C39.0977 14.1795 39.1677 14.3312 39.2319 14.4888C39.2815 14.6142 39.2844 14.7864 39.4361 14.8389C39.617 14.9001 39.7862 14.8476 39.9 15.0518C39.9758 15.186 39.9729 15.329 39.9145 15.4486C39.8416 15.6003 39.6549 15.7404 39.8037 15.9125C39.9437 16.07 40.1829 16.0292 40.3026 16.2276C40.3813 16.3618 40.3813 16.5193 40.3084 16.6594C40.2646 16.744 40.1742 16.8052 40.1333 16.8898C40.1217 16.9219 40.1129 16.954 40.1188 16.992C40.1275 17.132 40.25 17.1787 40.3667 17.2078C40.5068 17.2399 40.6322 17.2779 40.7139 17.4121C40.7927 17.5492 40.7869 17.7067 40.7139 17.8468C40.6468 17.9635 40.5039 18.0627 40.5476 18.2115C40.6147 18.439 40.9911 18.3807 41.1165 18.5878C41.1953 18.722 41.1953 18.8708 41.1399 18.9904C41.0815 19.1042 40.9561 19.1684 40.9356 19.3055C40.9298 19.3726 40.9502 19.4426 40.9998 19.4893C41.1603 19.6498 41.4404 19.5622 41.5512 19.8219C41.6008 19.9386 41.595 20.067 41.5454 20.172C41.4695 20.3266 41.3703 20.4287 41.3791 20.6154C41.3878 20.7701 41.4549 20.9159 41.5016 21.0618C41.5716 21.2573 41.6387 21.4557 41.7088 21.6511C41.9042 22.2288 42.1055 22.8064 42.3039 23.3841C42.5548 24.1164 42.8086 24.8487 43.0625 25.5868C43.3454 26.4007 43.6284 27.2206 43.9085 28.0404C43.9727 28.2212 44.031 28.405 44.0952 28.5859C44.3169 29.2336 44.5416 29.8813 44.7633 30.5319C45.0288 31.3021 45.2972 32.0723 45.5627 32.8454C45.7815 33.4872 46.0032 34.1262 46.222 34.7651C46.3737 35.2027 46.5225 35.6403 46.6742 36.075C46.7267 36.2355 46.7851 36.3989 46.8405 36.5593L46.8347 36.5418Z" fill="#FFD4D4"/>
<g style="mix-blend-mode:soft-light">
<path d="M45.1352 36.4231C44.9835 35.9884 44.8347 35.5508 44.683 35.1132C44.4642 34.4743 44.2425 33.8353 44.0237 33.1935C43.7582 32.4233 43.4898 31.6531 43.2272 30.88C42.9384 30.0485 42.6525 29.2199 42.3666 28.3885C42.0836 27.5686 41.8006 26.7518 41.5205 25.932C41.2667 25.1997 41.0158 24.4674 40.762 23.7322C40.5607 23.1545 40.3652 22.5769 40.1668 21.9992C40.0968 21.8038 40.0297 21.6054 39.9626 21.4099C39.913 21.264 39.8459 21.1182 39.8401 20.9635C39.8313 20.7768 39.9247 20.6747 40.0005 20.5201C40.0501 20.4151 40.0589 20.2896 40.0064 20.1671C39.8955 19.9103 39.6184 19.9979 39.455 19.8374C39.4083 19.7907 39.385 19.7207 39.3937 19.6536C39.4083 19.5165 39.5367 19.4552 39.5921 19.3385C39.6504 19.216 39.6534 19.0701 39.5717 18.9359C39.4462 18.7258 39.067 18.7871 38.9999 18.5595C38.9561 18.4108 39.102 18.3116 39.1662 18.1949C39.242 18.0548 39.2478 17.8973 39.1662 17.7602C39.0874 17.626 38.9619 17.588 38.819 17.5559C38.7052 17.5268 38.5797 17.4801 38.571 17.3401C38.5681 17.3021 38.5739 17.27 38.5914 17.2379C38.6293 17.1533 38.7169 17.0921 38.7635 17.0075C38.8365 16.8674 38.8365 16.7099 38.7577 16.5757C38.641 16.3802 38.3989 16.4211 38.2588 16.2606C38.11 16.0885 38.2968 15.9484 38.3697 15.7967C38.428 15.6771 38.431 15.5341 38.3551 15.3999C38.2413 15.1957 38.0721 15.2482 37.8912 15.187C37.7424 15.1374 37.7395 14.9652 37.687 14.8369C37.6228 14.6823 37.5528 14.5305 37.474 14.3788C37.3194 14.09 37.1327 13.8187 36.9168 13.5707C36.4704 13.0514 35.6302 12.4504 34.7812 12.0332C35.9161 12.147 36.9927 12.7071 37.7366 13.5707C37.9525 13.8187 38.1392 14.09 38.2938 14.3788C38.3726 14.5276 38.4426 14.6793 38.5068 14.8369C38.5564 14.9652 38.5593 15.1345 38.711 15.187C38.8919 15.2482 39.0611 15.1957 39.1749 15.3999C39.2508 15.5341 39.2478 15.6771 39.1895 15.7967C39.1166 15.9484 38.9298 16.0885 39.0786 16.2606C39.2187 16.4181 39.4579 16.3773 39.5775 16.5757C39.6563 16.7099 39.6563 16.8674 39.5833 17.0075C39.5396 17.0921 39.4491 17.1533 39.4083 17.2379C39.3966 17.27 39.3879 17.3021 39.3937 17.3401C39.4025 17.4801 39.525 17.5268 39.6417 17.5559C39.7817 17.588 39.9072 17.626 39.9889 17.7602C40.0676 17.8973 40.0618 18.0548 39.9889 18.1949C39.9218 18.3116 39.7788 18.4108 39.8226 18.5595C39.8897 18.7871 40.266 18.7288 40.3944 18.9359C40.4702 19.0701 40.4702 19.216 40.4148 19.3385C40.3565 19.4523 40.231 19.5165 40.2106 19.6536C40.2048 19.7207 40.2252 19.7907 40.2748 19.8374C40.4352 19.9979 40.7153 19.9103 40.8262 20.1671C40.8758 20.2867 40.8699 20.4151 40.8203 20.5201C40.7445 20.6747 40.6453 20.7768 40.6599 20.9635C40.6657 21.1182 40.7328 21.264 40.7824 21.4099C40.8495 21.6054 40.9166 21.8038 40.9866 21.9992C41.1821 22.5769 41.3834 23.1545 41.5818 23.7322C41.8356 24.4645 42.0865 25.1968 42.3403 25.932C42.6233 26.7518 42.9063 27.5686 43.1864 28.3885C43.4723 29.2199 43.7582 30.0485 44.0441 30.88C44.3096 31.6502 44.578 32.4204 44.8435 33.1935C45.0623 33.8353 45.284 34.4743 45.5028 35.1132C45.6545 35.5508 45.7275 35.7638 45.8792 36.1985L45.1352 36.4231Z" fill="white"/>
</g>
<g style="mix-blend-mode:soft-light" opacity="0.5">
<path d="M46.8339 36.5423L38.3266 39.4772C38.3208 39.4626 38.3179 39.4422 38.3121 39.4276C38.2245 39.1767 38.137 38.9258 38.0524 38.672C37.8803 38.1731 37.7052 37.6713 37.536 37.1754C37.3026 36.4956 37.0663 35.8187 36.8358 35.139C36.5616 34.3513 36.2932 33.5665 36.0219 32.7788C35.736 31.9502 35.4501 31.1246 35.17 30.3018C35.097 30.0918 35.0241 29.8788 34.9512 29.6717C36.0423 30.0976 37.1801 30.404 38.3558 30.4973C40.2171 30.6403 42.1718 30.1939 43.613 29.0036C43.7793 28.8665 43.9369 28.7206 44.0944 28.5747C44.3161 29.2224 44.5408 29.8701 44.7625 30.5207C45.028 31.2909 45.2964 32.0611 45.5619 32.8342C45.7807 33.476 46.0024 34.115 46.2212 34.7539C46.3729 35.1915 46.5217 35.6291 46.6734 36.0638C46.7259 36.2243 46.7843 36.3877 46.8397 36.5481L46.8339 36.5423Z" fill="black"/>
</g>
<g style="mix-blend-mode:soft-light" opacity="0.5">
<path d="M39.511 15.6353C38.8021 15.6528 38.1486 15.8366 37.4688 16.0262C36.7832 16.2187 36.1035 16.4288 35.4266 16.6564C34.7527 16.8839 34.0817 17.129 33.4194 17.3916C32.7659 17.6541 32.1766 18.0159 31.5523 18.3281C31.5377 18.3368 31.5465 18.3631 31.564 18.3572C32.2379 18.083 32.9527 17.8904 33.6353 17.625C34.2772 17.3741 34.9219 17.1407 35.5754 16.9248C36.2289 16.7089 36.8854 16.5076 37.5476 16.3238C38.2215 16.1371 38.8867 15.9912 39.5256 15.7053C39.5606 15.6907 39.5431 15.6353 39.5081 15.6353H39.511Z" fill="black"/>
</g>
<g style="mix-blend-mode:soft-light" opacity="0.5">
<path d="M39.8607 16.9106C39.1517 16.9281 38.4982 17.1119 37.8185 17.3016C37.1329 17.4941 36.4531 17.7042 35.7762 17.9318C35.1023 18.1593 34.4313 18.4044 33.7691 18.667C33.1155 18.9295 32.5262 19.2913 31.9019 19.6035C31.8873 19.6122 31.8961 19.6385 31.9136 19.6326C32.5875 19.3584 33.3023 19.1658 33.9849 18.9003C34.6268 18.6494 35.2715 18.4161 35.925 18.2002C36.5785 17.9843 37.235 17.783 37.8972 17.5992C38.5711 17.4124 39.2363 17.2666 39.8752 16.9807C39.9102 16.9661 39.8927 16.9106 39.8577 16.9106H39.8607Z" fill="black"/>
</g>
<g style="mix-blend-mode:soft-light" opacity="0.5">
<path d="M40.2122 18.1816C39.5033 18.1991 38.8498 18.3829 38.17 18.5726C37.4844 18.7651 36.8047 18.9752 36.1278 19.2027C35.4539 19.4303 34.7829 19.6754 34.1206 19.9379C33.4671 20.2005 32.8778 20.5623 32.2535 20.8745C32.2389 20.8832 32.2476 20.9095 32.2651 20.9036C32.9391 20.6294 33.6538 20.4368 34.3365 20.1713C34.9783 19.9204 35.6231 19.687 36.2766 19.4712C36.9301 19.2553 37.5865 19.054 38.2488 18.8702C38.9227 18.6834 39.5879 18.5376 40.2268 18.2517C40.2618 18.2371 40.2443 18.1816 40.2093 18.1816H40.2122Z" fill="black"/>
</g>
<g style="mix-blend-mode:soft-light" opacity="0.5">
<path d="M40.5618 19.4575C39.8529 19.475 39.1994 19.6588 38.5196 19.8485C37.834 20.041 37.1543 20.2511 36.4774 20.4786C35.8035 20.7062 35.1325 20.9513 34.4702 21.2138C33.8167 21.4764 33.2274 21.8382 32.6031 22.1503C32.5885 22.1591 32.5972 22.1853 32.6147 22.1795C33.2887 21.9053 34.0034 21.7127 34.6861 21.4472C35.328 21.1963 35.9727 20.9629 36.6262 20.747C37.2797 20.5311 37.9361 20.3298 38.5984 20.146C39.2723 19.9593 39.9375 19.8134 40.5764 19.5275C40.6114 19.513 40.5939 19.4575 40.5589 19.4575H40.5618Z" fill="black"/>
</g>
<g style="mix-blend-mode:soft-light" opacity="0.5">
<path d="M40.9114 20.7285C40.2025 20.746 39.549 20.9298 38.8692 21.1195C38.1836 21.312 37.5039 21.5221 36.827 21.7496C36.1531 21.9772 35.4821 22.2223 34.8198 22.4848C34.1663 22.7474 33.577 23.1092 32.9527 23.4213C32.9381 23.4301 32.9468 23.4563 32.9643 23.4505C33.6383 23.1763 34.353 22.9837 35.0357 22.7182C35.6776 22.4673 36.3223 22.2339 36.9758 22.018C37.6293 21.8021 38.2857 21.6008 38.948 21.417C39.6219 21.2303 40.2871 21.0844 40.926 20.7985C40.961 20.7839 40.9435 20.7285 40.9085 20.7285H40.9114Z" fill="black"/>
</g>
<g style="mix-blend-mode:soft-light" opacity="0.5">
<path d="M33.3582 11.2747C33.4165 11.3243 33.4749 11.3768 33.5128 11.4556C33.5507 11.5343 33.5683 11.6452 33.5362 11.7356C33.5041 11.8261 33.4311 11.8698 33.364 11.9019C33.2444 11.9603 33.1248 12.0099 33.0023 12.0478C32.9002 12.0799 32.7922 12.1032 32.6959 12.0624C32.5792 12.0128 32.4888 11.8757 32.4334 11.7152C32.3779 11.5577 32.3546 11.3797 32.3283 11.2017C32.305 11.0442 32.2846 10.8837 32.2612 10.7262C32.1825 10.169 32.5384 10.5599 32.6814 10.6883C32.906 10.8837 33.1306 11.0821 33.3553 11.2776L33.3582 11.2747Z" fill="black"/>
</g>
<g style="mix-blend-mode:soft-light">
<path d="M34.409 11.2467C34.3798 11.1067 34.3565 10.9667 34.2981 10.8354C34.2485 10.7216 34.1989 10.6078 34.1493 10.494C34.0501 10.2665 33.9626 10.0214 33.8372 9.80553C33.7438 9.6509 33.6009 9.44084 33.4346 9.35916C33.2537 9.27163 33.0407 9.24246 32.8423 9.28622C32.8132 9.29205 32.7781 9.30664 32.7723 9.33582C32.7665 9.36791 32.7927 9.39416 32.819 9.41167C32.9415 9.49919 33.0524 9.58963 33.1632 9.68883C33.3004 9.81136 33.385 9.97474 33.4696 10.141C33.5688 10.3423 33.6563 10.5524 33.7496 10.7595C33.7963 10.8675 33.843 10.9783 33.8926 11.0834C33.948 11.1972 34.0326 11.2993 34.1085 11.4014C34.2194 11.5531 34.444 11.4218 34.409 11.2497V11.2467Z" fill="white"/>
</g>
<path d="M47.4434 37.2564L38.2826 40.416C38.02 40.5064 37.7312 40.3664 37.6408 40.1038C37.5503 39.8413 37.6904 39.5524 37.9529 39.462L47.1137 36.3024C47.3763 36.212 47.6651 36.352 47.7555 36.6146C47.846 36.8771 47.7059 37.166 47.4434 37.2564Z" fill="#FFD4D4"/>
</g>
</g>
<rect x="0.35" y="0.35" width="55.3" height="55.3" rx="27.65" stroke="#EFEFEF" stroke-width="0.7"/>
<defs>
<clipPath id="clip0_9466_17332">
<rect width="56" height="56" rx="28" fill="white"/>
</clipPath>
<clipPath id="clip1_9466_17332">
<rect width="56" height="56" rx="28" fill="white"/>
</clipPath>
</defs>
</svg>
