<svg width="56" height="56" viewBox="0 0 56 56" fill="none" xmlns="http://www.w3.org/2000/svg">
<rect x="0.35" y="0.35" width="55.3" height="55.3" rx="27.65" fill="white"/>
<rect x="0.35" y="0.35" width="55.3" height="55.3" rx="27.65" stroke="#EFEFEF" stroke-width="0.7"/>
<path d="M44.1918 19.8444C44.9908 20.7066 44.9429 22.0516 44.0807 22.8524L20.8507 44.431C19.9905 45.2299 18.6436 45.182 17.8428 44.3199L11.5434 37.5357C10.7445 36.6736 10.7924 35.3286 11.6545 34.5278L34.8845 12.9511C35.7447 12.1522 37.0916 12.2001 37.8924 13.0622L44.1918 19.8444Z" fill="#FFD2D2"/>
<g style="mix-blend-mode:multiply">
<path d="M44.1918 19.8444C44.9908 20.7066 44.9429 22.0516 44.0807 22.8524L20.8507 44.431C19.9905 45.2299 18.6436 45.182 17.8428 44.3199L11.5434 37.5357C10.7445 36.6736 10.7924 35.3286 11.6545 34.5278L34.8845 12.9511C35.7447 12.1522 37.0916 12.2001 37.8924 13.0622L44.1918 19.8444Z" fill="#FFD2D2"/>
</g>
<path d="M44.1918 19.4621C44.9908 20.3243 44.9429 21.6692 44.0807 22.4701L20.8507 44.0487C19.9905 44.8476 18.6436 44.7997 17.8428 43.9376L11.5434 37.1534C10.7445 36.2913 10.7924 34.9463 11.6545 34.1455L34.8845 12.5688C35.7447 11.7698 37.0916 11.8177 37.8924 12.6799L44.1918 19.4621Z" fill="#FFD2D2"/>
<path d="M16.3291 34.5231C17.0801 35.3317 17.0341 36.5961 16.2256 37.3472C15.4171 38.0982 14.1526 38.0522 13.4016 37.2437C12.6506 36.4352 12.6966 35.1707 13.5051 34.4197C14.3136 33.6687 15.5781 33.7146 16.3291 34.5231Z" fill="#FFA6A6"/>
<path d="M20.8623 39.4048C21.6133 40.2133 21.5673 41.4778 20.7588 42.2288C19.9503 42.9798 18.6858 42.9338 17.9348 42.1253C17.1838 41.3168 17.2298 40.0523 18.0383 39.3013C18.8468 38.5503 20.1113 38.5963 20.8623 39.4067V39.4048Z" fill="#FFA6A6"/>
<path d="M20.5146 30.635C21.2657 31.4435 21.2197 32.708 20.4112 33.459C19.6027 34.21 18.3382 34.164 17.5872 33.3555C16.8361 32.547 16.8821 31.2825 17.6906 30.5315C18.4991 29.7805 19.7636 29.8265 20.5146 30.635Z" fill="#FFA6A6"/>
<path d="M25.0478 35.5173C25.7989 36.3258 25.7529 37.5903 24.9444 38.3413C24.1359 39.0923 22.8714 39.0464 22.1204 38.2378C21.3693 37.4293 21.4153 36.1649 22.2238 35.4138C23.0323 34.6628 24.2968 34.7088 25.0478 35.5173Z" fill="#FFA6A6"/>
<path d="M24.6963 26.7512C25.4473 27.5597 25.4013 28.8242 24.5928 29.5752C23.7843 30.3262 22.5198 30.2802 21.7688 29.4717C21.0178 28.6632 21.0638 27.3987 21.8723 26.6477C22.6808 25.8967 23.9452 25.9427 24.6963 26.7512Z" fill="#FFA6A6"/>
<path d="M29.2314 31.6328C29.9824 32.4413 29.9365 33.7058 29.128 34.4568C28.3195 35.2078 27.055 35.1619 26.304 34.3534C25.5529 33.5449 25.5989 32.2804 26.4074 31.5293C27.2159 30.7783 28.4804 30.8243 29.2314 31.6347V31.6328Z" fill="#FFA6A6"/>
<path d="M28.8818 22.8654C29.6328 23.6739 29.5869 24.9384 28.7784 25.6894C27.9699 26.4405 26.7054 26.3945 25.9544 25.586C25.2033 24.7775 25.2493 23.513 26.0578 22.762C26.8663 22.0109 28.1308 22.0569 28.8818 22.8654Z" fill="#FFA6A6"/>
<path d="M33.415 27.7453C34.166 28.5538 34.1201 29.8183 33.3116 30.5693C32.5031 31.3204 31.2386 31.2744 30.4876 30.4659C29.7365 29.6574 29.7825 28.3929 30.591 27.6419C31.3995 26.8908 32.664 26.9368 33.415 27.7453Z" fill="#FFA6A6"/>
<path d="M33.0635 18.9773C33.8145 19.7858 33.7685 21.0502 32.96 21.8013C32.1515 22.5523 30.887 22.5063 30.136 21.6978C29.385 20.8893 29.431 19.6248 30.2395 18.8738C31.048 18.1228 32.3124 18.1687 33.0635 18.9773Z" fill="#FFA6A6"/>
<path d="M37.5986 23.8591C38.3496 24.6676 38.3037 25.9321 37.4952 26.6831C36.6867 27.4341 35.4222 27.3881 34.6712 26.5796C33.9201 25.7711 33.9661 24.5067 34.7746 23.7556C35.5831 23.0046 36.8476 23.0506 37.5986 23.8591Z" fill="#FFA6A6"/>
<path d="M37.249 15.0935C38 15.902 37.954 17.1664 37.1455 17.9175C36.337 18.6685 35.0726 18.6225 34.3215 17.814C33.5705 17.0055 33.6165 15.741 34.425 14.99C35.2335 14.239 36.498 14.285 37.249 15.0935Z" fill="#FFA6A6"/>
<path d="M41.7842 19.9753C42.5352 20.7838 42.4892 22.0483 41.6807 22.7993C40.8722 23.5503 39.6077 23.5044 38.8567 22.6959C38.1057 21.8874 38.1517 20.6229 38.9602 19.8718C39.7687 19.1208 41.0331 19.1668 41.7842 19.9753Z" fill="#FFA6A6"/>
<path d="M39.4282 17.9794L39.428 17.9797L16.7153 39.0774L16.7151 39.0776C16.5648 39.2179 16.4028 39.3105 16.2663 39.3499C16.1239 39.3909 16.039 39.3675 16.0019 39.3276C15.9648 39.2876 15.9476 39.2012 15.9988 39.0624C16.0479 38.9294 16.1521 38.775 16.3032 38.6356L16.3035 38.6353L39.0162 17.5376C39.0162 17.5376 39.0162 17.5376 39.0162 17.5376C39.1676 17.3971 39.3296 17.3045 39.4659 17.2651C39.608 17.2241 39.6924 17.2475 39.7295 17.2874C39.7667 17.3274 39.7838 17.4138 39.7326 17.5526C39.6835 17.6856 39.5794 17.8401 39.4282 17.9794Z" fill="#FFE2E2" stroke="#FFECEC" stroke-width="0.191588"/>
<path d="M16.6162 34.2365C17.3672 35.045 17.3212 36.3095 16.5127 37.0605C15.7042 37.8116 14.4398 37.7656 13.6887 36.9571C12.9377 36.1486 12.9837 34.8841 13.7922 34.1331C14.6007 33.382 15.8652 33.428 16.6162 34.2365Z" fill="white"/>
<path d="M21.1513 39.1182C21.9024 39.9267 21.8564 41.1911 21.0479 41.9422C20.2394 42.6932 18.9749 42.6472 18.2239 41.8387C17.4729 41.0302 17.5188 39.7657 18.3273 39.0147C19.1358 38.2637 20.4003 38.3097 21.1513 39.1201V39.1182Z" fill="white"/>
<path d="M20.8017 30.3483C21.5528 31.1568 21.5068 32.4213 20.6983 33.1724C19.8898 33.9234 18.6253 33.8774 17.8743 33.0689C17.1233 32.2604 17.1692 30.9959 17.9777 30.2449C18.7862 29.4939 20.0507 29.5398 20.8017 30.3483Z" fill="white"/>
<path d="M25.3349 35.2302C26.086 36.0387 26.04 37.3032 25.2315 38.0542C24.423 38.8052 23.1585 38.7592 22.4075 37.9507C21.6565 37.1422 21.7024 35.8777 22.5109 35.1267C23.3194 34.3757 24.5839 34.4217 25.3349 35.2302Z" fill="white"/>
<path d="M24.9853 26.4646C25.7364 27.2731 25.6904 28.5375 24.8819 29.2886C24.0734 30.0396 22.8089 29.9936 22.0579 29.1851C21.3068 28.3766 21.3528 27.1121 22.1613 26.3611C22.9698 25.6101 24.2343 25.6561 24.9853 26.4646Z" fill="white"/>
<path d="M29.5185 31.3437C30.2696 32.1522 30.2236 33.4167 29.4151 34.1678C28.6066 34.9188 27.3421 34.8728 26.5911 34.0643C25.8401 33.2558 25.886 31.9913 26.6945 31.2403C27.503 30.4893 28.7675 30.5352 29.5185 31.3457V31.3437Z" fill="white"/>
<path d="M29.1689 22.5783C29.9199 23.3868 29.874 24.6513 29.0655 25.4023C28.257 26.1534 26.9925 26.1074 26.2415 25.2989C25.4904 24.4904 25.5364 23.2259 26.3449 22.4749C27.1534 21.7238 28.4179 21.7698 29.1689 22.5783Z" fill="white"/>
<path d="M33.7021 27.4563C34.4532 28.2648 34.4072 29.5292 33.5987 30.2803C32.7902 31.0313 31.5257 30.9853 30.7747 30.1768C30.0236 29.3683 30.0696 28.1038 30.8781 27.3528C31.6866 26.6018 32.9511 26.6478 33.7021 27.4563Z" fill="white"/>
<path d="M33.3525 18.6901C34.1035 19.4986 34.0576 20.7631 33.2491 21.5142C32.4406 22.2652 31.1761 22.2192 30.4251 21.4107C29.674 20.6022 29.72 19.3377 30.5285 18.5867C31.337 17.8357 32.6015 17.8816 33.3525 18.6901Z" fill="white"/>
<path d="M37.8877 23.5725C38.6387 24.381 38.5927 25.6455 37.7842 26.3965C36.9757 27.1475 35.7112 27.1015 34.9602 26.293C34.2092 25.4845 34.2552 24.22 35.0637 23.469C35.8722 22.718 37.1367 22.764 37.8877 23.5725Z" fill="white"/>
<path d="M37.5361 14.8044C38.2871 15.6129 38.2412 16.8774 37.4327 17.6284C36.6242 18.3794 35.3597 18.3335 34.6087 17.525C33.8576 16.7165 33.9036 15.452 34.7121 14.7009C35.5206 13.9499 36.7851 13.9959 37.5361 14.8044Z" fill="white"/>
<path d="M42.0713 19.6862C42.8223 20.4947 42.7763 21.7592 41.9678 22.5103C41.1593 23.2613 39.8948 23.2153 39.1438 22.4068C38.3928 21.5983 38.4388 20.3338 39.2473 19.5828C40.0558 18.8318 41.3202 18.8777 42.0713 19.6862Z" fill="white"/>
<path d="M15.1543 34.3418V36.7903" stroke="#FFECEC" stroke-width="0.574764" stroke-linecap="round" stroke-linejoin="round"/>
<path d="M19.6895 39.2485V41.699" stroke="#FFECEC" stroke-width="0.574764" stroke-linecap="round" stroke-linejoin="round"/>
<path d="M19.3379 30.4858V32.9363" stroke="#FFECEC" stroke-width="0.574764" stroke-linecap="round" stroke-linejoin="round"/>
<path d="M23.8691 35.3677V37.8162" stroke="#FFECEC" stroke-width="0.574764" stroke-linecap="round" stroke-linejoin="round"/>
<path d="M23.5195 26.6001V29.0486" stroke="#FFECEC" stroke-width="0.574764" stroke-linecap="round" stroke-linejoin="round"/>
<path d="M28.0527 31.48V33.9285" stroke="#FFECEC" stroke-width="0.574764" stroke-linecap="round" stroke-linejoin="round"/>
<path d="M27.7031 22.7119V25.1623" stroke="#FFECEC" stroke-width="0.574764" stroke-linecap="round" stroke-linejoin="round"/>
<path d="M32.2383 27.5938V30.0442" stroke="#FFECEC" stroke-width="0.574764" stroke-linecap="round" stroke-linejoin="round"/>
<path d="M31.8867 18.8281V21.2785" stroke="#FFECEC" stroke-width="0.574764" stroke-linecap="round" stroke-linejoin="round"/>
<path d="M36.4238 23.708V26.1565" stroke="#FFECEC" stroke-width="0.574764" stroke-linecap="round" stroke-linejoin="round"/>
<path d="M36.0723 14.9419V17.3904" stroke="#FFECEC" stroke-width="0.574764" stroke-linecap="round" stroke-linejoin="round"/>
<path d="M40.6055 19.8198V22.2702" stroke="#FFECEC" stroke-width="0.574764" stroke-linecap="round" stroke-linejoin="round"/>
<g style="mix-blend-mode:multiply" opacity="0.4">
<path d="M11.6558 34.1458C10.7955 34.9466 10.7457 36.2916 11.5446 37.1537L17.844 43.936C18.643 44.7962 19.9898 44.846 20.852 44.0471L31.9909 33.7013C28.799 30.4251 25.9789 26.785 23.8676 22.8057L11.6558 34.1458Z" fill="#FFE2E2"/>
</g>
<g style="mix-blend-mode:screen" opacity="0.2">
<path d="M44.1909 19.4634L37.8915 12.6812C37.0926 11.8209 35.7457 11.7711 34.8836 12.57L31.9102 15.3327C32.7263 19.8676 35.2208 24.1477 38.3341 27.809L44.0817 22.4713C44.942 21.6724 44.9918 20.3255 44.1928 19.4634H44.1909Z" fill="#FFE2E2"/>
</g>
</svg>
