<svg width="56" height="56" viewBox="0 0 56 56" fill="none" xmlns="http://www.w3.org/2000/svg">
<g clip-path="url(#clip0_9466_17372)">
<rect width="56" height="56" rx="28" fill="white"/>
<rect width="56" height="56" rx="28" fill="white"/>
<path d="M43.0555 25.6151L21.3419 42.9518C20.1715 43.8855 18.4653 43.6939 17.5317 42.5236L11.5503 35.0335C10.6167 33.8631 10.8068 32.1587 11.9772 31.2251L33.6908 13.8884C34.8627 12.953 36.5688 13.1445 37.5025 14.3149L43.4838 21.805C44.4174 22.9754 44.2277 24.683 43.0573 25.6166L43.0555 25.6151Z" fill="#FFC6C6"/>
<path opacity="0.21" d="M42.4241 24.8291L20.7104 42.1658C19.54 43.0994 17.8339 42.9079 16.9002 41.7375L11.5503 35.0359C10.6167 33.8656 10.8068 32.1612 11.9772 31.2276L33.6908 13.8908C34.8627 12.9555 36.5688 13.147 37.5025 14.3174L42.8524 21.0189C43.786 22.1893 43.5963 23.8969 42.4259 24.8305L42.4241 24.8291Z" fill="white"/>
<path opacity="0.11" d="M36.3852 23.3257C35.7784 24.0774 34.6772 24.1948 33.9255 23.5881C33.1738 22.9813 33.0563 21.88 33.6631 21.1284C34.2699 20.3767 35.3711 20.2592 36.1228 20.866C36.8745 21.4727 36.992 22.574 36.3852 23.3257Z" fill="#FEFCFE" stroke="#FF9595" stroke-width="0.260744"/>
<path d="M34.0124 23.2295C34.7878 23.8553 35.9237 23.7342 36.5495 22.9588C37.1754 22.1835 37.0542 21.0476 36.2789 20.4218C35.5035 19.7959 34.3676 19.9171 33.7418 20.6924C33.1159 21.4677 33.2371 22.6036 34.0124 23.2295Z" fill="white"/>
<mask id="mask0_9466_17372" style="mask-type:luminance" maskUnits="userSpaceOnUse" x="33" y="20" width="4" height="4">
<path d="M34.0007 23.2295C34.776 23.8553 35.9119 23.7342 36.5378 22.9588C37.1637 22.1835 37.0425 21.0476 36.2672 20.4218C35.4918 19.7959 34.3559 19.9171 33.7301 20.6924C33.1042 21.4677 33.2254 22.6036 34.0007 23.2295Z" fill="white"/>
</mask>
<g mask="url(#mask0_9466_17372)">
<path opacity="0.11" d="M38.5168 22.2537L38.5168 22.2537C38.2647 22.8993 37.709 23.4779 37.0344 23.8734C36.3598 24.2689 35.5823 24.4718 34.8989 24.3849C33.3787 24.1912 32.3563 22.9789 32.0248 21.5184C31.9793 21.3182 32.0252 21.1695 32.1106 21.0648C32.199 20.9566 32.3396 20.8838 32.4998 20.8607C32.8219 20.8142 33.17 20.9709 33.2576 21.3588C33.4535 22.2268 34.0773 23.0216 35.0321 23.1494C35.4463 23.2054 35.9503 23.0596 36.3807 22.8153C36.8111 22.571 37.1975 22.2112 37.3556 21.8083L37.3556 21.8083C37.4309 21.6163 37.5572 21.5087 37.6963 21.4595C37.8388 21.409 38.0039 21.4169 38.1543 21.4751C38.3048 21.5332 38.4316 21.6382 38.5023 21.7705C38.5712 21.8996 38.5913 22.0628 38.5168 22.2537Z" fill="#FEFCFE" stroke="#FF9595" stroke-width="0.260744"/>
</g>
<path opacity="0.11" d="M20.436 36.1963C19.8292 36.948 18.728 37.0654 17.9763 36.4587C17.2246 35.8519 17.1071 34.7507 17.7139 33.999C18.3206 33.2473 19.4219 33.1298 20.1736 33.7366C20.9253 34.3433 21.0428 35.4446 20.436 36.1963Z" fill="#FEFCFE" stroke="#FF9595" stroke-width="0.260744"/>
<path d="M18.0652 36.1001C18.8405 36.7259 19.9764 36.6048 20.6023 35.8294C21.2281 35.0541 21.1069 33.9182 20.3316 33.2924C19.5563 32.6665 18.4204 32.7877 17.7945 33.563C17.1686 34.3384 17.2898 35.4742 18.0652 36.1001Z" fill="white"/>
<mask id="mask1_9466_17372" style="mask-type:luminance" maskUnits="userSpaceOnUse" x="17" y="32" width="4" height="5">
<path d="M18.0534 36.1001C18.8288 36.7259 19.9647 36.6048 20.5905 35.8294C21.2164 35.0541 21.0952 33.9182 20.3199 33.2924C19.5446 32.6665 18.4087 32.7877 17.7828 33.563C17.1569 34.3384 17.2781 35.4742 18.0534 36.1001Z" fill="white"/>
</mask>
<g mask="url(#mask1_9466_17372)">
<path opacity="0.11" d="M22.5656 35.1214L22.5656 35.1214C22.3136 35.767 21.7578 36.3456 21.0832 36.7411C20.4086 37.1365 19.6311 37.3395 18.9477 37.2525C17.4275 37.0588 16.4051 35.8466 16.0736 34.386C16.0282 34.1859 16.074 34.0372 16.1595 33.9325C16.2478 33.8243 16.3885 33.7515 16.5486 33.7284C16.8708 33.6819 17.2189 33.8386 17.3065 34.2265C17.5023 35.0945 18.1261 35.8892 19.0809 36.017C19.4952 36.0731 19.9992 35.9273 20.4296 35.6829C20.8599 35.4386 21.2463 35.0789 21.4044 34.676L21.4044 34.676C21.4798 34.4839 21.606 34.3764 21.7452 34.3271C21.8876 34.2767 22.0527 34.2846 22.2032 34.3427C22.3536 34.4009 22.4805 34.5059 22.5511 34.6382C22.62 34.7673 22.6402 34.9305 22.5656 35.1214Z" fill="#FEFCFE" stroke="#FF9595" stroke-width="0.260744"/>
</g>
<path opacity="0.08" d="M35.6871 16.6455L13.4137 34.4284" stroke="#FF9595" stroke-width="0.576245" stroke-linecap="round" stroke-linejoin="round"/>
<path opacity="0.08" d="M40.9117 22.6465L18.6383 40.4294" stroke="#FF9595" stroke-width="0.576245" stroke-linecap="round" stroke-linejoin="round"/>
</g>
<rect x="0.35" y="0.35" width="55.3" height="55.3" rx="27.65" stroke="#EFEFEF" stroke-width="0.7"/>
<defs>
<clipPath id="clip0_9466_17372">
<rect width="56" height="56" rx="28" fill="white"/>
</clipPath>
</defs>
</svg>
