<svg width="56" height="56" viewBox="0 0 56 56" fill="none" xmlns="http://www.w3.org/2000/svg">
<g clip-path="url(#clip0_9485_14795)">
<rect width="56" height="56" rx="28" fill="white"/>
<g clip-path="url(#clip1_9485_14795)">
<rect width="56" height="56" rx="28" fill="white"/>
<path d="M6.28825 51.6408C6.28825 51.6408 6.28123 51.6361 6.27771 51.6338C6.22093 51.5935 6.20856 51.5169 6.24945 51.463C6.27339 51.4308 8.53594 48.2498 9.27105 47.0493C10.0068 45.8517 11.7195 42.2063 11.7364 42.1694C11.7668 42.1085 11.8375 42.0821 11.9008 42.109C11.961 42.1364 11.988 42.2101 11.9612 42.2733C11.9443 42.3101 10.2245 45.9661 9.48235 47.1772C8.74257 48.3847 6.47243 51.5733 6.45141 51.6049C6.41578 51.6547 6.34619 51.6717 6.29118 51.6402L6.28825 51.6408Z" fill="#F9C9B9"/>
<g style="mix-blend-mode:multiply" opacity="0.4">
<path d="M6.28825 51.6408C6.28825 51.6408 6.28123 51.6361 6.27771 51.6338C6.22093 51.5935 6.20856 51.5169 6.24945 51.463C6.27339 51.4308 8.53594 48.2498 9.27105 47.0493C10.0068 45.8517 11.7195 42.2063 11.7364 42.1694C11.7668 42.1085 11.8375 42.0821 11.9008 42.109C11.961 42.1364 11.988 42.2101 11.9612 42.2733C11.9443 42.3101 10.2245 45.9661 9.48235 47.1772C8.74257 48.3847 6.47243 51.5733 6.45141 51.6049C6.41578 51.6547 6.34619 51.6717 6.29118 51.6402L6.28825 51.6408Z" fill="#F9C9B9"/>
</g>
<path d="M7.66043 52.4019C7.61244 52.375 7.58605 52.3195 7.60237 52.2645C7.69033 51.9304 7.77697 51.4536 7.87872 50.9007C8.11712 49.6054 8.44097 47.8274 9.04088 46.5446C9.87595 44.752 11.712 42.0066 11.7307 41.9785C11.768 41.9223 11.8435 41.9041 11.9002 41.9444C11.9564 41.9818 11.9717 42.0578 11.9344 42.114C11.9157 42.1421 10.0884 44.8705 9.26209 46.6461C8.67795 47.9014 8.35583 49.6578 8.11859 50.9437C8.01801 51.5024 7.92904 51.9828 7.837 52.3268C7.81952 52.3912 7.75172 52.4322 7.68736 52.4147C7.67741 52.4106 7.66805 52.4095 7.65751 52.4025L7.66043 52.4019Z" fill="#F9C9B9"/>
<path d="M11.9194 41.9943C11.8955 41.9809 11.8726 41.9581 11.8632 41.9265C11.8409 41.861 11.8759 41.7931 11.9385 41.7714C12.9004 41.4411 13.1285 40.9114 13.1802 40.6242C13.2331 40.3276 13.1399 40.106 13.096 40.0692C13.0334 40.0453 13.0046 39.978 13.0285 39.9154C13.0525 39.8528 13.1285 39.8223 13.1911 39.8462C13.3356 39.8993 13.4441 40.1665 13.4404 40.4654C13.4372 40.7824 13.2912 41.5693 12.0189 42.0047C11.985 42.0176 11.9475 42.013 11.92 41.9972L11.9194 41.9943Z" fill="#F9C9B9"/>
<path d="M14.4928 7.34822C15.5159 7.39798 18.695 8.39531 21.3902 9.36217C23.4559 10.1028 26.9611 11.4361 27.2484 12.0476C27.6652 12.9403 27.107 14.8233 27.0428 15.0339C27.002 15.1638 26.8647 15.2371 26.7324 15.1998C26.716 15.194 26.6996 15.1881 26.6856 15.1788C26.5861 15.1227 26.5345 15.0023 26.5695 14.8888C26.7315 14.3633 27.0849 12.8684 26.8017 12.2622C26.4396 11.7022 20.6171 9.51159 17.0098 8.4422C16.8257 8.5705 16.4989 8.70014 15.9337 8.64343C14.9346 8.54626 14.1354 7.88558 14.2339 7.5737C14.2472 7.44325 14.3577 7.34193 14.4928 7.34822Z" fill="#FFDCDE"/>
<path d="M39.7575 21.4106C39.177 20.566 36.6553 18.3899 34.4142 16.6106C32.6976 15.2461 29.7143 12.9681 29.0458 13.0478C28.0679 13.1624 26.7599 14.6303 26.6138 14.7965C26.525 14.8996 26.5351 15.0557 26.6388 15.1475C26.6534 15.1597 26.6675 15.1691 26.6815 15.1784C26.781 15.2345 26.9108 15.2144 26.9903 15.1254C27.3513 14.7121 28.4375 13.6235 29.0996 13.542C29.7653 13.5542 34.6963 17.3479 37.5056 19.8495C37.493 20.0741 37.5565 20.4204 37.8992 20.8686C38.5096 21.6646 39.4897 21.9999 39.7041 21.7499C39.8099 21.6708 39.8349 21.5228 39.7581 21.4135L39.7575 21.4106Z" fill="#FFDCDE"/>
<path d="M27.0405 15.0865L26.5661 14.8225C25.809 14.4011 24.8537 14.6733 24.4324 15.4304L14.5522 33.1837C14.1309 33.9408 14.403 34.8961 15.1601 35.3175L15.6345 35.5814C16.3916 36.0028 17.3469 35.7306 17.7682 34.9735L27.6484 17.2202C28.0698 16.4631 27.7976 15.5078 27.0405 15.0865Z" fill="#EB7E85"/>
<path d="M15.1676 37.9408L13.4 36.9577C13.153 36.8188 12.8425 36.9086 12.7036 37.1556L11.445 39.4137C11.3089 39.6601 11.3958 39.9712 11.6428 40.1101L13.4104 41.0932C13.6574 41.2321 13.9679 41.1423 14.1069 40.8953L15.3655 38.6372C15.5044 38.3903 15.4146 38.0798 15.1676 37.9408ZM13.8159 40.1142C13.7353 40.2581 13.554 40.3098 13.4101 40.2293L12.3823 39.6571C12.2383 39.5766 12.1866 39.3953 12.2672 39.2513L13.0004 37.9356C13.081 37.7916 13.2623 37.7399 13.4062 37.8205L14.434 38.3926C14.578 38.4732 14.6297 38.6544 14.5491 38.7984L13.8159 40.1142Z" fill="#FFDCDE"/>
<path d="M27.5075 13.6959L26.6167 13.1997C26.5687 13.1729 26.5085 13.1911 26.4787 13.2397L25.8686 14.3359C25.8418 14.3839 25.86 14.4441 25.9085 14.4739L26.7994 14.9701L27.6902 15.4663C27.7382 15.4932 27.7984 15.475 27.8282 15.4264L28.4382 14.3302C28.4651 14.2822 28.4469 14.2219 28.3983 14.1922L27.5075 13.6959Z" fill="#FBA7AC"/>
<g style="mix-blend-mode:multiply" opacity="0.3">
<path d="M27.5075 13.6959L26.6167 13.1997C26.5687 13.1729 26.5085 13.1911 26.4787 13.2397L25.8686 14.3359C25.8418 14.3839 25.86 14.4441 25.9085 14.4739L26.7994 14.9701L27.6902 15.4663C27.7382 15.4932 27.7984 15.475 27.8282 15.4264L28.4382 14.3302C28.4651 14.2822 28.4469 14.2219 28.3983 14.1922L27.5075 13.6959Z" fill="#EB7E85"/>
</g>
<path d="M15.3964 35.4436L14.4815 34.934L13.3642 36.9415L14.2784 37.4482L15.1903 37.9585L16.3077 35.9509L15.3964 35.4436Z" fill="#FFDCDE"/>
<g style="mix-blend-mode:multiply" opacity="0.2">
<path d="M15.3964 35.4436L14.4815 34.934L13.3642 36.9415L14.2784 37.4482L15.1903 37.9585L16.3077 35.9509L15.3964 35.4436Z" fill="#FFDCDE"/>
</g>
<path d="M11.9144 41.9948C11.8939 41.9837 11.8781 41.9656 11.8646 41.944C11.8494 41.9136 11.4818 41.1904 11.929 40.3886C12.4001 39.5393 12.9361 39.7388 13.1105 39.8041C13.1269 39.8099 13.1948 39.8449 13.2059 39.8549C13.2399 39.8876 13.1995 39.9139 13.1815 39.9602C13.1576 40.0228 13.088 40.055 13.0224 40.0317C12.8551 39.9711 12.5098 39.8428 12.1415 40.5071C11.762 41.1919 12.068 41.8057 12.0792 41.8308C12.1097 41.8916 12.0852 41.9665 12.0273 41.9964C11.9887 42.0164 11.9454 42.0129 11.9115 41.9954L11.9144 41.9948Z" fill="#F9C9B9"/>
<path d="M11.5823 41.9051C11.4953 42.0625 11.5528 42.2578 11.7073 42.3454C11.8648 42.4324 12.0601 42.3748 12.1477 42.2203C12.2346 42.0629 12.1771 41.8676 12.0226 41.78C11.8651 41.693 11.6698 41.7505 11.5823 41.9051Z" fill="#F9C9B9"/>
<g style="mix-blend-mode:multiply" opacity="0.6">
<path d="M11.5823 41.9051C11.4953 42.0625 11.5528 42.2578 11.7073 42.3454C11.8648 42.4324 12.0601 42.3748 12.1477 42.2203C12.2346 42.0629 12.1771 41.8676 12.0226 41.78C11.8651 41.693 11.6698 41.7505 11.5823 41.9051Z" fill="#F9C9B9"/>
</g>
<path fill-rule="evenodd" clip-rule="evenodd" d="M20.7587 62.2545L19.4963 61.4774L28.5519 46.7168L29.8135 47.4906L30.568 47.9617L25.311 56.5378L23.4569 57.8687L20.7587 62.2545Z" fill="#C2C3C3"/>
<path fill-rule="evenodd" clip-rule="evenodd" d="M18.2441 60.7016L19.4992 61.477L28.5548 46.7164L27.2914 45.9499L26.537 45.4788L21.2767 54.0557L20.9325 56.3182L18.2441 60.7016Z" fill="#AEAEAF"/>
<path fill-rule="evenodd" clip-rule="evenodd" d="M40.8447 33.0779L39.2068 31.08L40.07 29.659L38.7235 28.8331L37.8556 30.2346L35.3347 29.6902C31.9816 35.1574 27.9986 41.6517 24.6529 47.1068C26.4888 48.2327 28.327 49.3685 30.1629 50.4945L40.8447 33.0779Z" fill="#FFC6C9"/>
<path fill-rule="evenodd" clip-rule="evenodd" d="M40.8449 33.0774L39.207 31.0795L40.0703 29.6585L38.7204 28.8334L38.4336 29.2919L38.9814 30.5265L38.7044 30.9827L39.5562 33.0689L29.229 49.921L30.1631 50.4939L40.8449 33.0774Z" fill="#FBA7AC"/>
<path fill-rule="evenodd" clip-rule="evenodd" d="M30.9487 50.9758L23.8599 46.6281C23.7346 46.5512 23.5715 46.5903 23.4914 46.7165L23.1789 47.226C23.1028 47.3546 23.1411 47.5144 23.2672 47.5946L30.3583 51.952C30.4821 52.0224 30.6452 51.9833 30.7269 51.8637L31.037 51.3444C31.1155 51.2255 31.0748 51.0559 30.9487 50.9758Z" fill="#979797"/>
<path fill-rule="evenodd" clip-rule="evenodd" d="M40.5004 28.7247L39.3641 28.0278C39.1741 27.9113 38.9164 27.973 38.79 28.1654L37.7946 29.7975L39.6328 30.9333L40.6348 29.2996C40.7513 29.1096 40.6896 28.8519 40.4972 28.7255L40.5004 28.7247Z" fill="#CA6C72"/>
<path fill-rule="evenodd" clip-rule="evenodd" d="M40.4984 28.7244L40.2032 28.5434L38.9854 30.5289L39.6348 30.9355L40.6367 29.3018C40.7533 29.1117 40.6915 28.854 40.4991 28.7277L40.4984 28.7244Z" fill="#DE8288"/>
<path fill-rule="evenodd" clip-rule="evenodd" d="M40.0288 28.4368L39.8266 28.3128L48.0803 14.8551L48.094 15.2864L40.0288 28.4368Z" fill="#9A9A9A"/>
<path fill-rule="evenodd" clip-rule="evenodd" d="M28.7327 50.9538L26.7165 49.7089L26.3337 50.3422L28.3483 51.5806L28.7327 50.9538Z" fill="#AEAEAF"/>
<path fill-rule="evenodd" clip-rule="evenodd" d="M24.699 48.4717L26.7168 49.7093L26.334 50.3426L24.3071 49.1106L24.699 48.4717Z" fill="#9D9D9E"/>
<path fill-rule="evenodd" clip-rule="evenodd" d="M37.5414 30.5106L35.6328 30.3334L25.3114 47.1669L25.6188 47.3554L35.8764 30.6303L37.5414 30.5106Z" fill="#FBA7AC"/>
<path fill-rule="evenodd" clip-rule="evenodd" d="M38.9804 30.5269L38.0374 29.9458L37.9235 30.118L38.8721 30.7081L38.9804 30.5269Z" fill="#FBA7AC"/>
<path fill-rule="evenodd" clip-rule="evenodd" d="M38.9834 30.5252L39.3877 30.7732L39.2851 30.9495L38.875 30.7064L38.9834 30.5252Z" fill="#FBA7AC"/>
<path fill-rule="evenodd" clip-rule="evenodd" d="M39.1487 34.4249C38.5988 34.0876 38.7363 34.1719 38.1758 33.8337C38.1006 33.7793 37.9962 33.8043 37.9539 33.8869C37.9093 33.9597 37.9343 34.064 38.0071 34.1087C38.5692 34.4534 38.4196 34.3616 38.9817 34.7064C39.0545 34.751 39.1588 34.726 39.2035 34.6532C39.2579 34.5781 39.2329 34.4737 39.148 34.4216L39.1487 34.4249ZM37.544 37.055C36.9819 36.7103 37.1315 36.8021 36.5694 36.4573C36.4967 36.4127 36.3923 36.4377 36.3476 36.5105C36.2932 36.5856 36.3182 36.69 36.4008 36.7323C36.9531 37.0794 36.8133 36.9853 37.3688 37.3316C37.4537 37.3837 37.5549 37.3594 37.6004 37.2761C37.6451 37.2033 37.62 37.0989 37.5473 37.0543L37.544 37.055ZM35.9271 39.6778C35.3772 39.3405 35.5146 39.4248 34.9591 39.0785C34.8765 39.0362 34.7754 39.0604 34.7275 39.134C34.6852 39.2166 34.7094 39.3177 34.783 39.3656C35.3451 39.7103 35.1955 39.6186 35.7575 39.9633C35.8303 40.0079 35.9347 39.9829 35.9794 39.9101C36.0338 39.835 36.0088 39.7306 35.9238 39.6785L35.9271 39.6778ZM34.3224 42.3079C33.7603 41.9632 33.9099 42.055 33.3478 41.7102C33.275 41.6656 33.1706 41.6906 33.126 41.7634C33.0716 41.8385 33.0966 41.9429 33.1792 41.9852C33.7315 42.3323 33.5916 42.2382 34.1537 42.5829C34.2265 42.6275 34.3309 42.6025 34.3755 42.5297C34.4202 42.4569 34.3951 42.3526 34.3224 42.3079ZM32.7055 44.9306C32.1555 44.5933 32.293 44.6777 31.7374 44.3314C31.6549 44.2891 31.5537 44.3133 31.5058 44.3869C31.4635 44.4695 31.4878 44.5706 31.5614 44.6185C32.1234 44.9632 31.9738 44.8715 32.5359 45.2162C32.6087 45.2608 32.7131 45.2358 32.7577 45.163C32.8098 45.0781 32.7871 44.9835 32.7022 44.9314L32.7055 44.9306ZM31.1007 47.5608L30.1262 46.9631C30.0534 46.9184 29.949 46.9435 29.9043 47.0163C29.8499 47.0914 29.8749 47.1958 29.9575 47.2381C30.5098 47.5852 30.37 47.491 30.9321 47.8358C31.0049 47.8804 31.1092 47.8554 31.1539 47.7826C31.1985 47.7098 31.1735 47.6054 31.1007 47.5608ZM38.3525 35.7368C37.7904 35.392 37.2299 35.0538 36.6678 34.7091C36.595 34.6644 36.4906 34.6895 36.446 34.7623C36.4014 34.835 36.4264 34.9394 36.4992 34.9841C37.0613 35.3288 37.6168 35.6751 38.1789 36.0198C38.2517 36.0645 38.3561 36.0395 38.4105 35.9643C38.4528 35.8817 38.4286 35.7806 38.355 35.7327L38.3525 35.7368ZM36.738 38.3693C36.1759 38.0245 35.6203 37.6782 35.0582 37.3335C34.9757 37.2912 34.8811 37.3139 34.8266 37.389C34.7843 37.4716 34.807 37.5662 34.8821 37.6206C35.4419 37.9556 36.0047 38.3036 36.5668 38.6483C36.6396 38.6929 36.744 38.6679 36.7886 38.5951C36.8333 38.5223 36.8083 38.418 36.7355 38.3733L36.738 38.3693ZM35.1309 40.9896C34.5688 40.6449 34.0083 40.3067 33.4462 39.962C33.371 39.9075 33.2667 39.9326 33.2244 40.0151C33.1797 40.0879 33.2047 40.1923 33.2775 40.2369C33.8396 40.5817 34.3952 40.928 34.9573 41.2727C35.0398 41.315 35.1344 41.2923 35.1889 41.2172L35.1865 41.2074C35.2311 41.1346 35.2061 41.0302 35.1333 40.9856L35.1309 40.9896ZM33.5163 43.6222C32.9542 43.2774 32.3987 42.9311 31.8366 42.5864C31.7638 42.5417 31.6594 42.5668 31.605 42.6419C31.5604 42.7147 31.5854 42.8191 31.6605 42.8735C32.2202 43.2084 32.7831 43.5564 33.3452 43.9012C33.418 43.9458 33.5224 43.9208 33.567 43.848C33.6116 43.7752 33.5866 43.6708 33.5138 43.6262L33.5163 43.6222ZM31.9092 46.2425C31.3471 45.8978 30.7851 45.5531 30.2245 45.2148C30.1494 45.1604 30.045 45.1854 30.0027 45.268C29.9581 45.3408 29.9831 45.4452 30.0559 45.4898C30.618 45.8346 31.1801 46.1793 31.7341 46.5191C31.819 46.5712 31.9136 46.5485 31.9656 46.4636C32.0103 46.3908 31.9853 46.2864 31.9125 46.2417L31.9092 46.2425ZM30.2947 48.875L28.615 47.8393C28.5422 47.7946 28.4378 47.8196 28.3834 47.8948C28.3387 47.9676 28.3637 48.0719 28.4389 48.1264L30.1236 49.1541C30.1963 49.1987 30.3007 49.1737 30.3454 49.1009C30.39 49.0281 30.365 48.9237 30.2922 48.8791L30.2947 48.875Z" fill="#6B777E"/>
<path fill-rule="evenodd" clip-rule="evenodd" d="M39.1469 34.4262L38.8396 34.2377L38.6733 34.5225L38.9806 34.711C39.0534 34.7556 39.1578 34.7306 39.2024 34.6578C39.2568 34.5827 39.2318 34.4783 39.1469 34.4262ZM38.0303 35.5527L37.8616 35.8277L38.1713 36.026C38.2441 36.0706 38.3485 36.0456 38.4029 35.9705C38.4452 35.8879 38.421 35.7868 38.3474 35.7389L38.0303 35.5527ZM37.2308 36.8654L37.0523 37.1427L37.3597 37.3312C37.4446 37.3833 37.5457 37.359 37.5913 37.2757C37.6359 37.2029 37.6109 37.0985 37.5381 37.0539L37.2308 36.8654ZM36.4232 38.1731L36.2471 38.4602L36.5642 38.6463C36.637 38.691 36.7414 38.666 36.786 38.5932C36.8307 38.5204 36.8056 38.416 36.7329 38.3714L36.4232 38.1731ZM35.6171 39.4873L35.4508 39.7721L35.7582 39.9606C35.831 40.0052 35.9353 39.9802 35.98 39.9074C36.0344 39.8323 36.0094 39.7279 35.9245 39.6758L35.6171 39.4873ZM34.8111 40.8016L34.6425 41.0765L34.9521 41.2748C35.0347 41.3171 35.1293 41.2944 35.1837 41.2193L35.1814 41.2095C35.226 41.1367 35.201 41.0323 35.1282 40.9877L34.8111 40.8016ZM34.0116 42.1142L33.8332 42.3915L34.1503 42.5777C34.2231 42.6223 34.3275 42.5973 34.3721 42.5245C34.4167 42.4517 34.3917 42.3473 34.3189 42.3027L34.0116 42.1142ZM33.204 43.4219L33.0377 43.7067L33.345 43.8952C33.4178 43.9398 33.5222 43.9148 33.5669 43.842C33.6115 43.7692 33.5865 43.6648 33.5137 43.6202L33.204 43.4219ZM32.398 44.7362L32.2293 45.0111L32.539 45.2094C32.6118 45.254 32.7162 45.229 32.7608 45.1562C32.8129 45.0713 32.7902 44.9767 32.7053 44.9246L32.398 44.7362ZM31.592 46.0504L31.4233 46.3254L31.7306 46.5139C31.8156 46.5659 31.9102 46.5433 31.9622 46.4583C32.0069 46.3856 31.9819 46.2812 31.9091 46.2365L31.592 46.0504ZM30.7925 47.3631L30.614 47.6404L30.9311 47.8265C31.0039 47.8712 31.1083 47.8461 31.1529 47.7734C31.1976 47.7006 31.1726 47.5962 31.0998 47.5515L30.7925 47.3631ZM29.9849 48.6708L29.8186 48.9555L30.1259 49.144C30.1987 49.1887 30.3031 49.1636 30.3477 49.0908C30.3923 49.0181 30.3673 48.9137 30.2945 48.869L29.9849 48.6708Z" fill="#40484C"/>
</g>
</g>
<rect x="0.35" y="0.35" width="55.3" height="55.3" rx="27.65" stroke="#EFEFEF" stroke-width="0.7"/>
<defs>
<clipPath id="clip0_9485_14795">
<rect width="56" height="56" rx="28" fill="white"/>
</clipPath>
<clipPath id="clip1_9485_14795">
<rect width="56" height="56" rx="28" fill="white"/>
</clipPath>
</defs>
</svg>
