<svg width="56" height="56" viewBox="0 0 56 56" fill="none" xmlns="http://www.w3.org/2000/svg">
<path fill-rule="evenodd" clip-rule="evenodd" d="M46.3214 17.1009C46.4085 17.223 46.4054 17.2502 46.225 17.9639C45.7104 19.999 45.9528 21.783 47.0029 23.6901C47.1806 24.0126 47.4665 24.4888 47.6385 24.7482C49.2271 27.1459 49.7319 28.1435 49.9397 29.2966C50.036 29.8307 50.0146 30.7778 49.8949 31.2813C49.4255 33.2555 47.8984 34.7854 45.8216 35.3624C43.6893 35.9547 41.4894 35.4328 39.8894 33.9548C39.0151 33.1472 38.4418 32.0764 38.2536 30.8996C37.8636 28.4606 39.4357 24.911 42.8063 20.6201C43.9912 19.1117 45.806 17.0695 46.0046 17.0209C46.1757 16.9791 46.2474 16.9972 46.3214 17.1009ZM40.0374 26.0306C40.5757 25.0045 41.0581 24.4955 41.606 24.3761C42.0229 24.2852 42.609 24.5773 42.7632 24.9528C42.8315 25.1194 42.8231 25.4667 42.7425 25.8031C42.6441 26.2143 42.6525 26.5722 42.7647 26.7412C42.8904 26.9306 43.2047 27.1315 43.4919 27.2061C43.7944 27.2846 44.143 27.2941 45.1437 27.2506C46.0006 27.2135 46.277 27.243 46.6405 27.4109C46.961 27.5589 47.2544 27.8733 47.4824 28.3131C47.831 28.9852 47.9007 29.3364 47.8424 30.1251L47.8213 30.4089L48.0426 30.6351C48.6007 31.2059 48.7869 32.0879 48.4795 32.7046C48.0925 33.4809 47.0894 34.3241 46.1361 34.6743C45.4882 34.9124 45.1484 34.9711 44.3884 34.976C43.6177 34.981 43.2313 34.9253 42.4615 34.6981C40.9612 34.2554 39.7466 33.2398 39.1966 31.9683C38.5472 30.4669 38.8567 28.2816 40.0374 26.0306Z" fill="#FFE6E6"/>
<path d="M41.606 24.3761C41.0581 24.4955 40.5757 25.0045 40.0374 26.0306C38.8567 28.2816 38.5472 30.4669 39.1966 31.9683C39.7466 33.2398 40.9612 34.2554 42.4615 34.6981C43.2313 34.9253 43.6177 34.981 44.3884 34.976C45.1484 34.9711 45.4882 34.9124 46.1361 34.6743C47.0894 34.3241 48.0925 33.4809 48.4795 32.7046C48.7869 32.0879 48.6007 31.2059 48.0426 30.6351L47.8213 30.4089L47.8424 30.1251C47.9007 29.3364 47.831 28.9852 47.4824 28.3131C47.2544 27.8733 46.961 27.5589 46.6405 27.4109C46.277 27.243 46.0006 27.2135 45.1437 27.2506C44.143 27.2941 43.7944 27.2846 43.4919 27.2061C43.2047 27.1315 42.8904 26.9306 42.7647 26.7412C42.6525 26.5722 42.6441 26.2143 42.7425 25.8031C42.8231 25.4667 42.8315 25.1194 42.7632 24.9528C42.609 24.5773 42.0229 24.2852 41.606 24.3761Z" fill="#FFE6E6"/>
<path fill-rule="evenodd" clip-rule="evenodd" d="M22.5945 25.6403C22.642 25.706 22.6404 25.7207 22.5419 26.105C22.2613 27.2008 22.3935 28.1614 22.9663 29.1883C23.0632 29.3619 23.2191 29.6183 23.3129 29.7581C24.1795 31.0491 24.4548 31.5863 24.5682 32.2072C24.6207 32.4948 24.609 33.0047 24.5437 33.2759C24.2876 34.3389 23.4547 35.1627 22.3219 35.4734C21.1588 35.7923 19.9589 35.5113 19.0862 34.7155C18.6092 34.2806 18.2965 33.704 18.1939 33.0703C17.9812 31.7571 18.8387 29.8457 20.6772 27.5352C21.3235 26.723 22.3134 25.6234 22.4217 25.5972C22.515 25.5747 22.5542 25.5844 22.5945 25.6403ZM19.1669 30.4486C19.4605 29.896 19.7237 29.622 20.0225 29.5577C20.2499 29.5088 20.5696 29.666 20.6537 29.8682C20.6909 29.9579 20.6863 30.1449 20.6424 30.326C20.5887 30.5475 20.5933 30.7402 20.6545 30.8312C20.7231 30.9332 20.8945 31.0414 21.0512 31.0815C21.2162 31.1238 21.4063 31.1289 21.9522 31.1055C22.4195 31.0855 22.5703 31.1014 22.7686 31.1918C22.9434 31.2715 23.1034 31.4408 23.2278 31.6776C23.4179 32.0395 23.456 32.2286 23.4241 32.6533L23.4127 32.8061L23.5334 32.9279C23.8378 33.2353 23.9393 33.7102 23.7717 34.0422C23.5606 34.4603 23.0134 34.9143 22.4935 35.1029C22.1401 35.2311 21.9547 35.2627 21.5402 35.2653C21.1198 35.268 20.909 35.238 20.4891 35.1157C19.6708 34.8773 19.0083 34.3304 18.7083 33.6458C18.3541 32.8373 18.5229 31.6607 19.1669 30.4486Z" fill="#FF3B3B"/>
<path d="M20.0225 29.5577C19.7237 29.622 19.4605 29.896 19.1669 30.4486C18.5229 31.6607 18.3541 32.8373 18.7083 33.6458C19.0083 34.3304 19.6708 34.8773 20.4891 35.1157C20.909 35.238 21.1198 35.268 21.5402 35.2653C21.9547 35.2627 22.1401 35.2311 22.4935 35.1029C23.0134 34.9143 23.5606 34.4603 23.7717 34.0422C23.9393 33.7102 23.8378 33.2353 23.5334 32.9279L23.4127 32.8061L23.4241 32.6533C23.456 32.2286 23.4179 32.0395 23.2278 31.6776C23.1034 31.4408 22.9434 31.2715 22.7686 31.1918C22.5703 31.1014 22.4195 31.0855 21.9522 31.1055C21.4063 31.1289 21.2162 31.1238 21.0512 31.0815C20.8945 31.0414 20.7231 30.9332 20.6545 30.8312C20.5933 30.7402 20.5887 30.5475 20.6424 30.326C20.6863 30.1449 20.6909 29.9579 20.6537 29.8682C20.5696 29.666 20.2499 29.5088 20.0225 29.5577Z" fill="#FF3B3B"/>
<path fill-rule="evenodd" clip-rule="evenodd" d="M33.1641 21.015C33.2329 21.1111 33.2305 21.1326 33.088 21.6945C32.6817 23.297 32.8731 24.7017 33.7022 26.2033C33.8425 26.4572 34.0683 26.8321 34.204 27.0365C35.4584 28.9243 35.8569 29.7099 36.021 30.6178C36.097 31.0384 36.0801 31.7841 35.9856 32.1806C35.6149 33.735 34.4093 34.9397 32.7694 35.394C31.0859 35.8604 29.3489 35.4494 28.0856 34.2857C27.3953 33.6497 26.9426 32.8066 26.7941 31.88C26.4862 29.9596 27.7274 27.1646 30.3887 23.786C31.3243 22.5983 32.7571 20.9903 32.914 20.952C33.049 20.9191 33.1057 20.9333 33.1641 21.015ZM28.2025 28.0462C28.6275 27.2382 29.0084 26.8375 29.441 26.7435C29.7702 26.6719 30.2329 26.9019 30.3547 27.1976C30.4086 27.3287 30.402 27.6022 30.3384 27.867C30.2606 28.1908 30.2673 28.4726 30.3558 28.6057C30.4551 28.7548 30.7032 28.913 30.9301 28.9717C31.1689 29.0336 31.4441 29.041 32.2343 29.0068C32.9108 28.9776 33.129 29.0008 33.416 29.133C33.6691 29.2496 33.9008 29.4971 34.0808 29.8434C34.356 30.3726 34.4111 30.6492 34.365 31.2702L34.3484 31.4936L34.5231 31.6718C34.9638 32.1212 35.1108 32.8156 34.868 33.3012C34.5625 33.9125 33.7705 34.5764 33.0178 34.8522C32.5063 35.0397 32.238 35.0858 31.6379 35.0898C31.0293 35.0937 30.7242 35.0498 30.1165 34.8709C28.9319 34.5223 27.9729 33.7227 27.5386 32.7215C27.0259 31.5393 27.2702 29.8186 28.2025 28.0462Z" fill="#FFE6E6"/>
<path d="M29.441 26.7435C29.0084 26.8375 28.6275 27.2382 28.2025 28.0462C27.2702 29.8186 27.0259 31.5393 27.5386 32.7215C27.9729 33.7227 28.9319 34.5223 30.1165 34.8709C30.7242 35.0498 31.0293 35.0937 31.6379 35.0898C32.238 35.0858 32.5063 35.0397 33.0178 34.8522C33.7705 34.5764 34.5625 33.9125 34.868 33.3012C35.1108 32.8156 34.9638 32.1212 34.5231 31.6718L34.3484 31.4936L34.365 31.2702C34.4111 30.6492 34.356 30.3726 34.0808 29.8434C33.9008 29.4971 33.6691 29.2496 33.416 29.133C33.129 29.0008 32.9108 28.9776 32.2343 29.0068C31.4441 29.041 31.1689 29.0336 30.9301 28.9717C30.7032 28.913 30.4551 28.7548 30.3558 28.6057C30.2673 28.4726 30.2606 28.1908 30.3384 27.867C30.402 27.6022 30.4086 27.3287 30.3547 27.1976C30.2329 26.9019 29.7702 26.6719 29.441 26.7435Z" fill="#FFE6E6"/>
<mask id="mask0_11560_29282" style="mask-type:alpha" maskUnits="userSpaceOnUse" x="26" y="20" width="11" height="16">
<path fill-rule="evenodd" clip-rule="evenodd" d="M33.1641 21.015C33.2329 21.1111 33.2305 21.1326 33.088 21.6945C32.6817 23.297 32.8731 24.7017 33.7022 26.2033C33.8425 26.4572 34.0683 26.8321 34.204 27.0365C35.4584 28.9243 35.8569 29.7099 36.021 30.6178C36.097 31.0384 36.0801 31.7841 35.9856 32.1806C35.6149 33.735 34.4093 34.9397 32.7694 35.394C31.0859 35.8604 29.3489 35.4494 28.0856 34.2857C27.3953 33.6497 26.9426 32.8066 26.7941 31.88C26.4862 29.9596 27.7274 27.1646 30.3887 23.786C31.3243 22.5983 32.7571 20.9903 32.914 20.952C33.049 20.9191 33.1057 20.9333 33.1641 21.015ZM28.2025 28.0462C28.6275 27.2382 29.0084 26.8375 29.441 26.7435C29.7702 26.6719 30.2329 26.9019 30.3547 27.1976C30.4086 27.3287 30.402 27.6022 30.3384 27.867C30.2606 28.1908 30.2673 28.4726 30.3558 28.6057C30.4551 28.7548 30.7032 28.913 30.9301 28.9717C31.1689 29.0336 31.4441 29.041 32.2343 29.0068C32.9108 28.9776 33.129 29.0008 33.416 29.133C33.6691 29.2496 33.9008 29.4971 34.0808 29.8434C34.356 30.3726 34.4111 30.6492 34.365 31.2702L34.3484 31.4936L34.5231 31.6718C34.9638 32.1212 35.1108 32.8156 34.868 33.3012C34.5625 33.9125 33.7705 34.5764 33.0178 34.8522C32.5063 35.0397 32.238 35.0858 31.6379 35.0898C31.0293 35.0937 30.7242 35.0498 30.1165 34.8709C28.9319 34.5223 27.9729 33.7227 27.5386 32.7215C27.0259 31.5393 27.2702 29.8186 28.2025 28.0462Z" fill="#FFE6E6"/>
<path d="M29.441 26.7435C29.0084 26.8375 28.6275 27.2382 28.2025 28.0462C27.2702 29.8186 27.0259 31.5393 27.5386 32.7215C27.9729 33.7227 28.9319 34.5223 30.1165 34.8709C30.7242 35.0498 31.0293 35.0937 31.6379 35.0898C32.238 35.0858 32.5063 35.0397 33.0178 34.8522C33.7705 34.5764 34.5625 33.9125 34.868 33.3012C35.1108 32.8156 34.9638 32.1212 34.5231 31.6718L34.3484 31.4936L34.365 31.2702C34.4111 30.6492 34.356 30.3726 34.0808 29.8434C33.9008 29.4971 33.6691 29.2496 33.416 29.133C33.129 29.0008 32.9108 28.9776 32.2343 29.0068C31.4441 29.041 31.1689 29.0336 30.9301 28.9717C30.7032 28.913 30.4551 28.7548 30.3558 28.6057C30.2673 28.4726 30.2606 28.1908 30.3384 27.867C30.402 27.6022 30.4086 27.3287 30.3547 27.1976C30.2329 26.9019 29.7702 26.6719 29.441 26.7435Z" fill="#FFE6E6"/>
</mask>
<g mask="url(#mask0_11560_29282)">
<path fill-rule="evenodd" clip-rule="evenodd" d="M29.1641 21.015C29.2329 21.1111 29.2305 21.1326 29.088 21.6945C28.6817 23.297 28.8731 24.7017 29.7022 26.2033C29.8425 26.4572 30.0683 26.8321 30.204 27.0365C31.4584 28.9243 31.8569 29.7099 32.021 30.6178C32.097 31.0384 32.0801 31.7841 31.9856 32.1806C31.6149 33.735 30.4093 34.9397 28.7694 35.394C27.0859 35.8604 25.3489 35.4494 24.0856 34.2857C23.3953 33.6497 22.9426 32.8066 22.7941 31.88C22.4862 29.9596 23.7274 27.1646 26.3887 23.786C27.3243 22.5983 28.7571 20.9903 28.914 20.952C29.049 20.9191 29.1057 20.9333 29.1641 21.015ZM24.2025 28.0462C24.6275 27.2382 25.0084 26.8375 25.441 26.7435C25.7702 26.6719 26.2329 26.9019 26.3547 27.1976C26.4086 27.3287 26.402 27.6022 26.3384 27.867C26.2606 28.1908 26.2673 28.4726 26.3558 28.6057C26.4551 28.7548 26.7032 28.913 26.9301 28.9717C27.1689 29.0336 27.4441 29.041 28.2343 29.0068C28.9108 28.9776 29.129 29.0008 29.416 29.133C29.6691 29.2496 29.9008 29.4971 30.0808 29.8434C30.356 30.3726 30.4111 30.6492 30.365 31.2702L30.3484 31.4936L30.5231 31.6718C30.9638 32.1212 31.1108 32.8156 30.868 33.3012C30.5625 33.9125 29.7705 34.5764 29.0178 34.8522C28.5063 35.0397 28.238 35.0858 27.6379 35.0898C27.0293 35.0937 26.7242 35.0498 26.1165 34.8709C24.9319 34.5223 23.9729 33.7227 23.5386 32.7215C23.0259 31.5393 23.2702 29.8186 24.2025 28.0462Z" fill="#FF3B3B"/>
<path d="M25.441 26.7435C25.0084 26.8375 24.6275 27.2382 24.2025 28.0462C23.2702 29.8186 23.0259 31.5393 23.5386 32.7215C23.9729 33.7227 24.9319 34.5223 26.1165 34.8709C26.7242 35.0498 27.0293 35.0937 27.6379 35.0898C28.238 35.0858 28.5063 35.0397 29.0178 34.8522C29.7705 34.5764 30.5625 33.9125 30.868 33.3012C31.1108 32.8156 30.9638 32.1212 30.5231 31.6718L30.3484 31.4936L30.365 31.2702C30.4111 30.6492 30.356 30.3726 30.0808 29.8434C29.9008 29.4971 29.6691 29.2496 29.416 29.133C29.129 29.0008 28.9108 28.9776 28.2343 29.0068C27.4441 29.041 27.1689 29.0336 26.9301 28.9717C26.7032 28.913 26.4551 28.7548 26.3558 28.6057C26.2673 28.4726 26.2606 28.1908 26.3384 27.867C26.402 27.6022 26.4086 27.3287 26.3547 27.1976C26.2329 26.9019 25.7702 26.6719 25.441 26.7435Z" fill="#FF3B3B"/>
</g>
<path fill-rule="evenodd" clip-rule="evenodd" d="M14.5664 28.4861C14.6007 28.533 14.5995 28.5435 14.5284 28.818C14.3257 29.6007 14.4212 30.2869 14.8349 31.0204C14.9049 31.1444 15.0175 31.3276 15.0853 31.4274C15.7111 32.3495 15.9099 32.7332 15.9918 33.1767C16.0297 33.3822 16.0213 33.7464 15.9741 33.9401C15.7892 34.6994 15.1877 35.2878 14.3695 35.5097C13.5295 35.7376 12.6629 35.5368 12.0326 34.9684C11.6882 34.6577 11.4623 34.2459 11.3882 33.7933C11.2346 32.8552 11.8539 31.49 13.1817 29.8396C13.6485 29.2594 14.3634 28.474 14.4416 28.4553C14.509 28.4392 14.5373 28.4462 14.5664 28.4861ZM12.0909 31.9206C12.3029 31.5259 12.493 31.3302 12.7088 31.2842C12.8731 31.2493 13.104 31.3616 13.1647 31.5061C13.1916 31.5701 13.1883 31.7037 13.1566 31.8331C13.1178 31.9912 13.1211 32.1289 13.1653 32.1939C13.2148 32.2667 13.3386 32.344 13.4518 32.3727C13.5709 32.4029 13.7082 32.4065 14.1025 32.3898C14.44 32.3755 14.5489 32.3869 14.6921 32.4515C14.8184 32.5084 14.934 32.6293 15.0238 32.7984C15.1611 33.057 15.1886 33.192 15.1656 33.4954L15.1573 33.6045L15.2445 33.6915C15.4643 33.9111 15.5377 34.2503 15.4166 34.4875C15.2641 34.7861 14.869 35.1104 14.4934 35.2451C14.2382 35.3367 14.1043 35.3592 13.805 35.3611C13.5013 35.3631 13.3491 35.3416 13.0459 35.2542C12.4548 35.084 11.9763 34.6933 11.7597 34.2043C11.5039 33.6268 11.6258 32.7863 12.0909 31.9206Z" fill="#FF3B3B"/>
<path d="M12.7088 31.2842C12.493 31.3302 12.3029 31.5259 12.0909 31.9206C11.6258 32.7863 11.5039 33.6268 11.7597 34.2043C11.9763 34.6933 12.4548 35.084 13.0459 35.2542C13.3491 35.3416 13.5013 35.3631 13.805 35.3611C14.1043 35.3592 14.2382 35.3367 14.4934 35.2451C14.869 35.1104 15.2641 34.7861 15.4166 34.4875C15.5377 34.2503 15.4643 33.9111 15.2445 33.6915L15.1573 33.6045L15.1656 33.4954C15.1886 33.192 15.1611 33.057 15.0238 32.7984C14.934 32.6293 14.8184 32.5084 14.6921 32.4515C14.5489 32.3869 14.44 32.3755 14.1025 32.3898C13.7082 32.4065 13.5709 32.4029 13.4518 32.3727C13.3386 32.344 13.2148 32.2667 13.1653 32.1939C13.1211 32.1289 13.1178 31.9912 13.1566 31.8331C13.1883 31.7037 13.1916 31.5701 13.1647 31.5061C13.104 31.3616 12.8731 31.2493 12.7088 31.2842Z" fill="#FF3B3B"/>
<path fill-rule="evenodd" clip-rule="evenodd" d="M8.21622 30.6209C8.23996 30.6538 8.23913 30.6611 8.18991 30.8533C8.04958 31.4012 8.11568 31.8815 8.40208 32.3949C8.45052 32.4818 8.52852 32.61 8.5754 32.6798C9.00868 33.3253 9.14633 33.5939 9.20302 33.9044C9.22928 34.0482 9.22344 34.3032 9.19079 34.4387C9.06277 34.9702 8.6463 35.3821 8.07989 35.5375C7.49835 35.6969 6.89838 35.5564 6.46203 35.1585C6.22357 34.9411 6.06721 34.6528 6.0159 34.3359C5.90954 33.6793 6.3383 32.7236 7.25754 31.5684C7.5807 31.1623 8.07563 30.6125 8.1298 30.5994C8.17646 30.5881 8.19603 30.593 8.21622 30.6209ZM6.50239 33.0251C6.64919 32.7488 6.78077 32.6118 6.93019 32.5796C7.04388 32.5552 7.20374 32.6338 7.24578 32.7349C7.26442 32.7797 7.26212 32.8732 7.24015 32.9638C7.21329 33.0745 7.21559 33.1709 7.24619 33.2164C7.28049 33.2674 7.36618 33.3215 7.44453 33.3415C7.52703 33.3627 7.62209 33.3652 7.89502 33.3535C8.12871 33.3435 8.20409 33.3515 8.30323 33.3967C8.39064 33.4365 8.47066 33.5212 8.53285 33.6396C8.62791 33.8205 8.64693 33.9151 8.63101 34.1274L8.62528 34.2038L8.68562 34.2647C8.83784 34.4184 8.88861 34.6559 8.80477 34.8219C8.69924 35.0309 8.42567 35.2579 8.16567 35.3522C7.98898 35.4163 7.8963 35.4321 7.68904 35.4335C7.47883 35.4348 7.37344 35.4198 7.16351 35.3586C6.75433 35.2394 6.42308 34.966 6.27308 34.6237C6.09598 34.2194 6.18037 33.6311 6.50239 33.0251Z" fill="#FF3C3C"/>
<path d="M6.93019 32.5796C6.78077 32.6118 6.64919 32.7488 6.50239 33.0251C6.18037 33.6311 6.09598 34.2194 6.27308 34.6237C6.42308 34.966 6.75433 35.2394 7.16351 35.3586C7.37344 35.4198 7.47883 35.4348 7.68904 35.4335C7.8963 35.4321 7.98898 35.4163 8.16567 35.3522C8.42567 35.2579 8.69924 35.0309 8.80477 34.8219C8.88861 34.6559 8.83784 34.4184 8.68562 34.2647L8.62528 34.2038L8.63101 34.1274C8.64693 33.9151 8.62791 33.8205 8.53285 33.6396C8.47066 33.5212 8.39064 33.4365 8.30323 33.3967C8.20409 33.3515 8.12871 33.3435 7.89502 33.3535C7.62209 33.3652 7.52703 33.3627 7.44453 33.3415C7.36618 33.3215 7.28049 33.2674 7.24619 33.2164C7.21559 33.1709 7.21329 33.0745 7.24015 32.9638C7.26212 32.8732 7.26442 32.7797 7.24578 32.7349C7.20374 32.6338 7.04388 32.5552 6.93019 32.5796Z" fill="#FF3C3C"/>
</svg>
