<svg width="56" height="56" viewBox="0 0 56 56" fill="none" xmlns="http://www.w3.org/2000/svg">
<path fill-rule="evenodd" clip-rule="evenodd" d="M29.5734 20.1009C29.6604 20.223 29.6574 20.2502 29.477 20.9639C28.9624 22.999 29.2048 24.783 30.2549 26.6901C30.4325 27.0126 30.7185 27.4888 30.8904 27.7482C32.4791 30.1459 32.9838 31.1435 33.1917 32.2966C33.2879 32.8307 33.2665 33.7778 33.1468 34.2813C32.6774 36.2555 31.1504 37.7854 29.0735 38.3624C26.9412 38.9547 24.7413 38.4328 23.1414 36.9548C22.267 36.1472 21.6937 35.0764 21.5056 33.8996C21.1156 31.4606 22.6877 27.911 26.0582 23.6201C27.2432 22.1117 29.0579 20.0695 29.2565 20.0209C29.4276 19.9791 29.4994 19.9972 29.5734 20.1009ZM23.2894 29.0306C23.8276 28.0045 24.3101 27.4955 24.858 27.3761C25.2748 27.2852 25.861 27.5773 26.0151 27.9528C26.0835 28.1194 26.075 28.4667 25.9945 28.8031C25.896 29.2143 25.9044 29.5722 26.0166 29.7412C26.1424 29.9306 26.4566 30.1315 26.7439 30.2061C27.0464 30.2846 27.3949 30.2941 28.3957 30.2506C29.2525 30.2135 29.5289 30.243 29.8924 30.4109C30.213 30.5589 30.5064 30.8733 30.7344 31.3131C31.0829 31.9852 31.1527 32.3364 31.0943 33.1251L31.0733 33.4089L31.2946 33.6351C31.8527 34.2059 32.0388 35.0879 31.7314 35.7046C31.3445 36.4809 30.3414 37.3241 29.3881 37.6743C28.7402 37.9124 28.4004 37.9711 27.6404 37.976C26.8696 37.981 26.4832 37.9253 25.7135 37.6981C24.2131 37.2554 22.9985 36.2398 22.4486 34.9683C21.7992 33.4669 22.1086 31.2816 23.2894 29.0306Z" fill="#FFC8D5"/>
<path d="M24.858 27.3761C24.3101 27.4955 23.8276 28.0045 23.2894 29.0306C22.1086 31.2816 21.7992 33.4669 22.4486 34.9683C22.9985 36.2398 24.2131 37.2554 25.7135 37.6981C26.4832 37.9253 26.8696 37.981 27.6404 37.976C28.4004 37.9711 28.7402 37.9124 29.3881 37.6743C30.3414 37.3241 31.3445 36.4809 31.7314 35.7046C32.0388 35.0879 31.8527 34.2059 31.2946 33.6351L31.0733 33.4089L31.0943 33.1251C31.1527 32.3364 31.0829 31.9852 30.7344 31.3131C30.5064 30.8733 30.213 30.5589 29.8924 30.4109C29.5289 30.243 29.2525 30.2135 28.3957 30.2506C27.3949 30.2941 27.0464 30.2846 26.7439 30.2061C26.4566 30.1315 26.1424 29.9306 26.0166 29.7412C25.9044 29.5722 25.896 29.2143 25.9945 28.8031C26.075 28.4667 26.0835 28.1194 26.0151 27.9528C25.861 27.5773 25.2748 27.2852 24.858 27.3761Z" fill="#FFC8D5"/>
<path fill-rule="evenodd" clip-rule="evenodd" d="M16.507 17.0705C16.566 17.1558 16.5639 17.1749 16.4416 17.6736C16.0929 19.0959 16.2571 20.3427 16.9688 21.6754C17.0892 21.9008 17.283 22.2336 17.3995 22.415C18.4761 24.0906 18.8182 24.7878 18.959 25.5937C19.0243 25.9669 19.0098 26.6288 18.9286 26.9807C18.6105 28.3604 17.5757 29.4296 16.1682 29.8328C14.7232 30.2468 13.2323 29.882 12.1481 28.8491C11.5555 28.2847 11.167 27.5364 11.0395 26.7139C10.7752 25.0094 11.8406 22.5287 14.1248 19.53C14.9278 18.4758 16.1576 17.0486 16.2922 17.0146C16.4082 16.9854 16.4568 16.998 16.507 17.0705ZM12.2484 23.3112C12.6131 22.594 12.9401 22.2384 13.3114 22.1549C13.5939 22.0914 13.9911 22.2955 14.0956 22.558C14.1419 22.6743 14.1362 22.9171 14.0816 23.1521C14.0149 23.4395 14.0206 23.6897 14.0966 23.8077C14.1818 23.9401 14.3948 24.0805 14.5894 24.1327C14.7944 24.1876 15.0306 24.1941 15.7088 24.1638C16.2895 24.1378 16.4768 24.1585 16.7232 24.2758C16.9404 24.3793 17.1392 24.599 17.2937 24.9063C17.53 25.376 17.5772 25.6215 17.5377 26.1727L17.5234 26.371L17.6734 26.5291C18.0516 26.928 18.1778 27.5444 17.9694 27.9754C17.7072 28.5179 17.0274 29.1072 16.3814 29.352C15.9423 29.5183 15.712 29.5593 15.197 29.5628C14.6747 29.5663 14.4128 29.5273 13.8911 29.3686C12.8744 29.0592 12.0513 28.3494 11.6786 27.4608C11.2385 26.4115 11.4482 24.8843 12.2484 23.3112Z" fill="#FFC8D5"/>
<path d="M13.3114 22.1549C12.9401 22.2384 12.6131 22.594 12.2484 23.3112C11.4482 24.8843 11.2385 26.4115 11.6786 27.4608C12.0513 28.3494 12.8744 29.0592 13.8911 29.3686C14.4128 29.5273 14.6747 29.5663 15.197 29.5628C15.712 29.5593 15.9423 29.5183 16.3814 29.352C17.0274 29.1072 17.7072 28.5179 17.9694 27.9754C18.1778 27.5444 18.0516 26.928 17.6734 26.5291L17.5234 26.371L17.5377 26.1727C17.5772 25.6215 17.53 25.376 17.2937 24.9063C17.1392 24.599 16.9404 24.3793 16.7232 24.2758C16.4768 24.1585 16.2895 24.1378 15.7088 24.1638C15.0306 24.1941 14.7944 24.1876 14.5894 24.1327C14.3948 24.0805 14.1818 23.9401 14.0966 23.8077C14.0206 23.6897 14.0149 23.4395 14.0816 23.1521C14.1362 22.9171 14.1419 22.6743 14.0956 22.558C13.9911 22.2955 13.5939 22.0914 13.3114 22.1549Z" fill="#FFC8D5"/>
<path fill-rule="evenodd" clip-rule="evenodd" d="M41.507 17.0705C41.566 17.1558 41.5639 17.1749 41.4416 17.6736C41.0929 19.0959 41.2571 20.3427 41.9688 21.6754C42.0892 21.9008 42.283 22.2336 42.3995 22.415C43.4761 24.0906 43.8182 24.7878 43.959 25.5937C44.0243 25.9669 44.0098 26.6288 43.9286 26.9807C43.6105 28.3604 42.5757 29.4296 41.1682 29.8328C39.7232 30.2468 38.2323 29.882 37.1481 28.8491C36.5555 28.2847 36.167 27.5364 36.0395 26.7139C35.7752 25.0094 36.8406 22.5287 39.1248 19.53C39.9278 18.4758 41.1576 17.0486 41.2922 17.0146C41.4082 16.9854 41.4568 16.998 41.507 17.0705ZM37.2484 23.3112C37.6131 22.594 37.9401 22.2384 38.3114 22.1549C38.5939 22.0914 38.9911 22.2955 39.0956 22.558C39.1419 22.6743 39.1362 22.9171 39.0816 23.1521C39.0149 23.4395 39.0206 23.6897 39.0966 23.8077C39.1818 23.9401 39.3948 24.0805 39.5894 24.1327C39.7944 24.1876 40.0306 24.1941 40.7088 24.1638C41.2895 24.1378 41.4768 24.1585 41.7232 24.2758C41.9404 24.3793 42.1392 24.599 42.2937 24.9063C42.53 25.376 42.5772 25.6215 42.5377 26.1727L42.5234 26.371L42.6734 26.5291C43.0516 26.928 43.1778 27.5444 42.9694 27.9754C42.7072 28.5179 42.0274 29.1072 41.3814 29.352C40.9423 29.5183 40.712 29.5593 40.197 29.5628C39.6747 29.5663 39.4128 29.5273 38.8911 29.3686C37.8744 29.0592 37.0513 28.3494 36.6786 27.4608C36.2385 26.4115 36.4482 24.8843 37.2484 23.3112Z" fill="#FFC8D5"/>
<path d="M38.3114 22.1549C37.9401 22.2384 37.6131 22.594 37.2484 23.3112C36.4482 24.8843 36.2385 26.4115 36.6786 27.4608C37.0513 28.3494 37.8744 29.0592 38.8911 29.3686C39.4128 29.5273 39.6747 29.5663 40.197 29.5628C40.712 29.5593 40.9423 29.5183 41.3814 29.352C42.0274 29.1072 42.7072 28.5179 42.9694 27.9754C43.1778 27.5444 43.0516 26.928 42.6734 26.5291L42.5234 26.371L42.5377 26.1727C42.5772 25.6215 42.53 25.376 42.2937 24.9063C42.1392 24.599 41.9404 24.3793 41.7232 24.2758C41.4768 24.1585 41.2895 24.1378 40.7088 24.1638C40.0306 24.1941 39.7944 24.1876 39.5894 24.1327C39.3948 24.0805 39.1818 23.9401 39.0966 23.8077C39.0206 23.6897 39.0149 23.4395 39.0816 23.1521C39.1362 22.9171 39.1419 22.6743 39.0956 22.558C38.9911 22.2955 38.5939 22.0914 38.3114 22.1549Z" fill="#FFC8D5"/>
</svg>
