<svg width="56" height="56" viewBox="0 0 56 56" fill="none" xmlns="http://www.w3.org/2000/svg">
<path d="M15.6065 17.1204C16.8516 15.8176 18.5986 15.0577 20.3838 14.8156C22.182 14.5716 24.2392 14.9404 25.3231 16.395C26.1352 17.4836 26.2302 18.9298 26.2944 20.2867C26.4006 22.5245 26.4239 25.0127 24.9357 26.6881C23.8471 27.9136 22.1597 28.4239 20.5328 28.6204C18.5753 28.8569 16.3459 28.6102 15.0599 27.1155C13.8381 25.6963 13.9405 23.7295 13.8679 21.9741C13.7934 20.1861 14.354 18.4298 15.6056 17.1204H15.6065Z" fill="url(#paint0_linear_11560_29182)"/>
<path opacity="0.42" d="M17.5512 25.5113C16.8686 25.5113 15.6328 25.407 15.0294 24.7057C14.4697 24.0557 14.4352 22.8591 14.398 21.5916C14.3915 21.3681 14.385 21.1474 14.3756 20.9295C14.3235 19.6658 14.7211 18.5241 15.4959 17.7139C16.321 16.8507 17.5512 16.2696 18.9592 16.0787C19.2004 16.0461 19.4426 16.0293 19.68 16.0293C20.6616 16.0293 21.4559 16.3096 21.8061 16.7789C22.2382 17.3582 22.2931 18.5139 22.3369 19.4414C22.4263 21.3206 22.4384 23.2409 21.5407 24.2513C20.9884 24.8724 19.979 25.2756 18.5411 25.4489C18.2012 25.4898 17.8687 25.5103 17.5521 25.5103L17.5512 25.5113Z" fill="#FEF1EA"/>
<path d="M26.3599 43.4471C26.5238 44.8952 27.9048 46.0891 29.3622 46.0742C30.8196 46.0583 32.1634 44.8645 32.3832 43.4238C32.5257 42.4907 32.2109 41.4803 31.5041 40.8545C29.5811 39.1513 26.0665 40.8555 26.359 43.4481L26.3599 43.4471Z" fill="url(#paint1_linear_11560_29182)"/>
<path opacity="0.42" d="M28.0039 42.3667C27.6854 42.3667 27.284 42.024 27.2496 41.7241C27.243 41.6664 27.2281 41.5314 27.3986 41.3405C27.6137 41.1002 27.989 40.9316 28.3121 40.9316C28.5524 40.9316 28.6539 41.021 28.6911 41.0546C28.7917 41.143 28.8774 41.3824 28.8429 41.6142C28.788 41.9765 28.3587 42.363 28.0076 42.3667H28.0039Z" fill="#FEF1EA"/>
<path d="M12.3123 37.6493C11.8886 38.5368 11.9147 39.6031 12.2779 40.5166C12.8171 41.8753 14.1124 42.9137 15.5614 43.1092C16.8102 43.2778 18.1326 42.8038 18.994 41.8846C19.9625 40.8519 20.0044 39.5267 20.0789 38.1913C20.2298 35.4888 18.1512 34.8817 15.6965 35.4022C14.3499 35.6872 12.9353 36.3447 12.3133 37.6493H12.3123Z" fill="url(#paint2_linear_11560_29182)"/>
<path opacity="0.42" d="M15.9854 39.323C15.918 39.341 15.8502 39.3544 15.7839 39.3625C15.1436 39.4444 14.4176 39.128 14.0194 38.5916C13.7781 38.2668 13.6583 37.8593 13.7144 37.554C13.8041 37.0721 14.3653 36.5254 15.217 36.0919C15.5624 35.9164 15.8855 35.7874 16.1779 35.7091C16.544 35.611 16.7369 35.6258 16.8044 35.6366C16.8425 35.6959 16.9152 35.8451 16.9718 36.1172L16.9988 36.2469C17.2223 37.3112 17.3466 37.9874 17.0967 38.4545C16.877 38.8652 16.4514 39.1981 15.9863 39.3227L15.9854 39.323Z" fill="#FEF1EA"/>
<path d="M33.9796 22.4072C36.0646 21.8839 38.4002 22.2247 40.1183 23.5173C41.7229 24.7251 42.6662 26.6192 43.2874 28.5292C43.8592 30.2846 44.2075 32.1648 43.8629 33.978C43.5184 35.7911 42.3794 37.5288 40.6659 38.2161C38.9524 38.9033 36.7044 38.2682 35.897 36.6078C35.3094 35.399 35.5432 33.9752 35.6922 32.6398C35.8412 31.3043 35.8356 29.7976 34.9201 28.8133C33.6685 27.4667 30.0162 27.868 29.4621 25.9692C28.9471 24.2027 32.7149 22.7257 33.9786 22.4081L33.9796 22.4072Z" fill="url(#paint3_linear_11560_29182)"/>
<path d="M35.1331 12.0873C34.2316 13.1788 34.2111 14.9034 35.0874 16.0153C35.9637 17.1272 37.6446 17.5119 38.9167 16.8898C40.1888 16.2677 40.9198 14.706 40.5809 13.3315C39.9867 10.9196 36.7227 10.1625 35.1331 12.0873Z" fill="url(#paint4_linear_11560_29182)"/>
<path d="M33.9796 21.4092C36.0646 20.8858 38.4002 21.2266 40.1183 22.5192C41.7229 23.727 42.6662 25.6212 43.2874 27.5312C43.8592 29.2866 44.2075 31.1668 43.8629 32.9799C43.5184 34.793 42.3794 36.5308 40.6659 37.218C38.9524 37.9053 36.7044 37.2702 35.897 35.6097C35.3094 34.401 35.5432 32.9771 35.6922 31.6417C35.8412 30.3063 35.8356 28.7995 34.9201 27.8152C33.6685 26.4686 30.0162 26.87 29.4621 24.9712C28.9471 23.2046 32.7149 21.7277 33.9786 21.4101L33.9796 21.4092Z" fill="url(#paint5_linear_11560_29182)"/>
<path opacity="0.42" d="M39.4984 33.1464C38.9527 33.1464 38.4396 32.9061 38.2785 32.5755C38.0383 32.082 38.1472 31.1461 38.2524 30.24C38.2664 30.1198 38.2804 30.0006 38.2934 29.8814C38.4713 28.2778 38.5225 25.945 36.9133 24.2129C35.9066 23.1299 34.4995 22.7676 33.2582 22.4482C33.1753 22.4268 33.0822 22.4026 32.9844 22.3774C33.5655 22.0785 34.2686 21.7926 34.8338 21.6501C35.2715 21.5402 35.7232 21.4844 36.1776 21.4844C37.2495 21.4844 38.2543 21.7963 39.0058 22.3616C39.9818 23.0954 40.7519 24.3629 41.3609 26.2337C41.9206 27.9537 42.0845 29.3581 41.8629 30.5277C41.6385 31.7113 40.9409 32.6975 40.0861 33.0402C39.9138 33.1091 39.7098 33.1464 39.4984 33.1464Z" fill="#FEF1EA"/>
<path d="M35.1331 11.0893C34.2316 12.1807 34.2111 13.9054 35.0874 15.0173C35.9637 16.1292 37.6446 16.5138 38.9167 15.8917C40.1888 15.2706 40.9198 13.708 40.5809 12.3334C39.9867 9.92151 36.7227 9.16441 35.1331 11.0893Z" fill="url(#paint6_linear_11560_29182)"/>
<path opacity="0.42" d="M37.0153 13.4278C36.5021 13.4278 35.9685 13.2043 35.7162 12.8848C35.3381 12.4043 35.3493 11.4358 35.7385 10.9646C35.9937 10.6554 36.3522 10.498 36.8011 10.498C37.2499 10.498 38.1923 10.7225 38.4009 11.5727C38.5471 12.1659 38.1365 13.0441 37.587 13.3123C37.4324 13.3877 37.2341 13.4278 37.0143 13.4278H37.0153Z" fill="#FEF1EA"/>
<defs>
<linearGradient id="paint0_linear_11560_29182" x1="20.0995" y1="14.7459" x2="20.0995" y2="28.6988" gradientUnits="userSpaceOnUse">
<stop stop-color="#FFDFC1"/>
<stop offset="1" stop-color="#FFE9DC"/>
</linearGradient>
<linearGradient id="paint1_linear_11560_29182" x1="29.3794" y1="40.1698" x2="29.3794" y2="46.0745" gradientUnits="userSpaceOnUse">
<stop stop-color="#FFDFC1"/>
<stop offset="1" stop-color="#FFE9DC"/>
</linearGradient>
<linearGradient id="paint2_linear_11560_29182" x1="16.0435" y1="35.2323" x2="16.0435" y2="43.1431" gradientUnits="userSpaceOnUse">
<stop stop-color="#FFDFC1"/>
<stop offset="1" stop-color="#FFE9DC"/>
</linearGradient>
<linearGradient id="paint3_linear_11560_29182" x1="36.7072" y1="22.1716" x2="36.7072" y2="38.4898" gradientUnits="userSpaceOnUse">
<stop stop-color="#F2DCD0"/>
<stop offset="0.28" stop-color="#F4DED4"/>
</linearGradient>
<linearGradient id="paint4_linear_11560_29182" x1="37.5536" y1="10.9979" x2="37.5536" y2="17.1871" gradientUnits="userSpaceOnUse">
<stop stop-color="#F2DCD0"/>
<stop offset="0.28" stop-color="#F4DED4"/>
</linearGradient>
<linearGradient id="paint5_linear_11560_29182" x1="36.7072" y1="21.1736" x2="36.7072" y2="37.4918" gradientUnits="userSpaceOnUse">
<stop stop-color="#FFDFC1"/>
<stop offset="1" stop-color="#FFE9DC"/>
</linearGradient>
<linearGradient id="paint6_linear_11560_29182" x1="37.5536" y1="9.9999" x2="37.5536" y2="16.189" gradientUnits="userSpaceOnUse">
<stop stop-color="#FFDFC1"/>
<stop offset="1" stop-color="#FFE9DC"/>
</linearGradient>
</defs>
</svg>
