<svg width="56" height="56" viewBox="0 0 56 56" fill="none" xmlns="http://www.w3.org/2000/svg">
<path d="M23.3736 17.0052C22.3445 16.524 21.1388 16.103 20.1044 16.5725C19.2027 16.9818 18.6923 17.9946 18.6233 18.9822C18.5543 19.9698 18.8542 20.9439 19.1922 21.8748C19.7021 23.2788 20.3061 24.6488 20.9996 25.9714C21.4154 26.7649 21.8492 27.7888 21.2832 28.4834C20.916 28.9343 20.2728 29.0278 19.6922 29.0582C18.4139 29.126 17.0907 29.0553 15.9008 29.5278C14.7109 30.0002 13.6917 31.2398 13.9928 32.4841C14.2676 33.6203 15.4687 34.2559 16.5849 34.6044C18.7151 35.2686 21.0066 35.4107 23.2029 35.0154C24.0917 34.8552 25.1909 34.6827 25.7371 35.4025C26.2516 36.0814 25.8727 37.0339 25.685 37.8648C25.3348 39.4161 25.8031 41.1457 26.944 42.2538C28.0848 43.3618 29.8746 43.7758 31.361 43.2098C32.8474 42.6438 33.9221 41.0943 33.8589 39.505C33.8075 38.2168 33.0848 36.9146 33.5105 35.6978C33.9268 34.5067 35.2933 33.9243 36.5499 33.8115C37.8064 33.6986 39.0882 33.9126 40.326 33.67C41.5639 33.4267 42.8246 32.5116 42.8527 31.2509C42.8766 30.1891 42.0153 29.2939 41.064 28.822C40.1126 28.3495 39.042 28.1718 38.062 27.7625C37.082 27.3526 36.1324 26.6047 35.9511 25.558C35.7681 24.5008 36.4049 23.4998 36.9165 22.5566C38.0193 20.5235 38.6414 18.2308 38.7169 15.9188C38.7455 15.0411 38.6526 14.0617 38.0035 13.4699C37.0995 12.6461 35.6283 13.022 34.6127 13.7044C33.4771 14.4669 32.5708 15.5592 32.0077 16.8041C31.5686 17.7747 31.6902 19.5915 30.7102 20.1727C29.7863 20.7206 28.5239 20.0131 27.7404 19.5307C26.2972 18.6425 24.9173 17.7268 23.3748 17.0058L23.3736 17.0052Z" fill="url(#paint0_linear_11560_29202)"/>
<path opacity="0.42" d="M29.9592 40.2448C29.6774 40.2448 29.3739 40.1273 29.1868 39.9454C28.8669 39.6349 28.7143 39.0572 28.8243 38.5719C28.8441 38.483 28.8734 38.3702 28.9044 38.2503C29.1535 37.2814 29.6727 35.2647 28.3021 33.4573C27.7922 32.7843 26.6093 31.6557 24.4213 31.6557C23.7593 31.6557 23.1524 31.7551 22.6355 31.8481C22.2841 31.9113 21.9274 31.9569 21.5684 31.9844C22.3022 31.7522 23.1208 31.3219 23.7798 30.512C25.0855 28.9087 25.1095 26.8779 23.8511 24.4759C23.2267 23.2848 22.6776 22.0399 22.2186 20.7751C22.1408 20.5617 22.0151 20.2144 21.928 19.8758C21.956 19.8887 21.9847 19.9015 22.0139 19.9156C23.0968 20.4219 24.1417 21.0745 25.248 21.7645C25.5164 21.9317 25.7848 22.0995 26.0561 22.2662C27.0537 22.8801 28.3968 23.5841 29.9458 23.5841C30.8047 23.5841 31.6368 23.3602 32.3519 22.9357C32.9612 22.5743 33.4126 22.1223 33.7529 21.6364C33.167 22.7234 32.4624 24.2496 32.784 26.1037C33.1156 28.017 34.4651 29.6349 36.5076 30.5863C36.4257 30.5915 36.345 30.598 36.2655 30.6056C33.4764 30.8552 31.2585 32.3989 30.4773 34.6338C29.9019 36.2792 30.2539 37.7925 30.4872 38.7935C30.5597 39.104 30.6416 39.456 30.648 39.6308C30.655 39.8022 30.4445 40.1162 30.2194 40.2015C30.1469 40.229 30.0574 40.2436 29.9598 40.2436L29.9592 40.2448ZM34.3341 20.5465C34.6107 19.8542 34.7405 19.1741 34.8411 18.6496C34.8762 18.4666 34.9276 18.197 34.961 18.0807C35.0668 17.8538 35.1931 17.6363 35.3364 17.4316C35.1487 18.5099 34.8107 19.5618 34.3341 20.5465Z" fill="#F0F5F7"/>
<path d="M36.9982 38.6094C36.2018 39.1948 35.9574 40.3853 36.3942 41.2717C36.831 42.1581 37.8636 42.6856 38.8483 42.5979C39.3588 42.5523 39.8809 42.3359 40.1663 41.9108C41.4416 40.0116 39.0337 37.1137 36.9982 38.6089V38.6094Z" fill="url(#paint1_linear_11560_29202)"/>
<path opacity="0.42" d="M39.0958 41.0744C38.5076 41.0744 37.9316 40.74 37.6954 40.2605C37.4521 39.7676 37.6012 39.0688 38.0141 38.7653C38.224 38.6116 38.438 38.5332 38.6514 38.5332C39.0964 38.5332 39.5776 38.8753 39.8489 39.3851C39.9746 39.6214 40.2273 40.2313 39.8513 40.7914C39.7554 40.9341 39.5104 41.0429 39.2268 41.068C39.1835 41.0721 39.1397 41.0738 39.0958 41.0738V41.0744Z" fill="#F0F5F7"/>
<path d="M41.4483 23.1822C43.0435 25.0387 46.7132 22.6693 45.1128 20.7169C43.537 18.7938 39.5415 20.9631 41.4483 23.1822Z" fill="url(#paint2_linear_11560_29202)"/>
<path opacity="0.42" d="M42.4183 22.3197C42.0827 22.3197 41.8219 22.2062 41.6213 21.9729C41.2249 21.5116 41.3518 21.235 41.3991 21.1309C41.6067 20.6783 42.2915 20.3105 42.9253 20.3105C43.3235 20.3105 43.6351 20.445 43.8527 20.7105C44.0526 20.9543 44.0866 21.1666 43.9667 21.4192C43.7316 21.9156 43.037 22.3203 42.4178 22.3203L42.4183 22.3197Z" fill="#F0F5F7"/>
<path d="M11.8062 23.694C11.4957 23.939 11.2033 24.2331 11.0723 24.6062C10.8905 25.1225 11.0636 25.7306 11.4559 26.1125C11.8477 26.4943 12.4301 26.6527 12.9715 26.5761C13.7685 26.4633 14.469 25.8376 14.6702 25.0582C14.8269 24.4501 14.6404 23.2695 14.0112 22.9286C13.3224 22.555 12.3412 23.2724 11.8062 23.694Z" fill="url(#paint3_linear_11560_29202)"/>
<path opacity="0.42" d="M12.9732 24.724C12.7405 24.724 12.5177 24.6427 12.378 24.5071C12.2365 24.3697 12.1692 24.1387 12.2242 23.9814C12.2722 23.8452 12.4172 23.6808 12.6552 23.4931C13.4024 22.9043 13.7287 22.8277 13.841 22.8242C13.9842 22.9774 14.1146 23.5756 14.0339 23.8884C13.9281 24.2995 13.5305 24.6544 13.1101 24.7141C13.0651 24.7205 13.0194 24.7234 12.9732 24.7234V24.724Z" fill="#F0F5F7"/>
<defs>
<linearGradient id="paint0_linear_11560_29202" x1="28.3969" y1="12.9995" x2="28.3969" y2="43.4632" gradientUnits="userSpaceOnUse">
<stop stop-color="#9ED8E7"/>
<stop offset="1" stop-color="#D6F0F5"/>
</linearGradient>
<linearGradient id="paint1_linear_11560_29202" x1="38.3511" y1="38.1952" x2="38.3511" y2="42.6075" gradientUnits="userSpaceOnUse">
<stop stop-color="#9ED8E7"/>
<stop offset="1" stop-color="#D6F0F5"/>
</linearGradient>
<linearGradient id="paint2_linear_11560_29202" x1="43.2259" y1="19.9745" x2="43.2259" y2="23.8551" gradientUnits="userSpaceOnUse">
<stop stop-color="#9ED8E7"/>
<stop offset="1" stop-color="#D6F0F5"/>
</linearGradient>
<linearGradient id="paint3_linear_11560_29202" x1="12.8614" y1="22.8242" x2="12.8614" y2="26.595" gradientUnits="userSpaceOnUse">
<stop stop-color="#9ED8E7"/>
<stop offset="1" stop-color="#D6F0F5"/>
</linearGradient>
</defs>
</svg>
