<svg width="56" height="56" viewBox="0 0 56 56" fill="none" xmlns="http://www.w3.org/2000/svg">
<path d="M8.14502 20.9303C14.0126 22.5144 16.3724 22.269 20.6107 26.6937C22.5613 28.7301 24.1779 31.1074 26.0425 33.2346C27.9072 35.3618 30.0895 37.2767 32.7603 38.0948C35.4311 38.9129 38.6671 38.4593 40.9193 36.3397C44.17 33.2793 44.2531 27.6372 41.8699 24.2764C39.4866 20.9155 35.319 19.5317 31.2291 19.3591C27.1388 19.1873 22.9857 20.0543 18.8576 20.4065C14.7294 20.7587 6.82313 20.8097 5.87467 21.1918L8.14502 20.9303Z" fill="url(#paint0_linear_11560_29222)"/>
<path d="M6.2507 21.4018C9.84304 20.6874 15.1688 22.0601 19.5122 26.2741C21.5116 28.2127 23.1996 30.447 25.1184 32.4655C27.0376 34.4831 29.2574 36.3229 31.9049 37.1878C34.5524 38.0527 37.6941 37.788 39.7988 35.9644C42.8364 33.3312 42.6611 28.2076 40.179 25.0449C37.697 21.8822 33.561 20.4349 29.5558 20.0925C25.5505 19.7501 16.1168 20.0103 12.0987 20.1418C8.08064 20.2733 7.16038 21.0975 6.2507 21.4018Z" fill="url(#paint1_linear_11560_29222)"/>
<path opacity="0.42" d="M36.8373 32.2068C36.5897 32.7035 36.2617 33.1309 35.8614 33.4773C34.4843 34.6709 32.2 34.9872 30.042 34.2818C28.1218 33.6543 26.248 32.3327 24.1456 30.1214C23.3663 29.3016 22.6316 28.4509 21.8535 27.5493C20.7933 26.3212 19.6968 25.0509 18.4784 23.8682C17.7087 23.1211 16.8861 22.4071 16.0112 21.7266C17.0649 21.6757 18.1132 21.6002 19.1351 21.5272C21.809 21.3362 24.3346 21.1558 26.8426 21.3707C29.1927 21.5716 33.5009 22.3762 35.9583 25.5088C37.4524 27.4137 37.8228 30.2303 36.8373 32.2068Z" fill="#FEF1EA"/>
<defs>
<linearGradient id="paint0_linear_11560_29222" x1="8.3816" y1="16.1625" x2="42.9204" y2="33.3841" gradientUnits="userSpaceOnUse">
<stop stop-color="#F2DCD0"/>
<stop offset="0.28" stop-color="#F4DED4"/>
</linearGradient>
<linearGradient id="paint1_linear_11560_29222" x1="8.51371" y1="16.8618" x2="41.6201" y2="33.3692" gradientUnits="userSpaceOnUse">
<stop stop-color="#FFDFC1"/>
<stop offset="1" stop-color="#FFE9DC"/>
</linearGradient>
</defs>
</svg>
