<svg width="56" height="56" viewBox="0 0 56 56" fill="none" xmlns="http://www.w3.org/2000/svg">
<path d="M16.8816 11.1463C18.9815 10.6892 21.1536 11.3049 23.2062 11.9352C25.2588 12.5656 27.4072 13.2233 29.5238 12.8482C31.4357 12.5093 33.0801 11.3685 34.8416 10.5652C36.603 9.76196 38.7849 9.32363 40.4159 10.3581C41.5559 11.081 42.1989 12.4877 41.9914 13.8015C41.7835 15.1157 40.7355 16.2655 39.4259 16.617C38.4224 16.8865 37.35 16.7132 36.3213 16.8657C35.2926 17.0182 34.1847 17.7036 34.1733 18.7226C34.1602 19.861 35.434 20.5309 36.1182 21.4516C37.0646 22.7254 36.7225 24.7335 35.4055 25.6379C34.0885 26.5423 32.0432 26.1725 31.1425 24.8677C30.4281 23.8324 30.4477 22.4914 30.1362 21.2795C29.8247 20.0677 28.8355 18.7809 27.5739 18.9701C26.9056 19.0704 26.3581 19.587 26.0808 20.1909C25.8035 20.7947 25.7591 21.4757 25.7827 22.1374C25.9201 25.9849 28.1538 29.41 30.1676 32.7164C32.1819 36.0228 34.1076 39.7292 33.5429 43.5391C33.3815 44.6291 33.001 45.7132 32.2756 46.5548C31.5499 47.3964 30.4445 47.9648 29.3224 47.8857C27.2983 47.7426 25.9662 45.6105 25.8386 43.6276C25.7109 41.6448 26.4164 39.7125 26.7238 37.7488C27.4785 32.9227 25.7958 28.0183 23.3917 23.7411C22.3915 21.9621 21.1568 20.1582 19.2612 19.3338C18.0164 18.7923 16.6027 18.7303 15.3375 18.2349C11.3025 16.6549 13.4847 11.8863 16.8825 11.1467L16.8816 11.1463Z" fill="url(#paint0_linear_11560_29214)"/>
<path d="M16.647 10.3943C18.7029 9.93722 20.8293 10.5529 22.8386 11.1833C24.848 11.8137 26.9516 12.4714 29.0237 12.0962C30.8957 11.7574 32.5055 10.6165 34.2302 9.81326C35.9546 9.01001 38.0907 8.57168 39.6875 9.60613C40.8035 10.3291 41.4334 11.7358 41.23 13.0495C41.0265 14.3633 40.0006 15.5135 38.7183 15.865C37.7356 16.1345 36.6861 15.9612 35.6789 16.1137C34.6718 16.2662 33.5872 16.9517 33.5762 17.9706C33.5636 19.109 34.8104 19.779 35.4804 20.6996C36.4068 21.9734 36.072 23.9816 34.7827 24.886C33.493 25.7903 31.491 25.4205 30.6094 24.1157C29.9102 23.0805 29.9289 21.7394 29.6243 20.5276C29.3197 19.3158 28.3509 18.0289 27.1159 18.2181C26.4615 18.3184 25.9257 18.835 25.6541 19.4389C25.3826 20.0428 25.3393 20.7237 25.3622 21.3855C25.4967 25.233 27.6835 28.658 29.6553 31.9644C31.6272 35.2708 33.5126 38.9772 32.9597 42.7872C32.8015 43.8771 32.4292 44.9613 31.7189 45.8029C31.0086 46.6445 29.9261 47.2129 28.8276 47.1338C26.846 46.9906 25.5416 44.8585 25.4168 42.8757C25.292 40.8928 25.9828 38.9605 26.2833 36.9968C27.0221 32.1707 25.3748 27.2664 23.0209 22.9891C22.0419 21.2101 20.8329 19.4063 18.9769 18.5818C17.7581 18.0403 16.3743 17.9784 15.1355 17.4829C11.1849 15.9029 13.3219 11.1344 16.6482 10.3947L16.647 10.3943Z" fill="url(#paint1_linear_11560_29214)"/>
<path opacity="0.42" d="M29.3196 46.2953C29.2956 46.2953 29.2727 46.2945 29.2495 46.2929C28.352 46.2281 27.647 44.9204 27.5757 43.7877C27.5076 42.71 27.7604 41.5549 28.0279 40.3313C28.1702 39.6801 28.3178 39.0065 28.4242 38.3109C28.6191 37.0367 28.6713 35.7241 28.5808 34.377C29.3706 35.7221 30.2101 37.2683 30.7749 38.8483C31.3958 40.5865 31.5969 42.1237 31.3906 43.5484C31.2637 44.4222 30.9808 45.1398 30.5726 45.6238C30.2277 46.0323 29.7359 46.2962 29.32 46.2962L29.3196 46.2953Z" fill="#FEF1EA"/>
<path opacity="0.42" d="M33.4183 22.6659C33.0159 22.6659 32.6257 22.4881 32.4467 22.2235C32.1943 21.8504 32.0899 21.2106 31.9794 20.5338C31.9109 20.1142 31.8399 19.6804 31.7262 19.2282C31.2724 17.4239 29.8004 15.4822 27.641 15.4822C27.4661 15.4822 27.2891 15.4957 27.1146 15.5226C25.8693 15.7134 24.7896 16.575 24.2261 17.828C23.9892 18.3544 23.8689 18.8889 23.8114 19.3803C22.87 18.0192 21.6732 16.7601 20.021 16.0262C19.2084 15.6653 18.3811 15.4818 17.6516 15.3199C17.0906 15.1956 16.5609 15.0781 16.1148 14.9C15.7185 14.7413 15.4335 14.5383 15.2896 14.3124C15.1848 14.1477 15.1436 13.9515 15.1628 13.7126C15.2349 12.8237 16.1458 11.649 17.3381 11.384C17.6818 11.3073 18.0398 11.2702 18.4325 11.2702C19.7091 11.2702 21.1142 11.6776 22.5613 12.1318C24.218 12.6512 26.096 13.2404 28.0451 13.2404C28.5927 13.2404 29.1301 13.1935 29.6418 13.101C31.2467 12.8103 32.5853 12.0951 33.8795 11.4031C34.3733 11.1393 34.8397 10.8898 35.3058 10.6729C36.1889 10.2615 37.0623 10.0352 37.7649 10.0352C38.2468 10.0352 38.635 10.1346 38.9514 10.3397C39.4456 10.6598 39.7502 11.3403 39.6601 11.9222C39.57 12.5041 39.0737 13.0602 38.5057 13.216C38.1702 13.3081 37.7139 13.3142 37.2311 13.3212C36.7643 13.3277 36.235 13.335 35.6817 13.419C33.8615 13.6947 32.0071 15.0504 31.9839 17.1091C31.9663 18.6789 32.9979 19.6893 33.6805 20.3584C33.9076 20.5807 34.1221 20.7911 34.2468 20.9623C34.3924 21.1621 34.4479 21.4687 34.3957 21.7823C34.3435 22.0958 34.1914 22.3674 33.9892 22.5097C33.844 22.6116 33.6413 22.6675 33.4183 22.6675V22.6659Z" fill="#FEF1EA"/>
<defs>
<linearGradient id="paint0_linear_11560_29214" x1="27.5937" y1="9.75132" x2="27.5937" y2="47.8941" gradientUnits="userSpaceOnUse">
<stop stop-color="#F2DCD0"/>
<stop offset="0.28" stop-color="#F4DED4"/>
</linearGradient>
<linearGradient id="paint1_linear_11560_29214" x1="27.1345" y1="8.99937" x2="27.1345" y2="47.1421" gradientUnits="userSpaceOnUse">
<stop stop-color="#FFDFC1"/>
<stop offset="1" stop-color="#FFE9DC"/>
</linearGradient>
</defs>
</svg>
