<svg width="56" height="56" viewBox="0 0 56 56" fill="none" xmlns="http://www.w3.org/2000/svg">
<path opacity="0.6" d="M43.9624 31.2916C43.9539 30.6805 43.611 29.9082 43.0508 29.3312C43.0104 29.2895 42.9682 29.2499 42.9257 29.2105C42.9081 29.1942 42.8903 29.1779 42.8725 29.162C42.8325 29.1267 42.792 29.0926 42.7503 29.0593C42.727 29.0407 42.7029 29.0233 42.6789 29.0053C42.6385 28.975 42.5982 28.9447 42.5563 28.9168C42.5059 28.8831 42.4536 28.8522 42.4011 28.8219C42.0622 28.6279 41.6825 28.5078 41.2729 28.5078C40.9899 28.5078 40.7006 28.5618 40.4164 28.6552C40.3601 28.6736 40.3046 28.6961 40.2487 28.7177C40.2141 28.731 40.1794 28.7433 40.1453 28.7577C40.0926 28.78 40.0409 28.8047 39.9888 28.8295C39.9524 28.8469 39.9157 28.8638 39.8797 28.8825C39.8297 28.9083 39.7806 28.9354 39.7315 28.9634C39.6946 28.9843 39.658 29.0055 39.6218 29.0275C39.5745 29.0561 39.528 29.0856 39.4818 29.1161C39.4451 29.1402 39.4096 29.165 39.3738 29.1902C39.3293 29.2213 39.2855 29.2527 39.2423 29.2853C39.2069 29.3122 39.1728 29.3399 39.1385 29.3677C39.0972 29.4011 39.0557 29.434 39.0159 29.4685C38.9826 29.4975 38.9513 29.5274 38.9191 29.557C38.8983 29.5763 38.8767 29.5949 38.8564 29.6144C38.8009 29.6676 38.7488 29.7222 38.6973 29.7771C38.6844 29.7908 38.6711 29.8044 38.6584 29.8181C38.6137 29.8673 38.5719 29.9171 38.5309 29.9672C38.5135 29.9884 38.4959 30.0096 38.4794 30.031C38.4436 30.077 38.4101 30.1229 38.3777 30.1691C38.3587 30.1962 38.3403 30.2233 38.3225 30.2506C38.2949 30.293 38.2685 30.3351 38.2439 30.3775C38.2248 30.4101 38.2077 30.4425 38.1905 30.4751C38.1706 30.5132 38.1507 30.5514 38.1335 30.5893C38.1162 30.6272 38.1018 30.6649 38.0872 30.7026C38.0745 30.7356 38.0607 30.7689 38.0501 30.8017C38.0357 30.8464 38.0255 30.8904 38.0156 30.9345C38.0096 30.9601 38.0016 30.9862 37.9974 31.0114C37.9855 31.0806 37.9785 31.1488 37.9785 31.2151C37.9785 31.3549 37.9982 31.4917 38.0355 31.6234C38.0541 31.6893 38.0772 31.7541 38.1045 31.8174C38.2138 32.0709 38.3902 32.3031 38.619 32.5032C38.6192 32.5032 38.6192 32.5034 38.6194 32.5034C38.6804 32.5568 38.7456 32.6074 38.8138 32.6559C38.8358 32.6716 38.8598 32.6857 38.8824 32.7008C38.9303 32.7328 38.9784 32.7641 39.0292 32.7938C39.0578 32.8105 39.0881 32.8255 39.1175 32.8414C39.1652 32.867 39.2135 32.892 39.2634 32.9153C39.2963 32.9306 39.3299 32.945 39.3636 32.9592C39.4134 32.9803 39.4638 33.0007 39.5155 33.0195C39.551 33.0327 39.587 33.0452 39.6235 33.057C39.6762 33.0744 39.73 33.0903 39.7844 33.1053C39.8217 33.1157 39.859 33.1258 39.8971 33.1352C39.9541 33.1489 40.0121 33.1606 40.0708 33.1716C40.108 33.1788 40.1451 33.1864 40.183 33.1923C40.2482 33.2027 40.3147 33.2099 40.3817 33.2169C40.4145 33.2203 40.4465 33.2252 40.4795 33.2277C40.5801 33.2356 40.682 33.2402 40.7855 33.2402C40.873 33.2402 40.9607 33.2368 41.0482 33.2317C41.0782 33.23 41.1081 33.2273 41.1382 33.225C41.1951 33.2205 41.2517 33.2154 41.3085 33.2089C41.3279 33.2068 41.3476 33.2057 41.3671 33.2034C41.3843 33.2012 41.4012 33.1976 41.4184 33.1953C41.4669 33.1885 41.5152 33.1807 41.5632 33.1726C41.6037 33.1659 41.6441 33.1597 41.6844 33.1519C41.7125 33.1464 41.7403 33.1394 41.7685 33.1335C41.8244 33.1216 41.8809 33.1106 41.9362 33.0968C41.9832 33.085 42.0287 33.0706 42.0749 33.0574C42.0955 33.0515 42.1162 33.046 42.1365 33.0399C42.1941 33.0227 42.2505 33.0041 42.3066 32.9848C42.3236 32.9789 42.3403 32.9729 42.357 32.967C42.4161 32.9458 42.4746 32.924 42.5315 32.9007C42.8494 32.7705 43.1362 32.6076 43.3668 32.4159C43.6735 32.1612 43.8836 31.8579 43.945 31.5211C43.9573 31.4538 43.9636 31.3852 43.9636 31.3151C43.9638 31.3076 43.9626 31.2994 43.9624 31.2916Z" fill="#F0C6B3"/>
<path d="M38.1797 30.7893C38.1797 31.908 39.4364 32.8149 40.9869 32.8149C42.5372 32.8149 44.1654 32.0084 44.1654 30.8897C44.1654 29.771 43.0245 28.082 41.4743 28.082C39.9238 28.082 38.1797 29.6707 38.1797 30.7893Z" fill="#FDE5D6"/>
<path d="M38.8242 29.427C38.9922 29.8294 39.3456 30.1073 39.7557 30.1073C40.3279 30.1073 40.7919 29.5672 40.7919 28.9009C40.7919 28.6519 40.7271 28.4206 40.6162 28.2285C39.9334 28.4528 39.2819 28.9096 38.8242 29.427Z" fill="#FFF0E6"/>
<path d="M42.4611 30.6966C42.6661 30.6966 42.8324 30.5096 42.8324 30.279C42.8324 30.0483 42.6661 29.8613 42.4611 29.8613C42.2561 29.8613 42.0898 30.0483 42.0898 30.279C42.0898 30.5096 42.2561 30.6966 42.4611 30.6966Z" fill="#FFF0E6"/>
<path d="M42.7331 32.4731C42.5421 31.9176 41.6775 31.498 40.6389 31.498C39.8687 31.498 39.1956 31.7295 38.8203 32.0752C39.3352 32.5254 40.1145 32.8126 40.9869 32.8126C41.5913 32.8128 42.2062 32.6889 42.7331 32.4731Z" fill="#FFF0E6"/>
<path d="M42.5735 28.375C42.4701 28.4544 42.4023 28.5754 42.4023 28.7128C42.4023 28.9519 42.6031 29.1459 42.8509 29.1459C43.028 29.1459 43.1796 29.0459 43.2525 28.9021C43.0519 28.6956 42.8244 28.5144 42.5735 28.375Z" fill="#FFF0E6"/>
<path opacity="0.35" d="M41.8222 31.515C40.2719 31.515 39.015 30.6082 39.015 29.4895C39.015 29.3923 39.0326 29.2906 39.0575 29.1875C38.5315 29.6924 38.1797 30.2873 38.1797 30.7886C38.1797 31.9073 39.4364 32.8142 40.9869 32.8142C42.5372 32.8142 44.1654 32.0077 44.1654 30.889C44.1654 30.8814 44.1642 30.8729 44.164 30.8653C43.5481 31.2704 42.6742 31.515 41.8222 31.515Z" fill="#FDE5D6"/>
<path opacity="0.6" d="M17.8844 33.2817C17.8808 33.0196 17.7338 32.6884 17.4935 32.441C17.4762 32.4231 17.4581 32.4061 17.4399 32.3892C17.4323 32.3822 17.4247 32.3753 17.4171 32.3684C17.3999 32.3533 17.3826 32.3386 17.3647 32.3244C17.3547 32.3164 17.3443 32.309 17.3341 32.3012C17.3167 32.2882 17.2995 32.2753 17.2815 32.2633C17.2599 32.2488 17.2374 32.2356 17.2149 32.2226C17.0696 32.1394 16.9067 32.0879 16.7311 32.0879C16.6098 32.0879 16.4857 32.1111 16.3638 32.1511C16.3397 32.159 16.3159 32.1686 16.2919 32.1779C16.2771 32.1836 16.2622 32.1889 16.2476 32.1951C16.2249 32.2046 16.2028 32.2152 16.1804 32.2258C16.1648 32.2333 16.1491 32.2406 16.1337 32.2486C16.1122 32.2596 16.0912 32.2713 16.0701 32.2832C16.0543 32.2922 16.0386 32.3013 16.023 32.3108C16.0028 32.323 15.9828 32.3357 15.963 32.3487C15.9473 32.3591 15.932 32.3697 15.9167 32.3805C15.8976 32.3939 15.8788 32.4073 15.8603 32.4213C15.8451 32.4328 15.8305 32.4447 15.8158 32.4566C15.7981 32.471 15.7803 32.4851 15.7632 32.4999C15.7489 32.5123 15.7355 32.5251 15.7217 32.5378C15.7128 32.5461 15.7035 32.5541 15.6948 32.5624C15.671 32.5852 15.6487 32.6087 15.6266 32.6322C15.6211 32.6381 15.6153 32.6439 15.6099 32.6498C15.5907 32.6709 15.5728 32.6922 15.5552 32.7137C15.5478 32.7228 15.5402 32.7319 15.5332 32.7411C15.5178 32.7608 15.5035 32.7805 15.4896 32.8003C15.4814 32.8119 15.4735 32.8235 15.4659 32.8353C15.454 32.8534 15.4427 32.8715 15.4322 32.8897C15.424 32.9037 15.4166 32.9175 15.4093 32.9315C15.4007 32.9479 15.3922 32.9642 15.3848 32.9805C15.3774 32.9967 15.3712 33.0129 15.365 33.0291C15.3595 33.0432 15.3536 33.0575 15.3491 33.0716C15.3429 33.0907 15.3385 33.1096 15.3343 33.1285C15.3317 33.1395 15.3283 33.1507 15.3264 33.1615C15.3214 33.1912 15.3184 33.2204 15.3184 33.2489C15.3184 33.3088 15.3268 33.3675 15.3428 33.424C15.3508 33.4522 15.3607 33.48 15.3724 33.5072C15.4193 33.6159 15.4949 33.7154 15.593 33.8012C15.5931 33.8012 15.5931 33.8013 15.5932 33.8013C15.6193 33.8242 15.6473 33.8459 15.6766 33.8667C15.686 33.8734 15.6963 33.8795 15.706 33.886C15.7265 33.8997 15.7471 33.9131 15.7689 33.9258C15.7812 33.933 15.7942 33.9395 15.8068 33.9463C15.8272 33.9573 15.8479 33.968 15.8694 33.978C15.8835 33.9845 15.8979 33.9907 15.9123 33.9968C15.9337 34.0059 15.9553 34.0146 15.9775 34.0227C15.9927 34.0283 16.0081 34.0337 16.0238 34.0387C16.0464 34.0462 16.0695 34.053 16.0928 34.0594C16.1088 34.0639 16.1248 34.0683 16.1411 34.0723C16.1655 34.0782 16.1904 34.0832 16.2156 34.0879C16.2316 34.091 16.2475 34.0942 16.2637 34.0968C16.2917 34.1012 16.3202 34.1043 16.3489 34.1073C16.363 34.1088 16.3767 34.1109 16.3909 34.1119C16.434 34.1153 16.4777 34.1173 16.5221 34.1173C16.5596 34.1173 16.5972 34.1158 16.6347 34.1137C16.6476 34.1129 16.6604 34.1118 16.6733 34.1108C16.6978 34.1089 16.722 34.1067 16.7463 34.1039C16.7547 34.103 16.7631 34.1025 16.7715 34.1015C16.7789 34.1006 16.7861 34.099 16.7935 34.098C16.8143 34.0951 16.835 34.0918 16.8556 34.0883C16.873 34.0854 16.8903 34.0828 16.9076 34.0794C16.9196 34.0771 16.9315 34.0741 16.9436 34.0715C16.9676 34.0664 16.9918 34.0617 17.0155 34.0558C17.0357 34.0507 17.0552 34.0446 17.075 34.0389C17.0838 34.0364 17.0927 34.034 17.1015 34.0314C17.1262 34.024 17.1503 34.016 17.1744 34.0078C17.1817 34.0052 17.1888 34.0027 17.196 34.0001C17.2213 33.9911 17.2464 33.9817 17.2708 33.9717C17.4072 33.9159 17.5301 33.846 17.629 33.7638C17.7606 33.6546 17.8506 33.5245 17.877 33.3801C17.8823 33.3512 17.885 33.3218 17.885 33.2917C17.8851 33.2886 17.8845 33.285 17.8844 33.2817Z" fill="#F0C6B3"/>
<path d="M15.4043 33.0672C15.4043 33.5469 15.9432 33.9358 16.6081 33.9358C17.273 33.9358 17.9712 33.59 17.9712 33.1103C17.9712 32.6306 17.4819 31.9062 16.8171 31.9062C16.1522 31.9062 15.4043 32.5875 15.4043 33.0672Z" fill="#FDE5D6"/>
<path d="M15.6816 32.4827C15.7537 32.6553 15.9052 32.7744 16.0811 32.7744C16.3265 32.7744 16.5255 32.5428 16.5255 32.2571C16.5255 32.1503 16.4977 32.0511 16.4501 31.9688C16.1573 32.0649 15.8779 32.2608 15.6816 32.4827Z" fill="#FFF0E6"/>
<path d="M17.2412 33.0262C17.3292 33.0262 17.4005 32.946 17.4005 32.8471C17.4005 32.7482 17.3292 32.668 17.2412 32.668C17.1533 32.668 17.082 32.7482 17.082 32.8471C17.082 32.946 17.1533 33.0262 17.2412 33.0262Z" fill="#FFF0E6"/>
<path d="M17.3576 33.7892C17.2757 33.551 16.905 33.3711 16.4596 33.3711C16.1293 33.3711 15.8406 33.4704 15.6797 33.6186C15.9005 33.8117 16.2347 33.9348 16.6088 33.9348C16.868 33.9349 17.1317 33.8818 17.3576 33.7892Z" fill="#FFF0E6"/>
<path d="M17.2882 32.0312C17.2439 32.0653 17.2148 32.1172 17.2148 32.1761C17.2148 32.2786 17.3009 32.3618 17.4072 32.3618C17.4831 32.3618 17.5482 32.319 17.5794 32.2573C17.4934 32.1688 17.3959 32.091 17.2882 32.0312Z" fill="#FFF0E6"/>
<path opacity="0.35" d="M16.9663 33.379C16.3015 33.379 15.7625 32.9901 15.7625 32.5104C15.7625 32.4687 15.77 32.4251 15.7808 32.3809C15.5552 32.5974 15.4043 32.8525 15.4043 33.0675C15.4043 33.5472 15.9432 33.9361 16.6081 33.9361C17.273 33.9361 17.9712 33.5902 17.9712 33.1105C17.9712 33.1073 17.9706 33.1036 17.9706 33.1003C17.7064 33.2741 17.3317 33.379 16.9663 33.379Z" fill="#FDE5D6"/>
<path opacity="0.6" d="M27.2607 24.4645C27.3149 24.3886 27.3703 24.3133 27.4194 24.2357C27.4833 24.1346 27.5392 24.0302 27.5952 23.9263C27.6345 23.8532 27.6785 23.7819 27.7139 23.7071C27.7966 23.5319 27.8697 23.3532 27.9285 23.17C28.0604 22.7625 28.1317 22.3361 28.1317 21.8943C28.1317 19.7903 27.0118 17.0408 25.207 15.1892C24.7144 14.684 24.1704 14.2462 23.5842 13.9061C23.5825 13.9049 23.5808 13.9038 23.5791 13.9032C23.3838 13.7902 23.1847 13.6886 22.9803 13.5984C22.321 13.3079 21.6178 13.1406 20.8787 13.1406C19.188 13.1406 17.4117 13.9523 15.8956 15.1492L15.8945 15.1498C15.7598 15.256 15.6279 15.3656 15.4978 15.4774C15.4755 15.4968 15.4539 15.5168 15.4316 15.5362C15.3283 15.6264 15.2267 15.7178 15.1268 15.8108C15.0914 15.8439 15.056 15.8776 15.0212 15.9112C14.9344 15.994 14.8494 16.0773 14.7655 16.1624C14.729 16.1989 14.693 16.236 14.6576 16.2731C14.5743 16.3599 14.4921 16.4478 14.411 16.5363C14.3796 16.5705 14.3482 16.6042 14.3174 16.639C14.2238 16.744 14.1325 16.8502 14.0434 16.9575C14.028 16.9758 14.012 16.994 13.9972 17.0123C13.8916 17.1407 13.7894 17.2703 13.6907 17.4016C13.6758 17.421 13.6621 17.441 13.6473 17.4609C13.5668 17.5694 13.4881 17.6784 13.4127 17.788C13.3847 17.8285 13.3585 17.8685 13.3316 17.909C13.2963 17.9621 13.2592 18.0152 13.2249 18.0683C13.2004 18.1059 13.1781 18.1442 13.1541 18.1824C13.1256 18.2275 13.0982 18.2732 13.0702 18.3188C13.0366 18.3742 13.0029 18.4296 12.9709 18.4855C12.9509 18.5198 12.9327 18.554 12.9133 18.5883C12.8887 18.6322 12.8636 18.6762 12.8396 18.7207C12.8071 18.7806 12.7763 18.8405 12.7455 18.9005C12.7238 18.9421 12.7032 18.9844 12.6827 19.0261C12.6672 19.0574 12.6507 19.0888 12.6359 19.1197C12.6022 19.1904 12.5714 19.2607 12.54 19.3314C12.5228 19.3708 12.5046 19.4096 12.488 19.449C12.4783 19.4718 12.4675 19.4952 12.4578 19.5181C12.4504 19.5369 12.4435 19.5552 12.4361 19.5746C12.3978 19.6688 12.3607 19.7629 12.3276 19.8571C12.3271 19.8583 12.3271 19.8588 12.3265 19.86C12.3202 19.8771 12.3156 19.8942 12.3094 19.9114C12.294 19.9553 12.2808 19.9992 12.2665 20.0432C12.2426 20.118 12.2186 20.1927 12.1975 20.2669C12.1912 20.2892 12.1849 20.3115 12.1792 20.3332C12.169 20.3714 12.1604 20.4097 12.1507 20.4479C12.1319 20.5227 12.1153 20.5969 12.0999 20.6711C12.0942 20.7002 12.0868 20.7299 12.0811 20.759C12.0759 20.7852 12.0725 20.8109 12.0679 20.8372C12.0536 20.9194 12.0434 21.0004 12.0337 21.0815C12.0297 21.1129 12.024 21.1454 12.0205 21.1762C12.0194 21.1894 12.0188 21.2025 12.0177 21.215C12.0069 21.3389 12 21.4616 12 21.5821C12 21.8132 12.0171 22.0404 12.0457 22.2647C12.0508 22.3012 12.0599 22.3366 12.0656 22.3732C12.0902 22.5347 12.1147 22.6962 12.1535 22.8544C12.161 22.884 12.1729 22.9126 12.1809 22.9423C12.1861 22.9622 12.1935 22.9811 12.1992 23.001C12.2557 23.2054 12.3236 23.4063 12.403 23.6027C12.4041 23.6055 12.4053 23.6084 12.4064 23.6106C12.4652 23.7551 12.524 23.9 12.5942 24.0393C12.6261 24.1021 12.6661 24.1615 12.7004 24.2237V24.2242C13.8996 26.3904 16.5184 27.8962 19.5647 27.8962C19.8107 27.8962 20.0573 27.8859 20.3039 27.8688C20.3849 27.863 20.4654 27.8528 20.5465 27.8453C20.712 27.8299 20.8769 27.814 21.0419 27.7911C21.1378 27.778 21.2325 27.7614 21.3279 27.746C21.4774 27.7215 21.6264 27.6952 21.7748 27.665C21.8741 27.6444 21.9723 27.6227 22.071 27.5993C22.2149 27.5662 22.357 27.5297 22.4986 27.4909C22.5962 27.4641 22.6932 27.4367 22.7902 27.4075C22.9312 27.3647 23.0705 27.3179 23.2092 27.27C23.3017 27.238 23.3941 27.2072 23.4854 27.1724C23.6316 27.1176 23.7737 27.0571 23.9158 26.9966C23.9946 26.9629 24.0751 26.9315 24.1521 26.8961C24.3616 26.8002 24.5671 26.6986 24.7657 26.5902C24.812 26.5651 24.8554 26.5365 24.9016 26.5108C25.0603 26.4212 25.2161 26.3293 25.3668 26.2317C25.4438 26.1815 25.5163 26.1278 25.5911 26.0759C25.7013 25.9994 25.8109 25.9224 25.9159 25.8419C25.9941 25.7814 26.0683 25.7186 26.1436 25.6558C26.2372 25.5776 26.3297 25.4988 26.4182 25.4172C26.4912 25.3498 26.5615 25.2808 26.6311 25.2111C26.7133 25.1284 26.7915 25.0439 26.868 24.9583C26.933 24.8852 26.9964 24.8122 27.0575 24.7374C27.1294 24.6483 27.1956 24.5564 27.2607 24.4645Z" fill="#F0C6B3"/>
<path d="M12.8242 20.4409C12.8242 23.929 16.2113 26.7561 20.3901 26.7561C24.5683 26.7561 28.9565 24.2412 28.9565 20.7537C28.9565 17.2661 25.8816 12 21.7034 12C17.5247 12 12.8242 16.9533 12.8242 20.4409Z" fill="#FDE5D6"/>
<path d="M15.5754 19.9621C15.5754 18.4911 14.9247 17.2611 14.0491 16.9277C13.2866 18.111 12.8242 19.3485 12.8242 20.4415C12.8242 21.3868 13.0799 22.2795 13.5251 23.0849C13.5417 23.0854 13.5577 23.0889 13.5742 23.0889C14.6799 23.0883 15.5754 21.6887 15.5754 19.9621Z" fill="#FFF0E5"/>
<path d="M19.2858 16.7499C19.7693 16.7499 20.1614 16.3206 20.1614 15.791C20.1614 15.2614 19.7693 14.832 19.2858 14.832C18.8022 14.832 18.4102 15.2614 18.4102 15.791C18.4102 16.3206 18.8022 16.7499 19.2858 16.7499Z" fill="#FFF0E5"/>
<path d="M23.8281 17.7539C22.0786 17.7539 20.6602 19.1723 20.6602 20.9218C20.6602 22.6713 22.0786 24.0897 23.8281 24.0897C25.5775 24.0897 26.9959 22.6713 26.9959 20.9218C26.9959 19.1723 25.5775 17.7539 23.8281 17.7539Z" fill="#FFF0E5"/>
<path d="M23.8035 12.459C23.4656 12.7033 23.2441 13.0771 23.2441 13.5018C23.2441 14.2387 23.8971 14.8358 24.7031 14.8358C25.2944 14.8358 25.8013 14.5127 26.0302 14.0503C25.3721 13.3745 24.6232 12.8203 23.8035 12.459Z" fill="#FFF0E5"/>
<path opacity="0.35" d="M23.2663 23.5027C19.0881 23.5027 15.7004 20.6756 15.7004 17.1875C15.7004 16.196 16.0811 15.0869 16.7204 14.0059C14.4904 15.7668 12.8242 18.3621 12.8242 20.4387C12.8242 23.9268 16.2113 26.7539 20.3901 26.7539C24.0391 26.7539 27.8457 24.8361 28.7527 22.0272C27.183 22.9559 25.2047 23.5027 23.2663 23.5027Z" fill="#FDE5D6"/>
<path opacity="0.6" d="M41.3418 21.2639C41.3714 21.2225 41.4015 21.1815 41.4283 21.1392C41.4631 21.0842 41.4936 21.0273 41.524 20.9707C41.5455 20.9309 41.5694 20.892 41.5887 20.8513C41.6338 20.7559 41.6736 20.6586 41.7056 20.5587C41.7774 20.3368 41.8163 20.1045 41.8163 19.8639C41.8163 18.7178 41.2063 17.2202 40.2232 16.2116C39.9549 15.9364 39.6586 15.6979 39.3393 15.5126C39.3383 15.512 39.3374 15.5114 39.3365 15.5111C39.2301 15.4495 39.1216 15.3942 39.0103 15.3451C38.6512 15.1868 38.2682 15.0957 37.8655 15.0957C36.9446 15.0957 35.9771 15.5378 35.1513 16.1898L35.1507 16.1901C35.0773 16.2479 35.0055 16.3076 34.9346 16.3686C34.9224 16.3791 34.9106 16.39 34.8985 16.4006C34.8422 16.4497 34.7869 16.4995 34.7325 16.5502C34.7132 16.5682 34.6939 16.5865 34.675 16.6049C34.6277 16.65 34.5814 16.6953 34.5357 16.7417C34.5158 16.7616 34.4962 16.7818 34.4769 16.802C34.4315 16.8493 34.3867 16.8971 34.3426 16.9453C34.3255 16.964 34.3084 16.9823 34.2916 17.0013C34.2406 17.0585 34.1909 17.1163 34.1424 17.1748C34.134 17.1847 34.1253 17.1947 34.1172 17.2046C34.0597 17.2746 34.004 17.3452 33.9502 17.4167C33.9421 17.4272 33.9347 17.4381 33.9266 17.449C33.8827 17.5081 33.8398 17.5675 33.7988 17.6272C33.7836 17.6492 33.7693 17.671 33.7546 17.6931C33.7354 17.722 33.7152 17.7509 33.6965 17.7798C33.6831 17.8003 33.671 17.8212 33.658 17.842C33.6424 17.8666 33.6275 17.8914 33.6123 17.9163C33.5939 17.9465 33.5756 17.9766 33.5582 18.0071C33.5473 18.0257 33.5373 18.0444 33.5268 18.0631C33.5134 18.087 33.4997 18.1109 33.4866 18.1352C33.4689 18.1678 33.4521 18.2005 33.4353 18.2331C33.4235 18.2558 33.4123 18.2788 33.4011 18.3015C33.3927 18.3186 33.3837 18.3357 33.3756 18.3525C33.3573 18.3911 33.3405 18.4293 33.3234 18.4679C33.3141 18.4893 33.3041 18.5105 33.2951 18.5319C33.2898 18.5443 33.2839 18.5571 33.2786 18.5695C33.2746 18.5798 33.2709 18.5897 33.2668 18.6003C33.246 18.6516 33.2258 18.7029 33.2078 18.7542C33.2075 18.7548 33.2074 18.7551 33.2071 18.7558C33.2037 18.7651 33.2012 18.7744 33.1978 18.7837C33.1894 18.8077 33.1823 18.8316 33.1745 18.8556C33.1614 18.8963 33.1484 18.937 33.1369 18.9774C33.1334 18.9896 33.13 19.0017 33.1269 19.0135C33.1213 19.0343 33.1167 19.0552 33.1114 19.076C33.1011 19.1167 33.0921 19.1571 33.0837 19.1976C33.0806 19.2134 33.0766 19.2296 33.0734 19.2454C33.0706 19.2597 33.0688 19.2737 33.0663 19.288C33.0585 19.3328 33.0529 19.377 33.0476 19.4211C33.0455 19.4382 33.0423 19.4559 33.0405 19.4727C33.0399 19.4799 33.0396 19.487 33.0389 19.4939C33.033 19.5613 33.0293 19.6282 33.0293 19.6938C33.0293 19.8197 33.0386 19.9434 33.0542 20.0656C33.057 20.0855 33.0619 20.1048 33.065 20.1247C33.0784 20.2127 33.0918 20.3007 33.1129 20.3868C33.117 20.403 33.1235 20.4185 33.1279 20.4347C33.1306 20.4456 33.1347 20.4558 33.1378 20.4667C33.1686 20.578 33.2056 20.6875 33.2488 20.7944C33.2494 20.796 33.25 20.7975 33.2507 20.7988C33.2827 20.8774 33.3147 20.9564 33.353 21.0323C33.3704 21.0665 33.3921 21.0988 33.4108 21.1327V21.133C34.064 22.3129 35.4905 23.1331 37.1498 23.1331C37.2838 23.1331 37.4181 23.1275 37.5525 23.1182C37.5966 23.1151 37.6404 23.1095 37.6846 23.1054C37.7747 23.097 37.8646 23.0883 37.9545 23.0759C38.0067 23.0687 38.0583 23.0597 38.1102 23.0513C38.1917 23.038 38.2728 23.0237 38.3537 23.0072C38.4078 22.996 38.4612 22.9842 38.515 22.9714C38.5934 22.9534 38.6708 22.9335 38.7479 22.9123C38.8011 22.8977 38.8539 22.8828 38.9068 22.867C38.9836 22.8436 39.0594 22.8181 39.135 22.792C39.1854 22.7746 39.2357 22.7578 39.2855 22.7389C39.3651 22.709 39.4425 22.6761 39.5199 22.6431C39.5628 22.6248 39.6066 22.6077 39.6486 22.5884C39.7627 22.5361 39.8747 22.4808 39.9828 22.4217C40.008 22.408 40.0317 22.3925 40.0568 22.3785C40.1433 22.3297 40.2282 22.2796 40.3102 22.2265C40.3522 22.1991 40.3917 22.1699 40.4324 22.1416C40.4924 22.0999 40.5521 22.058 40.6093 22.0141C40.6519 21.9812 40.6924 21.947 40.7334 21.9128C40.7844 21.8702 40.8347 21.8273 40.8829 21.7828C40.9227 21.7461 40.961 21.7085 40.9989 21.6706C41.0437 21.6255 41.0863 21.5795 41.1279 21.5328C41.1634 21.493 41.1979 21.4532 41.2312 21.4125C41.2703 21.364 41.3064 21.3139 41.3418 21.2639Z" fill="#F0C6B3"/>
<path d="M33.4746 19.0743C33.4746 20.9743 35.3196 22.5143 37.5958 22.5143C39.8716 22.5143 42.2619 21.1444 42.2619 19.2447C42.2619 17.345 40.587 14.4766 38.3112 14.4766C36.035 14.4766 33.4746 17.1747 33.4746 19.0743Z" fill="#FDE5D6"/>
<path d="M34.9732 18.811C34.9732 18.0098 34.6188 17.3398 34.1418 17.1582C33.7264 17.8027 33.4746 18.4768 33.4746 19.0722C33.4746 19.5871 33.6139 20.0733 33.8564 20.512C33.8654 20.5123 33.8741 20.5142 33.8831 20.5142C34.4854 20.5139 34.9732 19.7515 34.9732 18.811Z" fill="#FFF0E5"/>
<path d="M36.9926 17.0603C37.256 17.0603 37.4695 16.8264 37.4695 16.538C37.4695 16.2495 37.256 16.0156 36.9926 16.0156C36.7292 16.0156 36.5156 16.2495 36.5156 16.538C36.5156 16.8264 36.7292 17.0603 36.9926 17.0603Z" fill="#FFF0E5"/>
<path d="M39.4678 17.6055C38.5148 17.6055 37.7422 18.3781 37.7422 19.331C37.7422 20.284 38.5148 21.0566 39.4678 21.0566C40.4207 21.0566 41.1933 20.284 41.1933 19.331C41.1933 18.3781 40.4207 17.6055 39.4678 17.6055Z" fill="#FFF0E5"/>
<path d="M39.4531 14.7246C39.2691 14.8577 39.1484 15.0613 39.1484 15.2926C39.1484 15.694 39.5041 16.0192 39.9431 16.0192C40.2652 16.0192 40.5413 15.8433 40.666 15.5914C40.3075 15.2233 39.8996 14.9214 39.4531 14.7246Z" fill="#FFF0E5"/>
<path opacity="0.35" d="M39.1624 20.7452C36.8866 20.7452 35.0413 19.2053 35.0413 17.3053C35.0413 16.7652 35.2487 16.1611 35.5969 15.5723C34.3822 16.5314 33.4746 17.9451 33.4746 19.0762C33.4746 20.9762 35.3196 22.5162 37.5958 22.5162C39.5834 22.5162 41.6569 21.4715 42.1509 19.9415C41.2959 20.4474 40.2183 20.7452 39.1624 20.7452Z" fill="#FDE5D6"/>
<path opacity="0.6" d="M32.9077 40.5607C32.9512 40.4998 32.9956 40.4393 33.035 40.377C33.0863 40.2959 33.1312 40.2121 33.1761 40.1287C33.2077 40.0701 33.243 40.0129 33.2714 39.9528C33.3378 39.8122 33.3965 39.6688 33.4437 39.5218C33.5495 39.1947 33.6067 38.8525 33.6067 38.4979C33.6067 36.8094 32.708 34.6028 31.2595 33.1167C30.8641 32.7113 30.4276 32.36 29.9571 32.087C29.9557 32.086 29.9544 32.0851 29.953 32.0847C29.7963 31.994 29.6365 31.9124 29.4725 31.84C28.9434 31.6069 28.379 31.4727 27.7858 31.4727C26.4289 31.4727 25.0033 32.1241 23.7866 33.0847L23.7857 33.0851C23.6776 33.1703 23.5718 33.2583 23.4673 33.3481C23.4495 33.3637 23.4321 33.3797 23.4142 33.3953C23.3313 33.4676 23.2497 33.5409 23.1696 33.6156C23.1412 33.6422 23.1128 33.6692 23.0848 33.6962C23.0152 33.7627 22.9469 33.8295 22.8796 33.8978C22.8503 33.9271 22.8214 33.9569 22.793 33.9867C22.7262 34.0563 22.6602 34.1268 22.5951 34.1978C22.5699 34.2253 22.5447 34.2524 22.52 34.2803C22.4449 34.3646 22.3716 34.4498 22.3001 34.5359C22.2877 34.5506 22.2749 34.5652 22.263 34.5799C22.1783 34.683 22.0963 34.7869 22.017 34.8923C22.0051 34.9079 21.9941 34.9239 21.9822 34.94C21.9176 35.027 21.8544 35.1145 21.7939 35.2024C21.7715 35.235 21.7504 35.267 21.7289 35.2996C21.7005 35.3422 21.6707 35.3848 21.6432 35.4274C21.6235 35.4576 21.6057 35.4883 21.5864 35.519C21.5635 35.5552 21.5415 35.5918 21.5191 35.6285C21.4921 35.6729 21.465 35.7173 21.4394 35.7622C21.4233 35.7897 21.4087 35.8172 21.3931 35.8447C21.3734 35.88 21.3532 35.9152 21.334 35.951C21.3079 35.9991 21.2832 36.0472 21.2584 36.0953C21.241 36.1287 21.2245 36.1626 21.208 36.196C21.1957 36.2212 21.1824 36.2464 21.1705 36.2712C21.1434 36.328 21.1187 36.3843 21.0935 36.4411C21.0798 36.4727 21.0651 36.5039 21.0518 36.5355C21.044 36.5538 21.0353 36.5726 21.0275 36.5909C21.0216 36.606 21.0161 36.6207 21.0101 36.6363C20.9794 36.7118 20.9497 36.7874 20.9231 36.863C20.9226 36.8639 20.9226 36.8644 20.9222 36.8653C20.9171 36.8791 20.9135 36.8928 20.9084 36.9065C20.8961 36.9418 20.8855 36.9771 20.8741 37.0123C20.8548 37.0724 20.8356 37.1324 20.8186 37.1919C20.8136 37.2098 20.8086 37.2277 20.804 37.2451C20.7957 37.2758 20.7889 37.3065 20.7811 37.3371C20.766 37.3972 20.7527 37.4567 20.7403 37.5163C20.7357 37.5396 20.7298 37.5634 20.7252 37.5868C20.7211 37.6079 20.7183 37.6285 20.7147 37.6496C20.7032 37.7155 20.695 37.7806 20.6872 37.8456C20.684 37.8708 20.6794 37.8969 20.6766 37.9217C20.6757 37.9322 20.6753 37.9427 20.6744 37.9528C20.6657 38.0522 20.6602 38.1507 20.6602 38.2474C20.6602 38.4329 20.6739 38.6152 20.6968 38.7952C20.7009 38.8246 20.7083 38.853 20.7128 38.8823C20.7325 39.0119 20.7522 39.1416 20.7834 39.2685C20.7893 39.2923 20.799 39.3152 20.8054 39.339C20.8095 39.355 20.8154 39.3701 20.82 39.3862C20.8654 39.5502 20.9199 39.7114 20.9836 39.869C20.9845 39.8713 20.9854 39.8736 20.9863 39.8754C21.0335 39.9913 21.0807 40.1077 21.137 40.2195C21.1627 40.2698 21.1947 40.3175 21.2222 40.3674V40.3679C22.1847 42.1063 24.2864 43.3148 26.7312 43.3148C26.9287 43.3148 27.1266 43.3065 27.3245 43.2928C27.3895 43.2882 27.4541 43.28 27.5192 43.274C27.652 43.2616 27.7844 43.2488 27.9168 43.2305C27.9937 43.2199 28.0698 43.2067 28.1463 43.1943C28.2663 43.1746 28.3859 43.1535 28.505 43.1293C28.5847 43.1128 28.6635 43.0953 28.7427 43.0766C28.8582 43.05 28.9722 43.0207 29.0858 42.9895C29.1642 42.968 29.242 42.946 29.3199 42.9226C29.4331 42.8883 29.5448 42.8507 29.6562 42.8123C29.7304 42.7866 29.8046 42.7619 29.8779 42.7339C29.9951 42.6899 30.1092 42.6414 30.2233 42.5928C30.2865 42.5658 30.3511 42.5406 30.4129 42.5122C30.581 42.4352 30.746 42.3537 30.9054 42.2667C30.9425 42.2465 30.9773 42.2236 31.0144 42.203C31.1417 42.1311 31.2668 42.0573 31.3877 41.979C31.4496 41.9387 31.5078 41.8956 31.5678 41.8539C31.6562 41.7925 31.7441 41.7307 31.8284 41.6661C31.8912 41.6176 31.9507 41.5672 32.0112 41.5168C32.0863 41.454 32.1605 41.3908 32.2315 41.3253C32.2902 41.2712 32.3465 41.2158 32.4024 41.1599C32.4684 41.0935 32.5311 41.0257 32.5925 40.957C32.6447 40.8983 32.6956 40.8397 32.7446 40.7797C32.8023 40.7082 32.8555 40.6345 32.9077 40.5607Z" fill="#F0C6B3"/>
<path d="M21.3164 37.3309C21.3164 40.1303 24.0347 42.3992 27.3884 42.3992C30.7416 42.3992 34.2634 40.3809 34.2634 37.5819C34.2634 34.783 31.7957 30.5566 28.4425 30.5566C25.0888 30.5566 21.3164 34.532 21.3164 37.3309Z" fill="#FDE5D6"/>
<path d="M23.5244 36.9469C23.5244 35.7664 23.0022 34.7792 22.2995 34.5117C21.6875 35.4613 21.3164 36.4545 21.3164 37.3317C21.3164 38.0903 21.5216 38.8068 21.8789 39.4532C21.8922 39.4536 21.9051 39.4564 21.9183 39.4564C22.8057 39.4559 23.5244 38.3327 23.5244 36.9469Z" fill="#FFF0E5"/>
<path d="M26.5016 34.3654C26.8897 34.3654 27.2043 34.0208 27.2043 33.5958C27.2043 33.1707 26.8897 32.8262 26.5016 32.8262C26.1135 32.8262 25.7988 33.1707 25.7988 33.5958C25.7988 34.0208 26.1135 34.3654 26.5016 34.3654Z" fill="#FFF0E5"/>
<path d="M30.1459 35.1699C28.7419 35.1699 27.6035 36.3083 27.6035 37.7123C27.6035 39.1164 28.7419 40.2547 30.1459 40.2547C31.55 40.2547 32.6883 39.1164 32.6883 37.7123C32.6883 36.3083 31.55 35.1699 30.1459 35.1699Z" fill="#FFF0E5"/>
<path d="M30.1267 30.9238C29.8555 31.1199 29.6777 31.4199 29.6777 31.7608C29.6777 32.3522 30.2018 32.8313 30.8486 32.8313C31.3232 32.8313 31.73 32.572 31.9137 32.201C31.3855 31.6586 30.7845 31.2138 30.1267 30.9238Z" fill="#FFF0E5"/>
<path opacity="0.35" d="M29.6967 39.7897C26.3435 39.7897 23.6247 37.5208 23.6247 34.7214C23.6247 33.9257 23.9303 33.0356 24.4433 32.168C22.6536 33.5812 21.3164 35.6641 21.3164 37.3307C21.3164 40.1301 24.0347 42.399 27.3884 42.399C30.317 42.399 33.372 40.8598 34.0999 38.6055C32.8402 39.3508 31.2524 39.7897 29.6967 39.7897Z" fill="#FDE5D6"/>
</svg>
