<svg width="56" height="56" viewBox="0 0 56 56" fill="none" xmlns="http://www.w3.org/2000/svg">
<path d="M12.2227 26.0869C13.6042 24.619 15.716 23.9977 17.7507 23.9387C19.7849 23.8798 21.7954 24.3149 23.8026 24.6471C25.8098 24.9798 27.8858 25.2084 29.8649 24.7435C31.5686 24.3436 33.2222 23.4331 34.9583 23.6611C36.9374 23.9211 38.3976 25.5835 39.4563 27.2464C40.9265 29.5576 41.9901 32.6042 40.531 34.9221C39.312 36.8588 36.6907 37.5434 34.3948 37.23C32.099 36.9172 30.0098 35.81 27.899 34.8686C25.7883 33.9273 23.4864 33.1226 21.195 33.4679C19.9198 33.6602 18.7306 34.1989 17.504 34.5916C16.2773 34.9843 14.9316 35.2305 13.7083 34.8295C10.5906 33.8067 10.2618 28.1707 12.2232 26.0864L12.2227 26.0869Z" fill="url(#paint0_linear_11560_29083)"/>
<path d="M39.9336 16.4301C40.8188 16.5744 41.6423 16.9594 42.4366 17.3687C43.0138 17.6661 43.5977 17.9906 44.0086 18.4874C44.4195 18.9842 44.6239 19.6964 44.3534 20.2786C44.0802 20.8664 43.4242 21.1682 42.8194 21.4227C41.6985 21.8937 40.528 22.3745 39.3107 22.3106C35.1288 22.0909 35.3354 15.6804 39.9336 16.4301Z" fill="url(#paint1_linear_11560_29083)"/>
<path d="M20.1556 39.5768C22.8226 40.4019 24.4999 36.7659 21.7061 35.9981C19.2082 35.3112 17.2335 38.6729 20.1556 39.5768Z" fill="url(#paint2_linear_11560_29083)"/>
<path d="M12.2014 25.5225C13.5586 24.0545 15.6335 23.4332 17.6319 23.3743C19.6303 23.3153 21.6055 23.7505 23.5769 24.0826C25.5483 24.4153 27.588 24.6439 29.5324 24.179C31.2058 23.7791 32.8307 22.8686 34.536 23.0967C36.4804 23.3567 37.9147 25.019 38.9547 26.682C40.3989 28.9932 41.4438 32.0398 40.0106 34.3576C38.8131 36.2943 36.2381 36.979 33.9824 36.6656C31.7268 36.3527 29.6745 35.2455 27.6012 34.3042C25.5279 33.3628 23.2662 32.5581 21.0156 32.9035C19.763 33.0957 18.5942 33.6344 17.3896 34.0271C16.1849 34.4199 14.8629 34.6661 13.6605 34.2645C10.5979 33.2417 10.2746 27.6057 12.2019 25.5214L12.2014 25.5225Z" fill="url(#paint3_linear_11560_29083)"/>
<path opacity="0.42" d="M34.8714 30.6096C34.6764 30.6096 34.4808 30.5964 34.2908 30.5699C32.9253 30.3804 31.469 29.6985 29.9261 28.9769C29.5818 28.8161 29.226 28.6492 28.8663 28.4862C27.0277 27.6517 24.5787 26.6932 21.9376 26.6932C21.3906 26.6932 20.8458 26.734 20.3193 26.815C19.0975 27.0028 18.0334 27.3911 17.0948 27.7343C16.7599 27.8566 16.4437 27.9723 16.144 28.0697C15.591 28.2504 15.1471 28.3418 14.8254 28.3418C14.7681 28.3418 14.7218 28.3385 14.6866 28.3347C14.5577 28.1485 14.3462 27.6456 14.3071 26.8915C14.2608 26.0009 14.4811 25.3696 14.5946 25.2049C15.1625 24.6034 16.2707 24.2223 17.5663 24.1843C17.6544 24.1815 17.7453 24.1804 17.8362 24.1804C19.0628 24.1804 20.3903 24.4162 21.796 24.6651C22.1331 24.7252 22.4818 24.7869 22.8316 24.8458C24.0263 25.0474 25.4524 25.2534 26.9677 25.2534C28.1161 25.2534 29.1643 25.1366 30.1712 24.8959C30.8449 24.7351 31.4717 24.5236 32.0253 24.3374C32.7028 24.1088 33.404 23.873 33.8149 23.873C33.8502 23.873 33.881 23.8747 33.9085 23.8786C34.0352 23.8956 34.7238 24.0708 35.8441 25.8637C36.8879 27.5343 37.3187 29.1841 36.8912 29.8753C36.6235 30.3083 35.7934 30.6107 34.873 30.6107L34.8714 30.6096Z" fill="white"/>
<path d="M39.6043 16.0609C40.4735 16.2053 41.2826 16.5903 42.0631 16.9995C42.6305 17.297 43.2039 17.6214 43.6076 18.1182C44.0114 18.6151 44.2124 19.3273 43.9464 19.9095C43.6781 20.4972 43.0331 20.7991 42.4393 21.0536C41.3382 21.5245 40.1881 22.0054 38.9923 21.9415C34.8843 21.7217 35.087 15.3113 39.6048 16.0609H39.6043Z" fill="url(#paint4_linear_11560_29083)"/>
<path opacity="0.42" d="M38.8336 19.852C38.7813 19.852 38.7295 19.8503 38.6783 19.8481C37.1861 19.7682 36.8198 18.5614 36.8386 17.8607C36.8457 17.5864 36.9614 16.2188 38.5202 16.2188C38.6833 16.2188 38.8579 16.2342 39.0391 16.2639C39.7733 16.3856 40.5136 16.7519 41.1504 17.0857C41.623 17.3336 42.0691 17.5831 42.3341 17.9098C42.5065 18.1218 42.5687 18.3818 42.5186 18.4914C42.4211 18.7046 41.8725 18.9392 41.6087 19.0522C40.7323 19.4273 39.7386 19.8525 38.8336 19.8525V19.852Z" fill="#FFFDEA"/>
<path d="M19.9953 39.0104C22.615 39.8355 24.2631 36.1995 21.5183 35.4317C19.0644 34.7448 17.1244 38.1065 19.9953 39.0104Z" fill="url(#paint5_linear_11560_29083)"/>
<path opacity="0.42" d="M20.3619 37.1307C20.2308 37.1307 20.0925 37.1082 19.9499 37.063C19.6733 36.976 19.464 36.8531 19.3765 36.7264C19.3467 36.684 19.3153 36.6196 19.3335 36.5017C19.388 36.147 19.8457 35.6523 20.4676 35.6523C20.5811 35.6523 20.6973 35.6689 20.8135 35.7014C21.4365 35.8754 21.3963 36.169 21.3787 36.2946C21.3324 36.6317 20.9771 37.1307 20.3613 37.1307H20.3619Z" fill="#FFFDEA"/>
<defs>
<linearGradient id="paint0_linear_11560_29083" x1="26.1133" y1="23.6248" x2="26.1133" y2="37.3033" gradientUnits="userSpaceOnUse">
<stop stop-color="#FFFDCD"/>
<stop offset="0.36" stop-color="#FAF58C"/>
</linearGradient>
<linearGradient id="paint1_linear_11560_29083" x1="40.399" y1="16.369" x2="40.399" y2="22.3165" gradientUnits="userSpaceOnUse">
<stop stop-color="#FFFDCD"/>
<stop offset="0.36" stop-color="#FAF58C"/>
</linearGradient>
<linearGradient id="paint2_linear_11560_29083" x1="20.9233" y1="35.9062" x2="20.9233" y2="39.6979" gradientUnits="userSpaceOnUse">
<stop stop-color="#FFFDCD"/>
<stop offset="0.36" stop-color="#FAF58C"/>
</linearGradient>
<linearGradient id="paint3_linear_11560_29083" x1="25.8474" y1="23.0603" x2="25.8474" y2="36.7388" gradientUnits="userSpaceOnUse">
<stop stop-color="#FFFEDA"/>
<stop offset="1" stop-color="#EBE794"/>
</linearGradient>
<linearGradient id="paint4_linear_11560_29083" x1="40.0618" y1="15.9999" x2="40.0618" y2="21.9474" gradientUnits="userSpaceOnUse">
<stop stop-color="#FFFEDA"/>
<stop offset="1" stop-color="#EBE794"/>
</linearGradient>
<linearGradient id="paint5_linear_11560_29083" x1="20.7495" y1="35.3398" x2="20.7495" y2="39.1315" gradientUnits="userSpaceOnUse">
<stop stop-color="#FFFEDA"/>
<stop offset="1" stop-color="#EBE794"/>
</linearGradient>
</defs>
</svg>
