<svg width="20" height="20" viewBox="0 0 20 20" fill="none" xmlns="http://www.w3.org/2000/svg">
<mask id="mask0_50171_62590" style="mask-type:alpha" maskUnits="userSpaceOnUse" x="0" y="0" width="20" height="20">
<rect width="20" height="20" fill="#D9D9D9"/>
</mask>
<g mask="url(#mask0_50171_62590)">
<path d="M5.83341 19.1668C5.37508 19.1668 4.98272 19.0036 4.65633 18.6772C4.32994 18.3509 4.16675 17.9585 4.16675 17.5002V2.50016C4.16675 2.04183 4.32994 1.64947 4.65633 1.32308C4.98272 0.996691 5.37508 0.833496 5.83341 0.833496H14.1667C14.6251 0.833496 15.0174 0.996691 15.3438 1.32308C15.6702 1.64947 15.8334 2.04183 15.8334 2.50016V5.0835C16.0834 5.18072 16.2848 5.3335 16.4376 5.54183C16.5904 5.75016 16.6667 5.98627 16.6667 6.25016V7.91683C16.6667 8.18072 16.5904 8.41683 16.4376 8.62516C16.2848 8.8335 16.0834 8.98627 15.8334 9.0835V17.5002C15.8334 17.9585 15.6702 18.3509 15.3438 18.6772C15.0174 19.0036 14.6251 19.1668 14.1667 19.1668H5.83341ZM5.83341 17.5002H14.1667V2.50016H5.83341V17.5002ZM10.8334 10.3335V11.6668C10.8334 11.9029 10.9133 12.1009 11.073 12.2606C11.2327 12.4203 11.4306 12.5002 11.6667 12.5002C11.9029 12.5002 12.1008 12.4203 12.2605 12.2606C12.4202 12.1009 12.5001 11.9029 12.5001 11.6668V8.3335C12.5001 8.09739 12.4202 7.89947 12.2605 7.73975C12.1008 7.58002 11.9029 7.50016 11.6667 7.50016H8.33341C8.0973 7.50016 7.89939 7.58002 7.73966 7.73975C7.57994 7.89947 7.50008 8.09739 7.50008 8.3335C7.50008 8.56961 7.57994 8.76752 7.73966 8.92725C7.89939 9.08697 8.0973 9.16683 8.33341 9.16683H9.66675L7.66675 11.146C7.50008 11.3127 7.41675 11.5106 7.41675 11.7397C7.41675 11.9689 7.50008 12.1668 7.66675 12.3335C7.83341 12.5002 8.03133 12.5835 8.2605 12.5835C8.48966 12.5835 8.68758 12.5002 8.85425 12.3335L10.8334 10.3335Z" fill="#5B595C"/>
</g>
</svg>
