<svg width="20" height="20" viewBox="0 0 20 20" fill="none" xmlns="http://www.w3.org/2000/svg">
<mask id="mask0_50178_55850" style="mask-type:alpha" maskUnits="userSpaceOnUse" x="0" y="0" width="20" height="20">
<rect width="20" height="20" fill="#D9D9D9"/>
</mask>
<g mask="url(#mask0_50178_55850)">
<path d="M9.16862 10.8333V13.3333C9.16862 13.5694 9.24848 13.7674 9.4082 13.9271C9.56793 14.0868 9.76584 14.1667 10.002 14.1667C10.2381 14.1667 10.436 14.0868 10.5957 13.9271C10.7554 13.7674 10.8353 13.5694 10.8353 13.3333V10.8333H13.3353C13.5714 10.8333 13.7693 10.7535 13.929 10.5938C14.0888 10.434 14.1686 10.2361 14.1686 10C14.1686 9.76389 14.0888 9.56597 13.929 9.40625C13.7693 9.24653 13.5714 9.16667 13.3353 9.16667H10.8353V6.66667C10.8353 6.43056 10.7554 6.23264 10.5957 6.07292C10.436 5.91319 10.2381 5.83333 10.002 5.83333C9.76584 5.83333 9.56793 5.91319 9.4082 6.07292C9.24848 6.23264 9.16862 6.43056 9.16862 6.66667V9.16667H6.66862C6.43251 9.16667 6.23459 9.24653 6.07487 9.40625C5.91515 9.56597 5.83529 9.76389 5.83529 10C5.83529 10.2361 5.91515 10.434 6.07487 10.5938C6.23459 10.7535 6.43251 10.8333 6.66862 10.8333H9.16862ZM4.16862 17.5C3.71029 17.5 3.31793 17.3368 2.99154 17.0104C2.66515 16.684 2.50195 16.2917 2.50195 15.8333V4.16667C2.50195 3.70833 2.66515 3.31597 2.99154 2.98958C3.31793 2.66319 3.71029 2.5 4.16862 2.5H15.8353C16.2936 2.5 16.686 2.66319 17.0124 2.98958C17.3388 3.31597 17.502 3.70833 17.502 4.16667V15.8333C17.502 16.2917 17.3388 16.684 17.0124 17.0104C16.686 17.3368 16.2936 17.5 15.8353 17.5H4.16862ZM4.16862 15.8333H15.8353V4.16667H4.16862V15.8333Z" fill="#5B595C"/>
</g>
</svg>
