<svg width="" height="" viewBox="0 0 37 36" fill="none" xmlns="http://www.w3.org/2000/svg">
<path d="M16.1217 12.4925L6.07543 22.5388C3.96971 24.6445 3.96971 28.0586 6.07543 30.1643C8.18116 32.27 11.5952 32.27 13.7009 30.1643L23.7472 20.118C24.8188 19.0464 24.8188 17.309 23.7472 16.2375L20.0023 12.4925C18.9307 11.4209 17.1933 11.4209 16.1217 12.4925Z" stroke="" stroke-width="2" stroke-linejoin="round"/>
<path d="M16.2227 17.3812L13.5582 20.0457C12.8303 20.7736 12.8303 21.9538 13.5582 22.6817C14.2861 23.4097 15.4663 23.4097 16.1942 22.6817L18.8587 20.0172C19.5867 19.2893 19.5867 18.1091 18.8587 17.3812C18.1308 16.6533 16.9506 16.6533 16.2227 17.3812Z" stroke="" stroke-width="2" stroke-linejoin="round"/>
<path d="M22.599 9.38024L19.3947 11.8854L24.3562 16.8469L26.8614 13.6426L22.599 9.38024Z" stroke="" stroke-width="2" stroke-linejoin="round"/>
<path d="M26.0941 12.8737L23.3677 10.1473L29.0402 4.4748L31.7666 7.20117L26.0941 12.8737Z" stroke="" stroke-width="2" stroke-linejoin="round"/>
</svg>
