<svg viewBox="0 0 37 49" fill="none" xmlns="http://www.w3.org/2000/svg">
<path d="M24.5086 37.913L20.0518 38.8365C19.8215 38.8844 19.672 39.1116 19.7199 39.3419L21.2183 46.5739C21.4596 47.7383 22.6095 48.4931 23.7739 48.2522L24.8345 48.0326C25.999 47.7913 26.7537 46.6414 26.5128 45.4774L25.0144 38.2454C24.9665 38.0151 24.7393 37.8656 24.5091 37.9135L24.5086 37.913Z" fill="#C24D31"/>
<path d="M23.6766 39.4663L21.4234 39.9332C21.3068 39.9571 21.2402 40.1143 21.2748 40.2822C21.2748 40.2822 22.3649 45.5425 22.3666 45.5507C22.5502 46.437 23.4353 47.1828 24.3494 46.739C25.0025 46.422 25.1806 45.6583 25.0431 44.9958L23.9513 39.7273C23.9167 39.5595 23.7928 39.442 23.6766 39.4663Z" fill="white"/>
<path d="M16.5706 0.0884248C13.994 0.329337 11.4695 1.04738 9.24494 2.16993C4.08967 4.7717 0.331175 9.99061 0.0274719 16.0553C-0.458197 25.7597 5.53899 36.6593 14.5779 39.9859C19.4478 41.7783 24.7407 40.8996 28.802 37.9113C29.778 37.1847 30.6511 36.3415 31.4243 35.4073C38.0656 27.3829 37.905 12.3327 30.3871 4.6333C26.7615 0.919654 21.4734 -0.369907 16.5701 0.0884248H16.5706Z" fill="#14BBEF"/>
<path d="M16.5706 0.0884248C13.994 0.329337 11.4695 1.04738 9.24494 2.16993C4.08967 4.7717 0.331175 9.99061 0.0274719 16.0553C-0.458197 25.7597 5.53899 36.6593 14.5779 39.9859C19.4478 41.7783 24.7407 40.8996 28.802 37.9113C29.778 37.1847 30.6511 36.3415 31.4243 35.4073C38.0656 27.3829 37.905 12.3327 30.3871 4.6333C26.7615 0.919654 21.4738 -0.369907 16.5706 0.0884248Z" fill="#E05938"/>
<path d="M13.8253 39.6882C14.7039 39.0009 15.6496 38.3987 16.6479 37.8946C18.8725 36.7721 21.3969 36.054 23.9735 35.8131C26.172 35.6077 28.4475 35.7537 30.6161 36.312C30.8967 36.0211 31.1667 35.7196 31.4247 35.4073C38.066 27.3829 37.9054 12.3327 30.3876 4.6333C26.7619 0.919655 21.4738 -0.369907 16.5706 0.0884248C13.994 0.329337 11.4695 1.04738 9.24494 2.16993C4.08966 4.7717 0.331169 9.99061 0.0274657 16.0553C-0.444535 25.4876 5.20794 36.0489 13.8248 39.6882H13.8253Z" fill="#C24D31"/>
<path d="M28.3097 6.82851C27.8459 6.35737 27.2389 6.01137 26.4269 5.86657C25.7866 5.75252 25.1343 5.76448 24.4816 5.83923C23.8524 5.91099 23.2228 6.04042 22.603 6.16985C17.8698 7.15699 13.1365 8.14456 8.40285 9.13171C7.39221 9.34229 6.35253 9.56483 5.49353 10.1214C4.11725 11.0129 3.4556 12.6967 3.76742 14.205C4.50553 17.7738 5.24877 21.3418 5.9886 24.9106C6.79036 28.7785 9.79023 29.5166 13.5291 28.7221C17.7151 27.8323 21.9012 26.943 26.0877 26.0532C28.4815 25.5445 31.7586 24.7692 32.0699 21.9945C32.1669 21.1308 31.9935 20.2692 31.8209 19.4222C31.3455 17.0899 30.8705 14.7577 30.3951 12.4255C30.0077 10.5234 29.7595 8.30261 28.3089 6.82808L28.3097 6.82851Z" fill="#702D1C"/>
<path d="M18.8873 31.2026L17.0971 32.798C16.8703 33 16.9472 33.3721 17.236 33.4674L19.5127 34.22C19.801 34.3152 20.0846 34.0628 20.0231 33.7651L19.5366 31.417C19.4751 31.1197 19.1146 31.0006 18.8877 31.2026H18.8873Z" fill="#FCB3A8"/>
<path d="M22.9919 33.4985L24.7821 31.9031C25.0089 31.7011 24.932 31.329 24.6433 31.2338L22.3666 30.4811C22.0783 30.3859 21.7946 30.6383 21.8561 30.936L22.3427 33.2841C22.4042 33.5814 22.7647 33.7006 22.9915 33.4985H22.9919Z" fill="#FCB3A8"/>
<path d="M11.2289 15.1137L12.9862 22.7294C13.1011 23.227 12.7905 23.7238 12.2792 23.8421C11.7679 23.9604 11.2878 23.6601 11.1695 23.1488L9.91241 17.6992C9.65142 18.0431 9.14012 18.161 8.73561 17.9423C8.33708 17.7509 8.10642 17.1807 8.34946 16.6993L9.25929 14.9305C9.4041 14.6985 9.62152 14.5353 9.86371 14.4794L10.1059 14.4234C10.6172 14.3055 11.114 14.6161 11.2289 15.1137Z" fill="#FEE8E6"/>
<path d="M19.7605 22.117L14.9166 23.2344C14.4053 23.3523 13.9086 23.0417 13.7907 22.5304C13.5331 21.4139 13.1201 19.6241 15.4625 17.7374C16.6351 16.8006 16.8837 16.4034 16.7782 15.9459C16.6291 15.3001 15.9721 14.9699 15.1379 15.1621C14.6672 15.2706 14.4083 15.5004 14.2934 15.9241C14.1764 16.277 14.2076 16.596 14.2076 16.596C14.2533 17.039 13.9385 17.5793 13.3849 17.6362C12.9586 17.6917 12.4379 17.4012 12.3345 16.8297C12.1338 15.1612 13.1149 13.7021 14.7163 13.3326C16.5462 12.9106 18.2373 13.8525 18.6222 15.5209C18.9263 16.8395 18.3727 17.8177 16.6389 19.2093C15.7786 19.9039 15.4373 20.4502 15.4672 21.1943L19.3423 20.3003C19.8536 20.1824 20.3504 20.4929 20.4653 20.9906C20.5832 21.5019 20.2727 21.9986 19.7614 22.1165L19.7605 22.117Z" fill="#FEE8E6"/>
<path d="M24.1944 21.0915C23.6831 21.2094 23.1864 20.8988 23.0685 20.3875C22.5367 17.9596 22.7229 15.4505 23.5977 13.2225L20.4898 13.9397C19.9921 14.0546 19.4984 13.7577 19.3805 13.2464C19.2626 12.7351 19.5731 12.2384 20.0707 12.1235L25.1431 10.9531C25.5468 10.86 25.9359 11.0112 26.141 11.3465C26.3695 11.6621 26.3447 12.1072 26.1077 12.431C24.8138 14.3165 24.3064 17.339 24.9048 19.9928C24.9928 20.4969 24.6925 20.977 24.1949 21.0919L24.1944 21.0915Z" fill="#FEE8E6"/>
</svg>
