<svg width="" height="" viewBox="0 0 49 50" fill="none" xmlns="http://www.w3.org/2000/svg">
<path d="M21.9702 18.4049C21.9702 23.8556 21.3439 23.425 25.1016 23.425V27.6035C25.1016 28.7582 24.1622 29.6878 23.0173 29.6878H14.6603C12.4291 29.6878 10.3643 28.494 9.23897 26.5564C8.10383 24.6286 8.3974 24.9124 8.3974 6.73052C8.38761 3.47187 10.8634 0.751438 14.1025 0.467651C14.5624 0.467651 23.1151 0.467651 23.0075 0.467651C24.1622 0.467651 25.0919 1.40708 25.0919 2.55201V6.73052C21.6375 6.7403 18.8388 9.54881 18.8388 13.0032C18.8486 15.2343 20.0424 17.2893 21.9702 18.4049Z" fill="#435E74"/>
<path d="M16.2361 28.122C14.0049 28.122 11.9401 26.9282 10.8148 24.9906C9.67964 23.0628 9.97322 23.3466 9.97322 5.16471C9.983 3.88278 10.3744 2.63999 11.0986 1.58313C10.2081 2.2192 9.49371 3.06078 9.01421 4.04913C8.1335 4.92985 8.4075 8.57993 8.4075 23.4347C8.4075 26.889 11.216 29.6975 14.6704 29.6975H23.0176C24.006 29.7269 24.8867 29.0419 25.102 28.0829C24.7007 28.1416 25.2487 28.122 16.2361 28.122Z" fill="#526F87"/>
<path d="M21.5293 7.85594C22.5764 7.12201 23.8192 6.73058 25.1011 6.73058V5.37036C23.6528 5.74222 22.3807 6.62293 21.5293 7.85594Z" fill="#374F68"/>
<path d="M14.6648 29.6879H2.13905C0.984332 29.6879 0.0546875 28.7484 0.0546875 27.6035V2.55202C0.0546875 1.3973 0.994118 0.46766 2.13905 0.46766C20.3503 0.46766 13.7841 0.0664448 11.7095 1.21138C7.35484 3.59909 8.40192 6.77946 8.40192 23.425C8.40192 26.8891 11.2104 29.6879 14.6648 29.6879Z" fill="#324C61"/>
<path d="M12.0986 0.467773C11.8441 0.741774 11.6289 1.04513 11.4331 1.36806C9.55428 2.50321 8.40935 4.53864 8.39957 6.73064C8.39957 25.0006 8.30171 23.9927 8.654 25.1767C9.2705 28.3082 12.8325 27.6134 4.23085 27.6134C3.07613 27.6134 2.14648 26.674 2.14648 25.529V0.477559H12.0986V0.467773Z" fill="#435E74"/>
<path d="M14.6672 29.688H8.97195C8.30652 29.1106 7.77809 28.3963 7.41602 27.6036H10.019C11.1933 28.9247 12.8862 29.688 14.6672 29.688Z" fill="#324C61"/>
<path d="M7.41089 27.6043C6.5791 25.8135 6.83353 26.2245 6.83353 8.29704C6.83353 6.25182 7.84146 4.3436 9.51482 3.16931C8.94725 4.0011 8.59496 4.9601 8.46775 5.95825C8.39925 6.58453 8.39925 23.6019 8.39925 24.0619C8.87875 28.3186 12.2157 27.6043 7.41089 27.6043Z" fill="#324C61"/>
<path d="M31.3675 12.9932C31.3675 16.4475 28.5688 19.256 25.1145 19.2658C21.6601 19.2756 18.8516 16.4671 18.8418 13.0127C18.8418 10.8207 19.9769 8.79509 21.846 7.65994C24.8013 5.85937 28.6569 6.7988 30.4477 9.75409C31.0446 10.7229 31.3675 11.8385 31.3675 12.9932Z" fill="#DAD7E5"/>
<path d="M31.368 12.9939C31.368 14.2367 30.7711 16.1254 30.3209 16.3211C24.8116 19.5797 18.4411 13.1896 21.8465 7.65091C24.8018 5.85033 28.6574 6.78977 30.4481 9.74506C31.0451 10.7236 31.368 11.8392 31.368 12.9939Z" fill="#EDEBF2"/>
<path d="M28.2345 18.4052C28.2345 21.8889 28.5965 23.4252 27.1874 23.4252C21.0615 23.4252 21.9716 24.2962 21.9716 18.4052C23.9092 19.5305 26.2969 19.5305 28.2345 18.4052Z" fill="#526F87"/>
<path d="M27.1822 22.3201V23.4259C21.3205 23.4259 21.9664 24.0522 21.9664 19.9324C22.8569 20.2553 23.8159 20.3629 24.7651 20.2553C25.9002 20.0694 26.9767 20.8424 27.1626 21.9776C27.1724 22.095 27.1822 22.2124 27.1822 22.3201Z" fill="#526F87"/>
<path d="M25.0979 14.031C24.5205 14.031 24.0508 13.5711 24.0508 12.9937C24.0508 12.71 24.1584 12.4457 24.3639 12.25L26.4483 10.1657C26.8593 9.75467 27.5247 9.75467 27.9259 10.1657C28.3369 10.5767 28.3369 11.2421 27.9259 11.6433C25.6459 13.9234 25.6556 14.031 25.0979 14.031Z" fill="#435E74"/>
<path d="M28.2359 49.5236C23.6268 49.5236 19.8887 45.7855 19.8887 41.1764V33.8665C19.8887 33.2891 20.3584 32.8194 20.9357 32.8194C21.5131 32.8194 21.9828 33.2891 21.9828 33.8665V41.1764C21.9828 44.6308 24.7913 47.4393 28.2457 47.4393C31.7001 47.4393 34.5086 44.6308 34.5086 41.1764V15.0779C34.5086 12.1911 36.8473 9.86206 39.7244 9.86206C42.6014 9.86206 44.9401 12.2009 44.9401 15.0779C44.9401 15.6552 44.4704 16.1249 43.8931 16.1249C43.3157 16.1249 42.846 15.6552 42.846 15.0779C42.846 10.8993 36.5831 10.8993 36.5831 15.0779V41.1764C36.5831 45.7855 32.845 49.5236 28.2359 49.5236Z" fill="#435E74"/>
<path d="M20.926 34.9145V42.2244C20.926 45.6788 23.7345 48.4873 27.1986 48.4775C29.1166 48.4775 30.9172 47.5968 32.1111 46.0898C29.3906 48.2328 25.4568 47.7631 23.3137 45.0427C22.4428 43.9369 21.9731 42.5767 21.9731 41.1773V33.8674C21.9731 33.29 21.5033 32.8203 20.926 32.8203C20.3486 32.8203 19.8789 33.29 19.8789 33.8674C20.4563 33.8674 20.926 34.3371 20.926 34.9145Z" fill="#526F87"/>
<path d="M39.7117 9.86206C38.0677 9.86206 36.5216 10.6351 35.5332 11.9464C37.8426 10.2143 41.1111 10.6841 42.8431 12.9935C43.5184 13.8938 43.8902 14.9996 43.8902 16.1249C46.2682 16.1249 44.5654 9.86206 39.7117 9.86206Z" fill="#526F87"/>
<path d="M35.5333 16.1255C35.5333 44.4062 36.1792 44.4747 33.5859 47.5768C35.4844 45.9915 36.5804 43.6527 36.5804 41.1769C36.5804 12.8277 36.3847 14.5402 37.0501 13.4637C36.1204 14.0215 35.5431 15.0295 35.5333 16.1255Z" fill="#435E74"/>
<path d="M45.9833 17.1631C45.9833 22.4474 46.4237 19.2475 43.899 19.2475C41.3743 19.2475 41.8146 22.4767 41.8146 17.1631C41.8146 16.0084 42.754 15.0787 43.899 15.0787C45.0439 15.0787 45.9833 16.0182 45.9833 17.1631Z" fill="#C4455E"/>
<path d="M45.981 17.1621C45.981 19.5596 46.2257 17.6807 44.2 18.3168C43.652 18.4832 43.0649 18.17 42.8985 17.622C42.8594 17.5046 42.8496 17.3872 42.8496 17.2697C42.8496 16.0661 42.8496 15.7627 43.0355 15.2734C44.0826 14.8037 45.3254 15.2734 45.7951 16.3205C45.9125 16.5945 45.981 16.8783 45.981 17.1621Z" fill="#DB5669"/>
<path d="M48.063 26.5573C48.063 29.6398 46.693 33.8672 43.8845 33.8672C39.9115 33.8672 38.2088 25.0503 41.3206 20.8131C44.3053 16.8303 48.063 20.9305 48.063 26.5573Z" fill="#DB5669"/>
<path d="M47.5086 30.2165C46.9606 31.1266 46.0016 31.7137 44.9447 31.7822C40.3063 31.7822 38.858 19.2565 43.8976 19.2565C47.5281 19.2565 48.8884 26.0282 47.5086 30.2165Z" fill="#F26674"/>
<path d="M23.0078 29.6886V32.82C23.0078 33.3974 22.5381 33.8671 21.9607 33.8671C18.3008 33.8671 18.8293 34.2194 18.8293 29.6886H23.0078Z" fill="#526F87"/>
<path d="M23.0103 29.6886V32.82C21.2783 32.82 19.8789 31.4207 19.8789 29.6886H23.0103Z" fill="#526F87"/>
</svg>
