<svg width="" height="" viewBox="0 0 37 37" fill="none" xmlns="http://www.w3.org/2000/svg">
<rect width="36" height="36" transform="translate(0.769531 0.525391)" fill="white"/>
<path d="M23.2812 6.92188C25.7888 7.91465 27.8989 9.70677 29.2845 12.0205C30.6702 14.3343 31.2539 17.0404 30.9454 19.7197" stroke="#F24F7A" stroke-width="2" stroke-linecap="round" stroke-linejoin="round"/>
<path d="M6.51367 18.3155C6.51367 15.6186 7.40321 12.997 9.04442 10.8569C10.6856 8.71689 12.9869 7.17792 15.5915 6.47852" stroke="#F24F7A" stroke-width="2" stroke-linecap="round" stroke-linejoin="round"/>
<path d="M24.3907 29.2049L24.8494 30.0935H24.8494L24.3907 29.2049ZM18.2561 30.5593L18.298 29.5602L18.2561 30.5593ZM29.887 25.5336C30.1878 25.0705 30.0562 24.4511 29.593 24.1503C29.1298 23.8495 28.5105 23.9812 28.2097 24.4444L29.887 25.5336ZM28.2953 26.0257L27.5181 25.3965L27.5181 25.3965L28.2953 26.0257ZM8.84908 23.6329C8.58809 23.1462 7.98195 22.9632 7.49522 23.2242C7.00849 23.4851 6.82549 24.0913 7.08647 24.578L8.84908 23.6329ZM23.9321 28.3163C22.194 29.2134 20.2522 29.6421 18.298 29.5602L18.2142 31.5584C20.5156 31.6549 22.8025 31.15 24.8494 30.0935L23.9321 28.3163ZM28.2097 24.4444C27.9953 24.7745 27.7644 25.0922 27.5181 25.3965L29.0725 26.6549C29.3626 26.2966 29.6346 25.9224 29.887 25.5336L28.2097 24.4444ZM27.5181 25.3965C26.5404 26.6041 25.3203 27.5998 23.9321 28.3163L24.8494 30.0935C26.4843 29.2497 27.9211 28.0772 29.0725 26.6549L27.5181 25.3965ZM18.298 29.5602C17.9164 29.5442 17.5369 29.5089 17.161 29.4546L16.8752 31.4341C17.318 31.498 17.7649 31.5396 18.2142 31.5584L18.298 29.5602ZM12.4646 27.6387C10.9541 26.6174 9.71253 25.2433 8.84908 23.6329L7.08647 24.578C8.10334 26.4745 9.56547 28.0928 11.3444 29.2956L12.4646 27.6387Z" fill="#F24F7A"/>
<circle cx="14.3524" cy="28.9833" r="3.11216" stroke="#F24F7A" stroke-width="2" stroke-linecap="round" stroke-linejoin="round"/>
</svg>
