<svg width="" height="" viewBox="0 0 24 24" fill="none" xmlns="http://www.w3.org/2000/svg">
<path d="M20.2674 8.48505L20.9729 12.5648C21.1492 13.5838 20.3655 14.5158 19.3326 14.5158H14.1515C13.638 14.5158 13.247 14.9767 13.3301 15.484L13.9927 19.5286C14.1004 20.1857 14.0697 20.858 13.9025 21.5025C13.764 22.0364 13.3521 22.465 12.8104 22.6391L12.6654 22.6856C12.338 22.7908 11.9807 22.7663 11.672 22.6176C11.3322 22.4539 11.0837 22.1553 10.9916 21.8001L10.5158 19.9663C10.3645 19.3828 10.144 18.8195 9.85974 18.2874C9.44439 17.5098 8.80221 16.8875 8.13467 16.3123L6.69593 15.0725C6.29028 14.7229 6.07724 14.1994 6.1234 13.6656L6.93556 4.27293C7.01006 3.41139 7.73036 2.75 8.59414 2.75H13.2428C16.7241 2.75 19.6951 5.17561 20.2674 8.48505Z" fill=""/>
<path fill-rule="evenodd" clip-rule="evenodd" d="M2.96767 15.2651C3.36893 15.2824 3.71261 14.9806 3.74721 14.5804L4.71881 3.34389C4.78122 2.6221 4.21268 2 3.48671 2C2.80289 2 2.25 2.55474 2.25 3.23726V14.5158C2.25 14.9174 2.5664 15.2478 2.96767 15.2651Z" fill=""/>
</svg>
