<svg width="" height="" viewBox="0 0 24 25" fill="none" xmlns="http://www.w3.org/2000/svg">
<path fill-rule="evenodd" clip-rule="evenodd" d="M12.4382 21.87C12.2931 21.9166 12.1345 21.9053 11.9998 21.8404C11.8523 21.7693 11.7548 21.6452 11.7197 21.5102L11.244 19.6764C11.0777 19.035 10.8354 18.4165 10.5235 17.8324C10.0392 16.9258 9.30632 16.2284 8.62647 15.6426L7.18773 14.4028C6.96475 14.2106 6.8474 13.9226 6.87282 13.6286L7.68498 4.23598C7.72601 3.76146 8.12244 3.39844 8.59635 3.39844H13.245C16.3813 3.39844 19.0238 5.5807 19.5306 8.51129L20.2361 12.5911C20.3332 13.1525 19.9014 13.6642 19.3348 13.6642H14.1537C13.1766 13.6642 12.4344 14.5409 12.5921 15.5037L13.2548 19.5483C13.3456 20.1023 13.3197 20.6692 13.1787 21.2126C13.1072 21.4884 12.8896 21.725 12.5832 21.8235L12.4382 21.87L12.6676 22.5841L12.4382 21.87ZM11.3486 23.1917C11.8312 23.4242 12.3873 23.4619 12.897 23.2981L13.042 23.2516L12.8126 22.5375L13.042 23.2516C13.819 23.002 14.4252 22.3812 14.6307 21.5892C14.8241 20.8437 14.8596 20.0659 14.7351 19.3058L14.0724 15.2612C14.0639 15.2094 14.1038 15.1642 14.1537 15.1642H19.3348C20.8341 15.1642 21.9695 13.8119 21.7142 12.3354L21.0087 8.25568C20.3708 4.56739 17.0712 1.89844 13.245 1.89844H8.59635C7.3427 1.89844 6.29852 2.85819 6.19056 4.10676L5.3784 13.4994C5.31149 14.2731 5.62022 15.0321 6.20855 15.5391L7.64729 16.7789C8.3025 17.3435 8.85404 17.8908 9.20042 18.5392C9.45699 19.0195 9.65573 19.5274 9.79208 20.053L10.2678 21.8869C10.417 22.4622 10.8166 22.9353 11.3486 23.1917ZM2.96767 15.1635C3.36893 15.1809 3.71261 14.879 3.74721 14.4788L4.71881 3.24233C4.78122 2.52053 4.21268 1.89844 3.48671 1.89844C2.80289 1.89844 2.25 2.45318 2.25 3.1357V14.4142C2.25 14.8159 2.5664 15.1462 2.96767 15.1635Z" fill=""/>
</svg>
