<svg width="" height="" viewBox="0 0 37 36" fill="none" xmlns="http://www.w3.org/2000/svg">
<path d="M24.0739 20.1823C24.1118 21.9439 23.339 23.8417 21.9568 24.6382L20.0564 25.7333C18.5777 26.5854 17.3982 27.8175 16.6058 29.3379L15.9292 30.6362C15.2912 31.8603 13.9083 32.4393 12.3545 32.1328C11.0969 31.8847 9.86095 31.2037 8.86981 30.2126L5.94814 27.2909C4.957 26.2997 4.27595 25.0638 4.0279 23.8062C3.72142 22.2523 4.30036 20.8695 5.52446 20.2315L6.8228 19.5549C8.34316 18.7625 9.57524 17.583 10.4274 16.1043L11.5225 14.2039C12.3189 12.8217 14.2168 12.0489 15.9784 12.0868" stroke="#F24F7A" stroke-width="2" stroke-linecap="round" stroke-linejoin="round"/>
<rect x="17.6533" y="8.13672" width="14.6582" height="3.9772" rx="1.9886" transform="rotate(45 17.6533 8.13672)" stroke="#F24F7A" stroke-width="2" stroke-linecap="round" stroke-linejoin="round"/>
<path d="M18.1473 8.88299C18.6628 8.36748 21.5605 7.37308 23.0534 7.88141C23.625 8.07605 24.293 8.03548 24.6529 7.6755L25.6055 6.72298C26.7401 5.58839 28.5126 5.52143 29.5646 6.57343C30.6166 7.62543 30.5497 9.39804 29.4151 10.5326L28.4626 11.4852C28.1026 11.8451 28.062 12.5131 28.2567 13.0847C28.765 14.5776 27.7706 17.4753 27.2551 17.9908" stroke="#F24F7A" stroke-width="2" stroke-linecap="round" stroke-linejoin="round"/>
</svg>
