<svg viewBox="0 0 28 29" fill="none" xmlns="http://www.w3.org/2000/svg">
<path d="M18.8975 11.0225C20.1032 11.2957 21.2485 11.9014 22.1862 12.8395C24.2592 14.9121 24.7078 17.9835 23.5455 20.4952C23.3962 20.8661 24.0615 23.2666 23.5407 23.7875C23.0199 24.3077 20.6197 23.643 20.2489 23.7923C17.7368 24.954 14.6665 24.5061 12.5942 22.4328C11.9741 21.8126 11.499 21.1018 11.1691 20.3429" stroke="" stroke-width="1.5" stroke-linecap="round" stroke-linejoin="round"/>
<path fill-rule="evenodd" clip-rule="evenodd" d="M16.7955 18.1315C14.4741 20.4539 11.0348 20.9557 8.22088 19.6543C7.80548 19.4871 5.11681 20.2317 4.53341 19.649C3.95001 19.0655 4.69529 16.3765 4.52806 15.961C3.22611 13.1475 3.72856 9.70694 6.0507 7.38526C9.01503 4.41976 13.8311 4.41976 16.7955 7.38526C19.7659 10.3553 19.7598 15.1667 16.7955 18.1315Z" stroke="" stroke-width="1.5" stroke-linecap="round" stroke-linejoin="round"/>
</svg>
