<svg viewBox="0 0 28 29" fill="none" xmlns="http://www.w3.org/2000/svg">
<path d="M18.7306 17.7952C21.3322 16.1269 24.3772 12.8952 24.3772 9.40691C24.3772 6.95691 22.4989 4.96191 20.1772 4.96191C19.5122 4.96191 18.8472 5.13691 18.2522 5.46358C17.6456 5.79025 17.1322 6.26858 16.7472 6.85191C15.9889 5.70858 14.7406 4.96191 13.3172 4.96191C11.0072 4.96191 9.12891 6.95691 9.12891 9.40691C9.12891 9.94358 9.19891 10.4802 9.33891 11.0052" stroke="" stroke-width="1.5" stroke-linecap="round" stroke-linejoin="round"/>
<path d="M14.9864 10.7603C17.3664 10.7603 19.303 12.7436 19.303 15.2053C19.303 19.6503 14.2047 23.6869 11.463 24.6203C8.72138 23.6753 3.62305 19.6386 3.62305 15.2053C3.62305 12.7553 5.54804 10.7603 7.93971 10.7603C9.39804 10.7603 10.6814 11.5069 11.463 12.6503C11.8597 12.0669 12.3847 11.5886 13.003 11.2619C13.6214 10.9353 14.298 10.7603 14.9864 10.7603Z" stroke="" stroke-width="1.5" stroke-linecap="round" stroke-linejoin="round"/>
</svg>
