<svg viewBox="0 0 28 29" fill="none" xmlns="http://www.w3.org/2000/svg">
<circle cx="11.5202" cy="6.87909" r="1.15888" fill="#7E7E7E"/>
<circle cx="6.94013" cy="6.87909" r="1.15888" fill="#7E7E7E"/>
<path d="M11.5894 7.25107C12.5106 6.45846 15.4209 6.77989 14.9866 9.69482C14.4438 13.3385 11.515 17.808 9.22656 17.808" stroke="" stroke-width="1.5"/>
<path d="M6.86373 7.25107C5.94256 6.45846 3.03222 6.77989 3.46651 9.69482C4.00937 13.3385 6.9381 17.808 9.22656 17.808" stroke="" stroke-width="1.5"/>
<path d="M9.22664 17.5604C9.2235 19.6608 9.9199 23.8615 12.7307 23.8615C15.5415 23.8615 16.0021 20.3801 16.5767 17.8005C16.987 15.959 17.668 13.8374 19.7594 13.8374C20.7911 13.8374 22.3092 14.6036 22.3092 17.8009" stroke="" stroke-width="1.5"/>
<circle cx="22.3101" cy="20.0772" r="2.26715" stroke="" stroke-width="1.5"/>
</svg>
