<svg viewBox="0 0 22 20" fill="none" xmlns="http://www.w3.org/2000/svg">
<path d="M7.96173 16.9111L8.42605 16.3221L7.96173 16.9111ZM11 3.50088L10.4596 4.02098C10.601 4.16787 10.7961 4.25088 11 4.25088C11.2039 4.25088 11.399 4.16787 11.5404 4.02098L11 3.50088ZM14.0383 16.9111L14.5026 17.5001L14.0383 16.9111ZM7.96173 16.9111L8.42605 16.3221C6.91039 15.1273 5.25307 13.9605 3.93829 12.48C2.64922 11.0285 1.75 9.33474 1.75 7.13734H1H0.25C0.25 9.80287 1.3605 11.8363 2.81672 13.476C4.24723 15.0868 6.07077 16.3755 7.49742 17.5001L7.96173 16.9111ZM1 7.13734H1.75C1.75 4.98647 2.96537 3.18277 4.62436 2.42444C6.23607 1.68772 8.40166 1.88282 10.4596 4.02098L11 3.50088L11.5404 2.98078C9.0985 0.443765 6.26409 0.0256307 4.00076 1.0602C1.78471 2.07317 0.25 4.42527 0.25 7.13734H1ZM7.96173 16.9111L7.49742 17.5001C8.00965 17.9039 8.55954 18.3345 9.11682 18.6602C9.67386 18.9857 10.3096 19.2502 11 19.2502V18.5002V17.7502C10.6904 17.7502 10.3261 17.6295 9.87361 17.3651C9.42132 17.1008 8.95208 16.7368 8.42605 16.3221L7.96173 16.9111ZM14.0383 16.9111L14.5026 17.5001C15.9292 16.3755 17.7528 15.0868 19.1833 13.476C20.6395 11.8363 21.75 9.80287 21.75 7.13734H21H20.25C20.25 9.33474 19.3508 11.0285 18.0617 12.48C16.7469 13.9605 15.0896 15.1273 13.574 16.3221L14.0383 16.9111ZM21 7.13734H21.75C21.75 4.42527 20.2153 2.07317 17.9992 1.0602C15.7359 0.0256307 12.9015 0.443765 10.4596 2.98078L11 3.50088L11.5404 4.02098C13.5983 1.88282 15.7639 1.68772 17.3756 2.42444C19.0346 3.18277 20.25 4.98647 20.25 7.13734H21ZM14.0383 16.9111L13.574 16.3221C13.0479 16.7368 12.5787 17.1008 12.1264 17.3651C11.6739 17.6295 11.3096 17.7502 11 17.7502V18.5002V19.2502C11.6904 19.2502 12.3261 18.9857 12.8832 18.6602C13.4405 18.3345 13.9903 17.9039 14.5026 17.5001L14.0383 16.9111Z" fill=""/>
</svg>
