<svg width="" height="" viewBox="0 0 24 24" fill="none" xmlns="http://www.w3.org/2000/svg">
<rect width="24" height="24" rx="12" fill="#FFECE6"/>
<path fill-rule="evenodd" clip-rule="evenodd" d="M12.0054 7.80549C11.9375 7.80549 11.8729 7.77347 11.8281 7.71763L11.5345 7.35125C11.191 6.92132 10.7754 6.58432 10.2994 6.34956C9.82922 6.1176 9.32918 6 8.81326 6L8.79523 6.00005L8.78411 6.00003C8.18959 6.00005 7.59775 6.16093 7.07256 6.46527C5.94833 7.11621 5.25 8.35568 5.25 9.69998C5.24974 10.0854 5.30768 10.4656 5.42225 10.83L5.42384 10.8362C5.54809 11.4217 5.8088 12.0663 6.19921 12.7537C6.2203 12.7909 6.25983 12.8137 6.30254 12.8137H7.97762C8.02134 12.8137 8.06157 12.7898 8.08252 12.7514L8.63812 11.7336C8.68816 11.643 8.75859 11.5672 8.84193 11.514C8.92475 11.4612 9.01907 11.4315 9.11484 11.4281C9.12893 11.4267 9.14332 11.426 9.1576 11.426C9.34123 11.426 9.5216 11.5382 9.62835 11.7188L10.2949 12.8391C10.347 12.9268 10.4781 12.913 10.5108 12.8163L11.4585 10.0164C11.4999 9.89347 11.5737 9.78882 11.6721 9.71383C11.7705 9.63886 11.8858 9.59924 12.0057 9.59924C12.1256 9.59924 12.241 9.63886 12.3393 9.71383C12.4377 9.78882 12.5115 9.89347 12.5529 10.0165L13.4797 12.7343C13.4962 12.7827 13.5417 12.8152 13.5928 12.8152H15.1256C15.1981 12.8152 15.2663 12.8461 15.3176 12.9021C15.3688 12.9582 15.397 13.0327 15.397 13.1119C15.397 13.1911 15.3688 13.2656 15.3176 13.3217C15.2663 13.3777 15.1981 13.4086 15.1256 13.4086H13.3187C13.263 13.4085 13.2095 13.3902 13.1638 13.3554C13.1182 13.3207 13.0838 13.2722 13.0644 13.2153L12.044 10.2226C12.0409 10.2134 12.0358 10.2061 12.029 10.2009C12.0154 10.1905 11.9965 10.1904 11.9827 10.2009C11.976 10.2061 11.9709 10.2134 11.968 10.222L10.751 13.8245C10.7333 13.8764 10.7029 13.9218 10.6629 13.9557C10.6229 13.9896 10.5751 14.0106 10.5248 14.0164L10.5227 14.0166C10.5129 14.0173 10.503 14.0174 10.4932 14.0167C10.449 14.0162 10.4051 14.0036 10.3662 13.9804C10.3269 13.957 10.2932 13.9229 10.2687 13.8818L9.17492 12.0405C9.1691 12.0307 9.16087 12.0231 9.15122 12.0187L9.14466 12.0186C9.14221 12.0186 9.13976 12.0185 9.13731 12.0183C9.13127 12.0187 9.12541 12.0206 9.12021 12.0238C9.1145 12.0274 9.10968 12.0326 9.10634 12.0388L8.43572 13.2646C8.41165 13.3086 8.37738 13.3452 8.33662 13.3704C8.29593 13.3956 8.2496 13.409 8.20276 13.409H6.82354C6.72826 13.409 6.67149 13.5148 6.7255 13.5933C7.45276 14.6504 8.42337 15.7227 9.42813 16.574C10.482 17.4669 11.4437 18 12.0009 18C12.3386 18 12.8764 17.7689 13.5153 17.3492C14.1587 16.9264 14.8813 16.3269 15.5499 15.6609C17.1592 14.0579 18.2548 12.321 18.5557 10.8953L18.5575 10.8887C18.6805 10.5054 18.7453 10.1052 18.75 9.69919C18.75 8.35627 18.0516 7.1168 16.9274 6.46527C16.412 6.16914 15.8308 6.01426 15.248 6.01843C14.1672 6.01843 13.1294 6.51654 12.4715 7.35087L12.1841 7.71593C12.1392 7.77285 12.0741 7.80549 12.0054 7.80549Z" fill="#FF895D"/>
<rect x="0.5625" y="0.5625" width="22.875" height="22.875" rx="11.4375" stroke="white" stroke-width="1.125"/>
</svg>
