<svg viewBox="0 0 71 29" fill="none" xmlns="http://www.w3.org/2000/svg">
<path d="M16.5797 15.3562C16.8235 15.3562 16.921 15.8941 16.921 16.9211C16.921 17.8992 16.8235 18.3882 16.5797 18.3882H13.215C13.0199 21.078 11.5082 22.6918 10.9718 23.2297C9.4114 24.7947 7.70467 25.0392 5.12019 25.0392H4.19367L2.92582 22.4962H5.12019C6.97322 22.4962 8.43613 22.0561 9.11883 21.4692C9.5577 21.1269 10.4842 20.051 10.3379 18.3882H6.82692C4.4375 18.3882 2.682 17.8992 1.6092 16.9211C0.536395 15.943 0 14.3781 0 12.2264C0 10.7592 0.292588 9.48774 0.82899 8.36295C1.41415 7.23816 2.19436 6.35791 3.2184 5.72215C4.24243 5.0864 5.41278 4.79297 6.68064 4.79297C8.72872 4.79297 10.3379 5.47763 11.5082 6.84694C12.6786 8.21625 13.2637 10.0746 13.2637 12.422V15.3562H16.5797ZM2.92582 12.0797C2.92582 12.911 3.07211 13.5468 3.31593 14.0358C3.55975 14.5249 3.99861 14.8672 4.58377 15.0628C5.16894 15.3073 5.99792 15.4051 7.02196 15.4051H10.3379V12.6665C10.3379 11.0527 9.99657 9.83009 9.36264 8.99872C8.72872 8.16735 7.75342 7.77612 6.53432 7.77612C5.46152 7.77612 4.58378 8.16734 3.94985 8.9498C3.26716 9.73226 2.92582 10.7593 2.92582 12.0797Z" fill="#EC407A"/>
<path d="M21.9924 15.4044C22.2362 15.4044 22.1875 15.8934 22.1875 16.9204C22.1875 17.5561 22.1387 17.9474 22.0899 18.143C22.0412 18.3386 22.0899 18.3875 21.9924 18.3875H16.4821C16.2383 18.3875 16.2383 17.8984 16.2383 16.9204C16.2383 16.2846 16.2871 15.8934 16.3358 15.6489C16.3846 15.4533 16.4821 15.3555 16.5796 15.3555L21.9924 15.4044Z" fill="#EC407A"/>
<path d="M17.8477 25.1351L18.3353 22.3476H22.6753V25.1351H17.8477ZM26.04 15.4032C26.9665 15.4032 27.6979 15.1098 28.2343 14.6697C28.7707 14.1807 29.0633 13.5449 29.0633 12.7624V8.50781L31.9891 9.48589V12.6646C31.9891 13.5449 32.233 14.1807 32.7206 14.6697C33.2082 15.1098 33.8909 15.3544 34.8174 15.3544H35.7927C36.0365 15.3544 36.1341 15.8434 36.1341 16.8704C36.1341 17.8973 36.0365 18.3864 35.7927 18.3864H34.7199C33.6471 18.3864 32.7694 18.2397 32.0867 17.8973C31.404 17.555 30.8676 17.0171 30.5262 16.3324C30.1361 17.0171 29.551 17.555 28.8195 17.8973C28.088 18.2397 27.1615 18.3864 26.1375 18.3864H21.9438C21.7 18.3864 21.6025 17.8973 21.6025 16.9193C21.6025 16.3324 21.6512 15.8923 21.7 15.6967C21.7488 15.501 21.8463 15.4032 21.9438 15.4032H26.04ZM21.3587 28.9985L20.871 26.211H24.0407L23.553 28.9985H21.3587ZM22.2852 25.1351V22.3476H26.6251L27.1128 25.1351H22.2852Z" fill="#EC407A"/>
<path d="M36.5239 15.355C37.3529 15.355 37.9868 15.1594 38.4257 14.7682C38.8158 14.3769 39.0596 13.839 39.0596 13.0565V11.5894C39.0596 9.33985 39.6448 7.57929 40.8639 6.25889C42.0342 4.98739 43.6922 4.30273 45.789 4.30273C47.8859 4.30273 49.4951 4.93848 50.6166 6.16108C51.7382 7.38367 52.3234 9.14424 52.3234 11.4427V12.4208C52.3234 13.3989 52.5184 14.1324 52.9573 14.5726C53.3474 15.0127 53.9813 15.2572 54.7616 15.2572H55.6393C55.8831 15.2572 55.9807 15.7952 55.9807 16.8221C55.9807 17.8002 55.8831 18.2893 55.6393 18.2893H54.7616C53.7375 18.2893 52.9085 18.0936 52.2746 17.7513C51.6407 17.409 51.1043 16.8221 50.8117 16.0397C50.3241 16.7732 49.6414 17.3601 48.7636 17.7513C47.8859 18.1425 46.8618 18.3382 45.7403 18.3382C44.5212 18.3382 43.4971 18.1425 42.6682 17.7513C41.8392 17.3601 41.2052 16.8221 40.8151 16.1375C40.425 16.871 39.8886 17.4579 39.2547 17.8002C38.6208 18.1426 37.743 18.3382 36.6702 18.3382H35.7437C35.4999 18.3382 35.4023 17.8491 35.4023 16.871C35.4023 16.2842 35.4511 15.8441 35.4999 15.6484C35.5486 15.4528 35.6462 15.355 35.7437 15.355H36.5239ZM49.3 11.5405C49.3 10.1712 49.0074 9.09533 48.3735 8.41067C47.7884 7.72602 46.8618 7.38367 45.594 7.38367C44.3749 7.38367 43.4484 7.72601 42.8144 8.45956C42.2293 9.19312 41.8879 10.269 41.8879 11.6872C41.8879 12.8609 42.2293 13.7412 42.8632 14.377C43.4971 15.0127 44.4236 15.355 45.594 15.355C46.8131 15.355 47.7396 15.0616 48.3735 14.4258C49.0074 13.7901 49.3 12.812 49.3 11.5405Z" fill="#EC407A"/>
<path d="M54.1751 24.9417L53.6875 22.1542H58.5151V24.9417H54.1751ZM64.9519 12.6179C64.9519 14.3785 64.4155 15.6989 63.3915 16.7259C62.3187 17.7039 60.9533 18.2419 59.1978 18.2419L55.5405 18.2908C55.2967 18.2908 55.1992 17.7528 55.1992 16.7748C55.1992 16.1879 55.2479 15.7478 55.2967 15.5522C55.3455 15.3565 55.443 15.2587 55.5405 15.2587H59.1978C60.0755 15.2587 60.7582 15.0142 61.2459 14.5741C61.7823 14.1339 62.0261 13.4982 62.0261 12.6179V9.34136L64.9519 8.36328V12.6179ZM58.1738 24.9417V22.1542H63.0014L62.5138 24.9417H58.1738Z" fill="#EC407A"/>
<path d="M68.0742 0L71 0.978078V18.4368H68.0742V0Z" fill="#EC407A"/>
</svg>
