<svg width="20" height="20" viewBox="0 0 20 20" fill="none" xmlns="http://www.w3.org/2000/svg">
<mask id="mask0_50171_62484" style="mask-type:alpha" maskUnits="userSpaceOnUse" x="0" y="0" width="20" height="20">
<rect width="20" height="20" fill="#D9D9D9"/>
</mask>
<g mask="url(#mask0_50171_62484)">
<path d="M5.00004 19.167C4.54171 19.167 4.14935 19.0038 3.82296 18.6774C3.49657 18.351 3.33337 17.9587 3.33337 17.5003V8.33366C3.33337 7.87533 3.49657 7.48296 3.82296 7.15658C4.14935 6.83019 4.54171 6.66699 5.00004 6.66699H6.66671C6.90282 6.66699 7.10074 6.74685 7.26046 6.90658C7.42018 7.0663 7.50004 7.26421 7.50004 7.50033C7.50004 7.73644 7.42018 7.93435 7.26046 8.09408C7.10074 8.2538 6.90282 8.33366 6.66671 8.33366H5.00004V17.5003H15V8.33366H13.3334C13.0973 8.33366 12.8993 8.2538 12.7396 8.09408C12.5799 7.93435 12.5 7.73644 12.5 7.50033C12.5 7.26421 12.5799 7.0663 12.7396 6.90658C12.8993 6.74685 13.0973 6.66699 13.3334 6.66699H15C15.4584 6.66699 15.8507 6.83019 16.1771 7.15658C16.5035 7.48296 16.6667 7.87533 16.6667 8.33366V17.5003C16.6667 17.9587 16.5035 18.351 16.1771 18.6774C15.8507 19.0038 15.4584 19.167 15 19.167H5.00004ZM9.16671 4.02116L8.41671 4.77116C8.25004 4.93783 8.0556 5.01769 7.83337 5.01074C7.61115 5.0038 7.41671 4.91699 7.25004 4.75033C7.09726 4.58366 7.0174 4.38921 7.01046 4.16699C7.00351 3.94477 7.08337 3.75033 7.25004 3.58366L9.41671 1.41699C9.58337 1.25033 9.77782 1.16699 10 1.16699C10.2223 1.16699 10.4167 1.25033 10.5834 1.41699L12.75 3.58366C12.9028 3.73644 12.9792 3.92741 12.9792 4.15658C12.9792 4.38574 12.9028 4.58366 12.75 4.75033C12.5834 4.91699 12.3855 5.00033 12.1563 5.00033C11.9271 5.00033 11.7292 4.91699 11.5625 4.75033L10.8334 4.02116V12.5003C10.8334 12.7364 10.7535 12.9344 10.5938 13.0941C10.4341 13.2538 10.2362 13.3337 10 13.3337C9.76393 13.3337 9.56601 13.2538 9.40629 13.0941C9.24657 12.9344 9.16671 12.7364 9.16671 12.5003V4.02116Z" fill="#5B595C"/>
</g>
</svg>
