<svg width="" height="" viewBox="0 0 16 16" fill="none" xmlns="http://www.w3.org/2000/svg">
<path fill-rule="evenodd" clip-rule="evenodd" d="M8.29214 1.85488C8.19543 1.82381 8.08968 1.83134 7.99985 1.87463C7.9015 1.92202 7.8365 2.00474 7.81316 2.09474L7.49602 3.31731C7.38511 3.74487 7.22363 4.15725 7.01566 4.5466C6.69277 5.15105 6.20422 5.61594 5.75098 6.0065L4.79182 6.83303C4.64317 6.96113 4.56493 7.15315 4.58188 7.34913L5.12332 13.6109C5.15068 13.9273 5.41496 14.1693 5.7309 14.1693H8.82998C10.9209 14.1693 12.6825 12.7144 13.0204 10.7607L13.4908 8.04086C13.5555 7.66654 13.2676 7.3254 12.8899 7.3254H9.43579C8.78438 7.3254 8.28959 6.74098 8.39476 6.09908L8.83655 3.40271C8.89706 3.03336 8.87978 2.65542 8.78581 2.29317C8.73812 2.10933 8.59306 1.95155 8.38878 1.88593L8.29214 1.85488L8.44506 1.37884L8.29214 1.85488ZM7.56575 0.973767C7.88748 0.818735 8.25817 0.793634 8.59799 0.9028L8.69464 0.933847L8.54171 1.40989L8.69464 0.933847C9.21264 1.10026 9.6168 1.51407 9.75377 2.04207C9.8827 2.53912 9.90641 3.05765 9.82339 3.56439L9.38161 6.26077C9.37595 6.29527 9.40254 6.3254 9.43579 6.3254H12.8899C13.8894 6.3254 14.6463 7.22694 14.4761 8.21127L14.0058 10.9311C13.5805 13.39 11.3808 15.1693 8.82998 15.1693H5.7309C4.89513 15.1693 4.19901 14.5294 4.12704 13.6971L3.5856 7.43528C3.541 6.91947 3.74681 6.41348 4.13903 6.07549L5.09819 5.24896C5.535 4.87255 5.90269 4.50772 6.13361 4.07543C6.30466 3.75522 6.43715 3.41665 6.52805 3.06622L6.84519 1.84365C6.94468 1.46011 7.21109 1.14467 7.56575 0.973767ZM1.97844 6.32587C2.24595 6.31432 2.47507 6.51557 2.49814 6.78233L3.14587 14.2733C3.18748 14.7545 2.80846 15.1693 2.32447 15.1693C1.86859 15.1693 1.5 14.7994 1.5 14.3444V6.8254C1.5 6.55765 1.71093 6.33741 1.97844 6.32587Z" fill=""/>
</svg>
