<svg width="" height="" viewBox="0 0 24 25" fill="none" xmlns="http://www.w3.org/2000/svg">
<path d="M20.2674 16.9134L20.9729 12.8336C21.1492 11.8146 20.3655 10.8826 19.3326 10.8826H14.1515C13.638 10.8826 13.247 10.4217 13.3301 9.91442L13.9927 5.86986C14.1004 5.21279 14.0697 4.54044 13.9025 3.89596C13.764 3.36208 13.3521 2.93339 12.8104 2.75936L12.6654 2.71279C12.338 2.60762 11.9807 2.63209 11.672 2.78083C11.3322 2.94455 11.0837 3.24317 10.9916 3.59833L10.5158 5.43218C10.3645 6.01567 10.144 6.57889 9.85974 7.11105C9.44439 7.88861 8.80221 8.5109 8.13467 9.08613L6.69593 10.3259C6.29028 10.6755 6.07724 11.199 6.1234 11.7328L6.93557 21.1255C7.01006 21.987 7.73036 22.6484 8.59414 22.6484H13.2428C16.7241 22.6484 19.6951 20.2228 20.2674 16.9134Z" fill=""/>
<path fill-rule="evenodd" clip-rule="evenodd" d="M2.96767 10.1335C3.36893 10.1162 3.71261 10.4181 3.74721 10.8182L4.71881 22.0547C4.78122 22.7765 4.21268 23.3986 3.48671 23.3986C2.80289 23.3986 2.25 22.8439 2.25 22.1614V10.8828C2.25 10.4812 2.5664 10.1508 2.96767 10.1335Z" fill=""/>
</svg>
