<svg width="95" height="45" viewBox="0 0 95 45" fill="none" xmlns="http://www.w3.org/2000/svg">
<path fill-rule="evenodd" clip-rule="evenodd" d="M26.0771 24.0621C26.105 24.0481 26.1253 24.0379 26.1391 24.0307C26.1185 24.0413 26.0978 24.0517 26.0771 24.0621Z" fill="#F24F7A"/>
<path fill-rule="evenodd" clip-rule="evenodd" d="M49.7823 17.9512C49.7929 17.8982 49.8039 17.8454 49.8151 17.7928C49.8146 17.8106 49.8128 17.8286 49.8096 17.8469C49.7738 18.0476 49.7351 18.2463 49.6934 18.443C49.7193 18.2818 49.749 18.1178 49.7823 17.9512ZM53.3266 9.54352C53.9956 9.43206 54.6707 9.42678 54.9786 9.43227C54.4364 9.44128 53.8832 9.47722 53.3266 9.54352ZM56.0818 9.49189C55.7108 9.4579 55.3418 9.43849 54.9786 9.43227C55.1394 9.42808 55.5775 9.43563 56.0818 9.49189Z" fill="#F24F7A"/>
<path fill-rule="evenodd" clip-rule="evenodd" d="M37.5596 13.9793C37.6043 13.3306 36.3257 12.4504 34.7473 12.4504C32.601 12.4504 31.3157 13.7367 30.7598 15.2292C30.7259 15.3202 30.6947 15.412 30.6662 15.5043C30.6365 15.6767 30.6072 15.8492 30.5782 16.0219L30.5338 16.286L30.532 16.2964C30.3907 17.1382 30.2407 18.0272 30.063 18.8613C30.0582 18.8831 30.068 18.8396 30.063 18.8613C29.7857 20.0662 29.2111 21.255 28.4277 22.1775C28.073 22.6151 27.6746 23.0064 27.2414 23.3425C26.9913 23.5299 26.7319 23.7002 26.4648 23.8524C26.3584 23.9139 26.2489 23.9743 26.1391 24.0307C26.1253 24.0379 26.105 24.0481 26.0771 24.0621L26.0608 24.0702C25.9982 24.1017 25.8046 24.165 25.7156 24.1926L24.7247 24.2187C24.5632 24.2197 24.4017 24.2206 24.2403 24.2206H19.5501L20.5223 18.7569C20.92 16.5208 20.7783 14.3041 19.5017 12.5601C17.0721 9.23689 12.0997 8.86331 8.40629 9.77689C5.07024 10.6002 1.97574 12.746 0.562604 16.4057C-0.634218 19.5094 0.133519 22.7671 2.34252 24.6934C4.60989 26.6693 7.72194 26.6799 10.5752 26.6799H11.7212C9.64139 29.231 6.24983 31.1937 6.24983 31.1937C6.24983 31.1937 4.14411 32.206 3.68442 32.3758C3.57177 32.4174 3.47439 32.4534 3.39047 32.4911C3.15752 32.6466 3.07875 32.8474 3.07702 33.071C3.06409 34.7479 4.97888 36.8807 7.996 36.313C13.0511 35.3619 16.6678 29.9813 18.2556 26.6675H24.1433C25.96 26.6675 27.7568 26.6586 29.5698 26.1505C30.5711 25.8701 31.5454 25.4437 32.4413 24.8731C34.1947 26.2329 36.522 26.6749 38.7 26.6587C41.096 26.6421 43.5115 26.1162 45.6334 24.7348C45.5672 24.6796 45.502 24.623 45.4377 24.5648C43.5328 22.8384 42.916 20.2401 43.4683 17.6507C43.4396 17.7107 43.4181 17.7759 43.4057 17.8469L43.4019 17.8557C43.0244 19.9803 42.0923 21.9049 40.4344 23.2097L40.2802 23.3202C39.8604 23.6209 39.411 23.878 38.9389 24.0873C38.8867 24.056 38.6015 23.888 38.5334 23.8489C37.154 22.8738 36.5063 20.9288 36.6824 18.9788C36.6933 18.8576 36.7074 18.7363 36.7248 18.6153C36.8336 17.8564 36.9737 17.099 37.1158 16.3421C37.1999 15.8946 37.2847 15.4472 37.3642 14.9999C37.3642 14.9999 37.5429 14.2219 37.5596 13.9793ZM12.9163 24.1983H10.368C9.69112 24.1983 9.02581 24.0935 8.54766 23.7247C5.87751 21.665 5.61753 16.0767 10.1221 12.7992C11.0107 12.1526 12.2096 11.7886 12.908 12.353C14.1598 13.3647 14.5788 16.4285 12.9163 24.1983Z" fill="#F24F7A"/>
<path d="M50.8568 26.6204C53.4049 26.8275 56.0344 26.461 58.4536 25.2234C58.7995 25.0465 59.1396 24.8437 59.4705 24.6177C61.6924 23.1003 63.5013 20.5367 63.8695 17.7217C63.9254 17.294 63.9481 16.8605 63.9339 16.424C63.7781 11.6681 59.8307 9.83538 56.0818 9.49189C55.7108 9.4579 55.3418 9.43849 54.9786 9.43227C54.4364 9.44128 53.8832 9.47722 53.3266 9.54352C49.8378 9.95908 46.2147 11.5677 44.3415 15.2201C43.9356 16.0107 43.6433 16.8302 43.4683 17.6507C42.916 20.2401 43.5328 22.8384 45.4377 24.5648C45.502 24.623 45.5672 24.6796 45.6334 24.7348C46.0072 24.4915 46.3719 24.2216 46.7257 23.9233C48.3932 22.5176 49.2337 20.609 49.6934 18.443C49.7193 18.2818 49.749 18.1178 49.7823 17.9512C49.7929 17.8982 49.8039 17.8454 49.8151 17.7928C50.5335 14.4231 52.4286 12.0272 54.7685 12.0272C57.4944 12.0272 58.0651 14.9046 57.4242 18.1205C56.7694 21.5395 55.0218 24.0783 52.4707 24.0783C50.2673 24.0783 49.1398 21.8851 49.6934 18.443C49.2337 20.609 48.3932 22.5176 46.7257 23.9233C46.3719 24.2216 46.0072 24.4915 45.6334 24.7348C47.0927 25.9527 49.0095 26.4696 50.8568 26.6204Z" fill="#F24F7A"/>
<path d="M73.7111 25.8376C76.2699 24.8302 78.4593 22.8702 79.5247 20.025C79.9597 18.8655 80.1532 17.5822 80.342 16.3295L80.3622 16.1953L80.3778 16.0924L80.3984 15.9571C80.4466 15.6415 80.4961 15.3288 80.5506 15.0215L80.5808 14.8695C80.6558 14.5264 80.7223 14.2219 80.7391 13.9793C80.7837 13.3306 79.5051 12.4504 77.9267 12.4504C75.4334 12.4504 74.113 14.1864 73.7385 15.9648L73.7192 16.0752L73.6753 16.3266C73.547 17.0606 73.4178 17.7946 73.28 18.5271C73.2729 18.568 73.2655 18.6087 73.2577 18.6494C73.0572 19.7059 72.6428 20.7152 72.0464 21.5977C71.5869 22.2778 71.0271 23.0821 70.398 23.6665C69.9904 24.0451 69.4108 24.1819 68.8727 24.1819H66.5585C65.9396 24.1819 65.3095 24.0073 64.9477 23.5439C63.8598 22.1501 63.8756 18.0047 63.8725 17.8632C63.8695 17.7217 63.8789 17.7673 63.8695 17.7217C63.5013 20.5367 61.6924 23.1003 59.4705 24.6177C61.4604 26.3567 64.2038 26.668 66.7475 26.668C66.8989 26.668 67.0504 26.6682 67.2021 26.6685C69.3786 26.6726 71.5759 26.6768 73.7111 25.8376Z" fill="#F24F7A"/>
<path d="M94.9547 1.19554C95.0345 0.921284 95.0154 0.749875 94.8454 0.544183C94.2979 0.0299521 91.1199 -0.552842 88.7472 1.91546C87.9767 2.71695 87.399 3.66672 87.2931 4.59253L84.8249 18.1137C84.2038 21.3304 83.0711 21.8105 81.7992 22.3386C81.5114 22.4827 81.3535 22.6267 81.2979 22.9148C81.1403 23.7309 82.1783 26.6596 85.2983 26.6596C88.0283 26.6596 90.2098 24.7872 90.8679 21.3784L93.9698 4.57052C93.974 4.54467 93.9797 4.51398 93.9867 4.47893C94.1092 3.8669 94.6408 1.92572 94.9547 1.19554Z" fill="#F24F7A"/>
<path d="M60.1029 31.6171C62.9676 31.8778 69.6036 32.0821 73.2301 30.8141C73.389 32.437 73.0708 35.9167 70.5258 36.8527C67.9808 37.7886 63.2621 37.5948 61.2209 37.3808C59.7676 37.0245 59.4702 33.7014 60.1029 31.6171Z" fill="#F24F7A"/>
<path d="M34.5543 31.5956C26.3035 32.6514 22.659 31.91 19.4289 31.9399C18.52 32.7414 18.6842 35.2199 21.1454 36.8065C24.2218 38.7896 35.546 37.6744 34.5543 31.5956Z" fill="#F24F7A"/>
<path d="M23.643 39.8057C23.643 39.8057 24.9929 40.182 28.7425 39.289C28.8391 40.6664 28.6158 44.473 25.8097 44.3384C22.6499 44.1868 23.1189 41.3252 23.643 39.8057Z" fill="#F24F7A"/>
</svg>
