<svg width="" height="" viewBox="0 0 40 40" fill="none" xmlns="http://www.w3.org/2000/svg">
<rect x="0.972222" y="0.972222" width="38.0556" height="38.0556" rx="19.0278" fill="#EFE7FD" stroke="#F7F3FE" stroke-width="1.94444"/>
<path fill-rule="evenodd" clip-rule="evenodd" d="M16.7554 31.2497C18.2588 31.2472 19.4836 30.0218 19.4858 28.518V9.85876C19.4868 9.24996 18.9926 8.75265 18.3841 8.75H18.3773C14.9801 8.75 11.9386 11.2199 11.3133 14.3684C11.2596 14.6385 11.5285 14.8483 11.7955 14.7807C12.2185 14.6735 12.6525 14.6189 13.0922 14.6179L13.0971 14.6179C13.3679 14.6179 13.5968 14.8295 13.6179 15.0998C13.6268 15.2424 13.5764 15.3821 13.4797 15.485C13.3831 15.5878 13.2468 15.6467 13.1058 15.6467C10.7082 15.6492 8.75566 17.6024 8.75316 20.0006L8.75309 20.0046C8.706 21.2507 9.19906 22.4632 10.0866 23.3241C10.2433 23.4761 10.4941 23.4352 10.634 23.2676C11.3422 22.4189 12.3902 21.922 13.5107 21.9207C14.1228 21.9207 14.62 21.4233 14.62 20.8119C14.6197 20.6748 14.673 20.5457 14.77 20.4485C14.867 20.3514 14.996 20.2979 15.1332 20.2979L15.1607 20.2981C15.4386 20.3176 15.6521 20.5512 15.6465 20.83C15.6442 21.1152 15.5847 21.3947 15.4723 21.6539C15.4042 21.8109 15.4233 21.9978 15.5442 22.119L16.108 22.6845C16.2943 22.8881 16.2873 23.2003 16.0922 23.3954C15.9951 23.4923 15.8661 23.5457 15.7289 23.5457C15.6 23.5457 15.4766 23.4977 15.3816 23.4105L15.3782 23.4072L14.6123 22.6412C14.2801 22.8428 13.9012 22.9492 13.511 22.9495C12.0993 22.9562 10.9362 24.0218 10.8058 25.4283C10.6757 26.8313 11.6181 28.09 12.9993 28.3604C12.9995 28.3604 12.9997 28.3605 12.9999 28.3605C13.0014 28.3605 13.0027 28.3592 13.0028 28.3577C13.0302 27.7178 13.2222 27.091 13.5583 26.5451C13.8963 25.9964 14.3727 25.541 14.9361 25.2282C15.0122 25.1861 15.0981 25.164 15.1845 25.164C15.3719 25.164 15.5445 25.2658 15.635 25.4298C15.7721 25.6782 15.6816 25.9917 15.4334 26.1288C14.3448 26.7322 13.8017 27.9956 14.1129 29.2012C14.4242 30.4066 15.5108 31.249 16.7554 31.2497ZM28.2042 14.7809C28.4712 14.8486 28.7403 14.6386 28.6865 14.3684C28.0598 11.2196 25.0181 8.75 21.6214 8.75H21.6148C21.0068 8.75265 20.5123 9.24998 20.513 9.85864V15.8359C20.513 16.0516 20.6994 16.2258 20.9029 16.1541C21.4905 15.9472 21.9131 15.3865 21.9193 14.7381C21.916 14.4688 22.1172 14.2421 22.3874 14.2131L22.3925 14.2127C22.4069 14.2119 22.4213 14.2118 22.4357 14.2125C22.5721 14.2133 22.6996 14.2666 22.7957 14.3627C22.8913 14.4584 22.946 14.5908 22.9458 14.7261C22.9468 15.0302 22.892 15.333 22.7857 15.6173C22.7297 15.7672 22.755 15.9393 22.8682 16.0525L23.6117 16.7963C23.8045 17 23.8001 17.3149 23.6019 17.5132C23.5048 17.6103 23.3758 17.6637 23.2385 17.6637C23.1065 17.6637 22.9811 17.6138 22.8852 17.523L22.8832 17.521L22.0338 16.6732C21.6982 16.9557 21.295 17.1456 20.8664 17.2255C20.6707 17.262 20.513 17.4228 20.513 17.6219V28.5201C20.5139 29.8558 21.4701 30.9876 22.7866 31.2112C22.9383 31.2369 23.0926 31.25 23.2455 31.25C24.4028 31.25 25.4377 30.5152 25.8209 29.4215C26.2625 28.1609 25.7352 26.7761 24.5672 26.1288C24.4467 26.0624 24.3591 25.9529 24.3207 25.8205C24.2823 25.6881 24.2978 25.5487 24.3642 25.428C24.4549 25.2631 24.6283 25.1607 24.8166 25.1607C24.903 25.1607 24.9889 25.1828 25.065 25.2247C25.6286 25.5375 26.1051 25.9927 26.443 26.5414C26.779 27.0869 26.971 27.7132 26.9986 28.3533C26.9987 28.3551 27.0001 28.3565 27.0019 28.3565C27.0021 28.3565 27.0023 28.3565 27.0025 28.3565C28.3803 28.0831 29.3199 26.8244 29.1894 25.4243C29.0586 24.0206 27.8971 22.9555 26.4878 22.9469L26.4841 22.9468C26.2075 22.9356 25.9909 22.71 25.9909 22.4331C25.9909 22.1562 26.2075 21.9306 26.4841 21.9195L26.4886 21.9194C27.6093 21.9205 28.6573 22.4173 29.3654 23.2662C29.5052 23.4338 29.756 23.4748 29.9127 23.3228C30.8006 22.4619 31.2938 21.2494 31.2469 20.0033L31.2469 19.9993C31.244 17.601 29.2912 15.6479 26.8936 15.6454C26.7525 15.6454 26.6163 15.5865 26.5196 15.4837C26.423 15.3808 26.3726 15.241 26.3813 15.1002C26.4034 14.8288 26.6322 14.6179 26.9022 14.6179L26.9089 14.6179C27.3478 14.6191 27.7815 14.6737 28.2042 14.7809Z" fill="#904CDD"/>
</svg>
