<svg width="" height="" viewBox="0 0 40 40" fill="none" xmlns="http://www.w3.org/2000/svg">
<rect x="0.972222" y="0.972222" width="38.0556" height="38.0556" rx="19.0278" fill="#E8ECE8" stroke="#F4F6F4" stroke-width="1.94444"/>
<path fill-rule="evenodd" clip-rule="evenodd" d="M13 11.3947C13.0008 10.514 13.6778 9.79652 14.5092 9.7953H25.4901C26.3215 9.79652 26.9989 10.514 27 11.3947L27 30.5831C26.9989 31.4638 26.3215 32.181 25.4902 32.1818L14.5092 32.1818C13.6782 32.1806 13.0011 31.4634 13 30.5832L13 11.3947ZM23.0751 14.1382C23.2615 13.1571 22.1057 12.5664 21.5253 13.346L15.3103 21.6935C14.8452 22.3182 15.2557 23.2482 15.9966 23.2482H17.0507C17.2465 23.2482 17.3925 23.4285 17.352 23.62L16.3581 28.31C16.1533 29.2767 17.2761 29.8992 17.8801 29.1537L24.0215 21.5738C24.5216 20.9566 24.117 19.9887 23.3589 19.9887H22.3356C22.1425 19.9887 21.997 19.813 22.033 19.6233L23.0751 14.1382ZM16.6097 22.2931C16.3565 22.2931 16.2115 22.0044 16.3628 21.8013L21.4122 15.0192C21.6074 14.7571 22.0227 14.9395 21.9617 15.2606L21.1 19.7961C20.9875 20.3886 21.4052 20.9438 21.9636 20.9438H22.7131C22.9722 20.9438 23.1154 21.2443 22.9523 21.4456L18.0233 27.5291C17.8196 27.7805 17.4157 27.5879 17.4828 27.2714L18.2901 23.4619C18.4168 22.8637 17.9973 22.2931 17.4307 22.2931H16.6097ZM22.3723 8.7552C22.3723 9.17229 22.0342 9.5104 21.6171 9.5104H18.3829C17.9658 9.5104 17.6277 9.17229 17.6277 8.7552C17.6277 8.33812 17.9658 8 18.3829 8H21.6171C22.0342 8 22.3723 8.33812 22.3723 8.7552Z" fill="#618A5D"/>
</svg>
