<svg width="" height="" viewBox="0 0 37 37" fill="none" xmlns="http://www.w3.org/2000/svg">
<g clip-path="url(#clip0_17739_34277)">
<path d="M25.7268 26.6253C24.0935 22.8471 23.3155 17.3495 28.6219 18.9919L29.8583 19.9539" stroke="#F24F7A" stroke-width="2" stroke-linecap="round" stroke-linejoin="round"/>
<path d="M29.223 23.7646C30.2988 26.2969 31.4717 30.1207 27.1743 31.7879C22.877 33.4552 15.2806 28.8867 13.6342 27.2995C11.9879 25.7123 11.12 24.4641 10.2939 21.289C8.50495 21.0038 5.02626 19.939 3.58479 18.2033C2.42406 17.0497 1.07471 14.3779 2.20535 10.7553C3.37471 7.00856 7.24206 5.73898 8.95088 5.64708C10.6597 5.55517 14.1829 5.28245 16.019 10.2878C16.0804 10.2944 16.1476 10.3039 16.2192 10.3156C17.4376 10.5154 17.9378 11.7824 17.8423 13.0134" stroke="#F24F7A" stroke-width="2" stroke-linecap="round" stroke-linejoin="round"/>
<path d="M29.0845 23.4917C29.6652 24.2664 31.1401 24.8569 32.645 23.9262C34.5262 22.7628 33.8103 17.0532 31.0532 17.5911C30.3824 17.7708 29.6691 18.4668 29.8614 19.8692" stroke="#F24F7A" stroke-width="2" stroke-linecap="round" stroke-linejoin="round"/>
<path d="M17.0338 22.9841L20.485 21.9151C21.1906 21.726 21.7841 21.3764 22.398 20.9854M18.6856 14.3986C20.4298 14.1227 20.8631 15.3048 21.2416 15.7038C21.6202 16.1028 22.3462 15.7429 23.2779 17.4412C23.4452 17.7462 23.5186 18.3594 23.4955 18.6823C23.4334 19.5521 23.1308 20.5186 22.398 20.9854M22.398 20.9854L24.485 22.1281" stroke="#F24F7A" stroke-width="2" stroke-linecap="round" stroke-linejoin="round"/>
<path d="M17.9009 13.1279C18.07 13.5156 18.2536 14.0695 18.3644 14.6799M13.6644 21.5614C13.7051 20.3761 14.2745 19.6222 15.4835 19.2606M15.4835 19.2606C16.6925 18.899 16.6313 18.8151 17.5328 18.0801C18.5193 17.2758 18.5805 15.8705 18.3644 14.6799M15.4835 19.2606L19.3576 18.3335M18.3644 14.6799C17.8847 14.968 16.7011 15.9976 15.4835 15.1807" stroke="#F24F7A" stroke-width="2" stroke-linecap="round" stroke-linejoin="round"/>
<path d="M13.2696 12.1526C13.2696 12.1526 12.8324 11.7063 11.9679 12.0232C11.1035 12.34 11.024 13.1439 11.024 13.1439" stroke="#F24F7A" stroke-width="2" stroke-linecap="round" stroke-linejoin="round"/>
</g>
<defs>
<clipPath id="clip0_17739_34277">
<rect width="36" height="36" fill="white" transform="translate(0.15332 0.878906)"/>
</clipPath>
</defs>
</svg>
