<svg width="" height="" viewBox="0 0 36 36" fill="none" xmlns="http://www.w3.org/2000/svg">
<rect width="36" height="36" rx="8" fill="#E2E8F0"/>
<path d="M9.33692 23.0023C10.0264 24.199 11.5555 24.6101 12.7521 23.9206C12.753 23.9201 12.7537 23.9197 12.7546 23.9192L13.1255 23.705C13.8257 24.304 14.6305 24.7686 15.4995 25.0754V25.503C15.4995 26.8841 16.6191 28.0037 18.0002 28.0037C19.3813 28.0037 20.5009 26.8841 20.5009 25.503V25.0754C21.37 24.7682 22.1749 24.303 22.8749 23.7033L23.2475 23.9184C24.4444 24.6089 25.9746 24.1984 26.6652 23.0014C27.3557 21.8045 26.9452 20.2743 25.7482 19.5838L25.3781 19.3704C25.5447 18.4639 25.5447 17.5345 25.3781 16.628L25.7482 16.4146C26.9452 15.724 27.3557 14.1939 26.6652 12.9969C25.9746 11.8 24.4445 11.3894 23.2475 12.08L22.8766 12.2942C22.1757 11.6959 21.3703 11.2322 20.5009 10.9264V10.4988C20.5009 9.11766 19.3813 7.99805 18.0002 7.99805C16.6191 7.99805 15.4995 9.11766 15.4995 10.4988V10.9264C14.6304 11.2336 13.8255 11.6987 13.1255 12.2984L12.7529 12.0826C11.5559 11.392 10.0258 11.8025 9.33524 12.9995C8.64469 14.1964 9.05519 15.7266 10.2522 16.4171L10.6223 16.6305C10.4557 17.537 10.4557 18.4664 10.6223 19.373L10.2522 19.5863C9.05852 20.2787 8.64934 21.8059 9.33692 23.0023ZM18.0002 14.6666C19.8417 14.6666 21.3345 16.1594 21.3345 18.0009C21.3345 19.8423 19.8417 21.3352 18.0002 21.3352C16.1587 21.3352 14.6659 19.8423 14.6659 18.0009C14.6659 16.1594 16.1587 14.6666 18.0002 14.6666Z" fill="#94A3B8"/>
</svg>
