<svg width="" height="" viewBox="0 0 27 39" fill="none" xmlns="http://www.w3.org/2000/svg">
<path d="M3.60055 27.06H23.6051C25.4365 27.06 26.9186 25.578 26.9186 23.7466V3.74199C26.9186 1.91058 25.4365 0.42856 23.6051 0.42856H3.60055C1.76914 0.42856 0.287109 1.91058 0.287109 3.74199V23.7466C0.287109 25.578 1.77478 27.06 3.60055 27.06Z" fill="#9E3F28"/>
<path d="M7.96862 9.07257H19.2388C19.5318 9.07257 19.746 8.81899 19.7234 8.52597C19.4473 5.38722 16.8157 2.93032 13.6037 2.93032C10.3973 2.93032 7.76013 5.39286 7.48401 8.52597C7.46147 8.81899 7.68123 9.07257 7.96862 9.07257Z" fill="white"/>
<path d="M14.2351 6.5451L13.0682 5.10675C12.9445 4.95428 12.6999 5.07527 12.746 5.26611L13.1813 7.0664C13.2741 7.4502 13.7047 7.64257 14.0525 7.45558C14.3854 7.27654 14.4732 6.83869 14.2351 6.5451Z" fill="#4B5A66"/>
<path d="M22.6694 30.7069C22.6694 30.7069 24.1938 21.8171 24.5887 20.2165C24.9906 18.6159 26.4318 16.6897 22.9881 14.4517C19.5444 12.2067 18.1864 11.6454 17.7013 15.491C17.2163 19.3366 18.8238 28.5451 17.7013 31.5869L22.6694 30.7069Z" fill="#E8977B"/>
<path d="M25.5542 41.5579L22.6718 29.5085C22.6718 29.5085 20.108 27.3467 17.4681 29.5085L16.7129 44.0523C19.8448 43.7059 22.8173 42.8467 25.5542 41.5579Z" fill="#585858"/>
<path d="M20.2793 15.3043L20.605 13.2879" stroke="#B55F48" stroke-width="0.346447" stroke-miterlimit="10" stroke-linecap="round"/>
<path d="M21.8008 15.193L22.1403 14.0081" stroke="#B55F48" stroke-width="0.346447" stroke-miterlimit="10" stroke-linecap="round"/>
<path d="M23.166 16.0664L23.4016 14.9716" stroke="#B55F48" stroke-width="0.346447" stroke-miterlimit="10" stroke-linecap="round"/>
<path d="M24.3613 17.0363L24.7286 16.0523" stroke="#B55F48" stroke-width="0.346447" stroke-miterlimit="10" stroke-linecap="round"/>
<path d="M4.63206 30.7972C4.63206 30.7972 3.10768 21.9074 2.71273 20.3068C2.31085 18.7062 0.869633 16.78 4.31331 14.5419C7.757 12.297 9.11507 11.7357 9.6001 15.5813C10.0782 19.4268 8.47761 28.6354 9.6001 31.6772L4.63206 30.7972Z" fill="#E8977B"/>
<path d="M1.74414 41.6482L4.6266 29.5987C4.6266 29.5987 7.19032 27.4369 9.83024 29.5987L10.5855 44.1426C7.45359 43.7961 4.47414 42.9369 1.74414 41.6482Z" fill="#585858"/>
<path d="M7.60889 15.249L7.2832 13.2326" stroke="#B55F48" stroke-width="0.346447" stroke-miterlimit="10" stroke-linecap="round"/>
<path d="M6.08453 15.1377L5.75195 13.9529" stroke="#B55F48" stroke-width="0.346447" stroke-miterlimit="10" stroke-linecap="round"/>
<path d="M4.72687 16.0117L4.48438 14.91" stroke="#B55F48" stroke-width="0.346447" stroke-miterlimit="10" stroke-linecap="round"/>
<path d="M3.52151 16.981L3.1543 15.9901" stroke="#B55F48" stroke-width="0.346447" stroke-miterlimit="10" stroke-linecap="round"/>
</svg>
