<svg width="90" height="90" viewBox="0 0 90 90" fill="none" xmlns="http://www.w3.org/2000/svg">
<path d="M31.2749 20.6976C30.0773 20.2976 28.3659 20.8883 26.9832 21.8706C26.343 22.3281 25.7764 22.8672 25.362 23.4288C24.5805 22.346 23.5712 21.4942 22.769 21.2133C20.5811 20.4472 19.3776 21.9325 18.9227 22.8201C17.2404 26.1025 21.7145 31.9647 23.6511 32.6429C25.223 33.1683 30.5238 29.5469 32.4459 25.6588C33.2352 24.0649 33.5165 21.4432 31.2749 20.6976Z" fill="#F24F7A"/>
<path d="M73.5568 60.1123C73.8707 60.2745 73.9678 60.4367 73.8909 60.7612C73.7182 61.6805 71.1023 64.9793 67.1991 64.9793C63.7839 64.9793 61.9256 62.8702 62.682 59.0307L65.0116 46.6468C65.6798 43.2939 64.8414 42.1042 63.1533 42.2124C60.7605 42.3205 57.6504 46.4845 56.6293 51.7842L54.3185 63.8977C54.2454 64.1681 54.0286 64.1681 53.9706 64.2222C52.759 64.4926 51.3962 64.6007 49.9868 64.6007C48.5773 64.6007 47.2876 64.4385 46.1101 64.2222C46.0597 64.1681 45.9008 64.114 45.9121 63.9518L49.2364 46.6468C49.9046 43.2939 49.012 42.1042 47.3781 42.2124C44.9853 42.3205 41.8865 46.3223 40.8579 51.7301L38.4891 63.8977C38.416 64.1681 38.1992 64.1681 38.1412 64.2222C36.9838 64.4926 35.621 64.6007 34.2116 64.6007C32.8021 64.6007 31.404 64.4385 30.1723 64.2222C30.1218 64.1681 29.963 64.114 29.9743 63.9518C30.5315 61.4101 32.7553 50.5404 33.6264 45.8356C34.3021 42.3746 33.2595 41.7797 31.8916 41.1849C31.6319 41.0226 31.5348 40.8604 31.5575 40.5359C31.7302 39.6166 34.3461 36.3178 38.2493 36.3178C41.3393 36.3178 42.721 38.2647 42.6328 41.0767C42.5874 41.7257 42.4916 42.3205 42.3883 43.0235H42.5509C45.308 38.481 48.7623 36.3719 52.0729 36.3178C55.9798 36.2638 58.4231 38.535 58.1672 42.9695H58.3299C60.9634 38.6432 64.4795 36.426 67.9023 36.3178C72.2429 36.2638 74.8652 39.0758 73.8214 44.7C73.2377 47.6202 72.5003 51.1893 71.667 55.3534C70.9799 58.9766 72.189 59.5174 73.5568 60.1123Z" fill="#F24F7A"/>
<path d="M19.4315 64.9841C16.0162 64.9841 14.1579 62.875 14.8601 59.0355L19.087 37.3501C19.0945 37.242 19.1563 37.1338 19.3227 37.0797C20.4763 36.8634 21.9513 36.7012 23.2523 36.7012C24.6618 36.7012 26.1179 36.8093 27.2374 37.0797C27.2879 37.1338 27.4467 37.1879 27.3812 37.3501L23.8993 55.3582C23.2122 58.9814 24.4213 59.5222 25.7891 60.117C26.1031 60.2793 26.2001 60.4415 26.1232 60.766C25.9505 61.6853 23.3346 64.9841 19.4315 64.9841Z" fill="#F24F7A"/>
</svg>
