<svg width="56" height="56" viewBox="0 0 56 56" fill="none" xmlns="http://www.w3.org/2000/svg">
<path d="M46.7988 29.0998C46.7988 39.5383 38.3368 48.0003 27.8984 48.0003C17.46 48.0003 8.99805 39.5383 8.99805 29.0998C8.99805 18.6613 17.46 10.1992 27.8984 10.1992C38.3368 10.1992 46.7988 18.6613 46.7988 29.0998Z" fill="url(#paint0_radial_11560_28328)"/>
<path d="M30.1103 36.8521C30.1103 38.2061 29.1549 39.2594 28.0275 39.2594C26.9002 39.2594 25.9448 38.2061 25.9448 36.8521C25.9448 35.4981 26.9002 34.4448 28.0275 34.4448C29.1549 34.4448 30.1103 35.4981 30.1103 36.8521Z" fill="#1E293B" stroke="#1E293B" stroke-width="0.377941"/>
<path d="M31.3574 25.6387C31.3574 25.6387 32.7135 27.3694 34.3862 27.3694C36.059 27.3694 37.4151 25.6387 37.4151 25.6387" stroke="#1E293B" stroke-width="0.973582" stroke-linecap="round" stroke-linejoin="round"/>
<path d="M18.377 25.6387C18.377 25.6387 19.733 27.3694 21.4058 27.3694C23.0786 27.3694 24.4346 25.6387 24.4346 25.6387" stroke="#1E293B" stroke-width="0.973582" stroke-linecap="round" stroke-linejoin="round"/>
<path d="M38.2228 12.9085L40.9058 12.8348L38.5477 15.6763L41.1051 15.5602" stroke="#544374" stroke-width="1.29807" stroke-linecap="round" stroke-linejoin="round"/>
<path d="M31.6651 17.411L34.9932 16.6814L32.728 20.7852L35.8894 20.0326" stroke="#544374" stroke-width="1.29807" stroke-linecap="round" stroke-linejoin="round"/>
<path d="M33.2733 9.69535L35.2292 9.1859L33.9814 11.6708L35.8379 11.1515" stroke="#544374" stroke-width="1.29807" stroke-linecap="round" stroke-linejoin="round"/>
<defs>
<radialGradient id="paint0_radial_11560_28328" cx="0" cy="0" r="1" gradientUnits="userSpaceOnUse" gradientTransform="translate(27.8984 2.09898) rotate(90) scale(62.3096 62.309)">
<stop stop-color="#FFE3A3" stop-opacity="0.78"/>
<stop offset="1" stop-color="#FFBB67"/>
</radialGradient>
</defs>
</svg>
