<svg width="56" height="56" viewBox="0 0 56 56" fill="none" xmlns="http://www.w3.org/2000/svg">
<rect x="13" y="20" width="27.4198" height="15.1412" rx="2.53282" fill="#69C883"/>
<path d="M40.3398 24.3086H41.8735C42.4953 24.3086 42.9992 24.8126 42.9992 25.4343V29.7074C42.9992 30.3291 42.4953 30.8331 41.8735 30.8331H40.3398V24.3086Z" fill="#57A76D"/>
<path d="M30.4827 27.6334C30.4879 27.4879 30.4644 27.3428 30.4135 27.2064C30.3625 27.07 30.2852 26.945 30.1859 26.8386C30.0865 26.7321 29.9672 26.6463 29.8347 26.5861C29.7022 26.5258 29.559 26.4922 29.4135 26.4874H25.8769L27.4396 23.7819C27.5831 23.5332 27.622 23.2377 27.5476 22.9604C27.4732 22.683 27.2917 22.4466 27.043 22.3031C26.7943 22.1596 26.4988 22.1208 26.2215 22.1952C25.9441 22.2695 25.7077 22.451 25.5642 22.6997L23.0643 27.0285C22.9765 27.1941 22.9323 27.3793 22.9357 27.5667C22.9392 27.7541 22.9902 27.9376 23.084 28.0999C23.1778 28.2622 23.3113 28.398 23.472 28.4945C23.6327 28.591 23.8153 28.6451 24.0026 28.6517H27.5392L25.9765 31.3572C25.833 31.6059 25.7942 31.9014 25.8685 32.1787C25.9429 32.456 26.1244 32.6925 26.3731 32.836C26.6218 32.9795 26.9173 33.0183 27.1947 32.9439C27.472 32.8695 27.7084 32.688 27.8519 32.4393L30.3518 28.1106C30.424 27.9608 30.4684 27.7991 30.4827 27.6334Z" fill="#BCFFCF"/>
</svg>
