<svg width="56" height="56" viewBox="0 0 56 56" fill="none" xmlns="http://www.w3.org/2000/svg">
<path d="M48.3813 28.0012C48.3813 39.259 39.2551 48.3852 27.9973 48.3852C16.7395 48.3852 7.61328 39.259 7.61328 28.0012C7.61328 16.7434 16.7395 7.61719 27.9973 7.61719C39.2551 7.61719 48.3813 16.7434 48.3813 28.0012Z" fill="url(#paint0_radial_11560_28304)"/>
<path d="M34.7165 33C35.4243 33 36.0115 33.5804 35.8584 34.2714C35.7566 34.7309 35.5996 35.1814 35.3891 35.6156C34.987 36.4449 34.3978 37.1984 33.6549 37.833C32.912 38.4677 32.0301 38.9712 31.0595 39.3147C30.0889 39.6582 29.0486 39.835 27.998 39.835C26.9475 39.835 25.9072 39.6582 24.9366 39.3147C23.966 38.9712 23.0841 38.4677 22.3412 37.833C21.5983 37.1984 21.009 36.4449 20.607 35.6156C20.3965 35.1814 20.2395 34.7309 20.1377 34.2714C19.9845 33.5804 20.5718 33 21.2796 33L27.998 33H34.7165Z" fill="#1E293B"/>
<mask id="mask0_11560_28304" style="mask-type:alpha" maskUnits="userSpaceOnUse" x="20" y="33" width="16" height="7">
<path d="M34.7165 33C35.4243 33 36.0115 33.5804 35.8584 34.2714C35.7566 34.7309 35.5996 35.1814 35.3891 35.6156C34.987 36.4449 34.3978 37.1984 33.6549 37.833C32.912 38.4677 32.0301 38.9712 31.0595 39.3147C30.0889 39.6582 29.0486 39.835 27.998 39.835C26.9475 39.835 25.9072 39.6582 24.9366 39.3147C23.966 38.9712 23.0841 38.4677 22.3412 37.833C21.5983 37.1984 21.009 36.4449 20.607 35.6156C20.3965 35.1814 20.2395 34.7309 20.1377 34.2714C19.9845 33.5804 20.5718 33 21.2796 33L27.998 33H34.7165Z" fill="#8F224B"/>
</mask>
<g mask="url(#mask0_11560_28304)">
<ellipse cx="27.9175" cy="39.2217" rx="6.10309" ry="3.46392" fill="#EC809B"/>
</g>
<circle cx="35.8338" cy="25.1678" r="2.24129" fill="#1E293B" stroke="#1E293B" stroke-width="0.407607"/>
<circle cx="19.9373" cy="25.1678" r="2.24129" fill="#1E293B" stroke="#1E293B" stroke-width="0.407607"/>
<path d="M39.2578 18.3006C37.7889 17.4463 34.4018 16.2377 32.6055 18.2378" stroke="#1E293B" stroke-width="0.815213" stroke-linecap="round" stroke-linejoin="round"/>
<path d="M16.0039 18.3006C17.4729 17.4463 20.8599 16.2377 22.6562 18.2378" stroke="#1E293B" stroke-width="0.815213" stroke-linecap="round" stroke-linejoin="round"/>
<defs>
<radialGradient id="paint0_radial_11560_28304" cx="0" cy="0" r="1" gradientUnits="userSpaceOnUse" gradientTransform="translate(27.9973 -1.11881) rotate(90) scale(67.2)">
<stop stop-color="#FFE3A3" stop-opacity="0.78"/>
<stop offset="1" stop-color="#FFBB67"/>
</radialGradient>
</defs>
</svg>
