<svg width="56" height="56" viewBox="0 0 56 56" fill="none" xmlns="http://www.w3.org/2000/svg">
<path d="M29.7263 37.2605C31.6418 39.0284 35.1225 39.4608 36.3595 42.0037C36.6961 42.696 37.3957 43.139 38.1654 43.139C39.0986 43.139 39.9097 42.4959 40.1197 41.587C40.4951 39.9595 41.0122 37.2782 41.0693 34.6546C41.1598 30.4855 26.1649 33.9728 29.727 37.2605H29.7263Z" fill="#FBC6BA"/>
<path d="M35.9745 38.7556C39.4252 38.7556 42.2225 36.8092 42.2225 34.4081C42.2225 32.007 39.4252 30.0605 35.9745 30.0605C32.5239 30.0605 29.7266 32.007 29.7266 34.4081C29.7266 36.8092 32.5239 38.7556 35.9745 38.7556Z" fill="#E17B87"/>
<path d="M30.4824 37.822C33.933 37.822 36.7303 35.8756 36.7303 33.4745C36.7303 31.0734 33.933 29.127 30.4824 29.127C27.0317 29.127 24.2344 31.0734 24.2344 33.4745C24.2344 35.8756 27.0317 37.822 30.4824 37.822Z" fill="#E17B87"/>
<path d="M45.1475 30.6531C45.1475 29.7114 44.8764 28.8333 44.4085 28.0918C44.2478 27.8365 44.2025 27.5255 44.2898 27.2367C44.4236 26.7944 44.4958 26.3259 44.4958 25.8403C44.4958 24.0402 43.5075 22.4725 42.0441 21.6469C41.7114 21.4593 41.4982 21.1154 41.4982 20.7335V20.7013C41.4982 18.0436 39.3437 15.8885 36.6854 15.8885C36.6775 15.8885 36.6696 15.8885 36.6624 15.8885C36.1853 15.8911 35.7351 15.6923 35.4116 15.3419C34.5323 14.3877 33.273 13.7899 31.8732 13.7899C31.6954 13.7899 31.5195 13.7997 31.3463 13.8188C30.9617 13.8614 30.5752 13.7584 30.2576 13.5372C29.6486 13.1126 28.9084 12.8633 28.1097 12.8633C26.983 12.8633 25.9724 13.3581 25.2827 14.1423C24.8962 14.582 24.2937 14.744 23.7386 14.5577C23.2589 14.3969 22.745 14.3103 22.2115 14.3103C21.3459 14.3103 20.397 14.5557 19.6404 15.0512C18.6836 15.6772 18.4054 16.5716 17.7793 17.4589C17.2898 18.1525 16.4367 18.1289 15.7135 18.3992C13.8524 19.0949 12.5859 20.9225 12.5859 22.9089C12.5859 22.9115 12.5859 22.9141 12.5859 22.9167C12.5866 23.3774 12.4435 23.8289 12.1476 24.1826C11.3122 25.1821 10.8226 26.4807 10.8659 27.8949C10.9519 30.7069 13.1896 33.0371 15.9963 33.2307C16.3665 33.2563 16.7294 33.2452 17.0824 33.2005C17.8167 33.1074 18.5314 33.5372 18.7919 34.2302C19.477 36.0519 21.2357 37.3479 23.2969 37.3479C24.6258 37.3479 25.8287 36.8085 26.6995 35.9377C27.0184 35.6188 27.506 35.5551 27.9089 35.7566C28.556 36.0801 29.285 36.2625 30.0581 36.2625C30.9656 36.2625 31.8148 36.0112 32.5393 35.5741C32.975 35.3116 33.5295 35.3858 33.8708 35.7631C34.7514 36.7363 36.0239 37.3486 37.44 37.3486C38.8562 37.3486 40.2454 36.6786 41.1287 35.626C41.2665 35.4619 41.4476 35.3418 41.6537 35.2834C43.6703 34.7099 45.1481 32.8547 45.1481 30.6544L45.1475 30.6531Z" fill="#F9939E"/>
<path d="M44.4965 25.8398C43.1295 30.2523 39.0845 29.7378 39.0845 29.7378C39.0845 33.0406 34.3853 32.0418 34.3853 32.0418C30.3796 33.3346 29.1827 29.4517 29.1827 29.4517C28.1813 30.2496 24.2321 29.4517 24.2321 29.4517C23.3954 23.3527 31.3043 25.4152 31.3043 25.4152C31.15 22.7975 32.412 22.0126 37.0817 21.5821C41.7521 21.1517 43.8035 23.3527 43.8041 23.3527C43.375 22.6439 42.7686 22.0546 42.0455 21.6471C41.7127 21.4594 41.4995 21.1156 41.4995 20.7336V20.7015C41.4995 20.542 41.4916 20.3839 41.4758 20.2283C40.8249 19.7329 40.0124 19.3037 39.0078 19.057C35.3099 18.1501 35.3873 20.1181 32.3824 20.1548C29.3782 20.1922 28.7935 21.464 26.6818 22.2029C24.57 22.9419 22.8297 21.5041 21.1642 23.352C19.498 25.1999 17.7938 25.4145 17.7938 25.4145C15.4536 26.0891 12.561 23.2516 13.4626 20.1548C12.9068 20.9502 12.5859 21.9089 12.5859 22.9084C12.5859 22.911 12.5859 22.9136 12.5859 22.9163C12.5866 23.3769 12.4435 23.8284 12.1476 24.1821C11.3122 25.1816 10.8226 26.4803 10.8659 27.8944C10.9519 30.7064 13.1896 33.0367 15.9963 33.2302C16.3665 33.2558 16.7294 33.2447 17.0824 33.2001C17.8167 33.1069 18.5314 33.5367 18.7919 34.2297C19.477 36.0514 21.2357 37.3474 23.2969 37.3474C24.6258 37.3474 25.8287 36.808 26.6995 35.9372C27.0184 35.6183 27.506 35.5546 27.9089 35.7561C28.556 36.0796 29.285 36.262 30.0581 36.262C30.9656 36.262 31.8148 36.0107 32.5393 35.5736C32.975 35.3112 33.5295 35.3853 33.8708 35.7626C34.7514 36.7358 36.0239 37.3481 37.44 37.3481C38.8562 37.3481 40.2454 36.6781 41.1287 35.6255C41.2665 35.4614 41.4476 35.3413 41.6537 35.2829C43.6703 34.7094 45.1481 32.8542 45.1481 30.6539C45.1481 29.7122 44.8771 28.8342 44.4092 28.0926C44.2484 27.8373 44.2031 27.5263 44.2904 27.2375C44.4243 26.7952 44.4965 26.3267 44.4965 25.8411V25.8398Z" fill="#F98794"/>
<path d="M18.1433 31.7717C18.1282 31.7717 18.1125 31.7717 18.0967 31.7697C17.7463 31.7448 17.4831 31.4409 17.5074 31.0912C17.5127 31.0216 17.638 29.3614 18.6046 27.6276C19.5096 26.0041 21.3405 24.0104 24.9235 23.7322C25.9236 23.6541 26.5726 23.1252 27.3246 22.5129C28.3825 21.6506 29.6923 20.5843 32.2365 20.7667C33.1762 20.0042 36.8433 17.4665 40.8391 20.5364C41.118 20.7503 41.1705 21.1499 40.9559 21.4288C40.7419 21.7077 40.3423 21.7602 40.0634 21.5456C36.3275 18.6753 33.026 21.751 32.8875 21.8836C32.753 22.0122 32.5673 22.0765 32.3815 22.0575C30.1779 21.8291 29.1831 22.6409 28.1285 23.4999C27.2879 24.185 26.419 24.8931 25.0219 25.002C19.2694 25.4496 18.7943 30.9481 18.7772 31.1824C18.7523 31.5171 18.4734 31.7723 18.1426 31.7723L18.1433 31.7717Z" fill="#E17B87"/>
<path d="M16.2051 28.4781C16.0024 28.4781 15.8035 28.3816 15.6802 28.2018C15.4813 27.9117 15.5548 27.516 15.8442 27.3165C17.7407 26.0133 19.5604 26.7699 19.6372 26.8027C19.9601 26.9412 20.1097 27.3159 19.9713 27.6388C19.8328 27.9603 19.4607 28.1099 19.1391 27.9741C19.0768 27.9491 17.8628 27.474 16.5661 28.3652C16.4558 28.4407 16.3305 28.4774 16.2065 28.4774L16.2051 28.4781Z" fill="#E17B87"/>
<path d="M29.534 18.4251C29.3109 18.4251 29.0943 18.3076 28.9775 18.0989C28.064 16.4636 25.6832 16.2497 25.6596 16.2477C25.3098 16.2188 25.0487 15.9124 25.0762 15.5626C25.1044 15.2128 25.407 14.951 25.7594 14.9786C25.8847 14.9884 28.8397 15.2417 30.0892 17.4781C30.2604 17.7853 30.1509 18.1731 29.8437 18.3444C29.7453 18.3995 29.639 18.4251 29.534 18.4251Z" fill="#E17B87"/>
<path d="M27.9149 20.1556C27.8532 20.1556 27.7909 20.1464 27.7292 20.1274C27.3952 20.0243 27.2062 19.6752 27.3059 19.3405C27.321 19.29 27.6879 18.099 28.9176 17.4736C29.8967 16.9761 31.1081 16.9775 32.5184 17.4782C32.8498 17.5956 33.023 17.9598 32.9056 18.2912C32.7881 18.6226 32.4245 18.7952 32.0931 18.6784C31.0333 18.3024 30.1645 18.2761 29.5109 18.601C28.7674 18.9698 28.5337 19.6798 28.5239 19.71C28.4379 19.981 28.1859 20.1562 27.9149 20.1562V20.1556Z" fill="#E17B87"/>
<path d="M16.6659 22.7964C16.6659 22.7964 16.6606 22.7964 16.658 22.7964C16.3063 22.7924 16.0248 22.5037 16.0294 22.1526C16.0431 20.9799 16.8345 19.884 18.0932 19.2927C19.6294 18.5715 21.3625 18.8025 22.7308 19.9109C23.0038 20.1321 23.0458 20.533 22.8246 20.806C22.6035 21.079 22.2025 21.121 21.9295 20.8999C20.9498 20.1058 19.7187 19.9359 18.6346 20.4444C17.8333 20.8204 17.3103 21.497 17.3024 22.167C17.2985 22.5162 17.0137 22.7957 16.6659 22.7957V22.7964Z" fill="#E17B87"/>
<path d="M35.3469 24.6464C35.0182 24.6464 34.7399 24.3938 34.713 24.0604C34.606 22.7204 32.4333 22.0195 32.4116 22.0129C32.0756 21.9099 31.886 21.5542 31.989 21.2182C32.092 20.8823 32.4484 20.6926 32.7837 20.7956C32.9071 20.833 35.805 21.7439 35.9822 23.9593C36.0104 24.3098 35.7485 24.6169 35.3981 24.6444C35.3811 24.6457 35.364 24.6464 35.3469 24.6464Z" fill="#E17B87"/>
<path d="M26.802 34.6321C26.6078 34.6321 26.4162 34.5429 26.2915 34.3749C26.2344 34.2975 24.8944 32.4475 25.4587 29.948C25.5362 29.6047 25.8774 29.3895 26.22 29.4669C26.5632 29.5444 26.7784 29.885 26.701 30.2282C26.2685 32.1431 27.3073 33.6058 27.3178 33.6202C27.5232 33.9037 27.4615 34.3021 27.1794 34.5088C27.0658 34.5921 26.9339 34.6321 26.8033 34.6321H26.802Z" fill="#E17B87"/>
<path d="M26.9161 30.5642C25.9173 30.5642 25.1213 30.3233 24.5379 30.0497C23.3613 29.4971 22.7693 28.6847 22.7444 28.6506C22.5397 28.3651 22.6046 27.9675 22.8901 27.7621C23.1742 27.558 23.5706 27.6216 23.7767 27.9051C23.8554 28.0114 25.6016 30.2872 29.3179 28.7753C29.6434 28.6427 30.0148 28.7996 30.1474 29.125C30.2799 29.4505 30.1231 29.822 29.7976 29.9545C28.7036 30.3994 27.7403 30.5642 26.9154 30.5642H26.9161Z" fill="#E17B87"/>
<path d="M34.6962 30.5659C34.6674 30.5659 34.6385 30.5639 34.609 30.56C34.2605 30.5121 34.017 30.1912 34.0643 29.8434C34.4869 26.7532 30.7871 25.7629 30.6289 25.7222C30.289 25.6343 30.0836 25.2885 30.1702 24.9479C30.2568 24.608 30.602 24.4019 30.9426 24.4885C32.6606 24.9236 35.7869 26.6397 35.3249 30.016C35.2816 30.3349 35.0079 30.5665 34.6949 30.5665L34.6962 30.5659Z" fill="#E17B87"/>
<path d="M40.9918 32.6789C40.7103 32.6789 40.453 32.4906 40.3769 32.2058C40.3356 32.0562 39.3762 28.7809 34.7044 29.1819C34.356 29.2107 34.0456 28.9522 34.0161 28.6018C33.9859 28.2513 34.2457 27.9429 34.5962 27.9134C37.584 27.6574 39.3283 28.731 40.2647 29.676C41.295 30.7161 41.5955 31.8337 41.608 31.8809C41.6966 32.2209 41.4932 32.5687 41.1532 32.6579C41.0994 32.6724 41.045 32.6789 40.9918 32.6789Z" fill="#E17B87"/>
<path d="M38.3653 29.7366C38.3109 29.7366 38.2551 29.7293 38.2 29.7142C37.8627 29.623 37.6612 29.2805 37.7491 28.9425C37.9992 27.9818 39.2106 26.168 42.0054 26.168H42.0159C42.3677 26.168 42.6518 26.4541 42.6512 26.8058C42.6512 27.1569 42.3657 27.4411 42.0146 27.4411C42.0094 27.4411 42.0081 27.4411 42.0048 27.4411C39.5216 27.4411 39.0006 29.1945 38.9796 29.2693C38.9008 29.5502 38.6436 29.7366 38.3647 29.7366H38.3653Z" fill="#E17B87"/>
<path d="M19.5019 20.1882C19.2518 20.1882 19.013 20.0393 18.9099 19.7945C18.8771 19.717 18.1317 17.8724 20.1181 16.2128C20.3878 15.987 20.7894 16.0231 21.0145 16.2928C21.2396 16.5625 21.2041 16.9642 20.9344 17.1892C19.7125 18.2103 20.0452 19.1993 20.0866 19.3089C20.2231 19.633 20.0689 20.0018 19.7453 20.1377C19.6659 20.1712 19.5832 20.1869 19.5012 20.1869L19.5019 20.1882Z" fill="#E17B87"/>
<g clip-path="url(#clip0_11560_28261)">
<circle cx="20.6602" cy="34.6621" r="6" fill="#FFDFDF"/>
<rect x="22.2832" y="32.0527" width="1.63567" height="5.97441" rx="0.375814" transform="rotate(45 22.2832 32.0527)" fill="#F27373"/>
<rect x="23.4336" y="36.2754" width="1.63566" height="5.97441" rx="0.375814" transform="rotate(135 23.4336 36.2754)" fill="#F27373"/>
</g>
<defs>
<clipPath id="clip0_11560_28261">
<rect width="12" height="12" fill="white" transform="translate(14.6602 28.6621)"/>
</clipPath>
</defs>
</svg>
