<svg width="56" height="56" viewBox="0 0 56 56" fill="none" xmlns="http://www.w3.org/2000/svg">
<path d="M45.4615 22.3358C45.4615 34.0052 29.4938 43.4508 28.8138 43.8408C28.6346 43.9453 28.4343 44 28.2308 44C28.0273 44 27.8269 43.9453 27.6477 43.8408C26.9677 43.4508 11 34.0052 11 22.3358C11.0029 19.5955 12.0087 16.9684 13.7969 15.0307C15.5851 13.093 18.0096 12.0031 20.5385 12C23.7154 12 26.4969 14.5874 28.2308 17.0897C29.9646 14.5874 32.7462 12 35.9231 12C38.452 12.0031 40.8765 13.093 42.6646 15.0307C44.4528 16.9684 45.4587 19.5955 45.4615 22.3358Z" fill="#F8A9A9"/>
<path d="M41 23.7518C41 32.5039 28.9529 39.5881 28.4399 39.8806C28.3047 39.959 28.1535 40 28 40C27.8465 40 27.6953 39.959 27.5601 39.8806C27.0471 39.5881 15 32.5039 15 23.7518C15.0022 21.6966 15.761 19.7263 17.1102 18.273C18.4593 16.8198 20.2885 16.0023 22.1964 16C24.5933 16 26.6919 17.9406 28 19.8173C29.3081 17.9406 31.4067 16 33.8036 16C35.7115 16.0023 37.5407 16.8198 38.8898 18.273C40.239 19.7263 40.9979 21.6966 41 23.7518Z" fill="#E84B4B"/>
<path d="M27.9323 33.7453C22.2859 33.7453 20.7773 27.8593 21.4592 24.0028C21.4889 23.8349 21.7089 23.7866 21.8048 23.9275C22.1016 24.3639 22.3658 24.9942 22.8035 24.9394C23.4614 24.8572 23.9172 19.0518 27.8165 17.4184C27.9402 17.3665 28.0697 17.4649 28.0561 17.5983C27.8633 19.4901 28.9991 22.1984 31.0114 22.1984C32.1649 22.1984 32.9541 21.2777 33.3485 20.3532C33.4683 20.0723 33.8787 20.1077 33.9474 20.4052C34.6511 23.4531 36.5323 33.7453 27.9323 33.7453Z" fill="#FFB770"/>
<path fill-rule="evenodd" clip-rule="evenodd" d="M25.8594 25.5884C25.9921 25.4768 26.1937 25.5534 26.2239 25.7242C26.2944 26.1238 26.5264 26.8106 27.2872 26.8106C28.2025 26.8106 28.8236 24.2921 28.9865 23.5514C29.0133 23.4295 29.1321 23.3468 29.2544 23.3717C31.5417 23.8367 32.6538 31.2641 27.6246 31.2641C23.9634 31.2641 24.7929 26.4843 25.8594 25.5884Z" fill="white"/>
</svg>
