<svg width="56" height="56" viewBox="0 0 56 56" fill="none" xmlns="http://www.w3.org/2000/svg">
<path d="M45.4615 22.3358C45.4615 34.0052 29.4938 43.4508 28.8138 43.8408C28.6346 43.9453 28.4343 44 28.2308 44C28.0273 44 27.8269 43.9453 27.6477 43.8408C26.9677 43.4508 11 34.0052 11 22.3358C11.0029 19.5955 12.0087 16.9684 13.7969 15.0307C15.5851 13.093 18.0096 12.0031 20.5385 12C23.7154 12 26.4969 14.5874 28.2308 17.0897C29.9646 14.5874 32.7462 12 35.9231 12C38.452 12.0031 40.8765 13.093 42.6646 15.0307C44.4528 16.9684 45.4587 19.5955 45.4615 22.3358Z" fill="#F8A9A9"/>
<path d="M28.2337 40.5529C28.3907 40.5529 28.5453 40.5107 28.6835 40.4299C28.9341 40.286 31.8755 38.5457 34.8799 35.7843H21.5876C24.592 38.5457 27.5333 40.286 27.7839 40.4299C27.9222 40.5107 28.0767 40.5529 28.2337 40.5529Z" fill="#E84B4B"/>
<path d="M21.5876 35.7843H34.8799C36.0271 34.7298 37.1836 33.5264 38.2029 32.2062H18.2645C19.2838 33.5264 20.4403 34.7298 21.5876 35.7843Z" fill="#E84B4B"/>
</svg>
