<svg width="56" height="56" viewBox="0 0 56 56" fill="none" xmlns="http://www.w3.org/2000/svg">
<path d="M48.768 28.384C48.768 39.6418 39.6418 48.768 28.384 48.768C17.1262 48.768 8 39.6418 8 28.384C8 17.1262 17.1262 8 28.384 8C39.6418 8 48.768 17.1262 48.768 28.384Z" fill="url(#paint0_radial_18814_38746)"/>
<path d="M38.0372 25.9204C38.0372 26.6229 37.8234 27.251 37.4875 27.6988C37.1516 28.1467 36.7032 28.4046 36.225 28.4046C35.7468 28.4046 35.2984 28.1467 34.9625 27.6988C34.6266 27.251 34.4128 26.6229 34.4128 25.9204C34.4128 25.218 34.6266 24.5899 34.9625 24.142C35.2984 23.6942 35.7468 23.4362 36.225 23.4362C36.7032 23.4362 37.1516 23.6942 37.4875 24.142C37.8234 24.5899 38.0372 25.218 38.0372 25.9204Z" fill="#334155" stroke="#334155" stroke-width="0.407606"/>
<path d="M22.1329 25.9204C22.1329 26.6229 21.9191 27.251 21.5832 27.6988C21.2473 28.1467 20.7989 28.4046 20.3207 28.4046C19.8425 28.4046 19.3941 28.1467 19.0582 27.6988C18.7223 27.251 18.5085 26.6229 18.5085 25.9204C18.5085 25.218 18.7223 24.5899 19.0582 24.142C19.3941 23.6942 19.8425 23.4362 20.3207 23.4362C20.7989 23.4362 21.2473 23.6942 21.5832 24.142C21.9191 24.5899 22.1329 25.218 22.1329 25.9204Z" fill="#334155" stroke="#334155" stroke-width="0.407606"/>
<g filter="url(#filter0_f_18814_38746)">
<ellipse cx="5.06531" cy="2.53266" rx="5.06531" ry="2.53266" transform="matrix(0.5 0.866025 0.866025 -0.5 10.2402 33.6055)" fill="url(#paint1_radial_18814_38746)"/>
</g>
<g filter="url(#filter1_f_18814_38746)">
<ellipse cx="41.6666" cy="36.7258" rx="5.06531" ry="2.53266" transform="rotate(120 41.6666 36.7258)" fill="url(#paint2_radial_18814_38746)"/>
</g>
<path d="M16.25 22.2299C17.9484 22.2978 21.5081 21.7815 22.1603 19.1729" stroke="#334155" stroke-width="1.12" stroke-linecap="round" stroke-linejoin="round"/>
<path d="M39.2793 21.8227C37.5809 21.8906 34.0212 21.3743 33.369 18.7656" stroke="#334155" stroke-width="1.12" stroke-linecap="round" stroke-linejoin="round"/>
<path d="M21.2168 32.8652C22.305 33.2575 24.2855 34.7923 23.502 37.7932" stroke="#334155" stroke-width="0.760866" stroke-linecap="round" stroke-linejoin="round"/>
<path d="M35.3301 32.8652C34.3408 33.2575 32.5404 34.7923 33.2526 37.7932" stroke="#334155" stroke-width="0.760866" stroke-linecap="round" stroke-linejoin="round"/>
<path d="M33.3136 35.1101C31.6461 33.8202 27.6838 32.2334 23.6816 35.3291" stroke="#334155" stroke-width="0.760866" stroke-linecap="round" stroke-linejoin="round"/>
<defs>
<filter id="filter0_f_18814_38746" x="8.11524" y="28.6592" width="13.7012" height="16.1338" filterUnits="userSpaceOnUse" color-interpolation-filters="sRGB">
<feFlood flood-opacity="0" result="BackgroundImageFix"/>
<feBlend mode="normal" in="SourceGraphic" in2="BackgroundImageFix" result="shape"/>
<feGaussianBlur stdDeviation="1.75" result="effect1_foregroundBlur_18814_38746"/>
</filter>
<filter id="filter1_f_18814_38746" x="34.8164" y="28.6592" width="13.7012" height="16.1338" filterUnits="userSpaceOnUse" color-interpolation-filters="sRGB">
<feFlood flood-opacity="0" result="BackgroundImageFix"/>
<feBlend mode="normal" in="SourceGraphic" in2="BackgroundImageFix" result="shape"/>
<feGaussianBlur stdDeviation="1.75" result="effect1_foregroundBlur_18814_38746"/>
</filter>
<radialGradient id="paint0_radial_18814_38746" cx="0" cy="0" r="1" gradientUnits="userSpaceOnUse" gradientTransform="translate(28.384 -0.735999) rotate(90) scale(55.7555)">
<stop stop-color="white" stop-opacity="0.73"/>
<stop offset="0.73514" stop-color="#A0C37C"/>
</radialGradient>
<radialGradient id="paint1_radial_18814_38746" cx="0" cy="0" r="1" gradientUnits="userSpaceOnUse" gradientTransform="translate(5.06531 2.53266) rotate(90) scale(2.53266 5.06531)">
<stop stop-color="#F48B91"/>
<stop offset="1" stop-color="#F48B91" stop-opacity="0"/>
</radialGradient>
<radialGradient id="paint2_radial_18814_38746" cx="0" cy="0" r="1" gradientUnits="userSpaceOnUse" gradientTransform="translate(41.6666 36.7258) rotate(90) scale(2.53266 5.06531)">
<stop stop-color="#F48B91"/>
<stop offset="1" stop-color="#F48B91" stop-opacity="0"/>
</radialGradient>
</defs>
</svg>
