<svg width="56" height="56" viewBox="0 0 56 56" fill="none" xmlns="http://www.w3.org/2000/svg">
<path d="M11.4935 35.123C6.37033 32.4415 2.06595 39.5437 0.875 41.2272C0.875 42.169 2.97256 43.6601 3.72328 44.6232C4.18583 43.659 4.65035 42.435 5.21502 41.3075C6.95828 37.8269 10.8655 40.2645 14.3415 42.0172C14.4182 42.0558 14.4948 42.0938 14.5714 42.1309C17.2691 43.4409 20.4141 43.8619 23.3883 43.4777C28.1215 42.8664 35.0802 40.1141 36.7699 29.0141C38.7012 16.3267 29.2729 15.075 23.4052 16.1459C22.6746 16.2793 21.9002 16.2799 21.2722 15.8833C16.7752 13.0425 14.8919 3.32324 14.8919 3.32324C14.8919 3.32324 12.8185 3.92966 12.1035 4.28638C11.5405 9.02171 15.9918 17.1053 19.9084 18.8971C20.3292 19.0896 20.6219 19.5229 20.5604 19.9815C20.0264 23.9653 20.743 26.323 21.6483 30.9403C22.3423 34.4798 17.6165 35.6508 14.255 35.9098C13.2815 35.9848 12.3585 35.5758 11.4935 35.123Z" fill="#FFCFC8"/>
<path fill-rule="evenodd" clip-rule="evenodd" d="M9.69319 29.8484C9.56163 29.5753 9.67634 29.2473 9.94938 29.1158L12.1666 28.0476C12.3067 27.98 12.4689 27.9752 12.6129 28.0341C12.7568 28.0931 12.869 28.2105 12.9214 28.357L13.2526 29.2819L15.0157 28.2613C15.278 28.1095 15.6138 28.199 15.7656 28.4614C15.9174 28.7237 15.8278 29.0594 15.5655 29.2113L13.2327 30.5616C13.0919 30.6432 12.922 30.6579 12.7691 30.602C12.6162 30.5459 12.496 30.4249 12.4411 30.2716L12.0936 29.301L10.4258 30.1046C10.1527 30.2361 9.82475 30.1214 9.69319 29.8484Z" fill="#F48B91"/>
<path fill-rule="evenodd" clip-rule="evenodd" d="M15.0672 23.4828C14.9799 23.773 14.6737 23.9375 14.3835 23.8502L12.0268 23.1411C11.8779 23.0962 11.7549 22.9903 11.6886 22.8495C11.6222 22.7088 11.6187 22.5466 11.679 22.4031L12.0592 21.4973L10.0697 21.0595C9.77365 20.9944 9.58648 20.7016 9.65161 20.4056C9.71673 20.1096 10.0095 19.9224 10.3055 19.9875L12.938 20.5667C13.097 20.6017 13.2323 20.7055 13.3072 20.85C13.3822 20.9946 13.3891 21.165 13.326 21.3151L12.927 22.2657L14.6998 22.7992C14.9901 22.8865 15.1545 23.1926 15.0672 23.4828Z" fill="#F48B91"/>
<path fill-rule="evenodd" clip-rule="evenodd" d="M46.2385 29.8484C46.37 29.5753 46.2553 29.2473 45.9823 29.1158L43.7651 28.0476C43.6249 27.98 43.4627 27.9752 43.3187 28.0341C43.1748 28.0931 43.0626 28.2105 43.0102 28.357L42.679 29.2819L40.916 28.2613C40.6537 28.1095 40.3179 28.199 40.166 28.4614C40.0142 28.7237 40.1038 29.0594 40.3661 29.2113L42.6989 30.5616C42.8398 30.6432 43.0097 30.6579 43.1626 30.602C43.3155 30.5459 43.4356 30.4249 43.4905 30.2716L43.838 29.301L45.5058 30.1046C45.7789 30.2361 46.1069 30.1214 46.2385 29.8484Z" fill="#F48B91"/>
<path fill-rule="evenodd" clip-rule="evenodd" d="M40.8644 23.4828C40.9518 23.773 41.2579 23.9375 41.5481 23.8502L43.9048 23.1411C44.0538 23.0962 44.1767 22.9903 44.2431 22.8495C44.3094 22.7088 44.3129 22.5466 44.2527 22.4031L43.8724 21.4973L45.862 21.0595C46.158 20.9944 46.3452 20.7016 46.28 20.4056C46.2149 20.1096 45.9222 19.9224 45.6261 19.9875L42.9937 20.5667C42.8347 20.6017 42.6994 20.7055 42.6244 20.85C42.5495 20.9946 42.5425 21.165 42.6056 21.3151L43.0046 22.2657L41.2318 22.7992C40.9416 22.8865 40.7771 23.1926 40.8644 23.4828Z" fill="#F48B91"/>
</svg>
