<svg width="56" height="56" viewBox="0 0 56 56" fill="none" xmlns="http://www.w3.org/2000/svg">
<g clip-path="url(#clip0_18814_38951)">
<path d="M15.6564 44.9989C14.5292 44.9989 13.5309 44.8621 12.6896 44.5927C11.6909 44.2729 10.9463 43.7729 10.4761 43.1073C9.96664 42.3858 9.68484 41.1202 9.63856 39.3459C9.59807 37.7972 9.74269 36.2618 9.83277 35.4846C10.1852 32.4372 9.57576 28.8118 9.18116 26.9219C9.13942 26.7215 5 6.63838 5 -2.55529L25.2207 -2.99121C25.2186 -2.85072 24.9967 11.1823 24.3691 22.8101C24.3459 23.237 24.3674 23.6737 24.4323 24.1088C24.6265 25.4096 25.2124 26.7326 26.1272 27.9346C26.188 28.0144 26.4326 28.399 27.1908 28.9131C27.6999 29.2581 27.9226 29.3114 29.0403 29.9233C31.8517 31.4625 32.7748 32.205 34.0528 33.2326C34.159 33.3182 36.3613 35.2069 36.8431 35.6751C37.1361 35.9602 38.0773 36.7023 38.2802 36.8622C38.5372 37.0651 38.7591 37.2407 38.8909 37.2919C38.9025 37.2964 38.9099 37.2985 38.9145 37.2998C38.9847 37.2894 39.5835 37.3473 39.7277 37.4109C39.8268 37.3948 39.9549 37.382 40.1124 37.382C40.3194 37.382 40.5433 37.4039 40.778 37.4477C40.9821 37.4857 41.1416 37.5625 41.2561 37.6361C41.3933 37.6299 41.5924 37.6229 41.811 37.6229C42.1469 37.6229 42.4296 37.639 42.6515 37.6708C43.1018 37.7353 43.3812 37.9373 43.5477 38.1216C43.6237 38.1183 43.7101 38.1158 43.8026 38.1158C44.2968 38.1158 44.6844 38.1815 44.9546 38.3109C45.3587 38.5042 45.6575 38.9385 45.8546 39.3219C45.8546 39.3219 46.3372 39.3067 46.4231 39.3067C46.9111 39.3067 47.4623 39.3666 47.8499 39.8095C48.1656 40.1702 48.2734 40.7367 48.1457 41.3644C48.1259 41.4619 47.9144 42.1044 47.7458 42.4094C46.6277 44.4324 43.9605 44.2956 43.8473 44.2956C43.0151 44.2956 42.2945 44.115 41.7156 43.9696C41.3057 43.8667 40.952 43.7783 40.6731 43.7783C40.552 43.7783 40.1991 43.8663 39.9859 43.9233C37.3319 44.6295 35.7349 44.5377 35.656 44.5361C33.3599 44.4927 32.1645 44.3968 30.7071 43.9122C29.7002 43.5775 28.6548 43.4283 27.3168 43.4283C26.5801 43.4283 25.7483 43.4729 24.7744 43.5647C23.4621 43.6882 22.7134 43.8845 21.8461 44.1122C20.754 44.3985 19.5161 44.7233 16.8939 44.9464C16.4749 44.9819 16.0584 45.0001 15.6551 45.0001L15.6564 44.9989Z" fill="#FCFCFC"/>
<path d="M47.6649 41.2647C47.6496 41.3407 47.6293 41.4196 47.6045 41.5015C47.5417 41.7089 47.4475 41.932 47.3165 42.1696C46.7814 43.1369 45.7931 43.7133 44.1056 43.7955C42.4177 43.8778 41.2144 43.1142 40.3496 43.3199C39.4852 43.5257 37.8485 44.0839 35.6664 44.0426C33.4847 44.0017 32.3042 43.9228 30.8634 43.4439C29.4226 42.965 27.7888 42.7853 24.7299 43.0733C21.671 43.3613 21.4776 44.0612 16.8539 44.4546C14.4524 44.6587 11.9141 44.2897 10.8782 42.8229C9.84275 41.356 10.1055 37.4091 10.3216 35.5402C10.7055 32.2231 9.98572 28.3663 9.66301 26.8205C9.20354 24.6198 5.49219 6.06805 5.49219 -2.55623L6.60286 -2.58184L23.9064 -2.98099L24.7299 -3C24.7299 -3 24.5134 11.0293 23.8787 22.7823C23.8535 23.2526 23.8779 23.7199 23.9469 24.1802C24.1654 25.6446 24.829 27.0379 25.7368 28.2312C25.7848 28.2944 25.8335 28.3564 25.8827 28.4184C26.1831 28.796 26.6041 29.1072 26.9161 29.3187C27.9491 30.0195 26.9161 29.3187 28.8057 30.3534C31.8109 31.9987 32.6083 32.7045 34.0748 33.8788C36.1015 35.5018 36.706 36.3125 37.2444 36.6927C37.9617 37.1992 38.3791 37.6186 38.7138 37.7488C38.808 37.7856 38.8951 37.7992 38.9811 37.7856C39.372 37.724 39.66 37.9298 39.66 37.9298C39.66 37.9298 39.9938 37.8009 40.6892 37.9298C40.9591 37.9798 41.1012 38.1355 41.1012 38.1355C41.1012 38.1355 42.0069 38.074 42.5834 38.1562C43.1598 38.2384 43.3036 38.6297 43.3036 38.6297C43.3036 38.6297 44.2709 38.5268 44.7444 38.7533C45.1039 38.9252 45.3807 39.4536 45.4927 39.6974C45.5282 39.7747 45.5472 39.8235 45.5472 39.8235L46.1439 39.8028C46.7409 39.7821 47.1938 39.8028 47.4818 40.1321C47.6715 40.349 47.7719 40.7445 47.6661 41.2651L47.6649 41.2647Z" fill="#FFBF9D"/>
<path d="M38.7135 37.7487L38.2367 37.9367C38.2367 37.9367 33.8749 34.2526 31.4924 32.7407C28.9294 31.1148 25.9651 29.612 24.154 30.0876C22.357 30.5595 19.3436 32.2999 19.2969 32.3271C19.3394 32.2817 22.5 28.9116 23.9474 24.1797C24.1776 25.7213 24.9007 27.1845 25.8828 28.4179C26.1832 28.7955 26.6043 29.1067 26.9163 29.3182C27.9493 30.019 26.9163 29.3182 28.8058 30.3529C31.811 31.9982 32.7285 32.3536 34.1949 33.5279C36.2217 35.1509 36.6109 35.7716 37.1493 36.1517C37.8666 36.6583 38.3792 37.6181 38.7139 37.7483L38.7135 37.7487Z" fill="#FCB08D"/>
<path d="M25.7334 28.2312L22.3047 28.0254C23.8612 22.6604 23.9021 -2.19674 23.9033 -2.98099L24.7269 -3C24.7269 -3 24.5103 11.0293 23.8757 22.7823C23.8505 23.2526 23.8748 23.7199 23.9438 24.1802C24.1624 25.6446 24.826 27.0379 25.7338 28.2312H25.7334Z" fill="#FCB08D"/>
</g>
<defs>
<clipPath id="clip0_18814_38951">
<rect width="56" height="56" rx="28" fill="white"/>
</clipPath>
</defs>
</svg>
