<svg width="56" height="56" viewBox="0 0 56 56" fill="none" xmlns="http://www.w3.org/2000/svg">
<g clip-path="url(#clip0_18814_38967)">
<path d="M15.8657 42.0703H39.2043C41.341 42.0703 43.07 40.3413 43.07 38.2046V14.866C43.07 12.7293 41.341 11.0003 39.2043 11.0003H15.8657C13.729 11.0003 12 12.7293 12 14.866V38.2046C12 40.3413 13.7356 42.0703 15.8657 42.0703Z" fill="#DDDDDD"/>
<path d="M20.9618 21.085H34.1103C34.4522 21.085 34.702 20.7891 34.6757 20.4473C34.3535 16.7854 31.2834 13.919 27.536 13.919C23.7953 13.919 20.7185 16.792 20.3964 20.4473C20.3701 20.7891 20.6265 21.085 20.9618 21.085Z" fill="white"/>
<path d="M28.2729 18.1357L26.9116 16.4576C26.7673 16.2797 26.4819 16.4209 26.5358 16.6435L27.0435 18.7438C27.1518 19.1916 27.6542 19.416 28.0599 19.1979C28.4484 18.989 28.5508 18.4782 28.2729 18.1357Z" fill="#4B5A66"/>
<path d="M38.1126 46.3249C38.1126 46.3249 39.8911 35.9535 40.3519 34.0861C40.8207 32.2188 42.5021 29.9715 38.4845 27.3604C34.4669 24.7413 32.8825 24.0865 32.3166 28.573C31.7507 33.0595 33.6262 43.8028 32.3166 47.3516L38.1126 46.3249Z" fill="#E8977B"/>
<path d="M41.4789 58.9844L38.1161 44.9267C38.1161 44.9267 35.1251 42.4046 32.0452 44.9267L31.1641 61.8945C34.8179 61.4903 38.2859 60.488 41.4789 58.9844Z" fill="#585858"/>
<path d="M35.3242 28.3555L35.7042 26.0031" stroke="#B55F48" stroke-width="0.404188" stroke-miterlimit="10" stroke-linecap="round"/>
<path d="M37.0996 28.2256L37.4957 26.8433" stroke="#B55F48" stroke-width="0.404188" stroke-miterlimit="10" stroke-linecap="round"/>
<path d="M38.6934 29.2441L38.9682 27.9669" stroke="#B55F48" stroke-width="0.404188" stroke-miterlimit="10" stroke-linecap="round"/>
<path d="M40.0879 30.376L40.5164 29.2281" stroke="#B55F48" stroke-width="0.404188" stroke-miterlimit="10" stroke-linecap="round"/>
<path d="M17.0707 46.4304C17.0707 46.4304 15.2923 36.0589 14.8315 34.1916C14.3627 32.3242 12.6812 30.077 16.6989 27.4659C20.7165 24.8468 22.3009 24.192 22.8668 28.6785C23.4246 33.165 21.5572 43.9083 22.8668 47.457L17.0707 46.4304Z" fill="#E8977B"/>
<path d="M13.7012 59.0898L17.064 45.0322C17.064 45.0322 20.055 42.5101 23.135 45.0322L24.0161 62C20.3622 61.5958 16.8862 60.5934 13.7012 59.0898Z" fill="#585858"/>
<path d="M20.5421 28.291L20.1621 25.9386" stroke="#B55F48" stroke-width="0.404188" stroke-miterlimit="10" stroke-linecap="round"/>
<path d="M18.765 28.1611L18.377 26.7788" stroke="#B55F48" stroke-width="0.404188" stroke-miterlimit="10" stroke-linecap="round"/>
<path d="M17.1813 29.1807L16.8984 27.8953" stroke="#B55F48" stroke-width="0.404188" stroke-miterlimit="10" stroke-linecap="round"/>
<path d="M15.7741 30.3115L15.3457 29.1555" stroke="#B55F48" stroke-width="0.404188" stroke-miterlimit="10" stroke-linecap="round"/>
</g>
<defs>
<clipPath id="clip0_18814_38967">
<rect width="56" height="56" rx="28" fill="white"/>
</clipPath>
</defs>
</svg>
