<svg width="56" height="56" viewBox="0 0 56 56" fill="none" xmlns="http://www.w3.org/2000/svg">
<path fill-rule="evenodd" clip-rule="evenodd" d="M24.2721 8.26172C25.3252 8.26172 26.179 9.11223 26.179 10.1614V10.603C26.179 11.4523 26.8701 12.1408 27.7226 12.1408H28.5693C31.0605 12.1408 33.0801 14.1527 33.0801 16.6345C33.0801 19.1163 31.0605 21.1282 28.5693 21.1282H17.7796C17.3534 21.1282 17.0078 21.4725 17.0078 21.8971C17.0078 22.3218 17.3534 22.6661 17.7796 22.6661H32.7463C35.2876 22.6661 37.3478 24.7184 37.3478 27.2502C37.3478 29.782 35.2876 31.8344 32.7463 31.8344H16.1906C15.7894 31.8344 15.4641 32.1584 15.4641 32.5581C15.4641 32.9577 15.7894 33.2817 16.1906 33.2817H28.4945C31.027 33.2817 33.0801 35.327 33.0801 37.85C33.0801 40.3729 31.027 42.4182 28.4945 42.4182H26.6784C25.2491 42.4182 24.0905 43.5724 24.0905 44.9963V45.7652C24.0905 46.8144 23.2368 47.6649 22.1836 47.6649C21.1305 47.6649 20.2767 46.8144 20.2767 45.7652V44.9963C20.2767 41.4741 23.1429 38.6189 26.6784 38.6189H28.4945C28.9207 38.6189 29.2663 38.2746 29.2663 37.85C29.2663 37.4253 28.9207 37.081 28.4945 37.081H16.1906C13.6831 37.081 11.6504 35.056 11.6504 32.5581C11.6504 30.0601 13.6831 28.035 16.1906 28.035H32.7463C33.1814 28.035 33.5341 27.6837 33.5341 27.2502C33.5341 26.8168 33.1814 26.4654 32.7463 26.4654H17.7796C15.2471 26.4654 13.1941 24.4201 13.1941 21.8971C13.1941 19.3742 15.2471 17.3289 17.7796 17.3289H28.5693C28.9542 17.3289 29.2663 17.018 29.2663 16.6345C29.2663 16.251 28.9542 15.9402 28.5693 15.9402H27.7226C24.7638 15.9402 22.3652 13.5506 22.3652 10.603V10.1614C22.3652 9.11223 23.219 8.26172 24.2721 8.26172Z" fill="#F8A9A9"/>
<path fill-rule="evenodd" clip-rule="evenodd" d="M38.7666 23.2792C41.1979 25.6426 41.2966 29.4847 38.9869 31.8609C36.6772 34.237 32.8338 34.2473 30.4024 31.8838C27.971 29.5204 27.8724 25.6783 30.1821 23.3022C32.4918 20.926 36.3352 20.9157 38.7666 23.2792ZM37.7549 30.6633C39.4182 28.9521 39.3472 26.1852 37.5962 24.4832C35.8453 22.7811 33.0774 22.7885 31.4141 24.4997C29.7507 26.2109 29.8218 28.9778 31.5727 30.6799C33.3237 32.3819 36.0915 32.3745 37.7549 30.6633Z" fill="#FFA2A2"/>
<path d="M36.4315 25.6814C37.5053 26.7251 37.5488 28.422 36.5288 29.4714C35.5087 30.5207 33.8113 30.5253 32.7376 29.4815C31.6638 28.4377 31.6202 26.7409 32.6403 25.6915C33.6603 24.6421 35.3577 24.6376 36.4315 25.6814Z" fill="#F72A2A"/>
<path fill-rule="evenodd" clip-rule="evenodd" d="M37.6018 24.4774C39.356 26.1825 39.4272 28.9546 37.7608 30.6689C36.0944 32.3832 33.3214 32.3907 31.5672 30.6855C29.813 28.9803 29.7419 26.2083 31.4083 24.494C33.0747 22.7797 35.8476 22.7722 37.6018 24.4774ZM36.5288 29.4714C37.5488 28.422 37.5053 26.7251 36.4315 25.6814C35.3577 24.6376 33.6603 24.6421 32.6403 25.6915C31.6202 26.7409 31.6638 28.4377 32.7376 29.4815C33.8113 30.5253 35.5087 30.5207 36.5288 29.4714Z" fill="white"/>
<path fill-rule="evenodd" clip-rule="evenodd" d="M39.6136 22.6148C39.2819 22.5845 39.0376 22.2911 39.0678 21.9595L39.3133 19.2667C39.3289 19.0965 39.4159 18.9408 39.5529 18.8385C39.6897 18.7362 39.8636 18.6967 40.0313 18.73L41.09 18.9404L41.1241 16.7024C41.1291 16.3694 41.4032 16.1036 41.7362 16.1086C42.0691 16.1137 42.3349 16.3877 42.3299 16.7207L42.2848 19.6818C42.2822 19.8607 42.2001 20.0292 42.061 20.1416C41.9218 20.2541 41.74 20.2989 41.5645 20.2641L40.4535 20.0434L40.2688 22.069C40.2385 22.4007 39.9452 22.645 39.6136 22.6148Z" fill="#F27373"/>
<path fill-rule="evenodd" clip-rule="evenodd" d="M42.3011 23.1446C42.3348 23.4759 42.6308 23.7171 42.9621 23.6835L45.6522 23.4099C45.8222 23.3926 45.9769 23.304 46.0779 23.166C46.1788 23.0281 46.2164 22.8537 46.1813 22.6864L45.96 21.63L48.1975 21.5726C48.5304 21.5641 48.7934 21.2873 48.7848 20.9544C48.7763 20.6216 48.4995 20.3586 48.1666 20.3671L45.2061 20.4429C45.0273 20.4474 44.8597 20.5313 44.7487 20.6715C44.6377 20.8119 44.5947 20.9942 44.6314 21.1693L44.8636 22.2779L42.84 22.4837C42.5087 22.5174 42.2675 22.8133 42.3011 23.1446Z" fill="#F27373"/>
<path fill-rule="evenodd" clip-rule="evenodd" d="M48.9279 26.3967C48.976 26.0672 48.7478 25.7611 48.4183 25.7129L45.7427 25.3225C45.5735 25.2978 45.4019 25.3461 45.2704 25.4553C45.1389 25.5645 45.0599 25.7244 45.0531 25.8952L45.0103 26.9737L42.8263 26.4839C42.5013 26.411 42.1788 26.6154 42.1059 26.9403C42.0331 27.2652 42.2374 27.5877 42.5623 27.6606L45.452 28.3087C45.6266 28.3479 45.8095 28.3075 45.9514 28.1985C46.0932 28.0894 46.1794 27.9231 46.1865 27.7444L46.2315 26.6126L48.2442 26.9062C48.5738 26.9543 48.8798 26.7262 48.9279 26.3967Z" fill="#F27373"/>
</svg>
