<svg width="56" height="56" viewBox="0 0 56 56" fill="none" xmlns="http://www.w3.org/2000/svg">
<path d="M32.9388 38.3054L29.4939 39.0192C29.3159 39.0562 29.2004 39.2318 29.2374 39.4098L30.3956 44.9997C30.5821 45.8998 31.4709 46.4832 32.3709 46.2969L33.1907 46.1272C34.0907 45.9407 34.6741 45.0519 34.4879 44.1522L33.3297 38.5623C33.2927 38.3843 33.1171 38.2687 32.9391 38.3057L32.9388 38.3054Z" fill="#FFBABA"/>
<path d="M32.2991 39.5054L30.5575 39.8663C30.4674 39.8848 30.4159 40.0063 30.4426 40.136C30.4426 40.136 31.2852 44.2019 31.2865 44.2082C31.4285 44.8933 32.1126 45.4698 32.8191 45.1267C33.3239 44.8817 33.4616 44.2914 33.3553 43.7793L32.5114 39.7071C32.4847 39.5774 32.3889 39.4866 32.2991 39.5054Z" fill="white"/>
<path d="M26.808 9.06854C24.8165 9.25475 22.8653 9.80975 21.1458 10.6774C17.1611 12.6884 14.256 16.7223 14.0212 21.41C13.6458 28.9109 18.2813 37.3356 25.2678 39.9069C29.032 41.2923 33.123 40.6131 36.2622 38.3033C37.0166 37.7417 37.6915 37.09 38.2891 36.3679C43.4224 30.1655 43.2983 18.5326 37.4874 12.5814C34.685 9.71103 30.5976 8.71427 26.8077 9.06854H26.808Z" fill="#14BBEF"/>
<path d="M26.808 9.06854C24.8165 9.25475 22.8653 9.80975 21.1458 10.6774C17.1611 12.6884 14.256 16.7223 14.0212 21.41C13.6458 28.9109 18.2813 37.3356 25.2678 39.9069C29.032 41.2923 33.123 40.6131 36.2622 38.3033C37.0166 37.7417 37.6915 37.09 38.2891 36.3679C43.4224 30.1655 43.2983 18.5326 37.4874 12.5814C34.685 9.71103 30.598 8.71427 26.808 9.06854Z" fill="#F17B7B"/>
<path d="M24.6861 39.6768C25.3652 39.1456 26.0962 38.68 26.8678 38.2904C28.5873 37.4228 30.5385 36.8678 32.5301 36.6816C34.2294 36.5228 35.9882 36.6357 37.6644 37.0672C37.8813 36.8424 38.09 36.6093 38.2894 36.3679C43.4227 30.1655 43.2986 18.5326 37.4878 12.5814C34.6854 9.71103 30.598 8.71427 26.808 9.06854C24.8165 9.25475 22.8653 9.80975 21.1458 10.6774C17.1611 12.6884 14.256 16.7223 14.0212 21.41C13.6564 28.7006 18.0254 36.8638 24.6858 39.6768H24.6861Z" fill="#FFBABA"/>
<path d="M35.8801 14.2796C35.5215 13.9154 35.0523 13.648 34.4247 13.5361C33.9298 13.4479 33.4256 13.4572 32.9212 13.515C32.4348 13.5704 31.9482 13.6705 31.4691 13.7705C27.8106 14.5335 24.1521 15.2968 20.4932 16.0598C19.7121 16.2226 18.9084 16.3946 18.2445 16.8248C17.1807 17.5139 16.6693 18.8154 16.9103 19.9812C17.4808 22.7397 18.0553 25.4975 18.6272 28.256C19.2469 31.2456 21.5656 31.8161 24.4555 31.202C27.6911 30.5143 30.9266 29.8269 34.1626 29.1392C36.0128 28.7459 38.5458 28.1467 38.7865 26.002C38.8614 25.3344 38.7274 24.6685 38.594 24.0137C38.2265 22.2111 37.8594 20.4084 37.4919 18.6057C37.1924 17.1355 37.0006 15.419 35.8794 14.2793L35.8801 14.2796Z" fill="#FF7474"/>
<path d="M28.5973 33.1176L27.2136 34.3507C27.0383 34.5069 27.0977 34.7945 27.3209 34.8681L29.0806 35.4498C29.3035 35.5235 29.5227 35.3283 29.4752 35.0982L29.0991 33.2833C29.0516 33.0535 28.7729 32.9614 28.5976 33.1176H28.5973Z" fill="#F29696"/>
<path d="M31.7731 34.892L33.1568 33.6588C33.3321 33.5027 33.2727 33.2151 33.0495 33.1415L31.2898 32.5597C31.0669 32.4861 30.8477 32.6812 30.8952 32.9114L31.2713 34.7263C31.3188 34.956 31.5975 35.0482 31.7728 34.892H31.7731Z" fill="#F29696"/>
<path d="M22.6755 20.6808L24.0338 26.5672C24.1226 26.9519 23.8826 27.3359 23.4874 27.4273C23.0922 27.5188 22.7211 27.2867 22.6296 26.8915L21.658 22.6793C21.4563 22.945 21.0611 23.0362 20.7484 22.8671C20.4404 22.7192 20.2621 22.2784 20.4499 21.9064L21.1532 20.5392C21.2651 20.3599 21.4331 20.2338 21.6203 20.1905L21.8075 20.1473C22.2028 20.0561 22.5867 20.2962 22.6755 20.6808Z" fill="#FFF3F3"/>
<path d="M29.2697 26.094L25.5256 26.9577C25.1304 27.0488 24.7465 26.8088 24.6553 26.4136C24.4562 25.5505 24.137 24.1671 25.9476 22.7088C26.8539 21.9848 27.046 21.6777 26.9645 21.3241C26.8492 20.8249 26.3415 20.5697 25.6967 20.7183C25.3328 20.8021 25.1327 20.9798 25.0439 21.3073C24.9535 21.58 24.9776 21.8266 24.9776 21.8266C25.0129 22.169 24.7696 22.5867 24.3417 22.6306C24.0122 22.6735 23.6097 22.449 23.5298 22.0072C23.3746 20.7176 24.133 19.5898 25.3708 19.3042C26.7852 18.978 28.0923 19.706 28.3898 20.9956C28.6249 22.0148 28.197 22.7709 26.8568 23.8466C26.1919 24.3834 25.9281 24.8057 25.9512 25.3808L28.9464 24.6898C29.3416 24.5987 29.7256 24.8387 29.8144 25.2233C29.9056 25.6185 29.6655 26.0025 29.2703 26.0936L29.2697 26.094Z" fill="#FFF3F3"/>
<path d="M32.6992 25.3016C32.304 25.3927 31.92 25.1527 31.8289 24.7575C31.4179 22.8809 31.5618 20.9415 32.238 19.2194L29.8357 19.7737C29.4511 19.8625 29.0694 19.6331 28.9783 19.2379C28.8872 18.8427 29.1272 18.4587 29.5118 18.3699L33.4325 17.4652C33.7445 17.3933 34.0453 17.5101 34.2038 17.7693C34.3804 18.0133 34.3613 18.3573 34.178 18.6076C33.178 20.0649 32.7857 22.4012 33.2483 24.4524C33.3163 24.842 33.0842 25.2131 32.6996 25.3019L32.6992 25.3016Z" fill="#FFF3F3"/>
</svg>
