<svg width="56" height="56" viewBox="0 0 56 56" fill="none" xmlns="http://www.w3.org/2000/svg">
<path d="M26.3985 24.2954C26.3985 28.6227 25.9013 28.2809 28.8846 28.2809V31.5983C28.8846 32.515 28.1388 33.2531 27.2298 33.2531H20.595C18.8236 33.2531 17.1844 32.3053 16.2909 30.767C15.3897 29.2365 15.6228 29.4618 15.6228 15.0269C15.615 12.4398 17.5806 10.28 20.1522 10.0547C20.5173 10.0547 27.3075 10.0547 27.222 10.0547C28.1388 10.0547 28.8768 10.8005 28.8768 11.7095V15.0269C26.1343 15.0347 23.9124 17.2644 23.9124 20.0069C23.9201 21.7782 24.868 23.4097 26.3985 24.2954Z" fill="#435E74"/>
<path d="M21.8469 32.0091C20.0755 32.0091 18.4362 31.0613 17.5428 29.523C16.6416 27.9925 16.8747 28.2178 16.8747 13.7829C16.8824 12.7652 17.1932 11.7785 17.7681 10.9395C17.0611 11.4444 16.494 12.1126 16.1133 12.8973C15.4141 13.5965 15.6316 16.4943 15.6316 28.2878C15.6316 31.0302 17.8613 33.26 20.6038 33.26H27.2308C28.0155 33.2833 28.7147 32.7394 28.8856 31.9781C28.5671 32.0247 29.0022 32.0091 21.8469 32.0091Z" fill="#526F87"/>
<path d="M26.0547 15.9187C26.886 15.336 27.8726 15.0252 28.8904 15.0252V13.9453C27.7406 14.2405 26.7306 14.9398 26.0547 15.9187Z" fill="#374F68"/>
<path d="M20.5992 33.2525H10.6548C9.73806 33.2525 9 32.5067 9 31.5977V11.7089C9 10.7921 9.74583 10.0541 10.6548 10.0541C25.113 10.0541 19.9 9.73555 18.253 10.6445C14.7957 12.5402 15.627 15.0651 15.627 28.2803C15.627 31.0306 17.8567 33.2525 20.5992 33.2525Z" fill="#324C61"/>
<path d="M18.5593 10.0547C18.3573 10.2722 18.1864 10.5131 18.031 10.7694C16.5394 11.6707 15.6304 13.2866 15.6226 15.0269C15.6226 29.5317 15.5449 28.7315 15.8246 29.6716C16.3141 32.1577 19.142 31.6061 12.313 31.6061C11.3963 31.6061 10.6582 30.8602 10.6582 29.9513V10.0625H18.5593V10.0547Z" fill="#435E74"/>
<path d="M20.6006 33.2534H16.079C15.5507 32.7951 15.1312 32.2279 14.8438 31.5986H16.9103C17.8426 32.6475 19.1867 33.2534 20.6006 33.2534Z" fill="#324C61"/>
<path d="M14.839 31.5976C14.1787 30.1758 14.3807 30.5021 14.3807 16.2692C14.3807 14.6455 15.1809 13.1305 16.5094 12.1982C16.0588 12.8586 15.7791 13.62 15.6781 14.4124C15.6237 14.9096 15.6237 28.42 15.6237 28.7852C16.0044 32.1647 18.6536 31.5976 14.839 31.5976Z" fill="#324C61"/>
<path d="M33.8585 19.9986C33.8585 22.7411 31.6365 24.9708 28.894 24.9786C26.1516 24.9864 23.9218 22.7566 23.9141 20.0142C23.9141 18.2739 24.8153 16.6657 26.2992 15.7645C28.6454 14.335 31.7064 15.0808 33.1282 17.4271C33.6021 18.1962 33.8585 19.0819 33.8585 19.9986Z" fill="#DAD7E5"/>
<path d="M33.8592 19.9976C33.8592 20.9843 33.3853 22.4837 33.0279 22.6391C28.6539 25.2262 23.5963 20.153 26.2999 15.7557C28.6461 14.3262 31.7072 15.072 33.1289 17.4183C33.6028 18.1952 33.8592 19.0808 33.8592 19.9976Z" fill="#EDEBF2"/>
<path d="M31.3714 24.2949C31.3714 27.0607 31.6589 28.2805 30.5401 28.2805C25.6767 28.2805 26.3992 28.9719 26.3992 24.2949C27.9375 25.1884 29.8332 25.1884 31.3714 24.2949Z" fill="#526F87"/>
<path d="M30.5365 27.4025V28.2804C25.8829 28.2804 26.3956 28.7776 26.3956 25.5068C27.1026 25.7632 27.864 25.8487 28.6176 25.7632C29.5188 25.6156 30.3734 26.2294 30.521 27.1306C30.5288 27.2238 30.5365 27.317 30.5365 27.4025Z" fill="#526F87"/>
<path d="M28.884 20.8213C28.4257 20.8213 28.0527 20.4562 28.0527 19.9978C28.0527 19.7725 28.1382 19.5627 28.3013 19.4073L29.9562 17.7525C30.2825 17.4262 30.8108 17.4262 31.1293 17.7525C31.4556 18.0788 31.4556 18.6071 31.1293 18.9257C29.3191 20.7359 29.3269 20.8213 28.884 20.8213Z" fill="#435E74"/>
<path d="M31.3751 48.9997C27.7158 48.9997 24.748 46.0319 24.748 42.3727V36.5692C24.748 36.1109 25.121 35.7379 25.5793 35.7379C26.0377 35.7379 26.4106 36.1109 26.4106 36.5692V42.3727C26.4106 45.1152 28.6403 47.3449 31.3828 47.3449C34.1253 47.3449 36.355 45.1152 36.355 42.3727V21.6526C36.355 19.3608 38.2118 17.5117 40.4959 17.5117C42.78 17.5117 44.6368 19.3685 44.6368 21.6526C44.6368 22.111 44.2639 22.4839 43.8056 22.4839C43.3472 22.4839 42.9743 22.111 42.9743 21.6526C42.9743 18.3352 38.0021 18.3352 38.0021 21.6526V42.3727C38.0021 46.0319 35.0343 48.9997 31.3751 48.9997Z" fill="#435E74"/>
<path d="M25.5715 37.4018V43.2053C25.5715 45.9478 27.8012 48.1775 30.5515 48.1698C32.0742 48.1698 33.5037 47.4705 34.4516 46.2741C32.2918 47.9755 29.1686 47.6026 27.4672 45.4428C26.7757 44.5649 26.4028 43.485 26.4028 42.374V36.5705C26.4028 36.1122 26.0299 35.7393 25.5715 35.7393C25.1131 35.7393 24.7402 36.1122 24.7402 36.5705C25.1986 36.5705 25.5715 36.9435 25.5715 37.4018Z" fill="#526F87"/>
<path d="M40.4854 17.5117C39.1802 17.5117 37.9526 18.1255 37.168 19.1665C39.0015 17.7914 41.5963 18.1643 42.9715 19.9978C43.5075 20.7126 43.8027 21.5905 43.8027 22.4839C45.6906 22.4839 44.3388 17.5117 40.4854 17.5117Z" fill="#526F87"/>
<path d="M37.1691 22.4843C37.1691 44.9369 37.6818 44.9912 35.623 47.454C37.1302 46.1955 38.0004 44.3386 38.0004 42.3731C38.0004 19.8661 37.845 21.2257 38.3733 20.3711C37.6352 20.8139 37.1769 21.6141 37.1691 22.4843Z" fill="#435E74"/>
<path d="M45.4639 23.3081C45.4639 27.5034 45.8135 24.9629 43.8091 24.9629C41.8046 24.9629 42.1542 27.5267 42.1542 23.3081C42.1542 22.3914 42.9001 21.6533 43.8091 21.6533C44.718 21.6533 45.4639 22.3992 45.4639 23.3081Z" fill="#C4455E"/>
<path d="M45.4607 23.3072C45.4607 25.2106 45.6549 23.719 44.0467 24.224C43.6117 24.356 43.1455 24.1074 43.0135 23.6724C42.9824 23.5791 42.9746 23.4859 42.9746 23.3927C42.9746 22.4371 42.9746 22.1962 43.1222 21.8078C43.9535 21.4349 44.9402 21.8078 45.3131 22.6391C45.4063 22.8566 45.4607 23.0819 45.4607 23.3072Z" fill="#DB5669"/>
<path d="M47.1176 30.7669C47.1176 33.2141 46.0299 36.5703 43.8002 36.5703C40.6459 36.5703 39.2941 29.5704 41.7647 26.2064C44.1342 23.0444 47.1176 26.2996 47.1176 30.7669Z" fill="#DB5669"/>
<path d="M46.6746 33.6711C46.2396 34.3936 45.4782 34.8597 44.6391 34.9141C40.9566 34.9141 39.8068 24.9697 43.8078 24.9697C46.6902 24.9697 47.7701 30.3459 46.6746 33.6711Z" fill="#F26674"/>
<path d="M27.2252 33.252V35.7381C27.2252 36.1964 26.8523 36.5693 26.3939 36.5693C23.4883 36.5693 23.9078 36.849 23.9078 33.252H27.2252Z" fill="#526F87"/>
<path d="M27.2263 33.252V35.7381C25.8512 35.7381 24.7402 34.6271 24.7402 33.252H27.2263Z" fill="#526F87"/>
</svg>
