<svg width="56" height="56" viewBox="0 0 56 56" fill="none" xmlns="http://www.w3.org/2000/svg">
<g clip-path="url(#clip0_18814_38917)">
<path d="M11.8983 30.1398C6.23379 31.9782 -3.36719 30.1398 -3.36719 30.1398V72.6475H59.1661V30.1398C59.1661 30.1398 49.0839 32.122 43.165 30.1398C34.9868 27.401 34.3989 21.1553 27.5316 21.1553C20.6644 21.1553 20.1022 27.4773 11.8983 30.1398Z" fill="#FFBF9D"/>
<path fill-rule="evenodd" clip-rule="evenodd" d="M22.3766 31.4233C21.17 33.9431 20.666 36.4576 20.666 38.2901C20.666 42.1214 23.6993 44.4852 27.6288 44.4852V44.4886C31.866 44.4886 34.666 42.1385 34.666 38.2901C34.666 36.4576 34.162 33.9464 32.9554 31.4266C31.7626 28.9354 30.9697 26.4358 30.9327 24.5878C30.8806 21.9874 28.8294 21.2444 27.7032 21.163V21.1553C27.6818 21.1563 27.6602 21.1575 27.6384 21.1591C27.6352 21.1589 27.632 21.1587 27.6288 21.1586V21.1597C26.5026 21.2411 24.2181 21.9874 24.166 24.5878C24.129 26.4358 23.5694 28.9321 22.3766 31.4233Z" fill="#A16751"/>
<rect x="27.0273" y="8.83496" width="1.86959" height="6.8941" rx="0.934793" fill="#F27373"/>
<rect x="19.666" y="10.9385" width="1.86959" height="6.8941" rx="0.934793" transform="rotate(-30 19.666 10.9385)" fill="#F27373"/>
<rect width="1.86959" height="6.8941" rx="0.934793" transform="matrix(-0.866025 -0.5 -0.5 0.866025 36.3008 10.9385)" fill="#F27373"/>
</g>
<defs>
<clipPath id="clip0_18814_38917">
<rect width="56" height="56" rx="28" fill="white"/>
</clipPath>
</defs>
</svg>
