<svg width="56" height="56" viewBox="0 0 56 56" fill="none" xmlns="http://www.w3.org/2000/svg">
<path fill-rule="evenodd" clip-rule="evenodd" d="M21.3219 28.938C17.3891 26.0884 13.5523 23.3083 12.133 19.632C11.7872 19.5422 11.4201 19.4413 11.0303 19.3281C4.67312 17.481 4.16602 4.28516 4.16602 4.28516H6.49187C6.49187 11.7113 8.95126 14.8667 11.5676 16.1225C11.6249 14.9399 11.918 13.6675 12.4957 12.285C15.3429 5.47179 24.7482 4.82306 27.6152 4.78623C30.4849 4.82306 39.8875 5.47179 42.7346 12.285C43.4855 14.0825 43.7557 15.694 43.652 17.1638C46.366 16.0914 49.3537 12.9443 49.3537 4.28516H51.6795C51.6795 4.28516 51.7702 18.617 44.9456 20.0731C44.1064 20.2524 43.3717 20.3799 42.7285 20.466C41.0872 23.7397 37.536 26.3113 33.9037 28.9416L33.4369 29.2799C33.4369 29.2799 28.6379 33.1808 28.9438 37.9968H27.6152H26.2865C26.5925 33.1808 21.7935 29.2799 21.7935 29.2799L21.3219 28.938Z" fill="#E99C9C"/>
<path fill-rule="evenodd" clip-rule="evenodd" d="M28.6201 41.3986C28.6593 41.4544 28.658 41.4668 28.5765 41.7927C28.3443 42.722 28.4537 43.5367 28.9276 44.4075C29.0077 44.5548 29.1368 44.7722 29.2144 44.8907C29.9313 45.9856 30.159 46.4412 30.2528 46.9678C30.2962 47.2116 30.2866 47.6441 30.2326 47.874C30.0207 48.7755 29.3317 49.4742 28.3945 49.7377C27.4323 50.0081 26.4396 49.7698 25.7176 49.0949C25.323 48.7261 25.0643 48.2371 24.9794 47.6997C24.8034 46.586 25.5129 44.9651 27.0338 43.0057C27.5685 42.3168 28.3874 41.3843 28.4771 41.3621C28.5543 41.343 28.5867 41.3513 28.6201 41.3986ZM25.7844 45.4763C26.0273 45.0077 26.245 44.7753 26.4922 44.7208C26.6803 44.6793 26.9448 44.8127 27.0144 44.9842C27.0452 45.0602 27.0414 45.2188 27.0051 45.3724C26.9606 45.5602 26.9644 45.7236 27.0151 45.8008C27.0718 45.8873 27.2136 45.979 27.3432 46.0131C27.4797 46.049 27.637 46.0533 28.0886 46.0335C28.4753 46.0165 28.6 46.03 28.764 46.1066C28.9087 46.1742 29.0411 46.3178 29.1439 46.5186C29.3012 46.8255 29.3327 46.9859 29.3064 47.3461L29.2969 47.4756L29.3967 47.579C29.6486 47.8396 29.7326 48.2423 29.5939 48.524C29.4193 48.8785 28.9666 49.2635 28.5364 49.4235C28.2441 49.5322 28.0907 49.559 27.7478 49.5612C27.4 49.5635 27.2256 49.538 26.8782 49.4343C26.2012 49.2321 25.6531 48.7684 25.405 48.1877C25.1119 47.5021 25.2516 46.5042 25.7844 45.4763Z" fill="#F2D760"/>
<path d="M26.4922 44.7208C26.245 44.7753 26.0273 45.0077 25.7844 45.4763C25.2516 46.5042 25.1119 47.5021 25.405 48.1877C25.6531 48.7684 26.2012 49.2321 26.8782 49.4343C27.2256 49.538 27.4 49.5635 27.7478 49.5612C28.0907 49.559 28.2441 49.5322 28.5364 49.4235C28.9666 49.2635 29.4193 48.8785 29.5939 48.524C29.7326 48.2423 29.6486 47.8396 29.3967 47.579L29.2969 47.4756L29.3064 47.3461C29.3327 46.9859 29.3012 46.8255 29.1439 46.5186C29.0411 46.3178 28.9087 46.1742 28.764 46.1066C28.6 46.03 28.4753 46.0165 28.0886 46.0335C27.637 46.0533 27.4797 46.049 27.3432 46.0131C27.2136 45.979 27.0718 45.8873 27.0151 45.8008C26.9644 45.7236 26.9606 45.5602 27.0051 45.3724C27.0414 45.2188 27.0452 45.0602 27.0144 44.9842C26.9448 44.8127 26.6803 44.6793 26.4922 44.7208Z" fill="#F2D760"/>
<mask id="mask0_18814_38928" style="mask-type:alpha" maskUnits="userSpaceOnUse" x="11" y="4" width="33" height="34">
<path d="M42.7342 12.284C39.8871 5.47072 30.4845 4.82198 27.6148 4.78516C24.7478 4.82198 15.3425 5.47072 12.4954 12.284C9.12132 20.3578 15.4529 24.6781 21.7931 29.2788C21.7931 29.2788 26.5921 33.1797 26.2861 37.9958H27.6148H28.9434C28.6375 33.1797 33.4365 29.2788 33.4365 29.2788C39.7766 24.6809 46.1082 20.3607 42.7342 12.284Z" fill="#E8977B"/>
</mask>
<g mask="url(#mask0_18814_38928)">
<path d="M16.3212 20.4912C13.6919 20.653 12.666 25.3739 12.666 25.3739V28.4481L21.1346 41.1972H33.3463L41.1903 32.7883C41.1903 32.7883 44.4741 23.2288 40.8796 21.2605C38.0981 19.7374 37.776 22.8717 34.6833 22.2092C31.7525 21.5814 31.2555 19.4933 28.2655 19.6775C25.2426 19.8637 25.2325 22.9863 22.2042 23.023C19.3916 23.0571 19.1288 20.3185 16.3212 20.4912Z" fill="#F4DB71" fill-opacity="0.7"/>
</g>
</svg>
