<svg width="56" height="56" viewBox="0 0 56 56" fill="none" xmlns="http://www.w3.org/2000/svg">
<g clip-path="url(#clip0_18814_38940)">
<rect x="7.18555" y="45.2676" width="42" height="13.5333" fill="#FFBF9D"/>
<path fill-rule="evenodd" clip-rule="evenodd" d="M21.9078 46.6252H5.23192C5.43772 43.3384 8.35874 36.1683 10.5827 31.3102C14.9044 21.8695 6.05511 -4.14497 -3 -18.2012H21.9078H34.0436H58.9515C49.8963 -4.14497 41.047 21.8695 45.3688 31.3102C47.5927 36.1683 50.5137 43.3384 50.7195 46.6252H34.0436H21.9078Z" fill="#FFBF9D"/>
<path d="M48.4861 38.2672C47.3661 43.8672 27.9539 52.9672 27.9539 52.9672C27.9539 52.9672 7.57479 39.6672 7.65257 37.8005C7.73034 35.9339 11.1539 29.8672 11.1539 29.8672C28.7006 38.8272 41.0206 33.6005 44.9872 29.8672L48.4861 38.2672Z" fill="#FDF1F1"/>
<path d="M29.1927 13.0664C28.399 15.1316 26.8097 19.2619 28.3985 28.6345" stroke="#D6A185" stroke-width="1.58858" stroke-linecap="round"/>
<path fill-rule="evenodd" clip-rule="evenodd" d="M35.1373 32.1381C35.1373 36.0804 32.0141 39.2762 28.1614 39.2762C24.3088 39.2762 21.1855 36.0804 21.1855 32.1381C21.1855 28.1958 24.3088 25 28.1614 25C32.0141 25 35.1373 28.1958 35.1373 32.1381ZM28.1614 37.2787C30.936 37.2787 33.1852 34.9772 33.1852 32.1381C33.1852 29.2991 30.936 26.9976 28.1614 26.9976C25.3869 26.9976 23.1377 29.2991 23.1377 32.1381C23.1377 34.9772 25.3869 37.2787 28.1614 37.2787Z" fill="#FFA2A2"/>
<path d="M31.2423 32.1381C31.2423 33.8792 29.863 35.2906 28.1615 35.2906C26.46 35.2906 25.0807 33.8792 25.0807 32.1381C25.0807 30.3971 26.46 28.9857 28.1615 28.9857C29.863 28.9857 31.2423 30.3971 31.2423 32.1381Z" fill="#EA4747"/>
<path fill-rule="evenodd" clip-rule="evenodd" d="M33.1945 32.1381C33.1945 34.9824 30.9412 37.2881 28.1615 37.2881C25.3819 37.2881 23.1286 34.9824 23.1286 32.1381C23.1286 29.2938 25.3819 26.9881 28.1615 26.9881C30.9412 26.9881 33.1945 29.2938 33.1945 32.1381ZM28.1615 35.2906C29.863 35.2906 31.2423 33.8792 31.2423 32.1381C31.2423 30.3971 29.863 28.9857 28.1615 28.9857C26.46 28.9857 25.0807 30.3971 25.0807 32.1381C25.0807 33.8792 26.46 35.2906 28.1615 35.2906Z" fill="white"/>
</g>
<defs>
<clipPath id="clip0_18814_38940">
<rect width="56" height="56" rx="28" fill="white"/>
</clipPath>
</defs>
</svg>
