<svg width="56" height="56" viewBox="0 0 56 56" fill="none" xmlns="http://www.w3.org/2000/svg">
<g clip-path="url(#clip0_11560_28523)">
<path d="M42.2274 6.66789C42.8106 9.52234 45.4121 13.7955 45.4121 13.7955C42.3791 16.8286 32.2184 16.752 28.1238 16.752V0.146914C32.6127 -0.21705 39.2955 0.80407 42.0758 1.36013C42.0758 1.36013 41.777 4.46294 42.2274 6.66789Z" fill="#FFBF9D"/>
<path d="M14.0187 6.66789C13.4355 9.52234 10.834 13.7955 10.834 13.7955C13.867 16.8286 24.0277 16.752 28.1222 16.752V0.146914C23.6334 -0.21705 16.9506 0.80407 14.1703 1.36013C14.1703 1.36013 14.4691 4.46294 14.0187 6.66789Z" fill="#FFBF9D"/>
<path d="M27.1677 45.2631C26.2578 49.5093 25.1962 70.8922 25.1962 72.257H11.3963C9.9302 64.5734 6.87671 46.9616 6.39142 37.9838C5.90614 29.0061 7.20023 23.3242 7.90794 21.6055H27.6226V37.9838C27.7743 38.9948 27.8956 41.8661 27.1677 45.2631Z" fill="#FFBF9D"/>
<path d="M28.9495 45.2631C29.8594 49.5093 30.921 70.8922 30.921 72.257H44.7209C46.187 64.5734 49.2405 46.9616 49.7258 37.9838C50.211 29.0061 48.917 23.3242 48.2093 21.6055H28.4946V37.9838C28.3429 38.9948 28.2216 41.8661 28.9495 45.2631Z" fill="#FFBF9D"/>
<path d="M27.8199 39.8027C27.2638 41.2181 24.1802 43.8973 16.5977 42.6841" stroke="#F4A479" stroke-width="0.909908" stroke-linecap="round"/>
<path d="M28.4276 3.40625C28.4276 3.40625 27.9767 5.99001 27.9727 7.65249C27.9684 9.37405 28.4276 12.0504 28.4276 12.0504" stroke="#F4A479" stroke-width="0.909908" stroke-linecap="round"/>
<path d="M28.4243 39.8027C28.9803 41.2181 32.0639 43.8973 39.6465 42.6841" stroke="#F4A479" stroke-width="0.909908" stroke-linecap="round"/>
<path fill-rule="evenodd" clip-rule="evenodd" d="M10.7077 13.7188C9.33566 14.8901 6.90856 20.3701 6.9082 25.6983C7.46116 25.9105 8.05428 26.1277 8.67895 26.3564C12.2871 27.6779 16.9478 29.3847 20.9986 32.7263C23.8033 35.04 26.4069 37.5651 27.6593 39.7614C27.8477 40.0918 28.3976 40.0918 28.586 39.7614C29.8384 37.5651 32.442 35.04 35.2467 32.7263C39.2975 29.3847 43.9581 27.6779 47.5663 26.3564C48.191 26.1277 48.7841 25.9105 49.3371 25.6983C48.9571 20.3701 46.9096 14.8901 45.5376 13.7188C39.5622 15.4919 33.5553 16.152 28.1226 16.1867C22.69 16.152 16.6831 15.4919 10.7077 13.7188Z" fill="#FDF1F1"/>
<path fill-rule="evenodd" clip-rule="evenodd" d="M41.8753 31.099C41.8753 35.0196 38.7692 38.1979 34.9376 38.1979C31.1061 38.1979 28 35.0196 28 31.099C28 27.1783 31.1061 24 34.9376 24C38.7692 24 41.8753 27.1783 41.8753 31.099ZM34.9376 36.2113C37.6969 36.2113 39.9338 33.9224 39.9338 31.099C39.9338 28.2755 37.6969 25.9866 34.9376 25.9866C32.1783 25.9866 29.9415 28.2755 29.9415 31.099C29.9415 33.9224 32.1783 36.2113 34.9376 36.2113Z" fill="#FFA2A2"/>
<path d="M38.0016 31.099C38.0016 32.8305 36.6299 34.2341 34.9377 34.2341C33.2456 34.2341 31.8738 32.8305 31.8738 31.099C31.8738 29.3675 33.2456 27.9638 34.9377 27.9638C36.6299 27.9638 38.0016 29.3675 38.0016 31.099Z" fill="#EA4747"/>
<path fill-rule="evenodd" clip-rule="evenodd" d="M39.9431 31.099C39.9431 33.9276 37.7021 36.2207 34.9377 36.2207C32.1733 36.2207 29.9324 33.9276 29.9324 31.099C29.9324 28.2703 32.1733 25.9772 34.9377 25.9772C37.7021 25.9772 39.9431 28.2703 39.9431 31.099ZM34.9377 34.2341C36.6299 34.2341 38.0016 32.8305 38.0016 31.099C38.0016 29.3675 36.6299 27.9638 34.9377 27.9638C33.2456 27.9638 31.8738 29.3675 31.8738 31.099C31.8738 32.8305 33.2456 34.2341 34.9377 34.2341Z" fill="white"/>
</g>
<defs>
<clipPath id="clip0_11560_28523">
<rect width="56" height="56" rx="28" fill="white"/>
</clipPath>
</defs>
</svg>
