<svg width="56" height="56" viewBox="0 0 56 56" fill="none" xmlns="http://www.w3.org/2000/svg">
<g clip-path="url(#clip0_11560_28373)">
<path d="M30.063 45.0547C30.063 45.0547 56.5168 31.7564 64.7993 39.6961C73.0818 47.6358 63.8921 93.0024 65.0135 98.0646C65.1788 98.8108 66.6487 100.725 68.4619 102.229C71.5783 104.815 73.8723 104.638 74.7541 105.648C75.3799 106.364 74.9518 107.655 73.1257 107.831C71.0553 108.031 68.3385 107.831 63.8916 106.165C60.9812 105.075 57.9098 106.14 56.7543 104.71C54.0545 101.368 59.1943 98.4882 59.0286 96.2655C58.8628 94.0428 57.6351 86.092 56.2256 76.3211C54.8161 66.5507 56.904 55.1273 56.904 55.1273L31.7064 58.693L30.0625 45.0552L30.063 45.0547Z" fill="#FFBF9D"/>
<path d="M8.33048 38.0801C7.97217 40.9281 6.29264 48.3675 7.09962 53.321C7.9541 58.5672 10.8428 59.3906 14.3056 62.525C17.769 65.6593 37.9383 71.4536 37.9383 71.4536C37.9383 71.4536 34.3428 72.4793 30.138 77.1911C26.749 80.9891 23.4948 85.2548 22.1292 86.581C20.7635 87.9073 18.0395 90.3769 16.8954 90.8872C15.7513 91.3974 11.3885 89.6035 9.77509 91.2975C8.16165 92.9916 8.46317 94.7535 9.23453 96.0461C10.8557 98.7617 9.8133 99.4585 9.23453 102.998C8.8788 105.174 10.1406 108.034 11.9952 108.173C15.4307 108.431 16.28 108.234 16.6429 107.474C17.1401 106.432 15.1896 104.425 14.7786 102.651C13.9189 98.9382 17.2816 96.6551 21.5654 94.7446C25.8491 92.8335 38.6198 87.1102 43.0249 85.1449C47.4305 83.1797 55.4322 75.4056 54.1915 69.6865C52.9508 63.9674 33.3365 49.3491 33.3365 49.3491L20.4352 40.4284L8.33048 38.0801Z" fill="#FFBF9D"/>
<path d="M68.6736 84.1163C68.6736 84.1163 67.3483 85.1772 62.9494 85.1772H54.8011C54.8011 85.1772 54.75 71.2694 54.8011 67.5008C54.8522 63.7322 54.7722 55.4273 54.7722 55.4273L40.607 61.323L36.1456 62.1973L24.5469 58.662L27.1841 42.2998C27.1841 42.2998 60.8088 27.9794 66.8986 37.6043C72.9879 47.2291 68.6742 84.1169 68.6742 84.1169L68.6736 84.1163Z" fill="#636363"/>
<path d="M60.686 85.1781H54.8032C54.8032 85.1781 54.7521 71.2702 54.8032 67.5016C54.8543 63.733 54.4467 55.8712 54.4467 55.8712L40.6091 61.3238L33.5703 50.8251C33.5703 50.8251 34.8244 50.6822 43.789 55.0908C45.9734 56.1653 48.9184 55.199 50.5732 54.7923C54.9715 53.712 56.126 50.6816 56.126 50.6816C56.126 50.6816 55.5286 59.3092 55.8002 62.1966C56.8509 73.3757 56.7094 79.6555 60.686 85.1781Z" fill="#737373"/>
<path d="M48.927 81.6823C46.0182 84.5986 31.1642 92.3948 31.1642 92.3948C31.1642 92.3948 29.5734 91.8347 26.5427 89.8332C25.6248 89.2268 24.8534 88.4796 24.2235 87.7313C22.7743 86.0089 22.0778 84.2854 22.0778 84.2854C22.0778 84.2854 23.9426 82.2151 26.4379 79.7995C28.9327 77.384 36.2683 71.842 36.2683 71.842C36.2683 71.842 16.1444 66.8591 12.1534 64.6159C8.16292 62.3727 5.125 58.0592 4.98405 50.9602C4.8431 43.8613 8.91156 36.6641 8.91156 36.6641L19.0213 40.1973L34.119 51.2256C34.119 51.2256 52.1343 61.5099 54.1912 69.6876C55.3405 74.2565 51.8364 78.7665 48.9275 81.6828L48.927 81.6823Z" fill="#636363"/>
<path d="M31.1729 77.1365C28.3901 80.0197 25.5644 84.3605 24.2235 87.7308C22.7743 86.0089 22.0778 84.2854 22.0778 84.2854C22.0778 84.2854 23.9426 82.2151 26.4379 79.7995C28.9327 77.384 36.2683 71.842 36.2683 71.842C36.2683 71.842 16.1444 66.8591 12.1534 64.6159C8.16292 62.3727 5.125 58.0592 4.98405 50.9602C4.8431 43.8613 8.91156 36.6641 8.91156 36.6641L35.1485 38.0807L19.0213 43.9858L11.4678 40.2587C6.19943 47.8674 10.3061 54.2065 13.9042 58.4664C17.5028 62.7263 35.9322 71.0864 38.5622 70.3959C41.1928 69.7055 33.9558 74.2538 31.1735 77.1365H31.1729Z" fill="#737373"/>
<path d="M31.1074 2.2817L33.1164 2.83869C33.1164 2.83869 35.6462 1.01954 36.6907 1.14303C37.3908 1.225 38.3713 1.38264 40.485 0.539275C42.5982 -0.304613 44.4863 -2.72593 44.4863 -2.72593L39.7209 -4.95703L35.4521 -1.69866C35.4521 -1.69866 35.1397 -0.946725 34.4649 -0.174826C33.8268 0.555037 32.4694 0.927065 31.2964 0.967C31.1833 1.74363 31.1074 2.2817 31.1074 2.2817Z" fill="#EA956D"/>
<path d="M44.6367 15.7022C44.6367 15.7022 41.7593 20.8875 41.7583 22.9163C41.7572 24.9451 39.3792 26.0727 37.7926 27.5377C36.206 29.0026 37.9268 30.9952 37.2587 31.1707C34.3344 31.9384 36.1084 34.0754 36.1084 34.0754L27.4691 37.7952L10.0801 34.9771C10.0801 34.9771 14.1847 24.5893 16.064 21.1533C17.9439 17.7174 19.9373 12.8837 19.9373 12.8837L31.17 3.18945L40.3803 6.44678L44.6361 15.7012L44.6367 15.7022Z" fill="#FFBF9D"/>
<path d="M41.7608 0.597656L41.4453 1.93705C41.4572 1.28391 41.7608 0.597656 41.7608 0.597656Z" fill="#FFBF9D"/>
<path d="M48.1841 4.31731C46.0802 2.40096 43.8647 3.30264 42.3138 3.07775C41.6193 2.97686 41.436 2.46821 41.4459 1.9375L39.8773 8.60085L41.3694 19.0843C41.3694 19.0843 41.3379 20.0548 41.2904 21.4415C41.1748 24.8197 40.9652 30.6691 40.8877 30.9886C40.7778 31.4394 29.3561 39.2614 28.1377 39.7122C27.1278 40.0858 26.1416 40.4957 23.65 40.4468C23.3691 40.4416 22.1351 39.4947 20.8847 38.8148C19.8422 38.2488 18.789 37.8695 18.267 38.3771C18.2469 38.3965 18.235 38.418 18.2293 38.4412C18.1162 38.9004 20.4866 40.1631 20.1629 40.3044C19.5815 40.5577 17.0831 39.7259 16.3417 39.3744C15.0933 38.7822 13.7416 38.4123 13.6921 38.9114C13.6848 38.9882 13.7075 39.0854 13.7669 39.2052C14.0612 39.8042 14.4872 39.9702 15.5668 40.6139C16.0221 40.8851 17.9603 41.431 17.8049 41.4594C17.5597 41.5041 14.847 40.7548 13.7396 40.0506C13.3234 39.7858 12.0786 38.9235 11.8566 39.4868C11.6398 40.0391 12.8045 40.9161 12.852 40.9518C12.8071 40.9355 11.6289 40.5125 11.3026 41.0653C10.9706 41.6286 11.9774 42.4042 13.0854 43.3053C13.483 43.6295 14.0597 43.8686 14.6637 44.0573C14.0369 43.9606 13.5175 43.9937 13.4071 44.3337C13.0746 45.3573 17.8292 46.25 20.7086 46.25C23.588 46.25 24.9732 45.8228 28.1914 45.3746C30.9412 44.9921 37.0103 41.6076 38.7828 40.7059C40.5547 39.8042 45.4735 36.817 46.7142 34.1045C48.9276 29.2661 50.8425 15.2511 51.064 11.4189C51.2855 7.58619 50.2891 6.23366 48.1846 4.31731H48.1841Z" fill="#FFBF9D"/>
<path d="M46.5003 22.603C46.5003 22.603 44.7273 23.254 44.019 24.3811C43.3101 25.5082 41.9811 30.468 42.5351 30.9189C43.0891 31.3697 43.9756 31.9335 43.3658 31.9335C42.7561 31.9335 40.7456 31.9435 40.2556 32.7275C39.7662 33.512 40.5918 33.9629 38.4068 36.3295C36.2223 38.6967 31.5771 41.0403 28.2475 41.2893C27.7188 41.3293 21.6812 41.128 19.9134 40.8101C17.209 40.3246 14.3755 38.5559 13.6914 38.9101C13.741 38.4104 15.0927 38.7808 16.3411 39.373C17.0825 39.7245 19.5814 40.5563 20.1622 40.3031C20.4859 40.1617 18.1151 38.8996 18.2287 38.4398C19.0966 38.5601 19.996 38.6878 20.884 38.8134C22.1345 39.4928 23.3684 40.4397 23.6493 40.4455C26.1405 40.4943 27.1266 40.0845 28.137 39.7109C29.355 39.26 40.7771 31.438 40.8871 30.9872C40.9645 30.6677 41.1741 24.8178 41.2898 21.4401L42.9032 20.4922L46.4998 22.603H46.5003Z" fill="#F19A7C"/>
<path d="M33.7134 -7.17526C33.7134 -7.17526 32.9539 -0.473547 32.1785 -0.361098C31.403 -0.24865 28.9418 -2.32159 26.3081 -2.68993C23.8102 -3.03937 20.5766 -1.77301 17.9182 1.27045C15.2603 4.31391 10.1153 9.95315 6.0949 20.0977C4.89037 23.1364 3.8619 26.8834 3.4819 28.3637C3.1019 29.8439 2.22986 34.5399 5.58841 36.6076C9.13643 38.7919 26.9963 40.342 29.9955 39.8239C33.0128 39.3027 33.7909 38.8881 36.5903 37.0753C38.2419 36.006 39.1269 32.4922 38.7809 30.3357C38.7809 30.3357 36.6899 31.292 35.8638 31.9378C35.252 32.4165 34.2891 33.2662 32.8362 34.2767C32.0045 34.8552 30.866 35.8099 29.1127 35.8441C24.944 35.9255 11.8647 31.5102 11.8647 31.5102C11.1383 30.8339 19.385 15.1379 19.385 15.1379L33.1186 7.58542L40.0598 9.14762L41.759 0.596814L33.7124 -7.17578L33.7134 -7.17526Z" fill="#FFBF9D"/>
<path d="M32.8384 -1.82243C32.8384 -1.82243 35.8851 3.24667 38.4072 3.19045C40.9294 3.13423 41.5345 2.60824 41.5345 2.60824L42.5351 -0.360079L33.7012 -7.63086L32.8379 -1.82243H32.8384Z" fill="#F19A7C"/>
<path d="M33.6515 -8.1306C33.206 -8.01552 32.2807 -8.53205 32.0257 -9.32181C31.608 -10.6165 32.1542 -12.5634 33.3634 -13.1871C34.6562 -13.8539 35.5159 -12.5276 35.5159 -12.5276C35.5159 -12.5276 36.1814 -13.4787 36.1757 -13.464C36.6879 -13.4493 37.2868 -13.5244 37.9879 -13.7288C40.855 -14.5627 44.4691 -16.5758 46.62 -16.2742C46.62 -16.2742 47.8581 -14.7325 49.2092 -12.1908C50.215 -10.2986 50.9549 -9.64234 49.6409 -6.78805C48.5133 -4.91373 47.7863 -2.5912 46.4961 -1.05739C44.5677 1.23519 41.8184 2.42168 39.5368 2.06594C37.531 1.75329 35.7369 0.00614357 34.695 -3.10773C33.6092 -6.35297 33.3681 -7.26464 33.651 -8.13112L33.6515 -8.1306Z" fill="#FFBF9D"/>
<path d="M36.3638 33.8449C36.5512 33.7729 37.6282 33.2916 37.9989 32.9742C38.3696 32.6573 38.5328 32.5717 38.509 32.2359C38.4853 31.8996 38.3273 31.6311 38.1801 31.5859C38.1801 31.5859 37.9437 31.9574 37.5079 32.5213C37.1217 33.0199 35.6466 34.1213 36.3638 33.8454V33.8449Z" fill="#D67550"/>
<path d="M51.0943 21.6198C50.8676 23.4116 43.3673 22.296 43.3673 22.296C43.3673 22.296 43.3673 22.296 43.3673 22.2971C42.5412 24.8687 42.6806 24.9154 41.7626 27.3121C41.1327 28.9573 38.7841 30.3361 38.7841 30.3361C37.1928 30.6655 33.5736 33.7017 33.5736 33.7017C33.5736 33.7017 31.7985 35.1514 29.5082 35.8114C28.9237 35.98 27.9991 35.8277 27.0666 35.7026C25.8234 35.535 24.5372 35.2696 23.8748 35.1461C23.628 35.1004 11.5378 31.6476 11.5378 31.6476C11.5378 31.6476 16.8418 18.5285 17.119 18.5521C17.3958 18.5758 7.40997 16.7509 8.49679 13.1977C9.06317 11.3444 13.8622 2.70743 17.9219 -0.615047C22.5325 -4.38732 27.2613 -2.7605 27.2613 -2.7605L31.1082 -0.798958C31.1082 -0.798958 27.0134 9.78957 36.6951 11.2209C43.3688 12.2072 44.0214 3.0742 44.0214 3.0742C44.0214 3.0742 50.3539 1.26978 51.3596 9.95247C51.5667 11.7401 51.8398 15.7478 51.0958 21.6187L51.0943 21.6198Z" fill="#F1F1F1"/>
<path d="M20.7116 10.2673C19.3357 11.0523 17.1202 18.5527 17.1202 18.5527L11.4414 31.6482L25.3991 35.3159C25.3991 35.3159 15.8465 32.1879 15.8465 30.1591C15.8465 28.1303 17.5183 22.2751 17.9231 23.1143C18.6707 24.6638 21.484 25.2555 23.2596 25.6785C25.0356 26.101 26.7007 25.1714 26.0636 25.0868C25.427 25.0022 21.9213 24.0391 20.7111 23.1258C19.5014 22.2126 18.998 20.0035 18.8364 18.7461C18.587 16.8019 21.3947 9.87741 20.7111 10.2678L20.7116 10.2673Z" fill="#E4E2E2"/>
<path d="M44.6404 16.4263L43.3672 22.2973L44.6404 22.4538C44.6404 22.4538 45.277 16.595 44.6404 16.4258V16.4263Z" fill="#E4E2E2"/>
<path d="M43.369 22.2969C42.5429 24.8685 42.6824 24.9152 41.7644 27.3119C41.1345 28.9571 38.7858 30.3359 38.7858 30.3359C37.1946 30.6653 33.5753 33.7014 33.5753 33.7014C33.5753 33.7014 31.2256 35.3151 29.51 35.8112C28.9255 35.9804 28.0008 35.8275 27.0684 35.7024C28.2409 35.477 31.8942 35.3151 35.8295 31.0321C36.5673 30.2292 33.9569 28.0212 34.6472 28.3265C35.9426 28.9003 38.411 29.4468 40.0069 28.3265C41.4122 27.3397 43.335 22.3689 43.3701 22.2969H43.369Z" fill="#E4E2E2"/>
<path d="M36.5951 45.0678C34.6951 46.4529 34.3172 50.6971 34.3172 50.6971L33.7142 50.076C33.7142 50.076 33.5748 48.9767 34.7421 46.888C35.909 44.7998 36.5956 45.0678 36.5956 45.0678H36.5951Z" fill="#737373"/>
<path d="M24.9766 50.9089C30.0611 48.6794 33.9261 50.8563 33.9261 50.8563L34.4269 49.8328C34.4269 49.8328 34.0805 48.7172 30.217 49.1055C26.3535 49.4938 24.9766 50.9089 24.9766 50.9089Z" fill="#737373"/>
<path d="M39.6012 45.1537C36.8333 45.9839 34.8249 50.6821 34.8249 50.6821L34.3359 49.7336C34.3359 49.7336 34.574 48.4226 36.7285 46.4994C38.883 44.5757 39.6012 45.1537 39.6012 45.1537Z" fill="#737373"/>
<path d="M23.2949 48.1434C28.1704 47.8554 34.6288 51.1748 34.6288 51.1748L37.7266 52.1405C37.7266 52.1405 32.7866 48.1024 28.1704 47.856C23.5541 47.6095 23.2949 48.1439 23.2949 48.1439V48.1434Z" fill="#737373"/>
<path d="M12.8523 40.9528C12.8523 40.9528 13.8508 41.5166 14.6258 41.8834C15.4013 42.2496 17.6993 42.588 17.7824 42.7572C17.8656 42.9264 15.8995 42.701 14.8199 42.278C13.7398 41.8555 12.3246 40.7552 12.8523 40.9533V40.9528Z" fill="#F19A7C"/>
<path d="M14.6645 44.0581C14.6645 44.0581 16.3982 44.4191 17.1458 44.5599C17.8934 44.7007 17.9213 44.7853 17.644 44.7853C17.3668 44.7853 15.9273 44.5373 15.4565 44.4217C14.9856 44.3061 14.2736 43.9525 14.5535 44.0229" fill="#F19A7C"/>
<path d="M41.0462 16.8406L35.2382 26.834L33.1587 22.3034L29.1109 27.3637L33.8388 15.5847L35.9196 21.1649L41.0462 16.8406Z" fill="#F27373"/>
<path d="M20.1851 21.573L27.2742 28.5941L23.2914 29.059L26.7013 33.4699L17.9995 26.8353L22.8264 26.6339L20.1851 21.573Z" fill="#F27373"/>
</g>
<defs>
<clipPath id="clip0_11560_28373">
<rect width="56" height="56" rx="28" fill="white"/>
</clipPath>
</defs>
</svg>
