<svg width="56" height="56" viewBox="0 0 56 56" fill="none" xmlns="http://www.w3.org/2000/svg">
<g clip-path="url(#clip0_11560_28409)">
<path d="M17.5015 44.1378C16.4372 44.1378 15.4946 44.0087 14.7002 43.7543C13.7572 43.4523 13.0542 42.9803 12.6102 42.3517C12.1291 41.6705 11.863 40.4755 11.8193 38.8001C11.7811 37.3379 11.9176 35.888 12.0027 35.1542C12.3355 32.2768 11.76 28.8536 11.3874 27.069C11.348 26.8798 7.43945 7.91675 7.43945 -0.764169L26.5324 -1.17578C26.5305 -1.04313 26.3209 12.2073 25.7283 23.1866C25.7065 23.5896 25.7267 24.002 25.788 24.4128C25.9714 25.641 26.5246 26.8903 27.3884 28.0253C27.4458 28.1006 27.6767 28.4638 28.3927 28.9492C28.8733 29.2749 29.0836 29.3253 30.139 29.9031C32.7936 31.3564 33.6652 32.0575 34.8719 33.0278C34.9722 33.1086 37.0517 34.892 37.5067 35.334C37.7833 35.6032 38.672 36.3039 38.8636 36.4549C39.1063 36.6465 39.3158 36.8123 39.4403 36.8607C39.4512 36.865 39.4582 36.8669 39.4625 36.8681C39.5288 36.8584 40.0942 36.913 40.2303 36.9731C40.324 36.9578 40.4449 36.9457 40.5935 36.9457C40.789 36.9457 41.0005 36.9664 41.2221 37.0078C41.4148 37.0437 41.5654 37.1162 41.6735 37.1857C41.803 37.1798 41.9911 37.1732 42.1975 37.1732C42.5147 37.1732 42.7815 37.1884 42.991 37.2185C43.4163 37.2793 43.6801 37.4701 43.8373 37.6441C43.9091 37.641 43.9906 37.6387 44.078 37.6387C44.5446 37.6387 44.9106 37.7007 45.1658 37.8228C45.5473 38.0054 45.8294 38.4155 46.0155 38.7775C46.0155 38.7775 46.4712 38.7631 46.5524 38.7631C47.0131 38.7631 47.5336 38.8197 47.8996 39.2379C48.1976 39.5785 48.2995 40.1134 48.1789 40.706C48.1602 40.7981 47.9604 41.4048 47.8013 41.6927C46.7455 43.6029 44.2271 43.4738 44.1202 43.4738C43.3344 43.4738 42.654 43.3033 42.1073 43.166C41.7203 43.0688 41.3863 42.9853 41.123 42.9853C41.0087 42.9853 40.6755 43.0684 40.4742 43.1223C37.9682 43.789 36.4603 43.7024 36.3857 43.7009C34.2177 43.6599 33.0889 43.5694 31.7129 43.1117C30.7621 42.7957 29.775 42.6549 28.5117 42.6549C27.816 42.6549 27.0306 42.697 26.111 42.7836C24.8719 42.9003 24.165 43.0856 23.346 43.3006C22.3148 43.5709 21.1459 43.8776 18.67 44.0883C18.2744 44.1218 17.8811 44.139 17.5004 44.139L17.5015 44.1378Z" fill="#FCFCFC"/>
<path d="M47.725 40.6124C47.7105 40.6842 47.6914 40.7587 47.668 40.836C47.6087 41.0318 47.5197 41.2425 47.3961 41.4668C46.8908 42.3802 45.9576 42.9245 44.3642 43.0021C42.7704 43.0797 41.6343 42.3587 40.8177 42.553C40.0015 42.7473 38.4561 43.2744 36.3957 43.2354C34.3357 43.1968 33.221 43.1223 31.8605 42.6701C30.5001 42.2179 28.9574 42.0482 26.0691 42.3201C23.1808 42.592 22.9982 43.253 18.6324 43.6244C16.3648 43.8171 13.9681 43.4687 12.99 42.0837C12.0122 40.6986 12.2604 36.9719 12.4644 35.2072C12.8269 32.0751 12.1472 28.4334 11.8425 26.9738C11.4087 24.8958 7.9043 7.37872 7.9043 -0.764569L8.95303 -0.788758L25.2915 -1.16565L26.0691 -1.18359C26.0691 -1.18359 25.8646 12.0633 25.2654 23.1608C25.2416 23.6048 25.2646 24.0461 25.3297 24.4807C25.5361 25.8634 25 26 25.5 27.5C25.5 27.5 25.687 28.1065 26 28.5C26.2836 28.8566 26.3033 29.3033 26.5 29.5C26.6967 29.6967 26.5 29.5 28.0403 30.6686C30.8778 32.2222 31.6308 32.8885 33.0155 33.9974C34.9292 35.5299 35 35.5 37.5 37C38.5 37 38.957 37.1697 39.2731 37.2926C39.362 37.3273 39.4443 37.3402 39.5255 37.3273C39.8946 37.2692 40.1665 37.4635 40.1665 37.4635C40.1665 37.4635 40.4817 37.3418 41.1384 37.4635C41.3931 37.5107 41.5274 37.6578 41.5274 37.6578C41.5274 37.6578 42.3826 37.5996 42.9268 37.6773C43.4711 37.7549 43.6069 38.1244 43.6069 38.1244C43.6069 38.1244 44.5202 38.0272 44.9674 38.2411C45.3068 38.4034 45.5682 38.9024 45.6739 39.1326C45.7075 39.2055 45.7254 39.2516 45.7254 39.2516L46.2888 39.232C46.8526 39.2125 47.2802 39.232 47.5521 39.543C47.7312 39.7478 47.826 40.1212 47.7261 40.6128L47.725 40.6124Z" fill="#FFBF9D"/>
<path d="M27.0168 28.3058L23.7793 28.1115C25.249 23.0457 25.2876 -0.425135 25.2888 -1.16565L26.0664 -1.18359C26.0664 -1.18359 25.8619 12.0633 25.2627 23.1608C25.2389 23.6048 25.2619 24.0461 25.327 24.4807C25.5334 25.8634 26.16 27.179 27.0172 28.3058H27.0168Z" fill="#FCB08D"/>
<path fill-rule="evenodd" clip-rule="evenodd" d="M30 25.1395C30 28.5303 27.3137 31.2791 24 31.2791C20.6863 31.2791 18 28.5303 18 25.1395C18 21.7488 20.6863 19 24 19C27.3137 19 30 21.7488 30 25.1395ZM24 29.561C26.3864 29.561 28.3209 27.5814 28.3209 25.1395C28.3209 22.6977 26.3864 20.7181 24 20.7181C21.6136 20.7181 19.6791 22.6977 19.6791 25.1395C19.6791 27.5814 21.6136 29.561 24 29.561Z" fill="#FFA2A2"/>
<path d="M26.6499 25.1395C26.6499 26.637 25.4635 27.851 24.0001 27.851C22.5366 27.851 21.3503 26.637 21.3503 25.1395C21.3503 23.642 22.5366 22.4281 24.0001 22.4281C25.4635 22.4281 26.6499 23.642 26.6499 25.1395Z" fill="#EA4747"/>
<path fill-rule="evenodd" clip-rule="evenodd" d="M28.329 25.1395C28.329 27.5859 26.3909 29.5691 24.0001 29.5691C21.6093 29.5691 19.6712 27.5859 19.6712 25.1395C19.6712 22.6931 21.6093 20.71 24.0001 20.71C26.3909 20.71 28.329 22.6931 28.329 25.1395ZM24.0001 27.851C25.4635 27.851 26.6499 26.637 26.6499 25.1395C26.6499 23.642 25.4635 22.4281 24.0001 22.4281C22.5366 22.4281 21.3503 23.642 21.3503 25.1395C21.3503 26.637 22.5366 27.851 24.0001 27.851Z" fill="white"/>
</g>
<defs>
<clipPath id="clip0_11560_28409">
<rect width="56" height="56" rx="28" fill="white"/>
</clipPath>
</defs>
</svg>
