<svg width="56" height="56" viewBox="0 0 56 56" fill="none" xmlns="http://www.w3.org/2000/svg">
<path d="M48.3871 28.0012C48.3871 39.259 39.2609 48.3852 28.0031 48.3852C16.7454 48.3852 7.61914 39.259 7.61914 28.0012C7.61914 16.7434 16.7454 7.61719 28.0031 7.61719C39.2609 7.61719 48.3871 16.7434 48.3871 28.0012Z" fill="url(#paint0_radial_11560_28492)"/>
<path d="M48.3871 28.0012C48.3871 39.259 39.2609 48.3852 28.0031 48.3852C16.7454 48.3852 7.61914 39.259 7.61914 28.0012C7.61914 16.7434 16.7454 7.61719 28.0031 7.61719C39.2609 7.61719 48.3871 16.7434 48.3871 28.0012Z" fill="url(#paint1_radial_11560_28492)" fill-opacity="0.7"/>
<path d="M37.4187 25.089C37.4187 26.2944 36.634 27.1155 35.8402 27.1155C35.0464 27.1155 34.2617 26.2944 34.2617 25.089C34.2617 23.8836 35.0464 23.0625 35.8402 23.0625C36.634 23.0625 37.4187 23.8836 37.4187 25.089Z" fill="#334155" stroke="#334155" stroke-width="0.875"/>
<path d="M21.5164 25.089C21.5164 26.2944 20.7317 27.1155 19.9379 27.1155C19.1441 27.1155 18.3594 26.2944 18.3594 25.089C18.3594 23.8836 19.1441 23.0625 19.9379 23.0625C20.7317 23.0625 21.5164 23.8836 21.5164 25.089Z" fill="#334155" stroke="#334155" stroke-width="0.875"/>
<path d="M15.8652 22.0727C17.5636 22.1406 21.1234 21.6243 21.7755 19.0156" stroke="#334155" stroke-width="0.875" stroke-linecap="round" stroke-linejoin="round"/>
<path d="M38.8965 21.6645C37.1981 21.7324 33.6384 21.2161 32.9862 18.6074" stroke="#334155" stroke-width="0.875" stroke-linecap="round" stroke-linejoin="round"/>
<path d="M23.7422 36.5401C25.4812 35.4179 29.6182 33.9309 32.2542 36.9609" stroke="#334155" stroke-width="0.875" stroke-linecap="round" stroke-linejoin="round"/>
<path fill-rule="evenodd" clip-rule="evenodd" d="M38.6411 15.3516C38.9566 15.5664 39.3866 15.4847 39.6014 15.1691L41.3453 12.607C41.4554 12.4449 41.4918 12.2438 41.4451 12.0535C41.3985 11.8632 41.2733 11.7017 41.1006 11.6091L40.0104 11.0241L41.6102 9.01849C41.8482 8.72013 41.7993 8.28526 41.5009 8.04721C41.2025 7.80925 40.7677 7.85816 40.5296 8.15651L38.4128 10.8102C38.2849 10.9704 38.2349 11.1793 38.2761 11.3802C38.3174 11.5811 38.4457 11.7532 38.6264 11.8502L39.7704 12.464L38.4586 14.3914C38.2438 14.707 38.3255 15.1369 38.6411 15.3516Z" fill="#F27373"/>
<path fill-rule="evenodd" clip-rule="evenodd" d="M43.6948 17.9829C43.859 18.3275 44.2715 18.4737 44.6161 18.3095L47.414 16.9762C47.5908 16.8919 47.7236 16.7365 47.7793 16.5486C47.835 16.3608 47.8083 16.1582 47.7059 15.9911L47.0593 14.9363L49.4522 14.0109C49.8082 13.8733 49.9852 13.4731 49.8476 13.1171C49.7099 12.7611 49.3097 12.5841 48.9537 12.7217L45.7876 13.946C45.5964 14.0199 45.4478 14.175 45.3822 14.3693C45.3165 14.5636 45.3405 14.7769 45.4477 14.9518L46.1261 16.0587L44.0214 17.0617C43.6768 17.2259 43.5306 17.6383 43.6948 17.9829Z" fill="#F27373"/>
<defs>
<radialGradient id="paint0_radial_11560_28492" cx="0" cy="0" r="1" gradientUnits="userSpaceOnUse" gradientTransform="translate(28.0031 -1.11881) rotate(90) scale(67.2)">
<stop stop-color="#FFE3A3" stop-opacity="0.78"/>
<stop offset="1" stop-color="#FFBB67"/>
</radialGradient>
<radialGradient id="paint1_radial_11560_28492" cx="0" cy="0" r="1" gradientUnits="userSpaceOnUse" gradientTransform="translate(44.7209 14.2942) rotate(135) scale(21.9664)">
<stop stop-color="#F48B91"/>
<stop offset="1" stop-color="#F48B91" stop-opacity="0"/>
</radialGradient>
</defs>
</svg>
