<svg width="56" height="56" viewBox="0 0 56 56" fill="none" xmlns="http://www.w3.org/2000/svg">
<g clip-path="url(#clip0_11560_28481)">
<rect x="5.13086" y="42.9336" width="46.2" height="14.9333" fill="#FFBF9D"/>
<path fill-rule="evenodd" clip-rule="evenodd" d="M34.8308 44.16H53.0342C52.8095 40.5724 49.6212 32.7461 47.1937 27.4433C42.4764 17.1385 52.1356 -11.2569 62.0195 -26.5996H34.8308H21.5855H-5.6033C4.28059 -11.2569 13.9398 17.1385 9.22253 27.4433C6.79506 32.7461 3.60669 40.5724 3.38205 44.16H21.5855H34.8308Z" fill="#FFBF9D"/>
<path d="M52.2227 38.567C38.413 38.567 27.9198 55.7913 27.9198 55.7913V34.4592C38.0368 35.033 45.0796 31.5212 48.0813 28.7246L52.2227 38.567Z" fill="#FDF1F1"/>
<path d="M4.15599 38.3913C17.9657 38.3913 27.9187 55.7913 27.9187 55.7913V34.4592C17.8018 35.033 11.4782 31.5212 8.47659 28.7246L4.15599 38.3913Z" fill="#FDF1F1"/>
<path fill-rule="evenodd" clip-rule="evenodd" d="M26.2258 31.7667C26.2258 35.5038 23.2651 38.5333 19.6129 38.5333C15.9607 38.5333 13 35.5038 13 31.7667C13 28.0295 15.9607 25 19.6129 25C23.2651 25 26.2258 28.0295 26.2258 31.7667ZM19.6129 36.6397C22.243 36.6397 24.3752 34.458 24.3752 31.7667C24.3752 29.0754 22.243 26.8936 19.6129 26.8936C16.9827 26.8936 14.8506 29.0754 14.8506 31.7667C14.8506 34.458 16.9827 36.6397 19.6129 36.6397Z" fill="#FFA2A2"/>
<path d="M22.5335 31.7667C22.5335 33.4171 21.2259 34.7551 19.613 34.7551C18 34.7551 16.6925 33.4171 16.6925 31.7667C16.6925 30.1162 18 28.7782 19.613 28.7782C21.2259 28.7782 22.5335 30.1162 22.5335 31.7667Z" fill="#EA4747"/>
<path fill-rule="evenodd" clip-rule="evenodd" d="M24.384 31.7667C24.384 34.4629 22.248 36.6487 19.613 36.6487C16.978 36.6487 14.8419 34.4629 14.8419 31.7667C14.8419 29.0704 16.978 26.8846 19.613 26.8846C22.248 26.8846 24.384 29.0704 24.384 31.7667ZM19.613 34.7551C21.2259 34.7551 22.5335 33.4171 22.5335 31.7667C22.5335 30.1162 21.2259 28.7782 19.613 28.7782C18 28.7782 16.6925 30.1162 16.6925 31.7667C16.6925 33.4171 18 34.7551 19.613 34.7551Z" fill="white"/>
<path d="M28.9945 26.3463C29.1656 27.4222 28.4584 27.9602 27.7971 27.9602C27.1128 27.6016 26.5996 27.2376 26.5996 26.3463C26.5996 25.455 27.1357 24.7324 27.7971 24.7324C28.4584 24.7324 28.8235 25.2704 28.9945 26.3463Z" fill="#CB9578"/>
</g>
<defs>
<clipPath id="clip0_11560_28481">
<rect width="56" height="56" rx="28" fill="white"/>
</clipPath>
</defs>
</svg>
