<svg width="56" height="56" viewBox="0 0 56 56" fill="none" xmlns="http://www.w3.org/2000/svg">
<g clip-path="url(#clip0_11560_28455)">
<rect x="7" y="45.2676" width="42" height="13.5333" fill="#FFBF9D"/>
<path fill-rule="evenodd" clip-rule="evenodd" d="M21.7223 46.6252H5.04638C5.25217 43.3384 8.1732 36.1683 10.3971 31.3102C14.7189 21.8695 5.86957 -4.14497 -3.18555 -18.2012H21.7223H33.8581H58.7659C49.7108 -4.14497 40.8615 21.8695 45.1832 31.3102C47.4072 36.1683 50.3282 43.3384 50.534 46.6252H33.8581H21.7223Z" fill="#FFBF9D"/>
<path d="M48.3005 38.2672C47.1805 43.8672 27.7683 52.9672 27.7683 52.9672C27.7683 52.9672 7.38924 39.6672 7.46702 37.8005C7.5448 35.9339 10.9683 29.8672 10.9683 29.8672C28.515 38.8272 40.835 33.6005 44.8017 29.8672L48.3005 38.2672Z" fill="#FDF1F1"/>
<path d="M29.0072 13.0664C28.2134 15.1316 26.6241 19.2619 28.2129 28.6345" stroke="#D6A185" stroke-width="1.58858" stroke-linecap="round"/>
<path fill-rule="evenodd" clip-rule="evenodd" d="M34.9518 32.1381C34.9518 36.0804 31.8286 39.2762 27.9759 39.2762C24.1232 39.2762 21 36.0804 21 32.1381C21 28.1958 24.1232 25 27.9759 25C31.8286 25 34.9518 28.1958 34.9518 32.1381ZM27.9759 37.2787C30.7504 37.2787 32.9996 34.9772 32.9996 32.1381C32.9996 29.2991 30.7504 26.9976 27.9759 26.9976C25.2014 26.9976 22.9522 29.2991 22.9522 32.1381C22.9522 34.9772 25.2014 37.2787 27.9759 37.2787Z" fill="#FFA2A2"/>
<path d="M31.0568 32.1381C31.0568 33.8792 29.6775 35.2906 27.976 35.2906C26.2745 35.2906 24.8952 33.8792 24.8952 32.1381C24.8952 30.3971 26.2745 28.9857 27.976 28.9857C29.6775 28.9857 31.0568 30.3971 31.0568 32.1381Z" fill="#EA4747"/>
<path fill-rule="evenodd" clip-rule="evenodd" d="M33.009 32.1381C33.009 34.9824 30.7556 37.2881 27.976 37.2881C25.1964 37.2881 22.943 34.9824 22.943 32.1381C22.943 29.2938 25.1964 26.9881 27.976 26.9881C30.7556 26.9881 33.009 29.2938 33.009 32.1381ZM27.976 35.2906C29.6775 35.2906 31.0568 33.8792 31.0568 32.1381C31.0568 30.3971 29.6775 28.9857 27.976 28.9857C26.2745 28.9857 24.8952 30.3971 24.8952 32.1381C24.8952 33.8792 26.2745 35.2906 27.976 35.2906Z" fill="white"/>
</g>
<defs>
<clipPath id="clip0_11560_28455">
<rect width="56" height="56" rx="28" fill="white"/>
</clipPath>
</defs>
</svg>
