<svg width="56" height="56" viewBox="0 0 56 56" fill="none" xmlns="http://www.w3.org/2000/svg">
<path d="M25.9 28.9132C25.829 30.2155 25.3013 31.3973 24.4836 32.3077C25.2736 33.073 26.2086 33.687 27.2423 34.1098C27.9274 33.255 28.4582 32.2737 28.7914 31.1968C27.591 30.7833 26.5789 29.9686 25.9031 28.9102L25.9 28.9132ZM20.114 34.1623C19.2068 34.1623 18.4785 34.6684 18.4785 35.2917V37.245C18.9321 37.3407 19.395 37.4055 19.8671 37.424C20.0153 37.4333 20.1696 37.4394 20.3208 37.4394C20.8083 37.4394 21.2836 37.4024 21.7526 37.3222V35.2917C21.7526 34.6684 21.0213 34.1623 20.114 34.1623Z" fill="#FB4F37"/>
<path d="M29.1895 28.5699C29.1895 29.2457 29.1123 29.9061 28.9673 30.5356C28.9179 30.7578 28.8562 30.9799 28.7883 31.196C27.5879 30.7825 26.5757 29.9678 25.8999 28.9093C25.9061 28.86 25.9092 28.8075 25.9061 28.7612C25.9154 28.6995 25.9154 28.6347 25.9154 28.5699C25.9154 27.4652 25.5913 26.4345 25.039 25.5674C24.3632 24.512 23.351 23.7004 22.1506 23.2869C21.5767 23.0833 20.9657 22.9783 20.3238 22.9783C17.238 22.9783 14.7322 25.4841 14.7322 28.5699C14.7322 31.6557 17.238 34.1615 20.3238 34.1615C21.7495 34.1615 23.0579 33.6214 24.0515 32.7389C24.2058 32.6 24.3508 32.455 24.4866 32.3038C25.2766 33.0691 26.2116 33.6832 27.2454 34.1059C27.1158 34.2695 26.9769 34.4238 26.8349 34.578C25.5173 36.0006 23.7491 36.9881 21.7587 37.3152V35.2847C21.7587 34.6614 21.0274 34.1553 20.1201 34.1553C19.2129 34.1553 18.4846 34.6614 18.4846 35.2847V37.238C14.8773 36.4758 12.0722 33.5103 11.5477 29.8289C11.4859 29.4185 11.4551 28.9957 11.4551 28.5668C11.4551 23.6788 15.4327 19.7012 20.3269 19.7012C21.5211 19.7012 22.666 19.9388 23.7059 20.3708C24.7366 20.7936 25.6685 21.4076 26.4585 22.1699C28.1403 23.7837 29.1925 26.0549 29.1925 28.5668L29.1895 28.5699Z" fill="#EC809B"/>
<path d="M21.7697 35.2826V45.9394C21.7697 46.5631 21.0332 47.0634 20.1196 47.0634C19.206 47.0634 18.4727 46.5631 18.4727 45.9394V35.2826C18.4727 34.6588 19.206 34.1523 20.1196 34.1523C21.0332 34.1523 21.7697 34.6588 21.7697 35.2826Z" fill="#EC809B"/>
<path d="M25.029 40.6151C25.029 41.5162 24.5816 42.2506 24.0261 42.2506H16.6201C16.0646 42.2506 15.6172 41.5193 15.6172 40.6151C15.6172 39.711 16.0646 38.9766 16.6201 38.9766H24.0261C24.5816 38.9766 25.029 39.7079 25.029 40.6151Z" fill="#EC809B"/>
<path d="M30.6126 17.0469C27.8168 17.0469 25.3234 18.3429 23.7033 20.3734C24.734 20.7962 25.6659 21.4103 26.4559 22.1725C27.4773 21.0338 28.9616 20.321 30.6126 20.321C33.7015 20.321 36.2134 22.8174 36.2134 25.9094C36.2134 26.937 35.9295 27.8905 35.4481 28.7206V28.7268C35.3802 28.8472 35.3092 28.9644 35.2259 29.0786C34.7538 29.7729 34.1273 30.35 33.3929 30.7666C33.2664 30.8344 33.143 30.9023 33.0164 30.9579L33.0103 30.9641C32.282 31.3097 31.4612 31.5102 30.6095 31.5102C29.9676 31.5102 29.3566 31.4053 28.7857 31.2017C27.5853 30.7882 26.5732 29.9735 25.8974 28.915C25.3419 28.0479 25.0241 27.0142 25.0241 25.9125C25.0241 25.7953 25.0303 25.6873 25.0333 25.57C24.3575 24.5146 23.3454 23.7031 22.145 23.2895C21.8889 24.1196 21.75 25.0022 21.75 25.9125C21.75 28.4244 22.7961 30.6956 24.4779 32.3095C25.2679 33.0748 26.2029 33.6889 27.2366 34.1116C28.2766 34.5467 29.4152 34.7812 30.6064 34.7812C32.1586 34.7812 33.6089 34.3863 34.8741 33.6919L34.8803 33.6858C35.8554 33.155 36.6978 32.4453 37.4107 31.5936C38.7067 30.0568 39.4844 28.0695 39.4844 25.9094C39.4844 21.0214 35.4974 17.0469 30.6095 17.0469H30.6126Z" fill="#84CADC"/>
<path d="M40.2828 38.6857C39.9989 38.8832 39.6718 38.9696 39.357 38.9696C38.8324 38.9696 38.3202 38.7197 38.0024 38.2599L37.4099 37.3835L36.9995 36.7848L34.8826 33.6836L33.0156 30.9557C33.1421 30.897 33.2656 30.8292 33.3921 30.7644C34.1234 30.3509 34.753 29.7707 35.2251 29.0764C35.3022 28.9622 35.3732 28.845 35.4473 28.7246L37.413 31.5944L40.0853 35.4888L40.7086 36.4053C41.224 37.1582 41.0265 38.1704 40.2859 38.6857H40.2828Z" fill="#84CADC"/>
<path d="M43.679 34.3805L42.4037 39.4065C42.1793 40.2906 41.3135 40.8541 40.4143 40.7013L34.3782 39.6758C33.4864 39.5215 32.8878 38.6791 33.039 37.7872C33.1933 36.8954 34.0419 36.2968 34.9275 36.448L36.9333 36.7905L37.9115 36.9602L39.5748 37.2441L40.0192 35.4945L40.5067 33.5812C40.7289 32.7049 41.6207 32.1741 42.494 32.3963C43.0495 32.5351 43.4692 32.9456 43.642 33.4516C43.7438 33.7448 43.7623 34.0688 43.679 34.3866V34.3805Z" fill="#84CADC"/>
<path fill-rule="evenodd" clip-rule="evenodd" d="M21.9629 16.557C21.6776 16.8572 21.203 16.8692 20.9029 16.5839L18.4658 14.2677C18.3118 14.1212 18.2271 13.9164 18.2329 13.7039C18.2387 13.4914 18.3344 13.2914 18.4962 13.1536L19.5178 12.2832L17.3613 10.5239C17.0404 10.2622 16.9925 9.78994 17.2542 9.46906C17.5159 9.14829 17.9882 9.10032 18.3091 9.36201L21.1625 11.6897C21.3349 11.8302 21.4359 12.0402 21.4383 12.2626C21.4406 12.4851 21.3441 12.697 21.1748 12.8413L20.1028 13.7547L21.9359 15.4971C22.2361 15.7824 22.2481 16.2569 21.9629 16.557Z" fill="#F27373"/>
<path fill-rule="evenodd" clip-rule="evenodd" d="M42.6544 26.5089C42.9953 26.7439 43.4622 26.658 43.6972 26.317L45.6054 23.5488C45.7259 23.3738 45.7667 23.1558 45.7172 22.9491C45.6679 22.7424 45.5331 22.5663 45.3464 22.4648L44.1675 21.8233L45.9157 19.6578C46.1759 19.3357 46.1255 18.8637 45.8034 18.6035C45.4812 18.3435 45.0092 18.3937 44.749 18.7159L42.4358 21.581C42.2961 21.754 42.2404 21.9803 42.2839 22.1984C42.3274 22.4166 42.4654 22.6042 42.6608 22.7105L43.8979 23.3837L42.4626 25.4661C42.2276 25.807 42.3135 26.2739 42.6544 26.5089Z" fill="#F27373"/>
</svg>
