<svg width="56" height="56" viewBox="0 0 56 56" fill="none" xmlns="http://www.w3.org/2000/svg">
<path d="M48.3852 27.9992C48.3852 39.257 39.259 48.3832 28.0012 48.3832C16.7434 48.3832 7.61719 39.257 7.61719 27.9992C7.61719 16.7415 16.7434 7.61523 28.0012 7.61523C39.259 7.61523 48.3852 16.7415 48.3852 27.9992Z" fill="url(#paint0_radial_11560_28439)"/>
<path d="M21.207 33.3637C21.6758 33.74 22.5238 34.4664 23.0935 35.0804C23.3402 35.3462 23.8414 35.3349 24.0514 35.0393C24.43 34.5061 24.9507 33.8681 25.4943 33.4312C25.6581 33.2996 25.8903 33.3183 26.0459 33.4595C26.5529 33.9196 27.2591 34.5797 27.7296 35.0739C27.9575 35.3133 28.3865 35.3051 28.5861 35.0416C29.1179 34.3393 29.8303 33.488 30.2457 33.2729C30.3482 33.2198 30.4622 33.2641 30.5477 33.3416C31.1082 33.8495 31.9731 34.6375 32.5164 35.1442C32.7515 35.3635 33.1503 35.3016 33.3183 35.0275C33.7185 34.3743 34.3042 33.5722 34.796 33.3637" stroke="#334155" stroke-width="1.225" stroke-linecap="round" stroke-linejoin="round"/>
<path fill-rule="evenodd" clip-rule="evenodd" d="M31.9223 24.724C31.9613 24.9491 32.1755 25.1128 32.4502 25.1278C34.5749 25.2429 35.4876 25.545 37.2148 26.1208C37.5281 26.2252 37.9077 26.0899 38.0627 25.8187C38.2176 25.5475 38.0894 25.243 37.7761 25.1386C36.5693 24.7363 35.6972 24.4467 34.5258 24.2636L38.4894 22.4237C38.8059 22.2768 38.9423 21.9544 38.7942 21.7037C38.6459 21.4529 38.2692 21.3687 37.9527 21.5156L32.2805 24.1486C32.0286 24.2655 31.8833 24.499 31.9223 24.724Z" fill="#334155"/>
<path fill-rule="evenodd" clip-rule="evenodd" d="M24.0782 24.724C24.0393 24.9491 23.825 25.1128 23.5503 25.1278C21.4256 25.2429 20.513 25.545 18.7857 26.1208C18.4724 26.2252 18.0928 26.0899 17.9379 25.8187C17.7829 25.5475 17.9112 25.243 18.2244 25.1386C19.4312 24.7363 20.3033 24.4467 21.4748 24.2636L17.511 22.4237C17.1946 22.2768 17.0581 21.9544 17.2064 21.7037C17.3546 21.4529 17.7313 21.3687 18.0478 21.5156L23.7201 24.1486C23.972 24.2655 24.1173 24.499 24.0782 24.724Z" fill="#334155"/>
<path fill-rule="evenodd" clip-rule="evenodd" d="M20.6267 7.68168C20.6834 7.76206 20.6814 7.78001 20.5639 8.24998C20.2289 9.59013 20.3867 10.7649 21.0704 12.0207C21.186 12.2331 21.3722 12.5467 21.4842 12.7176C22.5185 14.2964 22.8471 14.9534 22.9825 15.7127C23.0451 16.0644 23.0312 16.6881 22.9533 17.0197C22.6476 18.3197 21.6534 19.3272 20.3012 19.7071C18.9129 20.0972 17.4806 19.7534 16.4389 18.7802C15.8697 18.2483 15.4964 17.5432 15.3739 16.7683C15.12 15.1622 16.1436 12.8247 18.338 9.99915C19.1095 9.00579 20.2911 7.66101 20.4204 7.62901C20.5318 7.60145 20.5785 7.61339 20.6267 7.68168ZM16.5353 13.562C16.8857 12.8863 17.1999 12.5511 17.5566 12.4725C17.828 12.4127 18.2096 12.605 18.31 12.8523C18.3545 12.962 18.349 13.1907 18.2965 13.4122C18.2324 13.683 18.2379 13.9187 18.311 14.0299C18.3928 14.1547 18.5974 14.2869 18.7845 14.3361C18.9814 14.3878 19.2083 14.394 19.8599 14.3654C20.4178 14.3409 20.5977 14.3604 20.8344 14.471C21.0431 14.5684 21.2341 14.7755 21.3826 15.065C21.6095 15.5076 21.6549 15.7389 21.6169 16.2583L21.6032 16.4451L21.7473 16.5941C22.1107 16.97 22.2319 17.5508 22.0317 17.9569C21.7798 18.4681 21.1267 19.0234 20.506 19.254C20.0842 19.4108 19.863 19.4494 19.3681 19.4527C18.8663 19.456 18.6147 19.4193 18.1136 19.2697C17.1367 18.9781 16.3459 18.3093 15.9879 17.472C15.5651 16.4833 15.7665 15.0443 16.5353 13.562Z" fill="#77B3E3"/>
<path d="M17.5566 12.4725C17.1999 12.5511 16.8857 12.8863 16.5353 13.562C15.7665 15.0443 15.5651 16.4833 15.9879 17.472C16.3459 18.3093 17.1367 18.9781 18.1136 19.2697C18.6147 19.4193 18.8663 19.456 19.3681 19.4527C19.863 19.4494 20.0842 19.4108 20.506 19.254C21.1267 19.0234 21.7798 18.4681 22.0317 17.9569C22.2319 17.5508 22.1107 16.97 21.7473 16.5941L21.6032 16.4451L21.6169 16.2583C21.6549 15.7389 21.6095 15.5076 21.3826 15.065C21.2341 14.7755 21.0431 14.5684 20.8344 14.471C20.5977 14.3604 20.4178 14.3409 19.8599 14.3654C19.2083 14.394 18.9814 14.3878 18.7845 14.3361C18.5974 14.2869 18.3928 14.1547 18.311 14.0299C18.2379 13.9187 18.2324 13.683 18.2965 13.4122C18.349 13.1907 18.3545 12.962 18.31 12.8523C18.2096 12.605 17.828 12.4127 17.5566 12.4725Z" fill="#77B3E3"/>
<path fill-rule="evenodd" clip-rule="evenodd" d="M43.6958 36.6361C43.7269 36.6802 43.7258 36.6901 43.6613 36.9481C43.4774 37.6839 43.564 38.3289 43.9394 39.0184C44.0029 39.135 44.1051 39.3071 44.1666 39.401C44.7345 40.2678 44.9149 40.6285 44.9892 41.0454C45.0236 41.2385 45.016 41.5809 44.9732 41.763C44.8054 42.4767 44.2595 43.0299 43.5171 43.2385C42.7549 43.4526 41.9685 43.2639 41.3966 42.7296C41.084 42.4376 40.8791 42.0504 40.8119 41.625C40.6724 40.7432 41.2344 39.4598 42.4393 37.9085C42.8628 37.3631 43.5115 36.6247 43.5826 36.6072C43.6437 36.592 43.6694 36.5986 43.6958 36.6361ZM41.4495 39.8646C41.6419 39.4936 41.8144 39.3096 42.0102 39.2664C42.1592 39.2336 42.3688 39.3392 42.4239 39.4749C42.4483 39.5351 42.4453 39.6607 42.4165 39.7823C42.3813 39.931 42.3843 40.0604 42.4244 40.1215C42.4694 40.19 42.5817 40.2626 42.6844 40.2896C42.7925 40.318 42.9171 40.3214 43.2748 40.3057C43.5811 40.2922 43.6799 40.3029 43.8099 40.3636C43.9244 40.4172 44.0293 40.5308 44.1108 40.6898C44.2354 40.9328 44.2604 41.0598 44.2395 41.3449L44.232 41.4475L44.3111 41.5293C44.5106 41.7357 44.5771 42.0546 44.4672 42.2775C44.3289 42.5582 43.9703 42.8631 43.6296 42.9897C43.398 43.0758 43.2765 43.097 43.0048 43.0988C42.7293 43.1006 42.5912 43.0804 42.316 42.9983C41.7797 42.8382 41.3455 42.471 41.1489 42.0113C40.9168 41.4685 41.0274 40.6784 41.4495 39.8646Z" fill="#77B3E3"/>
<path d="M42.0102 39.2664C41.8144 39.3096 41.6419 39.4936 41.4495 39.8646C41.0274 40.6784 40.9168 41.4685 41.1489 42.0113C41.3455 42.471 41.7797 42.8382 42.316 42.9983C42.5912 43.0804 42.7293 43.1006 43.0048 43.0988C43.2765 43.097 43.398 43.0758 43.6296 42.9897C43.9703 42.8631 44.3289 42.5582 44.4672 42.2775C44.5771 42.0546 44.5106 41.7357 44.3111 41.5293L44.232 41.4475L44.2395 41.3449C44.2604 41.0598 44.2354 40.9328 44.1108 40.6898C44.0293 40.5308 43.9244 40.4172 43.8099 40.3636C43.6799 40.3029 43.5811 40.2922 43.2748 40.3057C42.9171 40.3214 42.7925 40.318 42.6844 40.2896C42.5817 40.2626 42.4694 40.19 42.4244 40.1215C42.3843 40.0604 42.3813 39.931 42.4165 39.7823C42.4453 39.6607 42.4483 39.5351 42.4239 39.4749C42.3688 39.3392 42.1592 39.2336 42.0102 39.2664Z" fill="#77B3E3"/>
<defs>
<radialGradient id="paint0_radial_11560_28439" cx="0" cy="0" r="1" gradientUnits="userSpaceOnUse" gradientTransform="translate(28.0012 -1.12077) rotate(90) scale(67.2)">
<stop stop-color="white" stop-opacity="0.73"/>
<stop offset="1" stop-color="#AC3600" stop-opacity="0.5"/>
</radialGradient>
</defs>
</svg>
