<svg width="56" height="56" viewBox="0 0 56 56" fill="none" xmlns="http://www.w3.org/2000/svg">
<path opacity="0.78" d="M38.3554 16.75L38.3532 16.7823L38.3472 16.8713L38.3307 17.1238L38.2566 18.2506L37.503 29.7312L37.5021 29.747L37.5006 29.7699L36.7501 41.2013L36.7471 41.2475C36.602 41.3787 36.3731 41.5021 36.0745 41.6163C35.5304 41.8249 34.7544 42.0042 33.8303 42.1503C33.0801 42.2695 32.2323 42.3664 31.3322 42.4395C30.143 42.5361 28.8617 42.5908 27.5924 42.5986C26.2363 42.6073 24.8941 42.5622 23.6922 42.4575C23.6864 42.457 23.681 42.4566 23.6753 42.4562C23.4935 42.4403 23.3146 42.4231 23.1397 42.4047C22.3921 42.325 21.7119 42.2199 21.1329 42.0876C20.5536 41.9555 20.0759 41.7962 19.7348 41.6082C19.5919 41.5296 19.4732 41.446 19.3807 41.3574C19.3433 41.3216 19.3104 41.285 19.2819 41.2475L18.5287 29.7714C18.5287 29.7714 18.5287 29.7712 18.5287 29.771L18.5272 29.7463L18.5261 29.7312L17.77 18.2152L17.6803 16.8477L17.6781 16.8135L17.6751 16.7705L17.6738 16.7502H38.3552L38.3554 16.75Z" fill="#E6DCE9"/>
<path d="M36.7528 41.2188C36.7526 41.4558 35.5449 41.9648 33.1127 42.2939C32.7857 42.3384 32.4367 42.3794 32.0654 42.416C32.0645 42.4162 32.0632 42.4162 32.0623 42.4162C30.9296 42.5282 29.5908 42.5998 28.0444 42.5998C27.8907 42.5998 27.7395 42.5996 27.5912 42.5983C26.0076 42.5903 24.727 42.5379 23.6909 42.4574C23.6852 42.4568 23.6798 42.4566 23.674 42.4559C23.3588 42.4315 23.0661 42.4042 22.7948 42.3748C22.7931 42.3746 22.7912 42.3746 22.7898 42.3742C22.1651 42.3067 21.6526 42.2278 21.2325 42.1436C21.2317 42.1434 21.2308 42.143 21.23 42.143C20.4693 41.99 20.0112 41.8193 19.7369 41.664C19.706 41.6467 19.6776 41.6295 19.6513 41.6125C19.5023 41.5165 19.4219 41.4283 19.3797 41.3569C19.3451 41.2981 19.3359 41.2503 19.3359 41.2184C19.3359 41.1642 19.4628 41.0942 19.699 41.0162C19.9928 40.9194 20.4561 40.8101 21.0548 40.7022C21.701 40.5859 22.5054 40.4717 23.425 40.3769C24.7639 40.239 26.3476 40.1426 28.0444 40.1426C29.2452 40.1426 30.3894 40.1904 31.4302 40.2668C32.3512 40.3347 33.192 40.4247 33.9192 40.5242C35.6008 40.7542 36.6772 41.0342 36.7489 41.2006C36.7517 41.2066 36.7528 41.2124 36.7528 41.218V41.2188Z" fill="#FFB442"/>
<path d="M39.0205 16.75V17.504C39.0205 17.8718 38.7861 18.1808 38.4763 18.2216C38.4028 18.2315 38.3287 18.241 38.255 18.2504C37.8817 18.2984 37.5081 18.3437 37.1343 18.3863C36.4686 18.4621 35.8019 18.5292 35.1341 18.5871C34.2286 18.666 33.3213 18.7287 32.4117 18.7755C29.0798 18.9474 25.7211 18.9067 22.3359 18.6635C21.4973 18.6035 20.6569 18.5306 19.8149 18.4455C19.3317 18.3967 18.8481 18.3441 18.3639 18.2872C18.1718 18.2646 17.9796 18.2417 17.7874 18.2177C17.7809 18.2168 17.7747 18.216 17.7684 18.215C17.5552 18.1808 17.3793 18.0194 17.2943 17.8006C17.2584 17.7087 17.2383 17.6067 17.2383 17.4992V16.75C17.3836 16.757 17.5286 16.7637 17.6735 16.7703C18.862 16.8253 20.0436 16.8711 21.2187 16.9071C22.105 16.9346 22.9878 16.957 23.8668 16.9737C26.0893 17.0172 28.2886 17.0271 30.465 17.0048C31.5029 16.9944 32.5355 16.9766 33.5628 16.9516C35.1713 16.9127 36.7673 16.8562 38.3514 16.7823C38.5745 16.7719 38.7976 16.761 39.0203 16.75H39.0205Z" fill="#E6DCE9"/>
<path opacity="0.2" d="M24.6603 42.4846C23.239 42.3774 22.7824 42.3014 22.2659 42.1681L20.8691 17.0859L23.3937 17.2234L24.6601 42.4846H24.6603Z" fill="white"/>
<path opacity="0.08" d="M23.8649 17.2524C22.9661 17.2117 22.0904 17.1632 21.2168 17.1225L21.2732 11.6074L23.9112 11.648L23.8647 17.2524H23.8649Z" fill="white"/>
<path opacity="0.15" d="M39.0199 17.0742V17.5047C39.0199 17.8725 38.7855 18.1815 38.4757 18.2223C38.4022 18.2322 38.3281 18.2418 38.2544 18.2511L37.5008 29.7317L37.4999 29.7475L37.4984 29.7704L36.7479 41.2018L36.7449 41.248C36.5998 41.3792 36.3709 41.5026 36.0723 41.6168L37.1337 18.3873L37.1906 17.1425C37.5475 17.1653 37.8929 17.1533 38.3287 17.1247C38.535 17.1111 38.762 17.0937 39.0201 17.0744L39.0199 17.0742Z" fill="white"/>
<mask id="mask0_11560_28417" style="mask-type:alpha" maskUnits="userSpaceOnUse" x="15" y="33" width="26" height="12">
<rect x="15" y="33" width="26" height="12" fill="#D9D9D9"/>
</mask>
<g mask="url(#mask0_11560_28417)">
<path d="M37.4947 29.7168L37.4938 29.7325L37.4923 29.7557L36.7423 41.1871L36.7393 41.2333C36.3298 41.6037 35.2543 41.9094 33.8242 42.1361C33.0746 42.2551 32.2271 42.352 31.3276 42.4252C30.139 42.5219 28.8586 42.5763 27.5901 42.5842C26.2348 42.5929 24.8934 42.548 23.6922 42.4432C23.6864 42.4426 23.681 42.4424 23.6753 42.4418C23.4936 42.4261 23.315 42.4089 23.14 42.3902C22.393 42.3106 21.7131 42.2056 21.1346 42.0734C20.5554 41.9413 20.0782 41.782 19.7372 41.594C19.5945 41.5156 19.4757 41.432 19.3835 41.3432C19.3461 41.3074 19.3132 41.2707 19.2847 41.2335L18.5319 29.7574C18.5319 29.7574 18.5319 29.7572 18.5317 29.7567L18.5302 29.7323L18.5293 29.7172H37.4951L37.4947 29.7168Z" fill="#FF8652"/>
<path d="M36.744 41.1681C36.7438 41.405 35.5326 41.914 33.0931 42.2431C32.7652 42.2876 32.4151 42.3286 32.0427 42.3652C32.0418 42.3654 32.0405 42.3654 32.0396 42.3654C30.9035 42.4774 29.5607 42.549 28.0098 42.549C27.8556 42.549 27.7039 42.5488 27.5552 42.5476C25.9669 42.5395 24.6825 42.4871 23.6433 42.4066C23.6375 42.406 23.6321 42.4058 23.6264 42.4051C23.3102 42.3807 23.0166 42.3534 22.7445 42.324C22.7428 42.3238 22.741 42.3238 22.7395 42.3234C22.1129 42.2559 21.599 42.1771 21.1775 42.0928C21.1768 42.0926 21.1759 42.0922 21.1751 42.0922C20.4122 41.9393 19.9527 41.7685 19.6776 41.6133C19.6466 41.5959 19.618 41.5787 19.5917 41.5617C19.4422 41.4657 19.3616 41.3775 19.3192 41.3061C19.2845 41.2473 19.2754 41.1995 19.2754 41.1676C19.2754 41.1134 19.4027 41.0435 19.6395 40.9654C19.9342 40.8686 20.3989 40.7593 20.9993 40.6515C21.6475 40.5351 22.4543 40.4209 23.3766 40.3261C24.7195 40.1882 26.3079 40.0918 28.0098 40.0918C29.2141 40.0918 30.3617 40.1396 31.4056 40.216C32.3294 40.2839 33.1726 40.3739 33.902 40.4735C35.5886 40.7034 36.6682 40.9834 36.7401 41.1499C36.7429 41.1559 36.744 41.1616 36.744 41.1672V41.1681Z" fill="#FF6E42"/>
</g>
<mask id="mask1_11560_28417" style="mask-type:alpha" maskUnits="userSpaceOnUse" x="17" y="16" width="22" height="27">
<path d="M38.3554 16.75L38.3532 16.7823L38.3472 16.8713L38.3307 17.1238L38.2566 18.2506L37.503 29.7312L37.5021 29.747L37.5006 29.7699L36.7501 41.2013L36.7471 41.2475C36.602 41.3787 36.3731 41.5021 36.0745 41.6163C35.5304 41.8249 34.7544 42.0042 33.8303 42.1503C33.0801 42.2695 32.2323 42.3664 31.3322 42.4395C30.143 42.5361 28.8617 42.5908 27.5924 42.5986C26.2363 42.6073 24.8941 42.5622 23.6922 42.4575C23.6864 42.457 23.681 42.4566 23.6753 42.4562C23.4935 42.4403 23.3146 42.4231 23.1397 42.4047C22.3921 42.325 21.7119 42.2199 21.1329 42.0876C20.5536 41.9555 20.0759 41.7962 19.7348 41.6082C19.5919 41.5296 19.4732 41.446 19.3807 41.3574C19.3433 41.3216 19.3104 41.285 19.2819 41.2475L18.5287 29.7714C18.5287 29.7714 18.5287 29.7712 18.5287 29.771L18.5272 29.7463L18.5261 29.7312L17.77 18.2152L17.6803 16.8477L17.6781 16.8135L17.6751 16.7705L17.6738 16.7502H38.3552L38.3554 16.75Z" fill="white"/>
</mask>
<g mask="url(#mask1_11560_28417)">
<path d="M38 33C38 33.0079 37.9992 33.0155 37.9974 33.0235C37.9333 33.3022 36.7267 33.553 34.8273 33.7306C34.0243 33.8059 33.0975 33.8677 32.0808 33.913C30.8348 33.9689 29.4538 34 28.0002 34C26.0238 34 24.1814 33.9427 22.6301 33.8439C21.6349 33.78 20.7595 33.6995 20.0454 33.6062C19.4106 33.523 18.9033 33.4297 18.5528 33.3285C18.2216 33.2335 18.03 33.1316 18.0031 33.0259L18.0029 33.0249C18.0012 33.0162 18 33.0083 18 33C18 32.9948 18.0006 32.9896 18.0014 32.9841C18.0027 32.9758 18.0051 32.9672 18.0088 32.9589C18.0482 32.8611 18.2283 32.7672 18.5287 32.6784C18.8723 32.5775 19.3735 32.4836 20.0031 32.3993C20.7122 32.3054 21.5841 32.2242 22.5766 32.1596C24.1388 32.0587 26.0011 32 28.0002 32C29.4742 32 30.8738 32.0318 32.1334 32.0891C33.151 32.1351 34.0774 32.1983 34.8783 32.2739C36.7076 32.4477 37.8819 32.6898 37.9916 32.9589C37.9953 32.9679 37.9976 32.9762 37.999 32.9851C37.9998 32.9903 38 32.9948 38 33Z" fill="#FF9A7B"/>
</g>
<path d="M39.025 16.886C39.025 16.8929 39.0241 16.8995 39.0222 16.9064C38.9524 17.1479 37.6382 17.3652 35.5695 17.5191C34.6949 17.5843 33.6854 17.6379 32.5782 17.6771C31.221 17.7256 29.7169 17.7525 28.1338 17.7525C25.9812 17.7525 23.9746 17.7029 22.2851 17.6173C21.2011 17.5619 20.2476 17.4921 19.4699 17.4113C18.7785 17.3392 18.226 17.2584 17.8443 17.1707C17.4835 17.0884 17.2749 17.0001 17.2456 16.9085C17.2456 16.9085 17.2455 16.9082 17.2454 16.9076C17.2435 16.9001 17.2422 16.8932 17.2422 16.886C17.2422 16.8815 17.2428 16.8771 17.2437 16.8723C17.2452 16.8651 17.2477 16.8576 17.2518 16.8504C17.2947 16.7657 17.4908 16.6843 17.818 16.6074C18.1922 16.52 18.7382 16.4386 19.4238 16.3655C20.1961 16.2841 21.1458 16.2138 22.2267 16.1578C23.9282 16.0704 25.9565 16.0195 28.1338 16.0195C29.7392 16.0195 31.2635 16.0471 32.6354 16.0968C33.7438 16.1366 34.7528 16.1913 35.6251 16.2569C37.6174 16.4074 38.8964 16.6173 39.0158 16.8504C39.0199 16.8582 39.0224 16.8654 39.0239 16.8732C39.0248 16.8777 39.025 16.8818 39.025 16.8863V16.886Z" fill="#DED0E1"/>
</svg>
