<svg width="56" height="56" viewBox="0 0 56 56" fill="none" xmlns="http://www.w3.org/2000/svg">
<g clip-path="url(#clip0_11560_28351)">
<g clip-path="url(#clip1_11560_28351)">
<rect x="0.00195312" y="0.00195312" width="56" height="56" rx="28" fill="white"/>
<path d="M14.015 29.1172C14.015 29.1172 1.43905 33.5069 2.54996 46.1259C3.65008 58.745 8.25549 59.3705 8.25549 67.2547C15.2661 60.2442 19.4293 54.8191 17.8546 48.186C16.2799 41.5529 15.169 35.8689 15.9671 32.245C14.3925 30.6703 14.0365 29.1172 14.0365 29.1172H14.015Z" fill="#2D2D2D"/>
<path d="M15.0086 24.1973C15.0086 24.1973 10.5111 29.0076 13.1212 31.6069C15.7205 34.2062 19.0316 34.9936 21.4799 32.556C18.2443 29.3204 15.0194 24.1973 15.0194 24.1973H15.0086Z" fill="#393939"/>
<path d="M41.7298 12.6038C41.7298 12.6038 49.3336 31.1117 24.8829 37.1084C21.809 34.0346 17.9909 32.8697 15.4671 28.2967C12.9433 23.7236 13.1051 13.3156 20.6765 9.5299C28.2479 5.74419 38.3432 7.00609 41.7298 12.6038Z" fill="#2D2D2D"/>
<path d="M41.7244 12.6045C41.7244 12.6045 40.4138 20.7983 32.1461 25.7676C31.645 26.0688 31.0093 25.7971 30.7211 25.2885C28.5557 21.467 22.8295 23.8408 26.1978 30.582C26.3012 30.7889 26.3356 31.026 26.2865 31.252C25.543 34.6735 23.0649 49.7793 9.44336 54.9808C14.0164 60.0931 41.8862 99.4063 46.0062 52.6403C38.4887 48.1644 34.7246 48.6281 37.0866 41.5313C40.236 41.5313 45.6827 42.8471 45.6827 32.644C47.5701 32.644 49.1772 32.3312 48.4438 30.3359C47.7103 28.3406 46.8691 27.0787 45.3915 24.1342C45.3915 19.723 44.1943 15.0528 41.7352 12.5938L41.7244 12.6045Z" fill="#FFBF9D"/>
<path fill-rule="evenodd" clip-rule="evenodd" d="M44 35C44 37.7614 41.7614 40 39 40C36.2386 40 34 37.7614 34 35C34 32.2386 36.2386 30 39 30C41.7614 30 44 32.2386 44 35ZM39 38.6008C40.9887 38.6008 42.6008 36.9887 42.6008 35C42.6008 33.0113 40.9887 31.3992 39 31.3992C37.0113 31.3992 35.3992 33.0113 35.3992 35C35.3992 36.9887 37.0113 38.6008 39 38.6008Z" fill="#FFA2A2"/>
<path d="M41.2082 35C41.2082 36.2195 40.2196 37.2082 39.0001 37.2082C37.7805 37.2082 36.7919 36.2195 36.7919 35C36.7919 33.7804 37.7805 32.7918 39.0001 32.7918C40.2196 32.7918 41.2082 33.7804 41.2082 35Z" fill="#EA4747"/>
<path fill-rule="evenodd" clip-rule="evenodd" d="M42.6075 35C42.6075 36.9923 40.9924 38.6074 39.0001 38.6074C37.0078 38.6074 35.3927 36.9923 35.3927 35C35.3927 33.0077 37.0078 31.3926 39.0001 31.3926C40.9924 31.3926 42.6075 33.0077 42.6075 35ZM39.0001 37.2082C40.2196 37.2082 41.2082 36.2195 41.2082 35C41.2082 33.7804 40.2196 32.7918 39.0001 32.7918C37.7805 32.7918 36.7919 33.7804 36.7919 35C36.7919 36.2195 37.7805 37.2082 39.0001 37.2082Z" fill="white"/>
</g>
</g>
<defs>
<clipPath id="clip0_11560_28351">
<rect width="56" height="56" rx="28" fill="white"/>
</clipPath>
<clipPath id="clip1_11560_28351">
<rect x="0.00195312" y="0.00195312" width="56" height="56" rx="28" fill="white"/>
</clipPath>
</defs>
</svg>
