<svg width="56" height="56" viewBox="0 0 56 56" fill="none" xmlns="http://www.w3.org/2000/svg">
<g clip-path="url(#clip0_11560_28362)">
<rect x="5.13086" y="42.9336" width="46.2" height="14.9333" fill="#FFBF9D"/>
<path fill-rule="evenodd" clip-rule="evenodd" d="M34.8308 44.16H53.0342C52.8095 40.5724 49.6212 32.7461 47.1937 27.4433C42.4764 17.1385 52.1356 -11.2569 62.0195 -26.5996H34.8308H21.5855H-5.6033C4.28059 -11.2569 13.9398 17.1385 9.22253 27.4433C6.79506 32.7461 3.60669 40.5724 3.38205 44.16H21.5855H34.8308Z" fill="#FFBF9D"/>
<path d="M52.2227 38.567C38.413 38.567 27.9198 55.7913 27.9198 55.7913V34.4592C38.0368 35.033 45.0796 31.5212 48.0813 28.7246L52.2227 38.567Z" fill="#FDF1F1"/>
<path d="M4.15599 38.3913C17.9657 38.3913 27.9187 55.7913 27.9187 55.7913V34.4592C17.8018 35.033 11.4782 31.5212 8.47659 28.7246L4.15599 38.3913Z" fill="#FDF1F1"/>
<path fill-rule="evenodd" clip-rule="evenodd" d="M35 45C35 48.866 31.866 52 28 52C24.134 52 21 48.866 21 45C21 41.134 24.134 38 28 38C31.866 38 35 41.134 35 45ZM28 50.0411C30.7841 50.0411 33.0411 47.7841 33.0411 45C33.0411 42.2159 30.7841 39.9589 28 39.9589C25.2159 39.9589 22.9589 42.2159 22.9589 45C22.9589 47.7841 25.2159 50.0411 28 50.0411Z" fill="#FFA2A2"/>
<path d="M31.0915 45C31.0915 46.7073 29.7075 48.0914 28.0001 48.0914C26.2927 48.0914 24.9086 46.7073 24.9086 45C24.9086 43.2926 26.2927 41.9085 28.0001 41.9085C29.7075 41.9085 31.0915 43.2926 31.0915 45Z" fill="#EA4747"/>
<path fill-rule="evenodd" clip-rule="evenodd" d="M33.0505 45C33.0505 47.7892 30.7893 50.0503 28.0001 50.0503C25.2109 50.0503 22.9497 47.7892 22.9497 45C22.9497 42.2107 25.2109 39.9496 28.0001 39.9496C30.7893 39.9496 33.0505 42.2107 33.0505 45ZM28.0001 48.0914C29.7075 48.0914 31.0915 46.7073 31.0915 45C31.0915 43.2926 29.7075 41.9085 28.0001 41.9085C26.2927 41.9085 24.9086 43.2926 24.9086 45C24.9086 46.7073 26.2927 48.0914 28.0001 48.0914Z" fill="white"/>
<path d="M28.9945 26.3463C29.1656 27.4222 28.4584 27.9602 27.7971 27.9602C27.1128 27.6016 26.5996 27.2376 26.5996 26.3463C26.5996 25.455 27.1357 24.7324 27.7971 24.7324C28.4584 24.7324 28.8235 25.2704 28.9945 26.3463Z" fill="#CB9578"/>
</g>
<defs>
<clipPath id="clip0_11560_28362">
<rect width="56" height="56" rx="28" fill="white"/>
</clipPath>
</defs>
</svg>
