<svg width="56" height="56" viewBox="0 0 56 56" fill="none" xmlns="http://www.w3.org/2000/svg">
<g clip-path="url(#clip0_11560_29020)">
<path d="M38.4333 66.5191C42.6578 64.5326 38.3775 59.0403 35.4232 55.5531C32.469 52.066 28.8159 45.9037 29.8778 42.7746C30.7622 40.1652 35.5935 36.8748 37.1781 35.8526L36.9328 35.3386L27.6573 39.7064C27.3281 39.8604 26.9379 39.7199 26.7839 39.3906L26.6866 39.1837C26.5327 38.8544 26.6731 38.4642 27.0024 38.3102L36.2778 33.9425L35.8786 33.0993L26.6462 37.4495C26.317 37.6035 25.9268 37.463 25.7728 37.1338L25.5536 36.6726C25.3997 36.3433 25.5401 35.9531 25.8694 35.7992L35.0657 31.4706L34.6329 30.5467L25.6659 34.7721C25.3366 34.926 24.9464 34.7856 24.7925 34.4563L24.6997 34.2661C24.5457 33.9368 24.6862 33.5466 25.0154 33.3927L33.8297 29.2441L33.4305 28.4009L24.5801 32.5711C24.2509 32.725 23.8607 32.5846 23.7067 32.2553L23.6139 32.0651C23.4599 31.7358 23.6004 31.3456 23.9296 31.1916L32.6689 27.0751L32.2697 26.2319L23.4193 30.4021C23.0901 30.5561 22.6998 30.4156 22.5459 30.0864C22.3919 29.7571 22.5324 29.3669 22.8616 29.213L31.7495 25.0267L31.2631 23.9918L22.3376 28.1941C22.0084 28.348 21.6182 28.2076 21.4642 27.8783L21.3699 27.6825C21.216 27.3532 21.3564 26.963 21.6857 26.809L30.4944 22.662L30.1328 21.8924L21.3241 26.0394C20.9948 26.1934 20.6046 26.0529 20.4506 25.7237L20.3403 25.4903C20.1864 25.1611 20.3268 24.7708 20.6561 24.6169L29.5064 20.4467L29.036 19.4493L20.2217 23.5979C19.8924 23.7518 19.5022 23.6114 19.3482 23.2821L19.3363 23.2375C19.1712 22.9113 19.3172 22.5195 19.6409 22.3671L28.5288 18.1809L28.112 17.2946L19.2241 21.4808C18.8949 21.6347 18.5047 21.4943 18.3507 21.165L18.2404 20.9317C18.0864 20.6024 18.2269 20.2122 18.5561 20.0583L27.5982 15.8008L27.1815 14.9145L18.2129 19.1343C17.8837 19.2883 17.4935 19.1478 17.3395 18.8186L17.3004 18.7394C17.1464 18.4102 17.2869 18.0199 17.6161 17.866L26.6582 13.6086L26.3142 12.8821L17.5749 16.9986C17.2457 17.1525 16.8555 17.0121 16.7015 16.6828L16.6624 16.6037C16.5084 16.2744 16.6489 15.8842 16.9781 15.7303L25.7174 11.6137L25.2846 10.6899L16.662 14.7512C16.3328 14.9052 15.9426 14.7648 15.7886 14.4355L15.6622 14.1646C15.5083 13.8353 15.6487 13.4451 15.978 13.2912L24.7172 9.17467C24.7172 9.17467 24.6131 8.56315 24.502 8.61682C24.502 8.61682 11.1254 11.8186 11.3842 14.6356C11.6486 17.4511 29.3862 53.0056 30.6033 57.4362C31.8148 61.8684 34.2184 68.497 38.4414 66.5049L38.4333 66.5191Z" fill="#EDA584"/>
<path d="M26.2511 10.9213C25.3032 11.3214 24.3581 11.8035 23.659 12.5629C22.9599 13.3223 22.5522 14.4104 22.8251 15.4052C23.2358 16.8905 25.3016 17.6019 26.5415 16.6786C26.9916 16.3418 27.2568 15.5525 26.7669 15.2897C26.6407 15.2218 26.4856 15.2125 26.3369 15.2269C25.6591 15.3068 25.1576 15.9497 25.0378 16.6175C24.918 17.2852 25.1082 17.9716 25.3423 18.608C26.197 20.8962 27.7047 22.9648 28.0908 25.3784C28.2104 26.1092 28.2215 26.8626 28.4316 27.5754C28.6417 28.2882 29.106 28.9774 29.8158 29.2068C30.2681 29.3526 30.7541 29.2922 31.225 29.2233C32.4331 29.0585 33.8296 28.7669 34.3848 27.6838C34.8433 26.7854 34.5315 25.6931 34.1139 24.7752C34.0025 24.5254 33.8024 24.2294 33.5308 24.2831C33.3615 24.3158 33.2466 24.48 33.1824 24.6434C32.8599 25.4799 33.423 26.4668 34.2339 26.8597C35.0388 27.2543 35.9982 27.1815 36.8688 26.9673C37.7394 26.7531 38.5719 26.3966 39.3355 25.925" stroke="#2C2C2C" stroke-width="0.933333" stroke-miterlimit="10" stroke-linecap="round"/>
<path d="M23.397 18.5909C22.6578 18.9161 22.6683 20.0701 23.2408 20.6413C23.8134 21.2125 24.6793 21.3365 25.4889 21.3928C26.2986 21.4492 27.145 21.4767 27.8226 21.918C28.6237 22.4407 28.996 23.4978 28.7823 24.4322C28.5671 25.3607 27.8265 26.1313 26.9295 26.4606C26.7267 26.534 26.5132 26.5912 26.298 26.5472C25.8616 26.4607 25.5968 25.9469 25.6833 25.5105C25.7698 25.0742 26.1214 24.7257 26.5202 24.5299C27.5424 24.0271 28.8084 24.3871 29.737 25.0536C30.6656 25.7201 31.3605 26.6526 32.1781 27.4506C34.4965 29.7215 37.8537 30.8878 41.0841 30.537C41.7263 30.4667 42.4557 30.2712 42.7303 29.6828" stroke="#2C2C2C" stroke-width="0.933333" stroke-miterlimit="10" stroke-linecap="round"/>
</g>
<defs>
<clipPath id="clip0_11560_29020">
<rect width="56" height="56" rx="28" fill="white"/>
</clipPath>
</defs>
</svg>
