<svg width="56" height="56" viewBox="0 0 56 56" fill="none" xmlns="http://www.w3.org/2000/svg">
<g clip-path="url(#clip0_11560_29027)">
<g clip-path="url(#clip1_11560_29027)">
<rect width="56" height="56" rx="28" fill="white"/>
<rect x="-0.0175781" y="28.6914" width="56" height="28" fill="#FFBF9D"/>
<path d="M29.8134 7.69141C23.463 15.3501 27.8102 32.5259 31.486 42.1241C32.0569 43.6148 33.6106 44.8252 35.0481 44.1313C36.1166 43.6156 36.0142 42.7529 35.7056 42.2358C26.0935 24.5088 27.7724 11.82 29.8134 7.69141Z" fill="#2C2C2C"/>
<path d="M18.8905 24.9175C23.9349 27.6862 25.977 37.1403 26.4965 42.6407C26.5767 43.4905 26.0532 44.4206 25.1363 44.2673C24.5404 44.1677 24.3934 43.7363 24.4194 43.4331C24.8678 32.7816 20.9203 26.6512 18.8905 24.9175Z" fill="#2C2C2C"/>
</g>
</g>
<defs>
<clipPath id="clip0_11560_29027">
<rect width="56" height="56" rx="28" fill="white"/>
</clipPath>
<clipPath id="clip1_11560_29027">
<rect width="56" height="56" rx="28" fill="white"/>
</clipPath>
</defs>
</svg>
