<svg width="56" height="56" viewBox="0 0 56 56" fill="none" xmlns="http://www.w3.org/2000/svg">
<g clip-path="url(#clip0_11560_28890)">
<path d="M44.6829 7.83493C45.3754 11.2247 48.4648 16.2993 48.4648 16.2993C44.863 19.9012 32.7967 19.8102 27.9342 19.8102V0.0909676C33.265 -0.341256 41.2011 0.871371 44.5028 1.53171C44.5028 1.53171 44.1479 5.21645 44.6829 7.83493Z" fill="#FFBF9D"/>
<path d="M11.1843 7.83493C10.4918 11.2247 7.40234 16.2993 7.40234 16.2993C11.0042 19.9012 23.0704 19.8102 27.933 19.8102V0.0909676C22.6022 -0.341256 14.6661 0.871371 11.3644 1.53171C11.3644 1.53171 11.7193 5.21645 11.1843 7.83493Z" fill="#FFBF9D"/>
<path d="M26.7989 53.6687C25.7184 58.7113 24.4577 84.1045 24.4577 85.7253H8.0697C6.32865 76.6006 2.70249 55.6858 2.1262 45.0243C1.5499 34.3628 3.08669 27.6153 3.92713 25.5742H27.3392V45.0243C27.5193 46.2249 27.6634 49.6347 26.7989 53.6687Z" fill="#FFBF9D"/>
<path d="M28.9159 53.6687C29.9965 58.7113 31.2571 84.1045 31.2571 85.7253H47.6451C49.3862 76.6006 53.0124 55.6858 53.5886 45.0243C54.1649 34.3628 52.6282 27.6153 51.7877 25.5742H28.3756V45.0243C28.1955 46.2249 28.0515 49.6347 28.9159 53.6687Z" fill="#FFBF9D"/>
<path d="M27.573 47.1836C26.9126 48.8645 23.2507 52.0461 14.2461 50.6054" stroke="#F4A479" stroke-width="1.08056" stroke-linecap="round"/>
<path d="M28.2962 3.96094C28.2962 3.96094 27.7607 7.02927 27.7559 9.00354C27.7508 11.048 28.2962 14.2262 28.2962 14.2262" stroke="#F4A479" stroke-width="1.08056" stroke-linecap="round"/>
<path d="M28.2903 47.1836C28.9506 48.8645 32.6125 52.0461 41.6172 50.6054" stroke="#F4A479" stroke-width="1.08056" stroke-linecap="round"/>
<path fill-rule="evenodd" clip-rule="evenodd" d="M7.25232 16.209C5.62295 17.6 2.74065 24.1078 2.74023 30.4353C3.39689 30.6872 4.10126 30.9452 4.84308 31.2168C9.12797 32.7861 14.6627 34.813 19.4732 38.7814C22.804 41.529 25.8958 44.5276 27.3831 47.1358C27.6069 47.5282 28.2599 47.5282 28.4836 47.1358C29.9709 44.5276 33.0627 41.529 36.3935 38.7814C41.204 34.813 46.7387 32.7861 51.0236 31.2168C51.7655 30.9452 52.4698 30.6872 53.1265 30.4353C52.6752 24.1078 50.2438 17.6 48.6144 16.209C41.5183 18.3147 34.3849 19.0986 27.9334 19.1398C21.4818 19.0986 14.3484 18.3147 7.25232 16.209Z" fill="#FDF1F1"/>
<path fill-rule="evenodd" clip-rule="evenodd" d="M27 34.2326C27 39.8838 22.5228 44.4651 17 44.4651C11.4772 44.4651 7 39.8838 7 34.2326C7 28.5813 11.4772 24 17 24C22.5228 24 27 28.5813 27 34.2326ZM17 41.6016C20.9773 41.6016 24.2016 38.3024 24.2016 34.2326C24.2016 30.1628 20.9773 26.8635 17 26.8635C13.0227 26.8635 9.79844 30.1628 9.79844 34.2326C9.79844 38.3024 13.0227 41.6016 17 41.6016Z" fill="#FFA2A2"/>
<path d="M21.4165 34.2325C21.4165 36.7283 19.4392 38.7516 17.0001 38.7516C14.561 38.7516 12.5838 36.7283 12.5838 34.2325C12.5838 31.7367 14.561 29.7135 17.0001 29.7135C19.4392 29.7135 21.4165 31.7367 21.4165 34.2325Z" fill="white"/>
<path fill-rule="evenodd" clip-rule="evenodd" d="M24.2149 34.2325C24.2149 38.3098 20.9848 41.6151 17.0001 41.6151C13.0155 41.6151 9.78533 38.3098 9.78533 34.2325C9.78533 30.1552 13.0155 26.8499 17.0001 26.8499C20.9848 26.8499 24.2149 30.1552 24.2149 34.2325ZM17.0001 38.7516C19.4392 38.7516 21.4165 36.7283 21.4165 34.2325C21.4165 31.7367 19.4392 29.7135 17.0001 29.7135C14.561 29.7135 12.5838 31.7367 12.5838 34.2325C12.5838 36.7283 14.561 38.7516 17.0001 38.7516Z" fill="white"/>
<path d="M19.7178 36.864H18.8046V31.894C18.8046 30.7242 17.8529 29.7725 16.6831 29.7725C15.5133 29.7725 14.5615 30.7242 14.5615 31.894V36.864H13.6484V31.894C13.6484 30.2208 15.0099 28.8594 16.6831 28.8594C18.3563 28.8594 19.7178 30.2207 19.7178 31.894V36.864Z" fill="#8D8D8D"/>
<path d="M20.0189 38.4604H13.3557C12.9371 38.4604 12.5977 38.121 12.5977 37.7024V33.9709C12.5977 33.5523 12.9371 33.2129 13.3557 33.2129H20.0189C20.4375 33.2129 20.7769 33.5523 20.7769 33.9709V37.7024C20.7769 38.1211 20.4375 38.4604 20.0189 38.4604Z" fill="#535353"/>
<path d="M17.8055 35.3852C17.8055 35.8838 17.4014 36.2879 16.9027 36.2879C16.4043 36.2879 16 35.8838 16 35.3852C16 34.8865 16.4041 34.4824 16.9027 34.4824C17.4012 34.4826 17.8055 34.8867 17.8055 35.3852Z" fill="#8D8D8D"/>
<path d="M17.1546 35.7402H16.6621V37.5967H17.1546V35.7402Z" fill="#8D8D8D"/>
</g>
<defs>
<clipPath id="clip0_11560_28890">
<rect width="56" height="56" rx="28" fill="white"/>
</clipPath>
</defs>
</svg>
