<svg width="56" height="56" viewBox="0 0 56 56" fill="none" xmlns="http://www.w3.org/2000/svg">
<path d="M23.6775 16.9099C27.9853 17.7149 31.2486 20.7637 33.2808 22.7827C35.2998 24.8149 38.3486 28.0782 39.1537 32.386C39.3005 33.1717 39.4187 33.945 39.5349 34.7055C39.718 35.9031 39.8962 37.0689 40.1736 38.2011C39.6803 37.2927 39.2393 36.3618 38.7657 35.3619L38.7653 35.361L38.7651 35.3606C38.5511 34.909 38.3305 34.4432 38.0954 33.9591C36.4207 30.5112 33.4196 27.3193 31.3878 25.267L31.389 25.2658L31.3696 25.2463C31.2623 25.139 31.1504 25.0271 31.0341 24.9111C30.9181 24.7948 30.8062 24.683 30.699 24.5757L30.6795 24.5562L30.6783 24.5574C28.6259 22.5257 25.4341 19.5246 21.9861 17.8499C21.5015 17.6145 21.0353 17.3936 20.5832 17.1795C19.6946 16.7586 18.8605 16.3635 18.0483 15.9345C19.1221 16.1868 20.2259 16.3555 21.358 16.5286C22.1186 16.6448 22.8919 16.763 23.6775 16.9099Z" fill="#F47C7C"/>
<path d="M37.8533 35.7809C38.3462 36.8225 38.8126 37.8082 39.3473 38.7822L17.1631 16.5979C18.137 17.1326 19.1228 17.5991 20.1643 18.092C20.6139 18.3047 21.0738 18.5223 21.5477 18.7525C25.036 20.4468 28.2914 23.5942 30.3245 25.6207C32.3511 27.6538 35.4984 30.9093 37.1928 34.3976C37.423 34.8715 37.6406 35.3314 37.8533 35.7809Z" fill="#F47C7C"/>
<path d="M16.6104 17.4644C17.0066 18.2399 17.3656 19.0221 17.7354 19.8279C18.0134 20.4336 18.2975 21.0527 18.608 21.6921C20.3024 25.1804 23.4497 28.4359 25.4763 30.4689C27.5094 32.4955 30.7648 35.6429 34.2531 37.3372C34.8925 37.6478 35.5117 37.9319 36.1174 38.2099C36.9232 38.5796 37.7054 38.9386 38.4808 39.3348L16.6104 17.4644Z" fill="#F47C7C"/>
<path d="M24.7667 31.1786C24.882 31.2942 24.9933 31.4055 25.1 31.5122L25.1213 31.5335L25.1226 31.5323C27.1749 33.564 30.3668 36.5651 33.8147 38.2398C34.4843 38.5651 35.1221 38.8582 35.7376 39.1411L35.7381 39.1413C36.3847 39.4385 37.0071 39.7246 37.6167 40.025C36.6419 39.811 35.6424 39.6583 34.6202 39.502C33.8597 39.3857 33.0864 39.2675 32.3007 39.1207C27.9929 38.3157 24.7296 35.2669 22.6974 33.2478C20.6784 31.2157 17.6296 27.9524 16.8245 23.6445C16.6777 22.859 16.5595 22.0855 16.4433 21.325C16.287 20.3027 16.1342 19.3035 15.9203 18.3286C16.2207 18.9381 16.5067 19.5605 16.8039 20.2071L16.8041 20.2075C17.0871 20.8232 17.3801 21.4609 17.7054 22.1306C19.3802 25.5785 22.3812 28.7704 24.413 30.8227L24.4118 30.8239L24.433 30.8452C24.5398 30.9519 24.6511 31.0632 24.7667 31.1786Z" fill="#F47C7C"/>
<path fill-rule="evenodd" clip-rule="evenodd" d="M33.2808 22.7827C31.2486 20.7637 27.9853 17.7149 23.6775 16.9099C22.8919 16.763 22.1186 16.6448 21.358 16.5286C20.2259 16.3555 19.1221 16.1868 18.0483 15.9345C18.8605 16.3635 19.6946 16.7586 20.5832 17.1795C21.0353 17.3936 21.5015 17.6145 21.9861 17.8499C25.4341 19.5246 28.6259 22.5257 30.6783 24.5574L30.6795 24.5562L30.699 24.5757C30.8062 24.683 30.9181 24.7948 31.0341 24.9111C31.1504 25.0271 31.2623 25.139 31.3696 25.2463L31.389 25.2658L31.3878 25.267C33.4196 27.3193 36.4207 30.5112 38.0954 33.9591C38.3305 34.4432 38.5511 34.909 38.7651 35.3606L38.7653 35.361L38.7657 35.3619C39.2393 36.3618 39.6803 37.2927 40.1736 38.2011C39.8962 37.0689 39.718 35.9031 39.5349 34.7055C39.4187 33.945 39.3005 33.1717 39.1537 32.386C38.3486 28.0782 35.2998 24.8149 33.2808 22.7827ZM37.8533 35.7809C37.6406 35.3314 37.423 34.8715 37.1928 34.3976C35.4984 30.9093 32.3511 27.6538 30.3245 25.6207C28.2914 23.5942 25.036 20.4468 21.5477 18.7525C21.0738 18.5223 20.6139 18.3047 20.1643 18.092C19.1228 17.5991 18.137 17.1326 17.1631 16.5979L39.3473 38.7822C38.8126 37.8082 38.3462 36.8225 37.8533 35.7809ZM17.7354 19.8279C17.3656 19.0221 17.0066 18.2399 16.6104 17.4644L38.4808 39.3348C37.7054 38.9386 36.9232 38.5796 36.1174 38.2099C35.5117 37.9319 34.8925 37.6478 34.2531 37.3372C30.7648 35.6429 27.5094 32.4955 25.4763 30.4689C23.4497 28.4359 20.3024 25.1804 18.608 21.6921C18.2975 21.0527 18.0134 20.4336 17.7354 19.8279ZM25.1 31.5122C24.9933 31.4055 24.882 31.2942 24.7667 31.1786C24.6511 31.0632 24.5398 30.9519 24.433 30.8452L24.4118 30.8239L24.413 30.8227C22.3812 28.7704 19.3802 25.5785 17.7054 22.1306C17.3801 21.4609 17.0871 20.8232 16.8041 20.2075L16.8039 20.2071C16.5067 19.5605 16.2207 18.9381 15.9203 18.3286C16.1342 19.3035 16.287 20.3027 16.4433 21.325C16.5595 22.0855 16.6777 22.859 16.8245 23.6445C17.6296 27.9524 20.6784 31.2157 22.6974 33.2478C24.7296 35.2669 27.9929 38.3157 32.3007 39.1207C33.0864 39.2675 33.8597 39.3857 34.6202 39.502C35.6424 39.6583 36.6419 39.811 37.6167 40.025C37.0071 39.7246 36.3847 39.4385 35.7381 39.1413L35.7376 39.1411C35.1221 38.8582 34.4843 38.5651 33.8147 38.2398C30.3668 36.5651 27.1749 33.564 25.1226 31.5323L25.1213 31.5335L25.1 31.5122Z" fill="#F47C7C"/>
<path fill-rule="evenodd" clip-rule="evenodd" d="M33.2808 22.7827C31.2486 20.7637 27.9853 17.7149 23.6775 16.9099C22.8919 16.763 22.1186 16.6448 21.358 16.5286C20.2259 16.3555 19.1221 16.1868 18.0483 15.9345C18.8605 16.3635 19.6946 16.7586 20.5832 17.1795C21.0353 17.3936 21.5015 17.6145 21.9861 17.8499C25.4341 19.5246 28.6259 22.5257 30.6783 24.5574L30.6795 24.5562L30.699 24.5757C30.8062 24.683 30.9181 24.7948 31.0341 24.9111C31.1504 25.0271 31.2623 25.139 31.3696 25.2463L31.389 25.2658L31.3878 25.267C33.4196 27.3193 36.4207 30.5112 38.0954 33.9591C38.3305 34.4432 38.5511 34.909 38.7651 35.3606L38.7653 35.361L38.7657 35.3619C39.2393 36.3618 39.6803 37.2927 40.1736 38.2011C39.8962 37.0689 39.718 35.9031 39.5349 34.7055C39.4187 33.945 39.3005 33.1717 39.1537 32.386C38.3486 28.0782 35.2998 24.8149 33.2808 22.7827ZM37.8533 35.7809C37.6406 35.3314 37.423 34.8715 37.1928 34.3976C35.4984 30.9093 32.3511 27.6538 30.3245 25.6207C28.2914 23.5942 25.036 20.4468 21.5477 18.7525C21.0738 18.5223 20.6139 18.3047 20.1643 18.092C19.1228 17.5991 18.137 17.1326 17.1631 16.5979L39.3473 38.7822C38.8126 37.8082 38.3462 36.8225 37.8533 35.7809ZM17.7354 19.8279C17.3656 19.0221 17.0066 18.2399 16.6104 17.4644L38.4808 39.3348C37.7054 38.9386 36.9232 38.5796 36.1174 38.2099C35.5117 37.9319 34.8925 37.6478 34.2531 37.3372C30.7648 35.6429 27.5094 32.4955 25.4763 30.4689C23.4497 28.4359 20.3024 25.1804 18.608 21.6921C18.2975 21.0527 18.0134 20.4336 17.7354 19.8279ZM25.1 31.5122C24.9933 31.4055 24.882 31.2942 24.7667 31.1786C24.6511 31.0632 24.5398 30.9519 24.433 30.8452L24.4118 30.8239L24.413 30.8227C22.3812 28.7704 19.3802 25.5785 17.7054 22.1306C17.3801 21.4609 17.0871 20.8232 16.8041 20.2075L16.8039 20.2071C16.5067 19.5605 16.2207 18.9381 15.9203 18.3286C16.1342 19.3035 16.287 20.3027 16.4433 21.325C16.5595 22.0855 16.6777 22.859 16.8245 23.6445C17.6296 27.9524 20.6784 31.2157 22.6974 33.2478C24.7296 35.2669 27.9929 38.3157 32.3007 39.1207C33.0864 39.2675 33.8597 39.3857 34.6202 39.502C35.6424 39.6583 36.6419 39.811 37.6167 40.025C37.0071 39.7246 36.3847 39.4385 35.7381 39.1413L35.7376 39.1411C35.1221 38.8582 34.4843 38.5651 33.8147 38.2398C30.3668 36.5651 27.1749 33.564 25.1226 31.5323L25.1213 31.5335L25.1 31.5122Z" fill="#F47C7C"/>
<path fill-rule="evenodd" clip-rule="evenodd" d="M42.2943 43.1483L43.2149 44.0689L43.3332 44.1872L44.1019 43.4185C41.5004 40.817 41.0702 38.0363 40.5473 34.6564C40.426 33.8722 40.2996 33.0557 40.14 32.2017C39.3229 27.8294 36.3731 24.5004 34.3431 22.43L34.3455 22.4276L34.3211 22.4032C34.2155 22.2975 34.1052 22.1873 33.9904 22.0731C33.8763 21.9583 33.766 21.848 33.6604 21.7424L33.636 21.718L33.6336 21.7204C31.5631 19.6904 28.2342 16.7406 23.8618 15.9235C23.0078 15.7639 22.1913 15.6376 21.4071 15.5162C18.0775 15.0011 16.978 14.2173 14.4054 12.0735L11.8172 12.6712L12.7969 13.6509C14.5928 15.9569 14.977 18.4399 15.4309 21.3743C15.5523 22.1585 15.6786 22.9749 15.8382 23.8289C16.6553 28.2012 19.6051 31.5302 21.6351 33.6006L21.6327 33.603L21.6571 33.6274C21.7627 33.7331 21.873 33.8433 21.9878 33.9575C22.1019 34.0723 22.2122 34.1825 22.3178 34.2882L22.3422 34.3126L22.3446 34.3102C24.4151 36.3402 27.744 39.29 32.1164 40.1071C32.9704 40.2667 33.7869 40.393 34.5711 40.5143C37.5055 40.9683 39.9884 41.3525 42.2943 43.1483ZM33.2808 22.7827C31.2486 20.7637 27.9853 17.7149 23.6775 16.9099C22.8919 16.763 22.1186 16.6448 21.358 16.5286C20.2259 16.3555 19.1221 16.1868 18.0483 15.9345C18.8605 16.3635 19.6946 16.7586 20.5832 17.1795C21.0353 17.3936 21.5015 17.6145 21.9861 17.8499C25.4341 19.5246 28.6259 22.5257 30.6783 24.5574L30.6795 24.5562L30.699 24.5757C30.8062 24.683 30.9181 24.7948 31.0341 24.9111C31.1504 25.0271 31.2623 25.139 31.3696 25.2463L31.389 25.2658L31.3878 25.267C33.4196 27.3193 36.4207 30.5112 38.0954 33.9591C38.3305 34.4432 38.5511 34.909 38.7651 35.3606L38.7653 35.361L38.7657 35.3619C39.2393 36.3618 39.6803 37.2927 40.1736 38.2011C39.8962 37.0689 39.718 35.9031 39.5349 34.7055C39.4187 33.945 39.3005 33.1717 39.1537 32.386C38.3486 28.0782 35.2998 24.8149 33.2808 22.7827ZM37.8533 35.7809C37.6406 35.3314 37.423 34.8715 37.1928 34.3976C35.4984 30.9093 32.3511 27.6538 30.3245 25.6207C28.2914 23.5942 25.036 20.4468 21.5477 18.7525C21.0738 18.5223 20.6139 18.3047 20.1643 18.092C19.1228 17.5991 18.137 17.1326 17.1631 16.5979L39.3473 38.7822C38.8126 37.8082 38.3462 36.8225 37.8533 35.7809ZM17.7354 19.8279C17.3656 19.0221 17.0066 18.2399 16.6104 17.4644L38.4808 39.3348C37.7054 38.9386 36.9232 38.5796 36.1174 38.2099C35.5117 37.9319 34.8925 37.6478 34.2531 37.3372C30.7648 35.6429 27.5094 32.4955 25.4763 30.4689C23.4497 28.4359 20.3024 25.1804 18.608 21.6921C18.2975 21.0527 18.0134 20.4336 17.7354 19.8279ZM25.1 31.5122C24.9933 31.4055 24.882 31.2942 24.7667 31.1786C24.6511 31.0632 24.5398 30.9519 24.433 30.8452L24.4118 30.8239L24.413 30.8227C22.3812 28.7704 19.3802 25.5785 17.7054 22.1306C17.3801 21.4609 17.0871 20.8232 16.8041 20.2075L16.8039 20.2071C16.5067 19.5605 16.2207 18.9381 15.9203 18.3286C16.1342 19.3035 16.287 20.3027 16.4433 21.325C16.5595 22.0855 16.6777 22.859 16.8245 23.6445C17.6296 27.9524 20.6784 31.2157 22.6974 33.2478C24.7296 35.2669 27.9929 38.3157 32.3007 39.1207C33.0864 39.2675 33.8597 39.3857 34.6202 39.502C35.6424 39.6583 36.6419 39.811 37.6167 40.025C37.0071 39.7246 36.3847 39.4385 35.7381 39.1413L35.7376 39.1411C35.1221 38.8582 34.4843 38.5651 33.8147 38.2398C30.3668 36.5651 27.1749 33.564 25.1226 31.5323L25.1213 31.5335L25.1 31.5122Z" fill="#F47C7C"/>
<path d="M15.1883 15.173C17.9284 17.9132 20.9651 17.8531 24.5864 18.5299C28.4682 19.2553 31.3296 22.1167 32.9543 23.7414" stroke="#E25D5D" stroke-width="1.2863"/>
<path d="M15.1379 15.1258C17.878 17.8659 17.818 20.9026 18.4947 24.5239C19.2202 28.4057 22.0815 31.2671 23.7062 32.8918" stroke="#E25D5D" stroke-width="1.2863"/>
<path d="M15.1381 15.1256C17.8782 17.8657 18.5842 20.1364 19.9893 23.0293C21.4956 26.1303 24.3569 28.9917 25.9816 30.6164" stroke="#E25D5D" stroke-width="1.2863"/>
<path d="M15.1384 15.1252C17.8786 17.8654 20.0524 18.6682 22.9453 20.0733C26.0464 21.5795 28.9077 24.4409 30.5324 26.0656" stroke="#E25D5D" stroke-width="1.2863"/>
<path d="M40.9402 40.9269C38.2001 38.1868 38.2602 35.1501 37.5834 31.5289C36.858 27.647 33.9966 24.7856 32.3719 23.161" stroke="#E25D5D" stroke-width="1.2863"/>
<path d="M15.332 15.4141L40.795 40.877" stroke="#E25D5D" stroke-width="1.2863"/>
<path d="M40.8918 40.8777C38.1517 38.1376 35.115 38.1977 31.4937 37.5209C27.6118 36.7955 24.7505 33.9341 23.1258 32.3094" stroke="#E25D5D" stroke-width="1.2863"/>
<path d="M40.89 40.8795C38.1499 38.1394 35.8792 37.4334 32.9863 36.0283C29.8853 34.522 27.0239 31.6606 25.3992 30.036" stroke="#E25D5D" stroke-width="1.2863"/>
<path d="M40.8904 40.8791C38.1503 38.139 37.3475 35.9652 35.9423 33.0723C34.4361 29.9712 31.5747 27.1099 29.95 25.4852" stroke="#E25D5D" stroke-width="1.2863"/>
<path d="M14.5152 17.0038C15.9065 16.3606 16.5496 16.1462 17.6215 14.4312L14.0033 11.3086C13.5149 10.8871 12.79 10.8925 12.308 11.3212L11.5474 11.9977C11.0015 12.4833 10.9691 13.3256 11.4763 13.8516L14.5152 17.0038Z" fill="#FEDAB6"/>
<path d="M41.3032 38.6154C39.9119 39.2585 39.2688 39.4729 38.1968 41.188L41.8151 44.3106C42.3034 44.732 43.0284 44.7266 43.5103 44.2979L44.2709 43.6214C44.8169 43.1359 44.8492 42.2936 44.3421 41.7675L41.3032 38.6154Z" fill="#FEDAB6"/>
<path fill-rule="evenodd" clip-rule="evenodd" d="M15.574 49.3127C15.1839 49.1762 14.9782 48.7493 15.1146 48.3591L16.2226 45.1909C16.2927 44.9906 16.4444 44.8294 16.6401 44.7475C16.8358 44.6656 17.0572 44.6706 17.249 44.7613L18.4603 45.3339L19.1763 42.6495C19.2828 42.2501 19.693 42.0126 20.0924 42.1192C20.4918 42.2258 20.7291 42.6359 20.6226 43.0353L19.6752 46.5872C19.618 46.8016 19.4684 46.9797 19.267 47.0732C19.0655 47.1666 18.833 47.1658 18.6322 47.0709L17.3611 46.47L16.5276 48.8532C16.3912 49.2434 15.9642 49.4491 15.574 49.3127Z" fill="#F48B91"/>
<path fill-rule="evenodd" clip-rule="evenodd" d="M14.6181 37.9919C14.8138 38.356 14.6772 38.8098 14.3131 39.0055L11.3566 40.5943C11.1696 40.6947 10.9489 40.7111 10.7492 40.6393C10.5496 40.5676 10.3897 40.4145 10.3095 40.2181L9.80263 38.9778L7.46182 40.4743C7.11359 40.697 6.65076 40.5952 6.42809 40.2469C6.20549 39.8987 6.30729 39.4358 6.65551 39.2132L9.75266 37.2331C9.9397 37.1135 10.1703 37.0831 10.382 37.1502C10.5937 37.2174 10.7646 37.375 10.8486 37.5806L11.3805 38.882L13.6045 37.6869C13.9687 37.4912 14.4224 37.6278 14.6181 37.9919Z" fill="#F48B91"/>
<path fill-rule="evenodd" clip-rule="evenodd" d="M49.3127 15.576C49.1762 15.1858 48.7493 14.9802 48.3591 15.1166L45.1909 16.2246C44.9906 16.2946 44.8294 16.4464 44.7475 16.6421C44.6656 16.8378 44.6706 17.0591 44.7613 17.2509L45.3339 18.4622L42.6495 19.1783C42.2501 19.2848 42.0126 19.6949 42.1192 20.0944C42.2258 20.4938 42.6359 20.7311 43.0353 20.6246L46.5872 19.6772C46.8016 19.62 46.9797 19.4704 47.0732 19.2689C47.1666 19.0675 47.1658 18.8349 47.0709 18.6342L46.47 17.363L48.8532 16.5296C49.2434 16.3931 49.4491 15.9662 49.3127 15.576Z" fill="#F48B91"/>
<path fill-rule="evenodd" clip-rule="evenodd" d="M37.9919 14.6181C38.356 14.8138 38.8098 14.6772 39.0055 14.3131L40.5943 11.3566C40.6947 11.1696 40.7111 10.9489 40.6393 10.7492C40.5676 10.5496 40.4145 10.3897 40.2181 10.3095L38.9778 9.80263L40.4743 7.46182C40.697 7.11359 40.5952 6.65076 40.2469 6.42809C39.8987 6.20549 39.4358 6.30729 39.2132 6.65551L37.2331 9.75266C37.1135 9.9397 37.0831 10.1703 37.1502 10.382C37.2174 10.5937 37.375 10.7646 37.5806 10.8486L38.882 11.3805L37.6869 13.6045C37.4912 13.9687 37.6278 14.4224 37.9919 14.6181Z" fill="#F48B91"/>
</svg>
