<svg width="56" height="56" viewBox="0 0 56 56" fill="none" xmlns="http://www.w3.org/2000/svg">
<path fill-rule="evenodd" clip-rule="evenodd" d="M21.3219 28.938C17.3891 26.0884 13.5523 23.3083 12.133 19.632C11.7872 19.5422 11.4201 19.4413 11.0303 19.3281C4.67312 17.481 4.16602 4.28516 4.16602 4.28516H6.49187C6.49187 11.7113 8.95126 14.8667 11.5676 16.1225C11.6249 14.9399 11.918 13.6675 12.4957 12.285C15.3429 5.47179 24.7482 4.82306 27.6152 4.78623C30.4849 4.82306 39.8875 5.47179 42.7346 12.285C43.4855 14.0825 43.7557 15.694 43.652 17.1638C46.366 16.0914 49.3537 12.9443 49.3537 4.28516H51.6795C51.6795 4.28516 51.7702 18.617 44.9456 20.0731C44.1064 20.2524 43.3717 20.3799 42.7285 20.466C41.0872 23.7397 37.536 26.3113 33.9037 28.9416L33.4369 29.2799C33.4369 29.2799 28.6379 33.1808 28.9438 37.9968H27.6152H26.2865C26.5925 33.1808 21.7935 29.2799 21.7935 29.2799L21.3219 28.938Z" fill="#E99C9C"/>
<path fill-rule="evenodd" clip-rule="evenodd" d="M28.6201 41.3996C28.6593 41.4553 28.658 41.4678 28.5765 41.7937C28.3443 42.723 28.4537 43.5377 28.9276 44.4085C29.0077 44.5558 29.1368 44.7732 29.2144 44.8917C29.9313 45.9866 30.159 46.4421 30.2528 46.9687C30.2962 47.2126 30.2866 47.6451 30.2326 47.875C30.0207 48.7765 29.3317 49.4752 28.3945 49.7386C27.4323 50.0091 26.4396 49.7708 25.7176 49.0959C25.323 48.727 25.0643 48.2381 24.9794 47.7007C24.8034 46.587 25.5129 44.966 27.0338 43.0066C27.5685 42.3178 28.3874 41.3853 28.4771 41.3631C28.5543 41.344 28.5867 41.3522 28.6201 41.3996ZM25.7844 45.4773C26.0273 45.0087 26.245 44.7763 26.4922 44.7218C26.6803 44.6803 26.9448 44.8137 27.0144 44.9851C27.0452 45.0612 27.0414 45.2198 27.0051 45.3734C26.9606 45.5612 26.9644 45.7246 27.0151 45.8018C27.0718 45.8883 27.2136 45.98 27.3432 46.0141C27.4797 46.05 27.637 46.0543 28.0886 46.0344C28.4753 46.0174 28.6 46.031 28.764 46.1076C28.9087 46.1752 29.0411 46.3188 29.1439 46.5196C29.3012 46.8265 29.3327 46.9869 29.3064 47.3471L29.2969 47.4766L29.3967 47.5799C29.6486 47.8406 29.7326 48.2433 29.5939 48.5249C29.4193 48.8794 28.9666 49.2645 28.5364 49.4244C28.2441 49.5331 28.0907 49.5599 27.7478 49.5622C27.4 49.5645 27.2256 49.539 26.8782 49.4353C26.2012 49.2331 25.6531 48.7694 25.405 48.1887C25.1119 47.5031 25.2516 46.5052 25.7844 45.4773Z" fill="#F2D760"/>
<path d="M26.4922 44.7218C26.245 44.7763 26.0273 45.0087 25.7844 45.4773C25.2516 46.5052 25.1119 47.5031 25.405 48.1887C25.6531 48.7694 26.2012 49.2331 26.8782 49.4353C27.2256 49.539 27.4 49.5645 27.7478 49.5622C28.0907 49.5599 28.2441 49.5331 28.5364 49.4244C28.9666 49.2645 29.4193 48.8794 29.5939 48.5249C29.7326 48.2433 29.6486 47.8406 29.3967 47.5799L29.2969 47.4766L29.3064 47.3471C29.3327 46.9869 29.3012 46.8265 29.1439 46.5196C29.0411 46.3188 28.9087 46.1752 28.764 46.1076C28.6 46.031 28.4753 46.0174 28.0886 46.0344C27.637 46.0543 27.4797 46.05 27.3432 46.0141C27.2136 45.98 27.0718 45.8883 27.0151 45.8018C26.9644 45.7246 26.9606 45.5612 27.0051 45.3734C27.0414 45.2198 27.0452 45.0612 27.0144 44.9851C26.9448 44.8137 26.6803 44.6803 26.4922 44.7218Z" fill="#F2D760"/>
<mask id="mask0_11560_28853" style="mask-type:alpha" maskUnits="userSpaceOnUse" x="11" y="4" width="33" height="34">
<path d="M42.7342 12.284C39.8871 5.47072 30.4845 4.82198 27.6148 4.78516C24.7478 4.82198 15.3425 5.47072 12.4954 12.284C9.12132 20.3578 15.4529 24.6781 21.7931 29.2788C21.7931 29.2788 26.5921 33.1797 26.2861 37.9958H27.6148H28.9434C28.6375 33.1797 33.4365 29.2788 33.4365 29.2788C39.7766 24.6809 46.1082 20.3607 42.7342 12.284Z" fill="#E8977B"/>
</mask>
<g mask="url(#mask0_11560_28853)">
<path d="M16.3212 20.4912C13.6919 20.653 12.666 25.3739 12.666 25.3739V28.4481L21.1346 41.1972H33.3463L41.1903 32.7883C41.1903 32.7883 44.4741 23.2288 40.8796 21.2605C38.0981 19.7374 37.776 22.8717 34.6833 22.2092C31.7525 21.5814 31.2555 19.4933 28.2655 19.6775C25.2426 19.8637 25.2325 22.9863 22.2042 23.023C19.3916 23.0571 19.1288 20.3185 16.3212 20.4912Z" fill="#F4DB71" fill-opacity="0.7"/>
</g>
</svg>
