<svg width="56" height="56" viewBox="0 0 56 56" fill="none" xmlns="http://www.w3.org/2000/svg">
<path d="M48.3557 27.9796C48.3557 39.2352 39.2313 48.3596 27.9757 48.3596C16.7201 48.3596 7.5957 39.2352 7.5957 27.9796C7.5957 16.724 16.7201 7.59961 27.9757 7.59961C39.2313 7.59961 48.3557 16.724 48.3557 27.9796Z" fill="url(#paint0_radial_11560_28843)"/>
<path d="M39.4784 20.9609C40.0209 21.528 41.0093 23.1305 40.9451 25.0038C40.8647 27.3455 39.1771 29.8673 36.8266 30.5278C34.4762 31.1882 31.8044 30.4077 30.6593 28.6664C29.5142 26.9252 29.6548 24.7036 29.9762 23.923C30.2977 23.1425 31.0811 21.8616 32.8088 21.3412C34.5364 20.8208 36.646 20.9609 37.7583 22.9109C38.9395 24.9815 38.0046 26.5123 37.3089 27.2054C36.3848 28.126 34.4362 28.2661 33.4719 27.6057C32.4518 26.907 32.2866 25.6443 32.4473 25.0038C32.608 24.3634 33.2106 23.7629 34.175 23.7629C35.1393 23.7629 35.8424 24.5635 35.2598 25.9245" stroke="#334155" stroke-width="1.05" stroke-linecap="round"/>
<path d="M16.5176 30.7598C15.9752 30.1927 14.9867 28.5902 15.051 26.7169C15.1314 24.3752 16.819 21.8534 19.1695 21.1929C21.5199 20.5325 24.1917 21.313 25.3368 23.0543C26.4818 24.7955 26.3413 27.0171 26.0199 27.7977C25.6984 28.5782 24.915 29.8591 23.1873 30.3795C21.4597 30.8999 19.3501 30.7598 18.2378 28.8098C17.0565 26.7392 17.9915 25.2084 18.6872 24.5153C19.6113 23.5947 21.5599 23.4546 22.5242 24.115C23.5443 24.8137 23.7095 26.0764 23.5488 26.7169C23.3881 27.3573 22.7855 27.9578 21.8211 27.9578C20.8568 27.9578 20.1537 27.1572 20.7363 25.7962" stroke="#334155" stroke-width="1.05" stroke-linecap="round"/>
<path d="M19.168 36.9336C19.168 36.9336 20.7909 38.2324 22.1992 38.3993C23.7937 38.5882 24.239 37.3309 25.8418 37.235C27.6746 37.1254 28.3677 38.526 30.1992 38.6559C32.4181 38.8132 33.5992 36.3993 35.5992 37.235C36.6661 37.6808 37.2519 38.6559 37.2519 38.6559" stroke="#334155" stroke-width="1.05" stroke-linecap="round"/>
<defs>
<radialGradient id="paint0_radial_11560_28843" cx="0" cy="0" r="1" gradientUnits="userSpaceOnUse" gradientTransform="translate(27.9757 -1.13468) rotate(90) scale(67.1868)">
<stop stop-color="#FFE3A3" stop-opacity="0.78"/>
<stop offset="1" stop-color="#FFBB67"/>
</radialGradient>
</defs>
</svg>
