<svg width="56" height="56" viewBox="0 0 56 56" fill="none" xmlns="http://www.w3.org/2000/svg">
<path d="M48.3852 28.0012C48.3852 39.259 39.259 48.3852 28.0012 48.3852C16.7434 48.3852 7.61719 39.259 7.61719 28.0012C7.61719 16.7434 16.7434 7.61719 28.0012 7.61719C39.259 7.61719 48.3852 16.7434 48.3852 28.0012Z" fill="url(#paint0_radial_11560_28827)"/>
<path d="M48.3852 28.0012C48.3852 39.259 39.259 48.3852 28.0012 48.3852C16.7434 48.3852 7.61719 39.259 7.61719 28.0012C7.61719 16.7434 16.7434 7.61719 28.0012 7.61719C39.259 7.61719 48.3852 16.7434 48.3852 28.0012Z" fill="url(#paint1_radial_11560_28827)" fill-opacity="0.7"/>
<path d="M37.4207 25.089C37.4207 26.2944 36.636 27.1155 35.8422 27.1155C35.0484 27.1155 34.2637 26.2944 34.2637 25.089C34.2637 23.8836 35.0484 23.0625 35.8422 23.0625C36.636 23.0625 37.4207 23.8836 37.4207 25.089Z" fill="#334155" stroke="#334155" stroke-width="0.875"/>
<path d="M21.5164 25.089C21.5164 26.2944 20.7317 27.1155 19.9379 27.1155C19.1441 27.1155 18.3594 26.2944 18.3594 25.089C18.3594 23.8836 19.1441 23.0625 19.9379 23.0625C20.7317 23.0625 21.5164 23.8836 21.5164 25.089Z" fill="#334155" stroke="#334155" stroke-width="0.875"/>
<path d="M15.8652 22.0727C17.5636 22.1406 21.1234 21.6243 21.7755 19.0156" stroke="#334155" stroke-width="0.875" stroke-linecap="round" stroke-linejoin="round"/>
<path d="M38.8945 21.6645C37.1962 21.7324 33.6364 21.2161 32.9842 18.6074" stroke="#334155" stroke-width="0.875" stroke-linecap="round" stroke-linejoin="round"/>
<path d="M23.7461 36.5401C25.4851 35.4179 29.6221 33.9309 32.2581 36.9609" stroke="#334155" stroke-width="0.875" stroke-linecap="round" stroke-linejoin="round"/>
<path fill-rule="evenodd" clip-rule="evenodd" d="M14.1198 30.7514C14.1726 30.8264 14.1708 30.8431 14.0612 31.2814C13.7488 32.5313 13.896 33.6269 14.5336 34.7981C14.6415 34.9962 14.8151 35.2886 14.9195 35.448C15.8841 36.9204 16.1906 37.5331 16.3168 38.2413C16.3753 38.5693 16.3623 39.1509 16.2896 39.4602C16.0046 40.6726 15.0773 41.6122 13.8163 41.9665C12.5215 42.3303 11.1857 42.0098 10.2142 41.1021C9.6833 40.6061 9.33519 39.9485 9.22095 39.2257C8.98414 37.7279 9.93875 35.5479 11.9854 32.9127C12.7049 31.9863 13.8068 30.7321 13.9274 30.7023C14.0313 30.6766 14.0748 30.6877 14.1198 30.7514ZM10.3041 36.2355C10.6309 35.6053 10.9239 35.2928 11.2565 35.2194C11.5097 35.1636 11.8656 35.343 11.9592 35.5736C12.0007 35.6759 11.9956 35.8892 11.9466 36.0958C11.8869 36.3483 11.892 36.5681 11.9601 36.6719C12.0365 36.7882 12.2273 36.9116 12.4017 36.9574C12.5854 37.0057 12.797 37.0114 13.4047 36.9848C13.925 36.9619 14.0928 36.9801 14.3135 37.0832C14.5081 37.1741 14.6863 37.3672 14.8247 37.6373C15.0364 38.05 15.0787 38.2657 15.0433 38.7501L15.0305 38.9244L15.1649 39.0633C15.5038 39.4139 15.6168 39.9555 15.4302 40.3343C15.1952 40.811 14.5861 41.3289 14.0073 41.544C13.6139 41.6902 13.4075 41.7262 12.9461 41.7293C12.478 41.7323 12.2434 41.6981 11.776 41.5586C10.865 41.2867 10.1275 40.663 9.79355 39.8821C9.39924 38.96 9.58713 37.6179 10.3041 36.2355Z" fill="#84CADC"/>
<path d="M11.2565 35.2194C10.9239 35.2928 10.6309 35.6053 10.3041 36.2355C9.58713 37.6179 9.39924 38.96 9.79355 39.8821C10.1275 40.663 10.865 41.2867 11.776 41.5586C12.2434 41.6981 12.478 41.7323 12.9461 41.7293C13.4075 41.7262 13.6139 41.6902 14.0073 41.544C14.5861 41.3289 15.1952 40.811 15.4302 40.3343C15.6168 39.9555 15.5038 39.4139 15.1649 39.0633L15.0305 38.9244L15.0433 38.7501C15.0787 38.2657 15.0364 38.05 14.8247 37.6373C14.6863 37.3672 14.5081 37.1741 14.3135 37.0832C14.0928 36.9801 13.925 36.9619 13.4047 36.9848C12.797 37.0114 12.5854 37.0057 12.4017 36.9574C12.2273 36.9116 12.0365 36.7882 11.9601 36.6719C11.892 36.5681 11.8869 36.3483 11.9466 36.0958C11.9956 35.8892 12.0007 35.6759 11.9592 35.5736C11.8656 35.343 11.5097 35.1636 11.2565 35.2194Z" fill="#84CADC"/>
<path fill-rule="evenodd" clip-rule="evenodd" d="M42.3977 33.6488C42.187 33.9671 42.2743 34.396 42.5926 34.6067L45.1769 36.3175C45.3404 36.4256 45.5419 36.4594 45.7316 36.4103C45.9213 36.3612 46.0812 36.234 46.1716 36.0601L46.7425 34.9625L48.7685 36.5364C49.0699 36.7706 49.5041 36.716 49.7383 36.4146C49.9724 36.1132 49.9179 35.679 49.6165 35.4448L46.9359 33.3623C46.774 33.2365 46.5645 33.1891 46.3642 33.2329C46.1638 33.2768 45.9933 33.4072 45.8987 33.5892L45.2996 34.741L43.3555 33.4541C43.0372 33.2434 42.6085 33.3306 42.3977 33.6488Z" fill="#F27373"/>
<path fill-rule="evenodd" clip-rule="evenodd" d="M37.2231 38.4553C36.8417 38.4403 36.5204 38.7374 36.5054 39.1189L36.3839 42.2158C36.3763 42.4116 36.4521 42.6014 36.5925 42.7381C36.7328 42.8748 36.9246 42.9454 37.1201 42.9325L38.3547 42.8509L38.0606 45.3996C38.0167 45.7787 38.2887 46.1216 38.6679 46.1654C39.047 46.2091 39.3899 45.9372 39.4337 45.5581L39.8229 42.1859C39.8465 41.9823 39.7782 41.7786 39.6369 41.6301C39.4954 41.4816 39.2954 41.4035 39.0908 41.4171L37.7953 41.5026L37.8866 39.1729C37.9016 38.7915 37.6045 38.4702 37.2231 38.4553Z" fill="#F27373"/>
<defs>
<radialGradient id="paint0_radial_11560_28827" cx="0" cy="0" r="1" gradientUnits="userSpaceOnUse" gradientTransform="translate(28.0012 -1.11881) rotate(90) scale(67.2)">
<stop stop-color="#FFE3A3" stop-opacity="0.78"/>
<stop offset="1" stop-color="#FFBB67"/>
</radialGradient>
<radialGradient id="paint1_radial_11560_28827" cx="0" cy="0" r="1" gradientUnits="userSpaceOnUse" gradientTransform="translate(39.4344 36.1677) rotate(-148.253) scale(12.0511)">
<stop stop-color="#EB6169"/>
<stop offset="1" stop-color="#F48B91" stop-opacity="0.21"/>
</radialGradient>
</defs>
</svg>
