<svg width="56" height="56" viewBox="0 0 56 56" fill="none" xmlns="http://www.w3.org/2000/svg">
<path d="M48.3832 27.9992C48.3832 39.257 39.257 48.3832 27.9992 48.3832C16.7415 48.3832 7.61523 39.257 7.61523 27.9992C7.61523 16.7415 16.7415 7.61523 27.9992 7.61523C39.257 7.61523 48.3832 16.7415 48.3832 27.9992Z" fill="url(#paint0_radial_11560_28812)"/>
<path d="M37.6524 25.5357C37.6524 26.2381 37.4386 26.8662 37.1027 27.3141C36.7668 27.7619 36.3184 28.0199 35.8402 28.0199C35.362 28.0199 34.9136 27.7619 34.5777 27.3141C34.2418 26.8662 34.028 26.2381 34.028 25.5357C34.028 24.8332 34.2418 24.2051 34.5777 23.7572C34.9136 23.3094 35.362 23.0515 35.8402 23.0515C36.3184 23.0515 36.7668 23.3094 37.1027 23.7572C37.4386 24.2051 37.6524 24.8332 37.6524 25.5357Z" fill="#334155" stroke="#334155" stroke-width="0.407606"/>
<path d="M21.7481 25.5357C21.7481 26.2381 21.5343 26.8662 21.1984 27.3141C20.8625 27.7619 20.4141 28.0199 19.9359 28.0199C19.4577 28.0199 19.0093 27.7619 18.6734 27.3141C18.3375 26.8662 18.1237 26.2381 18.1237 25.5357C18.1237 24.8332 18.3375 24.2051 18.6734 23.7572C19.0093 23.3094 19.4577 23.0515 19.9359 23.0515C20.4141 23.0515 20.8625 23.3094 21.1984 23.7572C21.5343 24.2051 21.7481 24.8332 21.7481 25.5357Z" fill="#334155" stroke="#334155" stroke-width="0.407606"/>
<g filter="url(#filter0_f_11560_28812)">
<ellipse cx="5.06531" cy="2.53266" rx="5.06531" ry="2.53266" transform="matrix(0.5 0.866025 0.866025 -0.5 9.85547 33.2207)" fill="url(#paint1_radial_11560_28812)"/>
</g>
<g filter="url(#filter1_f_11560_28812)">
<ellipse cx="41.2818" cy="36.3411" rx="5.06531" ry="2.53266" transform="rotate(120 41.2818 36.3411)" fill="url(#paint2_radial_11560_28812)"/>
</g>
<path d="M15.8652 21.8461C17.5636 21.914 21.1234 21.3977 21.7755 18.7891" stroke="#334155" stroke-width="1.12" stroke-linecap="round" stroke-linejoin="round"/>
<path d="M38.8945 21.4379C37.1962 21.5058 33.6364 20.9895 32.9842 18.3809" stroke="#334155" stroke-width="1.12" stroke-linecap="round" stroke-linejoin="round"/>
<path d="M20.832 32.4805C21.9202 32.8727 23.9007 34.4075 23.1172 37.4085" stroke="#334155" stroke-width="0.760866" stroke-linecap="round" stroke-linejoin="round"/>
<path d="M34.9453 32.4805C33.956 32.8727 32.1556 34.4075 32.8679 37.4085" stroke="#334155" stroke-width="0.760866" stroke-linecap="round" stroke-linejoin="round"/>
<path d="M32.9289 34.7253C31.2613 33.4354 27.299 31.8487 23.2969 34.9443" stroke="#334155" stroke-width="0.760866" stroke-linecap="round" stroke-linejoin="round"/>
<defs>
<filter id="filter0_f_11560_28812" x="7.73047" y="28.2734" width="13.7012" height="16.1348" filterUnits="userSpaceOnUse" color-interpolation-filters="sRGB">
<feFlood flood-opacity="0" result="BackgroundImageFix"/>
<feBlend mode="normal" in="SourceGraphic" in2="BackgroundImageFix" result="shape"/>
<feGaussianBlur stdDeviation="1.75" result="effect1_foregroundBlur_11560_28812"/>
</filter>
<filter id="filter1_f_11560_28812" x="34.4316" y="28.2734" width="13.7012" height="16.1348" filterUnits="userSpaceOnUse" color-interpolation-filters="sRGB">
<feFlood flood-opacity="0" result="BackgroundImageFix"/>
<feBlend mode="normal" in="SourceGraphic" in2="BackgroundImageFix" result="shape"/>
<feGaussianBlur stdDeviation="1.75" result="effect1_foregroundBlur_11560_28812"/>
</filter>
<radialGradient id="paint0_radial_11560_28812" cx="0" cy="0" r="1" gradientUnits="userSpaceOnUse" gradientTransform="translate(27.9992 -1.12076) rotate(90) scale(55.7555)">
<stop stop-color="white" stop-opacity="0.73"/>
<stop offset="0.73514" stop-color="#A0C37C"/>
</radialGradient>
<radialGradient id="paint1_radial_11560_28812" cx="0" cy="0" r="1" gradientUnits="userSpaceOnUse" gradientTransform="translate(5.06531 2.53266) rotate(90) scale(2.53266 5.06531)">
<stop stop-color="#F48B91"/>
<stop offset="1" stop-color="#F48B91" stop-opacity="0"/>
</radialGradient>
<radialGradient id="paint2_radial_11560_28812" cx="0" cy="0" r="1" gradientUnits="userSpaceOnUse" gradientTransform="translate(41.2818 36.3411) rotate(90) scale(2.53266 5.06531)">
<stop stop-color="#F48B91"/>
<stop offset="1" stop-color="#F48B91" stop-opacity="0"/>
</radialGradient>
</defs>
</svg>
