<svg width="56" height="56" viewBox="0 0 56 56" fill="none" xmlns="http://www.w3.org/2000/svg">
<g clip-path="url(#clip0_11560_28789)">
<rect x="5.13477" y="42.9336" width="46.2" height="14.9333" fill="#FFBF9D"/>
<path fill-rule="evenodd" clip-rule="evenodd" d="M34.8367 44.16H53.0381C52.8135 40.5724 49.6251 32.7461 47.1976 27.4433C42.4803 17.1385 52.1396 -11.2569 62.0234 -26.5996H34.8367H21.5894H-5.59734C4.28654 -11.2569 13.9458 17.1385 9.22849 27.4433C6.80101 32.7461 3.61264 40.5724 3.38801 44.16H21.5894H34.8367Z" fill="#FFBF9D"/>
<path d="M52.2227 38.567C38.413 38.567 27.9198 55.7913 27.9198 55.7913V34.4592C38.0368 35.033 45.0796 31.5212 48.0813 28.7246L52.2227 38.567Z" fill="#FDF1F1"/>
<path d="M4.15599 38.3913C17.9657 38.3913 27.9187 55.7913 27.9187 55.7913V34.4592C17.8018 35.033 11.4782 31.5212 8.47659 28.7246L4.15599 38.3913Z" fill="#FDF1F1"/>
<path d="M28.9945 26.3463C29.1656 27.4222 28.4584 27.9602 27.7971 27.9602C27.1128 27.6016 26.5996 27.2376 26.5996 26.3463C26.5996 25.455 27.1357 24.7324 27.7971 24.7324C28.4584 24.7324 28.8235 25.2704 28.9945 26.3463Z" fill="#CB9578"/>
<path d="M30.8652 30.457C30.8652 30.457 28.8748 31.6121 28.882 33.0164C28.8892 34.4116 30.8652 34.1474 30.8652 35.5426C30.8652 36.9378 28.882 36.6736 28.882 38.0688C28.882 39.4639 30.8652 39.1998 30.8652 40.5949C30.8652 41.9901 28.882 43.1211 28.882 43.1211" stroke="#F27373" stroke-width="0.875" stroke-linecap="round" stroke-linejoin="round"/>
<path d="M26.168 32.4102C26.168 32.4102 24.7541 33.2306 24.7593 34.2281C24.7643 35.2191 26.168 35.0315 26.168 36.0225C26.168 37.0135 24.7593 36.8259 24.7593 37.8169C24.7593 38.8079 26.168 38.6203 26.168 39.6113C26.168 40.6023 24.7593 41.4057 24.7593 41.4057" stroke="#F27373" stroke-width="0.875" stroke-linecap="round" stroke-linejoin="round"/>
<circle cx="27.446" cy="46.0202" r="1.04368" fill="#F27373"/>
<circle cx="34.0007" cy="38.573" r="1.04368" fill="#F27373"/>
<circle cx="23.1355" cy="43.1199" r="1.04368" fill="#F27373"/>
<circle cx="32.9597" cy="43.3034" r="1.04368" fill="#F27373"/>
<circle cx="21.6218" cy="38.573" r="1.04368" fill="#F27373"/>
</g>
<defs>
<clipPath id="clip0_11560_28789">
<rect width="56" height="56" rx="28" fill="white"/>
</clipPath>
</defs>
</svg>
