<svg width="56" height="56" viewBox="0 0 56 56" fill="none" xmlns="http://www.w3.org/2000/svg">
<g clip-path="url(#clip0_11560_28648)">
<rect x="5.13477" y="42.9336" width="46.2" height="14.9333" fill="#FFBF9D"/>
<path fill-rule="evenodd" clip-rule="evenodd" d="M34.8367 44.16H53.0381C52.8135 40.5724 49.6251 32.7461 47.1976 27.4433C42.4803 17.1385 52.1396 -11.2569 62.0234 -26.5996H34.8367H21.5894H-5.59734C4.28654 -11.2569 13.9458 17.1385 9.22849 27.4433C6.80101 32.7461 3.61264 40.5724 3.38801 44.16H21.5894H34.8367Z" fill="#FFBF9D"/>
<path d="M52.2227 38.567C38.413 38.567 27.9198 55.7913 27.9198 55.7913V34.4592C38.0368 35.033 45.0796 31.5212 48.0813 28.7246L52.2227 38.567Z" fill="#FDF1F1"/>
<path d="M4.15599 38.3913C17.9657 38.3913 27.9187 55.7913 27.9187 55.7913V34.4592C17.8018 35.033 11.4782 31.5212 8.47659 28.7246L4.15599 38.3913Z" fill="#FDF1F1"/>
<path d="M22.2025 57.2746C22.2025 57.2746 19.2343 47.7348 19.6587 43.0711C20.0826 38.4075 22.1694 35.3315 27.5558 35.1741C33.0145 35.0148 35.4528 39.4671 35.5588 42.8586C35.6648 46.2507 33.4389 57.274 33.4389 57.274L22.521 57.3799L22.2025 57.2746Z" fill="#347051"/>
<path d="M30.6035 57.3068L30.9398 57.3037C31.8947 54.45 32.6352 51.5192 32.9678 48.524C33.3157 45.3941 33.1963 42.1981 32.427 39.1361C32.155 38.0526 31.7991 36.9899 31.3587 35.964C31.2172 35.8929 31.0727 35.8261 30.9239 35.7637C31.9841 38.1194 32.5715 40.6754 32.7638 43.2503C33.0033 46.4538 32.6328 49.6731 31.902 52.7932C31.5456 54.319 31.1033 55.8227 30.6035 57.3068Z" fill="#80BC80"/>
<path d="M25.6286 47.5152C25.3861 44.5163 25.1282 41.4207 25.7028 38.4439C25.9184 37.3255 26.265 36.2346 26.7789 35.2246C26.6515 35.2356 26.5266 35.2485 26.4035 35.2632C25.3781 37.38 25.0749 39.8 25.0523 42.1441C25.037 43.7164 25.1417 45.2887 25.2593 46.8555C25.3922 48.6263 25.5656 50.394 25.7781 52.1568C25.987 53.892 26.2344 55.6223 26.5192 57.3472L26.8396 57.3441C26.2993 54.0862 25.8951 50.8062 25.6286 47.5152Z" fill="#80BC80"/>
<path d="M23.0543 49.4358C22.5575 45.9096 22.1441 42.1267 23.3801 38.7028C23.8083 37.5164 24.4355 36.3986 25.2709 35.459C25.0835 35.5031 24.9016 35.5527 24.7246 35.6066C23.091 37.6444 22.3922 40.348 22.2795 42.942C22.1962 44.8555 22.3891 46.7726 22.6329 48.6683C22.8718 50.5285 23.186 52.3783 23.5767 54.2121C23.8022 55.2699 24.0527 56.3216 24.3283 57.3671L24.6578 57.3641C23.9675 54.756 23.4304 52.1082 23.0543 49.4358Z" fill="#80BC80"/>
<path d="M28.5883 57.3266L28.9068 57.3235C29.237 54.7516 29.5328 52.1748 29.6908 49.5864C29.8881 46.3456 29.8654 43.0809 29.3956 39.8634C29.1647 38.2819 28.8223 36.7176 28.3525 35.1906C28.2416 35.1845 28.1296 35.1802 28.0156 35.1777C28.9209 38.0871 29.3497 41.1209 29.4599 44.1632C29.5781 47.4199 29.3484 50.6797 28.9975 53.9162C28.8731 55.0536 28.7341 56.1904 28.5883 57.3266Z" fill="#80BC80"/>
<path d="M21.6864 38.4048C22.0735 38.8403 22.3792 39.3278 22.6095 39.8626C22.6903 40.05 22.9641 39.8883 22.8839 39.7021C22.6426 39.1423 22.3155 38.6351 21.9106 38.18C21.7753 38.0269 21.5511 38.2523 21.6864 38.4048Z" fill="#80BC80"/>
<path d="M22.7028 39.7387C22.2459 39.9218 21.789 40.105 21.3327 40.2881C21.1452 40.3635 21.2267 40.6709 21.4172 40.595C21.8741 40.4119 22.331 40.2287 22.7874 40.0456C22.9754 39.9696 22.8933 39.6621 22.7028 39.7387Z" fill="#80BC80"/>
<path d="M21.2336 39.5747C21.6482 39.7401 22.0623 39.9054 22.477 40.0708C22.6668 40.1468 22.7495 39.8393 22.5615 39.764C22.1468 39.5986 21.7328 39.4332 21.3181 39.2678C21.1276 39.1919 21.0449 39.4994 21.2336 39.5747Z" fill="#80BC80"/>
<path d="M20.6593 42.9745C21.2038 43.266 21.73 43.5876 22.2378 43.9398C22.2188 43.8675 22.1998 43.7946 22.1808 43.7223C21.877 44.227 21.5738 44.7317 21.27 45.2358C21.164 45.4116 21.439 45.5715 21.5444 45.3963C21.8482 44.8916 22.1514 44.3869 22.4552 43.8828C22.5017 43.805 22.4681 43.7137 22.3982 43.6654C21.8905 43.3132 21.3649 42.9916 20.8198 42.7C20.6391 42.6033 20.4786 42.8777 20.6593 42.9745Z" fill="#80BC80"/>
<path d="M21.127 44.3726C21.4418 44.2244 21.7567 44.0762 22.0715 43.9279C22.2565 43.841 22.0954 43.5666 21.911 43.6535C21.5962 43.8018 21.2814 43.95 20.9665 44.0982C20.7815 44.1852 20.9432 44.4596 21.127 44.3726Z" fill="#80BC80"/>
<path d="M21.1971 48.2726C21.4109 48.4245 21.624 48.5764 21.8378 48.7283C22.0271 48.8631 22.2733 48.9856 22.4325 49.1516C22.6341 49.3617 22.4197 49.6165 22.2984 49.8253C22.1765 50.0348 22.0411 50.2339 21.896 50.428C21.7735 50.5922 22.0497 50.7508 22.1704 50.5885C22.3768 50.311 22.5636 50.0207 22.7216 49.7132C22.8147 49.5319 22.9452 49.3243 22.8448 49.1203C22.7431 48.9127 22.4503 48.7755 22.2721 48.6487C21.967 48.4319 21.662 48.2144 21.357 47.9976C21.1904 47.8794 21.0311 48.155 21.1971 48.2726Z" fill="#80BC80"/>
<path d="M21.4451 49.5597C21.7556 49.4103 22.0858 49.3147 22.4288 49.278C22.6303 49.2565 22.6321 48.938 22.4288 48.9601C22.0276 49.0036 21.6484 49.1101 21.2846 49.2853C21.1002 49.3741 21.2613 49.6479 21.4451 49.5597Z" fill="#80BC80"/>
<path d="M22.0095 53.0914C22.5295 53.4038 23.0121 53.7645 23.4593 54.1749C23.4507 54.1106 23.4427 54.0463 23.4341 53.982C23.1248 54.4169 22.8161 54.8517 22.5068 55.2872C22.388 55.4545 22.6636 55.6131 22.7812 55.4477C23.0905 55.0128 23.3992 54.578 23.7085 54.1425C23.7477 54.0873 23.7318 53.9942 23.6834 53.9495C23.2173 53.5214 22.712 53.1429 22.1693 52.8164C21.9941 52.7116 21.8343 52.9861 22.0095 53.0914Z" fill="#80BC80"/>
<path d="M22.1087 54.1421C22.5326 54.1421 22.9571 54.1421 23.3809 54.1421C23.5855 54.1421 23.5861 53.8242 23.3809 53.8242C22.9571 53.8242 22.5326 53.8242 22.1087 53.8242C21.9042 53.8242 21.9036 54.1421 22.1087 54.1421Z" fill="#80BC80"/>
<path d="M23.9069 46.137C24.3332 46.491 24.7595 46.8456 25.1858 47.1997C25.1858 47.1249 25.1858 47.0496 25.1858 46.9749C24.7932 47.3638 24.3999 47.7527 24.0073 48.1411C23.8615 48.285 24.0863 48.5098 24.2321 48.3659C24.6247 47.9769 25.018 47.588 25.4106 47.1997C25.4675 47.1433 25.4767 47.0294 25.4106 46.9749C24.9843 46.6208 24.558 46.2662 24.1317 45.9122C23.9755 45.7823 23.7494 46.0065 23.9069 46.137Z" fill="#80BC80"/>
<path d="M23.6931 47.4302C24.1549 47.3812 24.6167 47.3328 25.078 47.2838C25.2795 47.2623 25.2813 46.9444 25.078 46.9659C24.6161 47.0149 24.1543 47.0633 23.6931 47.1123C23.4916 47.1337 23.4891 47.4516 23.6931 47.4302Z" fill="#80BC80"/>
<path d="M23.9424 40.3914C24.3491 40.8477 24.7552 41.304 25.1619 41.7597C25.1729 41.6764 25.1833 41.5931 25.1943 41.5098C24.5978 41.8786 24.0673 42.3337 23.6159 42.8708C23.4848 43.0264 23.709 43.2524 23.8407 43.0956C24.2756 42.5787 24.7803 42.1395 25.3548 41.7842C25.4455 41.7279 25.4559 41.6121 25.3873 41.5343C24.9806 41.078 24.5745 40.6217 24.1678 40.166C24.0312 40.0135 23.807 40.2389 23.9424 40.3914Z" fill="#80BC80"/>
<path d="M23.3802 41.8452C23.8751 41.8452 24.3694 41.8452 24.8643 41.8452C25.0689 41.8452 25.0695 41.5273 24.8643 41.5273C24.3694 41.5273 23.8751 41.5273 23.3802 41.5273C23.1756 41.5267 23.175 41.8452 23.3802 41.8452Z" fill="#80BC80"/>
<path d="M24.4781 51.3682C24.935 51.7363 25.3687 52.129 25.7803 52.5467C25.7803 52.472 25.7803 52.3966 25.7803 52.3219C25.3417 52.7041 25.0263 53.1837 24.8401 53.7343C24.7745 53.9285 25.0814 54.0118 25.1469 53.8189C25.3166 53.3184 25.6076 52.8934 26.0057 52.5467C26.0706 52.4897 26.0626 52.3801 26.0057 52.3219C25.5941 51.9042 25.1604 51.5109 24.7035 51.1434C24.5455 51.016 24.3188 51.2396 24.4781 51.3682Z" fill="#80BC80"/>
<path d="M24.377 52.855C24.7996 52.7693 25.2008 52.6241 25.5824 52.4232C25.7637 52.3277 25.6032 52.0533 25.4219 52.1488C25.0636 52.3375 24.6887 52.4679 24.2925 52.5482C24.0916 52.5892 24.1767 52.8955 24.377 52.855Z" fill="#80BC80"/>
<path d="M26.5308 42.8214C26.0401 43.2177 25.6083 43.6691 25.2267 44.1708C25.1734 44.2406 25.2182 44.3472 25.2837 44.3882C25.8521 44.7453 26.4205 45.1024 26.9889 45.4595C27.1629 45.5685 27.3227 45.2935 27.1494 45.1851C26.581 44.828 26.0126 44.4709 25.4442 44.1138C25.4632 44.1861 25.4821 44.259 25.5011 44.3312C25.8656 43.8523 26.2876 43.4241 26.7555 43.0462C26.9148 42.9176 26.6882 42.6934 26.5308 42.8214Z" fill="#80BC80"/>
<path d="M25.2919 44.3403C25.8523 44.3623 26.4048 44.2931 26.9432 44.1345C27.1392 44.0769 27.0559 43.7694 26.8587 43.8276C26.3454 43.9789 25.8266 44.0432 25.2919 44.0224C25.0873 44.0144 25.0879 44.3323 25.2919 44.3403Z" fill="#80BC80"/>
<path d="M27.9333 48.7914C28.43 49.2403 28.8851 49.7291 29.2979 50.2571C29.309 50.1738 29.3194 50.0905 29.3304 50.0072C28.7418 50.3808 28.2199 50.839 27.7771 51.3774C27.6479 51.5342 27.872 51.7602 28.0019 51.6022C28.4282 51.084 28.9243 50.6418 29.4909 50.2816C29.5852 50.2216 29.5871 50.1138 29.5234 50.0317C29.1105 49.5037 28.6554 49.0155 28.1587 48.566C28.0068 48.4294 27.7808 48.6536 27.9333 48.7914Z" fill="#80BC80"/>
<path d="M27.6213 50.2013C28.1505 50.2442 28.6803 50.2877 29.2095 50.3306C29.4135 50.3471 29.4122 50.0292 29.2095 50.0127C28.6803 49.9698 28.1505 49.9263 27.6213 49.8834C27.4173 49.8669 27.4185 50.1848 27.6213 50.2013Z" fill="#80BC80"/>
<path d="M30.3904 52.9865C29.942 53.2726 29.4937 53.558 29.0453 53.844C28.9369 53.9133 28.9498 54.0474 29.0453 54.1184C29.4257 54.4026 29.806 54.6862 30.1864 54.9704C30.3506 55.0929 30.5092 54.8173 30.3469 54.696C29.9665 54.4118 29.5862 54.1282 29.2058 53.844C29.2058 53.9353 29.2058 54.0272 29.2058 54.1184C29.6541 53.8324 30.1025 53.547 30.5509 53.2609C30.723 53.1513 30.5637 52.8763 30.3904 52.9865Z" fill="#80BC80"/>
<path d="M29.4212 54.0387C29.7771 54.0357 30.1146 54.1012 30.4447 54.2329C30.6346 54.3089 30.7173 54.0014 30.5293 53.926C30.174 53.7845 29.8034 53.7172 29.4212 53.7208C29.2167 53.7227 29.2161 54.0406 29.4212 54.0387Z" fill="#80BC80"/>
<path d="M31.0212 44.7662C30.767 45.0908 30.5128 45.4155 30.2586 45.7401C30.1318 45.9024 30.0044 46.0647 29.8776 46.227C29.7998 46.3263 29.6743 46.4414 29.632 46.5652C29.542 46.8273 29.8844 46.9798 30.0528 47.0968C30.3928 47.3339 30.7327 47.5703 31.0726 47.8073C31.2411 47.9243 31.4003 47.6493 31.2331 47.5329C30.9857 47.3608 30.7388 47.1887 30.4914 47.016C30.3738 46.9339 30.2225 46.8579 30.1208 46.7575C29.9622 46.6013 30.0038 46.578 30.1373 46.4077C30.5067 45.9355 30.8766 45.4633 31.246 44.991C31.3709 44.8318 31.1474 44.6051 31.0212 44.7662Z" fill="#80BC80"/>
<path d="M29.846 46.796C30.2374 46.7439 30.6282 46.6919 31.0196 46.6398C31.2192 46.6135 31.2223 46.295 31.0196 46.3219C30.6282 46.374 30.2374 46.4261 29.846 46.4781C29.6463 46.5045 29.6439 46.823 29.846 46.796Z" fill="#80BC80"/>
<path d="M27.7524 40.8741C28.311 41.2244 28.8231 41.633 29.2886 42.0997C29.2886 42.025 29.2886 41.9496 29.2886 41.8749C28.9144 42.2761 28.5407 42.6773 28.1665 43.0785C28.0268 43.2279 28.2516 43.4533 28.3913 43.3033C28.7655 42.9021 29.1391 42.5009 29.5134 42.0997C29.5722 42.0366 29.5759 41.9374 29.5134 41.8749C29.0289 41.3892 28.4936 40.9635 27.9123 40.5991C27.7389 40.4906 27.5791 40.7657 27.7524 40.8741Z" fill="#80BC80"/>
<path d="M27.7959 42.251C28.2112 42.3386 28.624 42.2724 28.9866 42.0507C29.1612 41.9441 29.0013 41.6691 28.8262 41.7763C28.5371 41.9533 28.213 42.0146 27.8804 41.9441C27.6808 41.9025 27.5956 42.2094 27.7959 42.251Z" fill="#80BC80"/>
<path d="M29.6234 36.6327C29.4458 36.9537 29.2682 37.274 29.0905 37.595C28.9846 37.7861 28.761 38.058 28.9123 38.2816C29.0366 38.4647 29.2988 38.4605 29.4887 38.5186C29.8176 38.6191 30.0883 38.8225 30.3039 39.0864C30.4338 39.2451 30.6573 39.0191 30.5287 38.8616C30.239 38.507 29.8507 38.2694 29.4035 38.1695C29.2731 38.1401 29.1928 38.1481 29.2314 37.9962C29.2633 37.8694 29.3809 37.7261 29.4446 37.6115C29.5958 37.339 29.7465 37.0664 29.8978 36.7938C29.997 36.6144 29.7226 36.4539 29.6234 36.6327Z" fill="#80BC80"/>
<path d="M29.1555 38.268C29.5432 38.1578 29.9303 38.0475 30.318 37.9366C30.5147 37.8809 30.4307 37.574 30.2335 37.6298C29.8458 37.74 29.4587 37.8503 29.071 37.9611C28.8744 38.0175 28.9583 38.3244 29.1555 38.268Z" fill="#80BC80"/>
<path d="M33.2681 38.7415C32.9055 39.1868 32.568 39.6499 32.2575 40.1325C32.1987 40.2238 32.2599 40.3347 32.3524 40.3659C32.9533 40.5711 33.5548 40.7763 34.1557 40.9809C34.3498 41.047 34.4331 40.7401 34.2402 40.674C33.6393 40.4688 33.0378 40.2636 32.437 40.059C32.4688 40.1368 32.5 40.2146 32.5319 40.2924C32.8277 39.8324 33.1475 39.3902 33.4923 38.9657C33.6209 38.8089 33.3974 38.5829 33.2681 38.7415Z" fill="#80BC80"/>
<path d="M32.6388 40.33C32.9628 40.2461 33.2862 40.1622 33.6102 40.0783C33.8081 40.0268 33.7242 39.72 33.5257 39.7714C33.2017 39.8553 32.8783 39.9392 32.5543 40.0232C32.3564 40.0746 32.4403 40.3815 32.6388 40.33Z" fill="#80BC80"/>
<path d="M34.1758 42.8359C33.8009 43.2787 33.3703 43.6572 32.8797 43.9678C32.7982 44.0192 32.7676 44.1473 32.8472 44.2177C33.2423 44.5625 33.6367 44.9068 34.0318 45.2516C34.1855 45.3857 34.411 45.1616 34.2566 45.0268C33.8615 44.682 33.4671 44.3377 33.072 43.9929C33.061 44.0762 33.0506 44.1595 33.0396 44.2428C33.5522 43.9182 34.0079 43.5243 34.3999 43.0613C34.5322 42.9057 34.3081 42.6797 34.1758 42.8359Z" fill="#80BC80"/>
<path d="M33.0715 44.0085C33.5854 44.2339 34.1115 44.305 34.6671 44.2254C34.8686 44.1966 34.7828 43.8897 34.5825 43.9185C34.1207 43.9846 33.6589 43.9209 33.232 43.7335C33.0464 43.6527 32.8841 43.9265 33.0715 44.0085Z" fill="#80BC80"/>
<path d="M33.8946 47.4251C33.529 47.8471 33.11 48.2072 32.6353 48.5025C32.53 48.568 32.5361 48.7101 32.6353 48.7769C33.1529 49.1254 33.6705 49.4739 34.188 49.823C34.3583 49.9376 34.5176 49.6626 34.3485 49.5486C33.8309 49.2001 33.3134 48.8516 32.7958 48.5025C32.7958 48.5937 32.7958 48.6856 32.7958 48.7769C33.2925 48.4682 33.736 48.0921 34.1194 47.6499C34.253 47.4961 34.0288 47.2701 33.8946 47.4251Z" fill="#80BC80"/>
<path d="M33.0568 49.0085C33.4672 48.9038 33.8812 48.8272 34.302 48.7819C34.5035 48.7604 34.5053 48.4419 34.302 48.464C33.8524 48.5124 33.4102 48.5902 32.9722 48.7016C32.7744 48.7525 32.8583 49.0593 33.0568 49.0085Z" fill="#80BC80"/>
<path d="M33.711 51.355C33.1836 51.5571 32.6569 51.7599 32.1295 51.962C32.0119 52.0073 31.9801 52.1304 32.0591 52.2278C32.3549 52.5929 32.6771 52.9304 33.0281 53.2421C33.1806 53.3775 33.406 53.1533 33.2528 53.0173C32.9019 52.705 32.5797 52.3681 32.2839 52.003C32.2606 52.0918 32.2373 52.18 32.2134 52.2689C32.7408 52.0667 33.2675 51.864 33.7949 51.6619C33.9842 51.5896 33.9021 51.2815 33.711 51.355Z" fill="#80BC80"/>
<path d="M32.5681 52.2111C32.9209 52.3195 33.2731 52.4285 33.6259 52.5369C33.8219 52.5976 33.9059 52.2907 33.7105 52.2301C33.3577 52.1217 33.0055 52.0126 32.6527 51.9042C32.4567 51.8442 32.3728 52.1511 32.5681 52.2111Z" fill="#80BC80"/>
<path d="M26.8527 37.1028C26.5746 37.3502 26.2971 37.5977 26.019 37.8451C25.8328 38.0105 25.4855 38.22 25.4984 38.5054C25.5094 38.7578 25.7936 38.8362 25.9841 38.9238C26.3247 39.0812 26.6658 39.2386 27.0064 39.3954C27.1908 39.4805 27.3525 39.2067 27.1669 39.121C26.9396 39.0162 26.7124 38.9115 26.4851 38.8062C26.3553 38.7461 26.2254 38.6861 26.0956 38.6261C26.0307 38.5961 25.9657 38.5661 25.9008 38.536C25.8242 38.5238 25.8151 38.4901 25.8739 38.435C25.9008 38.3204 26.0772 38.2175 26.1605 38.1434C26.2579 38.0571 26.3553 37.9701 26.4521 37.8837C26.6603 37.6981 26.8692 37.5125 27.0774 37.327C27.2306 37.191 27.0052 36.9668 26.8527 37.1028Z" fill="#80BC80"/>
<path d="M25.8646 38.7884C26.3239 38.6836 26.7839 38.5783 27.2433 38.4735C27.443 38.4282 27.3585 38.1213 27.1588 38.1667C26.6994 38.2714 26.2394 38.3768 25.78 38.4815C25.5804 38.5274 25.6649 38.8343 25.8646 38.7884Z" fill="#80BC80"/>
<path d="M18.0832 45.7036C18.3582 45.8237 18.6332 45.9431 18.9076 46.0632C19.0105 46.1079 19.1141 46.1532 19.217 46.1979C19.2752 46.2237 19.5581 46.3021 19.5808 46.3584C19.6347 46.495 19.296 46.9176 19.2213 47.0444C19.1459 47.1718 19.0712 47.2992 18.9958 47.4266C18.9536 47.4983 18.8317 47.7929 18.7484 47.8131C18.8084 47.8376 18.8678 47.8621 18.9279 47.886C18.9242 47.9264 18.9205 47.9662 18.9168 48.0067C18.8421 48.0067 18.7668 48.0067 18.692 48.0067C18.6976 48.0116 18.7031 48.0159 18.7092 48.0208C18.8654 48.1512 19.0914 47.927 18.934 47.796C18.9285 47.7911 18.923 47.7868 18.9168 47.7819C18.847 47.7237 18.7619 47.7219 18.692 47.7819C18.6136 47.8493 18.5891 47.9607 18.6535 48.0465C18.6976 48.1053 18.7582 48.1377 18.8329 48.1194C19.1079 48.0532 19.2519 47.6183 19.383 47.3954C19.4957 47.2043 19.6084 47.0132 19.7211 46.8227C19.7952 46.6971 19.9073 46.555 19.9189 46.4031C19.9409 46.1146 19.6414 46.0381 19.4289 45.9456C19.0338 45.7735 18.6388 45.6014 18.2437 45.4286C18.0581 45.3484 17.8958 45.6222 18.0832 45.7036Z" fill="#80BC80"/>
<path d="M18.4434 46.9454C18.8715 46.8713 19.2739 46.7139 19.6396 46.4799C19.8117 46.3697 19.6519 46.0947 19.4791 46.2055C19.1331 46.4273 18.7631 46.5694 18.3589 46.6392C18.158 46.6741 18.2431 46.9804 18.4434 46.9454Z" fill="#80BC80"/>
<path d="M19.0427 39.6617C19.3398 39.941 19.6032 40.2461 19.8335 40.5829C19.8525 40.5107 19.8715 40.4378 19.8905 40.3655C19.4415 40.6613 18.9925 40.9578 18.5436 41.2536C18.3733 41.3657 18.5325 41.6414 18.704 41.528C19.153 41.2322 19.602 40.9357 20.0509 40.6399C20.1189 40.5952 20.1587 40.4966 20.1079 40.4225C19.8623 40.0635 19.5842 39.7352 19.2675 39.4369C19.1181 39.2967 18.8933 39.5215 19.0427 39.6617Z" fill="#80BC80"/>
<path d="M18.4006 40.5588C18.8949 40.6017 19.3885 40.6446 19.8828 40.6875C20.0868 40.7052 20.0856 40.3873 19.8828 40.3696C19.3885 40.3267 18.8949 40.2838 18.4006 40.241C18.1966 40.2232 18.1978 40.5411 18.4006 40.5588Z" fill="#80BC80"/>
<path d="M21.3944 35.9872C21.8146 36.2855 22.2807 36.495 22.7817 36.6132C22.8607 36.6316 22.9599 36.5893 22.9771 36.5024C23.0714 36.0222 23.1657 35.5419 23.2601 35.0624C23.2993 34.8627 22.993 34.7769 22.9532 34.9778C22.8589 35.458 22.7646 35.9382 22.6702 36.4178C22.7352 36.3811 22.8007 36.3437 22.8656 36.307C22.3879 36.1943 21.9542 35.9977 21.5542 35.7134C21.3876 35.594 21.2284 35.8696 21.3944 35.9872Z" fill="#80BC80"/>
<path d="M22.0479 35.2224C22.0981 35.7069 22.2451 36.1595 22.4981 36.5766C22.6041 36.7512 22.8791 36.5919 22.7725 36.4161C22.5489 36.0486 22.4099 35.6505 22.3658 35.2224C22.345 35.0209 22.0265 35.0184 22.0479 35.2224Z" fill="#80BC80"/>
<path d="M18.9879 51.5037C19.5489 51.6519 20.11 51.7996 20.671 51.9478C20.6392 51.87 20.608 51.7922 20.5761 51.7144C20.3023 52.27 20.0291 52.8261 19.7553 53.3817C19.6653 53.5648 19.9397 53.7259 20.0297 53.5421C20.3035 52.9866 20.5767 52.4304 20.8505 51.8749C20.8946 51.7849 20.8603 51.6691 20.7556 51.6415C20.1945 51.4933 19.6335 51.3457 19.0724 51.1975C18.8739 51.1448 18.79 51.4517 18.9879 51.5037Z" fill="#80BC80"/>
<path d="M19.2117 52.7229C19.6086 52.4895 20.0055 52.2555 20.4018 52.0222C20.5782 51.9186 20.4183 51.6436 20.2413 51.7478C19.8444 51.9811 19.4475 52.2151 19.0512 52.4485C18.8748 52.552 19.0347 52.827 19.2117 52.7229Z" fill="#80BC80"/>
<path d="M30.6679 34.1958C30.8382 34.752 31.0085 35.3075 31.1781 35.8637C31.2081 35.9611 31.3214 36.0125 31.4115 35.9586C31.9113 35.6628 32.4105 35.3675 32.9103 35.0717C33.0861 34.9676 32.9262 34.6926 32.7498 34.7973C32.25 35.0931 31.7508 35.3884 31.251 35.6842C31.3288 35.7161 31.4066 35.7473 31.4844 35.7791C31.3141 35.223 31.1438 34.6674 30.9742 34.1113C30.9147 33.9159 30.6079 33.9992 30.6679 34.1958Z" fill="#80BC80"/>
<path d="M31.7287 34.4029C31.4788 34.858 31.3275 35.3413 31.265 35.8564C31.2405 36.0592 31.5584 36.0573 31.5829 35.8564C31.6386 35.3989 31.782 34.9671 32.0037 34.5634C32.1017 34.384 31.8273 34.2229 31.7287 34.4029Z" fill="#80BC80"/>
<path d="M35.0853 37.3466C34.8018 37.8078 34.5182 38.269 34.234 38.7302C34.1752 38.8252 34.237 38.9274 34.3289 38.9636C34.8299 39.1602 35.3316 39.3568 35.8326 39.5534C36.0231 39.6282 36.1058 39.3207 35.9171 39.2466C35.4161 39.0499 34.9145 38.8533 34.4134 38.6567C34.4453 38.7345 34.4765 38.8123 34.5084 38.8901C34.792 38.4289 35.0755 37.9676 35.3598 37.5064C35.4676 37.3325 35.1925 37.1726 35.0853 37.3466Z" fill="#80BC80"/>
<path d="M34.6057 38.912C34.8948 38.637 35.2347 38.4514 35.6212 38.3534C35.8197 38.3032 35.7352 37.9963 35.5367 38.0465C35.0988 38.158 34.708 38.3755 34.3809 38.6866C34.2321 38.8281 34.4569 39.0529 34.6057 38.912Z" fill="#80BC80"/>
<path d="M36.5926 41.3293C36.1731 41.7213 35.7529 42.1133 35.3333 42.5053C35.2757 42.5592 35.2678 42.678 35.3333 42.7301C35.7958 43.0982 36.2582 43.4657 36.7207 43.8338C36.8793 43.96 37.1059 43.7364 36.9454 43.609C36.483 43.2409 36.0206 42.8734 35.5581 42.5053C35.5581 42.58 35.5581 42.6553 35.5581 42.7301C35.9777 42.3381 36.3979 41.9461 36.8174 41.5541C36.9675 41.4138 36.7421 41.1896 36.5926 41.3293Z" fill="#80BC80"/>
<path d="M35.5162 42.7312C35.8837 42.8182 36.253 42.8415 36.6279 42.7931C36.8282 42.7674 36.8306 42.4489 36.6279 42.4752C36.2812 42.5199 35.9413 42.5058 35.6007 42.425C35.4016 42.3772 35.3165 42.6834 35.5162 42.7312Z" fill="#80BC80"/>
<path d="M36.6916 45.747C36.1251 45.8793 35.5891 46.0955 35.0893 46.3932C34.9993 46.4465 34.9864 46.5684 35.0569 46.6431C35.4366 47.0449 35.817 47.4467 36.1967 47.8485C36.3376 47.9973 36.5624 47.7725 36.4215 47.6237C36.0418 47.2219 35.6614 46.8201 35.2817 46.4183C35.2706 46.5016 35.2602 46.5849 35.2492 46.6682C35.7269 46.384 36.2347 46.18 36.7756 46.0538C36.9752 46.0073 36.8913 45.7004 36.6916 45.747Z" fill="#80BC80"/>
<path d="M35.2928 46.5747C35.6487 46.8259 36.0486 46.9913 36.4774 47.0641C36.6777 47.0978 36.7634 46.7916 36.5619 46.7573C36.1552 46.6887 35.7895 46.538 35.4533 46.3003C35.2861 46.1821 35.1268 46.4578 35.2928 46.5747Z" fill="#80BC80"/>
<path d="M35.897 49.4753C35.4125 49.7509 34.928 50.0266 34.4429 50.3028C34.3725 50.3426 34.337 50.4504 34.386 50.5202C34.672 50.9331 35.0273 51.2736 35.4542 51.5395C35.6288 51.6479 35.7886 51.3729 35.6147 51.2651C35.2343 51.0286 34.9158 50.7279 34.6604 50.3604C34.6414 50.4327 34.6224 50.5055 34.6034 50.5778C35.0879 50.3022 35.5724 50.0266 36.0569 49.7503C36.2358 49.6487 36.0759 49.3736 35.897 49.4753Z" fill="#80BC80"/>
<path d="M34.6427 50.5141C35.0702 50.7138 35.5229 50.7983 35.9933 50.7487C36.1948 50.7279 36.1966 50.4094 35.9933 50.4308C35.5804 50.4743 35.1805 50.4155 34.8032 50.2391C34.6188 50.1533 34.4571 50.4271 34.6427 50.5141Z" fill="#80BC80"/>
<path d="M35.7413 53.4118C35.1404 53.6446 34.5181 53.7989 33.8768 53.8645C33.7702 53.8755 33.6612 53.9961 33.7396 54.1039C34.0814 54.5762 34.4495 55.0276 34.8452 55.4558C34.9842 55.6064 35.209 55.381 35.0699 55.231C34.6926 54.8224 34.3405 54.3943 34.014 53.9435C33.968 54.0231 33.9227 54.1027 33.8768 54.183C34.5469 54.1144 35.1973 53.9631 35.8258 53.7193C36.0144 53.6458 35.9324 53.3377 35.7413 53.4118Z" fill="#80BC80"/>
<path d="M34.0434 54.2448C34.4691 54.4169 34.8954 54.5884 35.3211 54.7605C35.511 54.8371 35.5931 54.5296 35.4056 54.4537C34.9799 54.2815 34.5536 54.11 34.1279 53.9379C33.9381 53.8614 33.856 54.1688 34.0434 54.2448Z" fill="#80BC80"/>
<path d="M27.5117 53.457C27.0805 53.9391 26.6493 54.4211 26.2181 54.9031C26.1379 54.9932 26.1697 55.1328 26.2886 55.169C26.7559 55.3123 27.1651 55.553 27.5179 55.8911C27.6655 56.0326 27.8909 55.8084 27.7427 55.6663C27.3513 55.2915 26.8913 55.0214 26.3731 54.8621C26.3964 54.9509 26.4196 55.0391 26.4435 55.1279C26.8747 54.6459 27.3059 54.1639 27.7372 53.6818C27.8725 53.5299 27.6483 53.3045 27.5117 53.457Z" fill="#80BC80"/>
<path d="M26.6072 55.2118C26.9943 55.134 27.3814 55.0562 27.7691 54.9784C27.9694 54.938 27.8849 54.6317 27.6846 54.6715C27.2975 54.7493 26.9098 54.8271 26.5227 54.9049C26.3224 54.9453 26.4069 55.2516 26.6072 55.2118Z" fill="#80BC80"/>
<path d="M28.9945 26.3463C29.1656 27.4222 28.4584 27.9602 27.7971 27.9602C27.1128 27.6016 26.5996 27.2376 26.5996 26.3463C26.5996 25.455 27.1357 24.7324 27.7971 24.7324C28.4584 24.7324 28.8235 25.2704 28.9945 26.3463Z" fill="#CB9578"/>
</g>
<defs>
<clipPath id="clip0_11560_28648">
<rect width="56" height="56" rx="28" fill="white"/>
</clipPath>
</defs>
</svg>
