<svg width="56" height="56" viewBox="0 0 56 56" fill="none" xmlns="http://www.w3.org/2000/svg">
<g clip-path="url(#clip0_11560_29017)">
<rect x="-0.59375" y="1.22656" width="55.7734" height="55.7734" rx="27.8867" fill="white"/>
<path d="M21.7498 17.8256C26.1391 18.6459 29.464 21.7523 31.5346 23.8096C33.5919 25.8801 36.6983 29.2051 37.5186 33.5944C37.6682 34.3949 37.7886 35.1829 37.9071 35.9578C38.0936 37.178 38.2752 38.3659 38.5579 39.5195C38.0552 38.5939 37.6058 37.6453 37.1233 36.6266L37.1228 36.6257L37.1227 36.6253C36.9047 36.1651 36.6799 35.6905 36.4403 35.1973C34.7339 31.6841 31.6761 28.4319 29.6059 26.3408L29.6071 26.3395L29.5873 26.3197C29.478 26.2104 29.364 26.0964 29.2455 25.9782C29.1273 25.8597 29.0133 25.7457 28.904 25.6364L28.8842 25.6166L28.8829 25.6178C26.7918 23.5476 23.5395 20.4898 20.0264 18.7834C19.5327 18.5436 19.0576 18.3185 18.597 18.1003C17.6916 17.6715 16.8417 17.2689 16.0141 16.8318C17.1082 17.0889 18.2329 17.2608 19.3864 17.4371C20.1613 17.5556 20.9493 17.676 21.7498 17.8256Z" fill="#F47C7C"/>
<path d="M36.1936 37.0535C36.6958 38.1148 37.1711 39.1191 37.7159 40.1116L15.1121 17.5078C16.1045 18.0526 17.1089 18.5279 18.1702 19.0301C18.6282 19.2468 19.0968 19.4686 19.5797 19.7031C23.134 21.4295 26.451 24.6363 28.5225 26.7012C30.5874 28.7727 33.7942 32.0897 35.5206 35.644C35.7551 36.1269 35.9769 36.5955 36.1936 37.0535Z" fill="#F47C7C"/>
<path d="M14.5491 18.3907C14.9528 19.1808 15.3185 19.9778 15.6953 20.7988C15.9785 21.416 16.268 22.0468 16.5844 22.6983C18.3108 26.2526 21.5177 29.5696 23.5826 31.6411C25.6541 33.706 28.9711 36.9129 32.5254 38.6392C33.1768 38.9557 33.8077 39.2452 34.4249 39.5284C35.2459 39.9052 36.0429 40.2709 36.833 40.6746L14.5491 18.3907Z" fill="#F47C7C"/>
<path d="M22.8596 32.3641C22.9771 32.482 23.0905 32.5953 23.1992 32.7041L23.2209 32.7258L23.2222 32.7245C25.3133 34.7947 28.5655 37.8525 32.0787 39.5589C32.7609 39.8903 33.4107 40.189 34.0379 40.4772L34.0384 40.4774C34.6973 40.7803 35.3314 41.0717 35.9525 41.3778C34.9593 41.1599 33.941 41.0042 32.8994 40.845C32.1245 40.7265 31.3365 40.6061 30.536 40.4565C26.1468 39.6362 22.8218 36.5298 20.7512 34.4725C18.6939 32.4019 15.5875 29.0769 14.7672 24.6877C14.6177 23.8873 14.4972 23.0991 14.3787 22.3243C14.2195 21.2826 14.0639 20.2645 13.8459 19.2712C14.1519 19.8922 14.4434 20.5263 14.7462 21.1852L14.7464 21.1856C15.0347 21.8129 15.3333 22.4627 15.6648 23.145C17.3712 26.6582 20.429 29.9104 22.4992 32.0015L22.4979 32.0028L22.5196 32.0245C22.6284 32.1332 22.7417 32.2466 22.8596 32.3641Z" fill="#F47C7C"/>
<path fill-rule="evenodd" clip-rule="evenodd" d="M31.5346 23.8096C29.464 21.7523 26.1391 18.6459 21.7498 17.8256C20.9493 17.676 20.1613 17.5556 19.3864 17.4371C18.2329 17.2608 17.1082 17.0889 16.0141 16.8318C16.8417 17.2689 17.6916 17.6715 18.597 18.1003C19.0576 18.3185 19.5327 18.5436 20.0264 18.7834C23.5395 20.4898 26.7918 23.5476 28.8829 25.6178L28.8842 25.6166L28.904 25.6364C29.0133 25.7457 29.1273 25.8597 29.2455 25.9782C29.364 26.0964 29.478 26.2104 29.5873 26.3197L29.6071 26.3395L29.6059 26.3408C31.6761 28.4319 34.7339 31.6841 36.4403 35.1973C36.6799 35.6905 36.9047 36.1651 37.1227 36.6253L37.1228 36.6257L37.1233 36.6266C37.6058 37.6453 38.0552 38.5939 38.5579 39.5195C38.2752 38.3659 38.0936 37.178 37.9071 35.9578C37.7886 35.1829 37.6682 34.3949 37.5186 33.5944C36.6983 29.2051 33.5919 25.8801 31.5346 23.8096ZM36.1936 37.0535C35.9769 36.5955 35.7551 36.1269 35.5206 35.644C33.7942 32.0897 30.5874 28.7727 28.5225 26.7012C26.451 24.6363 23.134 21.4295 19.5797 19.7031C19.0968 19.4686 18.6282 19.2468 18.1702 19.0301C17.1089 18.5279 16.1045 18.0526 15.1121 17.5078L37.7159 40.1116C37.1711 39.1191 36.6958 38.1148 36.1936 37.0535ZM15.6953 20.7988C15.3185 19.9778 14.9528 19.1808 14.5491 18.3907L36.833 40.6746C36.0429 40.2709 35.2459 39.9052 34.4249 39.5284C33.8077 39.2452 33.1768 38.9557 32.5254 38.6392C28.9711 36.9129 25.6541 33.706 23.5826 31.6411C21.5177 29.5696 18.3108 26.2526 16.5844 22.6983C16.268 22.0468 15.9785 21.416 15.6953 20.7988ZM23.1992 32.7041C23.0905 32.5953 22.9771 32.482 22.8596 32.3641C22.7417 32.2466 22.6284 32.1332 22.5196 32.0245L22.4979 32.0028L22.4992 32.0015C20.429 29.9104 17.3712 26.6582 15.6648 23.145C15.3333 22.4627 15.0347 21.8129 14.7464 21.1856L14.7462 21.1852C14.4434 20.5263 14.1519 19.8922 13.8459 19.2712C14.0639 20.2645 14.2195 21.2826 14.3787 22.3243C14.4972 23.0991 14.6177 23.8873 14.7672 24.6877C15.5875 29.0769 18.6939 32.4019 20.7512 34.4725C22.8218 36.5298 26.1468 39.6362 30.536 40.4565C31.3365 40.6061 32.1245 40.7265 32.8994 40.845C33.941 41.0042 34.9593 41.1599 35.9525 41.3778C35.3314 41.0717 34.6973 40.7803 34.0384 40.4774L34.0379 40.4772C33.4107 40.189 32.7609 39.8903 32.0787 39.5589C28.5655 37.8525 25.3133 34.7947 23.2222 32.7245L23.2209 32.7258L23.1992 32.7041Z" fill="#F47C7C"/>
<path fill-rule="evenodd" clip-rule="evenodd" d="M31.5346 23.8096C29.464 21.7523 26.1391 18.6459 21.7498 17.8256C20.9493 17.676 20.1613 17.5556 19.3864 17.4371C18.2329 17.2608 17.1082 17.0889 16.0141 16.8318C16.8417 17.2689 17.6916 17.6715 18.597 18.1003C19.0576 18.3185 19.5327 18.5436 20.0264 18.7834C23.5395 20.4898 26.7918 23.5476 28.8829 25.6178L28.8842 25.6166L28.904 25.6364C29.0133 25.7457 29.1273 25.8597 29.2455 25.9782C29.364 26.0964 29.478 26.2104 29.5873 26.3197L29.6071 26.3395L29.6059 26.3408C31.6761 28.4319 34.7339 31.6841 36.4403 35.1973C36.6799 35.6905 36.9047 36.1651 37.1227 36.6253L37.1228 36.6257L37.1233 36.6266C37.6058 37.6453 38.0552 38.5939 38.5579 39.5195C38.2752 38.3659 38.0936 37.178 37.9071 35.9578C37.7886 35.1829 37.6682 34.3949 37.5186 33.5944C36.6983 29.2051 33.5919 25.8801 31.5346 23.8096ZM36.1936 37.0535C35.9769 36.5955 35.7551 36.1269 35.5206 35.644C33.7942 32.0897 30.5874 28.7727 28.5225 26.7012C26.451 24.6363 23.134 21.4295 19.5797 19.7031C19.0968 19.4686 18.6282 19.2468 18.1702 19.0301C17.1089 18.5279 16.1045 18.0526 15.1121 17.5078L37.7159 40.1116C37.1711 39.1191 36.6958 38.1148 36.1936 37.0535ZM15.6953 20.7988C15.3185 19.9778 14.9528 19.1808 14.5491 18.3907L36.833 40.6746C36.0429 40.2709 35.2459 39.9052 34.4249 39.5284C33.8077 39.2452 33.1768 38.9557 32.5254 38.6392C28.9711 36.9129 25.6541 33.706 23.5826 31.6411C21.5177 29.5696 18.3108 26.2526 16.5844 22.6983C16.268 22.0468 15.9785 21.416 15.6953 20.7988ZM23.1992 32.7041C23.0905 32.5953 22.9771 32.482 22.8596 32.3641C22.7417 32.2466 22.6284 32.1332 22.5196 32.0245L22.4979 32.0028L22.4992 32.0015C20.429 29.9104 17.3712 26.6582 15.6648 23.145C15.3333 22.4627 15.0347 21.8129 14.7464 21.1856L14.7462 21.1852C14.4434 20.5263 14.1519 19.8922 13.8459 19.2712C14.0639 20.2645 14.2195 21.2826 14.3787 22.3243C14.4972 23.0991 14.6177 23.8873 14.7672 24.6877C15.5875 29.0769 18.6939 32.4019 20.7512 34.4725C22.8218 36.5298 26.1468 39.6362 30.536 40.4565C31.3365 40.6061 32.1245 40.7265 32.8994 40.845C33.941 41.0042 34.9593 41.1599 35.9525 41.3778C35.3314 41.0717 34.6973 40.7803 34.0384 40.4774L34.0379 40.4772C33.4107 40.189 32.7609 39.8903 32.0787 39.5589C28.5655 37.8525 25.3133 34.7947 23.2222 32.7245L23.2209 32.7258L23.1992 32.7041Z" fill="#F47C7C"/>
<path fill-rule="evenodd" clip-rule="evenodd" d="M40.7186 44.5603L41.6567 45.4983L41.7772 45.6188L42.5604 44.8355C39.9097 42.1849 39.4714 39.3515 38.9386 35.9078C38.8149 35.1087 38.6862 34.2768 38.5236 33.4066C37.6911 28.9516 34.6855 25.5597 32.6171 23.4501L32.6195 23.4476L32.5947 23.4228C32.487 23.3151 32.3747 23.2028 32.2577 23.0865C32.1414 22.9695 32.0291 22.8572 31.9214 22.7495L31.8965 22.7247L31.8941 22.7271C29.7845 20.6587 26.3926 17.6531 21.9376 16.8206C21.0674 16.658 20.2355 16.5293 19.4364 16.4056C16.0439 15.8808 14.9235 15.0822 12.3023 12.8978L9.66519 13.5068L10.6634 14.505C12.4933 16.8546 12.8847 19.3846 13.3473 22.3745C13.4709 23.1735 13.5996 24.0054 13.7622 24.8755C14.5948 29.3305 17.6003 32.7224 19.6687 34.832L19.6663 34.8344L19.6912 34.8593C19.7988 34.9669 19.9111 35.0793 20.0281 35.1956C20.1444 35.3126 20.2567 35.4249 20.3644 35.5325L20.3893 35.5574L20.3917 35.555C22.5013 37.6234 25.8932 40.6289 30.3482 41.4615C31.2184 41.6241 32.0503 41.7528 32.8494 41.8765C35.8393 42.339 38.3691 42.7304 40.7186 44.5603ZM31.5346 23.8096C29.464 21.7523 26.1391 18.6459 21.7498 17.8256C20.9493 17.676 20.1613 17.5556 19.3864 17.4371C18.2329 17.2608 17.1082 17.0889 16.0141 16.8318C16.8417 17.2689 17.6916 17.6715 18.597 18.1003C19.0576 18.3185 19.5327 18.5436 20.0264 18.7834C23.5395 20.4898 26.7918 23.5476 28.8829 25.6178L28.8842 25.6166L28.904 25.6364C29.0133 25.7457 29.1273 25.8597 29.2455 25.9782C29.364 26.0964 29.478 26.2104 29.5873 26.3197L29.6071 26.3395L29.6059 26.3408C31.6761 28.4319 34.7339 31.6841 36.4403 35.1973C36.6799 35.6905 36.9047 36.1651 37.1227 36.6253L37.1228 36.6257L37.1233 36.6266C37.6058 37.6453 38.0552 38.5939 38.5579 39.5195C38.2752 38.3659 38.0936 37.178 37.9071 35.9578C37.7886 35.1829 37.6682 34.3949 37.5186 33.5944C36.6983 29.2051 33.5919 25.8801 31.5346 23.8096ZM36.1936 37.0535C35.9769 36.5955 35.7551 36.1269 35.5206 35.644C33.7942 32.0897 30.5874 28.7727 28.5225 26.7012C26.451 24.6363 23.134 21.4295 19.5797 19.7031C19.0968 19.4686 18.6282 19.2468 18.1702 19.0301C17.1089 18.5279 16.1045 18.0526 15.1121 17.5078L37.7159 40.1116C37.1711 39.1191 36.6958 38.1148 36.1936 37.0535ZM15.6953 20.7988C15.3185 19.9778 14.9528 19.1808 14.5491 18.3907L36.833 40.6746C36.0429 40.2709 35.2459 39.9052 34.4249 39.5284C33.8077 39.2452 33.1768 38.9557 32.5254 38.6392C28.9711 36.9129 25.6541 33.706 23.5826 31.6411C21.5177 29.5696 18.3108 26.2526 16.5844 22.6983C16.268 22.0468 15.9785 21.416 15.6953 20.7988ZM23.1992 32.7041C23.0905 32.5953 22.9771 32.482 22.8596 32.3641C22.7417 32.2466 22.6284 32.1332 22.5196 32.0245L22.4979 32.0028L22.4992 32.0015C20.429 29.9104 17.3712 26.6582 15.6648 23.145C15.3333 22.4627 15.0347 21.8129 14.7464 21.1856L14.7462 21.1852C14.4434 20.5263 14.1519 19.8922 13.8459 19.2712C14.0639 20.2645 14.2195 21.2826 14.3787 22.3243C14.4972 23.0991 14.6177 23.8873 14.7672 24.6877C15.5875 29.0769 18.6939 32.4019 20.7512 34.4725C22.8218 36.5298 26.1468 39.6362 30.536 40.4565C31.3365 40.6061 32.1245 40.7265 32.8994 40.845C33.941 41.0042 34.9593 41.1599 35.9525 41.3778C35.3314 41.0717 34.6973 40.7803 34.0384 40.4774L34.0379 40.4772C33.4107 40.189 32.7609 39.8903 32.0787 39.5589C28.5655 37.8525 25.3133 34.7947 23.2222 32.7245L23.2209 32.7258L23.1992 32.7041Z" fill="#F47C7C"/>
<path d="M13.0974 16.053C15.8894 18.8449 18.9835 18.7837 22.6732 19.4733C26.6285 20.2124 29.544 23.1279 31.1994 24.7833" stroke="#E25D5D" stroke-width="1.31062"/>
<path d="M13.0471 16.0056C15.8391 18.7976 15.7779 21.8917 16.4674 25.5814C17.2066 29.5367 20.1221 32.4522 21.7775 34.1076" stroke="#E25D5D" stroke-width="1.31062"/>
<path d="M13.0472 16.0035C15.8392 18.7955 16.5585 21.1091 17.9902 24.0567C19.525 27.2164 22.4404 30.1318 24.0958 31.7872" stroke="#E25D5D" stroke-width="1.31062"/>
<path d="M13.0495 16.0033C15.8414 18.7952 18.0563 19.6132 21.0039 21.0449C24.1636 22.5796 27.0791 25.4951 28.7345 27.1505" stroke="#E25D5D" stroke-width="1.31062"/>
<path d="M39.3377 42.2932C36.5457 39.5013 36.6069 36.4072 35.9173 32.7174C35.1782 28.7621 32.2627 25.8467 30.6073 24.1913" stroke="#E25D5D" stroke-width="1.31062"/>
<path d="M13.2441 16.2988L39.1886 42.2433" stroke="#E25D5D" stroke-width="1.31062"/>
<path d="M39.2873 42.2439C36.4954 39.452 33.4013 39.5131 29.7115 38.8236C25.7563 38.0844 22.8408 35.1689 21.1854 33.5135" stroke="#E25D5D" stroke-width="1.31062"/>
<path d="M39.2875 42.2438C36.4955 39.4518 34.1819 38.7325 31.2343 37.3008C28.0746 35.7661 25.1592 32.8506 23.5038 31.1952" stroke="#E25D5D" stroke-width="1.31062"/>
<path d="M39.2877 42.2435C36.4958 39.4516 35.6778 37.2366 34.2461 34.289C32.7114 31.1293 29.7959 28.2139 28.1405 26.5585" stroke="#E25D5D" stroke-width="1.31062"/>
<path d="M12.4145 17.9184C13.832 17.263 14.4873 17.0446 15.5795 15.2971L11.8929 12.1155C11.3953 11.6861 10.6566 11.6916 10.1655 12.1284L9.39057 12.8176C8.83428 13.3124 8.80133 14.1706 9.31805 14.7066L12.4145 17.9184Z" fill="#FEDAB6"/>
<path d="M39.7066 39.9371C38.2891 40.5924 37.6338 40.8109 36.5416 42.5584L40.2282 45.74C40.7258 46.1694 41.4645 46.1639 41.9556 45.7271L42.7305 45.0378C43.2868 44.5431 43.3198 43.6848 42.803 43.1489L39.7066 39.9371Z" fill="#FEDAB6"/>
<path fill-rule="evenodd" clip-rule="evenodd" d="M34.8106 30.4956C30.9783 31.7958 26.8177 29.7432 25.5175 25.9109C24.2173 22.0787 26.2699 17.9181 30.1022 16.6179C33.9344 15.3177 38.095 17.3703 39.3952 21.2025C40.6954 25.0348 38.6428 29.1954 34.8106 30.4956ZM27.4593 25.2521C28.3956 28.0119 31.392 29.4901 34.1518 28.5538C36.9116 27.6175 38.3898 24.6211 37.4534 21.8613C36.5171 19.1015 33.5208 17.6233 30.761 18.5597C28.0012 19.496 26.523 22.4923 27.4593 25.2521Z" fill="#FFA2A2"/>
<path d="M33.4961 26.6213C31.8037 27.1955 29.9662 26.289 29.392 24.5965C28.8177 22.9041 29.7243 21.0666 31.4167 20.4924C33.1092 19.9182 34.9466 20.8247 35.5209 22.5171C36.0951 24.2096 35.1886 26.0471 33.4961 26.6213Z" fill="#EA4747"/>
<path fill-rule="evenodd" clip-rule="evenodd" d="M34.1549 28.5631C31.39 29.5011 28.3882 28.0202 27.4502 25.2553C26.5121 22.4905 27.993 19.4886 30.7579 18.5506C33.5228 17.6125 36.5246 19.0934 37.4627 21.8583C38.4007 24.6232 36.9198 27.625 34.1549 28.5631ZM29.392 24.5965C29.9662 26.289 31.8037 27.1955 33.4961 26.6213C35.1886 26.0471 36.0951 24.2096 35.5209 22.5171C34.9466 20.8247 33.1092 19.9182 31.4167 20.4924C29.7243 21.0666 28.8177 22.9041 29.392 24.5965Z" fill="white"/>
<path d="M37.1966 8.28143L36.2987 13.9424L34.7464 12.2405L33.8324 15.3101L34.0091 9.02653L35.7216 11.2105L37.1966 8.28143Z" fill="#F27373"/>
<path d="M48.9084 22.5842L43.234 21.7758L44.4034 23.7604L41.2008 23.7303L47.258 25.411L45.6749 23.1315L48.9084 22.5842Z" fill="#F27373"/>
</g>
<defs>
<clipPath id="clip0_11560_29017">
<rect width="56" height="56" rx="28" fill="white"/>
</clipPath>
</defs>
</svg>
