<svg width="56" height="56" viewBox="0 0 56 56" fill="none" xmlns="http://www.w3.org/2000/svg">
<g clip-path="url(#clip0_11560_28604)">
<path d="M37.856 37.6143C35.6403 40.8297 30.7136 40.9468 30.7136 40.9468C15.1139 40.9468 15.1139 27.2205 15.1139 27.2205C14.7986 25.3471 16.672 24.4104 16.672 24.4104C21.9377 17.8409 31.2855 14.2617 33.904 6.25996L37.856 -5.81637C37.856 -5.81637 39.3511 -10.2297 34.9378 -17.4531H59.8415C59.8415 -17.4531 58.2383 -10.7971 59.8415 -4.08707C59.8415 -4.08707 65.849 5.10885 60.8413 33.3631L58.8147 42.6671C58.8147 42.6671 57.6979 48.7467 58.6526 52.2683L65.3627 73.7765H27.9215C29.4797 51.6288 28.2097 40.9648 28.2097 40.9648" fill="#FFBF9D"/>
<path d="M37.8557 37.6148C37.5404 38.1823 37.1441 38.7497 36.6307 39.2C36.1354 39.6594 35.5679 40.0557 34.9645 40.3709C33.7486 41.0104 32.4336 41.4157 31.0555 41.5868L30.7853 41.6138C30.7403 41.6138 30.7853 41.6138 30.6592 41.6138H30.5962H30.4701H29.9747L28.993 41.6048L28.0113 41.5778C27.678 41.5508 27.3267 41.4878 26.9845 41.4337L25.9487 41.2806C25.6064 41.2266 25.2552 41.1815 24.9309 41.0644C24.2734 40.8483 23.6069 40.6771 22.9585 40.4159C22.337 40.1097 21.6885 39.8395 21.085 39.4882C20.5176 39.0739 19.9142 38.7137 19.3918 38.2543L18.6262 37.5338C18.365 37.3086 18.1218 37.0474 17.9147 36.7682L17.2662 35.9486C17.059 35.6694 16.8969 35.3631 16.7168 35.0659C16.3295 34.4895 16.0593 33.85 15.7801 33.2195C15.5549 32.571 15.2937 31.9316 15.1496 31.2651C14.9694 30.6076 14.8704 29.9321 14.7893 29.2656C14.7173 28.5901 14.6812 27.9236 14.7173 27.23V27.2931L14.7353 26.7977C14.7353 26.6356 14.7533 26.4735 14.8163 26.3204C14.8704 26.1672 14.9064 26.0141 14.9785 25.87L15.2306 25.4737C15.3117 25.3476 15.4378 25.2485 15.5369 25.1315C15.6359 25.0144 15.762 24.9333 15.8791 24.8432C16.1133 24.6631 16.3745 24.528 16.6447 24.4199C16.4105 24.5911 16.2034 24.7802 16.0232 25.0054C15.9332 25.1134 15.8431 25.2125 15.7801 25.3386C15.717 25.4557 15.6269 25.5638 15.5819 25.6899L15.4468 26.0592C15.4108 26.1852 15.4108 26.3113 15.3928 26.4374C15.3657 26.5545 15.3748 26.6806 15.3928 26.8067L15.4378 27.176V27.239C15.5189 27.8515 15.654 28.482 15.7981 29.1034C15.9512 29.7159 16.1493 30.3194 16.3655 30.9138C16.5546 31.5173 16.8519 32.0757 17.1041 32.6341C17.4283 33.1655 17.6805 33.7329 18.0588 34.2283C18.2389 34.4805 18.401 34.7417 18.5902 34.9759L19.2026 35.6604C19.5719 36.1557 20.0853 36.498 20.5176 36.9303C20.977 37.3266 21.5174 37.6238 22.0127 37.9751C22.5441 38.2723 23.1026 38.5335 23.643 38.8127C24.2104 39.0469 24.8048 39.218 25.3903 39.4252C25.9757 39.6414 26.5792 39.7044 27.1826 39.8575C27.4889 39.9206 27.7771 40.0016 28.0923 40.0467L29.0741 40.1367L30.0468 40.2358L30.5332 40.2898H30.6592L30.7223 40.3079H30.9475C31.5599 40.2899 32.1904 40.2178 32.8029 40.1277C33.4243 40.0287 34.0278 39.8575 34.6312 39.6684C35.2347 39.4792 35.7931 39.191 36.3515 38.8758C36.9009 38.5515 37.3873 38.1282 37.8467 37.6509L37.8557 37.6148Z" fill="#EBA98C"/>
<g style="mix-blend-mode:multiply" opacity="0.6">
<path d="M58.661 52.26C57.7062 48.7383 58.8231 42.6588 58.8231 42.6588L60.8496 33.3548C65.4611 7.37023 60.7505 -2.49219 59.9579 -3.90625C59.8859 -3.85221 59.8138 -3.78015 59.7418 -3.71711C60.075 2.17332 61.5341 8.04574 61.0838 13.9632C60.6605 19.5204 60.1201 25.1136 58.8411 30.5537C57.7513 35.2012 56.2291 40.0378 53.6622 44.1089C51.9959 46.7568 49.8433 49.0356 46.8711 49.8732C49.456 50.6658 52.005 51.2963 53.8513 53.5389C55.7878 55.8987 56.8956 58.7359 57.9314 61.573C58.6159 63.4644 59.1293 65.3558 59.5346 67.3193C59.8589 68.8865 59.8769 70.5257 60.2371 72.0749C60.3722 72.6513 60.5524 73.2097 60.7415 73.7591H65.362L58.652 52.251L58.661 52.26Z" fill="#FADED3"/>
</g>
<path d="M15.5721 30.4806C20.1386 31.6965 21.8949 24.4821 17.7157 23.041C17.3285 23.5364 16.9682 23.9957 16.6349 24.4191C16.6349 24.4191 14.7615 25.3558 15.0768 27.2292C15.0768 27.2292 15.0768 28.6072 15.5721 30.4896V30.4806Z" fill="#EBA98C"/>
<path d="M15.1949 28.2745C16.3568 28.3646 17.3295 27.545 17.5277 26.3741C17.6718 25.5274 17.2305 24.933 16.6901 24.3926C16.6901 24.3926 16.681 24.4016 16.672 24.4106C16.672 24.4106 14.7986 25.3473 15.1139 27.2207C15.1139 27.2207 15.1139 27.626 15.1949 28.2745Z" fill="#DFA186"/>
<g style="mix-blend-mode:multiply" opacity="0.6">
<path d="M35.4136 73.7592C34.1256 72.5613 33.0808 71.0301 32.4503 69.535C30.9102 65.8692 31.3515 61.3839 31.5767 57.511C31.8289 53.2688 32.2252 48.8284 33.7743 44.8384C34.3057 43.4694 35.1253 42.3165 35.963 41.1276C36.4223 40.4791 37.6472 38.966 37.7463 37.8672C35.7108 40.4792 31.4146 41.632 28.2171 40.9835C28.2892 41.659 29.4331 52.3411 27.9199 73.7592H35.4046H35.4136Z" fill="#FADED3"/>
</g>
<g opacity="0.8">
<path d="M42.3615 36.261C40.8464 38.7063 37.4773 38.7954 37.4773 38.7954C26.8096 38.7954 26.8096 28.3566 26.8096 28.3566C26.594 26.9319 27.8751 26.2196 27.8751 26.2196C31.2835 21.4907 37.7868 18.7788 39.4324 13.1867L42.3615 3.23245C42.3615 3.23245 43.3839 -0.123839 40.3659 -5.61719H57.3961C57.3961 -5.61719 56.2997 -0.55536 57.3961 4.54756C57.3961 4.54756 61.5042 11.541 58.0797 33.028L56.6939 40.1036C56.6939 40.1036 55.9302 44.7271 56.5831 47.4053L61.1716 63.762H35.5679C36.6335 46.9189 35.765 38.8091 35.765 38.8091" fill="#FFD1B9"/>
<path d="M42.3619 36.2612C42.1463 36.6927 41.8753 37.1242 41.5242 37.4667C41.1855 37.816 40.7975 38.1174 40.3848 38.3571C39.5533 38.8434 38.6541 39.1517 37.7117 39.2818L37.5269 39.3024C37.4961 39.3024 37.5269 39.3024 37.4407 39.3024H37.3976H37.3114H36.9726L36.3013 39.2955L35.6299 39.275C35.402 39.2544 35.1618 39.2065 34.9278 39.1654L34.2195 39.0489C33.9854 39.0078 33.7452 38.9736 33.5235 38.8845C33.0738 38.7202 32.6181 38.59 32.1746 38.3914C31.7496 38.1585 31.3062 37.953 30.8935 37.6859C30.5055 37.3708 30.0928 37.0968 29.7356 36.7475L29.212 36.1995C29.0334 36.0283 28.8671 35.8296 28.7255 35.6173L28.282 34.994C28.1403 34.7817 28.0295 34.5488 27.9063 34.3227C27.6415 33.8844 27.4567 33.398 27.2657 32.9186C27.1118 32.4254 26.9331 31.9391 26.8346 31.4322C26.7114 30.9322 26.6437 30.4185 26.5882 29.9116C26.539 29.3979 26.5143 28.891 26.539 28.3636V28.4116L26.5513 28.0348C26.5513 27.9116 26.5636 27.7883 26.6067 27.6718C26.6437 27.5554 26.6683 27.4389 26.7176 27.3293L26.89 27.028C26.9455 26.9321 27.0317 26.8567 27.0994 26.7677C27.1672 26.6786 27.2534 26.617 27.3335 26.5485C27.4936 26.4115 27.6722 26.3088 27.857 26.2266C27.6969 26.3567 27.5552 26.5005 27.432 26.6718C27.3705 26.754 27.3089 26.8293 27.2657 26.9252C27.2226 27.0143 27.161 27.0965 27.1302 27.1923L27.0379 27.4732C27.0132 27.5691 27.0132 27.665 27.0009 27.7609C26.9824 27.8499 26.9886 27.9458 27.0009 28.0417L27.0317 28.3225V28.3705C27.0871 28.8362 27.1795 29.3157 27.2781 29.7883C27.3828 30.2541 27.5183 30.713 27.6661 31.1651C27.7954 31.624 27.9987 32.0487 28.1711 32.4734C28.3929 32.8775 28.5653 33.309 28.824 33.6857C28.9472 33.8775 29.0581 34.0762 29.1874 34.2542L29.6062 34.7748C29.8588 35.1515 30.2098 35.4118 30.5055 35.7406C30.8196 36.042 31.1891 36.268 31.5279 36.5351C31.8913 36.7612 32.2732 36.9598 32.6427 37.1722C33.0307 37.3502 33.4372 37.4804 33.8376 37.6379C34.2379 37.8023 34.6506 37.8503 35.0633 37.9667C35.2727 38.0147 35.4698 38.0763 35.6853 38.1105L36.3567 38.179L37.0219 38.2544L37.3545 38.2955H37.4407L37.4838 38.3092H37.6378C38.0566 38.2955 38.4878 38.2407 38.9066 38.1722C39.3316 38.0968 39.7442 37.9667 40.1569 37.8229C40.5696 37.679 40.9514 37.4598 41.3333 37.2201C41.709 36.9735 42.0416 36.6516 42.3557 36.2886L42.3619 36.2612Z" fill="#F4C4AF"/>
<g style="mix-blend-mode:multiply" opacity="0.6">
<path d="M56.5897 47.3994C55.9368 44.7212 56.7006 40.0978 56.7006 40.0978L58.0864 33.0222C61.2399 13.2612 58.0186 5.76093 57.4766 4.68555C57.4274 4.72664 57.3781 4.78144 57.3288 4.82939C57.5567 9.309 58.5545 13.7749 58.2465 18.2751C57.957 22.5012 57.5875 26.7548 56.7129 30.892C55.9676 34.4263 54.9267 38.1045 53.1714 41.2005C52.0319 43.2143 50.5599 44.9473 48.5273 45.5843C50.295 46.187 52.0381 46.6665 53.3007 48.372C54.6249 50.1666 55.3825 52.3242 56.0908 54.4818C56.5589 55.9202 56.91 57.3587 57.1871 58.8519C57.4089 60.0437 57.4212 61.2903 57.6676 62.4684C57.7599 62.9068 57.8831 63.3315 58.0125 63.7493H61.1721L56.5835 47.3925L56.5897 47.3994Z" fill="#FAFAFA"/>
</g>
<path d="M27.1249 30.8374C30.2476 31.7621 31.4487 26.2756 28.5908 25.1797C28.326 25.5564 28.0796 25.9057 27.8517 26.2277C27.8517 26.2277 26.5706 26.94 26.7862 28.3647C26.7862 28.3647 26.7862 29.4127 27.1249 30.8443V30.8374Z" fill="#F4C2AC"/>
<path d="M26.865 29.1592C27.6596 29.2277 28.3248 28.6044 28.4603 27.7139C28.5588 27.0701 28.257 26.618 27.8875 26.207C27.8875 26.207 27.8813 26.2139 27.8751 26.2207C27.8751 26.2207 26.594 26.9331 26.8096 28.3578C26.8096 28.3578 26.8096 28.666 26.865 29.1592Z" fill="#ECAE93"/>
<g style="mix-blend-mode:multiply" opacity="0.6">
<path d="M40.6908 63.7486C39.8101 62.8376 39.0956 61.6732 38.6645 60.5362C37.6113 57.7484 37.9131 54.3373 38.067 51.392C38.2395 48.1659 38.5105 44.789 39.5699 41.7547C39.9333 40.7136 40.4937 39.8368 41.0665 38.9327C41.3807 38.4395 42.2183 37.2888 42.2861 36.4531C40.8941 38.4395 37.9562 39.3162 35.7697 38.8231C35.8189 39.3368 36.6011 47.4604 35.5664 63.7486H40.6847H40.6908Z" fill="#FAFAFA"/>
</g>
</g>
<path fill-rule="evenodd" clip-rule="evenodd" d="M6.35066 31.5295C6.21616 31.2504 6.33343 30.915 6.61258 30.7805L8.87936 29.6884C9.02265 29.6194 9.18851 29.6144 9.33568 29.6747C9.48286 29.735 9.59751 29.855 9.65113 30.0048L9.9897 30.9504L11.7922 29.907C12.0604 29.7517 12.4037 29.8433 12.5589 30.1115C12.7142 30.3797 12.6226 30.7229 12.3544 30.8782L9.96938 32.2588C9.82538 32.3421 9.65166 32.3572 9.49535 32.3C9.33903 32.2427 9.21621 32.119 9.1601 31.9623L8.8048 30.9699L7.09966 31.7914C6.8205 31.926 6.48516 31.8087 6.35066 31.5295Z" fill="#F48B91"/>
<path fill-rule="evenodd" clip-rule="evenodd" d="M11.8449 25.0222C11.7556 25.319 11.4426 25.4871 11.1459 25.3978L8.73652 24.6729C8.58421 24.627 8.45851 24.5187 8.39068 24.3748C8.32286 24.2309 8.31929 24.065 8.38085 23.9184L8.76965 22.9923L6.73556 22.5447C6.43292 22.4781 6.24157 22.1788 6.30814 21.8762C6.37473 21.5736 6.67404 21.3822 6.97667 21.4488L9.66803 22.0409C9.8306 22.0766 9.96893 22.1828 10.0456 22.3306C10.1222 22.4784 10.1293 22.6525 10.0648 22.806L9.65687 23.7779L11.4693 24.3233C11.766 24.4126 11.9342 24.7255 11.8449 25.0222Z" fill="#F48B91"/>
</g>
<defs>
<clipPath id="clip0_11560_28604">
<rect width="56" height="56" rx="28" fill="white"/>
</clipPath>
</defs>
</svg>
