<svg width="56" height="56" viewBox="0 0 56 56" fill="none" xmlns="http://www.w3.org/2000/svg">
<path d="M44.3244 22.577C43.0793 19.7458 39.0298 19.0604 36.585 20.8971C33.5037 23.2118 37.0652 30.4967 41.7445 29.0567C44.5389 28.1968 45.4208 25.0702 44.3244 22.577Z" fill="#F27373"/>
<path d="M20.1961 33.878C18.7627 35.3114 15.645 36.0177 14.2117 34.5843C12.7783 33.151 12.163 29.7316 13.5963 28.2982C15.0297 26.8649 18.0961 25.8383 20.1961 27.9382C21.6294 29.3716 21.6294 32.4447 20.1961 33.878Z" fill="#F27373"/>
<path d="M30.0326 14.9187C34.4965 14.9667 36.0124 19.2185 36.2124 21.3384C36.5966 25.3703 34.5922 27.3348 33.1523 27.9382C29.7898 29.3472 27.0927 26.0183 25.7128 22.2984C24.3328 18.5785 24.4528 14.8587 30.0326 14.9187Z" fill="#F27373"/>
<path d="M23.3715 28.2229C22.4058 29.1886 20.6204 29.1886 19.6547 28.2229C18.6891 27.2572 17.9594 25.4293 18.925 24.4636C19.8907 23.4979 21.9567 22.8063 23.3715 24.2211C24.3372 25.1868 24.3372 27.2572 23.3715 28.2229Z" fill="#F27373"/>
<path d="M37.4714 34.8384C38.4793 29.3666 31.4516 29.8786 27.8117 30.8186C22.7719 32.1985 21.272 37.6583 25.8318 40.1782C30.3916 42.6981 36.2114 41.6781 37.4714 34.8384Z" fill="#F27373"/>
</svg>
