<svg width="56" height="56" viewBox="0 0 56 56" fill="none" xmlns="http://www.w3.org/2000/svg">
<path d="M48.3832 27.9992C48.3832 39.257 39.257 48.3832 27.9992 48.3832C16.7415 48.3832 7.61523 39.257 7.61523 27.9992C7.61523 16.7415 16.7415 7.61523 27.9992 7.61523C39.257 7.61523 48.3832 16.7415 48.3832 27.9992Z" fill="url(#paint0_radial_11560_28580)"/>
<ellipse cx="37.4678" cy="30.4888" rx="2.85261" ry="1.42631" fill="#F7AAAC"/>
<ellipse cx="18.3116" cy="30.4888" rx="2.85261" ry="1.42631" fill="#F7AAAC"/>
<path d="M31.5488 24.2676C31.5488 24.2676 32.9384 26.1342 34.6525 26.1342C36.3666 26.1342 37.7561 24.2676 37.7561 24.2676" stroke="#334155" stroke-width="1.225" stroke-linecap="round" stroke-linejoin="round"/>
<path d="M18.2461 24.2676C18.2461 24.2676 19.6356 26.1342 21.3497 26.1342C23.0638 26.1342 24.4534 24.2676 24.4534 24.2676" stroke="#334155" stroke-width="1.225" stroke-linecap="round" stroke-linejoin="round"/>
<ellipse cx="27.9997" cy="36.633" rx="2.39428" ry="2.69356" fill="#334155"/>
<path fill-rule="evenodd" clip-rule="evenodd" d="M42.0329 9.11528C42.0896 9.19565 42.0876 9.2136 41.9701 9.68357C41.6351 11.0237 41.7929 12.1985 42.4766 13.4543C42.5923 13.6667 42.7785 13.9803 42.8904 14.1511C43.9248 15.73 44.2534 16.387 44.3887 17.1463C44.4514 17.498 44.4375 18.1217 44.3595 18.4532C44.0539 19.7533 43.0597 20.7608 41.7075 21.1407C40.3192 21.5308 38.8869 21.187 37.8452 20.2138C37.2759 19.6819 36.9026 18.9768 36.7801 18.2019C36.5262 16.5958 37.5498 14.2583 39.7443 11.4327C40.5158 10.4394 41.6973 9.0946 41.8266 9.0626C41.938 9.03504 41.9847 9.04699 42.0329 9.11528ZM37.9415 14.9956C38.292 14.3199 38.6061 13.9847 38.9628 13.9061C39.2342 13.8463 39.6159 14.0386 39.7162 14.2859C39.7607 14.3955 39.7552 14.6242 39.7028 14.8458C39.6387 15.1165 39.6441 15.3522 39.7172 15.4635C39.7991 15.5883 40.0037 15.7205 40.1907 15.7697C40.3876 15.8214 40.6146 15.8276 41.2661 15.799C41.824 15.7745 42.004 15.794 42.2406 15.9046C42.4493 16.002 42.6404 16.2091 42.7888 16.4986C43.0158 16.9412 43.0612 17.1725 43.0232 17.6919L43.0095 17.8787L43.1535 18.0277C43.5169 18.4036 43.6381 18.9844 43.438 19.3905C43.1861 19.9017 42.533 20.457 41.9123 20.6876C41.4905 20.8444 41.2692 20.883 40.7744 20.8863C40.2726 20.8896 40.021 20.8529 39.5198 20.7033C38.543 20.4117 37.7522 19.7429 37.3941 18.9056C36.9713 17.9169 37.1728 16.4779 37.9415 14.9956Z" fill="#77B3E3"/>
<path d="M38.9628 13.9061C38.6061 13.9847 38.292 14.3199 37.9415 14.9956C37.1728 16.4779 36.9713 17.9169 37.3941 18.9056C37.7522 19.7429 38.543 20.4117 39.5198 20.7033C40.021 20.8529 40.2726 20.8896 40.7744 20.8863C41.2692 20.883 41.4905 20.8444 41.9123 20.6876C42.533 20.457 43.1861 19.9017 43.438 19.3905C43.6381 18.9844 43.5169 18.4036 43.1535 18.0277L43.0095 17.8787L43.0232 17.6919C43.0612 17.1725 43.0158 16.9412 42.7888 16.4986C42.6404 16.2091 42.4493 16.002 42.2406 15.9046C42.004 15.794 41.824 15.7745 41.2661 15.799C40.6146 15.8276 40.3876 15.8214 40.1907 15.7697C40.0037 15.7205 39.7991 15.5883 39.7172 15.4635C39.6441 15.3522 39.6387 15.1165 39.7028 14.8458C39.7552 14.6242 39.7607 14.3955 39.7162 14.2859C39.6159 14.0386 39.2342 13.8463 38.9628 13.9061Z" fill="#77B3E3"/>
<path fill-rule="evenodd" clip-rule="evenodd" d="M13.5869 33.7687C13.6312 33.8315 13.6297 33.8455 13.5379 34.2125C13.2763 35.2591 13.3995 36.1766 13.9335 37.1573C14.0238 37.3232 14.1692 37.5681 14.2566 37.7015C15.0644 38.9345 15.321 39.4476 15.4267 40.0406C15.4757 40.3153 15.4648 40.8023 15.4039 41.0613C15.1652 42.0765 14.3888 42.8633 13.3328 43.1601C12.2486 43.4647 11.13 43.1963 10.3165 42.4362C9.87189 42.0208 9.58039 41.4702 9.48472 40.865C9.28642 39.6107 10.0858 37.7852 11.7996 35.5785C12.4021 34.8028 13.3248 33.7525 13.4258 33.7276C13.5128 33.706 13.5493 33.7154 13.5869 33.7687ZM10.3917 38.361C10.6654 37.8333 10.9107 37.5715 11.1893 37.5101C11.4013 37.4634 11.6993 37.6136 11.7777 37.8067C11.8124 37.8924 11.8081 38.071 11.7672 38.244C11.7171 38.4554 11.7214 38.6395 11.7784 38.7264C11.8424 38.8238 12.0022 38.9271 12.1482 38.9655C12.302 39.0059 12.4793 39.0107 12.9881 38.9884C13.4238 38.9693 13.5643 38.9845 13.7492 39.0708C13.9121 39.147 14.0613 39.3086 14.1773 39.5348C14.3545 39.8804 14.39 40.0611 14.3603 40.4667L14.3496 40.6126L14.4621 40.729C14.7459 41.0225 14.8405 41.4761 14.6842 41.7932C14.4875 42.1925 13.9774 42.6261 13.4927 42.8062C13.1633 42.9287 12.9905 42.9588 12.6041 42.9614C12.2122 42.9639 12.0157 42.9353 11.6243 42.8185C10.8614 42.5908 10.2439 42.0685 9.96421 41.4146C9.63402 40.6424 9.79136 39.5186 10.3917 38.361Z" fill="#77B3E3"/>
<path d="M11.1893 37.5101C10.9107 37.5715 10.6654 37.8333 10.3917 38.361C9.79136 39.5186 9.63402 40.6424 9.96421 41.4146C10.2439 42.0685 10.8614 42.5908 11.6243 42.8185C12.0157 42.9353 12.2122 42.9639 12.6041 42.9614C12.9905 42.9588 13.1633 42.9287 13.4927 42.8062C13.9774 42.6261 14.4875 42.1925 14.6842 41.7932C14.8405 41.4761 14.7459 41.0225 14.4621 40.729L14.3496 40.6126L14.3603 40.4667C14.39 40.0611 14.3545 39.8804 14.1773 39.5348C14.0613 39.3086 13.9121 39.147 13.7492 39.0708C13.5643 38.9845 13.4238 38.9693 12.9881 38.9884C12.4793 39.0107 12.302 39.0059 12.1482 38.9655C12.0022 38.9271 11.8424 38.8238 11.7784 38.7264C11.7214 38.6395 11.7171 38.4554 11.7672 38.244C11.8081 38.071 11.8124 37.8924 11.7777 37.8067C11.6993 37.6136 11.4013 37.4634 11.1893 37.5101Z" fill="#77B3E3"/>
<path fill-rule="evenodd" clip-rule="evenodd" d="M46.5149 29.5243C46.5372 29.556 46.5364 29.563 46.4901 29.7484C46.3579 30.2771 46.4202 30.7406 46.6899 31.236C46.7355 31.3197 46.809 31.4434 46.8531 31.5108C47.2612 32.1337 47.3908 32.3928 47.4442 32.6924C47.4689 32.8312 47.4634 33.0772 47.4327 33.208C47.3121 33.7208 46.9199 34.1183 46.3865 34.2681C45.8388 34.422 45.2738 34.2864 44.8629 33.9025C44.6383 33.6927 44.491 33.4145 44.4427 33.1088C44.3425 32.4752 44.7463 31.5531 45.612 30.4385C45.9164 30.0466 46.3825 29.5161 46.4335 29.5035C46.4774 29.4926 46.4959 29.4973 46.5149 29.5243ZM44.9009 31.844C45.0391 31.5774 45.163 31.4452 45.3037 31.4142C45.4108 31.3906 45.5614 31.4665 45.601 31.564C45.6185 31.6073 45.6163 31.6975 45.5957 31.7849C45.5704 31.8917 45.5725 31.9847 45.6013 32.0286C45.6336 32.0778 45.7143 32.13 45.7881 32.1493C45.8658 32.1697 45.9553 32.1722 46.2124 32.1609C46.4325 32.1512 46.5034 32.1589 46.5968 32.2025C46.6791 32.241 46.7545 32.3227 46.8131 32.4369C46.9026 32.6115 46.9205 32.7027 46.9055 32.9076L46.9001 32.9813L46.9569 33.0401C47.1003 33.1884 47.1481 33.4175 47.0691 33.5777C46.9698 33.7794 46.7121 33.9984 46.4673 34.0894C46.3009 34.1512 46.2136 34.1665 46.0184 34.1678C45.8204 34.1691 45.7212 34.1546 45.5235 34.0956C45.1381 33.9806 44.8262 33.7167 44.6849 33.3864C44.5181 32.9964 44.5976 32.4287 44.9009 31.844Z" fill="#77B3E3"/>
<path d="M45.3037 31.4142C45.163 31.4452 45.0391 31.5774 44.9009 31.844C44.5976 32.4287 44.5181 32.9964 44.6849 33.3864C44.8262 33.7167 45.1381 33.9806 45.5235 34.0956C45.7212 34.1546 45.8204 34.1691 46.0184 34.1678C46.2136 34.1665 46.3009 34.1512 46.4673 34.0894C46.7121 33.9984 46.9698 33.7794 47.0691 33.5777C47.1481 33.4175 47.1003 33.1884 46.9569 33.0401L46.9001 32.9813L46.9055 32.9076C46.9205 32.7027 46.9026 32.6115 46.8131 32.4369C46.7545 32.3227 46.6791 32.241 46.5968 32.2025C46.5034 32.1589 46.4325 32.1512 46.2124 32.1609C45.9553 32.1722 45.8658 32.1697 45.7881 32.1493C45.7143 32.13 45.6336 32.0778 45.6013 32.0286C45.5725 31.9847 45.5704 31.8917 45.5957 31.7849C45.6163 31.6975 45.6185 31.6073 45.601 31.564C45.5614 31.4665 45.4108 31.3906 45.3037 31.4142Z" fill="#77B3E3"/>
<path fill-rule="evenodd" clip-rule="evenodd" d="M18.8137 16.4911C18.8361 16.5228 18.8353 16.5298 18.7889 16.7152C18.6568 17.2439 18.719 17.7074 18.9887 18.2028C19.0344 18.2865 19.1078 18.4102 19.152 18.4776C19.56 19.1005 19.6896 19.3596 19.743 19.6592C19.7678 19.798 19.7623 20.044 19.7315 20.1748C19.6109 20.6876 19.2187 21.0851 18.6853 21.2349C18.1376 21.3888 17.5726 21.2532 17.1617 20.8693C16.9371 20.6595 16.7899 20.3813 16.7415 20.0756C16.6414 19.442 17.0452 18.5199 17.9109 17.4053C18.2152 17.0134 18.6813 16.4829 18.7323 16.4703C18.7763 16.4594 18.7947 16.4641 18.8137 16.4911ZM17.1997 18.8108C17.3379 18.5442 17.4619 18.412 17.6026 18.381C17.7096 18.3574 17.8602 18.4332 17.8998 18.5308C17.9173 18.5741 17.9152 18.6643 17.8945 18.7517C17.8692 18.8585 17.8714 18.9515 17.9002 18.9954C17.9325 19.0446 18.0132 19.0968 18.087 19.1161C18.1646 19.1365 18.2542 19.139 18.5112 19.1277C18.7313 19.118 18.8023 19.1257 18.8956 19.1693C18.978 19.2078 19.0533 19.2895 19.1119 19.4037C19.2014 19.5783 19.2193 19.6695 19.2043 19.8744L19.1989 19.9481L19.2558 20.0069C19.3991 20.1552 19.4469 20.3843 19.368 20.5445C19.2686 20.7462 19.0109 20.9652 18.7661 21.0562C18.5997 21.118 18.5124 21.1333 18.3172 21.1346C18.1193 21.1359 18.02 21.1214 17.8223 21.0624C17.437 20.9474 17.125 20.6835 16.9837 20.3532C16.817 19.9632 16.8964 19.3955 17.1997 18.8108Z" fill="#77B3E3"/>
<path d="M17.6026 18.381C17.4619 18.412 17.3379 18.5442 17.1997 18.8108C16.8964 19.3955 16.817 19.9632 16.9837 20.3532C17.125 20.6835 17.437 20.9474 17.8223 21.0624C18.02 21.1214 18.1193 21.1359 18.3172 21.1346C18.5124 21.1333 18.5997 21.118 18.7661 21.0562C19.0109 20.9652 19.2686 20.7462 19.368 20.5445C19.4469 20.3843 19.3991 20.1552 19.2558 20.0069L19.1989 19.9481L19.2043 19.8744C19.2193 19.6695 19.2014 19.5783 19.1119 19.4037C19.0533 19.2895 18.978 19.2078 18.8956 19.1693C18.8023 19.1257 18.7313 19.118 18.5112 19.1277C18.2542 19.139 18.1646 19.1365 18.087 19.1161C18.0132 19.0968 17.9325 19.0446 17.9002 18.9954C17.8714 18.9515 17.8692 18.8585 17.8945 18.7517C17.9152 18.6643 17.9173 18.5741 17.8998 18.5308C17.8602 18.4332 17.7096 18.3574 17.6026 18.381Z" fill="#77B3E3"/>
<defs>
<radialGradient id="paint0_radial_11560_28580" cx="0" cy="0" r="1" gradientUnits="userSpaceOnUse" gradientTransform="translate(27.9992 -1.12077) rotate(90) scale(67.2)">
<stop stop-color="#FFE3A3" stop-opacity="0.78"/>
<stop offset="1" stop-color="#FFBB67"/>
</radialGradient>
</defs>
</svg>
