<svg width="56" height="56" viewBox="0 0 56 56" fill="none" xmlns="http://www.w3.org/2000/svg">
<g clip-path="url(#clip0_16150_25649)">
<rect width="56" height="56" rx="28" fill="white"/>
<path d="M11.8983 30.1393C6.23379 31.9777 -3.36719 30.1393 -3.36719 30.1393V72.647H59.1661V30.1393C59.1661 30.1393 49.0839 32.1215 43.165 30.1393C34.9868 27.4005 34.3989 21.1548 27.5316 21.1548C20.6644 21.1548 20.1022 27.4768 11.8983 30.1393Z" fill="#FFBF9D"/>
<path fill-rule="evenodd" clip-rule="evenodd" d="M22.3766 31.4228C21.17 33.9426 20.666 36.4571 20.666 38.2896C20.666 42.1209 23.6993 44.4847 27.6288 44.4847V44.4881C31.866 44.4881 34.666 42.1381 34.666 38.2896C34.666 36.4571 34.162 33.9459 32.9554 31.4261C31.7626 28.935 30.9697 26.4353 30.9327 24.5873C30.8806 21.9869 28.8294 21.2439 27.7032 21.1626V21.1548C27.6818 21.1558 27.6602 21.1571 27.6384 21.1586C27.6352 21.1584 27.632 21.1582 27.6288 21.1581V21.1592C26.5026 21.2406 24.2181 21.9869 24.166 24.5873C24.129 26.4353 23.5694 28.9317 22.3766 31.4228Z" fill="#A16751"/>
<rect x="27.0273" y="8.83447" width="1.86959" height="6.8941" rx="0.934793" fill="#F27373"/>
<rect x="19.666" y="10.938" width="1.86959" height="6.8941" rx="0.934793" transform="rotate(-30 19.666 10.938)" fill="#F27373"/>
<rect width="1.86959" height="6.8941" rx="0.934793" transform="matrix(-0.866025 -0.5 -0.5 0.866025 36.3008 10.938)" fill="#F27373"/>
</g>
<rect x="0.35" y="0.35" width="55.3" height="55.3" rx="27.65" stroke="#EFEFEF" stroke-width="0.7"/>
<defs>
<clipPath id="clip0_16150_25649">
<rect width="56" height="56" rx="28" fill="white"/>
</clipPath>
</defs>
</svg>
