<svg width="56" height="56" viewBox="0 0 56 56" fill="none" xmlns="http://www.w3.org/2000/svg">
<g clip-path="url(#clip0_11560_29002)">
<path d="M44.372 39.3401C41.714 43.1974 35.8037 43.3379 35.8037 43.3379C17.0898 43.3379 17.0898 26.8713 17.0898 26.8713C16.7116 24.6239 18.959 23.5002 18.959 23.5002C25.2759 15.6193 36.4898 11.3256 39.6311 1.72634L44.372 -12.7608C44.372 -12.7608 46.1656 -18.0552 40.8712 -26.7207H70.7466C70.7466 -26.7207 68.8233 -18.7359 70.7466 -10.6863C70.7466 -10.6863 77.9534 0.345438 71.9459 34.2402L69.5149 45.4016C69.5149 45.4016 68.1751 52.6949 69.3204 56.9196L77.37 82.7216H32.4542C34.3235 56.1524 32.8 43.3595 32.8 43.3595" fill="#FFBF9D"/>
<path d="M44.3722 39.3408C43.9941 40.0215 43.5187 40.7022 42.9028 41.2425C42.3085 41.7935 41.6278 42.2689 40.9039 42.6471C39.4452 43.4142 37.8677 43.9005 36.2146 44.1057L35.8905 44.1382C35.8364 44.1382 35.8905 44.1382 35.7392 44.1382H35.6635H35.5123H34.918L33.7403 44.1274L32.5626 44.0949C32.1628 44.0625 31.7414 43.9869 31.3308 43.9221L30.0883 43.7384C29.6777 43.6735 29.2563 43.6195 28.8673 43.4791C28.0785 43.2197 27.279 43.0145 26.501 42.7011C25.7555 42.3337 24.9776 42.0096 24.2536 41.5882C23.5729 41.0912 22.849 40.659 22.2223 40.108L21.3039 39.2436C20.9906 38.9734 20.6988 38.6601 20.4503 38.3252L19.6724 37.3419C19.4239 37.007 19.2294 36.6396 19.0133 36.283C18.5487 35.5915 18.2245 34.8244 17.8896 34.068C17.6195 33.2901 17.3061 32.523 17.1332 31.7234C16.9171 30.9346 16.7983 30.1243 16.7011 29.3247C16.6146 28.5144 16.5714 27.7148 16.6146 26.8828V26.9585L16.6362 26.3642C16.6362 26.1697 16.6578 25.9752 16.7335 25.7915C16.7983 25.6079 16.8415 25.4242 16.928 25.2513L17.2305 24.7759C17.3277 24.6246 17.479 24.5058 17.5979 24.3653C17.7167 24.2248 17.868 24.1276 18.0084 24.0195C18.2894 23.8034 18.6027 23.6414 18.9268 23.5117C18.6459 23.717 18.3974 23.9439 18.1813 24.214C18.0733 24.3437 17.9652 24.4625 17.8896 24.6138C17.8139 24.7543 17.7059 24.8839 17.6519 25.0352L17.4898 25.4782C17.4466 25.6295 17.4466 25.7807 17.425 25.932C17.3926 26.0725 17.4034 26.2237 17.425 26.375L17.479 26.818V26.8936C17.5762 27.6284 17.7383 28.3847 17.9112 29.1302C18.0949 29.865 18.3326 30.5889 18.5919 31.302C18.8188 32.0259 19.1754 32.6958 19.4779 33.3657C19.8669 34.0032 20.1694 34.6839 20.6232 35.2782C20.8393 35.5807 21.0338 35.8941 21.2607 36.175L21.9954 36.9962C22.4384 37.5904 23.0543 38.001 23.5729 38.5196C24.124 38.9951 24.7723 39.3516 25.3665 39.773C26.004 40.1296 26.6739 40.4429 27.3222 40.7779C28.0029 41.0588 28.716 41.2641 29.4184 41.5126C30.1207 41.7719 30.8446 41.8475 31.5685 42.0312C31.9359 42.1069 32.2816 42.2041 32.6598 42.2581L33.8375 42.3662L35.0045 42.485L35.5879 42.5498H35.7392L35.8148 42.5715H36.0849C36.8197 42.5499 37.576 42.4634 38.3107 42.3554C39.0563 42.2365 39.7802 42.0312 40.5041 41.8043C41.228 41.5774 41.8979 41.2317 42.5678 40.8535C43.2269 40.4645 43.8104 39.9567 44.3615 39.384L44.3722 39.3408Z" fill="#EBA98C"/>
<g style="mix-blend-mode:multiply" opacity="0.6">
<path d="M69.333 56.9083C68.1877 52.6836 69.5275 45.3903 69.5275 45.3903L71.9586 34.2289C77.4906 3.05696 71.8397 -8.77434 70.8889 -10.4707C70.8024 -10.4059 70.716 -10.3194 70.6296 -10.2438C71.0294 -3.17743 72.7797 3.86732 72.2395 10.9661C71.7317 17.6327 71.0834 24.3425 69.5491 30.8686C68.2417 36.4439 66.4157 42.2461 63.3363 47.1299C61.3374 50.3065 58.7551 53.0402 55.1895 54.045C58.2904 54.9958 61.3482 55.7522 63.5632 58.4426C65.8862 61.2734 67.2152 64.677 68.4578 68.0805C69.279 70.3495 69.8948 72.6185 70.3811 74.974C70.77 76.854 70.7916 78.8205 71.2238 80.6789C71.3859 81.3705 71.602 82.0403 71.8289 82.6994H77.3718L69.3222 56.8975L69.333 56.9083Z" fill="#FADED3"/>
</g>
<path d="M17.4849 30.6939C22.9068 32.3491 25.3244 23.776 20.3765 21.8676C19.8908 22.4448 19.439 22.9799 19.0212 23.473C19.0212 23.473 16.7347 24.5149 17.0316 26.7745C17.0316 26.7745 16.972 28.4266 17.4845 30.7047L17.4849 30.6939Z" fill="#EBA98C"/>
<path d="M17.189 28.1354C18.5828 28.2435 19.7497 27.2602 19.9874 25.8556C20.1603 24.8399 19.6308 24.1268 18.9826 23.4785C18.9826 23.4785 18.9718 23.4893 18.9609 23.5001C18.9609 23.5001 16.7135 24.6238 17.0917 26.8712C17.0917 26.8712 17.0917 27.3575 17.189 28.1354Z" fill="#DD9B7E"/>
<g style="mix-blend-mode:multiply" opacity="0.6">
<path d="M41.4447 82.6999C39.8996 81.2628 38.6463 79.426 37.8899 77.6324C36.0423 73.2348 36.5717 67.854 36.8418 63.2079C37.1444 58.1189 37.6198 52.7921 39.4782 48.0055C40.1157 46.3632 41.099 44.9802 42.1038 43.5539C42.6549 42.776 44.1243 40.9608 44.2432 39.6426C41.8013 42.776 36.6474 44.159 32.8116 43.3811C32.8981 44.1914 34.2703 57.0059 32.4551 82.6999H41.4339H41.4447Z" fill="#FADED3"/>
</g>
<path fill-rule="evenodd" clip-rule="evenodd" d="M14.2156 29.0932C14.3673 29.4628 14.1906 29.8854 13.821 30.0371L10.8202 31.2688C10.6304 31.3466 10.4167 31.3403 10.2318 31.2514C10.0471 31.1625 9.90875 30.9993 9.85122 30.8025L9.48803 29.5596L7.08825 30.764C6.73125 30.9433 6.29653 30.7991 6.11729 30.4421C5.93814 30.0851 6.08227 29.6503 6.43927 29.4711L9.61445 27.8774C9.80621 27.7811 10.031 27.775 10.2277 27.8606C10.4245 27.9464 10.573 28.1149 10.6332 28.321L11.0144 29.6252L13.2718 28.6988C13.6414 28.5471 14.0639 28.7237 14.2156 29.0932Z" fill="#F27373"/>
<path fill-rule="evenodd" clip-rule="evenodd" d="M6.55863 18.9289C6.63876 18.5375 7.02106 18.2852 7.41244 18.3653L10.5903 19.016C10.7912 19.0572 10.9651 19.1816 11.069 19.3585C11.1728 19.5353 11.1966 19.7479 11.1346 19.9434L10.7431 21.1777L13.4068 21.5158C13.8032 21.5661 14.0836 21.9281 14.0334 22.3245C13.983 22.7207 13.621 23.0012 13.2247 22.951L9.70028 22.5036C9.48739 22.4766 9.29743 22.3564 9.18187 22.1756C9.06631 21.9947 9.03697 21.7719 9.10189 21.5674L9.51265 20.2721L7.12216 19.7826C6.73078 19.7024 6.4785 19.3202 6.55863 18.9289Z" fill="#F27373"/>
</g>
<defs>
<clipPath id="clip0_11560_29002">
<rect width="56" height="56" rx="28" fill="white"/>
</clipPath>
</defs>
</svg>
