<svg width="56" height="56" viewBox="0 0 56 56" fill="none" xmlns="http://www.w3.org/2000/svg">
<path d="M48.3832 27.9992C48.3832 39.257 39.257 48.3832 27.9992 48.3832C16.7415 48.3832 7.61523 39.257 7.61523 27.9992C7.61523 16.7415 16.7415 7.61523 27.9992 7.61523C39.257 7.61523 48.3832 16.7415 48.3832 27.9992Z" fill="url(#paint0_radial_11560_28962)"/>
<g filter="url(#filter0_f_11560_28962)">
<ellipse cx="4.28079" cy="3.87119" rx="4.28079" ry="3.87119" transform="matrix(0.635384 -0.772196 0.635384 0.772196 35.1758 34.2637)" fill="#F27373"/>
</g>
<g filter="url(#filter1_f_11560_28962)">
<ellipse cx="4.01338" cy="3.62936" rx="4.01338" ry="3.62936" transform="matrix(0.635384 -0.772196 0.635384 0.772196 11.3945 33.9453)" fill="#F27373"/>
</g>
<ellipse cx="28.2936" cy="35.8344" rx="5.48887" ry="3.3031" fill="#354356"/>
<path d="M31.356 43.4713C31.2169 41.3635 31.6113 37.6977 31.8788 35.3194C31.9313 34.8524 31.7792 34.3852 31.3539 34.1855C30.8104 33.9302 29.8397 33.6484 28.2028 33.6484C27.3089 33.6484 26.3517 33.8373 25.6732 34.0066C25.0949 34.1509 24.6637 34.6167 24.5427 35.2003C23.8051 38.7597 23.4397 44.2671 26.5824 45.0485C30.0154 45.902 31.1952 44.3527 31.356 43.4713Z" fill="url(#paint1_linear_11560_28962)"/>
<g filter="url(#filter2_f_11560_28962)">
<path d="M30.3946 42.3273C30.2953 40.8225 30.5769 38.2054 30.7678 36.5074C30.8053 36.174 30.6967 35.8405 30.3931 35.6979C30.0051 35.5156 29.3121 35.3145 28.1434 35.3145C27.6114 35.3145 26.8984 35.4548 26.3766 35.5775C25.9437 35.6793 25.6125 36.0218 25.5231 36.4574C25.0014 38.9995 24.7531 42.8981 26.9865 43.4534C29.4375 44.0627 30.2798 42.9566 30.3946 42.3273Z" fill="#F3AEBD"/>
</g>
<path fill-rule="evenodd" clip-rule="evenodd" d="M12.5782 31.6099C12.6287 31.6815 12.6269 31.6975 12.5223 32.116C12.224 33.3093 12.3645 34.3553 12.9733 35.4735C13.0763 35.6626 13.242 35.9419 13.3417 36.094C14.2627 37.4999 14.5553 38.0848 14.6758 38.761C14.7317 39.0742 14.7192 39.6295 14.6498 39.9247C14.3777 41.0823 13.4924 41.9794 12.2884 42.3177C11.0522 42.665 9.77688 42.3589 8.84932 41.4923C8.34242 41.0188 8.01006 40.3909 7.90098 39.7009C7.67489 38.2708 8.58631 36.1894 10.5403 33.6735C11.2273 32.789 12.2793 31.5915 12.3945 31.563C12.4937 31.5385 12.5353 31.5491 12.5782 31.6099ZM8.93511 36.8459C9.24716 36.2442 9.52688 35.9458 9.84449 35.8758C10.0862 35.8225 10.426 35.9938 10.5153 36.214C10.555 36.3116 10.5501 36.5153 10.5034 36.7125C10.4463 36.9536 10.4512 37.1635 10.5162 37.2626C10.5891 37.3736 10.7713 37.4914 10.9378 37.5352C11.1132 37.5812 11.3153 37.5868 11.8954 37.5613C12.3922 37.5395 12.5524 37.5568 12.7631 37.6553C12.949 37.7421 13.1191 37.9264 13.2513 38.1843C13.4533 38.5784 13.4938 38.7843 13.4599 39.2468L13.4477 39.4131L13.576 39.5458C13.8996 39.8805 14.0075 40.3976 13.8293 40.7592C13.605 41.2144 13.0234 41.7089 12.4708 41.9142C12.0952 42.0538 11.8982 42.0882 11.4576 42.0911C11.0107 42.0941 10.7867 42.0614 10.3404 41.9282C9.47066 41.6686 8.76652 41.0731 8.44768 40.3275C8.07121 39.4471 8.2506 38.1658 8.93511 36.8459Z" fill="#77B3E3"/>
<path d="M9.84449 35.8758C9.52688 35.9458 9.24716 36.2442 8.93511 36.8459C8.2506 38.1658 8.07121 39.4471 8.44768 40.3275C8.76652 41.0731 9.47066 41.6686 10.3404 41.9282C10.7867 42.0614 11.0107 42.0941 11.4576 42.0911C11.8982 42.0882 12.0952 42.0538 12.4708 41.9142C13.0234 41.7089 13.605 41.2144 13.8293 40.7592C14.0075 40.3976 13.8996 39.8805 13.576 39.5458L13.4477 39.4131L13.4599 39.2468C13.4938 38.7843 13.4533 38.5784 13.2513 38.1843C13.1191 37.9264 12.949 37.7421 12.7631 37.6553C12.5524 37.5568 12.3922 37.5395 11.8954 37.5613C11.3153 37.5868 11.1132 37.5812 10.9378 37.5352C10.7713 37.4914 10.5891 37.3736 10.5162 37.2626C10.4512 37.1635 10.4463 36.9536 10.5034 36.7125C10.5501 36.5153 10.555 36.3116 10.5153 36.214C10.426 35.9938 10.0862 35.8225 9.84449 35.8758Z" fill="#77B3E3"/>
<circle cx="35.7711" cy="25.0914" r="1.3043" fill="#334155" stroke="#334155" stroke-width="0.874992"/>
<circle cx="19.9039" cy="25.0914" r="1.3043" fill="#334155" stroke="#334155" stroke-width="0.874992"/>
<path d="M15.9355 22.0707C17.6339 22.1387 21.1937 21.6224 21.8458 19.0137" stroke="#334155" stroke-width="0.874992" stroke-linecap="round" stroke-linejoin="round"/>
<path d="M38.9668 21.6645C37.2684 21.7324 33.7087 21.2161 33.0565 18.6074" stroke="#334155" stroke-width="0.874992" stroke-linecap="round" stroke-linejoin="round"/>
<path d="M38.3269 27.6523V27.6523C37.0404 28.9389 34.9545 28.9389 33.668 27.6523V27.6523" stroke="#334155" stroke-width="0.97061" stroke-linecap="round" stroke-linejoin="round"/>
<path d="M22.4754 27.6523V27.6523C21.1888 28.9389 19.1029 28.9389 17.8164 27.6523V27.6523" stroke="#334155" stroke-width="0.97061" stroke-linecap="round" stroke-linejoin="round"/>
<defs>
<filter id="filter0_f_11560_28962" x="29.4588" y="22.2615" width="21.7934" height="23.3715" filterUnits="userSpaceOnUse" color-interpolation-filters="sRGB">
<feFlood flood-opacity="0" result="BackgroundImageFix"/>
<feBlend mode="normal" in="SourceGraphic" in2="BackgroundImageFix" result="shape"/>
<feGaussianBlur stdDeviation="3.61436" result="effect1_foregroundBlur_11560_28962"/>
</filter>
<filter id="filter1_f_11560_28962" x="6.03535" y="22.6936" width="20.4313" height="21.9117" filterUnits="userSpaceOnUse" color-interpolation-filters="sRGB">
<feFlood flood-opacity="0" result="BackgroundImageFix"/>
<feBlend mode="normal" in="SourceGraphic" in2="BackgroundImageFix" result="shape"/>
<feGaussianBlur stdDeviation="3.38858" result="effect1_foregroundBlur_11560_28962"/>
</filter>
<filter id="filter2_f_11560_28962" x="20.618" y="30.7645" width="14.7074" height="17.4164" filterUnits="userSpaceOnUse" color-interpolation-filters="sRGB">
<feFlood flood-opacity="0" result="BackgroundImageFix"/>
<feBlend mode="normal" in="SourceGraphic" in2="BackgroundImageFix" result="shape"/>
<feGaussianBlur stdDeviation="2.275" result="effect1_foregroundBlur_11560_28962"/>
</filter>
<radialGradient id="paint0_radial_11560_28962" cx="0" cy="0" r="1" gradientUnits="userSpaceOnUse" gradientTransform="translate(27.9992 -1.12077) rotate(90) scale(67.2)">
<stop stop-color="#FFE3A3" stop-opacity="0.78"/>
<stop offset="1" stop-color="#FFBB67"/>
</radialGradient>
<linearGradient id="paint1_linear_11560_28962" x1="27.9981" y1="33.3041" x2="27.9981" y2="45.2969" gradientUnits="userSpaceOnUse">
<stop stop-color="#EC809B" stop-opacity="0.1"/>
<stop offset="0.271581" stop-color="#EC809B"/>
<stop offset="1" stop-color="#EC809B"/>
</linearGradient>
</defs>
</svg>
