<svg width="56" height="56" viewBox="0 0 56 56" fill="none" xmlns="http://www.w3.org/2000/svg">
<rect x="15.0977" y="17.9121" width="8.48749" height="28.2916" rx="4.24374" fill="#F7AAAC"/>
<rect x="17.8662" y="20.7549" width="2.97747" height="21.3767" rx="1.48873" fill="white" stroke="white" stroke-width="1.21684"/>
<mask id="path-4-outside-1_11560_28948" maskUnits="userSpaceOnUse" x="15.6445" y="33.3047" width="7" height="12" fill="black">
<rect fill="white" x="15.6445" y="33.3047" width="7" height="12"/>
<path fill-rule="evenodd" clip-rule="evenodd" d="M19.4152 35.3047C18.9322 35.3047 18.5407 35.6962 18.5407 36.1792V40.0187C18.0069 40.3085 17.6445 40.874 17.6445 41.5241C17.6445 42.4694 18.4109 43.2358 19.3563 43.2358C20.3017 43.2358 21.0681 42.4694 21.0681 41.5241C21.0681 40.923 20.7583 40.3943 20.2897 40.0889V36.1792C20.2897 35.6962 19.8982 35.3047 19.4152 35.3047Z"/>
</mask>
<path fill-rule="evenodd" clip-rule="evenodd" d="M19.4152 35.3047C18.9322 35.3047 18.5407 35.6962 18.5407 36.1792V40.0187C18.0069 40.3085 17.6445 40.874 17.6445 41.5241C17.6445 42.4694 18.4109 43.2358 19.3563 43.2358C20.3017 43.2358 21.0681 42.4694 21.0681 41.5241C21.0681 40.923 20.7583 40.3943 20.2897 40.0889V36.1792C20.2897 35.6962 19.8982 35.3047 19.4152 35.3047Z" fill="#EE6C6C"/>
<path d="M18.5407 40.0187L19.1213 41.0881L19.7576 40.7427V40.0187H18.5407ZM20.2897 40.0889H19.0729V40.7483L19.6253 41.1084L20.2897 40.0889ZM19.7576 36.1792C19.7576 36.3683 19.6043 36.5215 19.4152 36.5215V34.0878C18.2602 34.0878 17.3239 35.0242 17.3239 36.1792H19.7576ZM19.7576 40.0187V36.1792H17.3239V40.0187H19.7576ZM18.8614 41.5241C18.8614 41.3377 18.9639 41.1736 19.1213 41.0881L17.9601 38.9493C17.05 39.4434 16.4277 40.4102 16.4277 41.5241H18.8614ZM19.3563 42.019C19.083 42.019 18.8614 41.7974 18.8614 41.5241H16.4277C16.4277 43.1415 17.7389 44.4527 19.3563 44.4527V42.019ZM19.8512 41.5241C19.8512 41.7974 19.6297 42.019 19.3563 42.019V44.4527C20.9737 44.4527 22.2849 43.1415 22.2849 41.5241H19.8512ZM19.6253 41.1084C19.7639 41.1987 19.8512 41.3515 19.8512 41.5241H22.2849C22.2849 40.4945 21.7527 39.5899 20.9541 39.0695L19.6253 41.1084ZM19.0729 36.1792V40.0889H21.5066V36.1792H19.0729ZM19.4152 36.5215C19.2261 36.5215 19.0729 36.3683 19.0729 36.1792H21.5066C21.5066 35.0242 20.5702 34.0878 19.4152 34.0878V36.5215Z" fill="white" mask="url(#path-4-outside-1_11560_28948)"/>
<path d="M32.5624 33.2995C32.2625 33.2995 32.0203 33.1997 31.8357 33.0002C31.6512 32.8007 31.5589 32.5436 31.5589 32.229V29.9499L29.9441 30.9398C29.7058 31.1086 29.4636 31.1815 29.2175 31.1585C28.9791 31.1355 28.7754 31.005 28.6062 30.7671C28.4755 30.5523 28.437 30.322 28.4908 30.0765C28.5447 29.8386 28.7023 29.6429 28.9637 29.4894L31.5589 27.9585V26.5657L31.8127 22.6866L28.5485 24.8506L27.349 25.5297L27.3028 28.534C27.2951 28.8333 27.199 29.0712 27.0145 29.2477C26.8376 29.4165 26.6223 29.4933 26.3686 29.4779C26.0764 29.4702 25.8572 29.3628 25.7111 29.1556C25.5727 28.9484 25.5189 28.6952 25.5496 28.3959L25.6189 26.5427L23.635 27.6822C23.3659 27.828 23.1006 27.8741 22.8391 27.8204C22.5777 27.7667 22.3701 27.6017 22.2163 27.3254C22.0625 27.0722 22.0241 26.8151 22.1009 26.5542C22.1855 26.2933 22.3624 26.0861 22.6315 25.9326L24.6038 24.793L22.9545 23.9067C22.693 23.7763 22.5085 23.6036 22.4008 23.3887C22.2932 23.1662 22.3047 22.9206 22.4354 22.652C22.5508 22.4295 22.7276 22.2837 22.966 22.2146C23.2044 22.1379 23.4543 22.1724 23.7157 22.3182L26.334 23.7916L27.5335 23.101L31.063 21.3744L27.5335 19.6477L26.334 18.9571L23.7273 20.4305C23.4581 20.5686 23.2005 20.6031 22.9545 20.5341C22.7161 20.465 22.5392 20.3154 22.4239 20.0851C22.2932 19.8242 22.2816 19.5825 22.3893 19.36C22.5046 19.1374 22.693 18.9609 22.9545 18.8305L24.5923 17.9557L22.62 16.8161C22.3509 16.6626 22.1778 16.4593 22.1009 16.206C22.0241 15.9451 22.0625 15.6804 22.2163 15.4118C22.3624 15.1509 22.5662 14.9897 22.8276 14.9283C23.0967 14.8669 23.3659 14.913 23.635 15.0665L25.6189 16.206L25.5496 14.3413C25.5266 14.0497 25.5842 13.8003 25.7227 13.5931C25.8611 13.3859 26.0802 13.2785 26.3801 13.2708C26.6339 13.2554 26.8492 13.3322 27.026 13.501C27.2029 13.6698 27.2951 13.9039 27.3028 14.2032L27.3374 17.196L28.5485 17.8981L31.8127 20.0621L31.5589 16.1715V14.7787L28.9637 13.2478C28.7023 13.0943 28.5447 12.8986 28.4908 12.6607C28.437 12.4228 28.4755 12.1926 28.6062 11.9701C28.7754 11.7322 28.9791 11.6017 29.2175 11.5787C29.4636 11.5557 29.7058 11.6324 29.9441 11.8089L31.5589 12.7873V10.5082C31.5589 10.2013 31.6512 9.94802 31.8357 9.7485C32.0203 9.54898 32.2625 9.44922 32.5624 9.44922C32.87 9.44922 33.1122 9.54898 33.289 9.7485C33.4736 9.94034 33.5659 10.1936 33.5659 10.5082V12.7873L35.1576 11.8089C35.3882 11.6324 35.6305 11.5557 35.8842 11.5787C36.138 11.6017 36.3456 11.7322 36.5071 11.9701C36.6378 12.1926 36.6762 12.4228 36.6224 12.6607C36.5686 12.8986 36.4148 13.0981 36.161 13.2593L33.5659 14.7787V16.1715L33.3121 20.0621L36.5647 17.8981L37.7758 17.196L37.8104 14.2032C37.8181 13.9039 37.9104 13.6698 38.0872 13.501C38.2718 13.3322 38.4909 13.2554 38.7447 13.2708C39.0369 13.2785 39.2522 13.3859 39.3906 13.5931C39.529 13.8003 39.5828 14.0497 39.5521 14.3413L39.5059 16.206L41.4898 15.0665C41.7666 14.913 42.0319 14.8669 42.2856 14.9283C42.5394 14.9897 42.7432 15.1509 42.897 15.4118C43.0507 15.6804 43.0892 15.9413 43.0123 16.1945C42.9431 16.4478 42.7701 16.6549 42.4933 16.8161L40.5094 17.9557L42.1588 18.8305C42.4279 18.9609 42.6163 19.1413 42.7239 19.3715C42.8316 19.594 42.8239 19.8319 42.7009 20.0851C42.5778 20.3077 42.3933 20.4573 42.1472 20.5341C41.9089 20.6031 41.659 20.5686 41.3975 20.4305L38.7793 18.9571L37.5797 19.6477L34.0388 21.3744L37.5682 23.101L38.7793 23.7916L41.3975 22.3182C41.659 22.1801 41.9089 22.1456 42.1472 22.2146C42.3856 22.2837 42.5663 22.4295 42.6893 22.652C42.8201 22.913 42.8316 23.1585 42.7239 23.3887C42.6163 23.6113 42.4279 23.7839 42.1588 23.9067L40.5094 24.793L42.4933 25.9326C42.7624 26.0784 42.9316 26.2856 43.0008 26.5542C43.0777 26.8151 43.0392 27.076 42.8854 27.3369C42.7393 27.5978 42.5355 27.759 42.2741 27.8204C42.0204 27.8818 41.7551 27.8357 41.4783 27.6822L39.5059 26.5312L39.5636 28.4074C39.5944 28.699 39.5367 28.9484 39.3906 29.1556C39.2522 29.3551 39.033 29.4626 38.7331 29.4779C38.4871 29.4933 38.2718 29.4165 38.0872 29.2477C37.9104 29.0789 37.8181 28.841 37.8104 28.534L37.7758 25.5412L36.5647 24.8506L33.3121 22.6981L33.5659 26.5657V27.9585L36.161 29.4894C36.4148 29.6429 36.5686 29.8386 36.6224 30.0765C36.6762 30.322 36.6378 30.5523 36.5071 30.7671C36.3379 31.005 36.1264 31.1355 35.8727 31.1585C35.6266 31.1815 35.3882 31.1086 35.1576 30.9398L33.5659 29.9614V32.229C33.5659 32.5513 33.4736 32.8084 33.289 33.0002C33.1122 33.1997 32.87 33.2995 32.5624 33.2995Z" fill="#B3D5DD"/>
</svg>
