<svg width="56" height="56" viewBox="0 0 56 56" fill="none" xmlns="http://www.w3.org/2000/svg">
<path d="M11.4935 35.2587C6.37033 32.5772 2.06595 39.6794 0.875 41.363C0.875 42.3047 2.97256 43.7959 3.72328 44.759C4.18583 43.7948 4.65035 42.5707 5.21502 41.4433C6.95828 37.9626 10.8655 40.4003 14.3415 42.1529C14.4182 42.1916 14.4948 42.2295 14.5714 42.2667C17.2691 43.5766 20.4141 43.9976 23.3883 43.6135C28.1215 43.0021 35.0802 40.2498 36.7699 29.1498C38.7012 16.4624 29.2729 15.2108 23.4052 16.2817C22.6746 16.415 21.9002 16.4157 21.2722 16.019C16.7752 13.1783 14.8919 3.45898 14.8919 3.45898C14.8919 3.45898 12.8185 4.0654 12.1035 4.42212C11.5405 9.15745 15.9918 17.2411 19.9084 19.0328C20.3292 19.2253 20.6219 19.6586 20.5604 20.1173C20.0264 24.101 20.743 26.4587 21.6483 31.0761C22.3423 34.6155 17.6165 35.7865 14.255 36.0455C13.2815 36.1205 12.3585 35.7115 11.4935 35.2587Z" fill="#FFCFC8"/>
<path fill-rule="evenodd" clip-rule="evenodd" d="M9.69319 29.9841C9.56163 29.711 9.67634 29.3831 9.94938 29.2515L12.1666 28.1833C12.3067 28.1158 12.4689 28.1109 12.6129 28.1699C12.7568 28.2289 12.869 28.3462 12.9214 28.4927L13.2526 29.4176L15.0157 28.3971C15.278 28.2452 15.6138 28.3348 15.7656 28.5971C15.9174 28.8594 15.8278 29.1952 15.5655 29.347L13.2327 30.6974C13.0919 30.7789 12.922 30.7937 12.7691 30.7377C12.6162 30.6817 12.496 30.5607 12.4411 30.4074L12.0936 29.4368L10.4258 30.2403C10.1527 30.3719 9.82475 30.2572 9.69319 29.9841Z" fill="#F48B91"/>
<path fill-rule="evenodd" clip-rule="evenodd" d="M15.0672 23.6195C14.9799 23.9098 14.6737 24.0742 14.3835 23.9869L12.0268 23.2778C11.8779 23.2329 11.7549 23.127 11.6886 22.9862C11.6222 22.8456 11.6187 22.6833 11.679 22.5398L12.0592 21.634L10.0697 21.1962C9.77365 21.1311 9.58648 20.8383 9.65161 20.5423C9.71673 20.2464 10.0095 20.0592 10.3055 20.1242L12.938 20.7034C13.097 20.7384 13.2323 20.8423 13.3072 20.9868C13.3822 21.1314 13.3891 21.3017 13.326 21.4518L12.927 22.4024L14.6998 22.9359C14.9901 23.0232 15.1545 23.3293 15.0672 23.6195Z" fill="#F48B91"/>
<path fill-rule="evenodd" clip-rule="evenodd" d="M46.2385 29.9841C46.37 29.711 46.2553 29.3831 45.9823 29.2515L43.7651 28.1833C43.6249 28.1158 43.4627 28.1109 43.3187 28.1699C43.1748 28.2289 43.0626 28.3462 43.0102 28.4927L42.679 29.4176L40.916 28.3971C40.6537 28.2452 40.3179 28.3348 40.166 28.5971C40.0142 28.8594 40.1038 29.1952 40.3661 29.347L42.6989 30.6974C42.8398 30.7789 43.0097 30.7937 43.1626 30.7377C43.3155 30.6817 43.4356 30.5607 43.4905 30.4074L43.838 29.4368L45.5058 30.2403C45.7789 30.3719 46.1069 30.2572 46.2385 29.9841Z" fill="#F48B91"/>
<path fill-rule="evenodd" clip-rule="evenodd" d="M40.8644 23.6195C40.9518 23.9098 41.2579 24.0742 41.5481 23.9869L43.9048 23.2778C44.0538 23.2329 44.1767 23.127 44.2431 22.9862C44.3094 22.8456 44.3129 22.6833 44.2527 22.5398L43.8724 21.634L45.862 21.1962C46.158 21.1311 46.3452 20.8383 46.28 20.5423C46.2149 20.2464 45.9222 20.0592 45.6261 20.1242L42.9937 20.7034C42.8347 20.7384 42.6994 20.8423 42.6244 20.9868C42.5495 21.1314 42.5425 21.3017 42.6056 21.4518L43.0046 22.4024L41.2318 22.9359C40.9416 23.0232 40.7771 23.3293 40.8644 23.6195Z" fill="#F48B91"/>
</svg>
