<svg width="56" height="56" viewBox="0 0 56 56" fill="none" xmlns="http://www.w3.org/2000/svg">
<path d="M48.3852 27.9992C48.3852 39.257 39.259 48.3832 28.0012 48.3832C16.7434 48.3832 7.61719 39.257 7.61719 27.9992C7.61719 16.7415 16.7434 7.61523 28.0012 7.61523C39.259 7.61523 48.3852 16.7415 48.3852 27.9992Z" fill="url(#paint0_radial_11560_28982)"/>
<path d="M31.7812 25.3594C31.7812 25.3594 33.0349 23.7594 34.5813 23.7594C36.1276 23.7594 37.3813 25.3594 37.3813 25.3594" stroke="#1E293B" stroke-width="0.931698" stroke-linecap="round" stroke-linejoin="round"/>
<path d="M21.7519 25.5356C21.7519 26.238 21.5381 26.8661 21.2022 27.314C20.8664 27.7618 20.4179 28.0197 19.9398 28.0197C19.4616 28.0197 19.0132 27.7618 18.6773 27.314C18.3414 26.8661 18.1276 26.238 18.1276 25.5356C18.1276 24.8332 18.3414 24.2051 18.6773 23.7572C19.0132 23.3094 19.4616 23.0515 19.9398 23.0515C20.4179 23.0515 20.8664 23.3094 21.2022 23.7572C21.5381 24.2051 21.7519 24.8332 21.7519 25.5356Z" fill="#334155" stroke="#334155" stroke-width="0.407595"/>
<path d="M33.4201 31.1485C33.0592 30.6638 32.4577 30.4192 31.5771 30.4102C31.5723 30.4102 31.5675 30.4102 31.5627 30.4102C30.5089 30.4102 30.0373 31.8597 29.4406 34.0658C29.0749 35.4157 28.6803 36.8743 27.9297 37.9207C28.4301 37.8845 28.5312 38.1608 29.2048 38.1019C29.8785 38.043 30.9949 37.6489 31.8899 37.1687C32.7849 36.6886 33.3912 35.5923 33.4009 35.5787C33.6944 34.777 34.3055 32.3399 33.4153 31.1485H33.4201Z" fill="#EC809B"/>
<path d="M21.9336 35.7935C21.9336 35.7935 22.9488 38.4539 27.8604 38.2974C32.7278 38.1409 33.6427 35.7935 33.6427 35.7935C33.6427 35.7935 35.5327 30.3844 31.54 30.3322C28.6589 30.2921 29.646 37.4548 26.7288 38.2051" stroke="#334155" stroke-width="0.8225" stroke-linecap="round" stroke-linejoin="round"/>
<path d="M30.2012 37.7322C30.2012 37.7322 31.7661 36.0268 32.051 33.3223" stroke="#334155" stroke-width="0.7" stroke-linecap="round" stroke-linejoin="round"/>
<defs>
<radialGradient id="paint0_radial_11560_28982" cx="0" cy="0" r="1" gradientUnits="userSpaceOnUse" gradientTransform="translate(28.0012 -1.12077) rotate(90) scale(67.2)">
<stop stop-color="#FFE3A3" stop-opacity="0.78"/>
<stop offset="1" stop-color="#FFBB67"/>
</radialGradient>
</defs>
</svg>
