<svg width="56" height="56" viewBox="0 0 56 56" fill="none" xmlns="http://www.w3.org/2000/svg">
<path fill-rule="evenodd" clip-rule="evenodd" d="M24.2721 8.26172C25.3252 8.26172 26.179 9.11223 26.179 10.1614V10.603C26.179 11.4523 26.8701 12.1408 27.7226 12.1408H28.5693C31.0605 12.1408 33.0801 14.1527 33.0801 16.6345C33.0801 19.1163 31.0605 21.1282 28.5693 21.1282H17.7796C17.3534 21.1282 17.0078 21.4725 17.0078 21.8971C17.0078 22.3218 17.3534 22.6661 17.7796 22.6661H32.7463C35.2876 22.6661 37.3478 24.7184 37.3478 27.2502C37.3478 29.782 35.2876 31.8344 32.7463 31.8344H16.1906C15.7894 31.8344 15.4641 32.1584 15.4641 32.5581C15.4641 32.9577 15.7894 33.2817 16.1906 33.2817H28.4945C31.027 33.2817 33.0801 35.327 33.0801 37.85C33.0801 40.3729 31.027 42.4182 28.4945 42.4182H26.6784C25.2491 42.4182 24.0905 43.5724 24.0905 44.9963V45.7652C24.0905 46.8144 23.2368 47.6649 22.1836 47.6649C21.1305 47.6649 20.2767 46.8144 20.2767 45.7652V44.9963C20.2767 41.4741 23.1429 38.6189 26.6784 38.6189H28.4945C28.9207 38.6189 29.2663 38.2746 29.2663 37.85C29.2663 37.4253 28.9207 37.081 28.4945 37.081H16.1906C13.6831 37.081 11.6504 35.056 11.6504 32.5581C11.6504 30.0601 13.6831 28.035 16.1906 28.035H32.7463C33.1814 28.035 33.5341 27.6837 33.5341 27.2502C33.5341 26.8168 33.1814 26.4654 32.7463 26.4654H17.7796C15.2471 26.4654 13.1941 24.4201 13.1941 21.8971C13.1941 19.3742 15.2471 17.3289 17.7796 17.3289H28.5693C28.9542 17.3289 29.2663 17.018 29.2663 16.6345C29.2663 16.251 28.9542 15.9402 28.5693 15.9402H27.7226C24.7638 15.9402 22.3652 13.5506 22.3652 10.603V10.1614C22.3652 9.11223 23.219 8.26172 24.2721 8.26172Z" fill="#F8A9A9"/>
<path fill-rule="evenodd" clip-rule="evenodd" d="M37.7639 21.8765C37.4323 21.8463 37.188 21.5528 37.2182 21.2212L37.4637 18.5284C37.4793 18.3582 37.5663 18.2025 37.7032 18.1002C37.8401 17.9979 38.014 17.9584 38.1817 17.9917L39.2404 18.2021L39.2745 15.9641C39.2795 15.6311 39.5536 15.3653 39.8865 15.3703C40.2194 15.3754 40.4853 15.6494 40.4803 15.9824L40.4352 18.9435C40.4326 19.1224 40.3505 19.2909 40.2114 19.4033C40.0722 19.5158 39.8903 19.5607 39.7149 19.5258L38.6039 19.3051L38.4191 21.3308C38.3889 21.6624 38.0956 21.9067 37.7639 21.8765Z" fill="#F27373"/>
<path fill-rule="evenodd" clip-rule="evenodd" d="M40.4515 22.4063C40.4852 22.7376 40.7811 22.9789 41.1125 22.9452L43.8025 22.6717C43.9726 22.6543 44.1273 22.5657 44.2282 22.4277C44.3291 22.2898 44.3668 22.1155 44.3317 21.9481L44.1104 20.8917L46.3479 20.8343C46.6808 20.8258 46.9438 20.549 46.9352 20.2161C46.9267 19.8833 46.6499 19.6203 46.317 19.6288L43.3565 19.7046C43.1777 19.7092 43.0101 19.793 42.8991 19.9333C42.7881 20.0736 42.7451 20.2559 42.7818 20.431L43.014 21.5396L40.9904 21.7454C40.6591 21.7791 40.4179 22.075 40.4515 22.4063Z" fill="#F27373"/>
<path fill-rule="evenodd" clip-rule="evenodd" d="M47.0783 25.6584C47.1264 25.3289 46.8982 25.0228 46.5687 24.9747L43.8931 24.5842C43.7239 24.5596 43.5523 24.6078 43.4208 24.717C43.2893 24.8262 43.2103 24.9861 43.2035 25.1569L43.1606 26.2355L40.9766 25.7457C40.6517 25.6727 40.3292 25.8771 40.2563 26.202C40.1835 26.5269 40.3878 26.8494 40.7127 26.9223L43.6024 27.5705C43.7769 27.6096 43.9599 27.5692 44.1018 27.4602C44.2436 27.3512 44.3298 27.1848 44.3368 27.0061L44.3819 25.8743L46.3946 26.168C46.7242 26.2161 47.0302 25.9879 47.0783 25.6584Z" fill="#F27373"/>
</svg>
